<?xml version="1.0" encoding="utf-8"?>
<!-- Generator: Adobe Illustrator 26.0.3, SVG Export Plug-In . SVG Version: 6.00 Build 0)  -->
<svg version="1.1" id="Layer_1" xmlns="http://www.w3.org/2000/svg" xmlns:xlink="http://www.w3.org/1999/xlink" x="0px" y="0px"
	 viewBox="0 0 66.3 65.2" style="enable-background:new 0 0 66.3 65.2;" xml:space="preserve">
<style type="text/css">
	.st0{fill:#FFFFFF;}
	.st1{fill:#1F1E1F;}
	.st2{fill:#097BB7;}
</style>
<g>
	<g>
		<g>
			<g>
				
					<ellipse transform="matrix(6.331492e-03 -1 1 6.331492e-03 -0.204 65.0331)" class="st0" cx="32.6" cy="32.6" rx="31.6" ry="31.6"/>
				<path class="st1" d="M32.6,65.2C14.6,65.2,0,50.6,0,32.6S14.6,0,32.6,0c18,0,32.6,14.6,32.6,32.6S50.6,65.2,32.6,65.2z M32.6,2
					C15.7,2,2,15.7,2,32.6s13.7,30.6,30.6,30.6s30.6-13.7,30.6-30.6S49.5,2,32.6,2z"/>
			</g>
		</g>
		<g>
			<g>
				<path class="st0" d="M49,32.6c0,9-7.3,16.4-16.4,16.4c-9,0-16.4-7.3-16.4-16.4c0-9,7.3-16.4,16.4-16.4
					C41.7,16.3,49,23.6,49,32.6z"/>
				<path class="st1" d="M32.6,50c-9.6,0-17.4-7.8-17.4-17.4s7.8-17.4,17.4-17.4S50,23,50,32.6S42.2,50,32.6,50z M32.6,17.3
					c-8.5,0-15.4,6.9-15.4,15.4c0,8.5,6.9,15.4,15.4,15.4S48,41.1,48,32.6C48,24.2,41.1,17.3,32.6,17.3z"/>
			</g>
		</g>
		<g>
			<g>
				<path class="st0" d="M57.3,20.5c0,2-1.6,3.6-3.6,3.6c-2,0-3.6-1.6-3.6-3.6c0-2,1.6-3.6,3.6-3.6C55.7,17,57.3,18.6,57.3,20.5z"/>
				<path class="st2" d="M53.7,25.1c-2.5,0-4.6-2.1-4.6-4.6s2.1-4.6,4.6-4.6c2.5,0,4.6,2.1,4.6,4.6S56.2,25.1,53.7,25.1z M53.7,18
					c-1.4,0-2.6,1.2-2.6,2.6c0,1.4,1.2,2.6,2.6,2.6c1.4,0,2.6-1.2,2.6-2.6C56.3,19.1,55.1,18,53.7,18z"/>
			</g>
		</g>
		<g>
			<g>
				<path class="st0" d="M47.9,9.7c1,1.7,0.4,3.9-1.3,4.9c-1.7,1-3.9,0.4-4.9-1.3c-1-1.7-0.4-3.9,1.3-4.9C44.7,7.4,46.9,8,47.9,9.7z
					"/>
				<path class="st2" d="M44.8,16.1c-1.6,0-3.2-0.9-4-2.3c-0.6-1.1-0.8-2.3-0.5-3.5c0.3-1.2,1.1-2.2,2.1-2.8
					c0.7-0.4,1.5-0.6,2.3-0.6c1.6,0,3.1,0.9,4,2.3c1.3,2.2,0.5,5-1.7,6.3C46.4,15.9,45.6,16.1,44.8,16.1z M44.8,8.9
					c-0.4,0-0.9,0.1-1.3,0.3c-0.6,0.3-1,0.9-1.2,1.6c-0.2,0.7-0.1,1.4,0.3,2c0.7,1.2,2.3,1.6,3.5,0.9c1.2-0.7,1.7-2.3,0.9-3.5
					C46.6,9.4,45.7,8.9,44.8,8.9z"/>
			</g>
		</g>
		<g>
			<g>
				<path class="st0" d="M34.4,5c1.7,1,2.3,3.2,1.3,4.9c-1,1.7-3.2,2.3-4.9,1.3c-1.7-1-2.3-3.2-1.3-4.9C30.5,4.6,32.6,4,34.4,5z"/>
				<path class="st2" d="M32.6,12.7c-0.8,0-1.6-0.2-2.3-0.6c-1.1-0.6-1.8-1.6-2.1-2.8c-0.3-1.2-0.2-2.4,0.5-3.5
					c0.8-1.4,2.3-2.3,4-2.3c0.8,0,1.6,0.2,2.3,0.6c2.2,1.3,2.9,4.1,1.7,6.3C35.7,11.8,34.2,12.7,32.6,12.7z M32.6,5.6
					c-0.9,0-1.8,0.5-2.2,1.3c-0.3,0.6-0.4,1.3-0.3,2c0.2,0.7,0.6,1.2,1.2,1.6c1.2,0.7,2.8,0.2,3.5-0.9c0.7-1.2,0.3-2.8-0.9-3.5
					C33.5,5.7,33,5.6,32.6,5.6z"/>
			</g>
		</g>
		<g>
			<g>
				<path class="st0" d="M20.3,7.7c2,0,3.6,1.6,3.6,3.6c0,2-1.6,3.6-3.6,3.6c-2,0-3.6-1.6-3.6-3.6C16.7,9.3,18.3,7.7,20.3,7.7z"/>
				<path class="st2" d="M20.3,15.9L20.3,15.9c-2.5,0-4.6-2.1-4.6-4.6c0-2.5,2.1-4.6,4.6-4.6c2.5,0,4.6,2.1,4.6,4.6
					C24.9,13.8,22.8,15.9,20.3,15.9z M20.3,8.7c-1.4,0-2.6,1.2-2.6,2.6c0,1.4,1.2,2.6,2.6,2.6c1.4,0,2.6-1.2,2.6-2.6
					C22.9,9.9,21.7,8.7,20.3,8.7z"/>
			</g>
		</g>
		<g>
			<g>
				<path class="st0" d="M9.5,17.1c1.7-1,3.9-0.4,4.9,1.3c1,1.7,0.4,3.9-1.3,4.9c-1.7,1-3.9,0.4-4.9-1.3C7.2,20.3,7.8,18.1,9.5,17.1
					z"/>
				<path class="st2" d="M11.3,24.8c-1.6,0-3.2-0.9-4-2.3c-0.6-1.1-0.8-2.3-0.5-3.5c0.3-1.2,1.1-2.2,2.1-2.8
					c0.7-0.4,1.5-0.6,2.3-0.6c1.6,0,3.2,0.9,4,2.3c0.6,1.1,0.8,2.3,0.5,3.5c-0.3,1.2-1.1,2.2-2.1,2.8C12.9,24.6,12.1,24.8,11.3,24.8
					z M11.3,17.6c-0.4,0-0.9,0.1-1.3,0.3c-0.6,0.3-1,0.9-1.2,1.6c-0.2,0.7-0.1,1.4,0.3,2c0.7,1.2,2.3,1.6,3.5,0.9
					c0.6-0.3,1-0.9,1.2-1.6c0.2-0.7,0.1-1.4-0.3-2C13,18.1,12.2,17.6,11.3,17.6z"/>
			</g>
		</g>
		<g>
			<g>
				<path class="st0" d="M4.8,30.6c1-1.7,3.2-2.3,4.9-1.3c1.7,1,2.3,3.2,1.3,4.9c-1,1.7-3.2,2.3-4.9,1.3C4.4,34.5,3.8,32.3,4.8,30.6
					z"/>
				<path class="st2" d="M7.9,37c-0.8,0-1.6-0.2-2.3-0.6c-1.1-0.6-1.8-1.6-2.1-2.8c-0.3-1.2-0.2-2.4,0.5-3.5c0.8-1.4,2.3-2.3,4-2.3
					c0.8,0,1.6,0.2,2.3,0.6c1.1,0.6,1.8,1.6,2.1,2.8c0.3,1.2,0.2,2.4-0.5,3.5C11,36.1,9.5,37,7.9,37z M7.9,29.9
					c-0.9,0-1.8,0.5-2.2,1.3c-0.3,0.6-0.4,1.3-0.3,2c0.2,0.7,0.6,1.2,1.2,1.6c1.2,0.7,2.8,0.2,3.5-0.9c0.3-0.6,0.4-1.3,0.3-2
					c-0.2-0.7-0.6-1.2-1.2-1.6C8.8,30,8.3,29.9,7.9,29.9z"/>
			</g>
		</g>
		<g>
			<g>
				<path class="st0" d="M7.5,44.7c0-2,1.6-3.6,3.6-3.6c2,0,3.6,1.6,3.6,3.6c0,2-1.6,3.6-3.6,3.6C9.1,48.3,7.5,46.7,7.5,44.7z"/>
				<path class="st2" d="M11.1,49.3c-2.5,0-4.6-2.1-4.6-4.6c0-2.5,2.1-4.6,4.6-4.6c2.5,0,4.6,2.1,4.6,4.6
					C15.6,47.2,13.6,49.3,11.1,49.3z M11.1,42.1c-1.4,0-2.6,1.2-2.6,2.6c0,1.4,1.2,2.6,2.6,2.6c1.4,0,2.6-1.2,2.6-2.6
					C13.6,43.3,12.5,42.1,11.1,42.1z"/>
			</g>
		</g>
		<g>
			<g>
				<path class="st0" d="M16.9,55.5c-1-1.7-0.4-3.9,1.3-4.9c1.7-1,3.9-0.4,4.9,1.3c1,1.7,0.4,3.9-1.3,4.9
					C20,57.8,17.9,57.2,16.9,55.5z"/>
				<path class="st2" d="M20,58.3c-1.6,0-3.1-0.9-4-2.3c-1.3-2.2-0.5-5,1.7-6.2c0.7-0.4,1.5-0.6,2.3-0.6c1.6,0,3.2,0.9,4,2.3
					c0.6,1.1,0.8,2.3,0.5,3.5c-0.3,1.2-1.1,2.2-2.1,2.8C21.6,58.1,20.8,58.3,20,58.3z M20,51.2c-0.4,0-0.9,0.1-1.3,0.3
					c-1.2,0.7-1.7,2.3-0.9,3.5c0.7,1.2,2.3,1.6,3.5,0.9c0.6-0.3,1-0.9,1.2-1.6c0.2-0.7,0.1-1.4-0.3-2C21.7,51.7,20.9,51.2,20,51.2z"
					/>
			</g>
		</g>
		<g>
			<g>
				<path class="st0" d="M30.4,60.2c-1.7-1-2.3-3.2-1.3-4.9c1-1.7,3.2-2.3,4.9-1.3c1.7,1,2.3,3.2,1.3,4.9
					C34.3,60.6,32.1,61.2,30.4,60.2z"/>
				<path class="st2" d="M32.2,61.7c-0.8,0-1.6-0.2-2.3-0.6c-2.2-1.3-2.9-4.1-1.7-6.2c0.8-1.4,2.3-2.3,4-2.3c0.8,0,1.6,0.2,2.3,0.6
					c2.2,1.3,2.9,4.1,1.7,6.2C35.3,60.8,33.8,61.7,32.2,61.7z M32.2,54.5c-0.9,0-1.8,0.5-2.2,1.3c-0.7,1.2-0.3,2.8,0.9,3.5
					c1.2,0.7,2.8,0.2,3.5-0.9c0.7-1.2,0.3-2.8-0.9-3.5C33.1,54.7,32.6,54.5,32.2,54.5z"/>
			</g>
		</g>
		<g>
			<g>
				<path class="st0" d="M44.5,57.5c-2,0-3.6-1.6-3.6-3.6c0-2,1.6-3.6,3.6-3.6c2,0,3.6,1.6,3.6,3.6C48,55.9,46.4,57.5,44.5,57.5z"/>
				<path class="st2" d="M44.5,58.5c-2.5,0-4.6-2.1-4.6-4.6c0-2.5,2.1-4.6,4.6-4.6c2.5,0,4.6,2.1,4.6,4.6C49,56.4,47,58.5,44.5,58.5
					z M44.5,51.4c-1.4,0-2.6,1.2-2.6,2.6c0,1.4,1.2,2.6,2.6,2.6c1.4,0,2.6-1.2,2.6-2.6C47,52.5,45.9,51.4,44.5,51.4z"/>
			</g>
		</g>
		<g>
			<g>
				<path class="st0" d="M65.3,41.4l-5.5,9.7L51,46.4c0,0-2.8-1.8-1.5-4.2c1.4-2.4,3.6-1.4,4.3-0.7c1.2,1.4-0.1,3.1-0.1,3.1l5.3,2.7
					l3.5-6.2C62.5,41.2,63.2,40.1,65.3,41.4z"/>
				<path class="st2" d="M59.8,52.1c-0.2,0-0.3,0-0.5-0.1l-8.8-4.7c-1.3-0.8-3.3-3-1.9-5.6c1-1.8,2.4-2,3.2-2c1.2,0,2.2,0.6,2.7,1.2
					c1,1.1,0.8,2.4,0.5,3.4l3.6,1.8l3-5.3c0.3-0.5,0.9-1,1.9-1c0.7,0,1.5,0.3,2.4,0.8c0.4,0.3,0.6,0.9,0.3,1.3l-5.5,9.7
					C60.5,52,60.2,52.1,59.8,52.1z M51.9,41.7c-0.6,0-1,0.3-1.4,1c-0.9,1.6,1,2.8,1.1,2.8l7.9,4.2l4.5-7.9c-0.4-0.1-0.6-0.1-0.6,0
					l-3.5,6.1c-0.3,0.5-0.8,0.6-1.3,0.4l-5.3-2.7c-0.3-0.1-0.5-0.4-0.5-0.7c-0.1-0.3,0-0.6,0.2-0.8c0.1-0.1,0.8-1.1,0.2-1.9
					C52.9,42,52.4,41.7,51.9,41.7z"/>
			</g>
		</g>
	</g>
	<g>
		<g>
			<path class="st2" d="M25.2,30.7c0,0.4-0.1,0.9-0.2,1.3c-0.2,0.4-0.4,0.9-0.6,1.3c-0.2,0.4-0.5,0.8-0.8,1.2
				c-0.3,0.4-0.6,0.8-0.9,1.1L22,36.2v0.1l0.9-0.2h2.4v1.4H20v-0.8c0.2-0.2,0.4-0.5,0.7-0.7c0.3-0.3,0.5-0.6,0.8-0.9
				c0.3-0.3,0.5-0.6,0.8-1c0.2-0.3,0.5-0.7,0.7-1c0.2-0.3,0.3-0.7,0.5-1c0.1-0.3,0.2-0.6,0.2-0.9c0-0.3-0.1-0.6-0.3-0.9
				c-0.2-0.2-0.5-0.3-0.9-0.3c-0.3,0-0.5,0.1-0.8,0.2c-0.3,0.1-0.5,0.3-0.7,0.4l-0.7-1.2c0.3-0.3,0.7-0.5,1.1-0.7
				c0.4-0.2,0.9-0.2,1.5-0.2c0.4,0,0.7,0.1,1,0.2c0.3,0.1,0.6,0.2,0.8,0.4c0.2,0.2,0.4,0.4,0.5,0.7C25.1,30,25.2,30.4,25.2,30.7z"/>
		</g>
		<g>
			<path class="st2" d="M33.3,35H32v2.5h-1.5V35h-3.8V34l4-5.5H32v5.1h1.4V35z M30.4,31.7l0.1-1.1h-0.1l-0.4,0.9l-1.3,1.7l-0.6,0.5
				l0.8-0.1h1.5V31.7z"/>
		</g>
		<g>
			<path class="st2" d="M37.7,28.4L39,29l-4.5,10.2l-1.2-0.6L37.7,28.4z"/>
		</g>
		<g>
			<path class="st2" d="M40,37.4l2.9-6.8l0.6-0.6l-0.8,0.1h-3.3v-1.5h5.7v0.5l-3.5,8.4H40z"/>
		</g>
	</g>
</g>
</svg>
