<?xml version="1.0" encoding="utf-8"?>
<!-- Generator: Adobe Illustrator 26.0.3, SVG Export Plug-In . SVG Version: 6.00 Build 0)  -->
<svg version="1.1" id="_x3C_Layer_x3E_" xmlns="http://www.w3.org/2000/svg" xmlns:xlink="http://www.w3.org/1999/xlink" x="0px"
	 y="0px" viewBox="0 0 131 131.8" style="enable-background:new 0 0 131 131.8;" xml:space="preserve">
<style type="text/css">
	.st0{fill:#444444;}
	.st1{fill:#007AB6;}
</style>
<g>
	<g>
		<path class="st0" d="M19.1,23.9c-3.3,0-6-2.7-6-6s2.7-6,6-6s6,2.7,6,6C25.1,21.2,22.4,23.9,19.1,23.9z M19.1,15.7
			c-1.2,0-2.2,1-2.2,2.2s1,2.2,2.2,2.2s2.2-1,2.2-2.2C21.3,16.7,20.3,15.7,19.1,15.7z"/>
	</g>
	<g>
		<path class="st1" d="M73.4,24.6c-1.1,0-1.9-0.9-1.9-1.9V11c0-1.1,0.9-1.9,1.9-1.9c1.1,0,1.9,0.9,1.9,1.9v11.6
			C75.3,23.7,74.5,24.6,73.4,24.6z"/>
	</g>
	<g>
		<path class="st1" d="M86.9,24.6c-1.1,0-1.9-0.9-1.9-1.9V11c0-1.1,0.9-1.9,1.9-1.9c1.1,0,1.9,0.9,1.9,1.9v11.6
			C88.8,23.7,87.9,24.6,86.9,24.6z"/>
	</g>
	<g>
		<path class="st1" d="M100.4,24.6c-1.1,0-1.9-0.9-1.9-1.9V11c0-1.1,0.9-1.9,1.9-1.9c1.1,0,1.9,0.9,1.9,1.9v11.6
			C102.3,23.7,101.4,24.6,100.4,24.6z"/>
	</g>
	<g>
		<path class="st1" d="M113.8,24.6c-1.1,0-1.9-0.9-1.9-1.9V11c0-1.1,0.9-1.9,1.9-1.9c1.1,0,1.9,0.9,1.9,1.9v11.6
			C115.8,23.7,114.9,24.6,113.8,24.6z"/>
	</g>
	<g>
		<path class="st0" d="M19.1,66.2c-3.3,0-6-2.7-6-6s2.7-6,6-6s6,2.7,6,6C25.1,63.5,22.4,66.2,19.1,66.2z M19.1,57.9
			c-1.2,0-2.2,1-2.2,2.2c0,1.2,1,2.2,2.2,2.2s2.2-1,2.2-2.2C21.3,58.9,20.3,57.9,19.1,57.9z"/>
	</g>
	<g>
		<path class="st1" d="M73.4,66.8c-1.1,0-1.9-0.9-1.9-1.9V53.2c0-1.1,0.9-1.9,1.9-1.9c1.1,0,1.9,0.9,1.9,1.9v11.6
			C75.3,65.9,74.5,66.8,73.4,66.8z"/>
	</g>
	<g>
		<path class="st1" d="M86.9,66.8c-1.1,0-1.9-0.9-1.9-1.9V53.2c0-1.1,0.9-1.9,1.9-1.9c1.1,0,1.9,0.9,1.9,1.9v11.6
			C88.8,65.9,87.9,66.8,86.9,66.8z"/>
	</g>
	<g>
		<path class="st1" d="M100.4,66.8c-1.1,0-1.9-0.9-1.9-1.9V53.2c0-1.1,0.9-1.9,1.9-1.9c1.1,0,1.9,0.9,1.9,1.9v11.6
			C102.3,65.9,101.4,66.8,100.4,66.8z"/>
	</g>
	<g>
		<path class="st1" d="M113.8,66.8c-1.1,0-1.9-0.9-1.9-1.9V53.2c0-1.1,0.9-1.9,1.9-1.9c1.1,0,1.9,0.9,1.9,1.9v11.6
			C115.8,65.9,114.9,66.8,113.8,66.8z"/>
	</g>
	<g>
		<path class="st0" d="M19.1,108.4c-3.3,0-6-2.7-6-6s2.7-6,6-6s6,2.7,6,6S22.4,108.4,19.1,108.4z M19.1,100.1c-1.2,0-2.2,1-2.2,2.2
			s1,2.2,2.2,2.2s2.2-1,2.2-2.2C21.3,101.1,20.3,100.1,19.1,100.1z"/>
	</g>
	<g>
		<path class="st1" d="M73.4,109c-1.1,0-1.9-0.9-1.9-1.9V95.5c0-1.1,0.9-1.9,1.9-1.9c1.1,0,1.9,0.9,1.9,1.9v11.6
			C75.3,108.1,74.5,109,73.4,109z"/>
	</g>
	<g>
		<path class="st1" d="M86.9,109c-1.1,0-1.9-0.9-1.9-1.9V95.5c0-1.1,0.9-1.9,1.9-1.9c1.1,0,1.9,0.9,1.9,1.9v11.6
			C88.8,108.1,87.9,109,86.9,109z"/>
	</g>
	<g>
		<path class="st1" d="M100.4,109c-1.1,0-1.9-0.9-1.9-1.9V95.5c0-1.1,0.9-1.9,1.9-1.9c1.1,0,1.9,0.9,1.9,1.9v11.6
			C102.3,108.1,101.4,109,100.4,109z"/>
	</g>
	<g>
		<path class="st1" d="M113.8,109c-1.1,0-1.9-0.9-1.9-1.9V95.5c0-1.1,0.9-1.9,1.9-1.9c1.1,0,1.9,0.9,1.9,1.9v11.6
			C115.8,108.1,114.9,109,113.8,109z"/>
	</g>
	<g>
		<path class="st0" d="M129.1,37.7H1.9c-1,0-1.9-0.8-1.9-1.9V1.9C0,0.9,0.9,0,1.9,0H129c1.1,0,1.9,0.9,1.9,1.9v33.8
			C131,36.8,130.1,37.7,129.1,37.7z M3.8,33.8h123.3v-30H3.8V33.8z"/>
	</g>
	<g>
		<path class="st0" d="M129.1,122.1H1.9c-1.1,0-1.9-0.9-1.9-1.9V86.3c0-1.1,0.9-1.9,1.9-1.9H129c1.1,0,1.9,0.9,1.9,1.9v33.8
			C131,121.2,130.1,122.1,129.1,122.1z M3.8,118.3h123.3v-30H3.8V118.3z"/>
	</g>
	<g>
		<path class="st0" d="M113.8,88.3H17.1c-1.1,0-1.9-0.9-1.9-1.9V78c0-1.1,0.9-1.9,1.9-1.9h96.7c1.1,0,1.9,0.9,1.9,1.9v8.4
			C115.8,87.4,114.9,88.3,113.8,88.3z M19,84.4h92.9v-4.5H19V84.4z"/>
	</g>
	<g>
		<path class="st0" d="M113.8,46H17.1c-1.1,0-1.9-0.9-1.9-1.9v-8.4c0-1.1,0.9-1.9,1.9-1.9h96.7c1.1,0,1.9,0.9,1.9,1.9v8.4
			C115.8,45.2,114.9,46,113.8,46z M19,42.2h92.9v-4.5H19V42.2z"/>
	</g>
	<g>
		<path class="st0" d="M129.1,79.9H1.9C0.9,79.9,0,79,0,78V44.1c0-1.1,0.9-1.9,1.9-1.9H129c1.1,0,1.9,0.9,1.9,1.9V78
			C131,79,130.1,79.9,129.1,79.9z M3.8,76.1h123.3V46H3.8V76.1z"/>
	</g>
	<g>
		<path class="st0" d="M28.7,131.8H15.3c-1.1,0-1.9-0.9-1.9-1.9v-9.7c0-1.1,0.9-1.9,1.9-1.9h13.4c1.1,0,1.9,0.9,1.9,1.9v9.7
			C30.6,130.9,29.7,131.8,28.7,131.8z M17.2,127.9h9.5v-5.8h-9.5C17.2,122.1,17.2,127.9,17.2,127.9z"/>
	</g>
	<g>
		<path class="st0" d="M115.7,131.8h-13.3c-1.1,0-1.9-0.9-1.9-1.9v-9.7c0-1.1,0.9-1.9,1.9-1.9h13.3c1.1,0,1.9,0.9,1.9,1.9v9.7
			C117.6,130.9,116.7,131.8,115.7,131.8z M104.2,127.9h9.5v-5.8h-9.5V127.9z"/>
	</g>
</g>
</svg>
