<?xml version="1.0" encoding="utf-8"?>
<!-- Generator: Adobe Illustrator 26.0.3, SVG Export Plug-In . SVG Version: 6.00 Build 0)  -->
<svg version="1.1" id="Layer_1" xmlns="http://www.w3.org/2000/svg" xmlns:xlink="http://www.w3.org/1999/xlink" x="0px" y="0px"
	 viewBox="0 0 986.5 986.5" style="enable-background:new 0 0 986.5 986.5;" xml:space="preserve">
<style type="text/css">
	.st0{fill:#FFFFFF;}
	.st1{fill:#28A8E0;}
</style>
<g id="objects">
	<g>
		<path class="st0" d="M493.3,986.5c-66.6,0-131.2-13-192-38.8c-58.7-24.8-111.5-60.4-156.8-105.7S63.6,744,38.8,685.3
			C13,624.4,0,559.8,0,493.3s13-131.2,38.8-192c24.8-58.7,60.4-111.5,105.7-156.8s98-80.8,156.8-105.7C362.1,13,426.7,0,493.3,0
			c55.1,0,109.2,9,160.8,26.8c22.5,7.8,34.5,32.3,26.7,54.9c-7.8,22.5-32.3,34.5-54.9,26.7c-42.6-14.7-87.2-22.1-132.7-22.1
			c-108.7,0-210.9,42.3-287.7,119.2S86.3,384.6,86.3,493.3S128.6,704.1,205.5,781s179,119.2,287.7,119.2S704.1,857.9,781,781
			s119.2-179.1,119.2-287.7c0-44.7-7.2-88.6-21.3-130.5c-7.6-22.6,4.5-47.1,27.1-54.7s47.1,4.5,54.7,27.1
			c17.2,50.8,25.9,104,25.9,158.1c0,66.6-13,131.2-38.8,192C922.9,744,887.3,796.8,842,842c-45.3,45.3-98,80.8-156.8,105.7
			C624.4,973.5,559.8,986.5,493.3,986.5z"/>
		<path class="st1" d="M448.7,723.9c-11.4,0-22.4-4.5-30.5-12.6L252.9,545.9c-16.9-16.9-16.9-44.2,0-61c16.9-16.9,44.2-16.9,61,0
			l128.9,128.9L825.3,65.3C839,45.8,865.9,41,885.4,54.6c19.6,13.6,24.3,40.5,10.7,60.1l-412,590.7c-7.3,10.5-18.9,17.2-31.6,18.3
			C451.3,723.8,450,723.9,448.7,723.9z"/>
	</g>
</g>
</svg>
