<?xml version="1.0" encoding="utf-8"?>
<!-- Generator: Adobe Illustrator 26.0.3, SVG Export Plug-In . SVG Version: 6.00 Build 0)  -->
<svg version="1.1" id="_x3C_Layer_x3E_" xmlns="http://www.w3.org/2000/svg" xmlns:xlink="http://www.w3.org/1999/xlink" x="0px"
	 y="0px" viewBox="0 0 130 130.8" style="enable-background:new 0 0 130 130.8;" xml:space="preserve">
<style type="text/css">
	.st0{fill:#007AB6;}
	.st1{fill:#303030;}
</style>
<g>
	<g>
		<path class="st0" d="M49,51.1c-0.5,0-1-0.2-1.3-0.6L43,45.9c-0.8-0.8-0.8-2,0-2.7c0.8-0.8,2-0.8,2.7,0l4.6,4.6
			c0.8,0.8,0.8,2,0,2.7C50,51,49.5,51.1,49,51.1z"/>
	</g>
	<g>
		<path class="st0" d="M98.6,100.7c-0.5,0-1-0.2-1.3-0.6l-4.6-4.6c-0.8-0.8-0.8-2,0-2.7c0.8-0.8,2-0.8,2.7,0l4.6,4.6
			c0.8,0.8,0.8,2,0,2.7C99.6,100.5,99.1,100.7,98.6,100.7z"/>
	</g>
	<g>
		<path class="st0" d="M94,51.1c-0.5,0-1-0.2-1.3-0.6c-0.8-0.8-0.8-2,0-2.7l4.6-4.6c0.8-0.8,2-0.8,2.7,0c0.8,0.8,0.8,2,0,2.7
			l-4.6,4.6C94.9,51,94.5,51.1,94,51.1z"/>
	</g>
	<g>
		<path class="st0" d="M44.4,100.7c-0.5,0-1-0.2-1.3-0.6c-0.8-0.8-0.8-2,0-2.7l4.6-4.6c0.8-0.8,2-0.8,2.7,0c0.8,0.8,0.8,2,0,2.7
			l-4.6,4.6C45.4,100.5,44.9,100.7,44.4,100.7z"/>
	</g>
	<g>
		<path class="st0" d="M71.5,41.8c-1.1,0-1.9-0.9-1.9-1.9v-6.5c0-1.1,0.9-1.9,1.9-1.9c1.1,0,1.9,0.9,1.9,1.9v6.5
			C73.4,41,72.6,41.8,71.5,41.8z"/>
	</g>
	<g>
		<path class="st0" d="M71.5,111.9c-1.1,0-1.9-0.9-1.9-1.9v-6.6c0-1.1,0.9-1.9,1.9-1.9c1.1,0,1.9,0.9,1.9,1.9v6.6
			C73.4,111.1,72.6,111.9,71.5,111.9z"/>
	</g>
	<g>
		<path class="st0" d="M39.7,73.6h-6.5c-1.1,0-1.9-0.9-1.9-1.9c0-1.1,0.9-1.9,1.9-1.9h6.5c1.1,0,1.9,0.9,1.9,1.9
			S40.8,73.6,39.7,73.6z"/>
	</g>
	<g>
		<path class="st0" d="M109.8,73.6h-6.6c-1.1,0-1.9-0.9-1.9-1.9c0-1.1,0.9-1.9,1.9-1.9h6.6c1.1,0,1.9,0.9,1.9,1.9
			C111.7,72.8,110.9,73.6,109.8,73.6z"/>
	</g>
	<g>
		<path class="st1" d="M9.4,33.5c-1.3,0-2.6-0.5-3.6-1.5l-4.4-4.4C0.5,26.7,0,25.4,0,24s0.5-2.6,1.5-3.6l19-19c2-2,5.2-2,7.2,0
			L32,5.9c2,2,2,5.2,0,7.2L13,32C12,33,10.7,33.5,9.4,33.5z M24,3.8c-0.3,0-0.6,0.1-0.9,0.4l-19,19C4,23.4,3.8,23.7,3.8,24
			s0.1,0.6,0.4,0.9l4.4,4.4c0.5,0.5,1.3,0.5,1.8,0l19-19c0.5-0.5,0.5-1.3,0-1.8l-4.4-4.4C24.7,3.9,24.4,3.8,24,3.8z"/>
	</g>
	<g>
		<path class="st1" d="M27.5,36.4c-0.5,0-1-0.2-1.4-0.6L16.3,26c-0.4-0.4-0.6-0.9-0.6-1.4c0-0.5,0.2-1,0.6-1.4l6.8-6.8
			c0.4-0.4,0.8-0.6,1.4-0.6l0,0c0.5,0,1,0.2,1.4,0.6l9.9,9.9c0.4,0.4,0.6,0.9,0.6,1.4s-0.3,1-0.7,1.4c-1.4,1.1-2.6,2.2-3.7,3.4
			c-0.9,0.9-1.8,1.9-2.9,3.1C28.6,36.1,28.1,36.4,27.5,36.4C27.5,36.4,27.5,36.4,27.5,36.4z M20.4,24.7l7,7c0.6-0.6,1.1-1.2,1.7-1.8
			c0.8-0.8,1.5-1.5,2.4-2.2l-7.1-7.1L20.4,24.7z"/>
	</g>
	<g>
		<path class="st1" d="M70.9,130.8c-15.1,0-30.3-5.8-41.8-17.3c-10.6-10.6-16.7-24.6-17.2-39.6c-0.2-5.3,0.3-10.5,1.5-15.7
			C15.6,49,19.9,40.4,26,33.3c1.1-1.3,2.1-2.4,3.1-3.4c1.2-1.2,2.5-2.4,4-3.6c7-5.9,15.4-10,24.3-12.1c5.1-1.2,10.4-1.7,15.7-1.5
			c15,0.6,29,6.7,39.6,17.2C123.8,41,130,55.9,130,71.7s-6.1,30.6-17.3,41.8C101.2,125,86,130.8,70.9,130.8z M70.9,16.5
			c-4.3,0-8.5,0.5-12.6,1.5c-8.3,1.9-16.2,5.9-22.7,11.3c-1.4,1.1-2.6,2.2-3.7,3.4c-0.9,0.9-1.8,1.9-2.9,3.1
			c-5.7,6.7-9.8,14.7-11.8,23.3c-1.1,4.8-1.6,9.8-1.4,14.7c0.5,14,6.2,27.2,16.1,37c21.5,21.5,56.6,21.5,78.2,0
			c10.4-10.4,16.2-24.3,16.2-39.1S120.4,43,110,32.6c-9.9-9.9-23-15.6-37-16.1l0,0C72.3,16.5,71.6,16.5,70.9,16.5z M70.9,120.4
			c-13,0-25.3-5.1-34.5-14.2C25,94.7,20,78.2,23.1,62.2c1.9-9.5,6.5-18.2,13.3-25s15.5-11.5,25-13.3c16-3.1,32.4,1.8,43.9,13.3
			c9.2,9.2,14.2,21.4,14.2,34.4s-5.1,25.3-14.2,34.4l0,0C96.2,115.3,83.9,120.4,70.9,120.4z M70.9,26.8c-2.9,0-5.8,0.3-8.7,0.9
			c-8.8,1.7-16.7,6-23,12.3c-6.3,6.3-10.6,14.3-12.3,23c-2.9,14.7,1.7,29.9,12.3,40.5c8.5,8.5,19.7,13.1,31.8,13.1
			s23.3-4.7,31.8-13.1l0,0c8.5-8.5,13.1-19.7,13.1-31.8s-4.7-23.3-13.1-31.8C94.2,31.4,82.7,26.8,70.9,26.8z"/>
	</g>
	<g>
		<path class="st1" d="M71.3,79.3c-2,0-4.1-0.8-5.6-2.3c-3.1-3.1-3.1-8.1,0-11.2c3.1-3.1,8.1-3.1,11.2,0c3.1,3.1,3.1,8.1,0,11.2
			C75.4,78.6,73.4,79.3,71.3,79.3z M71.3,67.3c-1.1,0-2.1,0.4-2.9,1.2c-1.6,1.6-1.6,4.2,0,5.8s4.2,1.6,5.8,0s1.6-4.2,0-5.8
			C73.4,67.7,72.4,67.3,71.3,67.3z"/>
	</g>
	<g>
		<path class="st1" d="M70.8,72.9H49.1c-1.1,0-1.9-0.9-1.9-1.9c0-1.1,0.9-1.9,1.9-1.9h21.7c1.1,0,1.9,0.9,1.9,1.9
			C72.7,72,71.8,72.9,70.8,72.9z"/>
	</g>
</g>
</svg>
