<?xml version="1.0" encoding="utf-8"?>
<!-- Generator: Adobe Illustrator 26.0.3, SVG Export Plug-In . SVG Version: 6.00 Build 0)  -->
<svg version="1.1" id="_x3C_Layer_x3E_" xmlns="http://www.w3.org/2000/svg" xmlns:xlink="http://www.w3.org/1999/xlink" x="0px"
	 y="0px" viewBox="0 0 134.1 129.2" style="enable-background:new 0 0 134.1 129.2;" xml:space="preserve">
<style type="text/css">
	.st0{fill:#303030;}
	.st1{fill:#007AB6;}
</style>
<g>
	<g>
		<path class="st0" d="M29.7,66.2c-4,0-7.2-3.2-7.2-7.2c0-1.5,0.4-2.9,1.2-4.1l0,0c1.4-2,3.6-3.2,6-3.2c4,0,7.2,3.2,7.2,7.2
			C36.9,63,33.7,66.2,29.7,66.2z M26.9,57.1c-0.4,0.6-0.6,1.2-0.6,1.9c0,1.9,1.5,3.4,3.4,3.4s3.4-1.5,3.4-3.4c0-1.9-1.5-3.4-3.4-3.4
			C28.6,55.6,27.5,56.2,26.9,57.1L26.9,57.1z"/>
	</g>
	<g>
		<path class="st0" d="M27.4,56.1c-0.7,0-1.5-0.4-1.8-1.2c-3.2-7.3-3.4-12.4-0.6-15.2c4.9-4.9,16,0.3,24.5,5.5
			c0.9,0.6,1.2,1.7,0.6,2.7c-0.6,0.9-1.7,1.2-2.7,0.6c-11.7-7.3-18-7.8-19.7-6.1c-1.5,1.5-1,5.6,1.4,10.9c0.4,1,0,2.1-1,2.5
			C27.9,56.1,27.7,56.1,27.4,56.1z"/>
	</g>
	<g>
		<path class="st0" d="M53.8,74.2c-4,0-7.2-3.2-7.2-7.2s3.2-7.2,7.2-7.2S61,63,61,67S57.8,74.2,53.8,74.2z M53.8,63.6
			c-1.9,0-3.4,1.5-3.4,3.4c0,1.9,1.5,3.4,3.4,3.4c1.9,0,3.4-1.5,3.4-3.4C57.2,65.1,55.7,63.6,53.8,63.6z"/>
	</g>
	<g>
		<path class="st1" d="M116.9,84.3h-13.4c-1,0-1.9-0.8-1.9-1.8c-0.6-17.9-15.2-32-33.1-32s-32.5,14.1-33.1,32c0,1-0.9,1.8-1.9,1.8
			H17.1C7.7,84.3,0,76.6,0,67.1c0-9,7-16.5,15.9-17.1c-2-3.7-3.1-7.8-3.1-12.1c0-14,11.4-25.3,25.3-25.3c3.4,0,6.7,0.7,9.8,2
			C52,5.8,61,0,70.8,0c13.3,0,24.3,10.4,25.2,23.5c0.6,0,1.1-0.1,1.7-0.1c12.2,0,22.2,10,22.2,22.2c0,1.5-0.2,3.1-0.5,4.6
			c8.3,1.2,14.6,8.4,14.6,17C134.1,76.6,126.4,84.3,116.9,84.3z M105.3,80.4H117c7.3,0,13.3-6,13.3-13.3c0-7.3-5.9-13.3-13.2-13.3
			c-0.6,0-1.2-0.3-1.6-0.8s-0.5-1.1-0.3-1.7c0.6-1.9,0.9-3.8,0.9-5.7c0-10.1-8.2-18.4-18.4-18.4c-1,0-2.1,0.1-3.2,0.3
			c-0.6,0.1-1.1-0.1-1.6-0.4s-0.7-0.9-0.7-1.5c0-0.1,0-0.2,0-0.3c0-11.9-9.6-21.5-21.5-21.5c-8.9,0-17,5.6-20.1,14
			c-0.2,0.5-0.6,0.9-1.1,1.1c-0.5,0.2-1.1,0.2-1.6-0.1c-3.1-1.6-6.4-2.4-9.9-2.4c-11.8,0-21.5,9.6-21.5,21.5c0,4.6,1.5,9,4.3,12.8
			c0.4,0.6,0.5,1.4,0.2,2c-0.3,0.7-1,1.1-1.7,1.1h-2.3c-7.3,0-13.3,6-13.3,13.3s6,13.3,13.3,13.3h14.4C33.2,61.3,49,46.6,68.4,46.6
			C87.9,46.5,103.7,61.3,105.3,80.4z"/>
	</g>
	<g>
		<path class="st1" d="M72.3,28.7c-5.1,0-9.2-4.1-9.2-9.2s4.1-9.2,9.2-9.2s9.2,4.1,9.2,9.2C81.4,24.6,77.3,28.7,72.3,28.7z
			 M72.3,14.2c-2.9,0-5.3,2.4-5.3,5.3s2.4,5.3,5.3,5.3s5.3-2.4,5.3-5.3C77.6,16.6,75.2,14.2,72.3,14.2z"/>
	</g>
	<g>
		<path class="st0" d="M68.4,120.6c-10.3,0-19.9-4.1-26.9-11.6C35,102,31.4,93,31.4,83.6c0-0.4,0-0.8,0-1.1l0-0.2
			c0.7-20,16.9-35.7,37-35.7s36.3,15.7,37,35.7l0,0.2c0,0.4,0,0.8,0,1.1c0,9.5-3.6,18.5-10.1,25.4C88.3,116.4,78.7,120.6,68.4,120.6
			z M68.4,50.4c-18,0-32.5,14.1-33.1,32l0,0.2c0,0.3,0,0.7,0,1c0,8.5,3.2,16.5,9,22.7c6.3,6.7,14.9,10.4,24.1,10.4
			c9.2,0,17.8-3.7,24.2-10.4c5.8-6.2,9-14.2,9-22.7c0-0.3,0-0.7,0-1l0-0.2l0,0C101,64.4,86.4,50.4,68.4,50.4z"/>
	</g>
	<g>
		<path class="st0" d="M106.7,128.8c-5,0-11.6-3.1-17-6.3c-10.2-6-22-15.5-33.4-26.9C45.9,85.2,36.8,74.1,30.8,64.5
			c-0.6-0.9-0.3-2.1,0.6-2.7c0.9-0.6,2.1-0.3,2.7,0.6c5.9,9.4,14.7,20.2,24.9,30.4c11.1,11.1,22.7,20.5,32.6,26.3
			c10.5,6.2,16.1,6.6,17.7,4.9c1.7-1.7,1.2-7.7-5.6-18.9c-0.6-0.9-0.3-2.1,0.6-2.6c0.9-0.6,2.1-0.3,2.6,0.6c4.9,8.1,9.8,18.8,5,23.6
			C110.7,128.2,108.8,128.8,106.7,128.8z"/>
	</g>
	<g>
		<path class="st0" d="M44.1,129.2c-1.5,0-2.9-0.4-4.1-1.2l0,0c-2-1.3-3.2-3.6-3.2-6c0-4,3.2-7.2,7.2-7.2s7.2,3.2,7.2,7.2
			C51.3,125.9,48.1,129.2,44.1,129.2z M42.2,124.8c0.6,0.4,1.2,0.6,1.9,0.6c1.9,0,3.4-1.5,3.4-3.4s-1.5-3.4-3.4-3.4
			s-3.4,1.5-3.4,3.4C40.8,123.1,41.3,124.1,42.2,124.8L42.2,124.8z"/>
	</g>
	<g>
		<path class="st0" d="M30.4,128.6c-2.3,0-4.1-0.7-5.4-2c-4.9-4.8,0.2-15.7,5.3-24c0.5-0.9,1.7-1.2,2.6-0.6c0.9,0.6,1.2,1.7,0.6,2.6
			c-7.1,11.5-7.6,17.6-5.8,19.3c1.5,1.5,5.3,1,10.4-1.2c1-0.4,2.1,0,2.5,1c0.4,1,0,2.1-1,2.5C36,127.8,32.9,128.6,30.4,128.6z"/>
	</g>
	<g>
		<path class="st0" d="M48.9,121c-0.6,0-1.3-0.3-1.6-0.9c-0.6-0.9-0.3-2.1,0.6-2.7c9.3-5.9,20.3-15,30.1-24.8
			c25.3-25.3,35.2-46.4,31.2-50.4c-1.8-1.8-8.1-1.2-20,6.3c-0.9,0.6-2.1,0.3-2.7-0.6c-0.6-0.9-0.3-2.1,0.6-2.7
			c8.6-5.4,19.8-10.7,24.8-5.8c8,8-10.1,34.7-31.2,55.8c-10,10-21.3,19.3-30.8,25.3C49.7,120.9,49.3,121,48.9,121z"/>
	</g>
</g>
</svg>
