<?xml version="1.0" encoding="utf-8"?>
<!-- Generator: Adobe Illustrator 26.0.3, SVG Export Plug-In . SVG Version: 6.00 Build 0)  -->
<svg version="1.1" id="_x3C_Layer_x3E_" xmlns="http://www.w3.org/2000/svg" xmlns:xlink="http://www.w3.org/1999/xlink" x="0px"
	 y="0px" viewBox="0 0 134.1 130.6" style="enable-background:new 0 0 134.1 130.6;" xml:space="preserve">
<style type="text/css">
	.st0{fill:#303030;}
	.st1{fill:#007AB6;}
</style>
<g>
	<g>
		<path class="st0" d="M121.9,130.6c-6.7,0-12.2-5.5-12.2-12.2s5.5-12.2,12.2-12.2c6.7,0,12.2,5.5,12.2,12.2
			C134.1,125.2,128.6,130.6,121.9,130.6z M121.9,110.1c-4.6,0-8.3,3.7-8.3,8.3c0,4.6,3.7,8.3,8.3,8.3c4.6,0,8.3-3.7,8.3-8.3
			S126.5,110.1,121.9,110.1z"/>
	</g>
	<g>
		<path class="st0" d="M111.7,119.9H92.9c-1.1,0-1.9-0.9-1.9-1.9V82.5c0-1.1,0.9-1.9,1.9-1.9s1.9,0.9,1.9,1.9v33.6h16.9
			c1.1,0,1.9,0.9,1.9,1.9S112.7,119.9,111.7,119.9z"/>
	</g>
	<g>
		<path class="st0" d="M14.7,130.6c-6.7,0-12.2-5.5-12.2-12.2s5.5-12.2,12.2-12.2s12.2,5.5,12.2,12.2
			C26.9,125.2,21.4,130.6,14.7,130.6z M14.7,110.1c-4.6,0-8.4,3.7-8.4,8.3c0,4.6,3.7,8.3,8.4,8.3s8.4-3.7,8.4-8.3
			C23.1,113.8,19.3,110.1,14.7,110.1z"/>
	</g>
	<g>
		<path class="st0" d="M43.8,119.9H25c-1.1,0-1.9-0.9-1.9-1.9s0.9-1.9,1.9-1.9h16.9V82.5c0-1.1,0.9-1.9,1.9-1.9
			c1.1,0,1.9,0.9,1.9,1.9V118C45.7,119.1,44.8,119.9,43.8,119.9z"/>
	</g>
	<g>
		<g>
			<path class="st0" d="M63.2,119.5c-0.8,0-1.5-0.5-1.8-1.3c-0.3-1,0.2-2.1,1.2-2.4c3.7-1.2,7.9-1.2,11.6,0c1,0.3,1.6,1.4,1.2,2.4
				c-0.3,1-1.4,1.6-2.4,1.2c-2.9-1-6.3-1-9.2,0C63.6,119.5,63.4,119.5,63.2,119.5z"/>
		</g>
		<g>
			<path class="st0" d="M59,111.6c-0.8,0-1.5-0.5-1.8-1.3c-0.3-1,0.2-2.1,1.2-2.4c6.3-2.1,13.6-2.1,19.9,0c1,0.3,1.6,1.4,1.2,2.4
				c-0.3,1-1.4,1.6-2.4,1.2c-5.6-1.8-11.9-1.8-17.5,0C59.5,111.5,59.2,111.6,59,111.6z"/>
		</g>
		<g>
			<path class="st0" d="M81.9,103.6c-0.2,0-0.4,0-0.6-0.1c-8.2-2.7-17.6-2.7-25.7,0c-1,0.3-2.1-0.2-2.4-1.2c-0.3-1,0.2-2.1,1.2-2.4
				c9-3,19.2-3,28.2,0c1,0.3,1.6,1.4,1.2,2.4C83.4,103.1,82.7,103.6,81.9,103.6z"/>
		</g>
		<g>
			<path class="st0" d="M86,95.7c-0.2,0-0.4,0-0.6-0.1c-10.8-3.6-23.2-3.6-34,0c-1,0.3-2.1-0.2-2.4-1.2c-0.3-1,0.2-2.1,1.2-2.4
				C61.8,88,75,88,86.6,91.9c1,0.3,1.6,1.4,1.2,2.4C87.6,95.1,86.8,95.7,86,95.7z"/>
		</g>
	</g>
	<g>
		<path class="st0" d="M66.5,125.1c0-1.1,0.9-1.9,1.9-1.9l0,0c1.1,0,1.9,0.9,1.9,1.9l0,0c0,1.1-0.9,1.9-1.9,1.9l0,0
			C67.3,127,66.5,126.2,66.5,125.1z"/>
	</g>
	<g>
		<path class="st0" d="M68.2,64.8C68.1,64.8,68.1,64.8,68.2,64.8c-0.9,0-1.6-0.6-1.8-1.3l-4.1-11.8c-0.3-1,0.2-2.1,1.2-2.4
			c1-0.3,2.1,0.2,2.4,1.2l2.5,7.2l6-13.6c0.4-1,1.6-1.4,2.5-1s1.4,1.6,1,2.5l-8,18.1C69.6,64.4,68.9,64.8,68.2,64.8z"/>
	</g>
	<g>
		<path class="st0" d="M68.1,74.2c-11.4,0-20.7-9.3-20.7-20.7s9.3-20.7,20.7-20.7S88.8,42,88.8,53.5S79.5,74.2,68.1,74.2z
			 M68.1,36.6c-9.3,0-16.9,7.6-16.9,16.9s7.6,16.9,16.9,16.9s16.9-7.6,16.9-16.9C84.9,44.2,77.4,36.6,68.1,36.6z"/>
	</g>
	<g>
		<path class="st1" d="M34.9,43.3c-5.2,0-9.5-4.3-9.5-9.5s4.3-9.5,9.5-9.5s9.5,4.3,9.5,9.5C44.4,39,40.1,43.3,34.9,43.3z M34.9,28.1
			c-3.1,0-5.7,2.5-5.7,5.7s2.5,5.7,5.7,5.7s5.7-2.5,5.7-5.7C40.6,30.7,38,28.1,34.9,28.1z"/>
	</g>
	<g>
		<path class="st1" d="M116.9,84.3H17.1C7.7,84.3,0,76.6,0,67.1c0-9,7-16.5,15.9-17.1c-2-3.7-3.1-7.8-3.1-12.1
			c0-14,11.4-25.3,25.3-25.3c3.4,0,6.7,0.7,9.8,2C52,5.8,61,0,70.8,0c13.3,0,24.3,10.4,25.2,23.5c0.6,0,1.1-0.1,1.7-0.1
			c12.2,0,22.2,10,22.2,22.2c0,1.5-0.2,3.1-0.5,4.6c8.3,1.2,14.6,8.4,14.6,17C134.1,76.6,126.4,84.3,116.9,84.3z M17.1,53.8
			c-7.3,0-13.3,6-13.3,13.3s6,13.3,13.3,13.3h99.8c7.3,0,13.3-6,13.3-13.3c0-7.3-5.9-13.3-13.2-13.3c-0.6,0-1.2-0.3-1.6-0.8
			s-0.5-1.1-0.3-1.7c0.6-1.9,0.9-3.8,0.9-5.7c0-10.1-8.2-18.4-18.4-18.4c-1,0-2.1,0.1-3.2,0.3c-0.6,0.1-1.1-0.1-1.6-0.4
			s-0.7-0.9-0.7-1.5c0-0.1,0-0.2,0-0.3c0-11.9-9.6-21.5-21.5-21.5c-8.9,0-17,5.6-20.1,14.1c-0.2,0.5-0.6,0.9-1.1,1.1
			c-0.5,0.2-1.1,0.2-1.6-0.1c-3.1-1.6-6.4-2.4-9.9-2.4c-11.8,0-21.5,9.6-21.5,21.5c0,4.6,1.5,9,4.3,12.8c0.4,0.6,0.5,1.4,0.2,2
			c-0.3,0.7-1,1.1-1.7,1.1C19.4,53.8,17.1,53.8,17.1,53.8z"/>
	</g>
</g>
</svg>
