<?xml version="1.0" encoding="utf-8"?>
<!-- Generator: Adobe Illustrator 26.0.3, SVG Export Plug-In . SVG Version: 6.00 Build 0)  -->
<svg version="1.1" id="_x3C_Layer_x3E_" xmlns="http://www.w3.org/2000/svg" xmlns:xlink="http://www.w3.org/1999/xlink" x="0px"
	 y="0px" viewBox="0 0 132.7 132.7" style="enable-background:new 0 0 132.7 132.7;" xml:space="preserve">
<style type="text/css">
	.st0{fill:#303030;}
	.st1{fill:#007AB6;}
</style>
<g>
	<g>
		<path class="st0" d="M68.4,83.9h-4.1c-4.2,0-7.7-3.4-7.7-7.7c0-1.1,0.8-1.9,1.9-1.9c1,0,1.9,0.8,1.9,1.9c0,2.1,1.7,3.9,3.9,3.9
			h4.1c2.1,0,3.9-1.7,3.9-3.9v-4.1c0-2.1-1.7-3.9-3.9-3.9h-4.1c-4.2,0-7.7-3.4-7.7-7.7v-4.1c0-4.2,3.5-7.7,7.7-7.7h4.1
			c4.2,0,7.7,3.5,7.7,7.7v0.2c0,1-0.8,1.9-1.9,1.9s-1.9-0.8-1.9-1.9v-0.2c0-2.1-1.7-3.9-3.9-3.9h-4.1c-2.1,0-3.9,1.7-3.9,3.9v4.1
			c0,2.1,1.7,3.9,3.9,3.9h4.1c4.2,0,7.7,3.4,7.7,7.7v4.1C76.1,80.5,72.7,83.9,68.4,83.9z"/>
	</g>
	<g>
		<path class="st0" d="M66.4,52c-1.1,0-1.9-0.8-1.9-1.9v-6.2c0-1,0.8-1.9,1.9-1.9s1.9,0.8,1.9,1.9v6.2C68.3,51.1,67.4,52,66.4,52z"
			/>
	</g>
	<g>
		<path class="st0" d="M66.4,90.1c-1.1,0-1.9-0.8-1.9-1.9V82c0-1.1,0.8-1.9,1.9-1.9s1.9,0.8,1.9,1.9v6.2
			C68.3,89.3,67.4,90.1,66.4,90.1z"/>
	</g>
	<g>
		<path class="st0" d="M66.3,98.1c-17.6,0-31.8-14.3-31.8-31.8c0-1.5,0.1-3.2,0.4-5c2.5-15.6,15.7-26.9,31.4-26.9
			c17.6,0,31.8,14.3,31.8,31.8c0,7.7-2.8,15.1-7.8,20.8c-0.5,0.6-1.4,0.8-2.2,0.5l-5.1-2.1l1.9,4.7c0.3,0.8,0.1,1.8-0.7,2.3
			C79,96.1,72.8,98.1,66.3,98.1z M66.3,38.2c-13.9,0-25.5,10-27.7,23.7c-0.2,1.6-0.4,3.1-0.4,4.4c0,15.5,12.6,28,28,28
			c5.2,0,10.2-1.4,14.5-4.1l-3-7.4c-0.3-0.7-0.1-1.5,0.4-2.1s1.4-0.7,2.1-0.4l8,3.3c3.9-4.9,6-11,6-17.3
			C94.4,50.8,81.8,38.2,66.3,38.2z"/>
	</g>
	<g>
		<path class="st1" d="M119.1,130.7c-0.5,0-1-0.2-1.3-0.6l-17.1-17.1l-5.4,5.4c-0.4,0.4-1.1,0.6-1.7,0.5c-0.6-0.1-1.2-0.6-1.4-1.2
			L77.8,82.7c-0.3-0.7-0.1-1.5,0.4-2.1s1.3-0.7,2.1-0.4l35.1,14.3c0.6,0.2,1,0.8,1.2,1.4c0.1,0.6-0.1,1.3-0.5,1.7l-5.4,5.4
			l17.1,17.1c0.7,0.7,0.7,1.9,0,2.7l-7.3,7.3C120.1,130.5,119.6,130.7,119.1,130.7z M100.7,108.5c0.5,0,1,0.2,1.3,0.6l17.1,17.1
			l4.6-4.6l-17.1-17.1c-0.7-0.7-0.7-1.9,0-2.7l4.7-4.7L83.1,85.5l11.5,28.3l4.7-4.7C99.7,108.7,100.2,108.5,100.7,108.5z"/>
	</g>
	<g>
		<path class="st0" d="M66.3,30.2c-1.1,0-1.9-0.9-1.9-1.9V12.6c0-1.1,0.8-1.9,1.9-1.9s1.9,0.9,1.9,1.9v15.7
			C68.2,29.3,67.4,30.2,66.3,30.2z"/>
	</g>
	<g>
		<path class="st0" d="M66.4,121.8c-1.1,0-1.9-0.8-1.9-1.9v-15.7c0-1.1,0.8-1.9,1.9-1.9s1.9,0.8,1.9,1.9v15.7
			C68.3,121,67.4,121.8,66.4,121.8z"/>
	</g>
	<g>
		<path class="st0" d="M39.5,41.3c-0.5,0-1-0.2-1.3-0.6L27,29.6c-0.7-0.7-0.7-2,0-2.7s2-0.7,2.7,0l11.1,11.1c0.7,0.7,0.7,2,0,2.7
			C40.5,41.1,40,41.3,39.5,41.3z"/>
	</g>
	<g>
		<path class="st0" d="M28.4,68.2H12.7c-1.1,0-1.9-0.8-1.9-1.9s0.9-1.9,1.9-1.9h15.7c1,0,1.9,0.8,1.9,1.9
			C30.3,67.3,29.5,68.2,28.4,68.2z"/>
	</g>
	<g>
		<path class="st0" d="M120,68.1h-15.7c-1.1,0-1.9-0.8-1.9-1.9s0.8-1.9,1.9-1.9H120c1.1,0,1.9,0.8,1.9,1.9
			C121.9,67.3,121.1,68.1,120,68.1z"/>
	</g>
	<g>
		<path class="st0" d="M28.4,106.1c-0.5,0-1-0.2-1.3-0.6c-0.7-0.7-0.7-1.9,0-2.7l11.1-11.1c0.7-0.7,2-0.7,2.7,0
			c0.7,0.7,0.7,1.9,0,2.7l-11.1,11.1C29.4,105.9,28.9,106.1,28.4,106.1z"/>
	</g>
	<g>
		<path class="st0" d="M93.2,41.3c-0.5,0-1-0.2-1.3-0.6c-0.7-0.7-0.7-2,0-2.7l11.1-11.1c0.7-0.7,1.9-0.7,2.7,0c0.7,0.7,0.7,2,0,2.7
			L94.5,40.7C94.1,41.1,93.7,41.3,93.2,41.3z"/>
	</g>
	<g>
		<path class="st0" d="M66.4,14.3c-3.9,0-7.2-3.2-7.2-7.2S62.4,0,66.4,0c3.9,0,7.2,3.2,7.2,7.2C73.5,11.1,70.3,14.3,66.4,14.3z
			 M66.4,3.8c-1.8,0-3.3,1.5-3.3,3.3s1.5,3.3,3.3,3.3c1.8,0,3.3-1.5,3.3-3.3C69.7,5.3,68.2,3.8,66.4,3.8z"/>
	</g>
	<g>
		<path class="st0" d="M66.3,132.7c-3.9,0-7.2-3.2-7.2-7.2c0-3.9,3.2-7.1,7.2-7.1s7.2,3.2,7.2,7.1C73.5,129.5,70.2,132.7,66.3,132.7
			z M66.3,122.2c-1.8,0-3.3,1.5-3.3,3.3s1.5,3.3,3.3,3.3s3.3-1.5,3.3-3.3C69.7,123.7,68.2,122.2,66.3,122.2z"/>
	</g>
	<g>
		<path class="st0" d="M24.5,31.6c-1.8,0-3.7-0.7-5.1-2.1c-1.4-1.4-2.1-3.1-2.1-5.1s0.7-3.7,2.1-5c1.4-1.4,3.1-2.1,5-2.1
			s3.7,0.7,5,2.1c2.8,2.8,2.8,7.3,0,10.1C28.2,30.9,26.3,31.6,24.5,31.6z M24.5,21.1c-0.9,0-1.7,0.3-2.4,1c-1.3,1.3-1.3,3.4,0,4.7
			c1.3,1.3,3.4,1.3,4.7,0s1.3-3.4,0-4.7C26.2,21.5,25.4,21.1,24.5,21.1z"/>
	</g>
	<g>
		<path class="st0" d="M7.2,73.5c-3.9,0-7.2-3.2-7.2-7.2s3.2-7.2,7.2-7.2s7.2,3.2,7.2,7.2C14.3,70.2,11.1,73.5,7.2,73.5z M7.2,63
			c-1.8,0-3.3,1.5-3.3,3.3s1.5,3.3,3.3,3.3s3.3-1.5,3.3-3.3S9,63,7.2,63z"/>
	</g>
	<g>
		<path class="st0" d="M125.6,73.5c-3.9,0-7.2-3.2-7.2-7.2s3.2-7.2,7.2-7.2s7.1,3.2,7.1,7.2C132.7,70.3,129.5,73.5,125.6,73.5z
			 M125.6,63c-1.8,0-3.3,1.5-3.3,3.3s1.5,3.3,3.3,3.3s3.3-1.5,3.3-3.3S127.4,63,125.6,63z"/>
	</g>
	<g>
		<path class="st0" d="M24.5,115.3c-1.9,0-3.7-0.7-5-2.1c-1.4-1.3-2.1-3.1-2.1-5.1s0.7-3.7,2.1-5.1l0,0l0,0c1.4-1.3,3.1-2.1,5-2.1
			s3.7,0.7,5,2.1c2.8,2.8,2.8,7.3,0,10.1C28.2,114.6,26.4,115.3,24.5,115.3z M24.5,104.8c-0.9,0-1.7,0.3-2.4,1l0,0
			c-0.6,0.6-1,1.5-1,2.4s0.4,1.7,1,2.4c1.3,1.3,3.4,1.3,4.7,0c1.3-1.3,1.3-3.4,0-4.7C26.2,105.2,25.3,104.8,24.5,104.8z M20.8,104.5
			L20.8,104.5L20.8,104.5z"/>
	</g>
	<g>
		<path class="st0" d="M108.2,31.7c-1.9,0-3.7-0.7-5.1-2.1c-1.3-1.4-2.1-3.1-2.1-5s0.7-3.7,2.1-5l0,0l0,0l0,0
			c1.3-1.4,3.1-2.1,5.1-2.1s3.7,0.7,5.1,2.1c1.3,1.4,2.1,3.1,2.1,5s-0.7,3.7-2.1,5C111.9,30.9,110.1,31.7,108.2,31.7z M108.2,21.2
			c-0.9,0-1.7,0.4-2.4,1l0,0c-0.6,0.6-1,1.5-1,2.4c0,0.9,0.3,1.7,1,2.4c1.3,1.3,3.5,1.3,4.7,0c0.6-0.6,1-1.5,1-2.4
			c0-0.9-0.3-1.7-1-2.4C110,21.5,109.1,21.2,108.2,21.2z M104.5,20.8L104.5,20.8L104.5,20.8z"/>
	</g>
</g>
</svg>
