<?xml version="1.0" encoding="utf-8"?>
<!-- Generator: Adobe Illustrator 26.0.3, SVG Export Plug-In . SVG Version: 6.00 Build 0)  -->
<svg version="1.1" xmlns="http://www.w3.org/2000/svg" xmlns:xlink="http://www.w3.org/1999/xlink" x="0px" y="0px"
	 viewBox="0 0 3346 3361.4" style="enable-background:new 0 0 3346 3361.4;" xml:space="preserve">
<style type="text/css">
	.st0{fill:#097BB7;}
	.st1{fill:#FFFFFF;}
</style>
<g id="Layer_2">
	<path class="st0" d="M2781.9,3361.4H564.1C252.6,3361.4,0,3108.8,0,2797.3V564.1C0,252.6,252.6,0,564.1,0h2217.8
		C3093.4,0,3346,252.6,3346,564.1v2233.2C3346,3108.8,3093.4,3361.4,2781.9,3361.4z"/>
</g>
<g id="Layer_1">
	<g id="Layer_2_00000106144773947433461890000015714541098457825983_">
		<rect x="610.1" y="405.6" class="st1" width="2149.3" height="2695.5"/>
		<rect x="2441.3" y="278.4" class="st0" width="459.1" height="495.5"/>
		<rect x="445.8" y="301.1" class="st0" width="472.7" height="472.7"/>
		<rect x="445.8" y="2673.9" class="st0" width="845.5" height="519.9"/>
		<rect x="2168.5" y="2592.6" class="st0" width="721.7" height="601.2"/>
	</g>
	<path class="st0" d="M3190.7,1560.2c-64.7-794-748.6-1451.6-1620.9-1388.4C772.3,229.6,103.1,923.7,173.7,1803.4
		C237.4,2596.9,930.5,3260,1809,3188.5C2592.1,3124.8,3261.8,2433.7,3190.7,1560.2z M2182.6,1485c7.8,34-53.4,305.7-66.1,384.1
		l-304.4,1.8l-0.1,950.8l-405.4-0.1c-0.5,0.2-10.6-953.7-10.6-953.8l-348.9-1.6l5.4-377.8l346.5-1l3.1-353.3
		c26.4-458,366.5-451.8,787.9-428.2l1.9,319c-127.4,4.5-368-16.5-367.3,131.2c-1.1,101.4-2.9,215.2-4.6,321.7
		C1889.8,1477.6,2133.9,1467.8,2182.6,1485z"/>
</g>
</svg>
