<?xml version="1.0" encoding="utf-8"?>
<!-- Generator: Adobe Illustrator 26.0.3, SVG Export Plug-In . SVG Version: 6.00 Build 0)  -->
<svg version="1.1" xmlns="http://www.w3.org/2000/svg" xmlns:xlink="http://www.w3.org/1999/xlink" x="0px" y="0px"
	 viewBox="0 0 1441.6 385.3" style="enable-background:new 0 0 1441.6 385.3;" xml:space="preserve">
<style type="text/css">
	.st0{fill:#A7ACB4;}
	.st1{fill:#686B73;}
	.st2{fill:#007AB6;}
</style>
<g id="Logo_symbol">
	<g id="Logo_vector_copy">
		<g>
			<g id="_2">
				<g>
					<polygon class="st0" points="82.7,88.2 113.9,57.8 144.5,74 100.8,116.6 98,119.3 					"/>
				</g>
			</g>
			<g id="_3">
				<g>
					<polygon class="st1" points="113.4,347.7 82.5,317.1 98.2,286.2 141.5,329.1 144.3,331.9 					"/>
				</g>
			</g>
			<g id="_4">
				<g>
					<polygon class="st1" points="205,385.3 248.6,385.3 259.1,352.3 198.1,352.3 194.3,352.3 					"/>
				</g>
			</g>
			<g id="_5">
				<g>
					<polygon class="st1" points="370.8,317.1 339.7,347.5 309.1,331.3 352.7,288.7 355.5,286 					"/>
				</g>
			</g>
			<g id="Krug_sredina">
				<g>
					<circle class="st1" cx="227.1" cy="203" r="47.1"/>
				</g>
			</g>
			<g>
				<path class="st2" d="M429,153.7c0,0-22.8-119.4-154.5-153.7c0,13.8-0.2,32.3-0.2,32.3s95.5,21.1,120.1,121.8
					C418.9,154.1,429,153.7,429,153.7L429,153.7"/>
			</g>
			<g>
				<path class="st1" d="M184.6,207.2c0,0-55.8,25.1-131.2,21.8c-4.2-0.6-17.5,0-17.5-20.6c-7.5,5.5-17.2,8.8-32.3,26.3
					c-1.6,2-6.5,9.4-0.9,14.4c2,2.1,3.7,8.9,40.4,11.6c10.6,0.1,85.1-1.9,152.3-25.7C194.5,219.5,184.6,207.2,184.6,207.2z"/>
			</g>
			<g>
				<path class="st2" d="M274.4,113.5v2.5c0,0-0.1,28,0,32.6h0v5.4h4.9l0,0h34.4C303.2,126.3,274.4,113.5,274.4,113.5z"/>
			</g>
			<g>
				<path class="st2" d="M341.3,154.2h33.1c-15.3-47.4-52.6-84.6-100-99.8l0,0v34.4C304.4,100.9,328.5,124.4,341.3,154.2z"/>
			</g>
			<g>
				<path class="st1" d="M347,170.2c17.4,65.7-21.8,133-87.4,150.4c-65.7,17.4-133-21.8-150.4-87.4c-0.6-2.1-1.1-4.3-1.5-6.4
					c-7.4,0.8-30,3.1-46.7,2.8l15.3,4.9c18.5,83.4,101,135.9,184.4,117.4c82.3-18.3,134.8-99,118-181.6L347,170.2z"/>
			</g>
		</g>
		<path class="st0" d="M257.1,49.7C173.8,33.4,92.8,87.2,75.8,170.5c0,0,0,0.1,0,0.1l-30.6,10v36.7c7.6,8.4,53.9,2.5,61.3,1.5
			c-9-67.4,38.4-129.3,105.8-138.3c15-2,30.2-1.2,45,2.3V49.7z"/>
		<polygon class="st0" points="257.1,49.1 247.6,19.4 204,19.4 193.3,52.4 197.1,52.4 257.1,52.4 		"/>
		<polygon class="st1" points="378.6,170.2 377.5,170.2 377.5,173.8 377.5,234.8 410.5,224.2 410.5,180.6 		"/>
	</g>
</g>
<g id="Logo_text__x26__slogan">
	<g id="Logo_slogan">
	</g>
	<g id="Logo_text">
		<g>
			<g>
				<g>
					<path class="st1" d="M449.6,209.6h8.7v46.5h-8.7V209.6z"/>
					<path class="st1" d="M509.2,217.2h-17.8v39h-8.8v-39h-17.8v-7.6h44.4V217.2z"/>
					<path class="st1" d="M580.4,209.6v46.5h-8.2v-32.7L558,240.6h-6L538,223.5v32.7h-8.2v-46.5h6.7l18.6,22.8l18.6-22.8H580.4z"/>
					<path class="st1" d="M622.9,234.4v21.7h-7l-1.1-5.7c-3.3,3.9-8,6.3-15.3,6.3c-8.1,0-12-3.3-12-10.4c0-7.2,4.4-9.7,12.9-10.6
						l14.1-1.6v-0.7c0-5.2-2.6-6.6-8.2-6.6h-15.3l1.1-7.2h14.6C618.2,219.6,622.9,223.7,622.9,234.4z M614.4,243.6v-3.7l-11.6,1.5
						c-4.8,0.6-6.6,1.7-6.6,4.5c0,3.1,1.5,4.5,5.7,4.5C607.3,250.4,611.5,248.1,614.4,243.6z"/>
					<path class="st1" d="M668,233.4v22.7h-8.5v-21.9c0-5.5-1.9-7.7-7.7-7.7c-5.3,0-8.8,2.5-11.3,6.4v23.2H632v-36.6h7l1.1,5.1
						c3.5-4.2,7.8-5.7,13.6-5.7C662.8,218.9,668,222.9,668,233.4z"/>
					<path class="st1" d="M709.8,234.4v21.7h-7l-1.1-5.7c-3.3,3.9-8,6.3-15.3,6.3c-8.1,0-12-3.3-12-10.4c0-7.2,4.4-9.7,12.9-10.6
						l14.1-1.6v-0.7c0-5.2-2.6-6.6-8.2-6.6h-15.3l1.1-7.2h14.6C705.1,219.6,709.8,223.7,709.8,234.4z M701.3,243.6v-3.7l-11.6,1.5
						c-4.8,0.6-6.6,1.7-6.6,4.5c0,3.1,1.5,4.5,5.7,4.5C694.2,250.4,698.4,248.1,701.3,243.6z"/>
					<path class="st1" d="M754.7,219v32.8c0,11-6.7,16.2-19.9,16.2H723l-1.1-7.2h13c7.6,0,11.4-2.8,11.4-9v-2.5
						c-3.8,3.6-8.6,4.7-14,4.7c-10.2,0-15.3-6.2-15.3-17.7c0-11.1,6-17.5,16.8-17.5c5.5,0,9.9,0.9,13.9,2.6l2.2-2.5H754.7z
						 M746.2,241.3v-13.2c-3.3-1.3-6.6-1.9-10.6-1.9c-6.7,0-10,3.7-10,10.1c0,6.7,2.3,10.3,9.3,10.3
						C739.6,246.7,743.6,244.8,746.2,241.3z"/>
					<path class="st1" d="M798.9,241H771c1,5.4,4.7,7.8,11,7.8h14.3l-1.1,7.2H782c-13,0-19.9-6.1-19.9-18.3c0-12.7,6.6-19,18.7-19
						c12.6,0,18.1,5.3,18.1,17.8V241z M790.4,234.4c0-6.1-3.1-8.3-9.6-8.3c-6.3,0-9.1,2.4-9.8,8.3H790.4z"/>
					<path class="st1" d="M842.3,205.6v50.5h-7.1l-1.1-5.3c-3.6,4.1-8,5.9-14.1,5.9c-10.2,0-15.8-6.6-15.8-19.1
						c0-12.4,6.1-18.8,17.3-18.8c4.3,0,8.6,0.8,12.3,2.6v-15.9H842.3z M833.8,242.6v-14.2c-3.5-1.5-7.2-2.1-10.4-2.1
						c-7.4,0-10.4,3.7-10.4,11.4s2.4,11.5,9.3,11.5C827.6,249.2,831.3,246.3,833.8,242.6z"/>
					<path class="st1" d="M865.9,248.6h24.4c5.5,0,8-1.6,8-5.2c0-3.9-3.4-5.5-8.6-6.5l-8.6-1.6c-9.3-1.7-14.6-5.3-14.6-13.4
						c0-7.7,5.6-12.2,16.3-12.2h20.3l1.1,7.6h-21.1c-5.4,0-7.6,1.4-7.6,4.5c0,3.5,3.1,5.1,8.4,6.1l8.7,1.6
						c9.6,1.8,14.8,5.4,14.8,13.8c0,8.2-5.9,13-16.7,13h-23.5L865.9,248.6z"/>
					<path class="st1" d="M949.1,241h-27.9c1,5.4,4.7,7.8,11,7.8h14.3l-1.1,7.2h-13.2c-13,0-19.9-6.1-19.9-18.3
						c0-12.7,6.6-19,18.7-19c12.6,0,18.1,5.3,18.1,17.8V241z M940.5,234.4c0-6.1-3.1-8.3-9.6-8.3c-6.3,0-9.1,2.4-9.8,8.3H940.5z"/>
					<path class="st1" d="M983,226.7h-6.6c-5.9,0-9.2,2.9-11.6,7v22.3h-8.5v-36.6h7l1.2,5.8c3.3-4.3,7.3-6.1,13-6.1h4.4L983,226.7z"
						/>
					<path class="st1" d="M1024.7,219.6l-13.9,36.6h-13l-14-36.6h9.2l10.5,29.3h1.5l10.6-29.3H1024.7z"/>
					<path class="st1" d="M1028.9,209.6c0-2.9,1.8-4.7,5.5-4.7c3.6,0,5.4,1.8,5.4,4.7c0,3.1-1.8,4.9-5.4,4.9
						C1030.7,214.4,1028.9,212.7,1028.9,209.6z M1030.1,219.6h8.5v36.6h-8.5V219.6z"/>
					<path class="st1" d="M1046.1,237.9c0-12.2,6.7-18.3,20.1-18.3h10.2l1.1,7.2h-11.4c-7.8,0-11.3,3.5-11.3,11
						c0,7.5,3.5,11,11.3,11h11.7l-1.2,7.2h-10.4C1052.9,256.1,1046.1,250,1046.1,237.9z"/>
					<path class="st1" d="M1118.8,241H1091c1,5.4,4.7,7.8,11,7.8h14.3l-1.1,7.2h-13.2c-13,0-19.9-6.1-19.9-18.3
						c0-12.7,6.6-19,18.7-19c12.6,0,18.1,5.3,18.1,17.8V241z M1110.3,234.4c0-6.1-3.1-8.3-9.6-8.3c-6.3,0-9.1,2.4-9.8,8.3H1110.3z"
						/>
					<path class="st1" d="M1185.1,225.8c0,9.8-6.5,16.2-19.9,16.2h-13.2v14.2h-8.7v-46.5h21.9C1178.5,209.6,1185.1,216,1185.1,225.8
						z M1176.1,225.8c0-5.5-3.3-8.6-11.5-8.6h-12.6v17.2h12.6C1172.8,234.4,1176.1,231.3,1176.1,225.8z"/>
					<path class="st1" d="M1218.5,226.7h-6.6c-5.9,0-9.2,2.9-11.6,7v22.3h-8.5v-36.6h7l1.2,5.8c3.3-4.3,7.3-6.1,13-6.1h4.4
						L1218.5,226.7z"/>
					<path class="st1" d="M1220,237.9c0-12.6,6.8-19,20.1-19c13.2,0,20,6.4,20,19c0,12.6-6.8,19-20,19
						C1226.8,256.8,1220,250.4,1220,237.9z M1251.5,237.9c0-7.8-3.6-11.5-11.3-11.5c-7.8,0-11.4,3.7-11.4,11.5s3.7,11.5,11.4,11.5
						C1247.9,249.4,1251.5,245.7,1251.5,237.9z"/>
					<path class="st1" d="M1304,219.6l-13.9,36.6h-13l-14-36.6h9.2l10.5,29.3h1.5l10.6-29.3H1304z"/>
					<path class="st1" d="M1308.2,209.6c0-2.9,1.8-4.7,5.5-4.7c3.6,0,5.4,1.8,5.4,4.7c0,3.1-1.8,4.9-5.4,4.9
						C1309.9,214.4,1308.2,212.7,1308.2,209.6z M1309.4,219.6h8.5v36.6h-8.5V219.6z"/>
					<path class="st1" d="M1363.5,205.6v50.5h-7.1l-1.1-5.3c-3.6,4.1-8,5.9-14.1,5.9c-10.2,0-15.8-6.6-15.8-19.1
						c0-12.4,6.1-18.8,17.3-18.8c4.3,0,8.6,0.8,12.3,2.6v-15.9H1363.5z M1355,242.6v-14.2c-3.5-1.5-7.2-2.1-10.4-2.1
						c-7.4,0-10.4,3.7-10.4,11.4s2.4,11.5,9.3,11.5C1348.8,249.2,1352.4,246.3,1355,242.6z"/>
					<path class="st1" d="M1407.6,241h-27.9c1,5.4,4.7,7.8,11,7.8h14.3l-1.1,7.2h-13.2c-13,0-19.9-6.1-19.9-18.3
						c0-12.7,6.6-19,18.7-19c12.6,0,18.1,5.3,18.1,17.8V241z M1399.1,234.4c0-6.1-3.1-8.3-9.6-8.3c-6.3,0-9.1,2.4-9.8,8.3H1399.1z"
						/>
					<path class="st1" d="M1441.6,226.7h-6.6c-5.9,0-9.2,2.9-11.6,7v22.3h-8.5v-36.6h7l1.2,5.8c3.3-4.3,7.3-6.1,13-6.1h4.4
						L1441.6,226.7z"/>
				</g>
			</g>
			<g>
				<g>
					<polygon class="st2" points="443.9,114.6 476.1,114.6 476.1,184.9 491.9,184.9 491.9,114.6 524.1,114.6 524.1,100.9 
						443.9,100.9 					"/>
				</g>
				<g>
					<polygon class="st2" points="758.6,135.2 712.4,135.2 712.4,100.9 696.6,100.9 696.6,184.9 712.4,184.9 712.4,149 758.6,149 
						758.6,184.9 774.4,184.9 774.4,100.9 758.6,100.9 					"/>
				</g>
				<g>
					<path class="st1" d="M957.6,130.1c0-17.6-11.8-29.2-36-29.2h-37.6v84h15.7v-25.6h21l18.8,25.6h19.1l-21-27.7
						C951.2,153.1,957.6,143.3,957.6,130.1z M920.6,145.5h-20.8v-30.9h20.9c14.9,0,20.8,5.5,20.8,15.5
						C941.4,140,935.6,145.5,920.6,145.5L920.6,145.5z"/>
				</g>
				<g>
					<path class="st1" d="M1013.8,99.7c-30.4,0-44.8,13.8-44.8,43.2s14.4,43.2,44.8,43.2c30.1,0,44.5-13.8,44.5-43.2
						S1043.9,99.7,1013.8,99.7z M1013.8,171.9c-19.9,0-28.6-8.9-28.6-29s8.6-29,28.6-29c19.9,0,28.3,8.9,28.3,29
						S1033.6,171.9,1013.8,171.9z"/>
				</g>
				<g>
					<path class="st2" d="M1193.7,99.7c-30.4,0-44.8,13.8-44.8,43.2s14.4,43.2,44.8,43.2c30.1,0,44.5-13.8,44.5-43.2
						S1223.8,99.7,1193.7,99.7z M1193.7,171.9c-19.9,0-28.6-8.9-28.6-29s8.6-29,28.6-29s28.3,8.9,28.3,29S1213.5,171.9,1193.7,171.9
						z"/>
				</g>
				<g>
					<polygon class="st2" points="1299.9,142.1 1266.3,100.9 1254.2,100.9 1254.2,184.9 1268.9,184.9 1268.9,126 1294.4,156.8 
						1305.2,156.8 1330.6,126 1330.6,184.9 1345.5,184.9 1345.5,100.9 1333.4,100.9 					"/>
				</g>
				<g>
					<path class="st2" d="M1405.2,100.9h-39.5v84h15.7v-25.6l0,0v-13.7l0,0v-31.1h22.8c14.9,0,20.8,5.5,20.8,15.5
						c0,10-5.9,15.6-20.8,15.6h-17.5v13.7h18.5c24.2,0,36-11.5,36-29.3S1429.5,100.9,1405.2,100.9z"/>
				</g>
				<g>
					<path class="st1" d="M834.3,100.9h-39.5v84h15.7v-25.3l0,0v-14.1l0,0v-30.9h22.8c14.9,0,20.8,5.5,20.8,15.5
						c0,10-5.9,15.6-20.8,15.6h-17.5v13.7h18.5c24.2,0,36-11.5,36-29.3S858.5,100.9,834.3,100.9z"/>
				</g>
				<g>
					<path class="st2" d="M656.3,100.9c-30.4,0-44.6,13.4-44.6,42s14.3,42,44.6,42h24.1v-13.7h-24.1c-19.3,0-28.6-9.1-28.6-28.3
						s9.2-28.3,28.6-28.3h24.1v-13.7H656.3z"/>
				</g>
				<g>
					<path class="st2" d="M1114.5,100.9c-30.4,0-44.6,13.4-44.6,42s14.3,42,44.6,42h24.1l0.1-0.4v-13.2h-24.2
						c-19.3,0-28.6-9.1-28.6-28.3s9.2-28.3,28.6-28.3h24.2v-13.2l-0.1-0.4H1114.5z"/>
				</g>
				<g>
					<polygon class="st2" points="535,184.9 600.2,184.9 600.2,171.2 550.8,171.2 550.8,148.7 593,148.7 593,135.5 550.8,135.5 
						550.8,114.6 600.2,114.6 600.2,100.9 535,100.9 					"/>
				</g>
			</g>
		</g>
	</g>
</g>
</svg>
