<?xml version="1.0" encoding="utf-8"?>
<!-- Generator: Adobe Illustrator 26.0.3, SVG Export Plug-In . SVG Version: 6.00 Build 0)  -->
<svg version="1.1" id="Layer_1" xmlns="http://www.w3.org/2000/svg" xmlns:xlink="http://www.w3.org/1999/xlink" x="0px" y="0px"
	 viewBox="0 0 3631.8 3631.8" style="enable-background:new 0 0 3631.8 3631.8;" xml:space="preserve">
<style type="text/css">
	.st0{fill:#FFFFFF;}
	.st1{fill:#097BB7;}
</style>
<g id="Layer_2_00000001626411830646972420000005278301362752471474_">
</g>
<g id="Layer_1_00000146457992647285180120000006928965842475415999_">
	<g>
		<path class="st0" d="M2338.2,729.5c-268.4-10.2-838.4-25.9-1085.8,2.7c-285.3,32.9-511.6,261.2-525.5,559
			c-12.7,271.5-24.4,834.2,2.9,1091.9c30,282.9,265.8,503.8,560.8,520.9c260.4,15.1,840.7,24,1089.5-3.2
			c286.1-31.2,509.1-261.8,525.4-560.5c14.1-258.6,24.2-848.1-3.7-1092.9C2870.1,967.8,2634.8,740.8,2338.2,729.5z M2709.8,2384.6
			c-51.6,278.2-257.6,331.7-562.8,331.3c-840.5-1-1233.9,156.6-1233.2-579.2c0.7-821.7-154.4-1220.9,579.8-1220.2
			c216.8,0.2,711.6-25.8,896.5,9.3c278.7,52.9,326.5,262.2,326.3,568.8C2716.3,1704.6,2741.8,2212.1,2709.8,2384.6z"/>
		<path class="st0" d="M1703.6,1235.8c-783.4,173.4-520.9,1326.3,240.7,1161C2709,2230.8,2447.6,1071.2,1703.6,1235.8z
			 M1885.8,2204.1c-504.4,88.3-652.5-679.4-133.2-770.6C2259.9,1344.3,2384.1,2116.9,1885.8,2204.1z"/>
		<path class="st0" d="M2352.6,1121.2c-164.3,78.4-41.1,297.3,106.8,224.4C2599.6,1276.5,2496.3,1052.7,2352.6,1121.2z"/>
		<g>
			<path class="st1" d="M3090-16H541.8C242.6-16,0,226.6,0,525.8V3106c0,299.2,242.6,541.8,541.8,541.8H3090
				c299.2,0,541.8-242.6,541.8-541.8V525.8C3631.8,226.6,3389.2-16,3090-16z M727,1291.2c13.9-297.7,240.2-526.1,525.5-559
				c247.4-28.5,817.4-12.9,1085.8-2.7c296.6,11.3,532,238.3,563.7,517.9c27.7,244.8,17.6,834.3,3.6,1092.9
				c-16.2,298.8-239.3,529.3-525.4,560.5c-248.9,27.2-829.1,18.3-1089.5,3.2c-295.1-17.1-530.8-238.1-560.8-520.9
				C702.6,2125.4,714.3,1562.8,727,1291.2z M1854.2,3523.4c7.6-0.2,15.2-0.4,22.8-0.7C1869.4,3523,1861.8,3523.2,1854.2,3523.4z
				 M1980.3,3515.7c867.2-83.8,1601.8-836.5,1539.6-1807.9C3582.2,2679.1,2847.7,3432,1980.3,3515.7z"/>
			<path class="st1" d="M913.7,2136.7c-0.7,735.8,392.8,578.2,1233.2,579.2c305.2,0.3,511.2-53.1,562.8-331.3
				c32-172.5,6.5-680,6.6-890c0.2-306.6-47.6-515.9-326.3-568.8c-184.9-35.1-679.6-9.1-896.5-9.3
				C759.3,915.8,914.4,1315.1,913.7,2136.7z M2352.6,1121.2c143.7-68.5,247,155.3,106.8,224.4
				C2311.5,1418.5,2188.2,1199.6,2352.6,1121.2z M1703.6,1235.8c744-164.6,1005.4,995,240.7,1161
				C1182.7,2562.1,920.2,1409.2,1703.6,1235.8z"/>
			<path class="st1" d="M1885.8,2204.1c498.3-87.2,374.1-859.8-133.2-770.6C1233.3,1524.7,1381.5,2292.4,1885.8,2204.1z"/>
		</g>
	</g>
</g>
</svg>
