<?xml version="1.0" encoding="utf-8"?>
<!-- Generator: Adobe Illustrator 26.0.3, SVG Export Plug-In . SVG Version: 6.00 Build 0)  -->
<svg version="1.1" id="_x3C_Layer_x3E_" xmlns="http://www.w3.org/2000/svg" xmlns:xlink="http://www.w3.org/1999/xlink" x="0px"
	 y="0px" viewBox="0 0 132.8 129.8" style="enable-background:new 0 0 132.8 129.8;" xml:space="preserve">
<style type="text/css">
	.st0{fill:#303030;}
	.st1{fill:#007AB6;}
</style>
<g>
	<g>
		<path class="st0" d="M130.9,99.6H1.9c-1.1,0-1.9-0.9-1.9-1.9V8.9C0,7.9,0.9,7,1.9,7h129c1.1,0,1.9,0.9,1.9,1.9v88.7
			C132.8,98.7,131.9,99.6,130.9,99.6z M3.8,95.8H129V10.8H3.8V95.8z"/>
	</g>
	<g>
		<path class="st0" d="M78.6,10.8H54.3c-1.1,0-1.9-0.9-1.9-1.9v-7c0-1.1,0.9-1.9,1.9-1.9h24.3c1.1,0,1.9,0.9,1.9,1.9v7
			C80.5,10,79.7,10.8,78.6,10.8z"/>
	</g>
	<g>
		<g>
			<path class="st0" d="M44.6,129.8H30.8c-0.6,0-1.2-0.3-1.5-0.8c-0.4-0.5-0.5-1.1-0.3-1.7l9.8-30.3c0.3-0.8,1-1.3,1.8-1.3h10
				c0.6,0,1.1,0.3,1.5,0.7c0.4,0.4,0.5,1,0.4,1.6l-6,30.3C46.3,129.2,45.5,129.8,44.6,129.8z M33.4,126H43l5.2-26.5h-6.3L33.4,126z"
				/>
		</g>
		<g>
			<path class="st0" d="M101.7,129.8H87.9c-0.9,0-1.7-0.6-1.9-1.5L80,98c-0.1-0.6,0-1.1,0.4-1.6c0.4-0.4,0.9-0.7,1.5-0.7h10
				c0.8,0,1.6,0.5,1.8,1.3l9.8,30.3c0.2,0.6,0.1,1.2-0.3,1.7C102.9,129.6,102.3,129.8,101.7,129.8z M89.4,126h9.7l-8.6-26.5h-6.3
				L89.4,126z"/>
		</g>
	</g>
	<g>
		<path class="st1" d="M46.1,85.9h-7.6c-1.1,0-1.9-0.9-1.9-1.9V62.1c0-1.1,0.9-1.9,1.9-1.9h7.6c1.1,0,1.9,0.9,1.9,1.9V84
			C48,85.1,47.1,85.9,46.1,85.9z M40.4,82.1h3.8V64h-3.8V82.1z"/>
	</g>
	<g>
		<path class="st1" d="M61.5,85.9h-7.6c-1.1,0-1.9-0.9-1.9-1.9V54.2c0-1.1,0.9-1.9,1.9-1.9h7.6c1.1,0,1.9,0.9,1.9,1.9V84
			C63.4,85.1,62.5,85.9,61.5,85.9z M55.8,82.1h3.8v-26h-3.8V82.1z"/>
	</g>
	<g>
		<path class="st1" d="M76.9,85.9h-7.6c-1.1,0-1.9-0.9-1.9-1.9V47.4c0-1,0.9-1.9,1.9-1.9h7.6c1.1,0,1.9,0.9,1.9,1.9V84
			C78.8,85.1,77.9,85.9,76.9,85.9z M71.2,82.1H75V49.3h-3.8V82.1z"/>
	</g>
	<g>
		<path class="st1" d="M92.2,85.9h-7.6c-1.1,0-1.9-0.9-1.9-1.9V41.9c0-1.1,0.9-1.9,1.9-1.9h7.6c1.1,0,1.9,0.9,1.9,1.9V84
			C94.1,85.1,93.3,85.9,92.2,85.9z M86.6,82.1h3.8V43.8h-3.8V82.1z"/>
	</g>
	<g>
		<path class="st1" d="M38.5,50.5c-1,0-1.8-0.7-1.9-1.7c-0.1-1,0.6-2,1.7-2.1c21.7-2.5,37.8-7.1,50.6-22.5c0.7-0.8,1.9-0.9,2.7-0.2
			c0.8,0.7,0.9,1.9,0.2,2.7C78.2,42.9,61.4,47.8,38.7,50.4C38.6,50.4,38.6,50.5,38.5,50.5z"/>
	</g>
	<g>
		<path class="st1" d="M92.6,32.9c-1.1,0-1.9-0.9-1.9-1.9v-6.4h-6.4c-1.1,0-1.9-0.9-1.9-1.9c0-1.1,0.9-1.9,1.9-1.9h8.3
			c1.1,0,1.9,0.9,1.9,1.9V31C94.5,32.1,93.6,32.9,92.6,32.9z"/>
	</g>
</g>
</svg>
