<?xml version="1.0" encoding="utf-8"?>
<!-- Generator: Adobe Illustrator 26.0.3, SVG Export Plug-In . SVG Version: 6.00 Build 0)  -->
<svg version="1.1" id="_x3C_Layer_x3E_" xmlns="http://www.w3.org/2000/svg" xmlns:xlink="http://www.w3.org/1999/xlink" x="0px"
	 y="0px" viewBox="0 0 130.1 130.6" style="enable-background:new 0 0 130.1 130.6;" xml:space="preserve">
<style type="text/css">
	.st0{fill:#007AB6;}
	.st1{fill:#303030;}
</style>
<g>
	<g>
		<path class="st0" d="M31.4,44c-5.2,0-9.5-4.3-9.5-9.5s4.3-9.5,9.5-9.5s9.5,4.3,9.5,9.5C40.9,39.8,36.6,44,31.4,44z M31.4,28.8
			c-3.1,0-5.7,2.5-5.7,5.7s2.5,5.7,5.7,5.7s5.7-2.5,5.7-5.7S34.5,28.8,31.4,28.8z"/>
	</g>
	<g>
		<path class="st0" d="M113.4,81.8H84.8c-1.1,0-1.9-0.9-1.9-1.9V57c0-0.2,0-0.5,0.1-0.7l3.2-8.8v-9.3h-9.3v9.3l3.2,8.8
			c0.1,0.2,0.1,0.4,0.1,0.7v22.9c0,1.1-0.9,1.9-1.9,1.9H55.2c-1,0-1.9-0.8-1.9-1.8l-0.4-8.4c0-0.9,0.5-1.6,1.3-1.9
			c4.9-1.7,8.1-6.2,8.1-11.3c0-4.2-2.2-8-5.6-10.1v13.2c0,1.1-0.9,1.9-1.9,1.9h-9c-1.1,0-1.9-0.9-1.9-1.9V48.2
			c-3.4,2.2-5.6,6-5.6,10.1c0,5.1,3.3,9.7,8.1,11.3c0.8,0.3,1.3,1.1,1.3,1.9L47.3,80c0,1-0.9,1.8-1.9,1.8H16.7
			C7.5,81.8,0,74.3,0,65.1c0-8.8,6.8-16,15.4-16.6c-1.9-3.6-2.9-7.5-2.9-11.6c0-13.6,11-24.6,24.6-24.6c3.3,0,6.4,0.6,9.4,1.9
			C50.5,5.6,59.2,0,68.7,0c12.9,0,23.6,10,24.5,22.7c0.5,0,1.1-0.1,1.6-0.1c11.9,0,21.6,9.7,21.6,21.6c0,1.5-0.2,3-0.5,4.4
			c8,1.2,14.2,8.1,14.2,16.5C130.1,74.3,122.6,81.8,113.4,81.8z M86.7,77.9h26.7c7.1,0,12.8-5.8,12.8-12.8c0-7-5.7-12.8-12.8-12.8
			c-0.6,0-1.2-0.3-1.6-0.8s-0.5-1.1-0.3-1.7c0.6-1.8,0.9-3.7,0.9-5.5c0-9.8-8-17.7-17.7-17.7c-1,0-2,0.1-3.1,0.3
			c-0.6,0.1-1.1-0.1-1.6-0.4s-0.7-0.9-0.7-1.5c0-0.1,0-0.2,0-0.3c0-11.5-9.3-20.8-20.8-20.8c-8.6,0-16.5,5.5-19.5,13.6
			c-0.2,0.5-0.6,0.9-1.1,1.1c-0.5,0.2-1.1,0.2-1.6-0.1c-3-1.5-6.2-2.3-9.5-2.3c-11.4,0-20.8,9.3-20.8,20.8c0,4.5,1.4,8.8,4.1,12.4
			c0.4,0.6,0.5,1.4,0.2,2c-0.3,0.7-1,1.1-1.7,1.1h-2.2C9.5,52.3,3.8,58,3.8,65.1s5.8,12.8,12.8,12.8h26.9l0.2-5.2
			c-5.7-2.5-9.4-8.2-9.4-14.4c0-6.8,4.3-12.8,10.7-15c0.6-0.2,1.2-0.1,1.7,0.2c0.5,0.4,0.8,0.9,0.8,1.6v14.3h5.2V45.2
			c0-0.6,0.3-1.2,0.8-1.6s1.2-0.5,1.7-0.2c6.4,2.2,10.7,8.2,10.7,15c0,6.3-3.7,11.9-9.4,14.4l0.2,5.2h19.5V57.3l-3.2-8.8
			c-0.1-0.2-0.1-0.4-0.1-0.7V36.3c0-1.1,0.9-1.9,1.9-1.9h13.1c1.1,0,1.9,0.9,1.9,1.9v11.6c0,0.2,0,0.5-0.1,0.7l-3.2,8.8
			C86.7,57.3,86.7,77.9,86.7,77.9z"/>
	</g>
	<g>
		<path class="st1" d="M81.6,130c-3.9,0-7.5-1.5-9.9-4.2c-2.1-2.3-3-5.3-2.7-8.5l3-31.9c0.1-1,0.9-1.7,1.9-1.7h15.2
			c1,0,1.8,0.8,1.9,1.7l3.1,31.9c0.3,3.1-0.6,6.1-2.7,8.5C89.1,128.4,85.5,130,81.6,130z M75.7,87.6l-2.9,30.2
			c-0.2,2.1,0.4,4,1.7,5.5c1.6,1.8,4.2,2.9,7,2.9c2.8,0,5.4-1.1,7-2.9c1.3-1.5,2-3.5,1.7-5.5c0,0,0,0,0,0l-2.9-30.2H75.7z"/>
	</g>
	<g>
		<path class="st1" d="M84.8,87.6h-6.5c-1.1,0-1.9-0.9-1.9-1.9V57.3l-3.2-8.8c-0.1-0.2-0.1-0.4-0.1-0.7V36.3c0-1.1,0.9-1.9,1.9-1.9
			h13.1c1.1,0,1.9,0.9,1.9,1.9v11.6c0,0.2,0,0.5-0.1,0.7l-3.2,8.8v28.3C86.7,86.7,85.9,87.6,84.8,87.6z M80.2,83.7h2.6V57
			c0-0.2,0-0.5,0.1-0.7l3.2-8.8v-9.3h-9.3v9.3l3.2,8.8c0.1,0.2,0.1,0.4,0.1,0.7V83.7z"/>
	</g>
	<g>
		<path class="st1" d="M50.3,130.6h-0.2c-2.4,0-4.7-1-6.3-2.7c-1.7-1.7-2.5-4-2.4-6.4l2.3-48.7c-5.7-2.5-9.4-8.2-9.4-14.4
			c0-6.8,4.3-12.8,10.7-15c0.6-0.2,1.2-0.1,1.7,0.2c0.5,0.4,0.8,0.9,0.8,1.6v14.3h5.2V45.2c0-0.6,0.3-1.2,0.8-1.6s1.2-0.5,1.7-0.2
			c6.4,2.2,10.7,8.2,10.7,15c0,6.3-3.7,11.9-9.4,14.4l2.3,48.7c0.1,2.4-0.7,4.7-2.4,6.4C55,129.6,52.8,130.6,50.3,130.6z M43.9,48.2
			c-3.4,2.2-5.6,6-5.6,10.1c0,5.1,3.3,9.7,8.1,11.3c0.8,0.3,1.3,1.1,1.3,1.9l-2.4,50c-0.1,1.3,0.4,2.6,1.3,3.6
			c0.9,1,2.2,1.5,3.5,1.5h0.2c1.3,0,2.6-0.5,3.5-1.5s1.4-2.2,1.3-3.6l-2.4-50c0-0.9,0.5-1.6,1.3-1.9c4.9-1.7,8.1-6.2,8.1-11.3
			c0-4.2-2.2-8-5.6-10.1v13.2c0,1.1-0.9,1.9-1.9,1.9h-9c-1.1,0-1.9-0.9-1.9-1.9V48.2z"/>
	</g>
</g>
</svg>
