<?xml version="1.0" encoding="utf-8"?>
<!-- Generator: Adobe Illustrator 26.0.3, SVG Export Plug-In . SVG Version: 6.00 Build 0)  -->
<svg version="1.1" id="_x3C_Layer_x3E_" xmlns="http://www.w3.org/2000/svg" xmlns:xlink="http://www.w3.org/1999/xlink" x="0px"
	 y="0px" viewBox="0 0 131.8 131.7" style="enable-background:new 0 0 131.8 131.7;" xml:space="preserve">
<style type="text/css">
	.st0{fill:#303030;}
	.st1{fill:#007AB6;}
</style>
<g>
	<g>
		<path class="st0" d="M68.7,117.2c-0.2,0-0.3,0-0.5-0.1l-29.7-7.9c-1-0.3-1.6-1.3-1.4-2.3c0.9-3.4-0.1-6.9-2.6-9.4s-6-3.4-9.4-2.6
			c-1,0.2-2-0.3-2.3-1.4L15,64c-0.3-1,0.3-2,1.3-2.3c1.6-0.5,3.1-1.3,4.3-2.5c1.9-1.9,2.9-4.3,2.9-7s-1-5.1-2.9-7
			c0,0-0.1-0.1-0.1-0.1c-0.4-0.4-0.6-0.8-0.6-1.4c0-0.5,0.2-1,0.6-1.4l21.9-21.9c0.4-0.4,0.8-0.6,1.4-0.6c0.5,0,1,0.2,1.4,0.6
			c0,0,0.1,0.1,0.1,0.1c1.9,1.9,4.3,2.9,7,2.9c2.6,0,5.1-1,7-2.9c1.3-1.3,2.2-2.9,2.6-4.6c0.1-0.5,0.4-0.9,0.9-1.2
			c0.4-0.3,1-0.3,1.5-0.2l29.7,8c0.5,0.1,1,0.5,1.2,1c0.2,0.5,0.3,1,0.1,1.5c-1.3,3.6-0.5,7.7,2.2,10.4l0,0c2.6,2.6,6.4,3.5,9.9,2.4
			c0.5-0.2,1-0.1,1.5,0.2c0.5,0.2,0.8,0.7,0.9,1.2l7.7,28.8c0.1,0.5,0.1,1-0.2,1.5s-0.7,0.8-1.2,0.9c-1.8,0.4-3.5,1.3-4.9,2.7
			c-3.8,3.8-3.8,10.1,0,13.9l0.2,0.2c0.4,0.3,0.6,0.8,0.6,1.4c0,0.5-0.2,1-0.6,1.4L90,111.2c-0.4,0.4-0.8,0.5-1.4,0.6
			c-0.5,0-1-0.2-1.4-0.6l-0.2-0.2c-1.9-1.9-4.4-2.9-7-2.9s-5.1,1-7,2.9c-1.3,1.3-2.2,2.9-2.6,4.7c-0.1,0.5-0.4,0.9-0.9,1.2
			C69.4,117.1,69,117.2,68.7,117.2z M41.2,105.9l26.2,7c0.7-1.7,1.7-3.3,3-4.6c2.6-2.6,6-4,9.7-4c3.1,0,6.1,1,8.5,2.9l18.8-18.8
			c-4.2-5.4-3.9-13.2,1.1-18.1c1.4-1.4,3-2.4,4.8-3.1l-6.7-25.2c-4.3,0.7-8.7-0.7-11.9-3.8l0,0l0,0c-3.3-3.3-4.6-8-3.7-12.5l-26.1-7
			c-0.7,1.7-1.7,3.2-3,4.5c-2.6,2.6-6,4-9.7,4c-3.1,0-6-1-8.4-2.9L24.5,43.8c1.9,2.4,2.9,5.3,2.9,8.4c0,3.7-1.4,7.1-4,9.7
			c-1.2,1.2-2.6,2.2-4.2,2.9l7,26.1c4.1-0.4,8.2,1,11.2,3.9C40.3,97.7,41.7,101.8,41.2,105.9z"/>
	</g>
	<g>
		<path class="st0" d="M13.7,65.8c-3.6,0-7.1-1.4-9.7-4c-2.6-2.6-4-6-4-9.7s1.4-7.1,4-9.7c5.2-5.2,13.8-5.3,19.1-0.2
			c0.1,0.1,0.1,0.1,0.2,0.2c2.6,2.6,4,6,4,9.7c0,3.7-1.4,7.1-4,9.7c-1.7,1.7-3.7,2.9-6,3.5C16.1,65.7,14.9,65.8,13.7,65.8z
			 M13.7,42.3c-2.5,0-5.1,1-7,2.9c-1.9,1.9-2.9,4.3-2.9,7s1,5.1,2.9,7c2.5,2.5,6.2,3.5,9.6,2.5c1.6-0.5,3.1-1.3,4.3-2.5
			c1.9-1.9,2.9-4.3,2.9-7s-1-5.1-2.9-7c0,0-0.1-0.1-0.1-0.1l0,0C18.6,43.2,16.1,42.3,13.7,42.3z"/>
	</g>
	<g>
		<path class="st1" d="M13.5,58.7c-1.8,0-3.5-0.7-4.8-2s-2-3-2-4.8s0.7-3.5,2-4.8c2.6-2.6,6.8-2.6,9.4-0.1c0,0,0.1,0.1,0.1,0.1
			c1.3,1.3,2,3,2,4.8c0,1.8-0.7,3.5-2,4.7c-0.8,0.8-1.8,1.4-2.9,1.7C14.7,58.6,14.1,58.7,13.5,58.7z M13.5,49.1
			c-0.7,0-1.5,0.3-2,0.8c-0.6,0.5-0.9,1.3-0.9,2s0.3,1.5,0.9,2c0.7,0.7,1.8,1,2.8,0.7c0.5-0.1,0.9-0.4,1.3-0.7
			c0.6-0.5,0.8-1.3,0.8-2s-0.3-1.5-0.8-2c0,0,0,0-0.1,0C14.9,49.4,14.2,49.1,13.5,49.1z"/>
	</g>
	<g>
		<path class="st1" d="M27.6,111.1c-1.8,0-3.5-0.7-4.8-2c-2.6-2.6-2.6-6.9,0-9.5c2.6-2.6,6.8-2.6,9.4-0.1c0,0,0.1,0.1,0.1,0.1
			c2.6,2.6,2.6,6.9,0,9.5c-0.8,0.8-1.8,1.4-2.9,1.7C28.8,111,28.2,111.1,27.6,111.1z M27.6,101.5c-0.7,0-1.5,0.3-2,0.8
			c-1.1,1.1-1.1,3,0,4.1c0.7,0.7,1.8,1,2.8,0.7c0.5-0.1,0.9-0.4,1.3-0.7c1.1-1.1,1.1-3,0-4.1c0,0,0,0,0,0
			C29.1,101.8,28.4,101.5,27.6,101.5z"/>
	</g>
	<g>
		<path class="st1" d="M80.1,124.7c-1.8,0-3.5-0.7-4.8-2c-2.6-2.6-2.6-6.9,0-9.5c2.6-2.6,6.8-2.6,9.4-0.1c0,0,0.1,0.1,0.1,0.1
			c2.7,2.7,2.7,6.9,0,9.5c-0.8,0.8-1.8,1.4-2.9,1.7C81.3,124.6,80.7,124.7,80.1,124.7z M80.1,115.1c-0.7,0-1.5,0.3-2,0.8
			c-1.1,1.1-1.1,3,0,4.1c0.7,0.7,1.8,1,2.8,0.7c0.5-0.1,0.9-0.4,1.3-0.7c1.1-1.1,1.1-3,0-4.1c0,0,0,0,0,0
			C81.6,115.4,80.8,115.1,80.1,115.1z"/>
	</g>
	<g>
		<path class="st1" d="M118.1,86.7c-1.8,0-3.5-0.7-4.8-2c-2.6-2.6-2.6-6.9,0-9.5c2.6-2.6,6.8-2.6,9.4-0.1c0,0,0.1,0.1,0.1,0.1
			c2.6,2.6,2.6,6.9,0,9.5c-0.8,0.8-1.8,1.4-2.9,1.7C119.3,86.6,118.7,86.7,118.1,86.7z M118.1,77.1c-0.7,0-1.5,0.3-2,0.8
			c-1.1,1.1-1.1,3,0,4.1c0.7,0.7,1.8,1,2.8,0.7c0.5-0.1,0.9-0.4,1.3-0.7c1.1-1.1,1.1-3,0-4.1l1.3-1.4l-1.3,1.4
			C119.5,77.4,118.8,77.1,118.1,77.1z"/>
	</g>
	<g>
		<path class="st1" d="M104.3,35.3c-1.8,0-3.5-0.7-4.8-2s-2-3-2-4.8c0-1.8,0.7-3.5,2-4.8c2.6-2.6,6.8-2.6,9.4-0.1
			c0,0,0.1,0.1,0.1,0.1c1.2,1.2,1.9,2.9,1.9,4.7c0,1.8-0.7,3.5-2,4.7c-0.8,0.8-1.8,1.4-2.9,1.7C105.5,35.2,104.9,35.3,104.3,35.3z
			 M104.3,25.7c-0.7,0-1.5,0.3-2,0.8c-0.5,0.5-0.8,1.3-0.8,2s0.3,1.5,0.8,2c0.7,0.7,1.8,1,2.8,0.7c0.5-0.1,0.9-0.4,1.3-0.7
			c0.6-0.5,0.8-1.3,0.8-2s-0.3-1.5-0.8-2l0,0C105.8,26,105,25.7,104.3,25.7z"/>
	</g>
	<g>
		<path class="st1" d="M52.5,20.1c-1.8,0-3.5-0.7-4.8-2s-2-2.9-2-4.7s0.7-3.5,2-4.7c2.5-2.6,6.8-2.6,9.4-0.1c0,0,0.1,0.1,0.1,0.1
			c2.6,2.6,2.6,6.9,0,9.5c-0.8,0.8-1.8,1.4-2.9,1.7C53.7,20,53.1,20.1,52.5,20.1z M52.5,10.5c-0.7,0-1.5,0.3-2,0.8
			c-0.5,0.6-0.8,1.3-0.8,2s0.3,1.5,0.8,2c0.7,0.7,1.8,1,2.8,0.7c0.5-0.1,0.9-0.4,1.3-0.7c1.1-1.1,1.1-3,0-4.1c0,0,0,0,0,0
			C53.9,10.8,53.2,10.5,52.5,10.5z"/>
	</g>
	<g>
		<path class="st0" d="M52.2,27.3c-3.5,0-7-1.3-9.7-4c-0.1-0.1-0.1-0.1-0.2-0.2c-5.1-5.3-5-13.9,0.2-19.1l0,0c5.3-5.3,14-5.3,19.3,0
			c3.4,3.4,4.8,8.2,3.6,12.9c-0.6,2.4-1.8,4.6-3.6,6.4C59.2,26,55.7,27.3,52.2,27.3z M45.2,6.7c-3.8,3.8-3.8,9.9-0.1,13.8
			c0,0,0.1,0.1,0.1,0.1c3.8,3.8,10.1,3.8,13.9,0c1.3-1.3,2.2-2.9,2.6-4.6c0.8-3.4-0.1-6.9-2.6-9.3C55.3,2.9,49.1,2.9,45.2,6.7
			L45.2,6.7z"/>
	</g>
	<g>
		<path class="st0" d="M104.3,42.3c-3.6,0-7-1.4-9.7-4c-3.8-3.8-5-9.5-3.1-14.5c0.7-1.9,1.7-3.5,3.1-4.9l0,0l0,0c2.6-2.6,6-4,9.7-4
			s7.1,1.4,9.7,4c5.3,5.3,5.3,14,0,19.3c-1.6,1.6-3.4,2.7-5.5,3.4C107.1,42,105.7,42.3,104.3,42.3z M104.3,18.7c-2.6,0-5.1,1-7,2.9
			l0,0c-1,1-1.8,2.2-2.2,3.5c-1.3,3.6-0.5,7.7,2.2,10.4c2.6,2.6,6.4,3.5,9.9,2.4c1.5-0.5,2.9-1.3,4-2.4c3.8-3.8,3.8-10.1,0-13.9
			C109.4,19.8,106.9,18.7,104.3,18.7z M96,20.3L96,20.3L96,20.3z"/>
	</g>
	<g>
		<path class="st0" d="M27.6,118.1c-3.5,0-7-1.3-9.7-4c-2.6-2.6-4-6-4-9.7s1.4-7.1,4-9.7c1.7-1.7,3.9-3,6.3-3.6l0,0
			c4.7-1.2,9.6,0.2,13,3.6c3.4,3.4,4.8,8.3,3.6,13c-0.6,2.4-1.8,4.6-3.6,6.3C34.6,116.8,31.1,118.1,27.6,118.1z M27.7,94.6
			c-0.8,0-1.6,0.1-2.5,0.3l0,0c-1.7,0.4-3.3,1.3-4.5,2.6c-1.9,1.9-2.9,4.3-2.9,7s1,5.1,2.9,7c3.8,3.8,10.1,3.8,13.9,0
			c1.2-1.2,2.1-2.8,2.6-4.6c0.9-3.4-0.1-6.9-2.6-9.4C32.7,95.6,30.2,94.6,27.7,94.6z M24.8,93L24.8,93L24.8,93z"/>
	</g>
	<g>
		<path class="st0" d="M80.1,131.7c-3.7,0-7.1-1.4-9.7-4c-3.4-3.4-4.7-8.2-3.6-12.9c0.6-2.5,1.8-4.7,3.6-6.5l0,0c2.6-2.6,6-4,9.7-4
			s7.1,1.4,9.7,4c0.1,0.1,0.1,0.2,0.2,0.2c5.2,5.5,5.1,13.8-0.2,19.1C87.2,130.2,83.8,131.7,80.1,131.7z M73.2,111
			c-1.3,1.3-2.2,2.9-2.6,4.7c-0.8,3.4,0.2,6.8,2.6,9.3c1.9,1.9,4.3,2.9,7,2.9c2.6,0,5.1-1,7-2.9c3.8-3.8,3.9-9.8,0.2-13.7l-0.2-0.2
			c-1.9-1.9-4.4-2.9-7-2.9C77.5,108.1,75,109.2,73.2,111L73.2,111z"/>
	</g>
	<g>
		<path class="st0" d="M118.1,93.7c-3.4,0-6.8-1.3-9.4-3.8c-0.1-0.1-0.2-0.2-0.3-0.2c-5.3-5.3-5.3-14,0-19.3
			c1.8-1.8,4.2-3.1,6.7-3.7c4.6-1,9.3,0.4,12.6,3.7c2.6,2.6,4,6,4,9.7s-1.4,7.1-4,9.7C125.1,92.4,121.6,93.7,118.1,93.7z
			 M118.1,70.2c-0.7,0-1.4,0.1-2.1,0.2l0,0c-1.8,0.4-3.5,1.3-4.9,2.7c-3.8,3.8-3.8,10.1,0,13.9l0.2,0.2c3.9,3.7,9.9,3.6,13.8-0.2
			c1.9-1.9,2.9-4.3,2.9-7c0-2.6-1-5.1-2.9-7C123.2,71.2,120.7,70.2,118.1,70.2z M115.6,68.5L115.6,68.5L115.6,68.5z"/>
	</g>
	<g>
		<path class="st0" d="M106.8,78.7c-0.2,0-0.3,0-0.5-0.1l-20-5.4c-1-0.3-1.6-1.3-1.3-2.3c0.3-1,1.3-1.6,2.3-1.3l20,5.4
			c1,0.3,1.6,1.3,1.3,2.3C108.4,78.1,107.6,78.7,106.8,78.7z"/>
	</g>
	<g>
		<path class="st0" d="M46.6,62.5c-0.2,0-0.3,0-0.5-0.1l-21.5-5.8c-1-0.3-1.6-1.3-1.4-2.3s1.3-1.6,2.3-1.3l21.5,5.8
			c1,0.3,1.6,1.3,1.3,2.3C48.2,62,47.5,62.5,46.6,62.5z"/>
	</g>
	<g>
		<path class="st0" d="M77.1,108.5c-0.8,0-1.6-0.6-1.8-1.4l-5.4-20.2c-0.3-1,0.3-2.1,1.3-2.3c1-0.3,2.1,0.3,2.3,1.3l5.4,20.2
			c0.3,1-0.3,2.1-1.3,2.3C77.4,108.5,77.2,108.5,77.1,108.5z"/>
	</g>
	<g>
		<path class="st0" d="M61,48.3c-0.8,0-1.6-0.6-1.8-1.4l-5.5-20.7c-0.3-1,0.3-2.1,1.3-2.3c1-0.3,2.1,0.3,2.3,1.4l5.5,20.7
			c0.3,1-0.3,2.1-1.3,2.3C61.3,48.3,61.1,48.3,61,48.3z"/>
	</g>
	<g>
		<path class="st0" d="M80.8,53.2c-0.5,0-1-0.2-1.3-0.6c-0.8-0.8-0.8-2,0-2.7l14.8-14.8c0.8-0.8,2-0.8,2.7,0c0.8,0.8,0.8,2,0,2.7
			L82.1,52.6C81.7,53,81.2,53.2,80.8,53.2z"/>
	</g>
	<g>
		<path class="st0" d="M36,98c-0.5,0-1-0.2-1.3-0.6c-0.8-0.8-0.8-2,0-2.7l15.5-15.5c0.8-0.8,2-0.8,2.7,0c0.8,0.8,0.8,2,0,2.7
			L37.3,97.4C36.9,97.8,36.4,98,36,98z"/>
	</g>
	<g>
		<path class="st0" d="M65.1,77.2C65,77.2,65,77.2,65.1,77.2c-0.8,0-1.5-0.5-1.8-1.2l-4.5-10.7c-0.4-1,0-2.1,1-2.5s2.1,0,2.5,1
			l2.9,7l6.9-12.9c0.5-0.9,1.7-1.3,2.6-0.8c0.9,0.5,1.3,1.7,0.8,2.6l-8.8,16.4C66.4,76.8,65.8,77.2,65.1,77.2z"/>
	</g>
	<g>
		<path class="st1" d="M66.5,89c-5.8,0-11.6-2.2-16-6.6c-4.3-4.3-6.6-10-6.6-16s2.4-11.7,6.6-16c8.8-8.8,23.2-8.8,32,0
			s8.8,23.2,0,32C78.1,86.8,72.3,89,66.5,89z M66.5,47.5c-5,0-9.8,2-13.3,5.5c-3.6,3.6-5.5,8.3-5.5,13.3s2,9.8,5.5,13.3
			c3.6,3.6,8.3,5.5,13.3,5.5s9.8-2,13.3-5.5c3.6-3.6,5.5-8.3,5.5-13.3s-2-9.8-5.5-13.3C76.3,49.5,71.6,47.5,66.5,47.5z"/>
	</g>
</g>
</svg>
