<?xml version="1.0" encoding="utf-8"?>
<!-- Generator: Adobe Illustrator 26.0.3, SVG Export Plug-In . SVG Version: 6.00 Build 0)  -->
<svg version="1.1" id="ELEMENTS" xmlns="http://www.w3.org/2000/svg" xmlns:xlink="http://www.w3.org/1999/xlink" x="0px" y="0px"
	 viewBox="0 0 29.2 29.2" style="enable-background:new 0 0 29.2 29.2;" xml:space="preserve">
<style type="text/css">
	.st0{fill:#097BB7;}
	.st1{fill:#FFFFFF;}
</style>
<g>
	<g>
		<path class="st0" d="M0,24.3V5c0-2.7,2.2-5,5-5h19.3c2.7,0,5,2.2,5,5v19.3c0,2.7-2.2,5-5,5L5,29.2C2.2,29.2,0,27,0,24.3z"/>
		<path class="st1" d="M6.9,11.3h3.5v11.3H6.9V11.3z M8.6,5.7c1.1,0,2,0.9,2,2s-0.9,2-2,2s-2-0.9-2-2C6.6,6.6,7.5,5.7,8.6,5.7"/>
		<path class="st1" d="M12.6,11.3H16v1.5l0,0c0.5-0.9,1.6-1.8,3.3-1.8c3.6,0,4.2,2.3,4.2,5.4v6.2H20v-5.5c0-1.3,0-3-1.8-3
			s-2.1,1.4-2.1,2.9v5.6h-3.5V11.3z"/>
	</g>
</g>
</svg>
