<?xml version="1.0" encoding="utf-8"?>
<!-- Generator: Adobe Illustrator 26.0.3, SVG Export Plug-In . SVG Version: 6.00 Build 0)  -->
<svg version="1.1" id="_x3C_Layer_x3E_" xmlns="http://www.w3.org/2000/svg" xmlns:xlink="http://www.w3.org/1999/xlink" x="0px"
	 y="0px" viewBox="0 0 131.6 128.6" style="enable-background:new 0 0 131.6 128.6;" xml:space="preserve">
<style type="text/css">
	.st0{fill:#3D3D3D;}
	.st1{fill:#007AB6;}
</style>
<g>
	<g>
		<path class="st0" d="M66.1,41.2c-7.6,0-13.7-6.2-13.7-13.7s6.2-13.7,13.7-13.7s13.7,6.2,13.7,13.7S73.6,41.2,66.1,41.2z
			 M66.1,17.6c-5.4,0-9.9,4.4-9.9,9.9s4.4,9.9,9.9,9.9s9.9-4.4,9.9-9.9S71.5,17.6,66.1,17.6z"/>
	</g>
	<g>
		<path class="st0" d="M129.7,128.6H1.9c-0.6,0-1.2-0.3-1.5-0.8s-0.5-1.1-0.3-1.7l18.6-70.8c0.2-0.8,1-1.4,1.9-1.4h24.6
			c0.7,0,1.4,0.4,1.7,1.1c6.6,14.1,15.6,29.4,19.3,35.4c3.6-6,12.6-21.3,19.2-35.4c0.3-0.7,1-1.1,1.7-1.1h24.1
			c0.9,0,1.6,0.6,1.9,1.4l18.6,70.8c0.1,0.6,0,1.2-0.3,1.7C130.8,128.3,130.3,128.6,129.7,128.6z M4.4,124.8h122.8l-17.6-67H88.3
			C79.7,75.7,67.8,95,67.7,95.2c-0.3,0.6-1,0.9-1.6,0.9c-0.7,0-1.3-0.3-1.6-0.9c-0.1-0.2-12-19.5-20.6-37.4H22L4.4,124.8z"/>
	</g>
	<g>
		<path class="st1" d="M66.1,96.1c-0.7,0-1.3-0.3-1.6-0.9c-0.1-0.2-12.5-20.2-21.1-38.5C37.7,44.7,35,36.3,35,31.1
			C35,13.9,48.9,0,66.1,0s31.1,13.9,31.1,31.1c0,5.2-2.8,13.8-8.3,25.6c-8.6,18.2-21,38.3-21.1,38.5C67.3,95.7,66.7,96.1,66.1,96.1z
			 M66.1,3.8c-15,0-27.2,12.2-27.2,27.2c0,3.2,1.4,9.9,8,24c6.6,14.1,15.6,29.4,19.2,35.4c3.6-6,12.6-21.3,19.2-35.4
			c6.6-14,8-20.8,8-24C93.3,16,81.1,3.8,66.1,3.8z M66.1,41.2c-7.6,0-13.7-6.2-13.7-13.7s6.2-13.7,13.7-13.7s13.7,6.2,13.7,13.7
			S73.6,41.2,66.1,41.2z M66.1,17.6c-5.4,0-9.9,4.4-9.9,9.9s4.4,9.9,9.9,9.9s9.9-4.4,9.9-9.9S71.5,17.6,66.1,17.6z"/>
	</g>
	<g>
		<path class="st0" d="M33.8,86.8c-3.8,0-6.9-3.1-6.9-6.9s3.1-6.9,6.9-6.9s6.9,3.1,6.9,6.9S37.7,86.8,33.8,86.8z M33.8,76.7
			c-1.7,0-3.1,1.4-3.1,3.1c0,1.7,1.4,3.1,3.1,3.1c1.7,0,3.1-1.4,3.1-3.1S35.6,76.7,33.8,76.7z"/>
	</g>
	<g>
		<path class="st0" d="M27.8,111.7c-3.8,0-6.9-3.1-6.9-6.9s3.1-6.9,6.9-6.9s6.9,3.1,6.9,6.9S31.6,111.7,27.8,111.7z M27.8,101.7
			c-1.7,0-3.1,1.4-3.1,3.1c0,1.7,1.4,3.1,3.1,3.1s3.1-1.4,3.1-3.1S29.5,101.7,27.8,101.7z"/>
	</g>
	<g>
		<path class="st0" d="M103.3,114.2c-3.8,0-6.9-3.1-6.9-6.9s3.1-6.9,6.9-6.9s6.9,3.1,6.9,6.9S107.2,114.2,103.3,114.2z M103.3,104.2
			c-1.7,0-3.1,1.4-3.1,3.1c0,1.7,1.4,3.1,3.1,3.1s3.1-1.4,3.1-3.1S105,104.2,103.3,104.2z"/>
	</g>
	<g>
		<path class="st0" d="M66.2,106.1c-3.8,0-6.9-3.1-6.9-6.9s3.1-6.9,6.9-6.9s6.9,3.1,6.9,6.9C73.2,103,70.1,106.1,66.2,106.1z
			 M66.2,96.1c-1.7,0-3.1,1.4-3.1,3.1s1.4,3.1,3.1,3.1s3.1-1.4,3.1-3.1S67.9,96.1,66.2,96.1z"/>
	</g>
	<g>
		<path class="st0" d="M61.3,100.3c-0.4,0-0.7-0.1-1.1-0.3L36.8,84.5c-0.9-0.6-1.1-1.8-0.5-2.7c0.6-0.9,1.8-1.1,2.7-0.5l23.5,15.5
			c0.9,0.6,1.1,1.8,0.5,2.7C62.5,100,61.9,100.3,61.3,100.3z"/>
	</g>
	<g>
		<path class="st0" d="M98.6,107.5c-0.2,0-0.3,0-0.4-0.1L70.8,101c-1-0.2-1.7-1.3-1.4-2.3s1.3-1.7,2.3-1.4l27.4,6.4
			c1,0.2,1.7,1.3,1.4,2.3C100.3,106.9,99.5,107.5,98.6,107.5z"/>
	</g>
	<g>
		<path class="st0" d="M32.8,106.7c-0.9,0-1.7-0.6-1.9-1.5c-0.2-1,0.4-2.1,1.4-2.3l28.5-6.4c1-0.2,2.1,0.4,2.3,1.4
			c0.2,1-0.4,2.1-1.5,2.3l-28.5,6.4C33,106.7,32.9,106.7,32.8,106.7z"/>
	</g>
</g>
</svg>
