<?xml version="1.0" encoding="utf-8"?>
<!-- Generator: Adobe Illustrator 26.0.3, SVG Export Plug-In . SVG Version: 6.00 Build 0)  -->
<svg version="1.1" id="_x3C_Layer_x3E_" xmlns="http://www.w3.org/2000/svg" xmlns:xlink="http://www.w3.org/1999/xlink" x="0px"
	 y="0px" viewBox="0 0 132.9 132.1" style="enable-background:new 0 0 132.9 132.1;" xml:space="preserve">
<style type="text/css">
	.st0{fill:#303030;}
	.st1{fill:#007AB6;}
</style>
<g>
	<g>
		<path class="st0" d="M131.9,132.1H1V1.3h130.9L131.9,132.1L131.9,132.1z M2.3,130.9h128.3V2.5H2.3V130.9z"/>
	</g>
	<g>
		<path class="st0" d="M131,131.8H1.9c-1.1,0-1.9-0.9-1.9-1.9v-109c0-1.1,0.9-1.9,1.9-1.9H131c1.1,0,1.9,0.9,1.9,1.9v109
			C132.9,130.9,132.1,131.8,131,131.8z M3.8,127.9h125.3V22.7H3.8V127.9z"/>
	</g>
	<g>
		<path class="st0" d="M131,22.7H1.9c-1,0-1.9-0.9-1.9-1.9V1.9C0,0.9,0.9,0,1.9,0H131c1.1,0,1.9,0.9,1.9,1.9v18.9
			C132.9,21.9,132.1,22.7,131,22.7z M3.8,18.9h125.3V3.8H3.8V18.9z"/>
	</g>
	<g>
		<g>
			<path class="st0" d="M11.9,13.3c-0.3,0-0.5-0.1-0.7-0.1c-0.2-0.1-0.4-0.2-0.6-0.4c-0.2-0.2-0.3-0.4-0.4-0.6
				c-0.1-0.2-0.1-0.5-0.1-0.7c0-0.1,0-0.3,0-0.4c0-0.1,0.1-0.2,0.1-0.4c0-0.1,0.1-0.2,0.2-0.3c0.1-0.1,0.1-0.2,0.2-0.3
				c0.7-0.7,2-0.7,2.7,0c0.1,0.1,0.2,0.2,0.2,0.3c0.1,0.1,0.1,0.2,0.2,0.3c0,0.1,0.1,0.2,0.1,0.4c0,0.1,0,0.2,0,0.4
				c0,0.3-0.1,0.5-0.1,0.7c-0.1,0.2-0.2,0.4-0.4,0.6c-0.2,0.2-0.4,0.3-0.6,0.4C12.3,13.2,12.1,13.3,11.9,13.3z"/>
		</g>
		<g>
			<path class="st0" d="M25.5,11.4c0-1.1,0.9-1.9,1.9-1.9l0,0c1,0,1.9,0.9,1.9,1.9l0,0c0,1.1-0.9,1.9-1.9,1.9l0,0
				C26.4,13.3,25.5,12.4,25.5,11.4z"/>
		</g>
		<g>
			<path class="st0" d="M43.1,13.3c-0.5,0-1-0.2-1.3-0.6c-0.2-0.2-0.3-0.4-0.4-0.6c-0.1-0.2-0.1-0.5-0.1-0.7c0-0.1,0-0.3,0-0.4
				c0-0.1,0-0.2,0.1-0.4c0-0.1,0.1-0.2,0.2-0.3c0.1-0.1,0.2-0.2,0.2-0.3c0.4-0.4,1.1-0.6,1.7-0.5c0.1,0,0.2,0.1,0.4,0.1
				c0.1,0,0.2,0.1,0.3,0.2c0.1,0.1,0.2,0.1,0.3,0.2s0.2,0.2,0.2,0.3c0.1,0.1,0.1,0.2,0.2,0.3c0,0.1,0.1,0.2,0.1,0.4
				c0,0.1,0,0.2,0,0.4c0,0.3,0,0.5-0.2,0.7c-0.1,0.2-0.2,0.4-0.4,0.6C44.1,13.1,43.6,13.3,43.1,13.3z"/>
		</g>
	</g>
	<g>
		<path class="st0" d="M66.5,102.1c-12.9,0-26.5-5.4-40.3-16.2c-6.4-4.9-11.3-9.9-14.3-13.2c-0.7-0.7-0.7-1.8,0-2.6
			c8.1-8.8,29.6-29.3,54.5-29.3c19,0,36.1,11.9,47.1,22c3.3,3,5.8,5.7,7.4,7.4c0.7,0.7,0.7,1.8,0,2.6
			C112.9,81.6,91.5,102.1,66.5,102.1z M15.9,71.5c2.9,3.1,7.3,7.3,12.6,11.4c9,7,22.9,15.4,37.9,15.4c22.3,0,42-17.8,50.5-26.8
			c-1.5-1.6-3.5-3.6-6-5.8c-10.5-9.6-26.7-21-44.5-21C44.1,44.7,24.5,62.5,15.9,71.5z"/>
	</g>
	<g>
		<path class="st1" d="M66.1,98.3c-14.8,0-26.8-12-26.8-26.8s12-26.8,26.8-26.8s26.8,12,26.8,26.8C92.9,86.2,80.8,98.3,66.1,98.3z
			 M66.1,48.6c-12.6,0-22.9,10.3-22.9,22.9s10.3,22.9,22.9,22.9S89,84.1,89,71.5C89,58.8,78.7,48.6,66.1,48.6z"/>
	</g>
	<g>
		<path class="st1" d="M66.1,83.6c-6.7,0-12.1-5.4-12.1-12.1c0-6.7,5.4-12.1,12.1-12.1s12.1,5.4,12.1,12.1
			C78.2,78.2,72.8,83.6,66.1,83.6z M66.1,63.2c-4.5,0-8.2,3.7-8.2,8.2c0,4.6,3.7,8.2,8.2,8.2c4.6,0,8.2-3.7,8.2-8.2
			C74.3,66.9,70.6,63.2,66.1,63.2z"/>
	</g>
</g>
</svg>
