<?xml version="1.0" encoding="utf-8"?>
<!-- Generator: Adobe Illustrator 26.0.3, SVG Export Plug-In . SVG Version: 6.00 Build 0)  -->
<svg version="1.1" id="_x3C_Layer_x3E_" xmlns="http://www.w3.org/2000/svg" xmlns:xlink="http://www.w3.org/1999/xlink" x="0px"
	 y="0px" viewBox="0 0 134.2 130" style="enable-background:new 0 0 134.2 130;" xml:space="preserve">
<style type="text/css">
	.st0{fill:#303030;}
	.st1{fill:#007AB6;}
</style>
<g>
	<g>
		<path class="st0" d="M129.5,111.7H51.6c-2.6,0-4.7-2.1-4.7-4.7V46.6c0-2.6,2.1-4.7,4.7-4.7h77.9c2.6,0,4.7,2.1,4.7,4.7v60.3
			C134.2,109.5,132.1,111.7,129.5,111.7z M51.6,45.7c-0.5,0-0.9,0.4-0.9,0.9v60.3c0,0.5,0.4,0.9,0.9,0.9h77.9c0.5,0,0.9-0.4,0.9-0.9
			V46.6c0-0.5-0.4-0.9-0.9-0.9H51.6z"/>
	</g>
	<g>
		<path class="st0" d="M125.7,105.3H55.4c-1.1,0-1.9-0.9-1.9-1.9V50.1c0-1.1,0.9-1.9,1.9-1.9h70.4c1.1,0,1.9,0.9,1.9,1.9v53.2
			C127.7,104.4,126.8,105.3,125.7,105.3z M57.3,101.5h66.6V52H57.3V101.5z"/>
	</g>
	<g>
		<path class="st0" d="M99.2,122.4H81.9c-1.1,0-1.9-0.9-1.9-1.9v-10.8c0-1.1,0.9-1.9,1.9-1.9h17.4c1.1,0,1.9,0.9,1.9,1.9v10.8
			C101.2,121.6,100.3,122.4,99.2,122.4z M83.8,118.6h13.6v-7H83.8V118.6z"/>
	</g>
	<g>
		<path class="st0" d="M109.3,130H71.8c-1.1,0-1.9-0.9-1.9-1.9c0-5.2,4.2-9.5,9.5-9.5h22.4c5.2,0,9.5,4.2,9.5,9.5
			C111.2,129.2,110.3,130,109.3,130z M74.1,126.2h33c-0.8-2.2-2.9-3.7-5.3-3.7H79.4C76.9,122.4,74.8,124,74.1,126.2z"/>
	</g>
	<g>
		<path class="st1" d="M89.7,99.2c-1.3,0-2.6-0.1-3.9-0.3c-0.5-0.1-0.9-0.4-1.2-0.8c-0.3-0.4-0.4-0.9-0.3-1.4l0.5-2.9
			c-0.8-0.2-1.5-0.5-2.2-0.8L81,95.5c-0.2,0.4-0.7,0.8-1.2,0.9c-0.5,0.1-1,0.1-1.4-0.2c-2.3-1.3-4.3-3-6-5c-0.7-0.8-0.6-2,0.2-2.7
			l2.3-1.9c-0.4-0.7-0.8-1.3-1.2-2.1l-2.8,1c-1,0.4-2.1-0.2-2.4-1.1c-0.9-2.5-1.4-5.1-1.4-7.7c0-1.1,0.8-1.9,1.9-1.9l3,0
			c0.1-0.8,0.2-1.6,0.4-2.3l-2.8-1c-1-0.4-1.5-1.4-1.2-2.4c0.9-2.5,2.2-4.8,3.9-6.8c0.7-0.8,1.9-0.9,2.7-0.2l2.3,1.9
			c0.6-0.5,1.2-1.1,1.8-1.5l-1.5-2.6c-0.5-0.9-0.2-2.1,0.7-2.6c2.3-1.3,4.8-2.2,7.4-2.7c0.5-0.1,1,0,1.4,0.3s0.7,0.7,0.8,1.2
			l0.5,2.9c0.8-0.1,1.6-0.1,2.4,0l0.5-2.9c0.2-1,1.2-1.7,2.2-1.6c2.6,0.5,5.1,1.3,7.4,2.7c0.4,0.2,0.8,0.7,0.9,1.2s0.1,1-0.2,1.5
			l-1.5,2.6c0.6,0.5,1.2,1,1.8,1.5l2.3-1.9c0.8-0.7,2-0.6,2.7,0.2c1.7,2,3,4.3,3.9,6.8c0.4,1-0.1,2.1-1.1,2.4l-2.8,1
			c0.2,0.8,0.3,1.6,0.4,2.4l2.9,0c0.6,0,1,0.2,1.4,0.6s0.6,0.8,0.6,1.4c0,2.7-0.5,5.3-1.4,7.8c-0.2,0.5-0.5,0.9-1,1.1
			s-1,0.2-1.5,0.1l-2.8-1c-0.3,0.7-0.7,1.4-1.2,2.1l2.3,1.9c0.4,0.3,0.6,0.8,0.7,1.3s-0.1,1-0.4,1.4c-1.7,2-3.7,3.7-6,5
			c-0.4,0.2-1,0.3-1.4,0.2s-0.9-0.4-1.2-0.9l-1.5-2.6c-0.7,0.3-1.5,0.6-2.2,0.8l0.5,2.9c0.1,0.5,0,1-0.3,1.4s-0.7,0.7-1.2,0.8
			C92.3,99.1,91,99.2,89.7,99.2z M88.4,95.3c0.9,0.1,1.8,0.1,2.7,0l-0.5-2.7c-0.2-1,0.5-2,1.6-2.2c1.6-0.3,3.1-0.8,4.6-1.7
			c0.4-0.2,1-0.3,1.4-0.2s0.9,0.4,1.2,0.9l1.4,2.4c0.7-0.5,1.4-1.1,2.1-1.7l-2.1-1.8c-0.4-0.3-0.6-0.8-0.7-1.3s0.1-1,0.4-1.4
			c1-1.2,1.8-2.7,2.4-4.2c0.4-1,1.5-1.5,2.4-1.1l2.6,0.9c0.2-0.9,0.4-1.8,0.5-2.7l-2.8,0c-0.5,0-1-0.2-1.4-0.6s-0.6-0.8-0.6-1.4
			c0-1.6-0.3-3.2-0.9-4.8c-0.2-0.5-0.2-1,0.1-1.5s0.6-0.8,1.1-1l2.6-1c-0.4-0.8-0.8-1.6-1.4-2.3l-2.1,1.8c-0.4,0.3-0.9,0.5-1.4,0.4
			s-1-0.3-1.3-0.7c-1.1-1.2-2.3-2.3-3.7-3.1c-0.9-0.5-1.2-1.7-0.7-2.6l1.4-2.4c-0.8-0.4-1.7-0.7-2.6-0.9l-0.5,2.7
			c-0.1,0.5-0.4,1-0.8,1.2c-0.4,0.3-0.9,0.4-1.4,0.3c-1.8-0.3-3.1-0.3-4.8,0c-0.5,0.1-1,0-1.4-0.3s-0.7-0.7-0.8-1.2l-0.5-2.7
			c-0.9,0.2-1.7,0.6-2.6,0.9l1.4,2.4c0.5,0.9,0.2,2.1-0.7,2.6c-1.4,0.8-2.7,1.9-3.7,3.1c-0.7,0.8-1.9,0.9-2.7,0.2l-2.1-1.8
			c-0.5,0.8-1,1.5-1.3,2.3l2.6,0.9c0.5,0.2,0.9,0.5,1.1,1c0.2,0.5,0.2,1,0.1,1.5c-0.6,1.5-0.8,3.1-0.8,4.7c0,0,0,0.1,0,0.1
			c0,1.1-0.8,1.9-1.9,1.9l-2.8,0c0.1,0.9,0.2,1.8,0.5,2.7l2.6-1c1-0.4,2.1,0.2,2.4,1.1c0.6,1.6,1.4,3,2.4,4.2c0.7,0.8,0.6,2-0.2,2.7
			l-2.1,1.8c0.7,0.6,1.3,1.2,2.1,1.7l1.4-2.4c0.2-0.4,0.7-0.8,1.2-0.9c0.5-0.1,1-0.1,1.4,0.2c1.4,0.8,2.9,1.4,4.6,1.7
			c1,0.2,1.7,1.2,1.6,2.2L88.4,95.3z"/>
	</g>
	<g>
		<path class="st0" d="M37.7,67.6H1.9c-1,0-1.9-0.9-1.9-1.9V11.5c0-1.1,0.9-1.9,1.9-1.9h35.8c1.1,0,1.9,0.9,1.9,1.9v54.2
			C39.6,66.8,38.7,67.6,37.7,67.6z M3.8,63.8h31.9V13.4H3.8V63.8z"/>
	</g>
	<g>
		<path class="st0" d="M37.7,13.4H1.9c-1,0-1.9-0.9-1.9-1.9V6.4C0,2.9,2.9,0,6.4,0h26.7c3.5,0,6.4,2.9,6.4,6.4v5.1
			C39.6,12.5,38.7,13.4,37.7,13.4z M3.8,9.6h31.9V6.4c0-1.4-1.2-2.6-2.6-2.6H6.4C5,3.8,3.8,5,3.8,6.4L3.8,9.6L3.8,9.6z"/>
	</g>
	<g>
		<path class="st0" d="M33.2,77H6.4C2.9,77,0,74.1,0,70.5v-4.8c0-1.1,0.9-1.9,1.9-1.9h35.8c1.1,0,1.9,0.9,1.9,1.9v4.8
			C39.6,74.1,36.7,77,33.2,77z M3.8,67.6v2.9c0,1.4,1.2,2.6,2.6,2.6h26.8c1.4,0,2.6-1.2,2.6-2.6v-2.9H3.8z"/>
	</g>
	<g>
		<path class="st0" d="M45.9,108.5h-34c-1.1,0-1.9-0.9-1.9-1.9V78.1c0-1.1,0.9-1.9,1.9-1.9c1.1,0,1.9,0.9,1.9,1.9v26.6h32.1
			c1.1,0,1.9,0.9,1.9,1.9C47.8,107.6,46.9,108.5,45.9,108.5z"/>
	</g>
	<g>
		<path class="st0" d="M18.5,85.9c-0.5,0-1-0.2-1.4-0.6l-5.2-5.8l-5.2,5.8C6,86,4.8,86.1,4,85.4c-0.8-0.7-0.8-1.9-0.2-2.7l6.6-7.3
			c0.7-0.8,2.1-0.8,2.9,0l6.6,7.3c0.7,0.8,0.6,2-0.1,2.7C19.4,85.7,18.9,85.9,18.5,85.9z"/>
	</g>
	<g>
		<path class="st0" d="M39,115.1c-0.5,0-1-0.2-1.4-0.6c-0.7-0.8-0.6-2,0.2-2.7l5.8-5.2l-5.8-5.2c-0.8-0.7-0.8-1.9-0.2-2.7
			c0.7-0.8,1.9-0.8,2.7-0.2l7.3,6.6c0.4,0.4,0.6,0.9,0.6,1.4s-0.2,1.1-0.6,1.4l-7.3,6.6C39.9,114.9,39.5,115.1,39,115.1z"/>
	</g>
	<g>
		<path class="st0" d="M89.8,43.7c-1.1,0-1.9-0.9-1.9-1.9V15.2H39.2c-1.1,0-1.9-0.9-1.9-1.9c0-1.1,0.9-1.9,1.9-1.9h50.6
			c1.1,0,1.9,0.9,1.9,1.9v28.5C91.7,42.8,90.9,43.7,89.8,43.7z"/>
	</g>
	<g>
		<path class="st0" d="M89.8,45.1c-0.5,0-1.1-0.2-1.4-0.6l-6.6-7.3c-0.7-0.8-0.6-2,0.2-2.7s2-0.6,2.7,0.2l5.2,5.8l5.2-5.8
			c0.7-0.8,1.9-0.8,2.7-0.2c0.8,0.7,0.8,1.9,0.2,2.7l-6.6,7.3C90.9,44.9,90.4,45.1,89.8,45.1z"/>
	</g>
	<g>
		<path class="st0" d="M46.1,21.8c-0.5,0-0.9-0.2-1.3-0.5l-7.3-6.6c-0.4-0.4-0.6-0.9-0.6-1.4s0.2-1.1,0.6-1.4l7.3-6.6
			c0.8-0.7,2-0.6,2.7,0.2s0.6,2-0.2,2.7l-5.8,5.2l5.8,5.2c0.8,0.7,0.8,1.9,0.2,2.7C47.2,21.5,46.7,21.8,46.1,21.8z"/>
	</g>
	<g>
		<path class="st1" d="M29,54.3H10.6c-1.1,0-1.9-0.9-1.9-1.9V26.7c0-1.1,0.9-1.9,1.9-1.9H29c1.1,0,1.9,0.9,1.9,1.9v25.7
			C30.9,53.4,30.1,54.3,29,54.3z M12.5,50.5h14.6V28.6H12.5V50.5z"/>
	</g>
</g>
</svg>
