<?xml version="1.0" encoding="utf-8"?>
<!-- Generator: Adobe Illustrator 26.0.3, SVG Export Plug-In . SVG Version: 6.00 Build 0)  -->
<svg version="1.1" id="_x3C_Layer_x3E_" xmlns="http://www.w3.org/2000/svg" xmlns:xlink="http://www.w3.org/1999/xlink" x="0px"
	 y="0px" viewBox="0 0 129.3 127.6" style="enable-background:new 0 0 129.3 127.6;" xml:space="preserve">
<style type="text/css">
	.st0{fill:#3D3D3D;}
	.st1{fill:#007AB6;}
</style>
<g>
	<g>
		<path class="st0" d="M58.3,127.6C58.3,127.6,58.3,127.6,58.3,127.6l-22.2-0.8c-0.1,0-0.2,0-0.3,0c-17-3.4-30.4-17-33.3-34
			c-3.3-19.2-3.3-38.7,0-57.9C5.5,17.6,19,4,36.2,0.7c0.1,0,0.2,0,0.3,0L58.6,0c0.5,0,1,0.2,1.4,0.5c0.4,0.4,0.6,0.9,0.6,1.4v33.7
			c0,1.1-0.9,1.9-1.9,1.9H37.4c-4.7,5.3-7.5,18.4-6.9,31.7C31,79,33.4,86.7,36.9,90h21.4c1.1,0,1.9,0.9,1.9,1.9v33.7
			c0,0.5-0.2,1-0.6,1.4C59.3,127.4,58.8,127.6,58.3,127.6z M36.4,122.9l20,0.7V93.9H36.2c-0.4,0-0.9-0.2-1.2-0.4
			c-4.7-3.8-7.7-12.6-8.3-24c-0.6-12.3,1.8-28.5,8.5-35.2c0.4-0.4,0.8-0.6,1.3-0.6h20.2V3.9l-20,0.6C21.2,7.5,9,19.9,6.3,35.5
			C3,54.3,3,73.3,6.3,92.1C8.9,107.5,21,119.9,36.4,122.9z"/>
	</g>
	<g>
		<path class="st0" d="M49.9,37.5c-1.1,0-1.9-0.9-1.9-1.9V3.1c0-1.1,0.9-1.9,1.9-1.9s1.9,0.9,1.9,1.9v32.5
			C51.9,36.7,51,37.5,49.9,37.5z"/>
	</g>
	<g>
		<path class="st0" d="M49.9,126.8c-1.1,0-1.9-0.9-1.9-1.9V92.4c0-1.1,0.9-1.9,1.9-1.9s1.9,0.9,1.9,1.9v32.5
			C51.9,126,51,126.8,49.9,126.8z"/>
	</g>
	<g>
		<path class="st1" d="M94.7,87c-8.8,0-17.1-2.9-23.5-8.2L58.2,86c-0.8,0.4-1.7,0.3-2.3-0.3s-0.7-1.5-0.3-2.3l7.8-14
			C61.2,65.2,60,60.7,60,56c0-17.1,15.5-31,34.6-31s34.6,13.9,34.6,31C129.3,73.1,113.8,87,94.7,87z M71.4,74.5
			c0.5,0,0.9,0.2,1.3,0.5c5.8,5.2,13.7,8.1,22,8.1c17,0,30.8-12.2,30.8-27.1s-13.8-27.1-30.8-27.1S63.9,41.1,63.9,56
			c0,4.3,1.1,8.5,3.4,12.3c0.3,0.6,0.3,1.3,0,1.9l-5,9.1l8.2-4.6C70.8,74.6,71.1,74.5,71.4,74.5z"/>
	</g>
	<g>
		<g>
			<path class="st1" d="M82.1,58c-0.5,0-1-0.2-1.4-0.6c-0.3-0.4-0.6-0.9-0.6-1.4c0-0.5,0.2-1,0.6-1.4c0.4-0.5,1.1-0.7,1.7-0.5
				c0.1,0,0.2,0,0.4,0.1c0.1,0,0.2,0.1,0.3,0.2c0.1,0.1,0.2,0.2,0.3,0.2C83.8,55,84,55.5,84,56c0,0.5-0.2,1-0.6,1.4
				c-0.1,0.1-0.2,0.2-0.3,0.2c-0.1,0.1-0.2,0.1-0.3,0.2c-0.1,0-0.2,0.1-0.4,0.1C82.3,57.9,82.2,58,82.1,58z"/>
		</g>
		<g>
			<path class="st1" d="M94.9,56c0-1.1,0.9-1.9,1.9-1.9l0,0c1.1,0,1.9,0.9,1.9,1.9l0,0c0,1.1-0.9,1.9-1.9,1.9l0,0
				C95.8,58,94.9,57.1,94.9,56z"/>
		</g>
		<g>
			<path class="st1" d="M111.6,58c-0.1,0-0.2,0-0.4,0c-0.1,0-0.2-0.1-0.4-0.1c-0.1,0-0.2-0.1-0.3-0.2c-0.1-0.1-0.2-0.1-0.3-0.2
				c-0.1-0.1-0.2-0.2-0.2-0.3c-0.1-0.1-0.1-0.2-0.2-0.3c0-0.1-0.1-0.2-0.1-0.4c0-0.1,0-0.2,0-0.4c0-0.1,0-0.3,0-0.4
				c0-0.1,0.1-0.2,0.1-0.4c0.1-0.1,0.1-0.2,0.2-0.3c0.1-0.1,0.2-0.2,0.2-0.3s0.2-0.2,0.3-0.2c0.1-0.1,0.2-0.1,0.3-0.2
				c0.1,0,0.2-0.1,0.4-0.1c0.6-0.1,1.3,0.1,1.7,0.5c0.1,0.1,0.2,0.2,0.2,0.3c0.1,0.1,0.1,0.2,0.2,0.3c0.1,0.1,0.1,0.2,0.1,0.4
				c0,0.1,0,0.3,0,0.4c0,0.1,0,0.2,0,0.4c0,0.1-0.1,0.2-0.1,0.4c0,0.1-0.1,0.2-0.2,0.3c-0.1,0.1-0.2,0.2-0.2,0.3
				C112.6,57.8,112.1,58,111.6,58z"/>
		</g>
	</g>
</g>
</svg>
