<?xml version="1.0" encoding="utf-8"?>
<!-- Generator: Adobe Illustrator 26.0.3, SVG Export Plug-In . SVG Version: 6.00 Build 0)  -->
<svg version="1.1" id="_x3C_Layer_x3E_" xmlns="http://www.w3.org/2000/svg" xmlns:xlink="http://www.w3.org/1999/xlink" x="0px"
	 y="0px" viewBox="0 0 129.8 130.2" style="enable-background:new 0 0 129.8 130.2;" xml:space="preserve">
<style type="text/css">
	.st0{fill:#303030;}
	.st1{fill:#007AB6;}
</style>
<g>
	<g>
		<g>
			<path class="st0" d="M47.8,91.2c-0.5,0-1-0.2-1.3-0.6c-0.4-0.4-0.6-0.8-0.6-1.3s0.2-1,0.6-1.3c0.1-0.1,0.2-0.2,0.3-0.2
				c0.1-0.1,0.2-0.1,0.3-0.2s0.2-0.1,0.4-0.1c0.6-0.1,1.3,0.1,1.7,0.5c0.4,0.4,0.6,0.8,0.6,1.3s-0.2,1-0.6,1.3
				c-0.2,0.2-0.4,0.3-0.6,0.4C48.3,91.2,48.1,91.2,47.8,91.2z"/>
		</g>
		<g>
			<path class="st0" d="M103.4,89.3c0-1.1,0.8-1.9,1.9-1.9l0,0c1.1,0,1.9,0.8,1.9,1.9l0,0c0,1.1-0.8,1.9-1.9,1.9l0,0
				C104.3,91.2,103.4,90.4,103.4,89.3z M89,89.3c0-1.1,0.9-1.9,1.9-1.9l0,0c1,0,1.9,0.8,1.9,1.9l0,0c0,1.1-0.8,1.9-1.9,1.9l0,0
				C89.9,91.2,89,90.4,89,89.3z M74.7,89.3c0-1.1,0.8-1.9,1.9-1.9l0,0c1.1,0,1.9,0.8,1.9,1.9l0,0c0,1.1-0.8,1.9-1.9,1.9l0,0
				C75.5,91.2,74.7,90.4,74.7,89.3z M60.3,89.3c0-1.1,0.8-1.9,1.9-1.9l0,0c1.1,0,1.9,0.8,1.9,1.9l0,0c0,1.1-0.8,1.9-1.9,1.9l0,0
				C61.1,91.2,60.3,90.4,60.3,89.3z"/>
		</g>
		<g>
			<path class="st0" d="M119.7,91.2c-0.2,0-0.5-0.1-0.7-0.2c-0.2-0.1-0.4-0.2-0.6-0.4c-0.4-0.4-0.6-0.8-0.6-1.3s0.2-1,0.6-1.3
				c0.4-0.4,1.1-0.7,1.7-0.5c0.1,0,0.2,0.1,0.4,0.1c0.1,0.1,0.2,0.1,0.3,0.2c0.1,0.1,0.2,0.2,0.3,0.2c0.4,0.4,0.6,0.8,0.6,1.3
				s-0.2,1-0.6,1.3C120.7,91,120.2,91.2,119.7,91.2z"/>
		</g>
	</g>
	<g>
		<path class="st0" d="M127.6,130.2H39.6c-1.1,0-1.9-0.9-1.9-1.9v-20.4c0-1.1,0.9-1.9,1.9-1.9h87.9c1.1,0,1.9,0.9,1.9,1.9v20.4
			C129.5,129.4,128.6,130.2,127.6,130.2z M41.5,126.4h84.1v-16.6H41.5V126.4z"/>
	</g>
	<g>
		<g>
			<path class="st0" d="M47.5,120c-0.2,0-0.5,0-0.7-0.1c-0.2-0.1-0.4-0.2-0.6-0.4c-0.4-0.4-0.6-0.8-0.6-1.3c0-0.5,0.2-1,0.6-1.3
				c0.1-0.1,0.2-0.2,0.3-0.2c0.1-0.1,0.2-0.1,0.3-0.2c0.1-0.1,0.2-0.1,0.4-0.1c0.2,0,0.5,0,0.7,0c0.1,0,0.2,0.1,0.4,0.1
				c0.1,0.1,0.2,0.1,0.3,0.2c0.1,0.1,0.2,0.2,0.3,0.2c0.4,0.4,0.6,0.8,0.6,1.3c0,0.2,0,0.5-0.1,0.7c-0.1,0.2-0.2,0.4-0.4,0.6
				c-0.2,0.2-0.4,0.3-0.6,0.4C48,120,47.8,120,47.5,120z"/>
		</g>
		<g>
			<path class="st0" d="M76.7,118.1c0-1.1,0.8-1.9,1.9-1.9l0,0c1.1,0,1.9,0.9,1.9,1.9l0,0c0,1-0.8,1.9-1.9,1.9l0,0
				C77.5,120,76.7,119.2,76.7,118.1z M61.2,118.1c0-1.1,0.8-1.9,1.9-1.9l0,0c1.1,0,1.9,0.9,1.9,1.9l0,0c0,1-0.8,1.9-1.9,1.9l0,0
				C62,120,61.2,119.2,61.2,118.1z"/>
		</g>
		<g>
			<path class="st0" d="M94.1,120c-0.2,0-0.5,0-0.7-0.1s-0.4-0.2-0.6-0.4c-0.4-0.4-0.6-0.8-0.6-1.3c0-0.5,0.2-1,0.6-1.3
				c0.7-0.7,2-0.7,2.7,0c0.4,0.4,0.6,0.8,0.6,1.3c0,0.2-0.1,0.5-0.1,0.7c-0.1,0.2-0.2,0.4-0.4,0.6C95.1,119.8,94.6,120,94.1,120z"/>
		</g>
	</g>
	<g>
		<path class="st0" d="M39.9,96.7h-38c-0.6,0-1.2-0.3-1.5-0.8c-0.4-0.5-0.5-1.1-0.3-1.7l8.4-28.4C10.6,59.2,16.9,54,22.9,54h16.3
			c1.1,0,1.9,0.9,1.9,1.9v1.3c0,4.2,3.4,7.6,7.6,7.6s7.6-3.4,7.6-7.6v-1.3c0-1,0.8-1.9,1.9-1.9H75c6,0,12.2,5.2,14.3,11.8l3.8,12.8
			c0.2,0.6,0.1,1.2-0.3,1.7c-0.4,0.5-0.9,0.8-1.5,0.8H41.8v13.7C41.8,95.8,40.9,96.7,39.9,96.7z M4.5,92.8H38V79.1
			c0-1.1,0.9-1.9,1.9-1.9h48.8l-3.1-10.3c-1.5-4.9-6.4-9.1-10.7-9.1H60c-0.3,6-5.3,10.7-11.4,10.7s-11-4.8-11.4-10.7H22.9
			c-4.2,0-9.1,4.2-10.7,9.1L4.5,92.8z"/>
	</g>
	<g>
		<path class="st0" d="M127.8,101.4H39.9c-1.1,0-1.9-0.9-1.9-1.9V79.1c0-1.1,0.9-1.9,1.9-1.9h87.9c1.1,0,1.9,0.9,1.9,1.9v20.4
			C129.8,100.6,128.9,101.4,127.8,101.4z M41.8,97.6h84.1V81H41.8V97.6z"/>
	</g>
	<g>
		<path class="st0" d="M48.6,68.6c-6.3,0-11.4-5.1-11.4-11.4V46.1c0-0.7,0.4-1.4,1-1.7c0.6-0.3,1.4-0.3,2,0.1
			c5.1,3.5,11.7,3.5,16.8,0c0.6-0.4,1.3-0.5,2-0.1s1,1,1,1.7v11.1C60,63.5,54.9,68.6,48.6,68.6z M41,49.4v7.8c0,4.2,3.4,7.6,7.6,7.6
			s7.6-3.4,7.6-7.6v-7.8C51.3,51.6,45.8,51.6,41,49.4z"/>
	</g>
	<g>
		<path class="st1" d="M48.6,51c-3.7,0-7.4-1.2-10.6-3.4c-6.6-4.5-10.6-13-10.6-22.1c0-14,9.5-25.4,21.2-25.4
			c11.7,0,21.2,11.4,21.2,25.4c0,9.1-4.1,17.5-10.7,22.1C56,49.9,52.3,51,48.6,51z M48.6,4C39,4,31.2,13.7,31.2,25.6
			c0,7.9,3.5,15.1,9,18.9c5.1,3.5,11.7,3.5,16.8,0c5.5-3.8,9-11.1,9-18.9C66,13.7,58.2,4,48.6,4z"/>
	</g>
	<g>
		<path class="st0" d="M118.7,81c-1.1,0-1.9-0.9-1.9-1.9V18.6c0-1,0.9-1.9,1.9-1.9c1.1,0,1.9,0.9,1.9,1.9v60.5
			C120.6,80.2,119.8,81,118.7,81z"/>
	</g>
	<g>
		<path class="st0" d="M100,80.3c-1.1,0-1.9-0.9-1.9-1.9V33.3c0-1,0.9-1.9,1.9-1.9c1.1,0,1.9,0.9,1.9,1.9v45.1
			C101.9,79.5,101,80.3,100,80.3z"/>
	</g>
	<g>
		<path class="st0" d="M39.6,120H14.3c-1.1,0-1.9-0.9-1.9-1.9s0.9-1.9,1.9-1.9h25.3c1.1,0,1.9,0.9,1.9,1.9
			C41.5,119.2,40.7,120,39.6,120z"/>
	</g>
	<g>
		<path class="st1" d="M118.7,20.5c-5.7,0-10.2-4.6-10.2-10.2S113.1,0,118.7,0S129,4.6,129,10.2S124.4,20.5,118.7,20.5z M118.7,3.8
			c-3.5,0-6.4,2.9-6.4,6.4s2.9,6.4,6.4,6.4c3.5,0,6.4-2.9,6.4-6.4S122.3,3.8,118.7,3.8z"/>
	</g>
	<g>
		<path class="st1" d="M100,35.2c-4.5,0-8.1-3.6-8.1-8.1S95.5,19,100,19c4.5,0,8.1,3.6,8.1,8.1S104.4,35.2,100,35.2z M100,22.8
			c-2.4,0-4.3,1.9-4.3,4.3s1.9,4.3,4.3,4.3s4.3-1.9,4.3-4.3C104.3,24.7,102.3,22.8,100,22.8z"/>
	</g>
	<g>
		<path class="st1" d="M8.1,126.2c-4.5,0-8.1-3.7-8.1-8.1c0-4.5,3.6-8.1,8.1-8.1c4.5,0,8.1,3.6,8.1,8.1
			C16.2,122.6,12.6,126.2,8.1,126.2z M8.1,113.8c-2.4,0-4.3,1.9-4.3,4.3s1.9,4.3,4.3,4.3s4.3-1.9,4.3-4.3S10.5,113.8,8.1,113.8z"/>
	</g>
</g>
</svg>
