<?xml version="1.0" encoding="utf-8"?>
<!-- Generator: Adobe Illustrator 26.0.3, SVG Export Plug-In . SVG Version: 6.00 Build 0)  -->
<svg version="1.1" id="_x3C_Layer_x3E_" xmlns="http://www.w3.org/2000/svg" xmlns:xlink="http://www.w3.org/1999/xlink" x="0px"
	 y="0px" viewBox="0 0 131.1 131.1" style="enable-background:new 0 0 131.1 131.1;" xml:space="preserve">
<style type="text/css">
	.st0{fill:#007AB6;}
	.st1{fill:#303030;}
</style>
<g>
	<g>
		<path class="st0" d="M46.7,85.8c-10.1,0-20.1-3.9-27.6-11.4c-15.2-15.2-15.2-40,0-55.2c7.4-7.4,17.2-11.4,27.6-11.4
			c10.4,0,20.3,4.1,27.6,11.4c11.9,11.9,14.8,30,7.3,45.1c-1.9,3.8-4.3,7.2-7.3,10.1c-3,3-6.4,5.4-10.1,7.3
			C58.6,84.4,52.6,85.8,46.7,85.8z M46.7,11.5c-9.4,0-18.3,3.7-24.9,10.3S11.4,37.3,11.4,46.7S15.1,65,21.8,71.6
			C32.5,82.4,48.9,85,62.5,78.2c3.4-1.7,6.4-3.9,9.1-6.6c2.7-2.7,4.9-5.7,6.6-9.1c6.8-13.6,4.2-30-6.6-40.7
			C65,15.1,56.1,11.5,46.7,11.5z"/>
	</g>
	<g>
		<path class="st1" d="M117.6,131.1c-3.5,0-7-1.3-9.6-4L67.7,86.9c-0.4-0.4-0.6-1-0.5-1.6s0.4-1.1,0.9-1.4c3.3-1.9,6.3-4.2,9-6.9
			c2.7-2.7,5-5.7,6.9-9c0.3-0.5,0.8-0.9,1.4-0.9c0.6-0.1,1.2,0.1,1.6,0.5l40.3,40.3c5.3,5.3,5.3,13.9,0,19.2
			C124.5,129.8,121,131.1,117.6,131.1z M72.1,85.9l38.6,38.6c1.8,1.8,4.3,2.9,6.9,2.9s5.1-1,6.9-2.9c3.8-3.8,3.8-10,0-13.8
			L85.9,72.1c-1.8,2.8-3.9,5.3-6.2,7.7C77.4,82,74.8,84.1,72.1,85.9z"/>
	</g>
	<g>
		<path class="st0" d="M46.7,93.4c-12.1,0-24.1-4.7-33.1-13.7c-18.2-18.2-18.2-47.8,0-66.1s47.8-18.2,66.1,0
			c14.9,14.9,17.9,38,7.5,56.3c-2.1,3.6-4.6,6.9-7.5,9.8c-2.9,2.9-6.2,5.4-9.8,7.5C62.7,91.3,54.7,93.4,46.7,93.4z M46.7,3.8
			c-11,0-22,4.2-30.3,12.6c-16.7,16.7-16.7,44,0,60.7C30,90.7,51.3,93.5,68.1,83.9c3.3-1.9,6.3-4.2,9-6.9c2.7-2.7,5-5.7,6.9-9
			c9.6-16.8,6.8-38-6.9-51.7C68.7,8,57.7,3.8,46.7,3.8z M46.7,85.8c-10.1,0-20.1-3.9-27.6-11.4c-15.2-15.2-15.2-40,0-55.2
			c7.4-7.4,17.2-11.4,27.6-11.4c10.4,0,20.3,4.1,27.6,11.4c11.9,11.9,14.8,30,7.3,45.1c-1.9,3.8-4.3,7.2-7.3,10.1
			c-3,3-6.4,5.4-10.1,7.3C58.6,84.4,52.6,85.8,46.7,85.8z M46.7,11.5c-9.4,0-18.3,3.7-24.9,10.3C8,35.5,8,57.9,21.8,71.6
			C32.5,82.4,48.9,85,62.5,78.2c3.4-1.7,6.4-3.9,9.1-6.6c2.7-2.7,4.9-5.7,6.6-9.1l0,0c6.8-13.6,4.2-30-6.6-40.7
			C65,15.1,56.1,11.5,46.7,11.5z"/>
	</g>
	<g>
		<g>
			<path class="st1" d="M85.4,87.3c-0.2,0-0.5-0.1-0.7-0.1c-0.2-0.1-0.4-0.2-0.6-0.4c-0.4-0.4-0.6-0.8-0.6-1.3c0-0.5,0.2-1,0.6-1.3
				c0.7-0.7,2-0.7,2.7,0c0.3,0.4,0.6,0.8,0.6,1.3c0,0.5-0.2,1-0.6,1.3S85.9,87.3,85.4,87.3z"/>
		</g>
		<g>
			<path class="st1" d="M101.6,104.3c-0.8-0.8-0.8-1.9,0-2.7l0,0c0.7-0.8,1.9-0.8,2.7,0l0,0c0.7,0.7,0.7,1.9,0,2.7l0,0
				c-0.4,0.4-0.9,0.6-1.3,0.6l0,0C102.5,104.9,102,104.7,101.6,104.3z M92.8,95.5c-0.8-0.7-0.8-1.9,0-2.7l0,0c0.7-0.8,1.9-0.8,2.7,0
				l0,0c0.7,0.7,0.7,1.9,0,2.7l0,0c-0.4,0.4-0.9,0.6-1.3,0.6l0,0C93.7,96.1,93.2,95.9,92.8,95.5z"/>
		</g>
		<g>
			<path class="st1" d="M111.8,113.7c-0.5,0-1-0.2-1.3-0.6c-0.4-0.4-0.6-0.8-0.6-1.3c0-0.5,0.2-1,0.6-1.3c0.1-0.1,0.2-0.2,0.3-0.2
				c0.1-0.1,0.2-0.1,0.3-0.2c0.1-0.1,0.2-0.1,0.4-0.1c0.6-0.1,1.3,0.1,1.7,0.5c0.4,0.4,0.6,0.8,0.6,1.3c0,0.5-0.2,1-0.6,1.3
				c-0.2,0.2-0.4,0.3-0.6,0.4C112.3,113.6,112,113.7,111.8,113.7z"/>
		</g>
	</g>
</g>
</svg>
