<?xml version="1.0" encoding="utf-8"?>
<!-- Generator: Adobe Illustrator 26.0.3, SVG Export Plug-In . SVG Version: 6.00 Build 0)  -->
<svg version="1.1" id="_x3C_Layer_x3E_" xmlns="http://www.w3.org/2000/svg" xmlns:xlink="http://www.w3.org/1999/xlink" x="0px"
	 y="0px" viewBox="0 0 131.7 131.5" style="enable-background:new 0 0 131.7 131.5;" xml:space="preserve">
<style type="text/css">
	.st0{fill:#007AB6;}
	.st1{fill:#3D3D3D;}
</style>
<g>
	<g>
		<path class="st0" d="M66.9,61.3c0,0-0.1,0-0.1,0c-0.6,0-1.2-0.4-1.5-1L59.9,51c0.5-2.5,2.9-2.6,3.8-1.1l3.5,6l7.9-10.7
			c1-1.3,3.4-1,3.6,1.6L68.5,60.5C68.1,61,67.5,61.3,66.9,61.3z"/>
	</g>
	<g>
		<path class="st0" d="M79.3,71.2c-13.1,8.1-28.2,1.6-32.7-10.8c-0.9-2.5-1.4-5-1.4-7.5c0-12.1,9.8-21.9,21.9-21.9l0,0
			c15,0,26.5,15.1,20.1,30.9C85.6,65.7,82.8,69,79.3,71.2z M67.1,34.8c-10,0-18.1,8.1-18.1,18.1c0,2.1,0.4,4.2,1.1,6.2
			c3.8,10.4,16.6,15.8,27.5,8.6c2.6-1.7,4.7-4.2,5.9-7.2C89.1,47.4,79.5,34.8,67.1,34.8L67.1,34.8z"/>
	</g>
</g>
<g>
	<g>
		<path class="st1" d="M58.2,87.1L58.2,87.1L58.2,87.1c-1-0.2-1.7-1.2-1.5-2.3l0,0c0.2-1,1.2-1.7,2.3-1.4l0,0c1,0.2,1.7,1.2,1.5,2.3
			l0,0c-0.2,0.9-1,1.5-1.9,1.5l0,0C58.5,87.2,58.3,87.2,58.2,87.1z M71.5,85.7c-0.2-1,0.4-2.1,1.4-2.3l0,0c1-0.2,2.1,0.4,2.3,1.4
			l0,0c0.2,1-0.4,2.1-1.4,2.3l0,0l0,0l0,0c-0.2,0-0.3,0.1-0.4,0.1l0,0C72.5,87.2,71.7,86.6,71.5,85.7z M44.1,80.3
			c-0.8-0.7-1-1.9-0.3-2.7l0,0c0.7-0.8,1.9-1,2.7-0.3l0,0c0.8,0.7,1,1.9,0.3,2.7l0,0c-0.4,0.5-0.9,0.7-1.5,0.7l0,0
			C44.8,80.8,44.4,80.6,44.1,80.3z M85.2,80c-0.7-0.8-0.5-2,0.3-2.7l0,0c0.8-0.7,2-0.5,2.7,0.3l0,0c0.7,0.8,0.5,2-0.3,2.7l0,0
			c-0.3,0.3-0.8,0.4-1.2,0.4l0,0C86.2,80.7,85.6,80.5,85.2,80z M34.3,68.1c-0.5-1-0.1-2.1,0.9-2.6l0,0c1-0.5,2.1-0.1,2.6,0.9l0,0
			c0.5,1,0.1,2.1-0.9,2.6l0,0c-0.3,0.1-0.5,0.2-0.8,0.2l0,0C35.3,69.2,34.6,68.8,34.3,68.1z M95.1,69c-1-0.5-1.4-1.6-0.9-2.6l0,0
			c0.5-1,1.6-1.4,2.6-0.9l0,0c0.9,0.5,1.4,1.6,0.9,2.6l0,0c-0.3,0.7-1,1.1-1.7,1.1l0,0C95.7,69.1,95.4,69.1,95.1,69z M30.8,52.9
			c0-1.1,0.9-1.9,1.9-1.9l0,0c1.1,0,1.9,0.9,1.9,1.9l0,0c0,1.1-0.9,1.9-1.9,1.9l0,0C31.7,54.8,30.8,53.9,30.8,52.9z M97.3,52.8
			L97.3,52.8C97.3,52.8,97.3,52.8,97.3,52.8L97.3,52.8c0,0,0-0.1,0-0.1l0,0c0-1.1,0.9-1.9,1.9-1.9l0,0c1.1,0,1.9,0.8,1.9,1.9l0,0
			c0,0,0,0,0,0.1l0,0c0,0,0,0,0,0.1l0,0c0,1.1-0.9,1.9-1.9,1.9l0,0C98.2,54.7,97.3,53.9,97.3,52.8z M35.1,40.2
			c-1-0.5-1.4-1.6-0.9-2.6l0,0c0.5-1,1.6-1.4,2.6-0.9l0,0c1,0.5,1.4,1.6,0.9,2.6l0,0c-0.3,0.7-1,1.1-1.7,1.1l0,0
			C35.7,40.3,35.4,40.3,35.1,40.2z M94.2,39.1c-0.5-1-0.1-2.1,0.9-2.6l0,0c0.9-0.5,2.1-0.1,2.6,0.9l0,0c0.5,1,0.1,2.1-0.9,2.6l0,0
			c-0.3,0.1-0.6,0.2-0.8,0.2l0,0C95.2,40.2,94.5,39.8,94.2,39.1z M43.7,28c-0.7-0.8-0.5-2,0.3-2.7l0,0c0.8-0.7,2-0.5,2.7,0.3l0,0
			c0.7,0.8,0.5,2-0.3,2.7l0,0c-0.4,0.3-0.8,0.4-1.2,0.4l0,0C44.6,28.8,44,28.5,43.7,28z M85.4,28.2c-0.8-0.7-1-1.9-0.3-2.7l0,0
			c0.7-0.8,1.9-1,2.7-0.3l0,0l0,0l0,0c0.8,0.6,1,1.9,0.3,2.7l0,0c-0.4,0.5-0.9,0.7-1.5,0.7l0,0C86.2,28.6,85.8,28.5,85.4,28.2z
			 M56.6,20.8c-0.2-1,0.4-2.1,1.4-2.3l0,0c1-0.2,2.1,0.4,2.3,1.4l0,0c0.2,1-0.4,2.1-1.4,2.3h0c-0.1,0-0.3,0-0.4,0l0,0
			C57.6,22.3,56.8,21.7,56.6,20.8z M72.9,22.2c-1-0.2-1.7-1.2-1.4-2.3l0,0c0.2-1,1.2-1.7,2.3-1.5l0,0c1,0.2,1.7,1.3,1.5,2.3l0,0
			c-0.2,0.9-1,1.5-1.9,1.5l0,0C73.1,22.3,73,22.2,72.9,22.2z"/>
	</g>
	<g>
		<path class="st0" d="M18.9,131.5c-0.3,0-0.5-0.1-0.8-0.2c-0.7-0.3-1.2-1.1-1.1-1.8l0.6-15.6L2,114.7c-0.8,0.1-1.5-0.4-1.8-1.1
			c-0.3-0.7-0.2-1.6,0.4-2.1l29.6-29.8c0.5-0.5,1.2-0.7,1.9-0.5c0.7,0.2,1.2,0.8,1.3,1.5l1.5,8.9L46.4,91c0.7,0,1.3,0.3,1.7,0.8
			l3.7,5.2c0.5,0.8,0.5,1.8-0.2,2.5L20.2,131C19.9,131.3,19.4,131.5,18.9,131.5z M19.6,110c0.5,0,1,0.2,1.4,0.6
			c0.4,0.4,0.6,0.9,0.6,1.4L21,124.8l26.7-26.9l-2.1-3l-12.2,0.6c-1,0-1.8-0.6-2-1.6L30.2,87L6.8,110.6L19.6,110
			C19.5,110,19.6,110,19.6,110z"/>
	</g>
	<g>
		<path class="st0" d="M112.8,131.5c-0.5,0-1-0.2-1.4-0.6L80.1,99.4c-0.7-0.7-0.7-1.7-0.2-2.5l3.7-5.2c0.4-0.5,1-0.8,1.7-0.8
			l11.5,0.6l1.5-8.9c0.1-0.7,0.6-1.3,1.3-1.5c0.7-0.2,1.4,0,1.9,0.5l29.6,29.8c0.6,0.6,0.7,1.4,0.4,2.1c-0.3,0.7-1.1,1.2-1.9,1.1
			l-15.6-0.7l0.6,15.6c0,0.8-0.4,1.5-1.2,1.8C113.3,131.5,113,131.5,112.8,131.5z M84,97.9l26.7,26.9l-0.5-12.7
			c0-0.5,0.2-1.1,0.6-1.4c0.4-0.4,0.9-0.6,1.4-0.6l12.7,0.6L101.4,87l-1.2,6.9c-0.2,1-1,1.6-2,1.6l-12.2-0.6L84,97.9z"/>
	</g>
	<g>
		<path class="st1" d="M54.2,105.6c-0.6,0-1.2-0.3-1.6-0.8l-7.1-9.9l-12.2,0.6c-1,0-1.8-0.6-2-1.6l-2.1-12l-11.2-4.7
			c-0.9-0.4-1.4-1.4-1.1-2.3l3.3-11.7l-8.1-9.1c-0.6-0.7-0.6-1.8,0-2.5l8.1-9.1L17,30.7c-0.3-0.9,0.2-1.9,1.1-2.3l11.2-4.7l2.1-12
			c0.2-1,1-1.6,2-1.6l12.2,0.6l7.1-9.9c0.6-0.8,1.6-1,2.5-0.6l10.7,5.9l10.7-5.9C77.4-0.2,78.4,0,79,0.8l7.1,9.9l12.2-0.6
			c1,0,1.8,0.6,2,1.6l2.1,12l11.2,4.7c0.9,0.4,1.4,1.4,1.1,2.3l-3.3,11.7l8.1,9.1c0.6,0.7,0.6,1.8,0,2.5l-8.1,9.1l3.3,11.7
			c0.3,0.9-0.2,1.9-1.1,2.3l-11.2,4.7l-2.1,12c-0.2,1-1,1.6-2,1.6l-12.2-0.6l-7.1,9.9c-0.6,0.8-1.6,1-2.5,0.6l-10.7-5.9l-10.7,5.9
			C54.9,105.5,54.5,105.6,54.2,105.6z M46.5,91c0.6,0,1.2,0.3,1.6,0.8l6.7,9.4l10.1-5.6c0.6-0.3,1.3-0.3,1.8,0l10.1,5.6l6.7-9.4
			c0.4-0.5,1-0.8,1.7-0.8l11.5,0.6l2-11.4c0.1-0.7,0.6-1.2,1.2-1.4l10.7-4.4l-3.2-11.1c-0.2-0.6,0-1.3,0.4-1.8l7.7-8.6l-7.7-8.6
			c-0.4-0.5-0.6-1.2-0.4-1.8l3.2-11.1l-10.7-4.4c-0.6-0.2-1-0.8-1.2-1.4l-2-11.4l-11.5,0.6c-0.7,0-1.3-0.3-1.7-0.8l-6.7-9.4L66.8,10
			c-0.6,0.3-1.3,0.3-1.8,0L54.8,4.4l-6.7,9.4c-0.4,0.5-1,0.8-1.7,0.8L34.9,14l-2,11.4c-0.1,0.6-0.5,1.2-1.2,1.4l-10.6,4.4l3.1,11.1
			c0.2,0.6,0,1.3-0.4,1.8l-7.6,8.6l7.6,8.6c0.4,0.5,0.6,1.2,0.4,1.8l-3.2,11.1l10.6,4.4c0.6,0.2,1,0.8,1.2,1.4l2,11.4L46.5,91
			C46.5,91,46.5,91,46.5,91z"/>
	</g>
</g>
</svg>
