<?xml version="1.0" encoding="utf-8"?>
<!-- Generator: Adobe Illustrator 26.0.3, SVG Export Plug-In . SVG Version: 6.00 Build 0)  -->
<svg version="1.1" xmlns="http://www.w3.org/2000/svg" xmlns:xlink="http://www.w3.org/1999/xlink" x="0px" y="0px"
	 viewBox="0 0 2724.5 2724.4" style="enable-background:new 0 0 2724.5 2724.4;" xml:space="preserve">
<style type="text/css">
	.st0{fill:#097BB7;}
	.st1{fill:#FFFFFF;}
</style>
<g id="Layer_3">
	<path class="st0" d="M2194.8,2724.4H529.7C237.1,2724.4,0,2487.3,0,2194.7V521C0,228.5,237.1-8.6,529.7-8.6h1665.1
		c292.5,0,529.7,237.1,529.7,529.7v1673.7C2724.5,2487.3,2487.4,2724.4,2194.8,2724.4z"/>
</g>
<g id="Layer_1">
	<g>
		<path class="st1" d="M1997.9,1966.2l-497.4-722.6l-56.2-81.7l-355.8-516.9l-29.5-42.8H621.7l106.6,155l473.1,687.4l56.2,81.6
			l380.1,552.3l29.5,42.8h437.2L1997.9,1966.2z M1719.3,2022.3l-394.9-573.8l-56.2-81.7L809.8,701H1007l370.6,538.5l56.2,81.7
			l482.6,701.2H1719.3z"/>
		<polygon class="st1" points="1268.1,1366.8 1324.3,1448.5 1257.7,1526.1 746.1,2121.2 620,2121.2 1201.4,1444.5 		"/>
		<polygon class="st1" points="2051.9,602.1 1500.5,1243.6 1433.8,1321.1 1377.6,1239.5 1444.2,1161.9 1817.8,727.1 1925.7,602.1 		
			"/>
	</g>
</g>
</svg>
