<svg xmlns="http://www.w3.org/2000/svg" xmlns:xlink="http://www.w3.org/1999/xlink" width="500" zoomAndPan="magnify" viewBox="0 0 375 374.999991" height="500" preserveAspectRatio="xMidYMid meet" version="1.0"><defs><clipPath id="d1bee4858d"><path d="M 0 14 L 375 14 L 375 361 L 0 361 Z M 0 14 " clip-rule="nonzero"/></clipPath><clipPath id="46904f4f3f"><path d="M 369.050781 142.710938 C 369.695312 145.113281 370.285156 147.527344 370.824219 149.957031 C 371.363281 152.382812 371.851562 154.824219 372.285156 157.273438 C 372.71875 159.722656 373.101562 162.179688 373.429688 164.644531 C 373.757812 167.109375 374.03125 169.578125 374.253906 172.058594 C 374.476562 174.535156 374.644531 177.015625 374.757812 179.5 C 374.875 181.984375 374.933594 184.46875 374.941406 186.957031 C 374.949219 189.445312 374.902344 191.929688 374.804688 194.414062 C 374.707031 196.898438 374.550781 199.382812 374.347656 201.859375 C 374.140625 204.339844 373.878906 206.8125 373.566406 209.277344 C 373.253906 211.746094 372.886719 214.207031 372.46875 216.65625 C 372.050781 219.109375 371.578125 221.550781 371.054688 223.980469 C 370.53125 226.414062 369.953125 228.832031 369.328125 231.238281 C 368.699219 233.644531 368.019531 236.035156 367.285156 238.414062 C 366.554688 240.789062 365.773438 243.152344 364.941406 245.496094 C 364.105469 247.835938 363.222656 250.160156 362.289062 252.46875 C 361.355469 254.773438 360.375 257.058594 359.34375 259.320312 C 358.3125 261.582031 357.230469 263.824219 356.101562 266.039062 C 354.976562 268.253906 353.800781 270.445312 352.578125 272.613281 C 351.355469 274.777344 350.085938 276.917969 348.769531 279.027344 C 347.457031 281.140625 346.097656 283.222656 344.691406 285.273438 C 343.285156 287.324219 341.839844 289.347656 340.347656 291.335938 C 338.855469 293.328125 337.320312 295.285156 335.746094 297.207031 C 334.171875 299.132812 332.554688 301.023438 330.894531 302.875 C 329.238281 304.730469 327.542969 306.546875 325.804688 308.328125 C 324.070312 310.109375 322.296875 311.855469 320.488281 313.558594 C 318.675781 315.265625 316.828125 316.929688 314.945312 318.554688 C 313.0625 320.179688 311.148438 321.761719 309.195312 323.304688 C 307.246094 324.847656 305.261719 326.347656 303.246094 327.804688 C 301.230469 329.261719 299.183594 330.675781 297.109375 332.046875 C 295.03125 333.414062 292.929688 334.738281 290.792969 336.015625 C 288.660156 337.296875 286.5 338.527344 284.316406 339.710938 C 282.128906 340.898438 279.917969 342.035156 277.679688 343.125 C 275.445312 344.214844 273.1875 345.257812 270.90625 346.25 C 268.628906 347.242188 266.328125 348.183594 264.003906 349.078125 C 261.683594 349.972656 259.34375 350.816406 256.988281 351.609375 C 254.628906 352.402344 252.257812 353.140625 249.867188 353.832031 C 247.480469 354.523438 245.074219 355.160156 242.660156 355.75 C 240.242188 356.335938 237.8125 356.871094 235.375 357.351562 C 232.933594 357.835938 230.484375 358.265625 228.027344 358.640625 C 225.566406 359.019531 223.101562 359.339844 220.628906 359.613281 C 218.15625 359.882812 215.679688 360.101562 213.199219 360.261719 C 210.71875 360.425781 208.234375 360.539062 205.746094 360.59375 C 203.261719 360.652344 200.773438 360.652344 198.289062 360.605469 C 195.800781 360.554688 193.316406 360.449219 190.835938 360.292969 C 188.351562 360.132812 185.875 359.921875 183.402344 359.660156 C 180.929688 359.394531 178.460938 359.078125 176.003906 358.707031 C 173.542969 358.335938 171.09375 357.914062 168.652344 357.4375 C 166.210938 356.960938 163.78125 356.433594 161.363281 355.851562 C 158.945312 355.269531 156.539062 354.636719 154.148438 353.953125 C 151.757812 353.269531 149.382812 352.535156 147.023438 351.746094 C 144.664062 350.960938 142.324219 350.121094 140 349.234375 C 137.675781 348.347656 135.375 347.410156 133.089844 346.421875 C 130.808594 345.4375 128.546875 344.402344 126.308594 343.316406 C 124.070312 342.230469 121.855469 341.101562 119.667969 339.921875 C 117.476562 338.742188 115.316406 337.515625 113.179688 336.242188 C 111.042969 334.96875 108.933594 333.648438 106.851562 332.285156 C 104.773438 330.921875 102.722656 329.515625 100.703125 328.0625 C 98.6875 326.609375 96.699219 325.113281 94.746094 323.578125 C 92.789062 322.039062 90.867188 320.460938 88.980469 318.839844 C 87.09375 317.21875 85.246094 315.558594 83.429688 313.859375 C 81.613281 312.15625 79.835938 310.417969 78.097656 308.644531 C 76.355469 306.867188 74.65625 305.050781 72.992188 303.203125 C 71.332031 301.351562 69.710938 299.464844 68.128906 297.546875 C 66.546875 295.625 65.007812 293.671875 63.511719 291.6875 C 63.042969 291.074219 62.609375 290.441406 62.203125 289.785156 C 61.796875 289.128906 61.425781 288.457031 61.085938 287.761719 C 60.746094 287.070312 60.441406 286.363281 60.171875 285.640625 C 59.902344 284.917969 59.671875 284.183594 59.472656 283.441406 C 59.277344 282.695312 59.117188 281.941406 58.996094 281.179688 C 58.871094 280.417969 58.789062 279.652344 58.742188 278.882812 C 58.695312 278.113281 58.683594 277.34375 58.714844 276.574219 C 58.742188 275.804688 58.808594 275.039062 58.914062 274.273438 C 59.019531 273.507812 59.160156 272.753906 59.339844 272.003906 C 59.519531 271.253906 59.734375 270.515625 59.988281 269.785156 C 60.238281 269.058594 60.527344 268.34375 60.851562 267.644531 C 61.171875 266.941406 61.53125 266.261719 61.917969 265.597656 C 62.308594 264.929688 62.730469 264.285156 63.183594 263.664062 C 63.636719 263.039062 64.121094 262.441406 64.632812 261.863281 C 65.148438 261.289062 65.6875 260.742188 66.253906 260.21875 C 66.820312 259.695312 67.414062 259.203125 68.027344 258.738281 C 68.644531 258.273438 69.28125 257.84375 69.9375 257.441406 C 70.597656 257.039062 71.273438 256.671875 71.96875 256.335938 C 72.664062 256.003906 73.371094 255.703125 74.097656 255.441406 C 74.820312 255.175781 75.554688 254.945312 76.300781 254.753906 C 77.050781 254.5625 77.804688 254.410156 78.566406 254.292969 C 79.328125 254.175781 80.09375 254.09375 80.863281 254.050781 C 81.632812 254.011719 82.402344 254.007812 83.171875 254.042969 C 83.941406 254.074219 84.710938 254.148438 85.472656 254.257812 C 86.234375 254.367188 86.992188 254.515625 87.738281 254.699219 C 88.488281 254.882812 89.226562 255.101562 89.953125 255.359375 C 90.679688 255.617188 91.390625 255.910156 92.089844 256.238281 C 92.785156 256.5625 93.46875 256.925781 94.128906 257.320312 C 94.792969 257.714844 95.433594 258.140625 96.054688 258.597656 C 96.671875 259.054688 97.269531 259.542969 97.839844 260.058594 C 98.414062 260.578125 98.960938 261.121094 99.476562 261.691406 C 99.996094 262.261719 100.484375 262.855469 100.945312 263.472656 C 102.035156 264.921875 103.160156 266.347656 104.3125 267.746094 C 105.464844 269.148438 106.648438 270.523438 107.859375 271.871094 C 109.070312 273.222656 110.3125 274.542969 111.582031 275.839844 C 112.847656 277.136719 114.144531 278.402344 115.46875 279.644531 C 116.792969 280.882812 118.144531 282.09375 119.519531 283.277344 C 120.894531 284.457031 122.296875 285.609375 123.71875 286.730469 C 125.144531 287.855469 126.59375 288.945312 128.066406 290.003906 C 129.539062 291.0625 131.035156 292.089844 132.550781 293.082031 C 134.066406 294.078125 135.605469 295.039062 137.164062 295.96875 C 138.722656 296.898438 140.300781 297.792969 141.894531 298.652344 C 143.492188 299.511719 145.105469 300.339844 146.738281 301.128906 C 148.371094 301.917969 150.019531 302.675781 151.683594 303.394531 C 153.351562 304.113281 155.03125 304.796875 156.722656 305.445312 C 158.417969 306.09375 160.125 306.703125 161.847656 307.277344 C 163.566406 307.851562 165.296875 308.386719 167.042969 308.886719 C 168.785156 309.386719 170.539062 309.847656 172.304688 310.273438 C 174.066406 310.695312 175.839844 311.082031 177.621094 311.429688 C 179.398438 311.777344 181.1875 312.085938 182.980469 312.355469 C 184.773438 312.625 186.570312 312.855469 188.375 313.050781 C 190.179688 313.242188 191.984375 313.394531 193.796875 313.511719 C 195.605469 313.625 197.417969 313.703125 199.230469 313.738281 C 201.042969 313.777344 202.859375 313.773438 204.671875 313.730469 C 206.484375 313.691406 208.296875 313.609375 210.105469 313.492188 C 211.914062 313.371094 213.722656 313.214844 215.527344 313.015625 C 217.328125 312.820312 219.125 312.582031 220.917969 312.308594 C 222.710938 312.035156 224.5 311.722656 226.277344 311.371094 C 228.058594 311.019531 229.828125 310.628906 231.589844 310.199219 C 233.351562 309.773438 235.105469 309.304688 236.847656 308.804688 C 238.589844 308.300781 240.320312 307.757812 242.039062 307.179688 C 243.761719 306.601562 245.464844 305.988281 247.160156 305.335938 C 248.851562 304.683594 250.527344 303.996094 252.191406 303.273438 C 253.855469 302.550781 255.503906 301.789062 257.132812 300.996094 C 258.761719 300.199219 260.375 299.371094 261.96875 298.507812 C 263.566406 297.640625 265.140625 296.742188 266.695312 295.8125 C 268.25 294.878906 269.785156 293.914062 271.300781 292.914062 C 272.816406 291.917969 274.308594 290.886719 275.777344 289.824219 C 277.246094 288.761719 278.691406 287.667969 280.117188 286.542969 C 281.539062 285.417969 282.9375 284.261719 284.308594 283.078125 C 285.683594 281.890625 287.03125 280.675781 288.351562 279.433594 C 289.671875 278.191406 290.964844 276.917969 292.230469 275.621094 C 293.496094 274.320312 294.734375 272.996094 295.941406 271.644531 C 297.152344 270.292969 298.328125 268.914062 299.480469 267.511719 C 300.628906 266.105469 301.746094 264.679688 302.835938 263.230469 C 303.921875 261.777344 304.980469 260.304688 306.003906 258.804688 C 307.027344 257.308594 308.019531 255.792969 308.976562 254.25 C 309.9375 252.710938 310.863281 251.152344 311.753906 249.574219 C 312.644531 247.992188 313.503906 246.394531 314.324219 244.78125 C 315.148438 243.164062 315.9375 241.53125 316.6875 239.878906 C 317.441406 238.230469 318.15625 236.5625 318.839844 234.882812 C 319.519531 233.199219 320.164062 231.503906 320.769531 229.796875 C 321.378906 228.085938 321.949219 226.367188 322.484375 224.632812 C 323.015625 222.898438 323.511719 221.15625 323.96875 219.398438 C 324.429688 217.644531 324.847656 215.882812 325.230469 214.109375 C 325.613281 212.335938 325.957031 210.554688 326.261719 208.765625 C 326.570312 206.980469 326.835938 205.183594 327.0625 203.386719 C 327.292969 201.585938 327.480469 199.785156 327.632812 197.976562 C 327.78125 196.167969 327.894531 194.359375 327.964844 192.546875 C 328.039062 190.734375 328.074219 188.921875 328.066406 187.105469 C 328.0625 185.292969 328.015625 183.480469 327.933594 181.667969 C 327.847656 179.855469 327.726562 178.046875 327.566406 176.242188 C 327.402344 174.433594 327.203125 172.632812 326.964844 170.832031 C 326.722656 169.035156 326.445312 167.242188 326.128906 165.457031 C 325.8125 163.671875 325.457031 161.894531 325.066406 160.125 C 324.671875 158.351562 324.242188 156.589844 323.769531 154.839844 C 305.753906 87.601562 236.394531 47.5625 169.15625 65.570312 C 164.75 66.765625 160.421875 68.195312 156.167969 69.855469 C 151.917969 71.519531 147.765625 73.40625 143.71875 75.515625 C 139.667969 77.625 135.746094 79.945312 131.945312 82.476562 C 128.148438 85.011719 124.496094 87.738281 120.992188 90.664062 C 117.488281 93.59375 114.152344 96.699219 110.980469 99.984375 C 107.8125 103.269531 104.828125 106.71875 102.03125 110.324219 C 99.234375 113.933594 96.636719 117.679688 94.246094 121.570312 C 91.851562 125.457031 89.671875 129.460938 87.710938 133.585938 L 152.730469 116.167969 C 153.472656 115.964844 154.226562 115.792969 154.984375 115.664062 C 155.746094 115.53125 156.511719 115.4375 157.28125 115.382812 C 158.050781 115.324219 158.820312 115.304688 159.59375 115.328125 C 160.363281 115.347656 161.132812 115.40625 161.898438 115.5 C 162.664062 115.597656 163.421875 115.730469 164.175781 115.902344 C 164.929688 116.070312 165.671875 116.277344 166.402344 116.523438 C 167.132812 116.765625 167.851562 117.046875 168.558594 117.363281 C 169.261719 117.675781 169.949219 118.027344 170.617188 118.410156 C 171.289062 118.792969 171.9375 119.207031 172.566406 119.65625 C 173.195312 120.101562 173.800781 120.578125 174.382812 121.085938 C 174.964844 121.59375 175.519531 122.128906 176.050781 122.6875 C 176.578125 123.25 177.078125 123.835938 177.550781 124.449219 C 178.019531 125.058594 178.460938 125.691406 178.871094 126.347656 C 179.277344 127.003906 179.652344 127.675781 179.996094 128.367188 C 180.335938 129.058594 180.644531 129.765625 180.917969 130.488281 C 181.1875 131.210938 181.425781 131.945312 181.625 132.691406 C 181.824219 133.4375 181.988281 134.1875 182.113281 134.949219 C 182.238281 135.710938 182.324219 136.476562 182.375 137.246094 C 182.425781 138.019531 182.4375 138.789062 182.410156 139.558594 C 182.382812 140.332031 182.320312 141.097656 182.214844 141.863281 C 182.113281 142.628906 181.972656 143.386719 181.796875 144.136719 C 181.621094 144.890625 181.40625 145.628906 181.15625 146.359375 C 180.90625 147.089844 180.621094 147.804688 180.296875 148.507812 C 179.976562 149.210938 179.621094 149.894531 179.234375 150.5625 C 178.84375 151.226562 178.425781 151.875 177.972656 152.5 C 177.519531 153.125 177.039062 153.726562 176.527344 154.300781 C 176.015625 154.878906 175.472656 155.429688 174.910156 155.957031 C 174.34375 156.480469 173.75 156.972656 173.136719 157.441406 C 172.519531 157.90625 171.882812 158.339844 171.226562 158.742188 C 170.566406 159.148438 169.890625 159.515625 169.195312 159.851562 C 168.503906 160.1875 167.792969 160.488281 167.066406 160.757812 C 166.34375 161.023438 165.609375 161.253906 164.859375 161.445312 L 58.089844 190.054688 C 57.351562 190.253906 56.601562 190.417969 55.84375 190.542969 C 55.085938 190.667969 54.324219 190.757812 53.558594 190.808594 C 52.789062 190.859375 52.023438 190.875 51.257812 190.851562 C 50.488281 190.824219 49.722656 190.765625 48.960938 190.664062 C 48.203125 190.566406 47.445312 190.429688 46.699219 190.253906 C 45.949219 190.082031 45.210938 189.871094 44.484375 189.625 C 43.757812 189.378906 43.042969 189.09375 42.34375 188.777344 C 41.644531 188.460938 40.964844 188.113281 40.296875 187.726562 C 39.632812 187.34375 38.988281 186.929688 38.363281 186.480469 C 37.738281 186.03125 37.140625 185.554688 36.5625 185.050781 C 35.984375 184.542969 35.433594 184.007812 34.910156 183.449219 C 34.386719 182.886719 33.890625 182.300781 33.421875 181.691406 C 32.957031 181.082031 32.519531 180.449219 32.113281 179.796875 C 31.710938 179.144531 31.339844 178.476562 31 177.785156 C 30.660156 177.097656 30.355469 176.390625 30.085938 175.671875 C 29.820312 174.953125 29.585938 174.222656 29.386719 173.480469 L 0.78125 66.714844 C 0.582031 65.972656 0.417969 65.226562 0.292969 64.46875 C 0.167969 63.710938 0.0820312 62.949219 0.03125 62.183594 C -0.0195312 61.417969 -0.03125 60.648438 -0.00390625 59.882812 C 0.0195312 59.117188 0.0820312 58.351562 0.183594 57.589844 C 0.28125 56.828125 0.421875 56.074219 0.59375 55.328125 C 0.769531 54.578125 0.980469 53.84375 1.226562 53.117188 C 1.472656 52.390625 1.753906 51.675781 2.070312 50.976562 C 2.390625 50.277344 2.738281 49.59375 3.125 48.929688 C 3.507812 48.265625 3.921875 47.621094 4.371094 46.996094 C 4.816406 46.375 5.292969 45.773438 5.800781 45.195312 C 6.304688 44.617188 6.839844 44.066406 7.398438 43.542969 C 7.960938 43.019531 8.542969 42.523438 9.152344 42.054688 C 9.761719 41.589844 10.394531 41.152344 11.046875 40.746094 C 11.695312 40.339844 12.367188 39.96875 13.054688 39.628906 C 13.742188 39.289062 14.449219 38.984375 15.164062 38.714844 C 15.882812 38.445312 16.613281 38.210938 17.355469 38.011719 C 18.097656 37.8125 18.847656 37.652344 19.605469 37.527344 C 20.363281 37.402344 21.125 37.3125 21.890625 37.261719 C 22.65625 37.214844 23.421875 37.199219 24.1875 37.226562 C 24.957031 37.25 25.71875 37.3125 26.480469 37.414062 C 27.242188 37.515625 27.996094 37.652344 28.746094 37.828125 C 29.492188 38 30.230469 38.210938 30.957031 38.457031 C 31.683594 38.703125 32.394531 38.988281 33.09375 39.304688 C 33.792969 39.621094 34.476562 39.972656 35.140625 40.355469 C 35.804688 40.738281 36.449219 41.152344 37.074219 41.601562 C 37.699219 42.046875 38.296875 42.523438 38.875 43.03125 C 39.453125 43.539062 40.003906 44.070312 40.527344 44.632812 C 41.050781 45.191406 41.546875 45.777344 42.015625 46.386719 C 42.484375 46.996094 42.917969 47.625 43.324219 48.277344 C 43.730469 48.929688 44.101562 49.597656 44.441406 50.289062 C 44.78125 50.976562 45.085938 51.679688 45.355469 52.398438 C 45.625 53.117188 45.859375 53.847656 46.058594 54.585938 L 56.480469 93.484375 C 59.359375 89.027344 62.433594 84.714844 65.707031 80.539062 C 68.980469 76.367188 72.441406 72.351562 76.085938 68.5 C 79.730469 64.644531 83.542969 60.964844 87.527344 57.460938 C 91.507812 53.960938 95.644531 50.648438 99.933594 47.523438 C 104.222656 44.402344 108.644531 41.484375 113.203125 38.769531 C 117.757812 36.058594 122.433594 33.558594 127.21875 31.273438 C 132.007812 28.992188 136.890625 26.933594 141.867188 25.097656 C 146.84375 23.265625 151.894531 21.664062 157.019531 20.296875 C 159.757812 19.5625 162.511719 18.898438 165.28125 18.296875 C 168.050781 17.699219 170.832031 17.171875 173.625 16.710938 C 176.421875 16.246094 179.226562 15.855469 182.042969 15.53125 C 184.855469 15.207031 187.675781 14.953125 190.503906 14.769531 C 193.332031 14.582031 196.160156 14.46875 198.996094 14.421875 C 201.828125 14.375 204.660156 14.398438 207.492188 14.492188 C 210.324219 14.582031 213.152344 14.746094 215.976562 14.976562 C 218.796875 15.207031 221.613281 15.507812 224.425781 15.878906 C 227.234375 16.25 230.03125 16.6875 232.820312 17.195312 C 235.605469 17.703125 238.378906 18.277344 241.140625 18.921875 C 243.898438 19.5625 246.640625 20.273438 249.363281 21.054688 C 252.089844 21.832031 254.792969 22.675781 257.476562 23.585938 C 260.15625 24.496094 262.816406 25.472656 265.453125 26.515625 C 268.085938 27.554688 270.695312 28.660156 273.273438 29.832031 C 275.855469 31 278.40625 32.230469 280.925781 33.527344 C 283.445312 34.820312 285.933594 36.175781 288.386719 37.59375 C 290.839844 39.007812 293.257812 40.484375 295.640625 42.019531 C 298.019531 43.554688 300.363281 45.148438 302.667969 46.800781 C 304.96875 48.449219 307.230469 50.15625 309.449219 51.917969 C 311.667969 53.675781 313.84375 55.492188 315.972656 57.359375 C 318.105469 59.226562 320.1875 61.148438 322.222656 63.117188 C 324.257812 65.089844 326.246094 67.105469 328.183594 69.175781 C 330.117188 71.242188 332.003906 73.355469 333.835938 75.515625 C 335.667969 77.679688 337.449219 79.882812 339.171875 82.128906 C 340.898438 84.378906 342.566406 86.667969 344.179688 88.996094 C 345.792969 91.324219 347.347656 93.691406 348.84375 96.097656 C 350.339844 98.503906 351.773438 100.945312 353.152344 103.421875 C 354.527344 105.898438 355.84375 108.40625 357.09375 110.949219 C 358.347656 113.488281 359.539062 116.058594 360.664062 118.660156 C 361.792969 121.257812 362.855469 123.882812 363.855469 126.535156 C 364.851562 129.1875 365.785156 131.863281 366.652344 134.558594 C 367.519531 137.257812 368.316406 139.972656 369.050781 142.710938 Z M 369.050781 142.710938 " clip-rule="evenodd"/></clipPath><linearGradient x1="255.99899" gradientTransform="matrix(0.732422, 0, 0, 0.732422, 0.0000045, 0)" y1="492.413581" x2="256" gradientUnits="userSpaceOnUse" y2="19.625677" id="3e2f08c4fd"><stop stop-opacity="1" stop-color="rgb(0%, 47.799683%, 71.400452%)" offset="0"/><stop stop-opacity="1" stop-color="rgb(0%, 47.903442%, 71.556091%)" offset="0.00000231262"/><stop stop-opacity="1" stop-color="rgb(0%, 48.008728%, 71.713257%)" offset="0.015625"/><stop stop-opacity="1" stop-color="rgb(0%, 48.114014%, 71.868896%)" offset="0.03125"/><stop stop-opacity="1" stop-color="rgb(0%, 48.323059%, 72.181702%)" offset="0.046875"/><stop stop-opacity="1" stop-color="rgb(0%, 48.532104%, 72.492981%)" offset="0.0625"/><stop stop-opacity="1" stop-color="rgb(0%, 48.74115%, 72.805786%)" offset="0.078125"/><stop stop-opacity="1" stop-color="rgb(0%, 48.950195%, 73.118591%)" offset="0.09375"/><stop stop-opacity="1" stop-color="rgb(0%, 49.160767%, 73.431396%)" offset="0.109375"/><stop stop-opacity="1" stop-color="rgb(0%, 49.369812%, 73.742676%)" offset="0.125"/><stop stop-opacity="1" stop-color="rgb(0%, 49.578857%, 74.055481%)" offset="0.140625"/><stop stop-opacity="1" stop-color="rgb(0%, 49.787903%, 74.368286%)" offset="0.15625"/><stop stop-opacity="1" stop-color="rgb(0%, 49.996948%, 74.681091%)" offset="0.171875"/><stop stop-opacity="1" stop-color="rgb(0%, 50.20752%, 74.992371%)" offset="0.1875"/><stop stop-opacity="1" stop-color="rgb(0%, 50.416565%, 75.305176%)" offset="0.203125"/><stop stop-opacity="1" stop-color="rgb(0%, 50.62561%, 75.617981%)" offset="0.21875"/><stop stop-opacity="1" stop-color="rgb(0%, 50.834656%, 75.930786%)" offset="0.234375"/><stop stop-opacity="1" stop-color="rgb(0%, 51.043701%, 76.242065%)" offset="0.25"/><stop stop-opacity="1" stop-color="rgb(0%, 51.252747%, 76.554871%)" offset="0.265625"/><stop stop-opacity="1" stop-color="rgb(0%, 51.463318%, 76.867676%)" offset="0.28125"/><stop stop-opacity="1" stop-color="rgb(0%, 51.672363%, 77.180481%)" offset="0.296875"/><stop stop-opacity="1" stop-color="rgb(0%, 51.881409%, 77.49176%)" offset="0.3125"/><stop stop-opacity="1" stop-color="rgb(0%, 52.090454%, 77.804565%)" offset="0.328125"/><stop stop-opacity="1" stop-color="rgb(0%, 52.2995%, 78.117371%)" offset="0.34375"/><stop stop-opacity="1" stop-color="rgb(0%, 52.510071%, 78.430176%)" offset="0.359375"/><stop stop-opacity="1" stop-color="rgb(0%, 52.719116%, 78.741455%)" offset="0.375"/><stop stop-opacity="1" stop-color="rgb(0%, 52.928162%, 79.05426%)" offset="0.390625"/><stop stop-opacity="1" stop-color="rgb(0%, 53.137207%, 79.367065%)" offset="0.40625"/><stop stop-opacity="1" stop-color="rgb(0%, 53.346252%, 79.679871%)" offset="0.421875"/><stop stop-opacity="1" stop-color="rgb(0%, 53.556824%, 79.99115%)" offset="0.4375"/><stop stop-opacity="1" stop-color="rgb(0%, 53.765869%, 80.303955%)" offset="0.453125"/><stop stop-opacity="1" stop-color="rgb(0%, 53.974915%, 80.61676%)" offset="0.46875"/><stop stop-opacity="1" stop-color="rgb(0%, 54.18396%, 80.929565%)" offset="0.484375"/><stop stop-opacity="1" stop-color="rgb(0%, 54.393005%, 81.242371%)" offset="0.5"/><stop stop-opacity="1" stop-color="rgb(0%, 54.602051%, 81.55365%)" offset="0.515625"/><stop stop-opacity="1" stop-color="rgb(0%, 54.812622%, 81.866455%)" offset="0.53125"/><stop stop-opacity="1" stop-color="rgb(0%, 55.021667%, 82.17926%)" offset="0.546875"/><stop stop-opacity="1" stop-color="rgb(0%, 55.230713%, 82.492065%)" offset="0.5625"/><stop stop-opacity="1" stop-color="rgb(0%, 55.439758%, 82.803345%)" offset="0.578125"/><stop stop-opacity="1" stop-color="rgb(0%, 55.648804%, 83.11615%)" offset="0.59375"/><stop stop-opacity="1" stop-color="rgb(0%, 55.859375%, 83.428955%)" offset="0.609375"/><stop stop-opacity="1" stop-color="rgb(0%, 56.06842%, 83.74176%)" offset="0.625"/><stop stop-opacity="1" stop-color="rgb(0%, 56.277466%, 84.05304%)" offset="0.640625"/><stop stop-opacity="1" stop-color="rgb(0%, 56.486511%, 84.365845%)" offset="0.65625"/><stop stop-opacity="1" stop-color="rgb(0%, 56.695557%, 84.67865%)" offset="0.671875"/><stop stop-opacity="1" stop-color="rgb(0%, 56.904602%, 84.991455%)" offset="0.6875"/><stop stop-opacity="1" stop-color="rgb(0%, 57.115173%, 85.302734%)" offset="0.703125"/><stop stop-opacity="1" stop-color="rgb(0%, 57.324219%, 85.61554%)" offset="0.71875"/><stop stop-opacity="1" stop-color="rgb(0%, 57.533264%, 85.928345%)" offset="0.734375"/><stop stop-opacity="1" stop-color="rgb(0%, 57.74231%, 86.24115%)" offset="0.75"/><stop stop-opacity="1" stop-color="rgb(0%, 57.951355%, 86.552429%)" offset="0.765625"/><stop stop-opacity="1" stop-color="rgb(0%, 58.161926%, 86.865234%)" offset="0.78125"/><stop stop-opacity="1" stop-color="rgb(0%, 58.370972%, 87.17804%)" offset="0.796875"/><stop stop-opacity="1" stop-color="rgb(0%, 58.580017%, 87.490845%)" offset="0.8125"/><stop stop-opacity="1" stop-color="rgb(0%, 58.789062%, 87.802124%)" offset="0.828125"/><stop stop-opacity="1" stop-color="rgb(0%, 58.998108%, 88.114929%)" offset="0.84375"/><stop stop-opacity="1" stop-color="rgb(0%, 59.208679%, 88.427734%)" offset="0.859375"/><stop stop-opacity="1" stop-color="rgb(0%, 59.417725%, 88.74054%)" offset="0.875"/><stop stop-opacity="1" stop-color="rgb(0%, 59.62677%, 89.051819%)" offset="0.890625"/><stop stop-opacity="1" stop-color="rgb(0%, 59.835815%, 89.364624%)" offset="0.90625"/><stop stop-opacity="1" stop-color="rgb(0%, 60.044861%, 89.677429%)" offset="0.921875"/><stop stop-opacity="1" stop-color="rgb(0%, 60.253906%, 89.990234%)" offset="0.9375"/><stop stop-opacity="1" stop-color="rgb(0%, 60.464478%, 90.301514%)" offset="0.953125"/><stop stop-opacity="1" stop-color="rgb(0%, 60.673523%, 90.614319%)" offset="0.96875"/><stop stop-opacity="1" stop-color="rgb(0%, 60.882568%, 90.927124%)" offset="0.984375"/><stop stop-opacity="1" stop-color="rgb(0%, 61.091614%, 91.239929%)" offset="0.999998"/><stop stop-opacity="1" stop-color="rgb(0%, 61.196899%, 91.395569%)" offset="1"/></linearGradient></defs><g clip-path="url(#d1bee4858d)"><g clip-path="url(#46904f4f3f)"><path fill="url(#3e2f08c4fd)" d="M 0 14.375 L 0 360.652344 L 374.949219 360.652344 L 374.949219 14.375 Z M 0 14.375 " fill-rule="nonzero"/></g></g></svg>