<svg xmlns="http://www.w3.org/2000/svg" xmlns:xlink="http://www.w3.org/1999/xlink" width="500" zoomAndPan="magnify" viewBox="0 0 375 374.999991" height="500" preserveAspectRatio="xMidYMid meet" version="1.0"><defs><clipPath id="4f9763ec0d"><path d="M 296.925781 115 C 297.4375 114.996094 297.941406 114.941406 298.441406 114.835938 C 298.941406 114.734375 299.425781 114.582031 299.894531 114.382812 C 300.367188 114.183594 300.8125 113.941406 301.234375 113.65625 C 301.65625 113.371094 302.046875 113.046875 302.40625 112.683594 C 302.765625 112.320312 303.085938 111.925781 303.367188 111.503906 C 303.648438 111.078125 303.886719 110.628906 304.082031 110.15625 C 304.273438 109.683594 304.421875 109.199219 304.519531 108.699219 C 304.621094 108.199219 304.667969 107.691406 304.667969 107.183594 C 304.667969 106.671875 304.621094 106.167969 304.519531 105.667969 C 304.421875 105.167969 304.273438 104.679688 304.082031 104.210938 C 303.886719 103.738281 303.648438 103.289062 303.367188 102.863281 C 303.085938 102.4375 302.765625 102.042969 302.40625 101.683594 C 302.046875 101.320312 301.65625 100.996094 301.234375 100.710938 C 300.8125 100.421875 300.367188 100.179688 299.894531 99.984375 C 299.425781 99.785156 298.941406 99.632812 298.441406 99.527344 C 297.941406 99.425781 297.4375 99.371094 296.925781 99.367188 L 296.855469 99.367188 C 296.34375 99.371094 295.839844 99.429688 295.339844 99.535156 C 294.839844 99.640625 294.355469 99.792969 293.886719 99.992188 C 293.417969 100.195312 292.972656 100.4375 292.550781 100.726562 C 292.128906 101.015625 291.738281 101.339844 291.378906 101.703125 C 291.023438 102.070312 290.703125 102.464844 290.421875 102.890625 C 290.144531 103.316406 289.90625 103.765625 289.714844 104.242188 C 289.523438 104.714844 289.378906 105.199219 289.28125 105.703125 C 289.183594 106.203125 289.136719 106.707031 289.140625 107.21875 C 289.144531 107.730469 289.195312 108.234375 289.296875 108.734375 C 289.398438 109.234375 289.546875 109.722656 289.742188 110.191406 C 289.941406 110.664062 290.179688 111.109375 290.464844 111.535156 C 290.75 111.960938 291.070312 112.351562 291.433594 112.710938 C 291.792969 113.074219 292.1875 113.394531 292.609375 113.679688 C 293.035156 113.964844 293.480469 114.203125 293.953125 114.398438 C 294.425781 114.597656 294.910156 114.746094 295.410156 114.84375 C 295.910156 114.945312 296.417969 114.996094 296.925781 115 Z M 342.855469 65.917969 C 343.222656 66.28125 343.546875 66.675781 343.835938 67.101562 C 344.125 67.527344 344.367188 67.980469 344.566406 68.453125 C 344.761719 68.929688 344.914062 69.417969 345.015625 69.921875 C 345.117188 70.425781 345.167969 70.933594 345.167969 71.449219 C 345.171875 71.964844 345.121094 72.472656 345.019531 72.980469 C 344.921875 73.484375 344.773438 73.972656 344.578125 74.449219 C 344.378906 74.925781 344.140625 75.375 343.851562 75.804688 C 343.566406 76.230469 343.242188 76.628906 342.878906 76.992188 C 342.515625 77.355469 342.117188 77.679688 341.691406 77.964844 C 341.261719 78.25 340.8125 78.492188 340.335938 78.6875 C 339.859375 78.882812 339.371094 79.03125 338.863281 79.128906 C 338.359375 79.226562 337.851562 79.277344 337.335938 79.277344 C 336.820312 79.273438 336.3125 79.222656 335.808594 79.121094 C 335.304688 79.019531 334.8125 78.867188 334.339844 78.667969 C 333.867188 78.46875 333.414062 78.226562 332.988281 77.9375 C 332.5625 77.652344 332.167969 77.324219 331.804688 76.957031 C 330.660156 75.816406 329.464844 74.734375 328.214844 73.710938 C 326.960938 72.683594 325.664062 71.722656 324.320312 70.828125 C 322.976562 69.929688 321.589844 69.101562 320.164062 68.339844 C 318.738281 67.578125 317.277344 66.890625 315.785156 66.273438 C 314.289062 65.65625 312.769531 65.113281 311.222656 64.644531 C 309.675781 64.175781 308.109375 63.78125 306.523438 63.46875 C 304.9375 63.152344 303.339844 62.917969 301.730469 62.757812 C 300.121094 62.601562 298.511719 62.519531 296.894531 62.519531 C 295.277344 62.519531 293.664062 62.601562 292.054688 62.757812 C 290.445312 62.917969 288.847656 63.152344 287.265625 63.46875 C 285.679688 63.78125 284.113281 64.175781 282.566406 64.644531 C 281.019531 65.113281 279.496094 65.65625 278.003906 66.273438 C 276.507812 66.890625 275.050781 67.578125 273.625 68.339844 C 272.195312 69.101562 270.8125 69.929688 269.464844 70.828125 C 268.121094 71.722656 266.824219 72.683594 265.574219 73.710938 C 264.324219 74.734375 263.125 75.816406 261.980469 76.957031 C 261.617188 77.320312 261.222656 77.644531 260.796875 77.929688 C 260.371094 78.214844 259.921875 78.453125 259.449219 78.648438 C 258.972656 78.84375 258.484375 78.992188 257.984375 79.09375 C 257.480469 79.191406 256.972656 79.242188 256.460938 79.242188 C 255.949219 79.242188 255.441406 79.191406 254.9375 79.09375 C 254.433594 78.992188 253.945312 78.84375 253.472656 78.648438 C 253 78.453125 252.550781 78.210938 252.125 77.929688 C 251.699219 77.644531 251.304688 77.320312 250.941406 76.957031 C 250.578125 76.59375 250.253906 76.203125 249.96875 75.777344 C 249.683594 75.351562 249.445312 74.898438 249.246094 74.425781 C 249.050781 73.953125 248.902344 73.464844 248.800781 72.964844 C 248.699219 72.460938 248.652344 71.953125 248.648438 71.441406 C 248.648438 70.929688 248.699219 70.421875 248.796875 69.917969 C 248.898438 69.414062 249.042969 68.925781 249.238281 68.453125 C 249.433594 67.980469 249.675781 67.527344 249.960938 67.101562 C 250.242188 66.675781 250.566406 66.28125 250.925781 65.917969 C 251.679688 65.167969 252.453125 64.433594 253.242188 63.722656 C 254.027344 63.007812 254.835938 62.316406 255.65625 61.640625 C 256.480469 60.96875 257.320312 60.3125 258.175781 59.679688 C 259.027344 59.050781 259.898438 58.4375 260.785156 57.847656 C 261.667969 57.257812 262.566406 56.691406 263.480469 56.144531 C 264.390625 55.597656 265.316406 55.074219 266.257812 54.574219 C 267.195312 54.074219 268.144531 53.597656 269.105469 53.140625 C 270.066406 52.6875 271.039062 52.257812 272.023438 51.851562 C 273.003906 51.445312 273.996094 51.0625 275 50.707031 C 276 50.347656 277.011719 50.015625 278.027344 49.707031 C 279.046875 49.398438 280.070312 49.117188 281.101562 48.859375 C 282.132812 48.597656 283.171875 48.367188 284.214844 48.160156 C 285.257812 47.953125 286.304688 47.769531 287.355469 47.617188 C 288.410156 47.460938 289.464844 47.328125 290.523438 47.226562 C 291.582031 47.121094 292.640625 47.042969 293.703125 46.992188 C 294.765625 46.9375 295.828125 46.914062 296.890625 46.914062 C 297.953125 46.914062 299.015625 46.9375 300.078125 46.992188 C 301.140625 47.042969 302.203125 47.121094 303.261719 47.226562 C 304.320312 47.328125 305.375 47.460938 306.425781 47.617188 C 307.476562 47.769531 308.523438 47.953125 309.570312 48.160156 C 310.613281 48.367188 311.648438 48.597656 312.679688 48.859375 C 313.710938 49.117188 314.738281 49.398438 315.753906 49.707031 C 316.773438 50.015625 317.78125 50.347656 318.785156 50.707031 C 319.785156 51.0625 320.777344 51.445312 321.761719 51.851562 C 322.742188 52.257812 323.714844 52.6875 324.675781 53.140625 C 325.636719 53.597656 326.589844 54.074219 327.527344 54.574219 C 328.464844 55.074219 329.390625 55.597656 330.304688 56.144531 C 331.214844 56.691406 332.113281 57.257812 333 57.847656 C 333.882812 58.4375 334.753906 59.050781 335.609375 59.679688 C 336.464844 60.3125 337.300781 60.96875 338.125 61.640625 C 338.949219 62.316406 339.753906 63.007812 340.542969 63.722656 C 341.332031 64.433594 342.101562 65.167969 342.855469 65.917969 Z M 372.679688 31.394531 C 371.441406 30.15625 370.171875 28.945312 368.871094 27.769531 C 367.570312 26.589844 366.242188 25.445312 364.886719 24.332031 C 363.53125 23.21875 362.148438 22.140625 360.738281 21.09375 C 359.332031 20.050781 357.898438 19.039062 356.4375 18.066406 C 354.980469 17.089844 353.5 16.152344 351.992188 15.25 C 350.488281 14.347656 348.964844 13.484375 347.417969 12.65625 C 345.871094 11.832031 344.304688 11.042969 342.71875 10.292969 C 341.132812 9.542969 339.527344 8.832031 337.90625 8.160156 C 336.289062 7.488281 334.652344 6.859375 333 6.265625 C 331.347656 5.675781 329.683594 5.125 328.003906 4.617188 C 326.324219 4.109375 324.636719 3.640625 322.933594 3.214844 C 321.234375 2.789062 319.523438 2.402344 317.800781 2.0625 C 316.082031 1.71875 314.351562 1.417969 312.617188 1.160156 C 310.882812 0.90625 309.140625 0.691406 307.398438 0.519531 C 305.652344 0.347656 303.902344 0.214844 302.148438 0.128906 C 300.398438 0.0429688 298.644531 0 296.890625 0 C 295.136719 0 293.382812 0.0429688 291.632812 0.128906 C 289.878906 0.214844 288.128906 0.347656 286.386719 0.519531 C 284.640625 0.691406 282.898438 0.90625 281.164062 1.160156 C 279.429688 1.417969 277.699219 1.71875 275.980469 2.0625 C 274.261719 2.402344 272.550781 2.789062 270.847656 3.214844 C 269.144531 3.640625 267.457031 4.109375 265.777344 4.617188 C 264.097656 5.125 262.433594 5.675781 260.78125 6.265625 C 259.128906 6.859375 257.496094 7.488281 255.875 8.160156 C 254.253906 8.832031 252.648438 9.542969 251.0625 10.292969 C 249.480469 11.042969 247.914062 11.832031 246.363281 12.65625 C 244.816406 13.484375 243.292969 14.347656 241.789062 15.25 C 240.285156 16.152344 238.800781 17.089844 237.34375 18.066406 C 235.886719 19.039062 234.449219 20.050781 233.042969 21.09375 C 231.632812 22.140625 230.25 23.21875 228.894531 24.332031 C 227.539062 25.445312 226.210938 26.589844 224.910156 27.769531 C 223.613281 28.945312 222.339844 30.15625 221.101562 31.394531 C 220.746094 31.757812 220.425781 32.15625 220.148438 32.582031 C 219.867188 33.007812 219.632812 33.457031 219.441406 33.929688 C 219.25 34.402344 219.105469 34.886719 219.011719 35.386719 C 218.914062 35.886719 218.867188 36.394531 218.871094 36.902344 C 218.875 37.414062 218.925781 37.917969 219.027344 38.417969 C 219.128906 38.914062 219.277344 39.402344 219.472656 39.871094 C 219.667969 40.339844 219.910156 40.789062 220.195312 41.210938 C 220.476562 41.636719 220.800781 42.027344 221.160156 42.386719 C 221.519531 42.746094 221.910156 43.070312 222.335938 43.351562 C 222.757812 43.636719 223.207031 43.875 223.675781 44.074219 C 224.144531 44.269531 224.632812 44.417969 225.128906 44.519531 C 225.628906 44.621094 226.132812 44.671875 226.644531 44.675781 C 227.152344 44.675781 227.660156 44.632812 228.160156 44.535156 C 228.660156 44.4375 229.144531 44.292969 229.617188 44.101562 C 230.089844 43.914062 230.539062 43.675781 230.964844 43.398438 C 231.390625 43.117188 231.789062 42.800781 232.152344 42.445312 C 233.210938 41.386719 234.296875 40.351562 235.40625 39.347656 C 236.519531 38.34375 237.652344 37.367188 238.8125 36.414062 C 239.972656 35.464844 241.152344 34.546875 242.355469 33.652344 C 243.558594 32.761719 244.785156 31.902344 246.03125 31.070312 C 247.277344 30.238281 248.542969 29.4375 249.828125 28.667969 C 251.113281 27.898438 252.417969 27.160156 253.738281 26.453125 C 255.0625 25.75 256.398438 25.074219 257.753906 24.4375 C 259.109375 23.796875 260.480469 23.191406 261.863281 22.617188 C 263.246094 22.042969 264.644531 21.503906 266.054688 21 C 267.464844 20.496094 268.890625 20.027344 270.324219 19.59375 C 271.757812 19.160156 273.199219 18.761719 274.652344 18.394531 C 276.105469 18.03125 277.566406 17.703125 279.039062 17.414062 C 280.507812 17.121094 281.984375 16.863281 283.464844 16.644531 C 284.945312 16.425781 286.433594 16.242188 287.925781 16.097656 C 289.414062 15.949219 290.910156 15.839844 292.40625 15.765625 C 293.902344 15.691406 295.398438 15.65625 296.898438 15.65625 C 298.394531 15.65625 299.894531 15.691406 301.390625 15.765625 C 302.886719 15.839844 304.378906 15.949219 305.871094 16.097656 C 307.363281 16.242188 308.847656 16.425781 310.328125 16.644531 C 311.8125 16.863281 313.289062 17.121094 314.757812 17.414062 C 316.226562 17.703125 317.6875 18.03125 319.140625 18.394531 C 320.59375 18.761719 322.039062 19.160156 323.472656 19.59375 C 324.90625 20.027344 326.328125 20.496094 327.738281 21 C 329.148438 21.503906 330.546875 22.042969 331.933594 22.617188 C 333.316406 23.191406 334.6875 23.796875 336.039062 24.4375 C 337.394531 25.074219 338.734375 25.75 340.054688 26.453125 C 341.375 27.160156 342.679688 27.898438 343.964844 28.667969 C 345.25 29.4375 346.515625 30.238281 347.761719 31.070312 C 349.007812 31.902344 350.234375 32.761719 351.4375 33.652344 C 352.640625 34.546875 353.824219 35.464844 354.984375 36.414062 C 356.140625 37.367188 357.277344 38.34375 358.386719 39.347656 C 359.496094 40.351562 360.582031 41.386719 361.644531 42.445312 C 362.007812 42.800781 362.402344 43.117188 362.828125 43.398438 C 363.253906 43.679688 363.703125 43.914062 364.175781 44.105469 C 364.648438 44.296875 365.136719 44.441406 365.636719 44.535156 C 366.136719 44.632812 366.640625 44.679688 367.152344 44.675781 C 367.660156 44.675781 368.167969 44.621094 368.667969 44.519531 C 369.164062 44.417969 369.652344 44.269531 370.121094 44.074219 C 370.589844 43.878906 371.039062 43.636719 371.460938 43.355469 C 371.886719 43.070312 372.277344 42.746094 372.636719 42.386719 C 372.996094 42.027344 373.320312 41.632812 373.601562 41.210938 C 373.886719 40.785156 374.125 40.339844 374.320312 39.867188 C 374.519531 39.398438 374.667969 38.914062 374.765625 38.414062 C 374.867188 37.914062 374.917969 37.410156 374.921875 36.898438 C 374.925781 36.390625 374.875 35.882812 374.78125 35.382812 C 374.683594 34.882812 374.539062 34.398438 374.347656 33.925781 C 374.15625 33.453125 373.917969 33.003906 373.640625 32.578125 C 373.359375 32.152344 373.039062 31.757812 372.683594 31.394531 Z M 84.222656 15.625 L 84.222656 25.03125 C 84.21875 25.480469 84.257812 25.929688 84.34375 26.371094 C 84.425781 26.816406 84.554688 27.246094 84.722656 27.664062 C 84.894531 28.082031 85.101562 28.480469 85.351562 28.859375 C 85.597656 29.234375 85.882812 29.582031 86.199219 29.90625 C 86.515625 30.226562 86.863281 30.511719 87.238281 30.765625 C 87.609375 31.015625 88.007812 31.230469 88.421875 31.402344 C 88.839844 31.578125 89.269531 31.707031 89.710938 31.796875 C 90.152344 31.886719 90.601562 31.929688 91.050781 31.929688 C 91.503906 31.929688 91.949219 31.886719 92.394531 31.796875 C 92.835938 31.707031 93.265625 31.578125 93.679688 31.402344 C 94.097656 31.230469 94.492188 31.015625 94.867188 30.765625 C 95.242188 30.511719 95.589844 30.226562 95.90625 29.90625 C 96.222656 29.582031 96.503906 29.234375 96.753906 28.859375 C 97.003906 28.480469 97.210938 28.082031 97.378906 27.664062 C 97.550781 27.246094 97.675781 26.816406 97.761719 26.371094 C 97.84375 25.929688 97.886719 25.480469 97.878906 25.03125 L 97.878906 15.625 Z M -0.0273438 35.15625 C -0.0273438 34.515625 0.00390625 33.878906 0.0703125 33.242188 C 0.132812 32.605469 0.226562 31.972656 0.351562 31.347656 C 0.476562 30.71875 0.628906 30.101562 0.816406 29.488281 C 1.003906 28.875 1.21875 28.273438 1.460938 27.683594 C 1.707031 27.09375 1.980469 26.515625 2.28125 25.953125 C 2.582031 25.386719 2.910156 24.839844 3.265625 24.308594 C 3.621094 23.777344 4.003906 23.261719 4.410156 22.769531 C 4.8125 22.273438 5.242188 21.800781 5.695312 21.347656 C 6.148438 20.898438 6.621094 20.46875 7.113281 20.0625 C 7.609375 19.65625 8.121094 19.277344 8.652344 18.921875 C 9.183594 18.566406 9.734375 18.234375 10.296875 17.933594 C 10.859375 17.632812 11.4375 17.359375 12.027344 17.113281 C 12.621094 16.871094 13.222656 16.652344 13.832031 16.46875 C 14.445312 16.28125 15.0625 16.125 15.691406 16 C 16.320312 15.875 16.949219 15.78125 17.585938 15.71875 C 18.222656 15.65625 18.859375 15.625 19.5 15.625 L 68.597656 15.625 L 68.597656 25.03125 C 68.601562 25.761719 68.640625 26.496094 68.714844 27.222656 C 68.792969 27.953125 68.902344 28.675781 69.050781 29.394531 C 69.195312 30.113281 69.378906 30.820312 69.59375 31.523438 C 69.808594 32.222656 70.058594 32.910156 70.34375 33.585938 C 70.625 34.261719 70.941406 34.921875 71.289062 35.566406 C 71.636719 36.210938 72.015625 36.839844 72.425781 37.445312 C 72.835938 38.054688 73.273438 38.640625 73.738281 39.207031 C 74.207031 39.769531 74.699219 40.3125 75.21875 40.828125 C 75.738281 41.34375 76.28125 41.835938 76.851562 42.300781 C 77.417969 42.761719 78.007812 43.195312 78.617188 43.601562 C 79.226562 44.007812 79.855469 44.382812 80.503906 44.726562 C 81.148438 45.074219 81.8125 45.382812 82.488281 45.664062 C 83.167969 45.945312 83.855469 46.1875 84.558594 46.402344 C 85.261719 46.613281 85.96875 46.789062 86.6875 46.933594 C 87.40625 47.074219 88.132812 47.183594 88.863281 47.253906 C 89.589844 47.324219 90.320312 47.363281 91.054688 47.363281 C 91.789062 47.363281 92.519531 47.324219 93.25 47.253906 C 93.976562 47.183594 94.703125 47.074219 95.421875 46.933594 C 96.140625 46.789062 96.851562 46.613281 97.550781 46.402344 C 98.253906 46.1875 98.941406 45.945312 99.621094 45.664062 C 100.296875 45.382812 100.960938 45.074219 101.605469 44.726562 C 102.253906 44.382812 102.882812 44.007812 103.492188 43.601562 C 104.101562 43.195312 104.691406 42.761719 105.261719 42.300781 C 105.828125 41.835938 106.371094 41.34375 106.890625 40.828125 C 107.410156 40.3125 107.902344 39.769531 108.371094 39.207031 C 108.835938 38.640625 109.277344 38.054688 109.683594 37.445312 C 110.09375 36.839844 110.472656 36.210938 110.820312 35.566406 C 111.167969 34.921875 111.484375 34.261719 111.769531 33.585938 C 112.050781 32.910156 112.300781 32.222656 112.515625 31.523438 C 112.734375 30.820312 112.914062 30.113281 113.0625 29.394531 C 113.207031 28.675781 113.320312 27.953125 113.394531 27.222656 C 113.46875 26.496094 113.511719 25.761719 113.515625 25.03125 L 113.515625 15.625 L 162.609375 15.625 C 163.25 15.625 163.886719 15.65625 164.523438 15.71875 C 165.160156 15.785156 165.789062 15.878906 166.417969 16.003906 C 167.042969 16.128906 167.664062 16.285156 168.277344 16.472656 C 168.886719 16.65625 169.488281 16.871094 170.078125 17.117188 C 170.667969 17.363281 171.246094 17.636719 171.808594 17.9375 C 172.375 18.238281 172.921875 18.570312 173.453125 18.925781 C 173.984375 19.28125 174.496094 19.660156 174.992188 20.066406 C 175.484375 20.472656 175.957031 20.902344 176.410156 21.351562 C 176.863281 21.804688 177.292969 22.277344 177.699219 22.773438 C 178.101562 23.265625 178.484375 23.78125 178.839844 24.3125 C 179.195312 24.84375 179.523438 25.390625 179.824219 25.953125 C 180.125 26.519531 180.398438 27.09375 180.644531 27.6875 C 180.890625 28.277344 181.105469 28.878906 181.289062 29.488281 C 181.476562 30.101562 181.632812 30.722656 181.757812 31.347656 C 181.882812 31.976562 181.976562 32.605469 182.039062 33.242188 C 182.105469 33.878906 182.136719 34.515625 182.136719 35.15625 L 182.136719 355.472656 C 182.136719 356.109375 182.105469 356.75 182.039062 357.382812 C 181.976562 358.019531 181.882812 358.652344 181.757812 359.28125 C 181.632812 359.90625 181.476562 360.527344 181.289062 361.136719 C 181.105469 361.75 180.890625 362.351562 180.644531 362.941406 C 180.398438 363.53125 180.125 364.109375 179.824219 364.671875 C 179.523438 365.234375 179.195312 365.785156 178.839844 366.316406 C 178.484375 366.847656 178.101562 367.359375 177.695312 367.855469 C 177.292969 368.347656 176.863281 368.820312 176.410156 369.273438 C 175.957031 369.726562 175.484375 370.152344 174.992188 370.558594 C 174.496094 370.964844 173.984375 371.347656 173.453125 371.703125 C 172.921875 372.058594 172.375 372.386719 171.808594 372.6875 C 171.246094 372.988281 170.667969 373.261719 170.078125 373.507812 C 169.488281 373.753906 168.886719 373.96875 168.273438 374.152344 C 167.664062 374.339844 167.042969 374.496094 166.417969 374.621094 C 165.789062 374.746094 165.160156 374.839844 164.523438 374.902344 C 163.886719 374.96875 163.25 375 162.609375 375 L 19.5 375 C 18.859375 375 18.222656 374.96875 17.585938 374.90625 C 16.949219 374.839844 16.320312 374.746094 15.691406 374.621094 C 15.066406 374.496094 14.445312 374.34375 13.832031 374.15625 C 13.222656 373.96875 12.621094 373.753906 12.03125 373.507812 C 11.4375 373.265625 10.863281 372.992188 10.296875 372.691406 C 9.734375 372.386719 9.1875 372.058594 8.65625 371.703125 C 8.125 371.347656 7.609375 370.96875 7.117188 370.5625 C 6.621094 370.15625 6.148438 369.726562 5.695312 369.277344 C 5.246094 368.824219 4.816406 368.351562 4.410156 367.855469 C 4.003906 367.363281 3.625 366.847656 3.269531 366.316406 C 2.914062 365.785156 2.585938 365.238281 2.28125 364.675781 C 1.980469 364.109375 1.707031 363.53125 1.464844 362.941406 C 1.21875 362.351562 1.003906 361.75 0.816406 361.136719 C 0.632812 360.527344 0.476562 359.90625 0.351562 359.28125 C 0.226562 358.652344 0.132812 358.019531 0.0703125 357.386719 C 0.00390625 356.75 -0.0273438 356.109375 -0.0273438 355.472656 Z M 27.128906 69.867188 C 27.128906 70.378906 27.179688 70.890625 27.277344 71.394531 C 27.375 71.898438 27.523438 72.386719 27.71875 72.863281 C 27.917969 73.339844 28.15625 73.789062 28.441406 74.21875 C 28.726562 74.644531 29.050781 75.042969 29.414062 75.40625 C 29.777344 75.769531 30.171875 76.09375 30.597656 76.382812 C 31.023438 76.667969 31.472656 76.910156 31.949219 77.109375 C 32.421875 77.304688 32.914062 77.453125 33.417969 77.554688 C 33.921875 77.65625 34.429688 77.707031 34.945312 77.710938 C 35.457031 77.710938 35.96875 77.660156 36.472656 77.5625 C 36.976562 77.464844 37.464844 77.316406 37.941406 77.121094 C 38.414062 76.925781 38.867188 76.683594 39.296875 76.398438 C 39.722656 76.117188 40.121094 75.792969 40.484375 75.429688 C 40.847656 75.066406 41.175781 74.671875 41.460938 74.246094 C 41.746094 73.820312 41.988281 73.367188 42.1875 72.894531 C 42.386719 72.417969 42.535156 71.929688 42.636719 71.425781 C 42.738281 70.921875 42.789062 70.414062 42.789062 69.898438 C 42.792969 69.386719 42.742188 68.875 42.644531 68.371094 C 42.542969 67.867188 42.398438 67.378906 42.203125 66.902344 C 42.007812 66.425781 41.765625 65.976562 41.480469 65.546875 C 41.199219 65.117188 40.875 64.722656 40.511719 64.359375 C 40.148438 63.992188 39.753906 63.667969 39.328125 63.382812 C 38.902344 63.09375 38.449219 62.851562 37.976562 62.652344 C 37.503906 62.457031 37.011719 62.304688 36.507812 62.203125 C 36.003906 62.101562 35.496094 62.050781 34.984375 62.050781 L 34.90625 62.050781 C 34.390625 62.050781 33.886719 62.101562 33.382812 62.203125 C 32.882812 62.300781 32.394531 62.449219 31.921875 62.648438 C 31.449219 62.84375 31 63.085938 30.574219 63.371094 C 30.148438 63.65625 29.757812 63.980469 29.394531 64.34375 C 29.035156 64.707031 28.710938 65.101562 28.429688 65.527344 C 28.144531 65.957031 27.90625 66.40625 27.710938 66.878906 C 27.519531 67.355469 27.371094 67.839844 27.273438 68.34375 C 27.175781 68.847656 27.128906 69.355469 27.128906 69.867188 Z M 64.535156 69.867188 C 64.535156 70.378906 64.582031 70.890625 64.683594 71.394531 C 64.78125 71.898438 64.929688 72.386719 65.125 72.863281 C 65.320312 73.339844 65.5625 73.789062 65.847656 74.21875 C 66.132812 74.644531 66.457031 75.042969 66.816406 75.40625 C 67.179688 75.769531 67.574219 76.09375 68.003906 76.382812 C 68.429688 76.667969 68.878906 76.910156 69.355469 77.109375 C 69.828125 77.304688 70.316406 77.453125 70.820312 77.554688 C 71.324219 77.65625 71.835938 77.707031 72.347656 77.710938 C 72.863281 77.710938 73.371094 77.660156 73.875 77.5625 C 74.378906 77.464844 74.871094 77.316406 75.347656 77.121094 C 75.820312 76.925781 76.273438 76.683594 76.699219 76.398438 C 77.128906 76.117188 77.523438 75.792969 77.890625 75.429688 C 78.253906 75.066406 78.578125 74.671875 78.867188 74.246094 C 79.152344 73.820312 79.394531 73.367188 79.59375 72.894531 C 79.789062 72.417969 79.941406 71.929688 80.042969 71.425781 C 80.144531 70.921875 80.195312 70.414062 80.195312 69.898438 C 80.195312 69.386719 80.148438 68.875 80.050781 68.371094 C 79.949219 67.867188 79.804688 67.378906 79.609375 66.902344 C 79.414062 66.425781 79.171875 65.976562 78.886719 65.546875 C 78.605469 65.117188 78.28125 64.722656 77.917969 64.359375 C 77.554688 63.992188 77.160156 63.667969 76.734375 63.382812 C 76.308594 63.09375 75.855469 62.851562 75.382812 62.652344 C 74.910156 62.457031 74.417969 62.304688 73.914062 62.203125 C 73.410156 62.101562 72.902344 62.050781 72.390625 62.050781 L 72.304688 62.050781 C 71.792969 62.050781 71.285156 62.101562 70.785156 62.203125 C 70.28125 62.304688 69.796875 62.453125 69.324219 62.648438 C 68.851562 62.847656 68.402344 63.089844 67.976562 63.375 C 67.550781 63.660156 67.160156 63.984375 66.800781 64.347656 C 66.4375 64.710938 66.117188 65.105469 65.832031 65.53125 C 65.550781 65.957031 65.3125 66.40625 65.117188 66.882812 C 64.921875 67.355469 64.777344 67.84375 64.679688 68.34375 C 64.582031 68.847656 64.53125 69.355469 64.535156 69.867188 Z M 101.941406 69.867188 C 101.941406 70.378906 101.988281 70.890625 102.089844 71.394531 C 102.1875 71.898438 102.335938 72.390625 102.53125 72.867188 C 102.726562 73.339844 102.96875 73.792969 103.25 74.222656 C 103.535156 74.648438 103.859375 75.046875 104.222656 75.410156 C 104.585938 75.773438 104.980469 76.101562 105.410156 76.386719 C 105.835938 76.671875 106.285156 76.914062 106.761719 77.113281 C 107.234375 77.3125 107.726562 77.460938 108.230469 77.5625 C 108.734375 77.664062 109.242188 77.714844 109.757812 77.714844 C 110.273438 77.71875 110.78125 77.667969 111.285156 77.570312 C 111.789062 77.46875 112.28125 77.320312 112.757812 77.125 C 113.230469 76.929688 113.683594 76.691406 114.113281 76.40625 C 114.539062 76.121094 114.9375 75.796875 115.300781 75.433594 C 115.664062 75.070312 115.992188 74.675781 116.277344 74.246094 C 116.566406 73.820312 116.808594 73.371094 117.003906 72.894531 C 117.203125 72.421875 117.351562 71.929688 117.453125 71.425781 C 117.554688 70.921875 117.605469 70.414062 117.605469 69.898438 C 117.609375 69.382812 117.558594 68.875 117.460938 68.371094 C 117.359375 67.867188 117.214844 67.375 117.015625 66.898438 C 116.820312 66.425781 116.582031 65.972656 116.296875 65.542969 C 116.011719 65.117188 115.6875 64.71875 115.324219 64.355469 C 114.960938 63.992188 114.566406 63.664062 114.140625 63.378906 C 113.710938 63.089844 113.261719 62.847656 112.785156 62.652344 C 112.3125 62.453125 111.820312 62.304688 111.316406 62.203125 C 110.8125 62.101562 110.304688 62.050781 109.789062 62.050781 L 109.726562 62.050781 C 109.214844 62.050781 108.707031 62.101562 108.203125 62.199219 C 107.703125 62.300781 107.214844 62.449219 106.742188 62.644531 C 106.265625 62.84375 105.816406 63.082031 105.390625 63.367188 C 104.964844 63.652344 104.574219 63.976562 104.210938 64.339844 C 103.847656 64.703125 103.527344 65.097656 103.242188 65.527344 C 102.960938 65.953125 102.71875 66.402344 102.527344 66.878906 C 102.332031 67.351562 102.183594 67.839844 102.085938 68.34375 C 101.988281 68.847656 101.941406 69.355469 101.941406 69.867188 Z M 139.351562 69.867188 C 139.351562 70.378906 139.398438 70.890625 139.5 71.394531 C 139.597656 71.898438 139.746094 72.390625 139.941406 72.863281 C 140.136719 73.339844 140.378906 73.792969 140.664062 74.21875 C 140.945312 74.648438 141.269531 75.046875 141.632812 75.410156 C 141.996094 75.773438 142.390625 76.097656 142.820312 76.386719 C 143.246094 76.671875 143.695312 76.914062 144.171875 77.113281 C 144.644531 77.3125 145.136719 77.460938 145.640625 77.5625 C 146.144531 77.664062 146.652344 77.714844 147.167969 77.714844 C 147.679688 77.71875 148.191406 77.667969 148.695312 77.570312 C 149.199219 77.46875 149.691406 77.320312 150.164062 77.125 C 150.640625 76.929688 151.09375 76.691406 151.519531 76.40625 C 151.949219 76.121094 152.347656 75.796875 152.710938 75.433594 C 153.074219 75.070312 153.402344 74.675781 153.6875 74.25 C 153.972656 73.824219 154.214844 73.371094 154.414062 72.898438 C 154.613281 72.421875 154.761719 71.933594 154.863281 71.429688 C 154.964844 70.925781 155.015625 70.414062 155.019531 69.902344 C 155.019531 69.386719 154.96875 68.878906 154.871094 68.375 C 154.773438 67.867188 154.625 67.378906 154.429688 66.902344 C 154.234375 66.425781 153.992188 65.976562 153.707031 65.546875 C 153.425781 65.117188 153.101562 64.722656 152.738281 64.359375 C 152.375 63.992188 151.980469 63.667969 151.554688 63.378906 C 151.125 63.09375 150.675781 62.851562 150.199219 62.652344 C 149.726562 62.457031 149.238281 62.304688 148.734375 62.203125 C 148.230469 62.101562 147.71875 62.050781 147.207031 62.050781 L 147.121094 62.050781 C 146.609375 62.050781 146.101562 62.101562 145.601562 62.203125 C 145.097656 62.304688 144.613281 62.453125 144.140625 62.648438 C 143.667969 62.847656 143.21875 63.089844 142.792969 63.375 C 142.371094 63.660156 141.976562 63.984375 141.617188 64.347656 C 141.253906 64.710938 140.933594 65.105469 140.648438 65.53125 C 140.367188 65.957031 140.128906 66.40625 139.933594 66.882812 C 139.738281 67.355469 139.59375 67.84375 139.496094 68.34375 C 139.398438 68.847656 139.347656 69.355469 139.351562 69.867188 Z M 27.128906 122.832031 C 27.128906 123.347656 27.179688 123.855469 27.277344 124.359375 C 27.375 124.863281 27.523438 125.355469 27.71875 125.828125 C 27.917969 126.304688 28.15625 126.757812 28.441406 127.183594 C 28.726562 127.613281 29.050781 128.007812 29.414062 128.371094 C 29.777344 128.738281 30.171875 129.0625 30.597656 129.347656 C 31.023438 129.636719 31.472656 129.875 31.949219 130.074219 C 32.421875 130.273438 32.914062 130.421875 33.417969 130.523438 C 33.921875 130.625 34.429688 130.675781 34.945312 130.675781 C 35.457031 130.675781 35.96875 130.628906 36.472656 130.527344 C 36.976562 130.429688 37.464844 130.28125 37.941406 130.085938 C 38.414062 129.890625 38.867188 129.652344 39.296875 129.367188 C 39.722656 129.082031 40.121094 128.757812 40.484375 128.394531 C 40.847656 128.03125 41.175781 127.636719 41.460938 127.210938 C 41.746094 126.785156 41.988281 126.335938 42.1875 125.859375 C 42.386719 125.386719 42.535156 124.894531 42.636719 124.390625 C 42.738281 123.886719 42.789062 123.378906 42.789062 122.867188 C 42.792969 122.351562 42.742188 121.84375 42.644531 121.339844 C 42.542969 120.832031 42.398438 120.34375 42.203125 119.867188 C 42.007812 119.394531 41.765625 118.941406 41.480469 118.511719 C 41.199219 118.085938 40.875 117.6875 40.511719 117.324219 C 40.148438 116.960938 39.753906 116.632812 39.328125 116.347656 C 38.902344 116.0625 38.449219 115.816406 37.976562 115.621094 C 37.503906 115.421875 37.011719 115.273438 36.507812 115.171875 C 36.003906 115.070312 35.496094 115.015625 34.984375 115.015625 L 34.90625 115.015625 C 34.390625 115.015625 33.886719 115.066406 33.382812 115.167969 C 32.882812 115.269531 32.394531 115.417969 31.921875 115.617188 C 31.449219 115.8125 31 116.054688 30.574219 116.339844 C 30.148438 116.625 29.757812 116.949219 29.394531 117.3125 C 29.035156 117.675781 28.710938 118.070312 28.429688 118.496094 C 28.144531 118.921875 27.90625 119.375 27.714844 119.847656 C 27.519531 120.320312 27.371094 120.808594 27.273438 121.3125 C 27.175781 121.8125 27.128906 122.320312 27.128906 122.832031 Z M 64.535156 122.832031 C 64.535156 123.347656 64.582031 123.855469 64.683594 124.359375 C 64.78125 124.863281 64.929688 125.355469 65.125 125.828125 C 65.320312 126.304688 65.5625 126.757812 65.847656 127.183594 C 66.132812 127.613281 66.457031 128.007812 66.816406 128.371094 C 67.179688 128.738281 67.574219 129.0625 68.003906 129.347656 C 68.429688 129.632812 68.878906 129.875 69.355469 130.074219 C 69.828125 130.273438 70.316406 130.421875 70.820312 130.523438 C 71.324219 130.625 71.835938 130.675781 72.347656 130.675781 C 72.863281 130.675781 73.371094 130.628906 73.875 130.53125 C 74.378906 130.429688 74.871094 130.28125 75.347656 130.085938 C 75.820312 129.890625 76.273438 129.652344 76.699219 129.367188 C 77.128906 129.082031 77.523438 128.757812 77.890625 128.394531 C 78.253906 128.035156 78.578125 127.640625 78.867188 127.210938 C 79.152344 126.785156 79.394531 126.335938 79.59375 125.859375 C 79.789062 125.386719 79.941406 124.898438 80.042969 124.394531 C 80.144531 123.890625 80.195312 123.378906 80.195312 122.867188 C 80.195312 122.351562 80.148438 121.84375 80.050781 121.339844 C 79.949219 120.835938 79.804688 120.34375 79.609375 119.867188 C 79.414062 119.394531 79.171875 118.941406 78.886719 118.511719 C 78.605469 118.085938 78.28125 117.6875 77.917969 117.324219 C 77.554688 116.960938 77.160156 116.632812 76.734375 116.347656 C 76.308594 116.0625 75.855469 115.820312 75.382812 115.621094 C 74.910156 115.421875 74.417969 115.273438 73.914062 115.171875 C 73.410156 115.070312 72.902344 115.015625 72.390625 115.015625 L 72.304688 115.015625 C 71.792969 115.015625 71.285156 115.070312 70.785156 115.167969 C 70.28125 115.269531 69.796875 115.421875 69.324219 115.617188 C 68.851562 115.816406 68.402344 116.054688 67.976562 116.339844 C 67.554688 116.628906 67.160156 116.953125 66.800781 117.316406 C 66.4375 117.675781 66.117188 118.070312 65.835938 118.5 C 65.550781 118.925781 65.3125 119.375 65.117188 119.847656 C 64.925781 120.320312 64.777344 120.808594 64.679688 121.3125 C 64.582031 121.8125 64.535156 122.320312 64.535156 122.832031 Z M 101.941406 122.832031 C 101.941406 123.347656 101.988281 123.855469 102.089844 124.363281 C 102.1875 124.867188 102.335938 125.355469 102.53125 125.832031 C 102.726562 126.308594 102.96875 126.757812 103.25 127.1875 C 103.535156 127.617188 103.859375 128.011719 104.222656 128.375 C 104.585938 128.742188 104.980469 129.066406 105.410156 129.351562 C 105.835938 129.640625 106.285156 129.882812 106.761719 130.078125 C 107.234375 130.277344 107.726562 130.425781 108.230469 130.527344 C 108.734375 130.628906 109.242188 130.679688 109.757812 130.683594 C 110.273438 130.683594 110.78125 130.632812 111.285156 130.535156 C 111.789062 130.4375 112.28125 130.289062 112.757812 130.09375 C 113.230469 129.894531 113.683594 129.65625 114.113281 129.371094 C 114.539062 129.085938 114.9375 128.761719 115.300781 128.398438 C 115.664062 128.035156 115.992188 127.640625 116.277344 127.214844 C 116.566406 126.789062 116.808594 126.335938 117.003906 125.863281 C 117.203125 125.386719 117.351562 124.898438 117.453125 124.394531 C 117.554688 123.890625 117.605469 123.378906 117.605469 122.863281 C 117.609375 122.351562 117.558594 121.839844 117.460938 121.335938 C 117.359375 120.832031 117.214844 120.34375 117.015625 119.867188 C 116.820312 119.390625 116.582031 118.9375 116.296875 118.511719 C 116.011719 118.082031 115.6875 117.6875 115.324219 117.320312 C 114.960938 116.957031 114.566406 116.632812 114.140625 116.34375 C 113.710938 116.058594 113.261719 115.816406 112.785156 115.617188 C 112.3125 115.421875 111.820312 115.269531 111.316406 115.167969 C 110.8125 115.066406 110.304688 115.015625 109.789062 115.015625 L 109.726562 115.015625 C 109.214844 115.015625 108.707031 115.066406 108.203125 115.167969 C 107.703125 115.265625 107.214844 115.417969 106.742188 115.613281 C 106.269531 115.808594 105.820312 116.050781 105.394531 116.335938 C 104.96875 116.621094 104.574219 116.945312 104.210938 117.308594 C 103.851562 117.671875 103.527344 118.066406 103.246094 118.492188 C 102.960938 118.921875 102.722656 119.371094 102.527344 119.84375 C 102.332031 120.320312 102.183594 120.808594 102.085938 121.308594 C 101.988281 121.8125 101.941406 122.320312 101.941406 122.832031 Z M 139.351562 122.832031 C 139.351562 123.347656 139.398438 123.855469 139.5 124.359375 C 139.597656 124.867188 139.746094 125.355469 139.941406 125.832031 C 140.136719 126.308594 140.378906 126.757812 140.664062 127.1875 C 140.945312 127.617188 141.269531 128.011719 141.632812 128.375 C 141.996094 128.742188 142.390625 129.066406 142.820312 129.351562 C 143.246094 129.640625 143.695312 129.882812 144.171875 130.078125 C 144.644531 130.277344 145.136719 130.425781 145.640625 130.527344 C 146.144531 130.628906 146.652344 130.679688 147.167969 130.683594 C 147.679688 130.683594 148.191406 130.632812 148.695312 130.535156 C 149.199219 130.4375 149.691406 130.289062 150.164062 130.09375 C 150.640625 129.898438 151.09375 129.65625 151.519531 129.371094 C 151.949219 129.085938 152.347656 128.765625 152.710938 128.402344 C 153.074219 128.039062 153.402344 127.644531 153.6875 127.214844 C 153.972656 126.789062 154.214844 126.339844 154.414062 125.863281 C 154.613281 125.390625 154.761719 124.898438 154.863281 124.394531 C 154.964844 123.890625 155.015625 123.382812 155.019531 122.867188 C 155.019531 122.355469 154.96875 121.84375 154.871094 121.339844 C 154.773438 120.835938 154.625 120.34375 154.429688 119.871094 C 154.234375 119.394531 153.992188 118.941406 153.707031 118.511719 C 153.425781 118.085938 153.101562 117.6875 152.738281 117.324219 C 152.375 116.960938 151.980469 116.632812 151.554688 116.347656 C 151.125 116.058594 150.675781 115.816406 150.199219 115.621094 C 149.726562 115.421875 149.238281 115.273438 148.734375 115.171875 C 148.230469 115.070312 147.71875 115.015625 147.207031 115.015625 L 147.121094 115.015625 C 146.609375 115.015625 146.101562 115.066406 145.601562 115.167969 C 145.097656 115.269531 144.613281 115.417969 144.140625 115.617188 C 143.667969 115.8125 143.21875 116.054688 142.792969 116.339844 C 142.371094 116.625 141.976562 116.949219 141.617188 117.3125 C 141.253906 117.675781 140.933594 118.070312 140.648438 118.496094 C 140.367188 118.925781 140.128906 119.375 139.933594 119.847656 C 139.738281 120.320312 139.59375 120.808594 139.496094 121.3125 C 139.398438 121.8125 139.347656 122.320312 139.351562 122.832031 Z M 27.128906 175.804688 C 27.128906 176.320312 27.179688 176.828125 27.277344 177.332031 C 27.375 177.835938 27.523438 178.328125 27.71875 178.800781 C 27.917969 179.277344 28.15625 179.726562 28.441406 180.15625 C 28.726562 180.585938 29.050781 180.980469 29.414062 181.34375 C 29.777344 181.707031 30.171875 182.035156 30.597656 182.320312 C 31.023438 182.605469 31.472656 182.847656 31.949219 183.046875 C 32.421875 183.242188 32.914062 183.394531 33.417969 183.496094 C 33.921875 183.597656 34.429688 183.648438 34.945312 183.648438 C 35.457031 183.648438 35.96875 183.601562 36.472656 183.5 C 36.976562 183.402344 37.464844 183.253906 37.941406 183.058594 C 38.414062 182.863281 38.867188 182.621094 39.296875 182.339844 C 39.722656 182.054688 40.121094 181.730469 40.484375 181.367188 C 40.847656 181.003906 41.175781 180.609375 41.460938 180.183594 C 41.746094 179.757812 41.988281 179.304688 42.1875 178.832031 C 42.386719 178.355469 42.535156 177.867188 42.636719 177.363281 C 42.738281 176.859375 42.789062 176.351562 42.789062 175.835938 C 42.792969 175.324219 42.742188 174.8125 42.644531 174.308594 C 42.542969 173.804688 42.398438 173.316406 42.203125 172.839844 C 42.007812 172.363281 41.765625 171.914062 41.480469 171.484375 C 41.199219 171.058594 40.875 170.660156 40.511719 170.296875 C 40.148438 169.929688 39.753906 169.605469 39.328125 169.320312 C 38.902344 169.03125 38.449219 168.789062 37.976562 168.59375 C 37.503906 168.394531 37.011719 168.242188 36.507812 168.140625 C 36.003906 168.039062 35.496094 167.988281 34.984375 167.988281 L 34.90625 167.988281 C 34.390625 167.988281 33.886719 168.039062 33.382812 168.140625 C 32.882812 168.242188 32.394531 168.390625 31.921875 168.585938 C 31.449219 168.78125 31 169.023438 30.574219 169.308594 C 30.148438 169.59375 29.757812 169.917969 29.394531 170.28125 C 29.035156 170.644531 28.710938 171.039062 28.429688 171.46875 C 28.144531 171.894531 27.90625 172.34375 27.710938 172.816406 C 27.519531 173.292969 27.371094 173.78125 27.273438 174.28125 C 27.175781 174.785156 27.128906 175.292969 27.128906 175.804688 Z M 64.535156 175.804688 C 64.535156 176.320312 64.582031 176.828125 64.683594 177.332031 C 64.78125 177.835938 64.929688 178.328125 65.125 178.800781 C 65.320312 179.277344 65.5625 179.726562 65.847656 180.15625 C 66.132812 180.585938 66.457031 180.980469 66.816406 181.34375 C 67.179688 181.707031 67.574219 182.035156 68.003906 182.320312 C 68.429688 182.605469 68.878906 182.847656 69.355469 183.046875 C 69.828125 183.242188 70.316406 183.394531 70.820312 183.496094 C 71.324219 183.597656 71.835938 183.648438 72.347656 183.648438 C 72.863281 183.648438 73.371094 183.601562 73.875 183.5 C 74.378906 183.402344 74.871094 183.253906 75.347656 183.058594 C 75.820312 182.863281 76.273438 182.621094 76.699219 182.339844 C 77.128906 182.054688 77.523438 181.730469 77.890625 181.367188 C 78.253906 181.003906 78.578125 180.609375 78.867188 180.183594 C 79.152344 179.757812 79.394531 179.304688 79.59375 178.832031 C 79.789062 178.359375 79.941406 177.867188 80.042969 177.363281 C 80.144531 176.859375 80.195312 176.351562 80.195312 175.835938 C 80.195312 175.324219 80.148438 174.816406 80.050781 174.308594 C 79.949219 173.804688 79.804688 173.316406 79.609375 172.839844 C 79.414062 172.363281 79.171875 171.914062 78.886719 171.484375 C 78.605469 171.058594 78.28125 170.660156 77.917969 170.296875 C 77.554688 169.933594 77.160156 169.605469 76.734375 169.320312 C 76.308594 169.03125 75.855469 168.789062 75.382812 168.59375 C 74.910156 168.394531 74.417969 168.246094 73.914062 168.140625 C 73.410156 168.039062 72.902344 167.988281 72.390625 167.988281 L 72.304688 167.988281 C 71.792969 167.988281 71.285156 168.039062 70.785156 168.140625 C 70.28125 168.242188 69.796875 168.390625 69.324219 168.589844 C 68.851562 168.785156 68.402344 169.027344 67.976562 169.3125 C 67.554688 169.597656 67.160156 169.921875 66.800781 170.285156 C 66.4375 170.648438 66.117188 171.042969 65.832031 171.46875 C 65.550781 171.894531 65.3125 172.347656 65.117188 172.820312 C 64.921875 173.292969 64.777344 173.78125 64.679688 174.285156 C 64.582031 174.785156 64.535156 175.292969 64.535156 175.804688 Z M 101.941406 175.804688 C 101.941406 176.320312 101.988281 176.828125 102.089844 177.332031 C 102.1875 177.835938 102.335938 178.328125 102.53125 178.804688 C 102.726562 179.277344 102.96875 179.730469 103.25 180.160156 C 103.535156 180.585938 103.859375 180.984375 104.222656 181.347656 C 104.585938 181.710938 104.980469 182.039062 105.410156 182.324219 C 105.835938 182.613281 106.285156 182.855469 106.761719 183.050781 C 107.234375 183.25 107.726562 183.398438 108.230469 183.5 C 108.734375 183.601562 109.242188 183.652344 109.757812 183.652344 C 110.273438 183.65625 110.78125 183.605469 111.285156 183.507812 C 111.789062 183.40625 112.28125 183.257812 112.757812 183.0625 C 113.230469 182.867188 113.683594 182.628906 114.113281 182.34375 C 114.539062 182.058594 114.9375 181.734375 115.300781 181.371094 C 115.664062 181.007812 115.992188 180.613281 116.277344 180.1875 C 116.566406 179.757812 116.808594 179.308594 117.003906 178.832031 C 117.203125 178.359375 117.351562 177.867188 117.453125 177.363281 C 117.554688 176.859375 117.605469 176.351562 117.605469 175.835938 C 117.609375 175.324219 117.558594 174.8125 117.460938 174.308594 C 117.359375 173.804688 117.214844 173.3125 117.015625 172.839844 C 116.820312 172.363281 116.582031 171.910156 116.296875 171.480469 C 116.011719 171.054688 115.6875 170.65625 115.324219 170.292969 C 114.960938 169.929688 114.566406 169.601562 114.140625 169.316406 C 113.710938 169.03125 113.261719 168.789062 112.785156 168.589844 C 112.3125 168.390625 111.820312 168.242188 111.316406 168.140625 C 110.8125 168.039062 110.304688 167.988281 109.789062 167.988281 L 109.726562 167.988281 C 109.214844 167.988281 108.707031 168.039062 108.203125 168.136719 C 107.703125 168.238281 107.214844 168.386719 106.742188 168.582031 C 106.265625 168.78125 105.816406 169.019531 105.390625 169.308594 C 104.964844 169.59375 104.574219 169.917969 104.210938 170.28125 C 103.847656 170.644531 103.527344 171.039062 103.242188 171.464844 C 102.960938 171.890625 102.71875 172.34375 102.527344 172.816406 C 102.332031 173.289062 102.183594 173.777344 102.085938 174.28125 C 101.988281 174.785156 101.941406 175.292969 101.941406 175.804688 Z M 139.351562 175.804688 C 139.351562 176.320312 139.398438 176.828125 139.5 177.332031 C 139.597656 177.835938 139.746094 178.328125 139.941406 178.804688 C 140.136719 179.277344 140.378906 179.730469 140.664062 180.160156 C 140.945312 180.585938 141.269531 180.984375 141.632812 181.347656 C 141.996094 181.710938 142.390625 182.039062 142.820312 182.324219 C 143.246094 182.609375 143.695312 182.851562 144.171875 183.050781 C 144.644531 183.25 145.136719 183.398438 145.640625 183.5 C 146.144531 183.601562 146.652344 183.652344 147.167969 183.652344 C 147.679688 183.65625 148.191406 183.605469 148.695312 183.507812 C 149.199219 183.40625 149.691406 183.261719 150.164062 183.066406 C 150.640625 182.867188 151.09375 182.628906 151.519531 182.34375 C 151.949219 182.058594 152.347656 181.734375 152.710938 181.371094 C 153.074219 181.011719 153.402344 180.613281 153.6875 180.1875 C 153.972656 179.761719 154.214844 179.308594 154.414062 178.835938 C 154.613281 178.359375 154.761719 177.871094 154.863281 177.367188 C 154.964844 176.863281 155.015625 176.355469 155.019531 175.839844 C 155.019531 175.324219 154.96875 174.816406 154.871094 174.3125 C 154.773438 173.808594 154.625 173.316406 154.429688 172.839844 C 154.234375 172.367188 153.992188 171.914062 153.707031 171.484375 C 153.425781 171.058594 153.101562 170.660156 152.738281 170.296875 C 152.375 169.929688 151.980469 169.605469 151.554688 169.320312 C 151.125 169.03125 150.675781 168.789062 150.199219 168.589844 C 149.726562 168.394531 149.238281 168.242188 148.734375 168.140625 C 148.230469 168.039062 147.71875 167.988281 147.207031 167.988281 L 147.121094 167.988281 C 146.609375 167.988281 146.101562 168.039062 145.601562 168.140625 C 145.097656 168.242188 144.613281 168.390625 144.140625 168.589844 C 143.667969 168.785156 143.21875 169.027344 142.792969 169.3125 C 142.371094 169.597656 141.976562 169.921875 141.617188 170.285156 C 141.253906 170.648438 140.933594 171.042969 140.648438 171.46875 C 140.367188 171.894531 140.128906 172.347656 139.933594 172.820312 C 139.738281 173.292969 139.59375 173.78125 139.496094 174.285156 C 139.398438 174.785156 139.347656 175.292969 139.351562 175.804688 Z M 27.128906 228.769531 C 27.128906 229.285156 27.179688 229.792969 27.277344 230.296875 C 27.375 230.804688 27.523438 231.292969 27.71875 231.769531 C 27.917969 232.242188 28.15625 232.695312 28.441406 233.121094 C 28.726562 233.550781 29.050781 233.945312 29.414062 234.3125 C 29.777344 234.675781 30.171875 235 30.597656 235.285156 C 31.023438 235.574219 31.472656 235.816406 31.949219 236.011719 C 32.421875 236.210938 32.914062 236.359375 33.417969 236.460938 C 33.921875 236.5625 34.429688 236.613281 34.945312 236.613281 C 35.457031 236.617188 35.96875 236.566406 36.472656 236.46875 C 36.976562 236.367188 37.464844 236.222656 37.941406 236.023438 C 38.414062 235.828125 38.867188 235.589844 39.296875 235.304688 C 39.722656 235.019531 40.121094 234.695312 40.484375 234.332031 C 40.847656 233.972656 41.175781 233.578125 41.460938 233.148438 C 41.746094 232.722656 41.988281 232.273438 42.1875 231.796875 C 42.386719 231.324219 42.535156 230.835938 42.636719 230.332031 C 42.738281 229.828125 42.789062 229.316406 42.789062 228.804688 C 42.792969 228.289062 42.742188 227.78125 42.644531 227.277344 C 42.542969 226.773438 42.398438 226.28125 42.203125 225.804688 C 42.007812 225.332031 41.765625 224.878906 41.480469 224.453125 C 41.199219 224.023438 40.875 223.625 40.511719 223.261719 C 40.148438 222.898438 39.753906 222.574219 39.328125 222.285156 C 38.902344 222 38.449219 221.757812 37.976562 221.558594 C 37.503906 221.359375 37.011719 221.210938 36.507812 221.109375 C 36.003906 221.007812 35.496094 220.957031 34.984375 220.953125 L 34.90625 220.953125 C 34.390625 220.953125 33.886719 221.003906 33.382812 221.105469 C 32.882812 221.207031 32.394531 221.355469 31.921875 221.550781 C 31.449219 221.75 31 221.992188 30.574219 222.277344 C 30.148438 222.5625 29.757812 222.886719 29.394531 223.25 C 29.035156 223.613281 28.710938 224.007812 28.429688 224.433594 C 28.144531 224.859375 27.90625 225.3125 27.710938 225.785156 C 27.519531 226.257812 27.371094 226.746094 27.273438 227.25 C 27.175781 227.75 27.128906 228.257812 27.128906 228.769531 Z M 64.535156 228.769531 C 64.535156 229.285156 64.582031 229.792969 64.683594 230.296875 C 64.78125 230.804688 64.929688 231.292969 65.125 231.769531 C 65.320312 232.242188 65.5625 232.695312 65.847656 233.121094 C 66.132812 233.550781 66.457031 233.945312 66.816406 234.3125 C 67.179688 234.675781 67.574219 235 68.003906 235.285156 C 68.429688 235.574219 68.878906 235.816406 69.355469 236.011719 C 69.828125 236.210938 70.316406 236.359375 70.820312 236.460938 C 71.324219 236.5625 71.835938 236.613281 72.347656 236.613281 C 72.863281 236.617188 73.371094 236.566406 73.875 236.46875 C 74.378906 236.367188 74.871094 236.222656 75.347656 236.023438 C 75.820312 235.828125 76.273438 235.589844 76.699219 235.304688 C 77.128906 235.019531 77.523438 234.695312 77.890625 234.335938 C 78.253906 233.972656 78.578125 233.578125 78.867188 233.148438 C 79.152344 232.722656 79.394531 232.273438 79.59375 231.796875 C 79.789062 231.324219 79.941406 230.835938 80.042969 230.332031 C 80.144531 229.828125 80.195312 229.320312 80.195312 228.804688 C 80.195312 228.289062 80.148438 227.78125 80.050781 227.277344 C 79.949219 226.773438 79.804688 226.28125 79.609375 225.808594 C 79.414062 225.332031 79.171875 224.878906 78.886719 224.453125 C 78.605469 224.023438 78.28125 223.628906 77.917969 223.261719 C 77.554688 222.898438 77.160156 222.574219 76.734375 222.285156 C 76.308594 222 75.855469 221.757812 75.382812 221.558594 C 74.910156 221.359375 74.417969 221.210938 73.914062 221.109375 C 73.410156 221.007812 72.902344 220.957031 72.390625 220.953125 L 72.304688 220.953125 C 71.792969 220.957031 71.285156 221.007812 70.785156 221.109375 C 70.28125 221.207031 69.796875 221.359375 69.324219 221.554688 C 68.851562 221.75 68.402344 221.992188 67.976562 222.277344 C 67.550781 222.5625 67.160156 222.890625 66.800781 223.25 C 66.4375 223.613281 66.117188 224.007812 65.832031 224.4375 C 65.550781 224.863281 65.3125 225.3125 65.117188 225.785156 C 64.921875 226.257812 64.777344 226.746094 64.679688 227.25 C 64.582031 227.753906 64.53125 228.257812 64.535156 228.769531 Z M 101.941406 228.769531 C 101.941406 229.285156 101.988281 229.796875 102.089844 230.300781 C 102.1875 230.804688 102.335938 231.292969 102.53125 231.769531 C 102.726562 232.246094 102.96875 232.699219 103.25 233.125 C 103.535156 233.554688 103.859375 233.949219 104.222656 234.316406 C 104.585938 234.679688 104.980469 235.003906 105.410156 235.292969 C 105.835938 235.578125 106.285156 235.820312 106.761719 236.019531 C 107.234375 236.214844 107.726562 236.367188 108.230469 236.46875 C 108.734375 236.566406 109.242188 236.621094 109.757812 236.621094 C 110.273438 236.621094 110.78125 236.574219 111.285156 236.472656 C 111.789062 236.375 112.28125 236.226562 112.757812 236.03125 C 113.230469 235.835938 113.683594 235.59375 114.113281 235.308594 C 114.539062 235.023438 114.9375 234.699219 115.300781 234.335938 C 115.664062 233.976562 115.992188 233.578125 116.277344 233.152344 C 116.566406 232.726562 116.808594 232.273438 117.003906 231.800781 C 117.203125 231.324219 117.351562 230.835938 117.453125 230.332031 C 117.554688 229.828125 117.605469 229.316406 117.605469 228.804688 C 117.609375 228.289062 117.558594 227.78125 117.460938 227.273438 C 117.359375 226.769531 117.214844 226.28125 117.015625 225.804688 C 116.820312 225.328125 116.582031 224.878906 116.296875 224.449219 C 116.011719 224.019531 115.6875 223.625 115.324219 223.261719 C 114.960938 222.894531 114.566406 222.570312 114.140625 222.28125 C 113.710938 221.996094 113.261719 221.753906 112.785156 221.554688 C 112.3125 221.359375 111.820312 221.210938 111.316406 221.109375 C 110.8125 221.007812 110.304688 220.957031 109.789062 220.953125 L 109.726562 220.953125 C 109.214844 220.953125 108.707031 221.003906 108.203125 221.105469 C 107.703125 221.207031 107.214844 221.355469 106.742188 221.550781 C 106.265625 221.746094 105.816406 221.988281 105.390625 222.273438 C 104.964844 222.558594 104.574219 222.882812 104.210938 223.246094 C 103.847656 223.609375 103.527344 224.003906 103.242188 224.429688 C 102.960938 224.859375 102.71875 225.308594 102.527344 225.78125 C 102.332031 226.257812 102.183594 226.746094 102.085938 227.246094 C 101.988281 227.75 101.941406 228.257812 101.941406 228.769531 Z M 139.351562 228.769531 C 139.351562 229.285156 139.398438 229.792969 139.5 230.300781 C 139.597656 230.804688 139.746094 231.292969 139.941406 231.769531 C 140.136719 232.246094 140.378906 232.695312 140.664062 233.125 C 140.945312 233.554688 141.269531 233.949219 141.632812 234.3125 C 141.996094 234.679688 142.390625 235.003906 142.820312 235.289062 C 143.246094 235.578125 143.695312 235.820312 144.171875 236.019531 C 144.644531 236.214844 145.136719 236.363281 145.640625 236.464844 C 146.144531 236.566406 146.652344 236.621094 147.167969 236.621094 C 147.679688 236.621094 148.191406 236.574219 148.695312 236.472656 C 149.199219 236.375 149.691406 236.226562 150.164062 236.03125 C 150.640625 235.835938 151.09375 235.59375 151.519531 235.308594 C 151.949219 235.027344 152.347656 234.703125 152.710938 234.339844 C 153.074219 233.976562 153.402344 233.582031 153.6875 233.15625 C 153.972656 232.726562 154.214844 232.277344 154.414062 231.800781 C 154.613281 231.328125 154.761719 230.839844 154.863281 230.332031 C 154.964844 229.828125 155.015625 229.320312 155.019531 228.804688 C 155.019531 228.292969 154.96875 227.78125 154.871094 227.277344 C 154.773438 226.773438 154.625 226.285156 154.429688 225.808594 C 154.234375 225.332031 153.992188 224.878906 153.707031 224.453125 C 153.425781 224.023438 153.101562 223.625 152.738281 223.261719 C 152.375 222.898438 151.980469 222.570312 151.554688 222.285156 C 151.125 222 150.675781 221.757812 150.199219 221.558594 C 149.726562 221.359375 149.238281 221.210938 148.734375 221.109375 C 148.230469 221.007812 147.71875 220.957031 147.207031 220.953125 L 147.121094 220.953125 C 146.609375 220.957031 146.101562 221.007812 145.601562 221.105469 C 145.097656 221.207031 144.613281 221.359375 144.140625 221.554688 C 143.667969 221.75 143.21875 221.992188 142.792969 222.277344 C 142.371094 222.5625 141.976562 222.886719 141.617188 223.25 C 141.253906 223.613281 140.933594 224.007812 140.648438 224.4375 C 140.367188 224.863281 140.128906 225.3125 139.933594 225.785156 C 139.738281 226.257812 139.59375 226.746094 139.496094 227.25 C 139.398438 227.753906 139.347656 228.257812 139.351562 228.769531 Z M 81.84375 349.898438 C 82.042969 349.425781 82.195312 348.941406 82.300781 348.4375 C 82.40625 347.9375 82.460938 347.429688 82.46875 346.917969 C 82.472656 346.40625 82.429688 345.898438 82.335938 345.394531 C 82.238281 344.890625 82.097656 344.398438 81.90625 343.921875 C 81.71875 343.449219 81.484375 342.996094 81.203125 342.566406 C 80.925781 342.132812 80.605469 341.734375 80.25 341.367188 C 79.890625 341 79.503906 340.671875 79.082031 340.378906 C 78.660156 340.089844 78.210938 339.839844 77.742188 339.636719 C 75.757812 338.78125 73.871094 337.742188 72.082031 336.53125 C 70.292969 335.316406 68.632812 333.941406 67.101562 332.414062 C 65.574219 330.886719 64.199219 329.226562 62.984375 327.441406 C 61.769531 325.652344 60.730469 323.765625 59.871094 321.78125 C 59.675781 321.300781 59.433594 320.84375 59.148438 320.410156 C 58.863281 319.980469 58.535156 319.578125 58.167969 319.210938 C 57.804688 318.84375 57.40625 318.519531 56.972656 318.230469 C 56.542969 317.941406 56.085938 317.699219 55.605469 317.503906 C 55.128906 317.304688 54.632812 317.15625 54.125 317.058594 C 53.617188 316.960938 53.101562 316.914062 52.582031 316.917969 C 52.066406 316.921875 51.550781 316.976562 51.042969 317.082031 C 50.535156 317.1875 50.042969 317.339844 49.566406 317.546875 C 49.089844 317.75 48.640625 318 48.210938 318.292969 C 47.785156 318.585938 47.390625 318.917969 47.03125 319.292969 C 46.667969 319.664062 46.347656 320.070312 46.070312 320.503906 C 45.789062 320.941406 45.554688 321.402344 45.367188 321.882812 C 45.175781 322.367188 45.039062 322.863281 44.949219 323.375 C 44.859375 323.886719 44.820312 324.402344 44.832031 324.917969 C 44.847656 325.4375 44.910156 325.949219 45.023438 326.453125 C 45.140625 326.960938 45.304688 327.449219 45.515625 327.921875 C 46.75 330.832031 48.253906 333.59375 50.023438 336.210938 C 51.789062 338.832031 53.789062 341.257812 56.023438 343.492188 C 58.257812 345.726562 60.683594 347.726562 63.304688 349.496094 C 65.921875 351.261719 68.6875 352.765625 71.59375 354 C 72.570312 354.425781 73.589844 354.636719 74.65625 354.640625 C 75.421875 354.640625 76.167969 354.53125 76.902344 354.308594 C 77.636719 354.089844 78.324219 353.769531 78.964844 353.347656 C 79.601562 352.925781 80.167969 352.421875 80.660156 351.835938 C 81.152344 351.25 81.546875 350.601562 81.847656 349.898438 Z M 136.589844 327.925781 C 136.789062 327.453125 136.945312 326.96875 137.050781 326.464844 C 137.15625 325.964844 137.214844 325.457031 137.21875 324.945312 C 137.226562 324.429688 137.179688 323.921875 137.085938 323.417969 C 136.992188 322.914062 136.851562 322.421875 136.660156 321.945312 C 136.46875 321.46875 136.234375 321.015625 135.953125 320.585938 C 135.671875 320.15625 135.355469 319.757812 134.996094 319.390625 C 134.636719 319.023438 134.246094 318.695312 133.824219 318.40625 C 133.398438 318.117188 132.953125 317.871094 132.480469 317.667969 C 132.007812 317.46875 131.523438 317.3125 131.019531 317.207031 C 130.519531 317.101562 130.011719 317.046875 129.496094 317.039062 C 128.984375 317.035156 128.476562 317.078125 127.972656 317.175781 C 127.46875 317.269531 126.976562 317.410156 126.5 317.601562 C 126.023438 317.792969 125.570312 318.027344 125.140625 318.308594 C 124.710938 318.589844 124.3125 318.910156 123.949219 319.269531 C 123.582031 319.625 123.253906 320.019531 122.964844 320.441406 C 122.671875 320.863281 122.429688 321.3125 122.226562 321.785156 C 121.371094 323.769531 120.335938 325.65625 119.121094 327.445312 C 117.90625 329.234375 116.535156 330.890625 115.007812 332.417969 C 113.480469 333.949219 111.820312 335.320312 110.03125 336.535156 C 108.246094 337.75 106.359375 338.785156 104.375 339.640625 C 103.964844 339.816406 103.570312 340.027344 103.195312 340.269531 C 102.820312 340.511719 102.46875 340.785156 102.140625 341.089844 C 101.8125 341.394531 101.511719 341.722656 101.242188 342.078125 C 100.96875 342.433594 100.730469 342.808594 100.523438 343.203125 C 100.316406 343.597656 100.144531 344.011719 100.007812 344.433594 C 99.871094 344.859375 99.769531 345.292969 99.707031 345.738281 C 99.644531 346.179688 99.621094 346.625 99.636719 347.070312 C 99.648438 347.515625 99.703125 347.960938 99.792969 348.398438 C 99.882812 348.835938 100.007812 349.261719 100.171875 349.679688 C 100.332031 350.09375 100.53125 350.492188 100.761719 350.875 C 100.992188 351.257812 101.253906 351.617188 101.550781 351.953125 C 101.84375 352.292969 102.160156 352.601562 102.507812 352.882812 C 102.855469 353.167969 103.222656 353.417969 103.613281 353.636719 C 104 353.855469 104.40625 354.039062 104.828125 354.191406 C 105.25 354.339844 105.679688 354.453125 106.117188 354.53125 C 106.558594 354.605469 107.003906 354.644531 107.449219 354.644531 C 108.515625 354.640625 109.539062 354.429688 110.515625 354.003906 C 113.425781 352.769531 116.1875 351.265625 118.804688 349.5 C 121.425781 347.730469 123.851562 345.730469 126.085938 343.496094 C 128.320312 341.261719 130.320312 338.835938 132.085938 336.21875 C 133.855469 333.597656 135.355469 330.835938 136.589844 327.925781 Z M 45.511719 289 C 45.308594 289.472656 45.15625 289.957031 45.054688 290.460938 C 44.949219 290.960938 44.894531 291.46875 44.890625 291.980469 C 44.882812 292.492188 44.929688 293 45.023438 293.503906 C 45.117188 294.007812 45.261719 294.5 45.453125 294.972656 C 45.644531 295.449219 45.878906 295.902344 46.15625 296.332031 C 46.4375 296.761719 46.753906 297.160156 47.113281 297.523438 C 47.472656 297.890625 47.863281 298.21875 48.285156 298.511719 C 48.707031 298.800781 49.152344 299.046875 49.625 299.25 C 50.09375 299.453125 50.582031 299.605469 51.082031 299.710938 C 51.582031 299.816406 52.089844 299.871094 52.601562 299.878906 C 53.113281 299.882812 53.625 299.839844 54.125 299.746094 C 54.628906 299.648438 55.121094 299.507812 55.597656 299.316406 C 56.070312 299.125 56.523438 298.890625 56.953125 298.613281 C 57.382812 298.332031 57.78125 298.011719 58.148438 297.65625 C 58.511719 297.296875 58.839844 296.90625 59.132812 296.484375 C 59.421875 296.058594 59.667969 295.613281 59.867188 295.140625 C 60.726562 293.15625 61.761719 291.269531 62.976562 289.480469 C 64.191406 287.691406 65.5625 286.03125 67.09375 284.5 C 68.625 282.972656 70.285156 281.601562 72.074219 280.386719 C 73.863281 279.171875 75.753906 278.136719 77.738281 277.28125 C 78.207031 277.074219 78.648438 276.828125 79.070312 276.535156 C 79.488281 276.242188 79.875 275.914062 80.230469 275.546875 C 80.582031 275.179688 80.898438 274.78125 81.175781 274.351562 C 81.453125 273.921875 81.683594 273.472656 81.871094 272.996094 C 82.058594 272.523438 82.199219 272.035156 82.292969 271.53125 C 82.382812 271.03125 82.425781 270.523438 82.417969 270.011719 C 82.410156 269.503906 82.355469 268.996094 82.25 268.5 C 82.144531 268 81.988281 267.515625 81.789062 267.046875 C 81.585938 266.578125 81.34375 266.132812 81.054688 265.710938 C 80.765625 265.289062 80.441406 264.898438 80.074219 264.542969 C 79.710938 264.183594 79.316406 263.867188 78.886719 263.585938 C 78.460938 263.308594 78.011719 263.070312 77.539062 262.878906 C 77.066406 262.6875 76.578125 262.546875 76.078125 262.449219 C 75.574219 262.351562 75.070312 262.304688 74.558594 262.308594 C 74.046875 262.3125 73.542969 262.367188 73.042969 262.46875 C 72.542969 262.570312 72.058594 262.71875 71.585938 262.917969 C 68.679688 264.152344 65.914062 265.65625 63.296875 267.425781 C 60.679688 269.191406 58.25 271.195312 56.015625 273.429688 C 53.785156 275.664062 51.78125 278.089844 50.015625 280.710938 C 48.246094 283.328125 46.746094 286.09375 45.507812 289 Z M 100.261719 267.035156 C 100.0625 267.507812 99.910156 267.992188 99.804688 268.496094 C 99.703125 268.996094 99.648438 269.503906 99.644531 270.015625 C 99.640625 270.527344 99.683594 271.035156 99.78125 271.535156 C 99.875 272.039062 100.015625 272.527344 100.207031 273.003906 C 100.398438 273.480469 100.632812 273.929688 100.914062 274.359375 C 101.191406 274.789062 101.511719 275.1875 101.867188 275.554688 C 102.226562 275.921875 102.613281 276.25 103.035156 276.539062 C 103.457031 276.828125 103.902344 277.078125 104.375 277.28125 C 106.359375 278.136719 108.246094 279.167969 110.035156 280.382812 C 111.824219 281.597656 113.484375 282.96875 115.011719 284.496094 C 116.539062 286.027344 117.910156 287.6875 119.125 289.476562 C 120.335938 291.265625 121.371094 293.152344 122.226562 295.136719 C 122.429688 295.609375 122.671875 296.054688 122.964844 296.480469 C 123.253906 296.902344 123.582031 297.292969 123.949219 297.652344 C 124.3125 298.011719 124.710938 298.328125 125.140625 298.609375 C 125.570312 298.890625 126.023438 299.125 126.5 299.316406 C 126.976562 299.507812 127.464844 299.648438 127.96875 299.746094 C 128.472656 299.839844 128.980469 299.882812 129.496094 299.878906 C 130.007812 299.871094 130.515625 299.816406 131.015625 299.710938 C 131.519531 299.605469 132.003906 299.453125 132.476562 299.25 C 132.949219 299.046875 133.394531 298.804688 133.816406 298.511719 C 134.242188 298.222656 134.632812 297.894531 134.992188 297.527344 C 135.347656 297.164062 135.667969 296.765625 135.949219 296.335938 C 136.230469 295.90625 136.464844 295.453125 136.65625 294.976562 C 136.847656 294.5 136.988281 294.011719 137.082031 293.507812 C 137.175781 293.003906 137.222656 292.496094 137.214844 291.980469 C 137.210938 291.46875 137.15625 290.960938 137.050781 290.460938 C 136.945312 289.957031 136.789062 289.472656 136.589844 289 C 135.351562 286.09375 133.851562 283.328125 132.085938 280.710938 C 130.320312 278.09375 128.320312 275.664062 126.089844 273.429688 C 123.855469 271.195312 121.429688 269.195312 118.8125 267.425781 C 116.195312 265.65625 113.433594 264.152344 110.527344 262.917969 C 110.054688 262.714844 109.566406 262.5625 109.066406 262.457031 C 108.5625 262.355469 108.054688 262.300781 107.542969 262.292969 C 107.027344 262.289062 106.519531 262.335938 106.015625 262.429688 C 105.511719 262.523438 105.019531 262.667969 104.542969 262.859375 C 104.066406 263.046875 103.613281 263.285156 103.183594 263.5625 C 102.753906 263.84375 102.355469 264.164062 101.988281 264.523438 C 101.621094 264.878906 101.292969 265.269531 101 265.695312 C 100.710938 266.117188 100.464844 266.5625 100.261719 267.035156 Z M 91.019531 300.640625 C 90.679688 300.644531 90.335938 300.667969 90 300.714844 C 89.660156 300.757812 89.324219 300.828125 88.992188 300.917969 C 88.664062 301.007812 88.339844 301.117188 88.023438 301.25 C 87.707031 301.382812 87.402344 301.535156 87.105469 301.707031 C 86.808594 301.878906 86.527344 302.070312 86.253906 302.28125 C 85.984375 302.488281 85.726562 302.714844 85.484375 302.957031 C 85.246094 303.199219 85.019531 303.457031 84.8125 303.730469 C 84.605469 304.003906 84.414062 304.289062 84.246094 304.585938 C 84.074219 304.882812 83.925781 305.1875 83.792969 305.503906 C 83.664062 305.824219 83.554688 306.144531 83.464844 306.476562 C 83.378906 306.808594 83.3125 307.144531 83.269531 307.484375 C 83.226562 307.824219 83.203125 308.164062 83.203125 308.507812 C 83.203125 308.847656 83.226562 309.191406 83.273438 309.53125 C 83.316406 309.871094 83.386719 310.203125 83.476562 310.535156 C 83.5625 310.867188 83.675781 311.1875 83.804688 311.503906 C 83.9375 311.820312 84.089844 312.128906 84.261719 312.425781 C 84.433594 312.71875 84.621094 313.003906 84.832031 313.277344 C 85.039062 313.546875 85.265625 313.804688 85.507812 314.046875 C 85.75 314.289062 86.007812 314.511719 86.28125 314.722656 C 86.550781 314.929688 86.835938 315.121094 87.132812 315.289062 C 87.429688 315.460938 87.734375 315.613281 88.050781 315.742188 C 88.367188 315.875 88.691406 315.984375 89.023438 316.074219 C 89.355469 316.160156 89.691406 316.226562 90.03125 316.273438 C 90.367188 316.316406 90.710938 316.339844 91.050781 316.339844 C 91.394531 316.339844 91.734375 316.316406 92.074219 316.273438 C 92.414062 316.226562 92.75 316.160156 93.082031 316.074219 C 93.414062 315.984375 93.734375 315.875 94.050781 315.742188 C 94.367188 315.613281 94.675781 315.460938 94.972656 315.289062 C 95.269531 315.121094 95.554688 314.929688 95.824219 314.722656 C 96.097656 314.511719 96.355469 314.289062 96.597656 314.046875 C 96.839844 313.804688 97.066406 313.546875 97.273438 313.277344 C 97.484375 313.003906 97.671875 312.722656 97.84375 312.425781 C 98.015625 312.128906 98.167969 311.820312 98.300781 311.503906 C 98.429688 311.1875 98.542969 310.867188 98.628906 310.535156 C 98.71875 310.203125 98.785156 309.871094 98.832031 309.53125 C 98.878906 309.191406 98.902344 308.847656 98.902344 308.507812 C 98.902344 308.164062 98.878906 307.824219 98.835938 307.484375 C 98.792969 307.144531 98.726562 306.808594 98.636719 306.476562 C 98.550781 306.144531 98.441406 305.824219 98.3125 305.503906 C 98.179688 305.1875 98.03125 304.882812 97.859375 304.585938 C 97.691406 304.289062 97.5 304.003906 97.292969 303.730469 C 97.085938 303.457031 96.859375 303.199219 96.617188 302.957031 C 96.378906 302.714844 96.121094 302.488281 95.851562 302.28125 C 95.578125 302.070312 95.296875 301.878906 95 301.707031 C 94.703125 301.535156 94.398438 301.382812 94.082031 301.25 C 93.765625 301.117188 93.441406 301.007812 93.113281 300.917969 C 92.78125 300.828125 92.445312 300.757812 92.105469 300.714844 C 91.765625 300.667969 91.425781 300.644531 91.085938 300.640625 Z M 91.019531 300.640625 " clip-rule="evenodd"/></clipPath><linearGradient x1="255.965" gradientTransform="matrix(0.732422, 0, 0, 0.732422, 0.0000045, 0)" y1="512.000473" x2="255.966" gradientUnits="userSpaceOnUse" y2="0.00169899" id="a3c810e486"><stop stop-opacity="1" stop-color="rgb(0%, 47.799683%, 71.398926%)" offset="0"/><stop stop-opacity="1" stop-color="rgb(0%, 47.903442%, 71.554565%)" offset="0.00000195274"/><stop stop-opacity="1" stop-color="rgb(0%, 48.008728%, 71.711731%)" offset="0.015625"/><stop stop-opacity="1" stop-color="rgb(0%, 48.112488%, 71.867371%)" offset="0.03125"/><stop stop-opacity="1" stop-color="rgb(0%, 48.321533%, 72.180176%)" offset="0.046875"/><stop stop-opacity="1" stop-color="rgb(0%, 48.532104%, 72.492981%)" offset="0.0625"/><stop stop-opacity="1" stop-color="rgb(0%, 48.74115%, 72.80426%)" offset="0.078125"/><stop stop-opacity="1" stop-color="rgb(0%, 48.950195%, 73.117065%)" offset="0.09375"/><stop stop-opacity="1" stop-color="rgb(0%, 49.159241%, 73.429871%)" offset="0.109375"/><stop stop-opacity="1" stop-color="rgb(0%, 49.368286%, 73.742676%)" offset="0.125"/><stop stop-opacity="1" stop-color="rgb(0%, 49.578857%, 74.055481%)" offset="0.140625"/><stop stop-opacity="1" stop-color="rgb(0%, 49.787903%, 74.36676%)" offset="0.15625"/><stop stop-opacity="1" stop-color="rgb(0%, 49.996948%, 74.679565%)" offset="0.171875"/><stop stop-opacity="1" stop-color="rgb(0%, 50.205994%, 74.992371%)" offset="0.1875"/><stop stop-opacity="1" stop-color="rgb(0%, 50.415039%, 75.305176%)" offset="0.203125"/><stop stop-opacity="1" stop-color="rgb(0%, 50.62561%, 75.617981%)" offset="0.21875"/><stop stop-opacity="1" stop-color="rgb(0%, 50.834656%, 75.92926%)" offset="0.234375"/><stop stop-opacity="1" stop-color="rgb(0%, 51.043701%, 76.242065%)" offset="0.25"/><stop stop-opacity="1" stop-color="rgb(0%, 51.252747%, 76.554871%)" offset="0.265625"/><stop stop-opacity="1" stop-color="rgb(0%, 51.463318%, 76.867676%)" offset="0.28125"/><stop stop-opacity="1" stop-color="rgb(0%, 51.672363%, 77.180481%)" offset="0.296875"/><stop stop-opacity="1" stop-color="rgb(0%, 51.881409%, 77.49176%)" offset="0.3125"/><stop stop-opacity="1" stop-color="rgb(0%, 52.090454%, 77.804565%)" offset="0.328125"/><stop stop-opacity="1" stop-color="rgb(0%, 52.2995%, 78.117371%)" offset="0.34375"/><stop stop-opacity="1" stop-color="rgb(0%, 52.510071%, 78.430176%)" offset="0.359375"/><stop stop-opacity="1" stop-color="rgb(0%, 52.719116%, 78.742981%)" offset="0.375"/><stop stop-opacity="1" stop-color="rgb(0%, 52.928162%, 79.05426%)" offset="0.390625"/><stop stop-opacity="1" stop-color="rgb(0%, 53.137207%, 79.367065%)" offset="0.40625"/><stop stop-opacity="1" stop-color="rgb(0%, 53.346252%, 79.679871%)" offset="0.421875"/><stop stop-opacity="1" stop-color="rgb(0%, 53.556824%, 79.992676%)" offset="0.4375"/><stop stop-opacity="1" stop-color="rgb(0%, 53.765869%, 80.305481%)" offset="0.453125"/><stop stop-opacity="1" stop-color="rgb(0%, 53.974915%, 80.61676%)" offset="0.46875"/><stop stop-opacity="1" stop-color="rgb(0%, 54.18396%, 80.929565%)" offset="0.484375"/><stop stop-opacity="1" stop-color="rgb(0%, 54.394531%, 81.242371%)" offset="0.5"/><stop stop-opacity="1" stop-color="rgb(0%, 54.603577%, 81.555176%)" offset="0.515625"/><stop stop-opacity="1" stop-color="rgb(0%, 54.812622%, 81.867981%)" offset="0.53125"/><stop stop-opacity="1" stop-color="rgb(0%, 55.021667%, 82.17926%)" offset="0.546875"/><stop stop-opacity="1" stop-color="rgb(0%, 55.230713%, 82.492065%)" offset="0.5625"/><stop stop-opacity="1" stop-color="rgb(0%, 55.441284%, 82.804871%)" offset="0.578125"/><stop stop-opacity="1" stop-color="rgb(0%, 55.65033%, 83.117676%)" offset="0.59375"/><stop stop-opacity="1" stop-color="rgb(0%, 55.859375%, 83.430481%)" offset="0.609375"/><stop stop-opacity="1" stop-color="rgb(0%, 56.06842%, 83.74176%)" offset="0.625"/><stop stop-opacity="1" stop-color="rgb(0%, 56.278992%, 84.054565%)" offset="0.640625"/><stop stop-opacity="1" stop-color="rgb(0%, 56.488037%, 84.367371%)" offset="0.65625"/><stop stop-opacity="1" stop-color="rgb(0%, 56.697083%, 84.680176%)" offset="0.671875"/><stop stop-opacity="1" stop-color="rgb(0%, 56.906128%, 84.992981%)" offset="0.6875"/><stop stop-opacity="1" stop-color="rgb(0%, 57.115173%, 85.30426%)" offset="0.703125"/><stop stop-opacity="1" stop-color="rgb(0%, 57.325745%, 85.617065%)" offset="0.71875"/><stop stop-opacity="1" stop-color="rgb(0%, 57.53479%, 85.929871%)" offset="0.734375"/><stop stop-opacity="1" stop-color="rgb(0%, 57.743835%, 86.242676%)" offset="0.75"/><stop stop-opacity="1" stop-color="rgb(0%, 57.952881%, 86.555481%)" offset="0.765625"/><stop stop-opacity="1" stop-color="rgb(0%, 58.161926%, 86.86676%)" offset="0.78125"/><stop stop-opacity="1" stop-color="rgb(0%, 58.372498%, 87.179565%)" offset="0.796875"/><stop stop-opacity="1" stop-color="rgb(0%, 58.581543%, 87.492371%)" offset="0.8125"/><stop stop-opacity="1" stop-color="rgb(0%, 58.790588%, 87.805176%)" offset="0.828125"/><stop stop-opacity="1" stop-color="rgb(0%, 58.999634%, 88.117981%)" offset="0.84375"/><stop stop-opacity="1" stop-color="rgb(0%, 59.210205%, 88.42926%)" offset="0.859375"/><stop stop-opacity="1" stop-color="rgb(0%, 59.41925%, 88.742065%)" offset="0.875"/><stop stop-opacity="1" stop-color="rgb(0%, 59.628296%, 89.054871%)" offset="0.890625"/><stop stop-opacity="1" stop-color="rgb(0%, 59.837341%, 89.367676%)" offset="0.90625"/><stop stop-opacity="1" stop-color="rgb(0%, 60.046387%, 89.680481%)" offset="0.921875"/><stop stop-opacity="1" stop-color="rgb(0%, 60.256958%, 89.99176%)" offset="0.9375"/><stop stop-opacity="1" stop-color="rgb(0%, 60.466003%, 90.304565%)" offset="0.953125"/><stop stop-opacity="1" stop-color="rgb(0%, 60.675049%, 90.617371%)" offset="0.96875"/><stop stop-opacity="1" stop-color="rgb(0%, 60.884094%, 90.930176%)" offset="0.984375"/><stop stop-opacity="1" stop-color="rgb(0%, 61.09314%, 91.242981%)" offset="0.999998"/><stop stop-opacity="1" stop-color="rgb(0%, 61.198425%, 91.398621%)" offset="1"/></linearGradient></defs><g clip-path="url(#4f9763ec0d)"><path fill="url(#a3c810e486)" d="M 0 0 L 0 375 L 374.925781 375 L 374.925781 0 Z M 0 0 " fill-rule="nonzero"/></g></svg>