<svg xmlns="http://www.w3.org/2000/svg" xmlns:xlink="http://www.w3.org/1999/xlink" width="500" zoomAndPan="magnify" viewBox="0 0 375 374.999991" height="500" preserveAspectRatio="xMidYMid meet" version="1.0"><defs><clipPath id="2875696883"><path d="M 21 0 L 354 0 L 354 375 L 21 375 Z M 21 0 " clip-rule="nonzero"/></clipPath><clipPath id="015454c2b9"><path d="M 81.140625 375 L 54.320312 375 L 51.875 367.457031 L 83.585938 367.457031 Z M 320.679688 375 L 293.863281 375 L 291.414062 367.457031 L 323.128906 367.457031 Z M 175.835938 86.105469 C 176.21875 85.722656 176.617188 85.359375 177.035156 85.015625 C 177.453125 84.675781 177.886719 84.351562 178.335938 84.050781 C 178.785156 83.75 179.246094 83.472656 179.722656 83.21875 C 180.203125 82.964844 180.6875 82.734375 181.1875 82.527344 C 181.6875 82.320312 182.195312 82.136719 182.714844 81.980469 C 183.230469 81.824219 183.753906 81.691406 184.285156 81.585938 C 184.816406 81.480469 185.347656 81.402344 185.886719 81.347656 C 186.425781 81.296875 186.964844 81.269531 187.503906 81.269531 C 188.046875 81.269531 188.585938 81.296875 189.121094 81.347656 C 189.660156 81.402344 190.195312 81.480469 190.726562 81.585938 C 191.253906 81.691406 191.777344 81.820312 192.296875 81.980469 C 192.8125 82.136719 193.320312 82.316406 193.820312 82.523438 C 194.320312 82.730469 194.808594 82.960938 195.285156 83.21875 C 195.761719 83.472656 196.226562 83.75 196.675781 84.050781 C 197.125 84.351562 197.558594 84.671875 197.976562 85.015625 C 198.394531 85.355469 198.792969 85.71875 199.175781 86.101562 C 199.558594 86.484375 199.921875 86.882812 200.265625 87.300781 C 200.605469 87.71875 200.929688 88.152344 201.230469 88.601562 C 201.527344 89.050781 201.808594 89.515625 202.0625 89.992188 C 202.316406 90.46875 202.546875 90.957031 202.753906 91.457031 C 202.960938 91.957031 203.144531 92.464844 203.300781 92.980469 C 203.457031 93.5 203.589844 94.023438 203.691406 94.550781 C 203.800781 95.082031 203.878906 95.617188 203.929688 96.15625 C 203.984375 96.691406 204.011719 97.230469 204.011719 97.773438 C 204.011719 98.3125 203.984375 98.851562 203.929688 99.390625 C 203.878906 99.929688 203.800781 100.460938 203.695312 100.992188 C 203.589844 101.523438 203.457031 102.046875 203.300781 102.5625 C 203.144531 103.082031 202.960938 103.589844 202.753906 104.089844 C 202.546875 104.589844 202.316406 105.074219 202.0625 105.554688 C 201.808594 106.03125 201.527344 106.492188 201.230469 106.941406 C 200.929688 107.390625 200.605469 107.824219 200.265625 108.242188 C 199.921875 108.660156 199.558594 109.0625 199.175781 109.441406 C 198.792969 109.824219 198.394531 110.1875 197.976562 110.53125 C 197.558594 110.875 197.125 111.195312 196.675781 111.496094 C 196.226562 111.796875 195.761719 112.074219 195.285156 112.328125 C 194.808594 112.582031 194.320312 112.8125 193.820312 113.019531 C 193.320312 113.226562 192.8125 113.410156 192.296875 113.566406 C 191.777344 113.722656 191.253906 113.855469 190.726562 113.960938 C 190.195312 114.066406 189.660156 114.144531 189.121094 114.195312 C 188.585938 114.25 188.046875 114.277344 187.503906 114.277344 C 186.964844 114.277344 186.425781 114.25 185.886719 114.195312 C 185.347656 114.144531 184.816406 114.0625 184.285156 113.957031 C 183.753906 113.851562 183.230469 113.722656 182.714844 113.566406 C 182.195312 113.40625 181.6875 113.226562 181.1875 113.019531 C 180.6875 112.8125 180.203125 112.582031 179.722656 112.324219 C 179.246094 112.070312 178.785156 111.792969 178.335938 111.492188 C 177.886719 111.191406 177.453125 110.871094 177.035156 110.527344 C 176.617188 110.183594 176.21875 109.820312 175.835938 109.441406 C 175.449219 109.058594 175.082031 108.660156 174.738281 108.246094 C 174.390625 107.828125 174.066406 107.394531 173.761719 106.949219 C 173.460938 106.5 173.179688 106.035156 172.921875 105.558594 C 172.664062 105.082031 172.429688 104.597656 172.222656 104.097656 C 172.011719 103.597656 171.828125 103.089844 171.671875 102.570312 C 171.511719 102.054688 171.378906 101.527344 171.273438 100.996094 C 171.167969 100.464844 171.085938 99.933594 171.03125 99.394531 C 170.980469 98.855469 170.953125 98.3125 170.953125 97.773438 C 170.953125 97.230469 170.980469 96.691406 171.03125 96.152344 C 171.085938 95.613281 171.167969 95.078125 171.273438 94.546875 C 171.378906 94.015625 171.511719 93.492188 171.671875 92.972656 C 171.828125 92.457031 172.011719 91.949219 172.222656 91.449219 C 172.429688 90.949219 172.664062 90.460938 172.921875 89.984375 C 173.179688 89.507812 173.460938 89.046875 173.761719 88.597656 C 174.066406 88.148438 174.390625 87.714844 174.738281 87.300781 C 175.082031 86.882812 175.449219 86.484375 175.835938 86.105469 Z M 187.5 123.347656 C 188.230469 123.347656 188.957031 123.308594 189.683594 123.25 L 192.960938 122.972656 L 192.960938 216.417969 L 182.390625 216.417969 L 182.390625 123.058594 L 185.613281 123.273438 C 186.238281 123.316406 186.867188 123.347656 187.496094 123.347656 Z M 174.199219 225.550781 C 174.253906 225.507812 174.316406 225.488281 174.382812 225.488281 L 200.621094 225.488281 C 200.6875 225.488281 200.746094 225.507812 200.800781 225.550781 L 200.800781 240.429688 L 174.199219 240.429688 Z M 21.160156 260.902344 C 21.160156 260.355469 21.214844 259.808594 21.324219 259.269531 C 21.429688 258.730469 21.589844 258.207031 21.800781 257.699219 C 22.011719 257.191406 22.269531 256.710938 22.574219 256.253906 C 22.882812 255.796875 23.226562 255.371094 23.617188 254.984375 C 24.007812 254.59375 24.429688 254.246094 24.886719 253.941406 C 25.34375 253.636719 25.824219 253.378906 26.332031 253.167969 C 26.839844 252.957031 27.363281 252.796875 27.902344 252.6875 C 28.445312 252.582031 28.988281 252.527344 29.539062 252.527344 L 345.460938 252.527344 C 346.011719 252.527344 346.558594 252.582031 347.097656 252.6875 C 347.636719 252.796875 348.160156 252.957031 348.667969 253.167969 C 349.175781 253.378906 349.65625 253.636719 350.113281 253.941406 C 350.570312 254.246094 350.996094 254.59375 351.382812 254.984375 C 351.773438 255.371094 352.121094 255.792969 352.425781 256.25 C 352.730469 256.707031 352.988281 257.191406 353.199219 257.699219 C 353.410156 258.207031 353.570312 258.730469 353.675781 259.269531 C 353.785156 259.808594 353.839844 260.355469 353.839844 260.902344 L 353.839844 346.980469 C 353.839844 347.527344 353.785156 348.074219 353.675781 348.613281 C 353.570312 349.152344 353.410156 349.675781 353.199219 350.183594 C 352.988281 350.691406 352.730469 351.175781 352.425781 351.632812 C 352.121094 352.089844 351.773438 352.511719 351.382812 352.898438 C 350.996094 353.289062 350.570312 353.636719 350.113281 353.941406 C 349.65625 354.246094 349.175781 354.503906 348.667969 354.714844 C 348.160156 354.925781 347.636719 355.085938 347.097656 355.195312 C 346.558594 355.300781 346.011719 355.355469 345.460938 355.355469 L 29.539062 355.355469 C 28.988281 355.355469 28.445312 355.300781 27.902344 355.195312 C 27.363281 355.085938 26.839844 354.925781 26.332031 354.714844 C 25.824219 354.503906 25.34375 354.246094 24.886719 353.941406 C 24.429688 353.636719 24.007812 353.289062 23.617188 352.898438 C 23.226562 352.511719 22.882812 352.085938 22.574219 351.628906 C 22.269531 351.171875 22.011719 350.691406 21.800781 350.183594 C 21.589844 349.675781 21.429688 349.152344 21.324219 348.613281 C 21.214844 348.074219 21.160156 347.527344 21.160156 346.980469 Z M 49.097656 284.339844 C 49.097656 284.738281 49.136719 285.132812 49.214844 285.523438 C 49.292969 285.910156 49.40625 286.289062 49.558594 286.65625 C 49.710938 287.023438 49.898438 287.375 50.117188 287.703125 C 50.335938 288.035156 50.589844 288.339844 50.871094 288.621094 C 51.148438 288.902344 51.457031 289.152344 51.785156 289.375 C 52.117188 289.597656 52.464844 289.78125 52.832031 289.933594 C 53.199219 290.085938 53.578125 290.203125 53.96875 290.28125 C 54.355469 290.359375 54.75 290.398438 55.148438 290.398438 C 55.546875 290.398438 55.9375 290.359375 56.328125 290.28125 C 56.71875 290.203125 57.097656 290.089844 57.464844 289.9375 C 57.832031 289.785156 58.179688 289.601562 58.511719 289.378906 C 58.839844 289.160156 59.148438 288.90625 59.429688 288.628906 C 59.710938 288.347656 59.960938 288.039062 60.179688 287.710938 C 60.402344 287.378906 60.589844 287.03125 60.742188 286.664062 C 60.894531 286.296875 61.007812 285.917969 61.085938 285.53125 C 61.164062 285.140625 61.203125 284.746094 61.203125 284.347656 C 61.203125 283.953125 61.164062 283.558594 61.085938 283.167969 C 61.011719 282.777344 60.894531 282.398438 60.742188 282.03125 C 60.59375 281.664062 60.40625 281.316406 60.183594 280.984375 C 59.964844 280.65625 59.714844 280.347656 59.433594 280.070312 C 59.152344 279.789062 58.847656 279.535156 58.515625 279.316406 C 58.1875 279.09375 57.835938 278.90625 57.472656 278.753906 C 57.105469 278.601562 56.726562 278.488281 56.335938 278.410156 C 55.945312 278.332031 55.550781 278.292969 55.15625 278.292969 L 55.152344 278.292969 C 54.753906 278.292969 54.359375 278.332031 53.972656 278.410156 C 53.582031 278.488281 53.203125 278.601562 52.835938 278.753906 C 52.46875 278.90625 52.121094 279.089844 51.789062 279.3125 C 51.460938 279.53125 51.15625 279.785156 50.875 280.0625 C 50.59375 280.34375 50.34375 280.652344 50.121094 280.980469 C 49.902344 281.3125 49.714844 281.660156 49.5625 282.027344 C 49.410156 282.394531 49.296875 282.773438 49.21875 283.160156 C 49.140625 283.550781 49.101562 283.945312 49.101562 284.339844 Z M 80.132812 284.339844 C 80.132812 284.738281 80.171875 285.132812 80.25 285.523438 C 80.328125 285.910156 80.441406 286.289062 80.59375 286.65625 C 80.746094 287.023438 80.933594 287.371094 81.152344 287.703125 C 81.375 288.03125 81.625 288.335938 81.90625 288.617188 C 82.1875 288.898438 82.492188 289.148438 82.824219 289.371094 C 83.152344 289.589844 83.5 289.777344 83.867188 289.929688 C 84.234375 290.082031 84.613281 290.195312 85.003906 290.273438 C 85.390625 290.351562 85.785156 290.390625 86.183594 290.390625 C 86.578125 290.390625 86.972656 290.351562 87.363281 290.273438 C 87.753906 290.195312 88.128906 290.082031 88.496094 289.929688 C 88.863281 289.777344 89.210938 289.589844 89.542969 289.371094 C 89.875 289.148438 90.179688 288.898438 90.460938 288.617188 C 90.742188 288.335938 90.992188 288.03125 91.210938 287.703125 C 91.433594 287.371094 91.617188 287.023438 91.769531 286.65625 C 91.921875 286.289062 92.039062 285.910156 92.113281 285.523438 C 92.191406 285.132812 92.230469 284.738281 92.230469 284.339844 C 92.230469 283.945312 92.191406 283.550781 92.113281 283.160156 C 92.039062 282.773438 91.921875 282.394531 91.769531 282.027344 C 91.617188 281.660156 91.433594 281.3125 91.210938 280.980469 C 90.992188 280.652344 90.742188 280.34375 90.460938 280.066406 C 90.179688 279.785156 89.875 279.53125 89.542969 279.3125 C 89.210938 279.09375 88.863281 278.90625 88.496094 278.753906 C 88.128906 278.601562 87.753906 278.488281 87.363281 278.410156 C 86.972656 278.332031 86.578125 278.292969 86.183594 278.292969 L 86.175781 278.292969 C 85.777344 278.292969 85.386719 278.332031 84.996094 278.410156 C 84.605469 278.488281 84.226562 278.601562 83.863281 278.753906 C 83.496094 278.90625 83.148438 279.09375 82.816406 279.3125 C 82.488281 279.535156 82.179688 279.785156 81.902344 280.066406 C 81.621094 280.347656 81.371094 280.652344 81.148438 280.980469 C 80.929688 281.3125 80.742188 281.660156 80.59375 282.027344 C 80.441406 282.394531 80.324219 282.773438 80.25 283.160156 C 80.171875 283.550781 80.132812 283.945312 80.132812 284.339844 Z M 111.160156 284.339844 C 111.160156 284.738281 111.199219 285.132812 111.277344 285.523438 C 111.355469 285.910156 111.46875 286.289062 111.621094 286.65625 C 111.773438 287.023438 111.960938 287.375 112.179688 287.703125 C 112.398438 288.035156 112.652344 288.339844 112.933594 288.621094 C 113.210938 288.902344 113.519531 289.152344 113.847656 289.375 C 114.179688 289.597656 114.527344 289.78125 114.894531 289.933594 C 115.261719 290.085938 115.640625 290.203125 116.03125 290.28125 C 116.417969 290.359375 116.8125 290.398438 117.210938 290.398438 C 117.609375 290.398438 118 290.359375 118.390625 290.28125 C 118.78125 290.203125 119.160156 290.089844 119.527344 289.9375 C 119.894531 289.785156 120.242188 289.601562 120.574219 289.378906 C 120.902344 289.160156 121.210938 288.90625 121.492188 288.628906 C 121.773438 288.347656 122.023438 288.039062 122.242188 287.710938 C 122.464844 287.378906 122.652344 287.03125 122.804688 286.664062 C 122.957031 286.296875 123.070312 285.917969 123.148438 285.53125 C 123.226562 285.140625 123.265625 284.746094 123.265625 284.347656 C 123.265625 283.953125 123.226562 283.558594 123.148438 283.167969 C 123.074219 282.777344 122.957031 282.398438 122.804688 282.03125 C 122.65625 281.664062 122.46875 281.316406 122.246094 280.984375 C 122.027344 280.65625 121.777344 280.347656 121.496094 280.070312 C 121.214844 279.789062 120.910156 279.535156 120.578125 279.316406 C 120.25 279.09375 119.898438 278.90625 119.535156 278.753906 C 119.167969 278.601562 118.789062 278.488281 118.398438 278.410156 C 118.007812 278.332031 117.613281 278.292969 117.21875 278.292969 L 117.203125 278.292969 C 116.804688 278.292969 116.414062 278.332031 116.023438 278.410156 C 115.632812 278.488281 115.257812 278.601562 114.890625 278.753906 C 114.523438 278.90625 114.175781 279.09375 113.84375 279.3125 C 113.515625 279.535156 113.207031 279.785156 112.929688 280.066406 C 112.648438 280.347656 112.398438 280.652344 112.175781 280.980469 C 111.957031 281.3125 111.769531 281.660156 111.621094 282.027344 C 111.46875 282.394531 111.355469 282.773438 111.277344 283.160156 C 111.199219 283.550781 111.160156 283.945312 111.160156 284.339844 Z M 283.832031 339.394531 C 284.992188 339.394531 286.152344 339.339844 287.304688 339.226562 C 288.460938 339.109375 289.609375 338.941406 290.746094 338.714844 C 291.886719 338.488281 293.011719 338.207031 294.121094 337.867188 C 295.234375 337.53125 296.324219 337.140625 297.398438 336.695312 C 298.46875 336.25 299.519531 335.757812 300.542969 335.207031 C 301.566406 334.660156 302.558594 334.066406 303.523438 333.417969 C 304.492188 332.773438 305.421875 332.082031 306.320312 331.347656 C 307.214844 330.609375 308.074219 329.832031 308.894531 329.011719 C 309.71875 328.191406 310.496094 327.332031 311.230469 326.433594 C 311.96875 325.535156 312.660156 324.605469 313.304688 323.640625 C 313.949219 322.671875 314.546875 321.679688 315.09375 320.65625 C 315.640625 319.628906 316.136719 318.582031 316.578125 317.511719 C 317.023438 316.4375 317.414062 315.34375 317.75 314.234375 C 318.089844 313.125 318.371094 312 318.597656 310.859375 C 318.824219 309.722656 318.992188 308.574219 319.105469 307.417969 C 319.21875 306.261719 319.277344 305.105469 319.277344 303.945312 C 319.277344 302.78125 319.21875 301.625 319.105469 300.46875 C 318.992188 299.3125 318.820312 298.167969 318.59375 297.027344 C 318.367188 295.890625 318.085938 294.765625 317.75 293.652344 C 317.414062 292.542969 317.023438 291.453125 316.578125 290.378906 C 316.132812 289.304688 315.636719 288.257812 315.089844 287.234375 C 314.542969 286.210938 313.945312 285.214844 313.300781 284.25 C 312.65625 283.285156 311.964844 282.355469 311.230469 281.457031 C 310.492188 280.558594 309.714844 279.699219 308.890625 278.878906 C 308.070312 278.058594 307.210938 277.28125 306.316406 276.542969 C 305.417969 275.804688 304.484375 275.117188 303.519531 274.472656 C 302.554688 273.824219 301.558594 273.230469 300.535156 272.683594 C 299.511719 272.136719 298.464844 271.640625 297.390625 271.195312 C 296.320312 270.75 295.226562 270.359375 294.117188 270.023438 C 293.003906 269.6875 291.878906 269.40625 290.742188 269.179688 C 289.601562 268.953125 288.457031 268.78125 287.300781 268.667969 C 286.144531 268.554688 284.988281 268.496094 283.824219 268.496094 C 282.664062 268.496094 281.507812 268.554688 280.351562 268.667969 C 279.195312 268.78125 278.050781 268.953125 276.910156 269.179688 C 275.773438 269.40625 274.648438 269.6875 273.535156 270.023438 C 272.425781 270.363281 271.332031 270.753906 270.261719 271.195312 C 269.1875 271.640625 268.140625 272.136719 267.117188 272.683594 C 266.09375 273.230469 265.097656 273.828125 264.132812 274.472656 C 263.167969 275.117188 262.234375 275.808594 261.339844 276.546875 C 260.441406 277.28125 259.582031 278.058594 258.761719 278.882812 C 257.941406 279.703125 257.160156 280.5625 256.425781 281.457031 C 255.6875 282.355469 254.996094 283.289062 254.351562 284.253906 C 253.707031 285.21875 253.109375 286.214844 252.5625 287.238281 C 252.015625 288.261719 251.519531 289.308594 251.078125 290.382812 C 250.632812 291.453125 250.242188 292.546875 249.90625 293.65625 C 249.566406 294.769531 249.285156 295.894531 249.058594 297.03125 C 248.832031 298.171875 248.664062 299.316406 248.550781 300.472656 C 248.433594 301.628906 248.378906 302.785156 248.378906 303.945312 C 248.378906 305.109375 248.4375 306.265625 248.550781 307.421875 C 248.667969 308.574219 248.839844 309.722656 249.066406 310.859375 C 249.292969 312 249.578125 313.121094 249.914062 314.234375 C 250.253906 315.34375 250.644531 316.433594 251.089844 317.507812 C 251.535156 318.578125 252.03125 319.625 252.578125 320.648438 C 253.125 321.671875 253.722656 322.667969 254.367188 323.632812 C 255.011719 324.597656 255.703125 325.527344 256.4375 326.425781 C 257.175781 327.324219 257.953125 328.179688 258.773438 329.003906 C 259.597656 329.824219 260.453125 330.601562 261.351562 331.339844 C 262.25 332.074219 263.179688 332.765625 264.144531 333.410156 C 265.109375 334.054688 266.105469 334.652344 267.128906 335.199219 C 268.152344 335.746094 269.199219 336.242188 270.269531 336.6875 C 271.34375 337.132812 272.433594 337.523438 273.546875 337.859375 C 274.65625 338.199219 275.78125 338.480469 276.917969 338.707031 C 278.054688 338.9375 279.203125 339.105469 280.359375 339.222656 C 281.511719 339.335938 282.671875 339.394531 283.832031 339.394531 Z M 283.832031 280.589844 C 282.425781 280.589844 281.035156 280.714844 279.652344 280.964844 C 278.269531 281.21875 276.921875 281.589844 275.605469 282.085938 C 274.289062 282.578125 273.03125 283.1875 271.824219 283.910156 C 270.621094 284.632812 269.488281 285.457031 268.433594 286.382812 C 267.375 287.308594 266.410156 288.320312 265.539062 289.421875 C 264.664062 290.523438 263.894531 291.691406 263.234375 292.929688 C 262.570312 294.167969 262.023438 295.457031 261.59375 296.796875 C 261.164062 298.132812 260.859375 299.5 260.675781 300.890625 C 260.492188 302.285156 260.433594 303.683594 260.503906 305.085938 C 260.570312 306.488281 260.765625 307.875 261.082031 309.242188 C 261.402344 310.609375 261.839844 311.9375 262.398438 313.226562 C 262.957031 314.515625 263.628906 315.746094 264.40625 316.914062 C 265.1875 318.082031 266.066406 319.171875 267.042969 320.179688 C 268.019531 321.191406 269.078125 322.105469 270.222656 322.921875 C 271.363281 323.742188 272.570312 324.453125 273.839844 325.050781 C 275.109375 325.652344 276.421875 326.136719 277.777344 326.5 L 277.777344 307.242188 C 277.773438 306.84375 277.808594 306.445312 277.882812 306.050781 C 277.957031 305.660156 278.070312 305.277344 278.21875 304.90625 C 278.371094 304.535156 278.554688 304.183594 278.773438 303.847656 C 278.996094 303.515625 279.246094 303.207031 279.527344 302.921875 C 279.808594 302.636719 280.113281 302.382812 280.445312 302.160156 C 280.777344 301.9375 281.128906 301.746094 281.496094 301.59375 C 281.867188 301.4375 282.246094 301.324219 282.640625 301.246094 C 283.03125 301.164062 283.425781 301.125 283.828125 301.125 C 284.226562 301.125 284.625 301.164062 285.015625 301.246094 C 285.40625 301.324219 285.789062 301.4375 286.15625 301.59375 C 286.527344 301.746094 286.878906 301.9375 287.210938 302.160156 C 287.539062 302.382812 287.847656 302.636719 288.128906 302.921875 C 288.410156 303.207031 288.660156 303.515625 288.878906 303.847656 C 289.101562 304.183594 289.285156 304.535156 289.433594 304.90625 C 289.585938 305.277344 289.699219 305.660156 289.773438 306.050781 C 289.847656 306.445312 289.878906 306.84375 289.875 307.242188 L 289.875 326.496094 C 291.234375 326.132812 292.546875 325.652344 293.816406 325.050781 C 295.085938 324.449219 296.292969 323.742188 297.433594 322.921875 C 298.578125 322.105469 299.636719 321.191406 300.613281 320.179688 C 301.589844 319.171875 302.46875 318.082031 303.25 316.914062 C 304.03125 315.746094 304.699219 314.515625 305.257812 313.226562 C 305.816406 311.9375 306.257812 310.609375 306.574219 309.242188 C 306.894531 307.875 307.089844 306.488281 307.15625 305.085938 C 307.226562 303.683594 307.167969 302.285156 306.984375 300.890625 C 306.804688 299.5 306.496094 298.132812 306.066406 296.796875 C 305.636719 295.457031 305.089844 294.167969 304.429688 292.929688 C 303.765625 291.691406 303 290.523438 302.125 289.421875 C 301.25 288.320312 300.285156 287.308594 299.230469 286.382812 C 298.171875 285.457031 297.042969 284.632812 295.839844 283.910156 C 294.632812 283.1875 293.371094 282.578125 292.058594 282.082031 C 290.742188 281.589844 289.394531 281.214844 288.011719 280.964844 C 286.628906 280.710938 285.238281 280.585938 283.832031 280.585938 Z M 90.929688 193.652344 C 89.367188 192.078125 87.84375 190.464844 86.359375 188.816406 C 84.875 187.167969 83.429688 185.484375 82.027344 183.765625 C 80.628906 182.046875 79.269531 180.292969 77.953125 178.507812 C 76.636719 176.722656 75.363281 174.902344 74.136719 173.054688 C 72.910156 171.207031 71.726562 169.332031 70.59375 167.425781 C 69.457031 165.519531 68.367188 163.585938 67.328125 161.625 C 66.285156 159.667969 65.292969 157.683594 64.351562 155.675781 C 63.40625 153.667969 62.511719 151.640625 61.667969 149.585938 C 60.824219 147.535156 60.027344 145.464844 59.285156 143.375 C 58.542969 141.285156 57.851562 139.179688 57.210938 137.054688 C 56.570312 134.929688 55.980469 132.792969 55.445312 130.636719 C 54.910156 128.484375 54.425781 126.320312 53.996094 124.144531 C 53.566406 121.96875 53.191406 119.78125 52.867188 117.585938 C 52.542969 115.390625 52.273438 113.191406 52.058594 110.984375 C 51.84375 108.773438 51.683594 106.5625 51.578125 104.347656 C 51.46875 102.128906 51.417969 99.914062 51.417969 97.695312 C 51.417969 95.476562 51.472656 93.257812 51.585938 91.042969 C 51.695312 88.828125 51.859375 86.617188 52.074219 84.40625 C 52.292969 82.199219 52.566406 80 52.890625 77.804688 C 53.214844 75.609375 53.597656 73.425781 54.027344 71.25 C 54.460938 69.074219 54.945312 66.910156 55.484375 64.757812 C 56.023438 62.605469 56.613281 60.464844 57.257812 58.34375 C 57.898438 56.21875 58.59375 54.113281 59.339844 52.023438 C 60.085938 49.933594 60.882812 47.863281 61.730469 45.8125 C 62.578125 43.761719 63.472656 41.734375 64.417969 39.726562 C 65.367188 37.722656 66.359375 35.738281 67.402344 33.78125 C 68.445312 31.824219 69.539062 29.890625 70.675781 27.988281 C 71.8125 26.082031 72.996094 24.207031 74.226562 22.359375 C 75.457031 20.515625 76.730469 18.699219 78.046875 16.914062 C 79.367188 15.128906 80.726562 13.378906 82.132812 11.660156 C 83.535156 9.941406 84.980469 8.261719 86.46875 6.613281 C 87.953125 4.964844 89.480469 3.355469 91.042969 1.785156 C 91.324219 1.496094 91.628906 1.242188 91.957031 1.015625 C 92.285156 0.789062 92.636719 0.597656 93.003906 0.441406 C 93.371094 0.285156 93.75 0.167969 94.140625 0.0859375 C 94.53125 0.00390625 94.929688 -0.0390625 95.328125 -0.0429688 C 95.726562 -0.046875 96.125 -0.0078125 96.515625 0.0664062 C 96.910156 0.140625 97.289062 0.253906 97.660156 0.40625 C 98.03125 0.558594 98.382812 0.742188 98.714844 0.964844 C 99.046875 1.183594 99.355469 1.4375 99.640625 1.71875 C 99.921875 2 100.175781 2.308594 100.398438 2.640625 C 100.621094 2.972656 100.808594 3.320312 100.960938 3.691406 C 101.113281 4.0625 101.230469 4.441406 101.308594 4.832031 C 101.386719 5.226562 101.421875 5.621094 101.421875 6.019531 C 101.421875 6.421875 101.378906 6.816406 101.300781 7.207031 C 101.222656 7.601562 101.105469 7.980469 100.949219 8.347656 C 100.792969 8.71875 100.605469 9.066406 100.382812 9.398438 C 100.15625 9.730469 99.902344 10.035156 99.617188 10.316406 C 51.679688 58.484375 51.632812 136.90625 99.511719 185.128906 C 99.792969 185.410156 100.042969 185.714844 100.261719 186.046875 C 100.480469 186.378906 100.667969 186.726562 100.816406 187.09375 C 100.96875 187.460938 101.082031 187.839844 101.15625 188.230469 C 101.234375 188.621094 101.269531 189.015625 101.269531 189.410156 C 101.269531 189.808594 101.226562 190.203125 101.148438 190.589844 C 101.070312 190.980469 100.953125 191.359375 100.800781 191.726562 C 100.648438 192.089844 100.460938 192.4375 100.238281 192.769531 C 100.015625 193.097656 99.765625 193.402344 99.484375 193.683594 C 99.203125 193.960938 98.894531 194.210938 98.5625 194.429688 C 98.234375 194.652344 97.882812 194.835938 97.515625 194.988281 C 97.148438 195.136719 96.769531 195.25 96.378906 195.328125 C 95.992188 195.402344 95.597656 195.441406 95.199219 195.4375 C 94.804688 195.4375 94.410156 195.398438 94.019531 195.320312 C 93.632812 195.238281 93.253906 195.125 92.886719 194.96875 C 92.519531 194.816406 92.171875 194.628906 91.84375 194.40625 C 91.515625 194.1875 91.210938 193.933594 90.929688 193.652344 Z M 88.929688 97.699219 C 88.917969 100.910156 89.066406 104.113281 89.371094 107.3125 C 89.671875 110.507812 90.132812 113.683594 90.75 116.835938 C 91.367188 119.988281 92.136719 123.101562 93.058594 126.179688 C 93.984375 129.253906 95.054688 132.277344 96.277344 135.25 C 97.496094 138.21875 98.859375 141.125 100.363281 143.960938 C 101.871094 146.796875 103.511719 149.554688 105.289062 152.230469 C 107.066406 154.90625 108.96875 157.484375 111 159.972656 C 113.03125 162.460938 115.179688 164.84375 117.445312 167.121094 C 117.722656 167.410156 118.027344 167.664062 118.355469 167.890625 C 118.6875 168.117188 119.035156 168.308594 119.402344 168.464844 C 119.769531 168.625 120.148438 168.742188 120.539062 168.824219 C 120.929688 168.90625 121.324219 168.949219 121.722656 168.953125 C 122.125 168.957031 122.519531 168.921875 122.910156 168.847656 C 123.304688 168.773438 123.6875 168.660156 124.054688 168.511719 C 124.425781 168.363281 124.777344 168.175781 125.109375 167.957031 C 125.445312 167.738281 125.753906 167.484375 126.039062 167.203125 C 126.320312 166.925781 126.574219 166.617188 126.796875 166.285156 C 127.019531 165.957031 127.210938 165.605469 127.363281 165.238281 C 127.515625 164.867188 127.632812 164.488281 127.710938 164.097656 C 127.789062 163.703125 127.828125 163.308594 127.832031 162.910156 C 127.832031 162.511719 127.792969 162.113281 127.714844 161.722656 C 127.632812 161.332031 127.519531 160.949219 127.363281 160.582031 C 127.210938 160.214844 127.023438 159.863281 126.800781 159.53125 C 126.578125 159.199219 126.324219 158.894531 126.039062 158.613281 C 92.773438 125.011719 92.820312 70.382812 126.148438 36.835938 C 126.425781 36.554688 126.675781 36.246094 126.898438 35.917969 C 127.117188 35.585938 127.300781 35.234375 127.453125 34.867188 C 127.601562 34.5 127.714844 34.121094 127.792969 33.734375 C 127.867188 33.34375 127.90625 32.949219 127.90625 32.550781 C 127.902344 32.15625 127.863281 31.761719 127.785156 31.375 C 127.707031 30.984375 127.589844 30.605469 127.4375 30.238281 C 127.285156 29.875 127.097656 29.523438 126.875 29.195312 C 126.652344 28.867188 126.402344 28.5625 126.121094 28.28125 C 125.839844 28 125.53125 27.75 125.203125 27.53125 C 124.871094 27.3125 124.523438 27.128906 124.152344 26.976562 C 123.785156 26.824219 123.40625 26.710938 123.019531 26.636719 C 122.628906 26.558594 122.234375 26.523438 121.839844 26.523438 C 121.441406 26.523438 121.046875 26.566406 120.660156 26.644531 C 120.269531 26.722656 119.890625 26.835938 119.523438 26.992188 C 119.160156 27.144531 118.8125 27.332031 118.480469 27.554688 C 118.152344 27.773438 117.847656 28.027344 117.566406 28.308594 C 115.296875 30.582031 113.144531 32.960938 111.109375 35.445312 C 109.074219 37.929688 107.164062 40.507812 105.382812 43.183594 C 103.601562 45.855469 101.953125 48.609375 100.441406 51.445312 C 98.929688 54.277344 97.5625 57.179688 96.335938 60.148438 C 95.113281 63.117188 94.035156 66.140625 93.105469 69.21875 C 92.179688 72.292969 91.402344 75.40625 90.78125 78.558594 C 90.160156 81.707031 89.695312 84.882812 89.382812 88.082031 C 89.074219 91.277344 88.921875 94.484375 88.929688 97.695312 Z M 126.445312 97.699219 C 126.4375 93.722656 126.820312 89.785156 127.585938 85.886719 C 128.355469 81.988281 129.496094 78.199219 131.007812 74.523438 C 132.519531 70.847656 134.378906 67.355469 136.578125 64.046875 C 138.777344 60.734375 141.277344 57.671875 144.078125 54.851562 C 144.355469 54.566406 144.660156 54.308594 144.988281 54.082031 C 145.320312 53.855469 145.667969 53.664062 146.035156 53.507812 C 146.402344 53.347656 146.78125 53.230469 147.171875 53.148438 C 147.5625 53.066406 147.957031 53.023438 148.355469 53.019531 C 148.757812 53.015625 149.152344 53.050781 149.542969 53.125 C 149.9375 53.199219 150.316406 53.308594 150.6875 53.460938 C 151.058594 53.609375 151.410156 53.796875 151.742188 54.015625 C 152.078125 54.234375 152.386719 54.484375 152.671875 54.765625 C 152.953125 55.046875 153.207031 55.351562 153.429688 55.683594 C 153.65625 56.015625 153.84375 56.363281 153.996094 56.734375 C 154.152344 57.101562 154.269531 57.480469 154.347656 57.875 C 154.425781 58.265625 154.464844 58.660156 154.464844 59.058594 C 154.464844 59.460938 154.425781 59.855469 154.347656 60.246094 C 154.269531 60.636719 154.15625 61.019531 154 61.386719 C 153.847656 61.757812 153.660156 62.105469 153.4375 62.4375 C 153.214844 62.769531 152.960938 63.074219 152.675781 63.359375 C 151.566406 64.492188 150.511719 65.675781 149.515625 66.910156 C 148.519531 68.144531 147.582031 69.425781 146.710938 70.753906 C 145.835938 72.078125 145.03125 73.441406 144.289062 74.847656 C 143.550781 76.25 142.878906 77.6875 142.277344 79.15625 C 141.675781 80.625 141.144531 82.121094 140.6875 83.640625 C 140.234375 85.160156 139.851562 86.699219 139.542969 88.257812 C 139.234375 89.8125 139.003906 91.382812 138.847656 92.960938 C 138.691406 94.542969 138.613281 96.125 138.609375 97.714844 C 138.609375 99.300781 138.683594 100.882812 138.835938 102.464844 C 138.984375 104.046875 139.210938 105.613281 139.515625 107.171875 C 139.820312 108.730469 140.195312 110.269531 140.648438 111.792969 C 141.101562 113.3125 141.625 114.808594 142.222656 116.28125 C 142.820312 117.75 143.488281 119.191406 144.222656 120.597656 C 144.960938 122.003906 145.761719 123.371094 146.632812 124.699219 C 147.5 126.027344 148.433594 127.308594 149.425781 128.546875 C 150.417969 129.785156 151.46875 130.972656 152.578125 132.109375 C 152.855469 132.394531 153.105469 132.699219 153.324219 133.03125 C 153.539062 133.363281 153.722656 133.714844 153.871094 134.082031 C 154.023438 134.449219 154.132812 134.828125 154.207031 135.21875 C 154.28125 135.609375 154.316406 136.003906 154.3125 136.398438 C 154.3125 136.796875 154.269531 137.1875 154.1875 137.578125 C 154.109375 137.96875 153.992188 138.34375 153.835938 138.710938 C 153.679688 139.074219 153.492188 139.421875 153.269531 139.75 C 153.046875 140.078125 152.792969 140.382812 152.507812 140.660156 C 152.226562 140.9375 151.917969 141.1875 151.585938 141.40625 C 151.253906 141.621094 150.90625 141.804688 150.535156 141.957031 C 150.167969 142.105469 149.789062 142.214844 149.398438 142.289062 C 149.007812 142.363281 148.617188 142.398438 148.21875 142.398438 C 147.820312 142.394531 147.429688 142.351562 147.039062 142.269531 C 146.652344 142.191406 146.273438 142.074219 145.910156 141.917969 C 145.542969 141.761719 145.195312 141.574219 144.867188 141.351562 C 144.539062 141.128906 144.238281 140.875 143.957031 140.589844 C 141.164062 137.765625 138.675781 134.691406 136.484375 131.375 C 134.296875 128.058594 132.449219 124.5625 130.945312 120.882812 C 129.445312 117.203125 128.3125 113.414062 127.558594 109.515625 C 126.800781 105.613281 126.429688 101.675781 126.445312 97.703125 Z M 275.386719 10.320312 C 275.105469 10.039062 274.855469 9.734375 274.632812 9.402344 C 274.414062 9.070312 274.226562 8.722656 274.074219 8.355469 C 273.921875 7.988281 273.808594 7.609375 273.730469 7.21875 C 273.65625 6.828125 273.617188 6.433594 273.617188 6.039062 C 273.617188 5.640625 273.65625 5.246094 273.734375 4.855469 C 273.8125 4.464844 273.929688 4.089844 274.082031 3.722656 C 274.234375 3.355469 274.421875 3.003906 274.644531 2.675781 C 274.863281 2.34375 275.117188 2.039062 275.398438 1.757812 C 275.679688 1.476562 275.988281 1.226562 276.316406 1.007812 C 276.648438 0.789062 276.996094 0.601562 277.367188 0.449219 C 277.734375 0.300781 278.113281 0.183594 278.503906 0.109375 C 278.890625 0.03125 279.285156 -0.00390625 279.683594 -0.00390625 C 280.082031 -0.00390625 280.476562 0.0351562 280.863281 0.113281 C 281.253906 0.195312 281.632812 0.308594 282 0.460938 C 282.367188 0.617188 282.714844 0.804688 283.042969 1.023438 C 283.375 1.246094 283.679688 1.5 283.960938 1.78125 C 285.523438 3.355469 287.050781 4.964844 288.535156 6.609375 C 290.023438 8.257812 291.46875 9.941406 292.871094 11.65625 C 294.277344 13.375 295.636719 15.128906 296.957031 16.910156 C 298.273438 18.695312 299.546875 20.511719 300.777344 22.359375 C 302.007812 24.203125 303.191406 26.082031 304.328125 27.984375 C 305.464844 29.890625 306.554688 31.820312 307.601562 33.777344 C 308.644531 35.738281 309.636719 37.71875 310.585938 39.726562 C 311.53125 41.730469 312.425781 43.761719 313.273438 45.8125 C 314.121094 47.859375 314.917969 49.929688 315.664062 52.019531 C 316.410156 54.109375 317.105469 56.214844 317.746094 58.339844 C 318.390625 60.464844 318.980469 62.601562 319.519531 64.753906 C 320.058594 66.90625 320.542969 69.070312 320.976562 71.246094 C 321.40625 73.421875 321.785156 75.605469 322.113281 77.800781 C 322.4375 79.996094 322.710938 82.195312 322.929688 84.40625 C 323.144531 86.613281 323.308594 88.824219 323.417969 91.039062 C 323.527344 93.257812 323.585938 95.472656 323.585938 97.691406 C 323.585938 99.910156 323.535156 102.128906 323.425781 104.34375 C 323.320312 106.558594 323.160156 108.769531 322.945312 110.980469 C 322.726562 113.1875 322.460938 115.390625 322.136719 117.585938 C 321.8125 119.777344 321.4375 121.964844 321.007812 124.140625 C 320.578125 126.316406 320.09375 128.480469 319.558594 130.636719 C 319.023438 132.789062 318.433594 134.925781 317.792969 137.050781 C 317.152344 139.175781 316.460938 141.28125 315.71875 143.371094 C 314.976562 145.460938 314.179688 147.535156 313.335938 149.585938 C 312.492188 151.636719 311.597656 153.664062 310.652344 155.671875 C 309.710938 157.679688 308.714844 159.664062 307.675781 161.625 C 306.636719 163.582031 305.546875 165.515625 304.410156 167.421875 C 303.277344 169.328125 302.09375 171.203125 300.867188 173.050781 C 299.640625 174.902344 298.367188 176.71875 297.050781 178.503906 C 295.734375 180.289062 294.375 182.042969 292.972656 183.761719 C 291.574219 185.480469 290.128906 187.164062 288.644531 188.816406 C 287.160156 190.464844 285.636719 192.074219 284.074219 193.648438 C 283.792969 193.933594 283.492188 194.1875 283.160156 194.410156 C 282.832031 194.632812 282.484375 194.824219 282.117188 194.976562 C 281.75 195.132812 281.371094 195.25 280.980469 195.328125 C 280.589844 195.410156 280.195312 195.449219 279.800781 195.453125 C 279.402344 195.453125 279.007812 195.417969 278.617188 195.34375 C 278.222656 195.265625 277.84375 195.152344 277.476562 195.003906 C 277.109375 194.851562 276.757812 194.664062 276.425781 194.445312 C 276.09375 194.226562 275.785156 193.976562 275.503906 193.695312 C 275.222656 193.414062 274.96875 193.109375 274.746094 192.777344 C 274.527344 192.449219 274.335938 192.097656 274.183594 191.730469 C 274.03125 191.363281 273.914062 190.984375 273.835938 190.59375 C 273.757812 190.203125 273.71875 189.8125 273.71875 189.414062 C 273.71875 189.015625 273.757812 188.621094 273.835938 188.230469 C 273.910156 187.839844 274.027344 187.460938 274.179688 187.09375 C 274.332031 186.722656 274.515625 186.375 274.738281 186.042969 C 274.960938 185.714844 275.210938 185.40625 275.492188 185.125 C 323.375 136.902344 323.328125 58.484375 275.390625 10.3125 Z M 248.855469 36.832031 C 282.179688 70.378906 282.226562 125.007812 248.960938 158.609375 C 248.679688 158.890625 248.429688 159.199219 248.210938 159.53125 C 247.992188 159.863281 247.808594 160.210938 247.660156 160.578125 C 247.507812 160.945312 247.394531 161.324219 247.320312 161.714844 C 247.246094 162.105469 247.207031 162.5 247.210938 162.894531 C 247.210938 163.292969 247.253906 163.6875 247.332031 164.074219 C 247.414062 164.464844 247.527344 164.84375 247.683594 165.207031 C 247.835938 165.574219 248.023438 165.921875 248.246094 166.25 C 248.46875 166.578125 248.722656 166.882812 249.003906 167.164062 C 249.285156 167.441406 249.59375 167.691406 249.925781 167.910156 C 250.257812 168.128906 250.605469 168.3125 250.972656 168.464844 C 251.339844 168.613281 251.71875 168.726562 252.109375 168.804688 C 252.5 168.878906 252.894531 168.914062 253.289062 168.914062 C 253.6875 168.910156 254.082031 168.871094 254.46875 168.789062 C 254.859375 168.710938 255.238281 168.59375 255.601562 168.441406 C 255.96875 168.285156 256.316406 168.097656 256.644531 167.875 C 256.976562 167.652344 257.277344 167.402344 257.558594 167.117188 C 258.6875 165.980469 259.789062 164.8125 260.859375 163.617188 C 261.929688 162.421875 262.972656 161.203125 263.984375 159.957031 C 264.996094 158.714844 265.976562 157.445312 266.929688 156.152344 C 267.878906 154.859375 268.796875 153.542969 269.683594 152.207031 C 270.570312 150.867188 271.421875 149.511719 272.242188 148.128906 C 273.0625 146.75 273.847656 145.351562 274.597656 143.933594 C 275.351562 142.515625 276.066406 141.082031 276.746094 139.628906 C 277.429688 138.175781 278.074219 136.707031 278.683594 135.222656 C 279.292969 133.738281 279.867188 132.242188 280.402344 130.730469 C 280.9375 129.21875 281.4375 127.691406 281.898438 126.15625 C 282.363281 124.621094 282.785156 123.074219 283.171875 121.515625 C 283.558594 119.957031 283.90625 118.394531 284.21875 116.816406 C 284.527344 115.242188 284.800781 113.664062 285.03125 112.074219 C 285.265625 110.488281 285.457031 108.894531 285.613281 107.296875 C 285.769531 105.703125 285.882812 104.101562 285.960938 102.5 C 286.039062 100.898438 286.074219 99.292969 286.074219 97.6875 C 286.074219 96.082031 286.03125 94.480469 285.953125 92.878906 C 285.875 91.273438 285.753906 89.675781 285.597656 88.078125 C 285.4375 86.480469 285.242188 84.890625 285.007812 83.304688 C 284.769531 81.714844 284.496094 80.136719 284.183594 78.5625 C 283.871094 76.988281 283.519531 75.421875 283.132812 73.867188 C 282.742188 72.308594 282.316406 70.761719 281.851562 69.226562 C 281.386719 67.691406 280.882812 66.167969 280.34375 64.65625 C 279.804688 63.144531 279.230469 61.648438 278.617188 60.164062 C 278.003906 58.683594 277.359375 57.214844 276.671875 55.765625 C 275.988281 54.3125 275.269531 52.878906 274.515625 51.460938 C 273.761719 50.046875 272.976562 48.648438 272.152344 47.269531 C 271.332031 45.894531 270.476562 44.535156 269.585938 43.199219 C 268.699219 41.863281 267.777344 40.550781 266.828125 39.257812 C 265.875 37.96875 264.890625 36.699219 263.875 35.457031 C 262.863281 34.214844 261.816406 32.996094 260.742188 31.804688 C 259.667969 30.613281 258.566406 29.445312 257.4375 28.308594 C 257.15625 28.023438 256.851562 27.769531 256.523438 27.546875 C 256.195312 27.324219 255.84375 27.136719 255.480469 26.980469 C 255.113281 26.824219 254.734375 26.707031 254.34375 26.628906 C 253.953125 26.550781 253.558594 26.507812 253.160156 26.503906 C 252.761719 26.503906 252.367188 26.539062 251.976562 26.617188 C 251.585938 26.691406 251.207031 26.804688 250.839844 26.957031 C 250.472656 27.105469 250.121094 27.292969 249.789062 27.511719 C 249.457031 27.730469 249.148438 27.980469 248.867188 28.261719 C 248.585938 28.542969 248.332031 28.847656 248.109375 29.179688 C 247.886719 29.507812 247.699219 29.859375 247.546875 30.226562 C 247.394531 30.59375 247.277344 30.972656 247.199219 31.363281 C 247.121094 31.753906 247.082031 32.148438 247.082031 32.542969 C 247.082031 32.941406 247.121094 33.335938 247.195312 33.726562 C 247.273438 34.117188 247.390625 34.496094 247.542969 34.867188 C 247.695312 35.234375 247.878906 35.582031 248.101562 35.914062 C 248.324219 36.246094 248.574219 36.550781 248.855469 36.832031 Z M 222.324219 63.347656 C 222.042969 63.0625 221.792969 62.757812 221.570312 62.425781 C 221.351562 62.09375 221.164062 61.746094 221.011719 61.375 C 220.859375 61.007812 220.742188 60.628906 220.667969 60.238281 C 220.589844 59.847656 220.550781 59.453125 220.550781 59.054688 C 220.554688 58.65625 220.59375 58.261719 220.671875 57.871094 C 220.75 57.480469 220.867188 57.101562 221.023438 56.734375 C 221.175781 56.367188 221.363281 56.015625 221.585938 55.6875 C 221.808594 55.355469 222.0625 55.050781 222.347656 54.769531 C 222.628906 54.492188 222.9375 54.242188 223.269531 54.019531 C 223.601562 53.800781 223.953125 53.617188 224.324219 53.46875 C 224.691406 53.316406 225.070312 53.203125 225.464844 53.128906 C 225.855469 53.054688 226.25 53.019531 226.648438 53.023438 C 227.046875 53.027344 227.441406 53.066406 227.832031 53.148438 C 228.222656 53.230469 228.597656 53.347656 228.964844 53.503906 C 229.332031 53.660156 229.679688 53.851562 230.007812 54.074219 C 230.339844 54.300781 230.640625 54.554688 230.921875 54.839844 C 232.3125 56.25 233.636719 57.722656 234.886719 59.261719 C 236.136719 60.800781 237.308594 62.394531 238.402344 64.046875 C 239.496094 65.699219 240.507812 67.398438 241.4375 69.148438 C 242.367188 70.902344 243.207031 72.691406 243.960938 74.523438 C 244.714844 76.355469 245.378906 78.222656 245.953125 80.117188 C 246.527344 82.015625 247.003906 83.9375 247.390625 85.878906 C 247.777344 87.824219 248.066406 89.78125 248.261719 91.753906 C 248.457031 93.726562 248.558594 95.703125 248.558594 97.683594 C 248.5625 99.667969 248.46875 101.644531 248.277344 103.617188 C 248.089844 105.589844 247.804688 107.546875 247.425781 109.492188 C 247.042969 111.4375 246.570312 113.359375 246.003906 115.257812 C 245.433594 117.15625 244.777344 119.023438 244.027344 120.859375 C 243.277344 122.691406 242.441406 124.488281 241.515625 126.238281 C 240.59375 127.992188 239.585938 129.699219 238.496094 131.351562 C 237.40625 133.007812 236.238281 134.605469 234.992188 136.148438 C 233.75 137.6875 232.429688 139.167969 231.042969 140.578125 C 230.761719 140.863281 230.460938 141.117188 230.132812 141.339844 C 229.804688 141.5625 229.457031 141.75 229.089844 141.90625 C 228.726562 142.0625 228.347656 142.179688 227.960938 142.257812 C 227.570312 142.339844 227.175781 142.382812 226.78125 142.386719 C 226.382812 142.386719 225.988281 142.351562 225.601562 142.277344 C 225.210938 142.203125 224.832031 142.09375 224.464844 141.945312 C 224.09375 141.792969 223.746094 141.609375 223.414062 141.394531 C 223.082031 141.175781 222.773438 140.925781 222.492188 140.648438 C 222.207031 140.371094 221.953125 140.066406 221.730469 139.738281 C 221.507812 139.410156 221.320312 139.0625 221.164062 138.699219 C 221.007812 138.332031 220.890625 137.957031 220.8125 137.566406 C 220.730469 137.175781 220.6875 136.785156 220.683594 136.386719 C 220.683594 135.992188 220.71875 135.597656 220.792969 135.207031 C 220.867188 134.816406 220.976562 134.4375 221.128906 134.070312 C 221.277344 133.703125 221.460938 133.351562 221.675781 133.019531 C 221.894531 132.6875 222.144531 132.382812 222.421875 132.097656 C 223.53125 130.960938 224.582031 129.773438 225.574219 128.535156 C 226.566406 127.296875 227.5 126.015625 228.367188 124.6875 C 229.238281 123.359375 230.039062 121.992188 230.777344 120.585938 C 231.511719 119.179688 232.179688 117.742188 232.777344 116.269531 C 233.375 114.800781 233.898438 113.304688 234.351562 111.78125 C 234.804688 110.261719 235.179688 108.71875 235.484375 107.160156 C 235.789062 105.605469 236.015625 104.035156 236.167969 102.453125 C 236.316406 100.875 236.390625 99.289062 236.390625 97.703125 C 236.386719 96.117188 236.308594 94.53125 236.152344 92.953125 C 235.996094 91.375 235.765625 89.804688 235.457031 88.246094 C 235.152344 86.691406 234.769531 85.152344 234.3125 83.632812 C 233.855469 82.109375 233.328125 80.617188 232.726562 79.148438 C 232.125 77.679688 231.453125 76.242188 230.710938 74.835938 C 229.972656 73.433594 229.164062 72.070312 228.292969 70.742188 C 227.417969 69.417969 226.484375 68.136719 225.488281 66.902344 C 224.492188 65.664062 223.4375 64.480469 222.324219 63.347656 Z M 222.324219 63.347656 " clip-rule="evenodd"/></clipPath><linearGradient x1="256" gradientTransform="matrix(0.732422, 0, 0, 0.732422, 0.0000045, 0)" y1="512.000421" x2="256.00101" gradientUnits="userSpaceOnUse" y2="-0.000448006" id="412028f2a0"><stop stop-opacity="1" stop-color="rgb(0%, 47.799683%, 71.398926%)" offset="0"/><stop stop-opacity="1" stop-color="rgb(0%, 47.903442%, 71.554565%)" offset="0.00000175003"/><stop stop-opacity="1" stop-color="rgb(0%, 48.008728%, 71.711731%)" offset="0.015625"/><stop stop-opacity="1" stop-color="rgb(0%, 48.112488%, 71.867371%)" offset="0.03125"/><stop stop-opacity="1" stop-color="rgb(0%, 48.321533%, 72.180176%)" offset="0.046875"/><stop stop-opacity="1" stop-color="rgb(0%, 48.532104%, 72.492981%)" offset="0.0625"/><stop stop-opacity="1" stop-color="rgb(0%, 48.74115%, 72.80426%)" offset="0.078125"/><stop stop-opacity="1" stop-color="rgb(0%, 48.950195%, 73.117065%)" offset="0.09375"/><stop stop-opacity="1" stop-color="rgb(0%, 49.159241%, 73.429871%)" offset="0.109375"/><stop stop-opacity="1" stop-color="rgb(0%, 49.368286%, 73.742676%)" offset="0.125"/><stop stop-opacity="1" stop-color="rgb(0%, 49.578857%, 74.055481%)" offset="0.140625"/><stop stop-opacity="1" stop-color="rgb(0%, 49.787903%, 74.36676%)" offset="0.15625"/><stop stop-opacity="1" stop-color="rgb(0%, 49.996948%, 74.679565%)" offset="0.171875"/><stop stop-opacity="1" stop-color="rgb(0%, 50.205994%, 74.992371%)" offset="0.1875"/><stop stop-opacity="1" stop-color="rgb(0%, 50.416565%, 75.305176%)" offset="0.203125"/><stop stop-opacity="1" stop-color="rgb(0%, 50.62561%, 75.617981%)" offset="0.21875"/><stop stop-opacity="1" stop-color="rgb(0%, 50.834656%, 75.92926%)" offset="0.234375"/><stop stop-opacity="1" stop-color="rgb(0%, 51.043701%, 76.242065%)" offset="0.25"/><stop stop-opacity="1" stop-color="rgb(0%, 51.252747%, 76.554871%)" offset="0.265625"/><stop stop-opacity="1" stop-color="rgb(0%, 51.463318%, 76.867676%)" offset="0.28125"/><stop stop-opacity="1" stop-color="rgb(0%, 51.672363%, 77.180481%)" offset="0.296875"/><stop stop-opacity="1" stop-color="rgb(0%, 51.881409%, 77.49176%)" offset="0.3125"/><stop stop-opacity="1" stop-color="rgb(0%, 52.090454%, 77.804565%)" offset="0.328125"/><stop stop-opacity="1" stop-color="rgb(0%, 52.2995%, 78.117371%)" offset="0.34375"/><stop stop-opacity="1" stop-color="rgb(0%, 52.510071%, 78.430176%)" offset="0.359375"/><stop stop-opacity="1" stop-color="rgb(0%, 52.719116%, 78.742981%)" offset="0.375"/><stop stop-opacity="1" stop-color="rgb(0%, 52.928162%, 79.05426%)" offset="0.390625"/><stop stop-opacity="1" stop-color="rgb(0%, 53.137207%, 79.367065%)" offset="0.40625"/><stop stop-opacity="1" stop-color="rgb(0%, 53.347778%, 79.679871%)" offset="0.421875"/><stop stop-opacity="1" stop-color="rgb(0%, 53.556824%, 79.992676%)" offset="0.4375"/><stop stop-opacity="1" stop-color="rgb(0%, 53.765869%, 80.305481%)" offset="0.453125"/><stop stop-opacity="1" stop-color="rgb(0%, 53.974915%, 80.61676%)" offset="0.46875"/><stop stop-opacity="1" stop-color="rgb(0%, 54.18396%, 80.929565%)" offset="0.484375"/><stop stop-opacity="1" stop-color="rgb(0%, 54.394531%, 81.242371%)" offset="0.5"/><stop stop-opacity="1" stop-color="rgb(0%, 54.603577%, 81.555176%)" offset="0.515625"/><stop stop-opacity="1" stop-color="rgb(0%, 54.812622%, 81.867981%)" offset="0.53125"/><stop stop-opacity="1" stop-color="rgb(0%, 55.021667%, 82.17926%)" offset="0.546875"/><stop stop-opacity="1" stop-color="rgb(0%, 55.230713%, 82.492065%)" offset="0.5625"/><stop stop-opacity="1" stop-color="rgb(0%, 55.441284%, 82.804871%)" offset="0.578125"/><stop stop-opacity="1" stop-color="rgb(0%, 55.65033%, 83.117676%)" offset="0.59375"/><stop stop-opacity="1" stop-color="rgb(0%, 55.859375%, 83.430481%)" offset="0.609375"/><stop stop-opacity="1" stop-color="rgb(0%, 56.06842%, 83.74176%)" offset="0.625"/><stop stop-opacity="1" stop-color="rgb(0%, 56.278992%, 84.054565%)" offset="0.640625"/><stop stop-opacity="1" stop-color="rgb(0%, 56.488037%, 84.367371%)" offset="0.65625"/><stop stop-opacity="1" stop-color="rgb(0%, 56.697083%, 84.680176%)" offset="0.671875"/><stop stop-opacity="1" stop-color="rgb(0%, 56.906128%, 84.992981%)" offset="0.6875"/><stop stop-opacity="1" stop-color="rgb(0%, 57.115173%, 85.30426%)" offset="0.703125"/><stop stop-opacity="1" stop-color="rgb(0%, 57.325745%, 85.617065%)" offset="0.71875"/><stop stop-opacity="1" stop-color="rgb(0%, 57.53479%, 85.929871%)" offset="0.734375"/><stop stop-opacity="1" stop-color="rgb(0%, 57.743835%, 86.242676%)" offset="0.75"/><stop stop-opacity="1" stop-color="rgb(0%, 57.952881%, 86.555481%)" offset="0.765625"/><stop stop-opacity="1" stop-color="rgb(0%, 58.163452%, 86.86676%)" offset="0.78125"/><stop stop-opacity="1" stop-color="rgb(0%, 58.372498%, 87.179565%)" offset="0.796875"/><stop stop-opacity="1" stop-color="rgb(0%, 58.581543%, 87.492371%)" offset="0.8125"/><stop stop-opacity="1" stop-color="rgb(0%, 58.790588%, 87.805176%)" offset="0.828125"/><stop stop-opacity="1" stop-color="rgb(0%, 58.999634%, 88.117981%)" offset="0.84375"/><stop stop-opacity="1" stop-color="rgb(0%, 59.210205%, 88.42926%)" offset="0.859375"/><stop stop-opacity="1" stop-color="rgb(0%, 59.41925%, 88.742065%)" offset="0.875"/><stop stop-opacity="1" stop-color="rgb(0%, 59.628296%, 89.054871%)" offset="0.890625"/><stop stop-opacity="1" stop-color="rgb(0%, 59.837341%, 89.367676%)" offset="0.90625"/><stop stop-opacity="1" stop-color="rgb(0%, 60.046387%, 89.680481%)" offset="0.921875"/><stop stop-opacity="1" stop-color="rgb(0%, 60.256958%, 89.99176%)" offset="0.9375"/><stop stop-opacity="1" stop-color="rgb(0%, 60.466003%, 90.304565%)" offset="0.953125"/><stop stop-opacity="1" stop-color="rgb(0%, 60.675049%, 90.617371%)" offset="0.96875"/><stop stop-opacity="1" stop-color="rgb(0%, 60.884094%, 90.930176%)" offset="0.984375"/><stop stop-opacity="1" stop-color="rgb(0%, 61.094666%, 91.242981%)" offset="0.999998"/><stop stop-opacity="1" stop-color="rgb(0%, 61.199951%, 91.398621%)" offset="1"/></linearGradient></defs><g clip-path="url(#2875696883)"><g clip-path="url(#015454c2b9)"><path fill="url(#412028f2a0)" d="M 21.160156 0 L 21.160156 375 L 353.839844 375 L 353.839844 0 Z M 21.160156 0 " fill-rule="nonzero"/></g></g></svg>