<svg xmlns="http://www.w3.org/2000/svg" xmlns:xlink="http://www.w3.org/1999/xlink" width="500" zoomAndPan="magnify" viewBox="0 0 375 374.999991" height="500" preserveAspectRatio="xMidYMid meet" version="1.0"><defs><clipPath id="740ef71d66"><path d="M 6 0 L 369 0 L 369 375 L 6 375 Z M 6 0 " clip-rule="nonzero"/></clipPath><clipPath id="a20f7b7589"><path d="M 283.152344 269.335938 L 244.988281 253.402344 L 206.824219 269.335938 L 206.824219 315.511719 C 206.824219 326.316406 221.984375 346.589844 244.988281 353.445312 C 267.996094 346.589844 283.152344 326.316406 283.152344 315.511719 Z M 219.457031 353.527344 C 205.425781 359.699219 185.984375 363.28125 165.503906 363.28125 C 122.117188 363.28125 91.878906 348.003906 91.878906 334.292969 L 91.878906 308.957031 C 96.507812 312.589844 101.53125 315.550781 106.949219 317.839844 C 122.6875 324.742188 143.480469 328.542969 165.503906 328.542969 C 176.117188 328.574219 186.648438 327.652344 197.09375 325.78125 C 199.375 332.011719 203.554688 338.519531 209.300781 344.589844 C 212.417969 347.871094 215.800781 350.851562 219.453125 353.523438 Z M 239.128906 194.925781 C 239.128906 181.21875 208.894531 165.945312 165.503906 165.945312 C 122.117188 165.945312 91.890625 181.21875 91.882812 194.917969 L 91.882812 194.933594 C 91.894531 208.644531 122.128906 223.910156 165.503906 223.910156 C 208.894531 223.910156 239.128906 208.636719 239.128906 194.925781 Z M 239.128906 243.148438 L 198.707031 260.023438 C 198.171875 260.246094 197.683594 260.542969 197.238281 260.910156 C 196.789062 261.277344 196.40625 261.699219 196.085938 262.183594 C 195.765625 262.664062 195.523438 263.179688 195.355469 263.734375 C 195.1875 264.285156 195.105469 264.851562 195.105469 265.429688 L 195.105469 267.765625 C 185.316406 269.53125 175.449219 270.398438 165.503906 270.367188 C 122.125 270.367188 91.890625 255.097656 91.878906 241.390625 L 91.878906 216.042969 C 96.503906 219.679688 101.527344 222.640625 106.949219 224.925781 C 122.6875 231.824219 143.480469 235.625 165.503906 235.625 C 187.527344 235.625 208.324219 231.824219 224.0625 224.925781 C 229.480469 222.640625 234.503906 219.675781 239.128906 216.039062 Z M 195.105469 314.230469 L 195.105469 279.667969 C 185.304688 281.300781 175.4375 282.109375 165.503906 282.085938 C 143.480469 282.085938 122.6875 278.285156 106.949219 271.386719 C 101.53125 269.09375 96.507812 266.128906 91.882812 262.5 L 91.882812 287.839844 C 91.886719 301.550781 122.121094 316.820312 165.507812 316.820312 C 175.449219 316.851562 185.316406 315.988281 195.105469 314.230469 Z M 356.117188 159.769531 C 357.011719 161.339844 357.859375 162.9375 358.65625 164.558594 C 359.457031 166.179688 360.207031 167.824219 360.910156 169.488281 C 361.613281 171.15625 362.265625 172.839844 362.871094 174.542969 C 363.472656 176.25 364.027344 177.96875 364.527344 179.707031 C 365.03125 181.441406 365.480469 183.191406 365.882812 184.953125 C 366.28125 186.71875 366.628906 188.492188 366.925781 190.273438 C 367.21875 192.058594 367.460938 193.847656 367.652344 195.648438 C 367.84375 197.445312 367.980469 199.246094 368.066406 201.050781 C 368.148438 202.859375 368.179688 204.664062 368.15625 206.472656 C 368.136719 208.28125 368.0625 210.085938 367.933594 211.890625 C 367.804688 213.691406 367.625 215.492188 367.390625 217.28125 C 367.15625 219.074219 366.871094 220.859375 366.53125 222.636719 C 366.195312 224.410156 365.804688 226.175781 365.359375 227.929688 C 364.917969 229.683594 364.425781 231.421875 363.878906 233.144531 C 363.335938 234.867188 362.742188 236.574219 362.097656 238.261719 C 361.453125 239.953125 360.757812 241.621094 360.015625 243.269531 C 359.273438 244.917969 358.480469 246.542969 357.644531 248.144531 C 356.804688 249.746094 355.921875 251.320312 354.988281 252.871094 C 354.058594 254.421875 353.082031 255.941406 352.0625 257.433594 C 351.042969 258.925781 349.976562 260.386719 348.871094 261.816406 C 347.765625 263.246094 346.617188 264.644531 345.429688 266.003906 C 344.242188 267.367188 343.015625 268.695312 341.75 269.984375 C 340.480469 271.273438 339.179688 272.527344 337.839844 273.738281 C 336.5 274.953125 335.125 276.125 333.714844 277.257812 C 332.308594 278.390625 330.867188 279.484375 329.394531 280.53125 C 327.921875 281.578125 326.417969 282.582031 324.886719 283.542969 C 323.355469 284.503906 321.796875 285.417969 320.210938 286.285156 C 318.625 287.152344 317.015625 287.976562 315.378906 288.75 C 313.746094 289.523438 312.089844 290.246094 310.414062 290.921875 C 308.738281 291.597656 307.042969 292.226562 305.328125 292.804688 C 303.617188 293.378906 301.886719 293.90625 300.144531 294.378906 C 298.398438 294.855469 296.640625 295.277344 294.875 295.652344 L 294.875 315.511719 C 294.875 324.453125 289.695312 335.054688 280.671875 344.589844 C 276.023438 349.515625 270.796875 353.726562 264.996094 357.226562 C 259.195312 360.722656 253.03125 363.378906 246.503906 365.191406 C 245.496094 365.460938 244.484375 365.460938 243.472656 365.191406 C 239.289062 364.0625 235.246094 362.550781 231.34375 360.664062 C 215.296875 369.792969 191.460938 375 165.503906 375 C 143.480469 375 122.6875 371.199219 106.949219 364.300781 C 89.675781 356.726562 80.160156 346.070312 80.160156 334.289062 L 80.160156 295.101562 C 78.265625 294.65625 76.386719 294.148438 74.523438 293.585938 C 72.660156 293.019531 70.816406 292.394531 68.992188 291.714844 C 67.167969 291.03125 65.367188 290.292969 63.589844 289.496094 C 61.8125 288.699219 60.0625 287.847656 58.339844 286.941406 C 56.617188 286.03125 54.925781 285.070312 53.261719 284.058594 C 51.601562 283.042969 49.972656 281.976562 48.378906 280.855469 C 46.78125 279.738281 45.226562 278.570312 43.707031 277.355469 C 42.1875 276.136719 40.707031 274.871094 39.265625 273.5625 C 37.824219 272.25 36.429688 270.894531 35.074219 269.496094 C 33.722656 268.09375 32.414062 266.652344 31.152344 265.171875 C 29.886719 263.6875 28.675781 262.167969 27.507812 260.605469 C 26.34375 259.046875 25.226562 257.453125 24.164062 255.820312 C 23.097656 254.191406 22.085938 252.527344 21.128906 250.832031 C 20.167969 249.136719 19.265625 247.414062 18.414062 245.664062 C 17.566406 243.910156 16.773438 242.132812 16.035156 240.328125 C 15.296875 238.527344 14.621094 236.703125 14 234.859375 C 13.378906 233.011719 12.816406 231.148438 12.3125 229.265625 C 11.808594 227.386719 11.367188 225.488281 10.984375 223.582031 C 10.601562 221.671875 10.28125 219.75 10.019531 217.820312 C 9.761719 215.890625 9.5625 213.957031 9.421875 212.011719 C 9.285156 210.070312 9.210938 208.125 9.195312 206.179688 C 9.179688 204.230469 9.230469 202.285156 9.339844 200.339844 C 9.449219 198.394531 9.617188 196.457031 9.851562 194.523438 C 10.082031 192.589844 10.378906 190.667969 10.730469 188.75 C 11.085938 186.835938 11.5 184.933594 11.976562 183.046875 C 12.453125 181.15625 12.988281 179.285156 13.582031 177.433594 C 14.175781 175.578125 14.828125 173.742188 15.539062 171.929688 C 16.246094 170.117188 17.015625 168.328125 17.839844 166.5625 C 18.664062 164.800781 19.542969 163.0625 20.476562 161.355469 C 21.410156 159.644531 22.398438 157.96875 23.4375 156.324219 C 24.480469 154.675781 25.570312 153.066406 26.714844 151.488281 C 27.859375 149.910156 29.050781 148.371094 30.289062 146.871094 L 23.03125 139.613281 C 21.742188 138.320312 20.515625 136.96875 19.355469 135.554688 C 18.195312 134.144531 17.109375 132.675781 16.09375 131.15625 C 15.078125 129.640625 14.140625 128.074219 13.277344 126.460938 C 12.417969 124.851562 11.636719 123.199219 10.9375 121.511719 C 10.238281 119.824219 9.625 118.105469 9.09375 116.355469 C 8.5625 114.609375 8.121094 112.835938 7.761719 111.046875 C 7.40625 109.253906 7.140625 107.449219 6.960938 105.628906 C 6.78125 103.8125 6.691406 101.988281 6.691406 100.160156 C 6.691406 98.332031 6.78125 96.511719 6.960938 94.691406 C 7.140625 92.875 7.40625 91.070312 7.761719 89.277344 C 8.121094 87.484375 8.5625 85.714844 9.09375 83.964844 C 9.625 82.214844 10.238281 80.5 10.9375 78.808594 C 11.636719 77.121094 12.417969 75.472656 13.28125 73.859375 C 14.140625 72.25 15.078125 70.683594 16.09375 69.164062 C 17.109375 67.644531 18.195312 66.179688 19.355469 64.765625 C 20.515625 63.355469 21.742188 62 23.03125 60.710938 C 24.324219 59.417969 25.675781 58.191406 27.089844 57.03125 C 28.503906 55.875 29.96875 54.785156 31.488281 53.769531 C 33.007812 52.753906 34.574219 51.816406 36.183594 50.957031 C 37.796875 50.09375 39.445312 49.3125 41.132812 48.613281 C 42.820312 47.914062 44.539062 47.300781 46.289062 46.769531 C 48.039062 46.238281 49.808594 45.796875 51.601562 45.441406 C 53.390625 45.082031 55.199219 44.816406 57.015625 44.636719 C 58.835938 44.457031 60.65625 44.367188 62.484375 44.367188 C 64.3125 44.367188 66.136719 44.457031 67.953125 44.636719 C 69.773438 44.816406 71.578125 45.082031 73.371094 45.441406 C 75.160156 45.796875 76.933594 46.238281 78.679688 46.769531 C 80.429688 47.300781 82.148438 47.914062 83.835938 48.613281 C 85.523438 49.316406 87.175781 50.09375 88.785156 50.957031 C 90.398438 51.816406 91.960938 52.757812 93.480469 53.769531 C 95 54.785156 96.46875 55.875 97.878906 57.03125 C 99.292969 58.191406 100.644531 59.417969 101.9375 60.710938 L 102.082031 60.851562 C 103.542969 56.871094 105.265625 53.007812 107.253906 49.265625 C 109.238281 45.519531 111.472656 41.925781 113.949219 38.484375 C 116.425781 35.042969 119.125 31.789062 122.046875 28.714844 C 124.964844 25.640625 128.082031 22.78125 131.394531 20.136719 C 135.4375 16.910156 139.722656 14.042969 144.25 11.539062 C 148.777344 9.035156 153.480469 6.925781 158.359375 5.210938 C 163.242188 3.496094 168.230469 2.203125 173.328125 1.328125 C 178.429688 0.453125 183.5625 0.0117188 188.738281 0 C 193.648438 -0.0078125 198.53125 0.375 203.382812 1.15625 C 208.230469 1.933594 212.988281 3.097656 217.652344 4.648438 C 222.3125 6.195312 226.820312 8.105469 231.175781 10.382812 C 235.527344 12.660156 239.671875 15.269531 243.605469 18.214844 C 247.09375 20.824219 250.386719 23.664062 253.480469 26.730469 C 256.574219 29.800781 259.441406 33.070312 262.078125 36.539062 C 264.714844 40.007812 267.101562 43.640625 269.230469 47.445312 C 271.359375 51.246094 273.214844 55.175781 274.796875 59.238281 C 277.042969 58.851562 279.304688 58.621094 281.582031 58.542969 C 283.859375 58.464844 286.128906 58.542969 288.398438 58.773438 C 290.664062 59.007812 292.90625 59.390625 295.121094 59.925781 C 297.332031 60.464844 299.5 61.148438 301.621094 61.980469 C 303.742188 62.8125 305.796875 63.785156 307.789062 64.898438 C 309.777344 66.011719 311.679688 67.253906 313.5 68.625 C 315.320312 69.996094 317.035156 71.484375 318.652344 73.09375 C 320.269531 74.699219 321.769531 76.40625 323.152344 78.214844 C 324.539062 80.027344 325.792969 81.921875 326.917969 83.902344 C 328.042969 85.882812 329.03125 87.933594 329.875 90.046875 C 330.722656 92.164062 331.421875 94.328125 331.972656 96.539062 C 332.527344 98.75 332.925781 100.988281 333.171875 103.253906 C 333.417969 105.515625 333.511719 107.789062 333.449219 110.066406 C 333.386719 112.34375 333.171875 114.605469 332.800781 116.855469 C 332.429688 119.105469 331.90625 121.316406 331.234375 123.492188 C 330.5625 125.671875 329.746094 127.792969 328.785156 129.859375 C 334.378906 133.785156 339.484375 138.269531 344.09375 143.316406 C 348.707031 148.359375 352.714844 153.84375 356.121094 159.769531 Z M 237.902344 307.214844 L 261.640625 286.683594 C 261.929688 286.425781 262.242188 286.199219 262.578125 286.003906 C 262.914062 285.808594 263.265625 285.648438 263.632812 285.519531 C 264 285.394531 264.375 285.304688 264.757812 285.253906 C 265.144531 285.203125 265.53125 285.1875 265.917969 285.214844 C 266.304688 285.238281 266.6875 285.304688 267.0625 285.402344 C 267.4375 285.503906 267.796875 285.640625 268.144531 285.816406 C 268.492188 285.988281 268.820312 286.191406 269.125 286.429688 C 269.433594 286.667969 269.714844 286.933594 269.96875 287.226562 C 270.222656 287.523438 270.445312 287.835938 270.636719 288.175781 C 270.828125 288.511719 270.984375 288.867188 271.105469 289.234375 C 271.226562 289.605469 271.308594 289.980469 271.355469 290.367188 C 271.402344 290.753906 271.40625 291.140625 271.378906 291.527344 C 271.347656 291.914062 271.277344 292.292969 271.171875 292.667969 C 271.066406 293.039062 270.921875 293.398438 270.746094 293.746094 C 270.566406 294.089844 270.355469 294.414062 270.113281 294.71875 C 269.871094 295.019531 269.601562 295.296875 269.304688 295.546875 L 241.144531 319.902344 C 240.855469 320.152344 240.542969 320.371094 240.207031 320.5625 C 239.875 320.753906 239.523438 320.90625 239.160156 321.03125 C 238.796875 321.152344 238.421875 321.234375 238.042969 321.28125 C 237.660156 321.332031 237.277344 321.339844 236.894531 321.3125 C 236.511719 321.285156 236.136719 321.222656 235.765625 321.121094 C 235.394531 321.019531 235.039062 320.882812 234.695312 320.710938 C 234.351562 320.539062 234.027344 320.335938 233.722656 320.101562 C 233.417969 319.867188 233.140625 319.605469 232.886719 319.316406 L 220.078125 304.558594 C 219.828125 304.269531 219.605469 303.957031 219.417969 303.625 C 219.226562 303.289062 219.070312 302.941406 218.949219 302.574219 C 218.828125 302.210938 218.742188 301.835938 218.695312 301.457031 C 218.648438 301.074219 218.636719 300.691406 218.664062 300.308594 C 218.691406 299.925781 218.753906 299.546875 218.855469 299.175781 C 218.957031 298.804688 219.09375 298.449219 219.265625 298.105469 C 219.4375 297.761719 219.640625 297.4375 219.878906 297.132812 C 220.113281 296.828125 220.375 296.550781 220.667969 296.300781 C 220.957031 296.046875 221.269531 295.824219 221.601562 295.636719 C 221.9375 295.445312 222.285156 295.289062 222.648438 295.167969 C 223.015625 295.042969 223.386719 294.960938 223.769531 294.910156 C 224.152344 294.863281 224.53125 294.851562 224.917969 294.878906 C 225.300781 294.90625 225.675781 294.96875 226.046875 295.070312 C 226.417969 295.171875 226.777344 295.308594 227.121094 295.476562 C 227.464844 295.648438 227.789062 295.851562 228.09375 296.089844 C 228.398438 296.324219 228.675781 296.585938 228.929688 296.875 Z M 237.902344 307.214844 " clip-rule="evenodd"/></clipPath><linearGradient x1="255.99899" gradientTransform="matrix(0.732422, 0, 0, 0.732422, 0.0000045, 0)" y1="512.00046" x2="256" gradientUnits="userSpaceOnUse" y2="-0.000486632" id="a556389fd4"><stop stop-opacity="1" stop-color="rgb(0%, 47.799683%, 71.398926%)" offset="0"/><stop stop-opacity="1" stop-color="rgb(0%, 47.903442%, 71.554565%)" offset="0.00000190158"/><stop stop-opacity="1" stop-color="rgb(0%, 48.008728%, 71.711731%)" offset="0.015625"/><stop stop-opacity="1" stop-color="rgb(0%, 48.112488%, 71.867371%)" offset="0.03125"/><stop stop-opacity="1" stop-color="rgb(0%, 48.321533%, 72.180176%)" offset="0.046875"/><stop stop-opacity="1" stop-color="rgb(0%, 48.532104%, 72.492981%)" offset="0.0625"/><stop stop-opacity="1" stop-color="rgb(0%, 48.74115%, 72.80426%)" offset="0.078125"/><stop stop-opacity="1" stop-color="rgb(0%, 48.950195%, 73.117065%)" offset="0.09375"/><stop stop-opacity="1" stop-color="rgb(0%, 49.159241%, 73.429871%)" offset="0.109375"/><stop stop-opacity="1" stop-color="rgb(0%, 49.368286%, 73.742676%)" offset="0.125"/><stop stop-opacity="1" stop-color="rgb(0%, 49.578857%, 74.055481%)" offset="0.140625"/><stop stop-opacity="1" stop-color="rgb(0%, 49.787903%, 74.36676%)" offset="0.15625"/><stop stop-opacity="1" stop-color="rgb(0%, 49.996948%, 74.679565%)" offset="0.171875"/><stop stop-opacity="1" stop-color="rgb(0%, 50.205994%, 74.992371%)" offset="0.1875"/><stop stop-opacity="1" stop-color="rgb(0%, 50.416565%, 75.305176%)" offset="0.203125"/><stop stop-opacity="1" stop-color="rgb(0%, 50.62561%, 75.617981%)" offset="0.21875"/><stop stop-opacity="1" stop-color="rgb(0%, 50.834656%, 75.92926%)" offset="0.234375"/><stop stop-opacity="1" stop-color="rgb(0%, 51.043701%, 76.242065%)" offset="0.25"/><stop stop-opacity="1" stop-color="rgb(0%, 51.252747%, 76.554871%)" offset="0.265625"/><stop stop-opacity="1" stop-color="rgb(0%, 51.463318%, 76.867676%)" offset="0.28125"/><stop stop-opacity="1" stop-color="rgb(0%, 51.672363%, 77.180481%)" offset="0.296875"/><stop stop-opacity="1" stop-color="rgb(0%, 51.881409%, 77.49176%)" offset="0.3125"/><stop stop-opacity="1" stop-color="rgb(0%, 52.090454%, 77.804565%)" offset="0.328125"/><stop stop-opacity="1" stop-color="rgb(0%, 52.2995%, 78.117371%)" offset="0.34375"/><stop stop-opacity="1" stop-color="rgb(0%, 52.510071%, 78.430176%)" offset="0.359375"/><stop stop-opacity="1" stop-color="rgb(0%, 52.719116%, 78.742981%)" offset="0.375"/><stop stop-opacity="1" stop-color="rgb(0%, 52.928162%, 79.05426%)" offset="0.390625"/><stop stop-opacity="1" stop-color="rgb(0%, 53.137207%, 79.367065%)" offset="0.40625"/><stop stop-opacity="1" stop-color="rgb(0%, 53.347778%, 79.679871%)" offset="0.421875"/><stop stop-opacity="1" stop-color="rgb(0%, 53.556824%, 79.992676%)" offset="0.4375"/><stop stop-opacity="1" stop-color="rgb(0%, 53.765869%, 80.305481%)" offset="0.453125"/><stop stop-opacity="1" stop-color="rgb(0%, 53.974915%, 80.61676%)" offset="0.46875"/><stop stop-opacity="1" stop-color="rgb(0%, 54.18396%, 80.929565%)" offset="0.484375"/><stop stop-opacity="1" stop-color="rgb(0%, 54.394531%, 81.242371%)" offset="0.5"/><stop stop-opacity="1" stop-color="rgb(0%, 54.603577%, 81.555176%)" offset="0.515625"/><stop stop-opacity="1" stop-color="rgb(0%, 54.812622%, 81.867981%)" offset="0.53125"/><stop stop-opacity="1" stop-color="rgb(0%, 55.021667%, 82.17926%)" offset="0.546875"/><stop stop-opacity="1" stop-color="rgb(0%, 55.230713%, 82.492065%)" offset="0.5625"/><stop stop-opacity="1" stop-color="rgb(0%, 55.441284%, 82.804871%)" offset="0.578125"/><stop stop-opacity="1" stop-color="rgb(0%, 55.65033%, 83.117676%)" offset="0.59375"/><stop stop-opacity="1" stop-color="rgb(0%, 55.859375%, 83.430481%)" offset="0.609375"/><stop stop-opacity="1" stop-color="rgb(0%, 56.06842%, 83.74176%)" offset="0.625"/><stop stop-opacity="1" stop-color="rgb(0%, 56.278992%, 84.054565%)" offset="0.640625"/><stop stop-opacity="1" stop-color="rgb(0%, 56.488037%, 84.367371%)" offset="0.65625"/><stop stop-opacity="1" stop-color="rgb(0%, 56.697083%, 84.680176%)" offset="0.671875"/><stop stop-opacity="1" stop-color="rgb(0%, 56.906128%, 84.992981%)" offset="0.6875"/><stop stop-opacity="1" stop-color="rgb(0%, 57.115173%, 85.30426%)" offset="0.703125"/><stop stop-opacity="1" stop-color="rgb(0%, 57.325745%, 85.617065%)" offset="0.71875"/><stop stop-opacity="1" stop-color="rgb(0%, 57.53479%, 85.929871%)" offset="0.734375"/><stop stop-opacity="1" stop-color="rgb(0%, 57.743835%, 86.242676%)" offset="0.75"/><stop stop-opacity="1" stop-color="rgb(0%, 57.952881%, 86.555481%)" offset="0.765625"/><stop stop-opacity="1" stop-color="rgb(0%, 58.163452%, 86.86676%)" offset="0.78125"/><stop stop-opacity="1" stop-color="rgb(0%, 58.372498%, 87.179565%)" offset="0.796875"/><stop stop-opacity="1" stop-color="rgb(0%, 58.581543%, 87.492371%)" offset="0.8125"/><stop stop-opacity="1" stop-color="rgb(0%, 58.790588%, 87.805176%)" offset="0.828125"/><stop stop-opacity="1" stop-color="rgb(0%, 58.999634%, 88.117981%)" offset="0.84375"/><stop stop-opacity="1" stop-color="rgb(0%, 59.210205%, 88.42926%)" offset="0.859375"/><stop stop-opacity="1" stop-color="rgb(0%, 59.41925%, 88.742065%)" offset="0.875"/><stop stop-opacity="1" stop-color="rgb(0%, 59.628296%, 89.054871%)" offset="0.890625"/><stop stop-opacity="1" stop-color="rgb(0%, 59.837341%, 89.367676%)" offset="0.90625"/><stop stop-opacity="1" stop-color="rgb(0%, 60.046387%, 89.680481%)" offset="0.921875"/><stop stop-opacity="1" stop-color="rgb(0%, 60.256958%, 89.99176%)" offset="0.9375"/><stop stop-opacity="1" stop-color="rgb(0%, 60.466003%, 90.304565%)" offset="0.953125"/><stop stop-opacity="1" stop-color="rgb(0%, 60.675049%, 90.617371%)" offset="0.96875"/><stop stop-opacity="1" stop-color="rgb(0%, 60.884094%, 90.930176%)" offset="0.984375"/><stop stop-opacity="1" stop-color="rgb(0%, 61.094666%, 91.242981%)" offset="0.999998"/><stop stop-opacity="1" stop-color="rgb(0%, 61.199951%, 91.398621%)" offset="1"/></linearGradient></defs><g clip-path="url(#740ef71d66)"><g clip-path="url(#a20f7b7589)"><path fill="url(#a556389fd4)" d="M 6.691406 0 L 6.691406 375 L 368.179688 375 L 368.179688 0 Z M 6.691406 0 " fill-rule="nonzero"/></g></g></svg>