<svg xmlns="http://www.w3.org/2000/svg" xmlns:xlink="http://www.w3.org/1999/xlink" width="500" zoomAndPan="magnify" viewBox="0 0 375 374.999991" height="500" preserveAspectRatio="xMidYMid meet" version="1.0"><defs><clipPath id="fe2f020b4c"><path d="M 0 51 L 375 51 L 375 324 L 0 324 Z M 0 51 " clip-rule="nonzero"/></clipPath><clipPath id="ce7acd5854"><path d="M 193.355469 254.183594 L 193.355469 213.292969 L 181.640625 213.292969 L 181.640625 254.1875 C 179.871094 254.488281 178.132812 254.925781 176.429688 255.5 C 174.726562 256.070312 173.078125 256.769531 171.480469 257.59375 C 169.886719 258.421875 168.363281 259.363281 166.914062 260.425781 C 165.464844 261.484375 164.105469 262.648438 162.832031 263.921875 C 161.5625 265.191406 160.398438 266.550781 159.335938 268 C 158.277344 269.449219 157.332031 270.972656 156.507812 272.570312 C 155.683594 274.164062 154.984375 275.8125 154.410156 277.515625 C 153.839844 279.21875 153.402344 280.957031 153.097656 282.726562 L 69.339844 282.726562 C 69.21875 282.015625 69.074219 281.308594 68.910156 280.609375 C 68.746094 279.90625 68.558594 279.210938 68.351562 278.519531 C 68.144531 277.828125 67.914062 277.148438 67.664062 276.472656 C 67.414062 275.792969 67.144531 275.125 66.851562 274.46875 C 66.558594 273.808594 66.246094 273.160156 65.914062 272.519531 C 65.585938 271.878906 65.234375 271.25 64.863281 270.632812 C 64.492188 270.011719 64.101562 269.40625 63.691406 268.8125 C 63.285156 268.21875 62.859375 267.636719 62.414062 267.070312 C 61.96875 266.503906 61.507812 265.949219 61.027344 265.410156 C 60.550781 264.871094 60.054688 264.347656 59.542969 263.839844 C 59.03125 263.332031 58.507812 262.839844 57.964844 262.363281 C 57.421875 261.886719 56.867188 261.429688 56.296875 260.988281 C 55.726562 260.546875 55.144531 260.121094 54.546875 259.71875 C 53.953125 259.3125 53.34375 258.925781 52.722656 258.558594 C 52.101562 258.191406 51.472656 257.84375 50.828125 257.515625 C 50.1875 257.1875 49.535156 256.878906 48.875 256.589844 C 48.214844 256.300781 47.546875 256.035156 46.867188 255.789062 C 46.191406 255.539062 45.507812 255.316406 44.816406 255.109375 C 44.125 254.90625 43.425781 254.722656 42.722656 254.5625 C 42.019531 254.402344 41.3125 254.261719 40.601562 254.144531 C 39.890625 254.027344 39.175781 253.933594 38.460938 253.859375 C 37.742188 253.789062 37.023438 253.738281 36.304688 253.707031 C 35.582031 253.679688 34.863281 253.671875 34.140625 253.691406 C 33.421875 253.707031 32.703125 253.746094 31.984375 253.804688 C 31.265625 253.867188 30.550781 253.949219 29.835938 254.054688 C 29.121094 254.160156 28.414062 254.285156 27.707031 254.433594 C 27.003906 254.585938 26.300781 254.753906 25.609375 254.949219 C 24.914062 255.140625 24.226562 255.355469 23.542969 255.589844 C 22.863281 255.824219 22.1875 256.078125 21.523438 256.355469 C 20.855469 256.632812 20.199219 256.929688 19.554688 257.246094 C 18.90625 257.566406 18.269531 257.902344 17.640625 258.257812 C 17.015625 258.617188 16.402344 258.992188 15.796875 259.386719 C 15.195312 259.78125 14.605469 260.195312 14.027344 260.628906 C 13.449219 261.058594 12.886719 261.507812 12.335938 261.972656 C 11.785156 262.441406 11.253906 262.921875 10.734375 263.421875 C 10.210938 263.921875 9.710938 264.4375 9.222656 264.96875 C 8.734375 265.5 8.261719 266.046875 7.808594 266.605469 C 7.355469 267.164062 6.917969 267.738281 6.5 268.324219 C 6.082031 268.914062 5.679688 269.511719 5.300781 270.125 C 4.917969 270.734375 4.554688 271.359375 4.214844 271.992188 C 3.871094 272.628906 3.546875 273.273438 3.246094 273.925781 C 2.941406 274.582031 2.660156 275.242188 2.398438 275.914062 C 2.136719 276.585938 1.894531 277.265625 1.675781 277.953125 C 1.457031 278.640625 1.257812 279.332031 1.082031 280.03125 C 0.90625 280.730469 0.75 281.433594 0.617188 282.140625 C 0.484375 282.851562 0.371094 283.5625 0.28125 284.277344 C 0.195312 284.992188 0.128906 285.710938 0.0820312 286.429688 C 0.0390625 287.148438 0.015625 287.871094 0.015625 288.589844 C 0.015625 289.3125 0.0390625 290.03125 0.0820312 290.75 C 0.128906 291.472656 0.195312 292.1875 0.28125 292.902344 C 0.371094 293.621094 0.484375 294.332031 0.617188 295.039062 C 0.75 295.75 0.90625 296.453125 1.082031 297.152344 C 1.257812 297.851562 1.457031 298.542969 1.675781 299.230469 C 1.894531 299.917969 2.136719 300.59375 2.398438 301.265625 C 2.660156 301.9375 2.941406 302.601562 3.246094 303.257812 C 3.546875 303.910156 3.871094 304.554688 4.214844 305.1875 C 4.554688 305.824219 4.917969 306.445312 5.300781 307.058594 C 5.679688 307.667969 6.082031 308.269531 6.5 308.855469 C 6.917969 309.441406 7.355469 310.015625 7.808594 310.578125 C 8.261719 311.136719 8.734375 311.683594 9.222656 312.214844 C 9.710938 312.742188 10.210938 313.257812 10.734375 313.757812 C 11.253906 314.257812 11.785156 314.742188 12.335938 315.207031 C 12.886719 315.675781 13.449219 316.125 14.027344 316.554688 C 14.605469 316.988281 15.195312 317.398438 15.796875 317.792969 C 16.402344 318.191406 17.015625 318.566406 17.640625 318.921875 C 18.269531 319.28125 18.90625 319.617188 19.554688 319.933594 C 20.199219 320.25 20.855469 320.550781 21.523438 320.824219 C 22.1875 321.101562 22.863281 321.359375 23.542969 321.59375 C 24.226562 321.828125 24.914062 322.042969 25.609375 322.234375 C 26.300781 322.425781 27.003906 322.597656 27.707031 322.746094 C 28.414062 322.894531 29.121094 323.023438 29.835938 323.128906 C 30.550781 323.234375 31.265625 323.316406 31.984375 323.378906 C 32.703125 323.4375 33.421875 323.476562 34.140625 323.492188 C 34.863281 323.507812 35.582031 323.503906 36.304688 323.472656 C 37.023438 323.445312 37.742188 323.394531 38.460938 323.320312 C 39.175781 323.25 39.890625 323.152344 40.601562 323.035156 C 41.3125 322.917969 42.019531 322.78125 42.722656 322.617188 C 43.425781 322.457031 44.125 322.273438 44.816406 322.070312 C 45.507812 321.867188 46.191406 321.640625 46.867188 321.394531 C 47.546875 321.148438 48.214844 320.878906 48.875 320.59375 C 49.535156 320.304688 50.1875 319.996094 50.828125 319.667969 C 51.472656 319.339844 52.101562 318.992188 52.722656 318.625 C 53.34375 318.257812 53.953125 317.871094 54.546875 317.464844 C 55.144531 317.058594 55.726562 316.636719 56.296875 316.195312 C 56.867188 315.753906 57.421875 315.296875 57.964844 314.820312 C 58.507812 314.34375 59.03125 313.851562 59.542969 313.34375 C 60.054688 312.835938 60.550781 312.3125 61.027344 311.773438 C 61.507812 311.234375 61.96875 310.679688 62.414062 310.113281 C 62.859375 309.542969 63.285156 308.964844 63.691406 308.371094 C 64.101562 307.773438 64.492188 307.167969 64.863281 306.550781 C 65.234375 305.933594 65.585938 305.304688 65.914062 304.664062 C 66.246094 304.023438 66.558594 303.375 66.851562 302.714844 C 67.144531 302.054688 67.414062 301.386719 67.664062 300.710938 C 67.914062 300.035156 68.144531 299.351562 68.351562 298.660156 C 68.558594 297.972656 68.746094 297.277344 68.910156 296.574219 C 69.074219 295.871094 69.21875 295.164062 69.339844 294.453125 L 153.097656 294.453125 C 153.269531 295.460938 153.484375 296.457031 153.742188 297.445312 C 154 298.429688 154.300781 299.402344 154.644531 300.363281 C 154.988281 301.324219 155.375 302.269531 155.800781 303.195312 C 156.226562 304.121094 156.695312 305.027344 157.199219 305.914062 C 157.707031 306.800781 158.25 307.660156 158.832031 308.5 C 159.414062 309.339844 160.03125 310.148438 160.683594 310.933594 C 161.335938 311.71875 162.019531 312.472656 162.738281 313.195312 C 163.457031 313.917969 164.207031 314.609375 164.988281 315.269531 C 165.765625 315.925781 166.574219 316.546875 167.40625 317.136719 C 168.242188 317.722656 169.097656 318.273438 169.980469 318.785156 C 170.863281 319.296875 171.765625 319.769531 172.691406 320.203125 C 173.613281 320.636719 174.554688 321.027344 175.511719 321.378906 C 176.472656 321.726562 177.441406 322.035156 178.425781 322.300781 C 179.414062 322.566406 180.40625 322.789062 181.410156 322.964844 C 182.417969 323.144531 183.425781 323.277344 184.441406 323.367188 C 185.460938 323.457031 186.476562 323.5 187.496094 323.5 C 188.515625 323.5 189.535156 323.457031 190.550781 323.367188 C 191.566406 323.277344 192.578125 323.144531 193.582031 322.964844 C 194.585938 322.789062 195.582031 322.566406 196.566406 322.300781 C 197.550781 322.035156 198.523438 321.726562 199.480469 321.378906 C 200.441406 321.027344 201.378906 320.636719 202.304688 320.203125 C 203.226562 319.769531 204.132812 319.296875 205.011719 318.785156 C 205.894531 318.273438 206.753906 317.722656 207.585938 317.136719 C 208.421875 316.546875 209.230469 315.925781 210.007812 315.269531 C 210.789062 314.609375 211.535156 313.917969 212.253906 313.195312 C 212.972656 312.472656 213.660156 311.71875 214.3125 310.933594 C 214.964844 310.148438 215.582031 309.339844 216.164062 308.5 C 216.746094 307.660156 217.289062 306.800781 217.796875 305.914062 C 218.300781 305.027344 218.765625 304.121094 219.195312 303.195312 C 219.621094 302.269531 220.003906 301.324219 220.347656 300.363281 C 220.691406 299.402344 220.992188 298.429688 221.253906 297.445312 C 221.511719 296.457031 221.726562 295.460938 221.894531 294.453125 L 305.6875 294.453125 C 305.8125 295.164062 305.953125 295.871094 306.117188 296.574219 C 306.285156 297.277344 306.46875 297.972656 306.675781 298.660156 C 306.886719 299.351562 307.113281 300.035156 307.363281 300.710938 C 307.617188 301.386719 307.886719 302.054688 308.179688 302.714844 C 308.46875 303.375 308.78125 304.023438 309.113281 304.664062 C 309.445312 305.304688 309.796875 305.933594 310.167969 306.550781 C 310.539062 307.167969 310.929688 307.773438 311.335938 308.371094 C 311.746094 308.964844 312.171875 309.542969 312.617188 310.113281 C 313.058594 310.679688 313.523438 311.234375 314 311.773438 C 314.480469 312.3125 314.972656 312.835938 315.484375 313.34375 C 315.996094 313.851562 316.523438 314.34375 317.066406 314.820312 C 317.605469 315.296875 318.160156 315.753906 318.730469 316.195312 C 319.300781 316.636719 319.886719 317.058594 320.480469 317.464844 C 321.078125 317.871094 321.6875 318.257812 322.304688 318.625 C 322.925781 318.992188 323.558594 319.339844 324.199219 319.667969 C 324.839844 319.996094 325.492188 320.304688 326.152344 320.59375 C 326.8125 320.878906 327.484375 321.148438 328.160156 321.394531 C 328.839844 321.640625 329.523438 321.867188 330.214844 322.070312 C 330.90625 322.273438 331.601562 322.457031 332.304688 322.617188 C 333.007812 322.78125 333.714844 322.917969 334.425781 323.035156 C 335.136719 323.152344 335.851562 323.25 336.570312 323.320312 C 337.285156 323.394531 338.003906 323.445312 338.726562 323.472656 C 339.445312 323.503906 340.167969 323.507812 340.886719 323.492188 C 341.609375 323.476562 342.328125 323.4375 343.046875 323.378906 C 343.765625 323.316406 344.480469 323.234375 345.195312 323.128906 C 345.90625 323.023438 346.617188 322.894531 347.320312 322.746094 C 348.027344 322.597656 348.726562 322.425781 349.421875 322.234375 C 350.117188 322.042969 350.804688 321.828125 351.484375 321.59375 C 352.167969 321.359375 352.839844 321.101562 353.507812 320.824219 C 354.171875 320.550781 354.828125 320.25 355.476562 319.933594 C 356.125 319.617188 356.761719 319.28125 357.386719 318.921875 C 358.011719 318.566406 358.628906 318.191406 359.230469 317.792969 C 359.835938 317.398438 360.425781 316.988281 361 316.554688 C 361.578125 316.125 362.144531 315.675781 362.691406 315.207031 C 363.242188 314.742188 363.777344 314.257812 364.296875 313.757812 C 364.816406 313.257812 365.320312 312.742188 365.808594 312.214844 C 366.296875 311.683594 366.765625 311.136719 367.222656 310.578125 C 367.675781 310.015625 368.109375 309.441406 368.53125 308.855469 C 368.949219 308.269531 369.347656 307.667969 369.730469 307.058594 C 370.109375 306.445312 370.472656 305.824219 370.816406 305.1875 C 371.160156 304.554688 371.480469 303.910156 371.785156 303.257812 C 372.085938 302.601562 372.371094 301.9375 372.632812 301.265625 C 372.894531 300.59375 373.132812 299.917969 373.351562 299.230469 C 373.574219 298.542969 373.769531 297.851562 373.949219 297.152344 C 374.125 296.453125 374.28125 295.75 374.414062 295.039062 C 374.546875 294.332031 374.65625 293.621094 374.746094 292.902344 C 374.835938 292.1875 374.902344 291.472656 374.945312 290.75 C 374.992188 290.03125 375.015625 289.3125 375.015625 288.589844 C 375.015625 287.871094 374.992188 287.148438 374.945312 286.429688 C 374.902344 285.710938 374.835938 284.992188 374.746094 284.277344 C 374.65625 283.5625 374.546875 282.851562 374.414062 282.140625 C 374.28125 281.433594 374.125 280.730469 373.949219 280.03125 C 373.769531 279.332031 373.574219 278.640625 373.351562 277.953125 C 373.132812 277.265625 372.894531 276.585938 372.632812 275.914062 C 372.371094 275.242188 372.085938 274.582031 371.785156 273.925781 C 371.480469 273.273438 371.160156 272.628906 370.816406 271.992188 C 370.472656 271.359375 370.109375 270.734375 369.730469 270.125 C 369.347656 269.511719 368.949219 268.914062 368.53125 268.324219 C 368.109375 267.738281 367.675781 267.164062 367.222656 266.605469 C 366.765625 266.046875 366.296875 265.5 365.808594 264.96875 C 365.320312 264.4375 364.816406 263.921875 364.296875 263.421875 C 363.777344 262.921875 363.242188 262.441406 362.691406 261.972656 C 362.144531 261.507812 361.578125 261.058594 361 260.628906 C 360.425781 260.195312 359.835938 259.78125 359.230469 259.386719 C 358.628906 258.992188 358.011719 258.617188 357.386719 258.257812 C 356.761719 257.902344 356.125 257.566406 355.476562 257.246094 C 354.828125 256.929688 354.171875 256.632812 353.507812 256.355469 C 352.839844 256.078125 352.167969 255.824219 351.484375 255.589844 C 350.804688 255.355469 350.117188 255.140625 349.421875 254.949219 C 348.726562 254.753906 348.027344 254.585938 347.320312 254.433594 C 346.617188 254.285156 345.90625 254.160156 345.195312 254.054688 C 344.480469 253.949219 343.765625 253.867188 343.046875 253.804688 C 342.328125 253.746094 341.609375 253.707031 340.886719 253.691406 C 340.167969 253.671875 339.445312 253.679688 338.726562 253.707031 C 338.003906 253.738281 337.285156 253.789062 336.570312 253.859375 C 335.851562 253.933594 335.136719 254.027344 334.425781 254.144531 C 333.714844 254.261719 333.007812 254.402344 332.304688 254.5625 C 331.601562 254.722656 330.90625 254.90625 330.214844 255.109375 C 329.523438 255.316406 328.839844 255.539062 328.160156 255.789062 C 327.484375 256.035156 326.8125 256.300781 326.152344 256.589844 C 325.492188 256.878906 324.839844 257.1875 324.199219 257.515625 C 323.558594 257.84375 322.925781 258.191406 322.304688 258.558594 C 321.6875 258.925781 321.078125 259.3125 320.480469 259.71875 C 319.886719 260.121094 319.300781 260.546875 318.730469 260.988281 C 318.160156 261.429688 317.605469 261.886719 317.066406 262.363281 C 316.523438 262.839844 315.996094 263.332031 315.484375 263.839844 C 314.972656 264.347656 314.480469 264.871094 314 265.410156 C 313.523438 265.949219 313.058594 266.503906 312.617188 267.070312 C 312.171875 267.636719 311.746094 268.21875 311.335938 268.8125 C 310.929688 269.40625 310.539062 270.011719 310.167969 270.632812 C 309.796875 271.25 309.445312 271.878906 309.113281 272.519531 C 308.78125 273.160156 308.46875 273.808594 308.179688 274.46875 C 307.886719 275.128906 307.617188 275.792969 307.363281 276.472656 C 307.113281 277.148438 306.886719 277.828125 306.675781 278.519531 C 306.46875 279.210938 306.285156 279.90625 306.117188 280.609375 C 305.953125 281.308594 305.8125 282.015625 305.6875 282.726562 L 221.894531 282.726562 C 221.59375 280.957031 221.15625 279.21875 220.582031 277.515625 C 220.011719 275.8125 219.3125 274.164062 218.488281 272.570312 C 217.660156 270.972656 216.71875 269.449219 215.65625 268 C 214.597656 266.550781 213.429688 265.191406 212.160156 263.921875 C 210.890625 262.648438 209.53125 261.484375 208.082031 260.425781 C 206.628906 259.363281 205.109375 258.421875 203.511719 257.59375 C 201.917969 256.769531 200.269531 256.070312 198.566406 255.5 C 196.863281 254.925781 195.125 254.488281 193.355469 254.1875 Z M 347.570312 174.847656 C 347.570312 174.464844 347.53125 174.085938 347.457031 173.707031 C 347.382812 173.332031 347.273438 172.964844 347.125 172.609375 C 346.980469 172.253906 346.800781 171.917969 346.585938 171.597656 C 346.375 171.277344 346.132812 170.984375 345.863281 170.710938 C 345.589844 170.4375 345.296875 170.195312 344.976562 169.980469 C 344.65625 169.769531 344.320312 169.585938 343.96875 169.441406 C 343.613281 169.292969 343.246094 169.179688 342.871094 169.105469 C 342.492188 169.027344 342.113281 168.992188 341.730469 168.988281 L 193.90625 168.988281 C 193.523438 168.988281 193.140625 169.027344 192.765625 169.101562 C 192.386719 169.175781 192.019531 169.289062 191.664062 169.433594 C 191.308594 169.582031 190.972656 169.761719 190.652344 169.976562 C 190.332031 170.191406 190.035156 170.433594 189.765625 170.707031 C 189.492188 170.976562 189.25 171.273438 189.035156 171.59375 C 188.820312 171.914062 188.640625 172.25 188.492188 172.605469 C 188.347656 172.960938 188.234375 173.328125 188.160156 173.707031 C 188.085938 174.082031 188.046875 174.464844 188.046875 174.847656 C 188.046875 175.234375 188.085938 175.613281 188.160156 175.992188 C 188.234375 176.371094 188.347656 176.734375 188.492188 177.089844 C 188.640625 177.445312 188.820312 177.785156 189.035156 178.105469 C 189.25 178.425781 189.492188 178.71875 189.765625 178.992188 C 190.035156 179.265625 190.332031 179.507812 190.652344 179.722656 C 190.972656 179.933594 191.308594 180.113281 191.664062 180.261719 C 192.019531 180.410156 192.386719 180.519531 192.765625 180.59375 C 193.140625 180.671875 193.523438 180.707031 193.90625 180.707031 L 341.730469 180.707031 C 342.113281 180.707031 342.492188 180.667969 342.871094 180.59375 C 343.246094 180.515625 343.613281 180.40625 343.964844 180.257812 C 344.320312 180.109375 344.65625 179.929688 344.976562 179.714844 C 345.292969 179.5 345.589844 179.257812 345.859375 178.984375 C 346.132812 178.714844 346.375 178.417969 346.585938 178.097656 C 346.800781 177.777344 346.980469 177.441406 347.125 177.085938 C 347.273438 176.730469 347.382812 176.367188 347.457031 175.988281 C 347.53125 175.613281 347.570312 175.234375 347.570312 174.847656 Z M 120.722656 178.4375 C 121.199219 178.4375 121.65625 178.347656 122.097656 178.164062 C 122.539062 177.980469 122.925781 177.722656 123.261719 177.382812 C 123.601562 177.046875 123.859375 176.660156 124.042969 176.21875 C 124.226562 175.777344 124.316406 175.320312 124.316406 174.84375 C 124.316406 174.367188 124.222656 173.90625 124.042969 173.464844 C 123.859375 173.027344 123.597656 172.636719 123.261719 172.300781 C 122.921875 171.964844 122.535156 171.703125 122.09375 171.523438 C 121.652344 171.339844 121.195312 171.25 120.71875 171.25 C 120.242188 171.25 119.78125 171.34375 119.34375 171.523438 C 118.902344 171.707031 118.515625 171.96875 118.175781 172.304688 C 117.839844 172.644531 117.582031 173.03125 117.398438 173.472656 C 117.21875 173.914062 117.125 174.371094 117.128906 174.847656 C 117.125 175.324219 117.21875 175.785156 117.398438 176.226562 C 117.582031 176.664062 117.839844 177.054688 118.179688 177.390625 C 118.515625 177.726562 118.90625 177.988281 119.34375 178.167969 C 119.785156 178.351562 120.246094 178.441406 120.722656 178.4375 Z M 120.722656 159.53125 C 121.726562 159.53125 122.722656 159.632812 123.707031 159.828125 C 124.691406 160.023438 125.648438 160.3125 126.578125 160.699219 C 127.507812 161.082031 128.390625 161.554688 129.226562 162.113281 C 130.0625 162.671875 130.835938 163.304688 131.542969 164.015625 C 132.253906 164.726562 132.890625 165.5 133.449219 166.335938 C 134.007812 167.171875 134.476562 168.054688 134.863281 168.980469 C 135.246094 169.910156 135.539062 170.867188 135.734375 171.851562 C 135.929688 172.839844 136.027344 173.832031 136.027344 174.839844 C 136.027344 175.84375 135.929688 176.839844 135.734375 177.824219 C 135.539062 178.808594 135.25 179.769531 134.863281 180.695312 C 134.480469 181.625 134.007812 182.507812 133.449219 183.34375 C 132.894531 184.179688 132.257812 184.953125 131.546875 185.664062 C 130.835938 186.375 130.0625 187.007812 129.230469 187.566406 C 128.394531 188.125 127.511719 188.597656 126.582031 188.980469 C 125.65625 189.367188 124.699219 189.65625 123.710938 189.851562 C 122.726562 190.050781 121.730469 190.148438 120.726562 190.148438 C 119.722656 190.148438 118.726562 190.050781 117.738281 189.855469 C 116.753906 189.660156 115.796875 189.371094 114.867188 188.984375 C 113.9375 188.601562 113.058594 188.128906 112.222656 187.570312 C 111.386719 187.011719 110.613281 186.378906 109.902344 185.667969 C 109.191406 184.957031 108.554688 184.183594 107.996094 183.351562 C 107.4375 182.515625 106.964844 181.632812 106.582031 180.703125 C 106.195312 179.777344 105.90625 178.820312 105.710938 177.832031 C 105.511719 176.847656 105.414062 175.851562 105.414062 174.847656 C 105.414062 173.84375 105.511719 172.847656 105.707031 171.859375 C 105.902344 170.875 106.195312 169.917969 106.578125 168.988281 C 106.960938 168.058594 107.433594 167.175781 107.992188 166.339844 C 108.550781 165.503906 109.1875 164.730469 109.894531 164.019531 C 110.605469 163.308594 111.378906 162.675781 112.214844 162.117188 C 113.050781 161.558594 113.933594 161.085938 114.863281 160.699219 C 115.792969 160.316406 116.75 160.023438 117.734375 159.828125 C 118.71875 159.632812 119.714844 159.535156 120.722656 159.53125 Z M 81.746094 178.4375 C 82.222656 178.4375 82.679688 178.347656 83.121094 178.164062 C 83.558594 177.980469 83.949219 177.722656 84.285156 177.386719 C 84.625 177.046875 84.882812 176.660156 85.066406 176.21875 C 85.246094 175.777344 85.339844 175.320312 85.339844 174.84375 C 85.339844 174.367188 85.246094 173.90625 85.066406 173.464844 C 84.882812 173.027344 84.621094 172.636719 84.285156 172.300781 C 83.949219 171.964844 83.558594 171.703125 83.117188 171.523438 C 82.675781 171.339844 82.21875 171.25 81.742188 171.25 C 81.265625 171.25 80.804688 171.34375 80.367188 171.523438 C 79.925781 171.707031 79.539062 171.96875 79.199219 172.304688 C 78.863281 172.644531 78.605469 173.03125 78.421875 173.472656 C 78.242188 173.914062 78.148438 174.371094 78.152344 174.847656 C 78.152344 175.324219 78.246094 175.78125 78.429688 176.222656 C 78.613281 176.660156 78.871094 177.046875 79.207031 177.382812 C 79.542969 177.71875 79.933594 177.980469 80.371094 178.160156 C 80.8125 178.34375 81.269531 178.4375 81.746094 178.4375 Z M 81.746094 159.53125 C 82.75 159.53125 83.746094 159.632812 84.730469 159.828125 C 85.714844 160.023438 86.671875 160.3125 87.601562 160.699219 C 88.53125 161.082031 89.414062 161.554688 90.246094 162.113281 C 91.082031 162.671875 91.855469 163.304688 92.566406 164.015625 C 93.277344 164.726562 93.914062 165.5 94.472656 166.335938 C 95.03125 167.171875 95.5 168.054688 95.886719 168.980469 C 96.269531 169.910156 96.5625 170.867188 96.757812 171.851562 C 96.953125 172.839844 97.050781 173.832031 97.050781 174.839844 C 97.050781 175.84375 96.953125 176.839844 96.757812 177.824219 C 96.5625 178.808594 96.273438 179.769531 95.886719 180.695312 C 95.503906 181.625 95.03125 182.507812 94.472656 183.34375 C 93.914062 184.179688 93.28125 184.953125 92.570312 185.664062 C 91.859375 186.375 91.085938 187.007812 90.25 187.566406 C 89.417969 188.125 88.535156 188.597656 87.605469 188.980469 C 86.675781 189.367188 85.71875 189.65625 84.734375 189.851562 C 83.75 190.050781 82.753906 190.148438 81.75 190.148438 C 80.742188 190.148438 79.75 190.050781 78.761719 189.855469 C 77.777344 189.660156 76.820312 189.371094 75.890625 188.984375 C 74.960938 188.601562 74.078125 188.128906 73.242188 187.570312 C 72.410156 187.011719 71.636719 186.378906 70.925781 185.667969 C 70.214844 184.957031 69.578125 184.183594 69.019531 183.351562 C 68.460938 182.515625 67.988281 181.632812 67.605469 180.703125 C 67.21875 179.777344 66.929688 178.820312 66.730469 177.832031 C 66.535156 176.847656 66.4375 175.851562 66.4375 174.847656 C 66.4375 173.84375 66.535156 172.847656 66.734375 171.863281 C 66.929688 170.875 67.222656 169.917969 67.605469 168.992188 C 67.992188 168.0625 68.464844 167.179688 69.023438 166.347656 C 69.582031 165.511719 70.214844 164.738281 70.925781 164.027344 C 71.636719 163.316406 72.410156 162.679688 73.242188 162.121094 C 74.078125 161.5625 74.960938 161.089844 75.890625 160.707031 C 76.816406 160.320312 77.773438 160.027344 78.757812 159.832031 C 79.742188 159.632812 80.738281 159.535156 81.746094 159.53125 Z M 42.734375 178.4375 C 43.210938 178.4375 43.667969 178.347656 44.109375 178.164062 C 44.546875 177.984375 44.9375 177.722656 45.273438 177.386719 C 45.613281 177.050781 45.871094 176.660156 46.054688 176.21875 C 46.234375 175.78125 46.328125 175.320312 46.328125 174.84375 C 46.328125 174.367188 46.234375 173.910156 46.054688 173.46875 C 45.871094 173.027344 45.609375 172.640625 45.273438 172.300781 C 44.9375 171.964844 44.546875 171.707031 44.105469 171.523438 C 43.664062 171.339844 43.207031 171.25 42.730469 171.25 C 42.253906 171.25 41.792969 171.34375 41.355469 171.527344 C 40.914062 171.710938 40.527344 171.96875 40.1875 172.308594 C 39.851562 172.644531 39.59375 173.035156 39.410156 173.472656 C 39.230469 173.914062 39.136719 174.375 39.140625 174.851562 C 39.140625 175.324219 39.234375 175.785156 39.417969 176.222656 C 39.601562 176.660156 39.859375 177.050781 40.195312 177.386719 C 40.53125 177.722656 40.921875 177.980469 41.359375 178.164062 C 41.800781 178.347656 42.257812 178.4375 42.734375 178.4375 Z M 42.734375 159.535156 C 43.738281 159.535156 44.734375 159.632812 45.71875 159.828125 C 46.703125 160.023438 47.660156 160.316406 48.589844 160.699219 C 49.519531 161.085938 50.402344 161.554688 51.234375 162.113281 C 52.070312 162.671875 52.84375 163.308594 53.554688 164.015625 C 54.265625 164.726562 54.902344 165.5 55.460938 166.335938 C 56.019531 167.171875 56.488281 168.054688 56.875 168.984375 C 57.257812 169.910156 57.550781 170.867188 57.746094 171.855469 C 57.941406 172.839844 58.039062 173.835938 58.039062 174.839844 C 58.039062 175.84375 57.941406 176.839844 57.746094 177.828125 C 57.550781 178.8125 57.261719 179.769531 56.875 180.699219 C 56.492188 181.625 56.019531 182.507812 55.460938 183.34375 C 54.902344 184.179688 54.269531 184.953125 53.558594 185.664062 C 52.847656 186.375 52.074219 187.007812 51.238281 187.566406 C 50.40625 188.125 49.523438 188.597656 48.59375 188.984375 C 47.664062 189.367188 46.707031 189.660156 45.722656 189.855469 C 44.738281 190.050781 43.742188 190.148438 42.738281 190.148438 C 41.730469 190.148438 40.738281 190.050781 39.75 189.855469 C 38.765625 189.660156 37.808594 189.371094 36.878906 188.988281 C 35.949219 188.601562 35.066406 188.132812 34.230469 187.574219 C 33.398438 187.015625 32.625 186.378906 31.914062 185.671875 C 31.203125 184.960938 30.566406 184.1875 30.007812 183.351562 C 29.449219 182.515625 28.976562 181.632812 28.59375 180.707031 C 28.207031 179.777344 27.917969 178.820312 27.71875 177.835938 C 27.523438 176.847656 27.425781 175.855469 27.425781 174.847656 C 27.425781 173.84375 27.523438 172.847656 27.722656 171.863281 C 27.917969 170.878906 28.210938 169.921875 28.59375 168.992188 C 28.980469 168.066406 29.453125 167.183594 30.011719 166.347656 C 30.570312 165.511719 31.203125 164.738281 31.914062 164.027344 C 32.625 163.316406 33.398438 162.683594 34.230469 162.125 C 35.066406 161.566406 35.949219 161.09375 36.878906 160.707031 C 37.804688 160.320312 38.761719 160.03125 39.746094 159.832031 C 40.730469 159.636719 41.726562 159.535156 42.734375 159.535156 Z M 347.566406 78.234375 C 347.566406 77.851562 347.53125 77.472656 347.457031 77.09375 C 347.378906 76.71875 347.269531 76.351562 347.125 75.996094 C 346.976562 75.640625 346.796875 75.304688 346.585938 74.984375 C 346.371094 74.664062 346.128906 74.371094 345.859375 74.097656 C 345.585938 73.824219 345.292969 73.582031 344.972656 73.371094 C 344.65625 73.15625 344.316406 72.972656 343.964844 72.828125 C 343.609375 72.679688 343.242188 72.566406 342.867188 72.492188 C 342.492188 72.414062 342.109375 72.378906 341.726562 72.375 L 193.90625 72.375 C 193.519531 72.371094 193.136719 72.40625 192.753906 72.476562 C 192.375 72.550781 192.003906 72.65625 191.644531 72.804688 C 191.289062 72.949219 190.945312 73.128906 190.621094 73.339844 C 190.300781 73.554688 190 73.796875 189.722656 74.066406 C 189.449219 74.339844 189.203125 74.636719 188.988281 74.957031 C 188.769531 75.277344 188.585938 75.617188 188.4375 75.976562 C 188.289062 76.332031 188.175781 76.703125 188.101562 77.082031 C 188.023438 77.460938 187.984375 77.84375 187.984375 78.230469 C 187.984375 78.617188 188.023438 79.003906 188.101562 79.382812 C 188.175781 79.761719 188.289062 80.128906 188.4375 80.488281 C 188.585938 80.84375 188.769531 81.183594 188.988281 81.503906 C 189.203125 81.828125 189.449219 82.125 189.722656 82.394531 C 190 82.667969 190.300781 82.910156 190.621094 83.125 C 190.945312 83.335938 191.289062 83.515625 191.644531 83.660156 C 192.003906 83.804688 192.375 83.914062 192.753906 83.984375 C 193.136719 84.058594 193.519531 84.089844 193.90625 84.085938 L 341.730469 84.085938 C 342.113281 84.085938 342.492188 84.046875 342.871094 83.972656 C 343.246094 83.898438 343.613281 83.785156 343.964844 83.636719 C 344.320312 83.492188 344.65625 83.308594 344.976562 83.097656 C 345.292969 82.882812 345.589844 82.640625 345.859375 82.367188 C 346.132812 82.097656 346.375 81.800781 346.585938 81.480469 C 346.800781 81.164062 346.980469 80.824219 347.125 80.472656 C 347.273438 80.117188 347.382812 79.75 347.457031 79.375 C 347.53125 78.996094 347.570312 78.617188 347.570312 78.234375 Z M 120.71875 81.820312 C 121.195312 81.820312 121.652344 81.726562 122.089844 81.542969 C 122.53125 81.363281 122.917969 81.101562 123.253906 80.765625 C 123.589844 80.429688 123.847656 80.039062 124.03125 79.597656 C 124.210938 79.160156 124.304688 78.703125 124.300781 78.226562 C 124.300781 77.75 124.210938 77.292969 124.027344 76.851562 C 123.84375 76.414062 123.585938 76.027344 123.246094 75.6875 C 122.910156 75.351562 122.523438 75.09375 122.082031 74.914062 C 121.640625 74.730469 121.183594 74.640625 120.707031 74.640625 C 120.230469 74.640625 119.773438 74.734375 119.335938 74.917969 C 118.894531 75.101562 118.507812 75.359375 118.171875 75.695312 C 117.835938 76.035156 117.578125 76.421875 117.394531 76.863281 C 117.214844 77.300781 117.125 77.761719 117.125 78.234375 C 117.125 78.710938 117.214844 79.171875 117.398438 79.609375 C 117.578125 80.050781 117.839844 80.4375 118.175781 80.773438 C 118.511719 81.113281 118.902344 81.371094 119.34375 81.550781 C 119.785156 81.730469 120.242188 81.820312 120.71875 81.820312 Z M 120.71875 62.921875 C 121.722656 62.921875 122.71875 63.019531 123.703125 63.21875 C 124.691406 63.414062 125.648438 63.703125 126.574219 64.089844 C 127.503906 64.472656 128.386719 64.945312 129.222656 65.503906 C 130.058594 66.0625 130.832031 66.695312 131.542969 67.40625 C 132.253906 68.117188 132.886719 68.890625 133.445312 69.726562 C 134.003906 70.5625 134.476562 71.441406 134.859375 72.371094 C 135.246094 73.300781 135.535156 74.257812 135.730469 75.242188 C 135.929688 76.226562 136.027344 77.222656 136.027344 78.226562 C 136.027344 79.234375 135.929688 80.230469 135.734375 81.214844 C 135.535156 82.199219 135.246094 83.15625 134.863281 84.085938 C 134.476562 85.015625 134.007812 85.898438 133.449219 86.734375 C 132.890625 87.570312 132.253906 88.339844 131.546875 89.050781 C 130.835938 89.761719 130.0625 90.398438 129.226562 90.957031 C 128.390625 91.515625 127.507812 91.988281 126.578125 92.371094 C 125.652344 92.757812 124.695312 93.046875 123.707031 93.242188 C 122.722656 93.441406 121.726562 93.539062 120.722656 93.539062 C 119.71875 93.539062 118.722656 93.441406 117.738281 93.246094 C 116.75 93.050781 115.792969 92.757812 114.863281 92.375 C 113.9375 91.992188 113.054688 91.519531 112.21875 90.960938 C 111.382812 90.402344 110.609375 89.769531 109.898438 89.058594 C 109.1875 88.347656 108.550781 87.574219 107.992188 86.738281 C 107.433594 85.90625 106.964844 85.023438 106.578125 84.09375 C 106.195312 83.164062 105.902344 82.207031 105.707031 81.222656 C 105.511719 80.238281 105.410156 79.242188 105.410156 78.238281 C 105.410156 77.230469 105.507812 76.234375 105.703125 75.25 C 105.902344 74.265625 106.191406 73.308594 106.574219 72.378906 C 106.960938 71.449219 107.429688 70.566406 107.988281 69.730469 C 108.546875 68.894531 109.183594 68.121094 109.894531 67.410156 C 110.605469 66.699219 111.378906 66.0625 112.214844 65.503906 C 113.046875 64.945312 113.929688 64.476562 114.859375 64.089844 C 115.789062 63.707031 116.746094 63.414062 117.730469 63.21875 C 118.71875 63.023438 119.714844 62.921875 120.71875 62.921875 Z M 81.742188 81.820312 C 82.21875 81.820312 82.675781 81.726562 83.113281 81.542969 C 83.554688 81.363281 83.941406 81.101562 84.277344 80.765625 C 84.613281 80.429688 84.871094 80.039062 85.054688 79.601562 C 85.234375 79.160156 85.328125 78.703125 85.324219 78.226562 C 85.324219 77.75 85.234375 77.292969 85.050781 76.851562 C 84.867188 76.414062 84.609375 76.027344 84.269531 75.691406 C 83.933594 75.355469 83.546875 75.09375 83.105469 74.914062 C 82.664062 74.730469 82.207031 74.640625 81.730469 74.640625 C 81.257812 74.640625 80.796875 74.734375 80.359375 74.917969 C 79.917969 75.101562 79.53125 75.359375 79.195312 75.695312 C 78.859375 76.035156 78.601562 76.421875 78.417969 76.863281 C 78.238281 77.300781 78.148438 77.761719 78.148438 78.234375 C 78.148438 78.710938 78.242188 79.167969 78.425781 79.605469 C 78.609375 80.046875 78.871094 80.433594 79.207031 80.769531 C 79.542969 81.105469 79.929688 81.363281 80.371094 81.546875 C 80.808594 81.726562 81.265625 81.820312 81.742188 81.820312 Z M 81.742188 62.921875 C 82.746094 62.921875 83.742188 63.019531 84.726562 63.21875 C 85.714844 63.414062 86.671875 63.703125 87.597656 64.089844 C 88.527344 64.472656 89.410156 64.945312 90.246094 65.503906 C 91.082031 66.0625 91.855469 66.695312 92.566406 67.40625 C 93.273438 68.117188 93.910156 68.890625 94.46875 69.726562 C 95.027344 70.5625 95.5 71.441406 95.882812 72.371094 C 96.269531 73.300781 96.558594 74.257812 96.753906 75.242188 C 96.949219 76.226562 97.046875 77.222656 97.050781 78.226562 C 97.050781 79.234375 96.949219 80.230469 96.753906 81.214844 C 96.558594 82.199219 96.269531 83.15625 95.882812 84.085938 C 95.5 85.015625 95.027344 85.898438 94.472656 86.734375 C 93.914062 87.570312 93.277344 88.339844 92.566406 89.050781 C 91.855469 89.761719 91.085938 90.398438 90.25 90.957031 C 89.414062 91.515625 88.53125 91.988281 87.601562 92.371094 C 86.675781 92.757812 85.71875 93.046875 84.730469 93.242188 C 83.746094 93.441406 82.75 93.539062 81.746094 93.539062 C 80.742188 93.539062 79.746094 93.441406 78.757812 93.246094 C 77.773438 93.050781 76.816406 92.757812 75.886719 92.375 C 74.960938 91.992188 74.078125 91.519531 73.242188 90.960938 C 72.40625 90.402344 71.632812 89.769531 70.921875 89.058594 C 70.210938 88.347656 69.574219 87.574219 69.015625 86.738281 C 68.457031 85.90625 67.984375 85.023438 67.601562 84.09375 C 67.214844 83.164062 66.925781 82.207031 66.730469 81.222656 C 66.53125 80.238281 66.433594 79.242188 66.433594 78.238281 C 66.433594 77.230469 66.535156 76.238281 66.730469 75.25 C 66.929688 74.265625 67.21875 73.308594 67.605469 72.382812 C 67.988281 71.453125 68.460938 70.570312 69.019531 69.734375 C 69.578125 68.902344 70.210938 68.128906 70.921875 67.417969 C 71.632812 66.707031 72.40625 66.070312 73.242188 65.511719 C 74.078125 64.953125 74.957031 64.480469 75.886719 64.097656 C 76.8125 63.710938 77.769531 63.417969 78.757812 63.222656 C 79.742188 63.023438 80.738281 62.925781 81.742188 62.921875 Z M 42.730469 81.820312 C 43.207031 81.820312 43.664062 81.726562 44.101562 81.542969 C 44.542969 81.363281 44.929688 81.101562 45.265625 80.765625 C 45.601562 80.429688 45.859375 80.039062 46.042969 79.601562 C 46.222656 79.160156 46.316406 78.703125 46.3125 78.226562 C 46.3125 77.75 46.222656 77.292969 46.039062 76.851562 C 45.855469 76.414062 45.597656 76.027344 45.257812 75.691406 C 44.921875 75.355469 44.535156 75.09375 44.09375 74.914062 C 43.652344 74.730469 43.195312 74.640625 42.71875 74.640625 C 42.246094 74.640625 41.785156 74.734375 41.347656 74.917969 C 40.90625 75.101562 40.519531 75.359375 40.183594 75.695312 C 39.847656 76.035156 39.589844 76.421875 39.40625 76.863281 C 39.226562 77.300781 39.136719 77.761719 39.136719 78.234375 C 39.136719 78.710938 39.230469 79.167969 39.414062 79.605469 C 39.597656 80.046875 39.855469 80.433594 40.195312 80.769531 C 40.53125 81.105469 40.917969 81.363281 41.359375 81.546875 C 41.796875 81.726562 42.253906 81.820312 42.730469 81.820312 Z M 42.730469 62.921875 C 43.734375 62.921875 44.730469 63.019531 45.714844 63.21875 C 46.703125 63.414062 47.660156 63.703125 48.585938 64.089844 C 49.515625 64.472656 50.398438 64.945312 51.234375 65.503906 C 52.070312 66.0625 52.84375 66.695312 53.554688 67.40625 C 54.261719 68.117188 54.898438 68.890625 55.457031 69.726562 C 56.015625 70.5625 56.488281 71.441406 56.871094 72.371094 C 57.257812 73.300781 57.546875 74.257812 57.742188 75.242188 C 57.9375 76.226562 58.035156 77.222656 58.039062 78.226562 C 58.039062 79.234375 57.9375 80.230469 57.742188 81.214844 C 57.546875 82.199219 57.257812 83.15625 56.871094 84.085938 C 56.488281 85.015625 56.015625 85.898438 55.460938 86.734375 C 54.902344 87.570312 54.265625 88.339844 53.554688 89.050781 C 52.84375 89.761719 52.074219 90.398438 51.238281 90.957031 C 50.402344 91.515625 49.519531 91.988281 48.589844 92.371094 C 47.664062 92.757812 46.707031 93.046875 45.71875 93.242188 C 44.734375 93.441406 43.738281 93.539062 42.734375 93.539062 C 41.730469 93.539062 40.734375 93.441406 39.746094 93.246094 C 38.761719 93.050781 37.804688 92.757812 36.875 92.375 C 35.949219 91.992188 35.066406 91.519531 34.230469 90.960938 C 33.394531 90.402344 32.621094 89.769531 31.910156 89.058594 C 31.199219 88.347656 30.5625 87.574219 30.003906 86.738281 C 29.445312 85.90625 28.972656 85.023438 28.589844 84.09375 C 28.203125 83.164062 27.914062 82.207031 27.71875 81.222656 C 27.519531 80.238281 27.421875 79.242188 27.421875 78.238281 C 27.421875 77.230469 27.523438 76.238281 27.71875 75.25 C 27.917969 74.265625 28.207031 73.308594 28.59375 72.382812 C 28.976562 71.453125 29.449219 70.570312 30.007812 69.734375 C 30.566406 68.902344 31.199219 68.128906 31.910156 67.417969 C 32.621094 66.707031 33.394531 66.070312 34.230469 65.511719 C 35.066406 64.953125 35.945312 64.480469 36.875 64.097656 C 37.800781 63.710938 38.757812 63.417969 39.746094 63.222656 C 40.730469 63.023438 41.726562 62.925781 42.730469 62.921875 Z M 11.703125 195.714844 L 11.703125 153.976562 C 11.703125 153.589844 11.742188 153.207031 11.816406 152.832031 C 11.894531 152.453125 12.003906 152.085938 12.152344 151.730469 C 12.300781 151.375 12.480469 151.035156 12.695312 150.71875 C 12.910156 150.398438 13.15625 150.101562 13.425781 149.828125 C 13.699219 149.558594 13.996094 149.3125 14.316406 149.101562 C 14.636719 148.886719 14.976562 148.707031 15.332031 148.558594 C 15.6875 148.414062 16.054688 148.300781 16.433594 148.226562 C 16.8125 148.152344 17.191406 148.113281 17.578125 148.117188 L 357.421875 148.117188 C 357.804688 148.113281 358.1875 148.152344 358.566406 148.226562 C 358.945312 148.300781 359.3125 148.414062 359.667969 148.558594 C 360.023438 148.707031 360.359375 148.886719 360.679688 149.101562 C 361.003906 149.3125 361.296875 149.558594 361.570312 149.828125 C 361.84375 150.101562 362.085938 150.398438 362.300781 150.71875 C 362.515625 151.035156 362.699219 151.375 362.84375 151.730469 C 362.992188 152.085938 363.105469 152.453125 363.179688 152.832031 C 363.257812 153.207031 363.292969 153.589844 363.296875 153.976562 L 363.296875 195.714844 C 363.292969 196.101562 363.257812 196.484375 363.179688 196.859375 C 363.105469 197.238281 362.992188 197.605469 362.84375 197.960938 C 362.699219 198.316406 362.515625 198.652344 362.300781 198.972656 C 362.085938 199.292969 361.84375 199.589844 361.570312 199.863281 C 361.296875 200.132812 361 200.375 360.679688 200.589844 C 360.359375 200.804688 360.023438 200.984375 359.667969 201.132812 C 359.308594 201.277344 358.945312 201.390625 358.566406 201.464844 C 358.1875 201.539062 357.804688 201.574219 357.421875 201.574219 L 17.578125 201.574219 C 17.191406 201.574219 16.8125 201.539062 16.433594 201.464844 C 16.054688 201.390625 15.6875 201.277344 15.332031 201.132812 C 14.976562 200.984375 14.636719 200.804688 14.316406 200.589844 C 13.996094 200.375 13.699219 200.132812 13.429688 199.863281 C 13.15625 199.589844 12.910156 199.292969 12.699219 198.972656 C 12.484375 198.652344 12.300781 198.316406 12.152344 197.960938 C 12.007812 197.605469 11.894531 197.238281 11.820312 196.859375 C 11.742188 196.484375 11.703125 196.101562 11.703125 195.714844 Z M 56.105469 116.679688 L 318.890625 116.679688 L 318.890625 136.398438 L 56.105469 136.398438 Z M 11.703125 99.101562 L 11.703125 57.367188 C 11.703125 56.984375 11.742188 56.601562 11.816406 56.222656 C 11.890625 55.847656 12.003906 55.480469 12.152344 55.125 C 12.300781 54.769531 12.480469 54.429688 12.695312 54.109375 C 12.910156 53.789062 13.152344 53.496094 13.425781 53.222656 C 13.699219 52.949219 13.996094 52.707031 14.316406 52.492188 C 14.636719 52.28125 14.972656 52.101562 15.332031 51.953125 C 15.6875 51.804688 16.054688 51.695312 16.429688 51.621094 C 16.808594 51.546875 17.191406 51.507812 17.574219 51.507812 L 357.417969 51.507812 C 357.804688 51.507812 358.1875 51.546875 358.5625 51.621094 C 358.941406 51.695312 359.308594 51.804688 359.664062 51.953125 C 360.019531 52.101562 360.359375 52.28125 360.679688 52.496094 C 361 52.707031 361.296875 52.949219 361.570312 53.222656 C 361.84375 53.496094 362.085938 53.789062 362.300781 54.109375 C 362.515625 54.429688 362.695312 54.769531 362.84375 55.125 C 362.992188 55.480469 363.101562 55.847656 363.179688 56.222656 C 363.253906 56.601562 363.292969 56.984375 363.292969 57.367188 L 363.292969 99.101562 C 363.292969 99.488281 363.253906 99.871094 363.179688 100.246094 C 363.101562 100.625 362.992188 100.992188 362.84375 101.347656 C 362.695312 101.703125 362.511719 102.039062 362.296875 102.359375 C 362.085938 102.679688 361.839844 102.972656 361.566406 103.246094 C 361.296875 103.515625 361 103.761719 360.679688 103.972656 C 360.359375 104.1875 360.019531 104.367188 359.664062 104.511719 C 359.308594 104.660156 358.941406 104.769531 358.5625 104.84375 C 358.1875 104.921875 357.804688 104.957031 357.417969 104.957031 L 17.578125 104.957031 C 17.191406 104.957031 16.8125 104.921875 16.433594 104.847656 C 16.054688 104.769531 15.691406 104.660156 15.332031 104.515625 C 14.976562 104.367188 14.640625 104.1875 14.320312 103.972656 C 14 103.761719 13.703125 103.519531 13.429688 103.246094 C 13.15625 102.972656 12.914062 102.679688 12.699219 102.359375 C 12.484375 102.039062 12.300781 101.703125 12.15625 101.347656 C 12.007812 100.992188 11.894531 100.625 11.820312 100.246094 C 11.742188 99.871094 11.703125 99.488281 11.703125 99.101562 Z M 11.703125 99.101562 " clip-rule="evenodd"/></clipPath><linearGradient x1="255.996" gradientTransform="matrix(0.732422, 0, 0, 0.732422, 0.0000045, 0)" y1="441.697829" x2="255.99699" gradientUnits="userSpaceOnUse" y2="70.325799" id="db2a85e640"><stop stop-opacity="1" stop-color="rgb(0%, 47.799683%, 71.398926%)" offset="0"/><stop stop-opacity="1" stop-color="rgb(0%, 47.903442%, 71.554565%)" offset="0.0000036752"/><stop stop-opacity="1" stop-color="rgb(0%, 48.008728%, 71.711731%)" offset="0.015625"/><stop stop-opacity="1" stop-color="rgb(0%, 48.112488%, 71.867371%)" offset="0.03125"/><stop stop-opacity="1" stop-color="rgb(0%, 48.321533%, 72.17865%)" offset="0.046875"/><stop stop-opacity="1" stop-color="rgb(0%, 48.530579%, 72.491455%)" offset="0.0625"/><stop stop-opacity="1" stop-color="rgb(0%, 48.74115%, 72.80426%)" offset="0.078125"/><stop stop-opacity="1" stop-color="rgb(0%, 48.950195%, 73.117065%)" offset="0.09375"/><stop stop-opacity="1" stop-color="rgb(0%, 49.159241%, 73.429871%)" offset="0.109375"/><stop stop-opacity="1" stop-color="rgb(0%, 49.368286%, 73.74115%)" offset="0.125"/><stop stop-opacity="1" stop-color="rgb(0%, 49.577332%, 74.053955%)" offset="0.140625"/><stop stop-opacity="1" stop-color="rgb(0%, 49.787903%, 74.36676%)" offset="0.15625"/><stop stop-opacity="1" stop-color="rgb(0%, 49.996948%, 74.679565%)" offset="0.171875"/><stop stop-opacity="1" stop-color="rgb(0%, 50.205994%, 74.992371%)" offset="0.1875"/><stop stop-opacity="1" stop-color="rgb(0%, 50.415039%, 75.30365%)" offset="0.203125"/><stop stop-opacity="1" stop-color="rgb(0%, 50.62561%, 75.616455%)" offset="0.21875"/><stop stop-opacity="1" stop-color="rgb(0%, 50.834656%, 75.92926%)" offset="0.234375"/><stop stop-opacity="1" stop-color="rgb(0%, 51.043701%, 76.242065%)" offset="0.25"/><stop stop-opacity="1" stop-color="rgb(0%, 51.252747%, 76.554871%)" offset="0.265625"/><stop stop-opacity="1" stop-color="rgb(0%, 51.461792%, 76.867676%)" offset="0.28125"/><stop stop-opacity="1" stop-color="rgb(0%, 51.672363%, 77.178955%)" offset="0.296875"/><stop stop-opacity="1" stop-color="rgb(0%, 51.881409%, 77.49176%)" offset="0.3125"/><stop stop-opacity="1" stop-color="rgb(0%, 52.090454%, 77.804565%)" offset="0.328125"/><stop stop-opacity="1" stop-color="rgb(0%, 52.2995%, 78.117371%)" offset="0.34375"/><stop stop-opacity="1" stop-color="rgb(0%, 52.510071%, 78.430176%)" offset="0.359375"/><stop stop-opacity="1" stop-color="rgb(0%, 52.719116%, 78.741455%)" offset="0.375"/><stop stop-opacity="1" stop-color="rgb(0%, 52.928162%, 79.05426%)" offset="0.390625"/><stop stop-opacity="1" stop-color="rgb(0%, 53.137207%, 79.367065%)" offset="0.40625"/><stop stop-opacity="1" stop-color="rgb(0%, 53.346252%, 79.679871%)" offset="0.421875"/><stop stop-opacity="1" stop-color="rgb(0%, 53.556824%, 79.992676%)" offset="0.4375"/><stop stop-opacity="1" stop-color="rgb(0%, 53.765869%, 80.303955%)" offset="0.453125"/><stop stop-opacity="1" stop-color="rgb(0%, 53.974915%, 80.61676%)" offset="0.46875"/><stop stop-opacity="1" stop-color="rgb(0%, 54.18396%, 80.929565%)" offset="0.484375"/><stop stop-opacity="1" stop-color="rgb(0%, 54.393005%, 81.242371%)" offset="0.5"/><stop stop-opacity="1" stop-color="rgb(0%, 54.603577%, 81.555176%)" offset="0.515625"/><stop stop-opacity="1" stop-color="rgb(0%, 54.812622%, 81.866455%)" offset="0.53125"/><stop stop-opacity="1" stop-color="rgb(0%, 55.021667%, 82.17926%)" offset="0.546875"/><stop stop-opacity="1" stop-color="rgb(0%, 55.230713%, 82.492065%)" offset="0.5625"/><stop stop-opacity="1" stop-color="rgb(0%, 55.441284%, 82.804871%)" offset="0.578125"/><stop stop-opacity="1" stop-color="rgb(0%, 55.65033%, 83.117676%)" offset="0.59375"/><stop stop-opacity="1" stop-color="rgb(0%, 55.859375%, 83.428955%)" offset="0.609375"/><stop stop-opacity="1" stop-color="rgb(0%, 56.06842%, 83.74176%)" offset="0.625"/><stop stop-opacity="1" stop-color="rgb(0%, 56.277466%, 84.054565%)" offset="0.640625"/><stop stop-opacity="1" stop-color="rgb(0%, 56.488037%, 84.367371%)" offset="0.65625"/><stop stop-opacity="1" stop-color="rgb(0%, 56.697083%, 84.680176%)" offset="0.671875"/><stop stop-opacity="1" stop-color="rgb(0%, 56.906128%, 84.991455%)" offset="0.6875"/><stop stop-opacity="1" stop-color="rgb(0%, 57.115173%, 85.30426%)" offset="0.703125"/><stop stop-opacity="1" stop-color="rgb(0%, 57.325745%, 85.617065%)" offset="0.71875"/><stop stop-opacity="1" stop-color="rgb(0%, 57.53479%, 85.929871%)" offset="0.734375"/><stop stop-opacity="1" stop-color="rgb(0%, 57.743835%, 86.242676%)" offset="0.75"/><stop stop-opacity="1" stop-color="rgb(0%, 57.952881%, 86.553955%)" offset="0.765625"/><stop stop-opacity="1" stop-color="rgb(0%, 58.161926%, 86.86676%)" offset="0.78125"/><stop stop-opacity="1" stop-color="rgb(0%, 58.372498%, 87.179565%)" offset="0.796875"/><stop stop-opacity="1" stop-color="rgb(0%, 58.581543%, 87.492371%)" offset="0.8125"/><stop stop-opacity="1" stop-color="rgb(0%, 58.790588%, 87.805176%)" offset="0.828125"/><stop stop-opacity="1" stop-color="rgb(0%, 58.999634%, 88.117981%)" offset="0.84375"/><stop stop-opacity="1" stop-color="rgb(0%, 59.210205%, 88.42926%)" offset="0.859375"/><stop stop-opacity="1" stop-color="rgb(0%, 59.41925%, 88.742065%)" offset="0.875"/><stop stop-opacity="1" stop-color="rgb(0%, 59.628296%, 89.054871%)" offset="0.890625"/><stop stop-opacity="1" stop-color="rgb(0%, 59.837341%, 89.367676%)" offset="0.90625"/><stop stop-opacity="1" stop-color="rgb(0%, 60.046387%, 89.680481%)" offset="0.921875"/><stop stop-opacity="1" stop-color="rgb(0%, 60.256958%, 89.99176%)" offset="0.9375"/><stop stop-opacity="1" stop-color="rgb(0%, 60.466003%, 90.304565%)" offset="0.953125"/><stop stop-opacity="1" stop-color="rgb(0%, 60.675049%, 90.617371%)" offset="0.96875"/><stop stop-opacity="1" stop-color="rgb(0%, 60.884094%, 90.930176%)" offset="0.984375"/><stop stop-opacity="1" stop-color="rgb(0%, 61.094666%, 91.242981%)" offset="0.999996"/><stop stop-opacity="1" stop-color="rgb(0%, 61.199951%, 91.398621%)" offset="1"/></linearGradient></defs><g clip-path="url(#fe2f020b4c)"><g clip-path="url(#ce7acd5854)"><path fill="url(#db2a85e640)" d="M 0.015625 51.507812 L 0.015625 323.507812 L 375 323.507812 L 375 51.507812 Z M 0.015625 51.507812 " fill-rule="nonzero"/></g></g></svg>