<svg xmlns="http://www.w3.org/2000/svg" xmlns:xlink="http://www.w3.org/1999/xlink" width="500" zoomAndPan="magnify" viewBox="0 0 375 374.999991" height="500" preserveAspectRatio="xMidYMid meet" version="1.0"><defs><clipPath id="4b840e1e20"><path d="M 375 187.5 C 375 186.914062 374.941406 186.332031 374.828125 185.757812 C 374.714844 185.183594 374.546875 184.625 374.320312 184.082031 C 374.097656 183.542969 373.820312 183.027344 373.496094 182.539062 C 373.171875 182.050781 372.800781 181.601562 372.386719 181.1875 C 371.972656 180.769531 371.519531 180.402344 371.035156 180.074219 C 370.546875 179.75 370.03125 179.472656 369.492188 179.25 C 368.949219 179.023438 368.390625 178.855469 367.816406 178.742188 C 367.242188 178.625 366.660156 178.570312 366.074219 178.570312 L 336.4375 178.570312 L 336.222656 175.824219 C 330.554688 102.855469 272.136719 44.441406 199.175781 38.769531 L 196.429688 38.554688 L 196.429688 8.925781 C 196.429688 8.339844 196.371094 7.757812 196.257812 7.183594 C 196.144531 6.609375 195.972656 6.050781 195.75 5.507812 C 195.523438 4.96875 195.25 4.453125 194.925781 3.964844 C 194.597656 3.476562 194.226562 3.027344 193.8125 2.613281 C 193.398438 2.199219 192.949219 1.828125 192.460938 1.5 C 191.972656 1.175781 191.457031 0.902344 190.917969 0.675781 C 190.375 0.453125 189.816406 0.28125 189.242188 0.167969 C 188.667969 0.0546875 188.085938 -0.00390625 187.5 -0.00390625 C 186.914062 -0.00390625 186.332031 0.0546875 185.757812 0.167969 C 185.183594 0.28125 184.625 0.453125 184.082031 0.675781 C 183.542969 0.902344 183.027344 1.175781 182.539062 1.5 C 182.050781 1.828125 181.601562 2.199219 181.1875 2.613281 C 180.773438 3.027344 180.402344 3.476562 180.074219 3.964844 C 179.75 4.453125 179.476562 4.96875 179.25 5.507812 C 179.027344 6.050781 178.855469 6.609375 178.742188 7.183594 C 178.628906 7.757812 178.570312 8.339844 178.570312 8.925781 L 178.570312 38.558594 L 175.824219 38.769531 C 102.859375 44.445312 44.445312 102.859375 38.769531 175.824219 L 38.558594 178.570312 L 8.925781 178.570312 C 8.34375 178.578125 7.765625 178.640625 7.195312 178.757812 C 6.625 178.875 6.070312 179.046875 5.535156 179.273438 C 4.996094 179.5 4.488281 179.777344 4.003906 180.105469 C 3.523438 180.429688 3.074219 180.800781 2.664062 181.214844 C 2.253906 181.628906 1.886719 182.078125 1.566406 182.566406 C 1.242188 183.050781 0.972656 183.5625 0.75 184.101562 C 0.527344 184.640625 0.359375 185.195312 0.246094 185.769531 C 0.132812 186.339844 0.078125 186.917969 0.078125 187.5 C 0.078125 188.082031 0.132812 188.660156 0.246094 189.230469 C 0.359375 189.804688 0.527344 190.359375 0.75 190.898438 C 0.972656 191.4375 1.242188 191.949219 1.566406 192.4375 C 1.886719 192.921875 2.253906 193.371094 2.664062 193.785156 C 3.074219 194.199219 3.523438 194.570312 4.003906 194.894531 C 4.488281 195.222656 4.996094 195.5 5.535156 195.726562 C 6.070312 195.953125 6.625 196.125 7.195312 196.242188 C 7.765625 196.363281 8.34375 196.421875 8.925781 196.429688 L 38.558594 196.429688 L 38.769531 199.175781 C 44.445312 272.140625 102.859375 330.554688 175.824219 336.230469 L 178.570312 336.441406 L 178.570312 366.074219 C 178.570312 366.660156 178.628906 367.242188 178.742188 367.816406 C 178.855469 368.390625 179.027344 368.949219 179.25 369.492188 C 179.476562 370.03125 179.75 370.546875 180.074219 371.035156 C 180.402344 371.523438 180.773438 371.972656 181.1875 372.386719 C 181.601562 372.800781 182.050781 373.171875 182.539062 373.5 C 183.027344 373.824219 183.542969 374.097656 184.082031 374.324219 C 184.625 374.546875 185.183594 374.71875 185.757812 374.832031 C 186.332031 374.945312 186.914062 375.003906 187.5 375.003906 C 188.085938 375.003906 188.667969 374.945312 189.242188 374.832031 C 189.816406 374.71875 190.375 374.546875 190.917969 374.324219 C 191.457031 374.097656 191.972656 373.824219 192.460938 373.5 C 192.949219 373.171875 193.398438 372.800781 193.8125 372.386719 C 194.226562 371.972656 194.597656 371.523438 194.925781 371.035156 C 195.25 370.546875 195.523438 370.03125 195.75 369.492188 C 195.972656 368.949219 196.144531 368.390625 196.257812 367.816406 C 196.371094 367.242188 196.429688 366.660156 196.429688 366.074219 L 196.429688 336.441406 L 199.175781 336.230469 C 272.140625 330.554688 330.554688 272.140625 336.222656 199.175781 L 336.4375 196.429688 L 366.074219 196.429688 C 366.660156 196.429688 367.242188 196.371094 367.816406 196.257812 C 368.390625 196.140625 368.949219 195.972656 369.488281 195.75 C 370.03125 195.523438 370.546875 195.25 371.035156 194.921875 C 371.519531 194.597656 371.972656 194.226562 372.386719 193.8125 C 372.800781 193.398438 373.171875 192.945312 373.496094 192.460938 C 373.820312 191.972656 374.097656 191.457031 374.320312 190.917969 C 374.542969 190.375 374.714844 189.816406 374.828125 189.242188 C 374.941406 188.667969 375 188.085938 375 187.5 Z M 196.429688 56.445312 L 196.429688 85.269531 C 196.429688 85.855469 196.371094 86.433594 196.257812 87.007812 C 196.144531 87.585938 195.972656 88.144531 195.75 88.683594 C 195.523438 89.226562 195.25 89.742188 194.925781 90.226562 C 194.597656 90.714844 194.226562 91.167969 193.8125 91.582031 C 193.398438 91.996094 192.949219 92.367188 192.460938 92.691406 C 191.972656 93.019531 191.457031 93.292969 190.917969 93.515625 C 190.375 93.742188 189.816406 93.910156 189.242188 94.023438 C 188.667969 94.140625 188.085938 94.195312 187.5 94.195312 C 186.914062 94.195312 186.332031 94.140625 185.757812 94.023438 C 185.183594 93.910156 184.625 93.742188 184.082031 93.515625 C 183.542969 93.292969 183.027344 93.019531 182.539062 92.691406 C 182.050781 92.367188 181.601562 91.996094 181.1875 91.582031 C 180.773438 91.167969 180.402344 90.714844 180.074219 90.226562 C 179.75 89.742188 179.476562 89.226562 179.25 88.683594 C 179.027344 88.144531 178.855469 87.585938 178.742188 87.007812 C 178.628906 86.433594 178.570312 85.855469 178.570312 85.269531 L 178.570312 56.445312 C 184.523438 56.140625 190.476562 56.140625 196.429688 56.445312 Z M 318.554688 196.429688 L 289.734375 196.429688 C 289.148438 196.421875 288.574219 196.363281 288.003906 196.242188 C 287.433594 196.125 286.878906 195.953125 286.339844 195.726562 C 285.804688 195.5 285.292969 195.222656 284.8125 194.894531 C 284.328125 194.570312 283.882812 194.199219 283.472656 193.785156 C 283.0625 193.371094 282.695312 192.921875 282.371094 192.4375 C 282.050781 191.949219 281.777344 191.4375 281.558594 190.898438 C 281.335938 190.359375 281.167969 189.804688 281.054688 189.230469 C 280.941406 188.660156 280.886719 188.082031 280.886719 187.5 C 280.886719 186.917969 280.941406 186.339844 281.054688 185.769531 C 281.167969 185.195312 281.335938 184.640625 281.558594 184.101562 C 281.777344 183.5625 282.050781 183.050781 282.371094 182.566406 C 282.695312 182.078125 283.0625 181.628906 283.472656 181.214844 C 283.882812 180.800781 284.328125 180.429688 284.8125 180.105469 C 285.292969 179.777344 285.804688 179.5 286.339844 179.273438 C 286.878906 179.046875 287.433594 178.875 288.003906 178.757812 C 288.574219 178.640625 289.148438 178.578125 289.734375 178.570312 L 318.554688 178.570312 C 318.925781 184.523438 318.925781 190.476562 318.554688 196.429688 Z M 178.570312 318.554688 L 178.570312 289.734375 C 178.570312 289.148438 178.628906 288.566406 178.742188 287.992188 C 178.855469 287.414062 179.027344 286.859375 179.25 286.316406 C 179.476562 285.773438 179.75 285.257812 180.074219 284.773438 C 180.402344 284.285156 180.773438 283.832031 181.1875 283.417969 C 181.601562 283.003906 182.050781 282.632812 182.539062 282.308594 C 183.027344 281.984375 183.542969 281.707031 184.082031 281.484375 C 184.625 281.257812 185.183594 281.089844 185.757812 280.976562 C 186.332031 280.859375 186.914062 280.804688 187.5 280.804688 C 188.085938 280.804688 188.667969 280.859375 189.242188 280.976562 C 189.816406 281.089844 190.375 281.257812 190.917969 281.484375 C 191.457031 281.707031 191.972656 281.984375 192.460938 282.308594 C 192.949219 282.632812 193.398438 283.003906 193.8125 283.417969 C 194.226562 283.832031 194.597656 284.285156 194.925781 284.773438 C 195.25 285.257812 195.523438 285.773438 195.75 286.316406 C 195.972656 286.859375 196.144531 287.414062 196.257812 287.992188 C 196.371094 288.566406 196.429688 289.148438 196.429688 289.734375 L 196.429688 318.554688 C 190.476562 319.324219 184.523438 319.324219 178.570312 318.554688 Z M 56.441406 178.570312 L 85.269531 178.570312 C 85.859375 178.566406 86.441406 178.617188 87.019531 178.730469 C 87.601562 178.839844 88.164062 179.007812 88.710938 179.226562 C 89.253906 179.449219 89.773438 179.722656 90.265625 180.046875 C 90.757812 180.371094 91.214844 180.742188 91.632812 181.15625 C 92.050781 181.574219 92.425781 182.023438 92.757812 182.515625 C 93.085938 183.003906 93.363281 183.519531 93.589844 184.066406 C 93.816406 184.609375 93.988281 185.171875 94.105469 185.75 C 94.21875 186.328125 94.277344 186.910156 94.277344 187.5 C 94.277344 188.089844 94.21875 188.675781 94.105469 189.253906 C 93.988281 189.832031 93.816406 190.390625 93.589844 190.9375 C 93.363281 191.480469 93.085938 191.996094 92.757812 192.484375 C 92.425781 192.976562 92.050781 193.425781 91.632812 193.84375 C 91.214844 194.257812 90.757812 194.628906 90.265625 194.953125 C 89.773438 195.277344 89.253906 195.550781 88.710938 195.773438 C 88.164062 195.996094 87.601562 196.160156 87.019531 196.269531 C 86.441406 196.382812 85.859375 196.433594 85.269531 196.429688 L 56.441406 196.429688 C 56.035156 190.476562 56.035156 184.523438 56.441406 178.570312 Z M 375 8.925781 L 375 98.210938 C 375.003906 98.800781 374.953125 99.386719 374.84375 99.964844 C 374.730469 100.542969 374.566406 101.109375 374.34375 101.652344 C 374.121094 102.199219 373.847656 102.71875 373.523438 103.210938 C 373.199219 103.703125 372.828125 104.160156 372.414062 104.578125 C 372 104.996094 371.546875 105.371094 371.058594 105.699219 C 370.566406 106.03125 370.050781 106.308594 369.507812 106.535156 C 368.964844 106.761719 368.402344 106.933594 367.824219 107.050781 C 367.246094 107.164062 366.660156 107.222656 366.070312 107.222656 C 365.480469 107.222656 364.898438 107.164062 364.320312 107.050781 C 363.742188 106.933594 363.179688 106.761719 362.636719 106.535156 C 362.089844 106.308594 361.574219 106.03125 361.085938 105.699219 C 360.597656 105.371094 360.144531 104.996094 359.730469 104.578125 C 359.3125 104.160156 358.945312 103.703125 358.617188 103.210938 C 358.292969 102.71875 358.019531 102.199219 357.796875 101.652344 C 357.578125 101.109375 357.410156 100.542969 357.300781 99.964844 C 357.191406 99.386719 357.136719 98.800781 357.144531 98.210938 L 357.144531 17.859375 L 276.78125 17.859375 C 276.195312 17.859375 275.613281 17.800781 275.039062 17.6875 C 274.464844 17.570312 273.90625 17.402344 273.363281 17.179688 C 272.824219 16.953125 272.308594 16.679688 271.820312 16.351562 C 271.335938 16.027344 270.882812 15.65625 270.46875 15.242188 C 270.054688 14.828125 269.683594 14.378906 269.359375 13.890625 C 269.03125 13.402344 268.757812 12.886719 268.53125 12.347656 C 268.308594 11.804688 268.140625 11.246094 268.023438 10.671875 C 267.910156 10.097656 267.851562 9.515625 267.851562 8.929688 C 267.851562 8.34375 267.910156 7.761719 268.023438 7.1875 C 268.140625 6.613281 268.308594 6.054688 268.53125 5.511719 C 268.757812 4.96875 269.03125 4.457031 269.359375 3.96875 C 269.683594 3.480469 270.054688 3.03125 270.46875 2.613281 C 270.882812 2.199219 271.335938 1.832031 271.820312 1.503906 C 272.308594 1.179688 272.824219 0.902344 273.363281 0.679688 C 273.90625 0.457031 274.464844 0.285156 275.039062 0.171875 C 275.613281 0.0585938 276.195312 0 276.78125 0 L 366.074219 0 C 366.660156 0 367.242188 0.0585938 367.816406 0.171875 C 368.390625 0.285156 368.949219 0.457031 369.488281 0.679688 C 370.03125 0.90625 370.546875 1.179688 371.03125 1.503906 C 371.519531 1.832031 371.96875 2.199219 372.382812 2.613281 C 372.800781 3.03125 373.167969 3.480469 373.496094 3.96875 C 373.820312 4.453125 374.09375 4.96875 374.320312 5.511719 C 374.542969 6.050781 374.714844 6.609375 374.828125 7.183594 C 374.941406 7.757812 375 8.339844 375 8.925781 Z M 366.074219 267.855469 C 366.660156 267.859375 367.242188 267.914062 367.816406 268.03125 C 368.390625 268.144531 368.949219 268.316406 369.488281 268.539062 C 370.03125 268.765625 370.546875 269.039062 371.03125 269.363281 C 371.519531 269.691406 371.96875 270.0625 372.382812 270.476562 C 372.800781 270.890625 373.167969 271.339844 373.496094 271.828125 C 373.820312 272.316406 374.09375 272.832031 374.320312 273.371094 C 374.542969 273.914062 374.714844 274.472656 374.828125 275.046875 C 374.941406 275.621094 375 276.203125 375 276.789062 L 375 366.070312 C 375 366.65625 374.941406 367.238281 374.828125 367.8125 C 374.714844 368.386719 374.546875 368.945312 374.320312 369.488281 C 374.097656 370.027344 373.820312 370.542969 373.496094 371.03125 C 373.171875 371.519531 372.800781 371.96875 372.386719 372.382812 C 371.972656 372.796875 371.519531 373.167969 371.035156 373.492188 C 370.546875 373.820312 370.03125 374.09375 369.488281 374.320312 C 368.949219 374.542969 368.390625 374.714844 367.816406 374.828125 C 367.242188 374.941406 366.660156 375 366.074219 375 L 276.78125 375 C 276.199219 374.996094 275.621094 374.933594 275.050781 374.816406 C 274.480469 374.695312 273.925781 374.523438 273.390625 374.296875 C 272.851562 374.070312 272.34375 373.792969 271.859375 373.46875 C 271.378906 373.140625 270.933594 372.769531 270.519531 372.355469 C 270.109375 371.941406 269.746094 371.492188 269.421875 371.007812 C 269.101562 370.519531 268.828125 370.007812 268.605469 369.46875 C 268.386719 368.929688 268.21875 368.375 268.105469 367.804688 C 267.992188 367.230469 267.933594 366.652344 267.933594 366.070312 C 267.933594 365.488281 267.992188 364.910156 268.105469 364.339844 C 268.21875 363.769531 268.386719 363.210938 268.605469 362.671875 C 268.828125 362.132812 269.101562 361.621094 269.421875 361.136719 C 269.746094 360.652344 270.109375 360.199219 270.519531 359.785156 C 270.933594 359.371094 271.378906 359.003906 271.859375 358.675781 C 272.34375 358.347656 272.851562 358.074219 273.390625 357.847656 C 273.925781 357.617188 274.480469 357.445312 275.050781 357.328125 C 275.621094 357.210938 276.199219 357.148438 276.78125 357.144531 L 357.144531 357.144531 L 357.144531 276.789062 C 357.140625 276.203125 357.199219 275.621094 357.3125 275.046875 C 357.429688 274.46875 357.597656 273.910156 357.820312 273.371094 C 358.046875 272.828125 358.320312 272.3125 358.648438 271.824219 C 358.972656 271.335938 359.34375 270.886719 359.757812 270.472656 C 360.171875 270.058594 360.625 269.6875 361.109375 269.359375 C 361.597656 269.035156 362.113281 268.761719 362.65625 268.535156 C 363.199219 268.3125 363.757812 268.140625 364.332031 268.027344 C 364.90625 267.914062 365.488281 267.855469 366.074219 267.855469 Z M 8.925781 375 C 8.339844 375 7.757812 374.941406 7.183594 374.828125 C 6.609375 374.714844 6.050781 374.546875 5.507812 374.320312 C 4.96875 374.097656 4.453125 373.824219 3.964844 373.496094 C 3.476562 373.171875 3.027344 372.800781 2.613281 372.386719 C 2.199219 371.972656 1.828125 371.519531 1.503906 371.035156 C 1.175781 370.546875 0.902344 370.03125 0.679688 369.492188 C 0.453125 368.949219 0.285156 368.390625 0.171875 367.816406 C 0.0546875 367.242188 0 366.660156 0 366.074219 L 0 276.792969 C 0 276.207031 0.0585938 275.625 0.171875 275.050781 C 0.285156 274.476562 0.457031 273.917969 0.679688 273.375 C 0.902344 272.832031 1.179688 272.320312 1.503906 271.832031 C 1.832031 271.34375 2.199219 270.890625 2.613281 270.476562 C 3.03125 270.0625 3.480469 269.691406 3.96875 269.367188 C 4.457031 269.042969 4.96875 268.765625 5.511719 268.542969 C 6.054688 268.316406 6.613281 268.148438 7.1875 268.035156 C 7.761719 267.921875 8.34375 267.863281 8.929688 267.863281 C 9.515625 267.863281 10.097656 267.921875 10.671875 268.035156 C 11.246094 268.148438 11.804688 268.316406 12.347656 268.542969 C 12.886719 268.765625 13.402344 269.042969 13.890625 269.367188 C 14.378906 269.691406 14.828125 270.0625 15.242188 270.476562 C 15.65625 270.890625 16.027344 271.34375 16.351562 271.832031 C 16.679688 272.320312 16.953125 272.832031 17.179688 273.375 C 17.402344 273.917969 17.570312 274.476562 17.6875 275.050781 C 17.800781 275.625 17.859375 276.207031 17.859375 276.792969 L 17.859375 357.144531 L 98.210938 357.144531 C 98.800781 357.136719 99.386719 357.191406 99.964844 357.300781 C 100.542969 357.410156 101.105469 357.578125 101.652344 357.800781 C 102.199219 358.019531 102.71875 358.292969 103.210938 358.621094 C 103.703125 358.945312 104.160156 359.3125 104.578125 359.730469 C 104.996094 360.144531 105.371094 360.597656 105.699219 361.085938 C 106.027344 361.574219 106.304688 362.089844 106.535156 362.636719 C 106.761719 363.179688 106.929688 363.742188 107.046875 364.320312 C 107.164062 364.898438 107.222656 365.480469 107.222656 366.070312 C 107.222656 366.660156 107.164062 367.246094 107.046875 367.824219 C 106.929688 368.402344 106.761719 368.960938 106.535156 369.507812 C 106.304688 370.050781 106.027344 370.566406 105.699219 371.058594 C 105.371094 371.546875 104.996094 372 104.578125 372.414062 C 104.160156 372.828125 103.703125 373.199219 103.210938 373.523438 C 102.71875 373.847656 102.199219 374.121094 101.652344 374.34375 C 101.105469 374.566406 100.542969 374.730469 99.964844 374.84375 C 99.386719 374.953125 98.800781 375.003906 98.210938 375 Z M 8.925781 107.144531 C 8.339844 107.144531 7.757812 107.085938 7.183594 106.972656 C 6.609375 106.859375 6.050781 106.6875 5.507812 106.464844 C 4.964844 106.238281 4.453125 105.964844 3.964844 105.636719 C 3.476562 105.3125 3.027344 104.941406 2.613281 104.527344 C 2.195312 104.113281 1.828125 103.660156 1.5 103.175781 C 1.175781 102.6875 0.902344 102.171875 0.675781 101.628906 C 0.453125 101.089844 0.285156 100.53125 0.171875 99.953125 C 0.0546875 99.378906 0 98.796875 0 98.210938 L 0 8.925781 C 0 8.339844 0.0546875 7.757812 0.171875 7.183594 C 0.285156 6.609375 0.453125 6.050781 0.679688 5.507812 C 0.902344 4.96875 1.175781 4.453125 1.503906 3.964844 C 1.828125 3.480469 2.199219 3.027344 2.613281 2.613281 C 3.027344 2.199219 3.476562 1.828125 3.964844 1.503906 C 4.453125 1.175781 4.96875 0.902344 5.507812 0.679688 C 6.050781 0.453125 6.609375 0.285156 7.183594 0.171875 C 7.757812 0.0585938 8.339844 0 8.925781 0 L 98.210938 0 C 98.796875 0 99.378906 0.0585938 99.953125 0.171875 C 100.527344 0.285156 101.085938 0.457031 101.628906 0.679688 C 102.171875 0.902344 102.683594 1.179688 103.171875 1.503906 C 103.660156 1.832031 104.109375 2.199219 104.527344 2.617188 C 104.941406 3.03125 105.308594 3.480469 105.636719 3.96875 C 105.960938 4.457031 106.238281 4.96875 106.460938 5.511719 C 106.683594 6.054688 106.855469 6.613281 106.96875 7.1875 C 107.082031 7.761719 107.140625 8.34375 107.140625 8.929688 C 107.140625 9.515625 107.082031 10.097656 106.96875 10.671875 C 106.855469 11.246094 106.683594 11.804688 106.460938 12.347656 C 106.238281 12.886719 105.960938 13.402344 105.636719 13.890625 C 105.308594 14.378906 104.941406 14.828125 104.527344 15.242188 C 104.109375 15.65625 103.660156 16.027344 103.171875 16.351562 C 102.683594 16.679688 102.171875 16.953125 101.628906 17.179688 C 101.085938 17.402344 100.527344 17.570312 99.953125 17.6875 C 99.378906 17.800781 98.796875 17.859375 98.210938 17.859375 L 17.859375 17.859375 L 17.859375 98.210938 C 17.859375 98.796875 17.800781 99.378906 17.6875 99.953125 C 17.570312 100.53125 17.402344 101.089844 17.175781 101.628906 C 16.953125 102.171875 16.679688 102.6875 16.351562 103.175781 C 16.027344 103.664062 15.65625 104.113281 15.242188 104.527344 C 14.824219 104.945312 14.375 105.3125 13.886719 105.640625 C 13.398438 105.964844 12.882812 106.238281 12.339844 106.464844 C 11.800781 106.6875 11.242188 106.859375 10.664062 106.972656 C 10.089844 107.085938 9.507812 107.144531 8.921875 107.144531 Z M 187.507812 178.570312 C 187.898438 178.570312 188.285156 178.597656 188.671875 178.648438 C 189.058594 178.699219 189.441406 178.777344 189.816406 178.878906 C 190.195312 178.980469 190.5625 179.105469 190.921875 179.253906 C 191.285156 179.402344 191.632812 179.574219 191.96875 179.769531 C 192.308594 179.964844 192.632812 180.183594 192.941406 180.421875 C 193.25 180.660156 193.542969 180.914062 193.816406 181.191406 C 194.09375 181.46875 194.351562 181.761719 194.585938 182.070312 C 194.824219 182.378906 195.039062 182.703125 195.234375 183.039062 C 195.429688 183.378906 195.601562 183.726562 195.75 184.089844 C 195.898438 184.449219 196.023438 184.816406 196.125 185.195312 C 196.226562 185.570312 196.300781 185.953125 196.351562 186.339844 C 196.402344 186.726562 196.429688 187.113281 196.429688 187.503906 C 196.429688 187.894531 196.402344 188.28125 196.351562 188.667969 C 196.300781 189.054688 196.226562 189.4375 196.125 189.816406 C 196.023438 190.191406 195.898438 190.558594 195.75 190.921875 C 195.597656 191.28125 195.425781 191.628906 195.230469 191.96875 C 195.035156 192.304688 194.820312 192.628906 194.582031 192.9375 C 194.34375 193.246094 194.089844 193.539062 193.8125 193.816406 C 193.535156 194.089844 193.242188 194.347656 192.933594 194.585938 C 192.625 194.824219 192.300781 195.039062 191.964844 195.234375 C 191.625 195.429688 191.277344 195.601562 190.914062 195.75 C 190.554688 195.898438 190.1875 196.023438 189.808594 196.125 C 189.433594 196.226562 189.050781 196.300781 188.664062 196.351562 C 188.277344 196.402344 187.890625 196.429688 187.5 196.429688 C 187.109375 196.429688 186.722656 196.402344 186.335938 196.351562 C 185.949219 196.300781 185.566406 196.226562 185.191406 196.125 C 184.8125 196.023438 184.445312 195.898438 184.082031 195.75 C 183.722656 195.601562 183.375 195.429688 183.035156 195.234375 C 182.699219 195.039062 182.375 194.824219 182.066406 194.585938 C 181.757812 194.347656 181.464844 194.089844 181.1875 193.816406 C 180.910156 193.539062 180.65625 193.246094 180.417969 192.9375 C 180.179688 192.628906 179.964844 192.304688 179.769531 191.96875 C 179.574219 191.628906 179.402344 191.28125 179.25 190.921875 C 179.101562 190.558594 178.976562 190.191406 178.875 189.816406 C 178.773438 189.4375 178.699219 189.054688 178.648438 188.667969 C 178.597656 188.28125 178.570312 187.894531 178.570312 187.503906 C 178.570312 187.113281 178.597656 186.726562 178.648438 186.339844 C 178.699219 185.953125 178.773438 185.570312 178.875 185.195312 C 178.976562 184.816406 179.101562 184.449219 179.25 184.089844 C 179.398438 183.726562 179.570312 183.378906 179.765625 183.039062 C 179.960938 182.703125 180.175781 182.378906 180.414062 182.070312 C 180.648438 181.761719 180.90625 181.46875 181.183594 181.191406 C 181.457031 180.914062 181.75 180.660156 182.058594 180.421875 C 182.367188 180.183594 182.691406 179.964844 183.03125 179.769531 C 183.367188 179.574219 183.714844 179.402344 184.078125 179.253906 C 184.4375 179.105469 184.804688 178.980469 185.183594 178.878906 C 185.558594 178.777344 185.941406 178.699219 186.328125 178.648438 C 186.714844 178.597656 187.101562 178.570312 187.492188 178.570312 Z M 241.070312 187.5 C 241.070312 189.253906 240.984375 191.003906 240.8125 192.75 C 240.640625 194.496094 240.382812 196.230469 240.039062 197.949219 C 239.699219 199.671875 239.273438 201.371094 238.761719 203.050781 C 238.253906 204.730469 237.664062 206.378906 236.992188 208 C 236.320312 209.621094 235.570312 211.207031 234.746094 212.753906 C 233.917969 214.300781 233.015625 215.804688 232.042969 217.261719 C 231.066406 218.722656 230.023438 220.128906 228.910156 221.484375 C 227.796875 222.839844 226.621094 224.140625 225.378906 225.378906 C 224.140625 226.621094 222.839844 227.796875 221.484375 228.910156 C 220.128906 230.023438 218.722656 231.066406 217.261719 232.042969 C 215.804688 233.015625 214.300781 233.917969 212.753906 234.746094 C 211.207031 235.570312 209.621094 236.320312 208 236.992188 C 206.378906 237.664062 204.730469 238.253906 203.050781 238.761719 C 201.371094 239.273438 199.671875 239.699219 197.949219 240.039062 C 196.230469 240.382812 194.496094 240.640625 192.75 240.8125 C 191.003906 240.984375 189.253906 241.070312 187.5 241.070312 C 185.746094 241.070312 183.996094 240.984375 182.25 240.8125 C 180.503906 240.640625 178.769531 240.382812 177.050781 240.039062 C 175.328125 239.699219 173.628906 239.273438 171.949219 238.761719 C 170.269531 238.253906 168.621094 237.664062 167 236.992188 C 165.378906 236.320312 163.792969 235.570312 162.246094 234.746094 C 160.699219 233.917969 159.195312 233.015625 157.738281 232.042969 C 156.277344 231.066406 154.871094 230.023438 153.515625 228.910156 C 152.160156 227.796875 150.859375 226.621094 149.621094 225.378906 C 148.378906 224.140625 147.203125 222.839844 146.089844 221.484375 C 144.976562 220.128906 143.933594 218.722656 142.957031 217.261719 C 141.984375 215.804688 141.082031 214.300781 140.253906 212.753906 C 139.429688 211.207031 138.679688 209.621094 138.007812 208 C 137.335938 206.378906 136.746094 204.730469 136.238281 203.050781 C 135.726562 201.371094 135.300781 199.671875 134.960938 197.949219 C 134.617188 196.230469 134.359375 194.496094 134.1875 192.75 C 134.015625 191.003906 133.929688 189.253906 133.929688 187.5 C 133.929688 185.746094 134.015625 183.996094 134.1875 182.25 C 134.359375 180.503906 134.617188 178.769531 134.960938 177.050781 C 135.300781 175.328125 135.726562 173.628906 136.238281 171.949219 C 136.746094 170.269531 137.335938 168.621094 138.007812 167 C 138.679688 165.378906 139.429688 163.792969 140.253906 162.246094 C 141.082031 160.699219 141.984375 159.195312 142.957031 157.738281 C 143.933594 156.277344 144.976562 154.871094 146.089844 153.515625 C 147.203125 152.160156 148.378906 150.859375 149.621094 149.621094 C 150.859375 148.378906 152.160156 147.203125 153.515625 146.089844 C 154.871094 144.976562 156.277344 143.933594 157.738281 142.957031 C 159.195312 141.984375 160.699219 141.082031 162.246094 140.253906 C 163.792969 139.429688 165.378906 138.679688 167 138.007812 C 168.621094 137.335938 170.269531 136.746094 171.949219 136.238281 C 173.628906 135.726562 175.328125 135.300781 177.050781 134.960938 C 178.769531 134.617188 180.503906 134.359375 182.25 134.1875 C 183.996094 134.015625 185.746094 133.929688 187.5 133.929688 C 189.253906 133.933594 191.003906 134.019531 192.75 134.195312 C 194.492188 134.367188 196.226562 134.625 197.945312 134.96875 C 199.667969 135.3125 201.367188 135.742188 203.042969 136.25 C 204.722656 136.761719 206.371094 137.351562 207.992188 138.023438 C 209.609375 138.695312 211.195312 139.445312 212.738281 140.273438 C 214.285156 141.101562 215.789062 142.003906 217.246094 142.976562 C 218.703125 143.953125 220.113281 144.996094 221.46875 146.109375 C 222.824219 147.222656 224.121094 148.398438 225.359375 149.640625 C 226.601562 150.878906 227.777344 152.175781 228.890625 153.53125 C 230.003906 154.886719 231.046875 156.296875 232.023438 157.753906 C 232.996094 159.210938 233.898438 160.714844 234.726562 162.261719 C 235.554688 163.804688 236.304688 165.390625 236.976562 167.007812 C 237.648438 168.628906 238.238281 170.277344 238.75 171.957031 C 239.257812 173.632812 239.6875 175.332031 240.03125 177.054688 C 240.375 178.773438 240.632812 180.507812 240.804688 182.25 C 240.980469 183.996094 241.066406 185.746094 241.070312 187.5 Z M 258.929688 187.5 C 258.929688 188.667969 258.898438 189.835938 258.84375 191.003906 C 258.785156 192.171875 258.699219 193.335938 258.585938 194.5 C 258.46875 195.664062 258.328125 196.824219 258.15625 197.980469 C 257.984375 199.136719 257.785156 200.289062 257.554688 201.433594 C 257.328125 202.582031 257.070312 203.722656 256.789062 204.855469 C 256.503906 205.988281 256.191406 207.117188 255.851562 208.234375 C 255.511719 209.351562 255.144531 210.460938 254.753906 211.5625 C 254.359375 212.664062 253.9375 213.753906 253.492188 214.835938 C 253.042969 215.914062 252.570312 216.984375 252.070312 218.039062 C 251.570312 219.097656 251.042969 220.140625 250.492188 221.171875 C 249.941406 222.203125 249.367188 223.21875 248.765625 224.222656 C 248.164062 225.222656 247.539062 226.210938 246.890625 227.183594 C 246.242188 228.15625 245.566406 229.109375 244.871094 230.050781 C 244.175781 230.988281 243.457031 231.910156 242.714844 232.8125 C 241.972656 233.71875 241.210938 234.601562 240.425781 235.46875 C 239.640625 236.335938 238.832031 237.179688 238.007812 238.007812 C 237.179688 238.832031 236.335938 239.640625 235.46875 240.425781 C 234.601562 241.210938 233.71875 241.972656 232.8125 242.714844 C 231.910156 243.457031 230.988281 244.175781 230.050781 244.871094 C 229.109375 245.566406 228.15625 246.242188 227.183594 246.890625 C 226.210938 247.539062 225.222656 248.164062 224.222656 248.765625 C 223.21875 249.367188 222.203125 249.941406 221.171875 250.492188 C 220.140625 251.042969 219.097656 251.570312 218.039062 252.070312 C 216.984375 252.570312 215.914062 253.042969 214.835938 253.492188 C 213.753906 253.9375 212.664062 254.359375 211.5625 254.753906 C 210.460938 255.144531 209.351562 255.511719 208.234375 255.851562 C 207.117188 256.191406 205.988281 256.503906 204.855469 256.789062 C 203.722656 257.070312 202.582031 257.328125 201.433594 257.554688 C 200.289062 257.785156 199.136719 257.984375 197.980469 258.15625 C 196.824219 258.328125 195.664062 258.46875 194.5 258.585938 C 193.335938 258.699219 192.171875 258.785156 191.003906 258.84375 C 189.835938 258.898438 188.667969 258.929688 187.5 258.929688 C 186.332031 258.929688 185.164062 258.898438 183.996094 258.84375 C 182.828125 258.785156 181.664062 258.699219 180.5 258.585938 C 179.335938 258.46875 178.175781 258.328125 177.019531 258.15625 C 175.863281 257.984375 174.710938 257.785156 173.566406 257.554688 C 172.417969 257.328125 171.277344 257.070312 170.144531 256.789062 C 169.011719 256.503906 167.882812 256.191406 166.765625 255.851562 C 165.648438 255.511719 164.539062 255.144531 163.4375 254.753906 C 162.335938 254.359375 161.246094 253.9375 160.164062 253.492188 C 159.085938 253.042969 158.015625 252.570312 156.960938 252.070312 C 155.902344 251.570312 154.859375 251.042969 153.828125 250.492188 C 152.796875 249.941406 151.78125 249.367188 150.777344 248.765625 C 149.777344 248.164062 148.789062 247.539062 147.816406 246.890625 C 146.84375 246.242188 145.890625 245.566406 144.949219 244.871094 C 144.011719 244.175781 143.089844 243.457031 142.1875 242.714844 C 141.28125 241.972656 140.398438 241.210938 139.53125 240.425781 C 138.664062 239.640625 137.820312 238.832031 136.992188 238.007812 C 136.167969 237.179688 135.359375 236.335938 134.574219 235.46875 C 133.789062 234.601562 133.027344 233.71875 132.285156 232.8125 C 131.542969 231.910156 130.824219 230.988281 130.128906 230.050781 C 129.433594 229.109375 128.757812 228.15625 128.109375 227.183594 C 127.460938 226.210938 126.835938 225.222656 126.234375 224.222656 C 125.632812 223.21875 125.058594 222.203125 124.507812 221.171875 C 123.953125 220.140625 123.429688 219.097656 122.929688 218.039062 C 122.429688 216.984375 121.957031 215.914062 121.507812 214.835938 C 121.0625 213.753906 120.640625 212.664062 120.246094 211.5625 C 119.855469 210.460938 119.488281 209.351562 119.148438 208.234375 C 118.808594 207.117188 118.496094 205.988281 118.210938 204.855469 C 117.929688 203.722656 117.671875 202.582031 117.445312 201.433594 C 117.214844 200.289062 117.015625 199.136719 116.84375 197.980469 C 116.671875 196.824219 116.53125 195.664062 116.414062 194.5 C 116.300781 193.335938 116.214844 192.171875 116.15625 191.003906 C 116.101562 189.835938 116.070312 188.667969 116.070312 187.5 C 116.070312 186.332031 116.101562 185.164062 116.15625 183.996094 C 116.214844 182.828125 116.300781 181.664062 116.414062 180.5 C 116.53125 179.335938 116.671875 178.175781 116.84375 177.019531 C 117.015625 175.863281 117.214844 174.710938 117.445312 173.566406 C 117.671875 172.417969 117.929688 171.277344 118.210938 170.144531 C 118.496094 169.011719 118.808594 167.882812 119.148438 166.765625 C 119.488281 165.648438 119.855469 164.539062 120.246094 163.4375 C 120.640625 162.335938 121.0625 161.246094 121.507812 160.164062 C 121.957031 159.085938 122.429688 158.015625 122.929688 156.960938 C 123.429688 155.902344 123.953125 154.859375 124.507812 153.828125 C 125.058594 152.796875 125.632812 151.78125 126.234375 150.777344 C 126.835938 149.777344 127.460938 148.789062 128.109375 147.816406 C 128.757812 146.84375 129.433594 145.890625 130.128906 144.949219 C 130.824219 144.011719 131.542969 143.089844 132.285156 142.1875 C 133.027344 141.28125 133.789062 140.398438 134.574219 139.53125 C 135.359375 138.664062 136.167969 137.820312 136.992188 136.992188 C 137.820312 136.167969 138.664062 135.359375 139.53125 134.574219 C 140.398438 133.789062 141.28125 133.027344 142.1875 132.285156 C 143.089844 131.542969 144.011719 130.824219 144.949219 130.128906 C 145.890625 129.433594 146.84375 128.757812 147.816406 128.109375 C 148.789062 127.460938 149.777344 126.835938 150.777344 126.234375 C 151.78125 125.632812 152.796875 125.058594 153.828125 124.507812 C 154.859375 123.953125 155.902344 123.429688 156.960938 122.929688 C 158.015625 122.429688 159.085938 121.957031 160.164062 121.507812 C 161.246094 121.0625 162.335938 120.640625 163.4375 120.246094 C 164.539062 119.855469 165.648438 119.488281 166.765625 119.148438 C 167.882812 118.808594 169.011719 118.496094 170.144531 118.210938 C 171.277344 117.929688 172.417969 117.671875 173.566406 117.445312 C 174.710938 117.214844 175.863281 117.015625 177.019531 116.84375 C 178.175781 116.671875 179.335938 116.53125 180.5 116.414062 C 181.664062 116.300781 182.828125 116.214844 183.996094 116.15625 C 185.164062 116.101562 186.332031 116.070312 187.5 116.070312 C 188.667969 116.074219 189.835938 116.101562 191.003906 116.160156 C 192.171875 116.21875 193.335938 116.308594 194.5 116.421875 C 195.660156 116.539062 196.820312 116.683594 197.976562 116.855469 C 199.132812 117.027344 200.285156 117.230469 201.429688 117.457031 C 202.574219 117.6875 203.714844 117.945312 204.847656 118.230469 C 205.980469 118.511719 207.105469 118.824219 208.226562 119.164062 C 209.34375 119.507812 210.453125 119.875 211.550781 120.265625 C 212.652344 120.660156 213.742188 121.082031 214.820312 121.53125 C 215.902344 121.980469 216.96875 122.453125 218.023438 122.953125 C 219.082031 123.453125 220.125 123.980469 221.15625 124.53125 C 222.183594 125.082031 223.203125 125.65625 224.203125 126.257812 C 225.207031 126.859375 226.191406 127.484375 227.164062 128.132812 C 228.136719 128.785156 229.089844 129.457031 230.027344 130.152344 C 230.96875 130.851562 231.886719 131.570312 232.792969 132.308594 C 233.695312 133.050781 234.578125 133.816406 235.445312 134.601562 C 236.3125 135.382812 237.15625 136.191406 237.984375 137.015625 C 238.808594 137.84375 239.617188 138.6875 240.398438 139.554688 C 241.183594 140.421875 241.949219 141.304688 242.691406 142.207031 C 243.429688 143.113281 244.148438 144.03125 244.847656 144.972656 C 245.542969 145.910156 246.214844 146.863281 246.863281 147.835938 C 247.515625 148.808594 248.140625 149.792969 248.742188 150.796875 C 249.34375 151.796875 249.917969 152.816406 250.46875 153.84375 C 251.019531 154.875 251.546875 155.917969 252.046875 156.976562 C 252.546875 158.03125 253.019531 159.097656 253.46875 160.179688 C 253.917969 161.257812 254.339844 162.347656 254.730469 163.449219 C 255.125 164.546875 255.492188 165.65625 255.835938 166.773438 C 256.175781 167.894531 256.488281 169.019531 256.769531 170.152344 C 257.054688 171.285156 257.3125 172.425781 257.542969 173.570312 C 257.769531 174.714844 257.972656 175.867188 258.144531 177.023438 C 258.316406 178.179688 258.460938 179.339844 258.578125 180.5 C 258.691406 181.664062 258.78125 182.828125 258.839844 183.996094 C 258.898438 185.164062 258.925781 186.332031 258.929688 187.5 Z M 258.929688 187.5 " clip-rule="evenodd"/></clipPath><linearGradient x1="256" gradientTransform="matrix(0.732422, 0, 0, 0.732422, 0.0000045, 0)" y1="511.999975" x2="256" gradientUnits="userSpaceOnUse" y2="0" id="c26f08d1b2"><stop stop-opacity="1" stop-color="rgb(0%, 47.799683%, 71.398926%)" offset="0"/><stop stop-opacity="1" stop-color="rgb(0%, 47.903442%, 71.554565%)" offset="0.015625"/><stop stop-opacity="1" stop-color="rgb(0%, 48.112488%, 71.867371%)" offset="0.03125"/><stop stop-opacity="1" stop-color="rgb(0%, 48.321533%, 72.180176%)" offset="0.046875"/><stop stop-opacity="1" stop-color="rgb(0%, 48.532104%, 72.492981%)" offset="0.0625"/><stop stop-opacity="1" stop-color="rgb(0%, 48.74115%, 72.80426%)" offset="0.078125"/><stop stop-opacity="1" stop-color="rgb(0%, 48.950195%, 73.117065%)" offset="0.09375"/><stop stop-opacity="1" stop-color="rgb(0%, 49.159241%, 73.429871%)" offset="0.109375"/><stop stop-opacity="1" stop-color="rgb(0%, 49.368286%, 73.742676%)" offset="0.125"/><stop stop-opacity="1" stop-color="rgb(0%, 49.578857%, 74.055481%)" offset="0.140625"/><stop stop-opacity="1" stop-color="rgb(0%, 49.787903%, 74.36676%)" offset="0.15625"/><stop stop-opacity="1" stop-color="rgb(0%, 49.996948%, 74.679565%)" offset="0.171875"/><stop stop-opacity="1" stop-color="rgb(0%, 50.205994%, 74.992371%)" offset="0.1875"/><stop stop-opacity="1" stop-color="rgb(0%, 50.416565%, 75.305176%)" offset="0.203125"/><stop stop-opacity="1" stop-color="rgb(0%, 50.62561%, 75.617981%)" offset="0.21875"/><stop stop-opacity="1" stop-color="rgb(0%, 50.834656%, 75.92926%)" offset="0.234375"/><stop stop-opacity="1" stop-color="rgb(0%, 51.043701%, 76.242065%)" offset="0.25"/><stop stop-opacity="1" stop-color="rgb(0%, 51.252747%, 76.554871%)" offset="0.265625"/><stop stop-opacity="1" stop-color="rgb(0%, 51.463318%, 76.867676%)" offset="0.28125"/><stop stop-opacity="1" stop-color="rgb(0%, 51.672363%, 77.180481%)" offset="0.296875"/><stop stop-opacity="1" stop-color="rgb(0%, 51.881409%, 77.49176%)" offset="0.3125"/><stop stop-opacity="1" stop-color="rgb(0%, 52.090454%, 77.804565%)" offset="0.328125"/><stop stop-opacity="1" stop-color="rgb(0%, 52.2995%, 78.117371%)" offset="0.34375"/><stop stop-opacity="1" stop-color="rgb(0%, 52.510071%, 78.430176%)" offset="0.359375"/><stop stop-opacity="1" stop-color="rgb(0%, 52.719116%, 78.742981%)" offset="0.375"/><stop stop-opacity="1" stop-color="rgb(0%, 52.928162%, 79.05426%)" offset="0.390625"/><stop stop-opacity="1" stop-color="rgb(0%, 53.137207%, 79.367065%)" offset="0.40625"/><stop stop-opacity="1" stop-color="rgb(0%, 53.347778%, 79.679871%)" offset="0.421875"/><stop stop-opacity="1" stop-color="rgb(0%, 53.556824%, 79.992676%)" offset="0.4375"/><stop stop-opacity="1" stop-color="rgb(0%, 53.765869%, 80.305481%)" offset="0.453125"/><stop stop-opacity="1" stop-color="rgb(0%, 53.974915%, 80.61676%)" offset="0.46875"/><stop stop-opacity="1" stop-color="rgb(0%, 54.18396%, 80.929565%)" offset="0.484375"/><stop stop-opacity="1" stop-color="rgb(0%, 54.394531%, 81.242371%)" offset="0.5"/><stop stop-opacity="1" stop-color="rgb(0%, 54.603577%, 81.555176%)" offset="0.515625"/><stop stop-opacity="1" stop-color="rgb(0%, 54.812622%, 81.867981%)" offset="0.53125"/><stop stop-opacity="1" stop-color="rgb(0%, 55.021667%, 82.17926%)" offset="0.546875"/><stop stop-opacity="1" stop-color="rgb(0%, 55.230713%, 82.492065%)" offset="0.5625"/><stop stop-opacity="1" stop-color="rgb(0%, 55.441284%, 82.804871%)" offset="0.578125"/><stop stop-opacity="1" stop-color="rgb(0%, 55.65033%, 83.117676%)" offset="0.59375"/><stop stop-opacity="1" stop-color="rgb(0%, 55.859375%, 83.430481%)" offset="0.609375"/><stop stop-opacity="1" stop-color="rgb(0%, 56.06842%, 83.74176%)" offset="0.625"/><stop stop-opacity="1" stop-color="rgb(0%, 56.278992%, 84.054565%)" offset="0.640625"/><stop stop-opacity="1" stop-color="rgb(0%, 56.488037%, 84.367371%)" offset="0.65625"/><stop stop-opacity="1" stop-color="rgb(0%, 56.697083%, 84.680176%)" offset="0.671875"/><stop stop-opacity="1" stop-color="rgb(0%, 56.906128%, 84.992981%)" offset="0.6875"/><stop stop-opacity="1" stop-color="rgb(0%, 57.115173%, 85.30426%)" offset="0.703125"/><stop stop-opacity="1" stop-color="rgb(0%, 57.325745%, 85.617065%)" offset="0.71875"/><stop stop-opacity="1" stop-color="rgb(0%, 57.53479%, 85.929871%)" offset="0.734375"/><stop stop-opacity="1" stop-color="rgb(0%, 57.743835%, 86.242676%)" offset="0.75"/><stop stop-opacity="1" stop-color="rgb(0%, 57.952881%, 86.555481%)" offset="0.765625"/><stop stop-opacity="1" stop-color="rgb(0%, 58.163452%, 86.86676%)" offset="0.78125"/><stop stop-opacity="1" stop-color="rgb(0%, 58.372498%, 87.179565%)" offset="0.796875"/><stop stop-opacity="1" stop-color="rgb(0%, 58.581543%, 87.492371%)" offset="0.8125"/><stop stop-opacity="1" stop-color="rgb(0%, 58.790588%, 87.805176%)" offset="0.828125"/><stop stop-opacity="1" stop-color="rgb(0%, 58.999634%, 88.117981%)" offset="0.84375"/><stop stop-opacity="1" stop-color="rgb(0%, 59.210205%, 88.42926%)" offset="0.859375"/><stop stop-opacity="1" stop-color="rgb(0%, 59.41925%, 88.742065%)" offset="0.875"/><stop stop-opacity="1" stop-color="rgb(0%, 59.628296%, 89.054871%)" offset="0.890625"/><stop stop-opacity="1" stop-color="rgb(0%, 59.837341%, 89.367676%)" offset="0.90625"/><stop stop-opacity="1" stop-color="rgb(0%, 60.046387%, 89.680481%)" offset="0.921875"/><stop stop-opacity="1" stop-color="rgb(0%, 60.256958%, 89.99176%)" offset="0.9375"/><stop stop-opacity="1" stop-color="rgb(0%, 60.466003%, 90.304565%)" offset="0.953125"/><stop stop-opacity="1" stop-color="rgb(0%, 60.675049%, 90.617371%)" offset="0.96875"/><stop stop-opacity="1" stop-color="rgb(0%, 60.884094%, 90.930176%)" offset="0.984375"/><stop stop-opacity="1" stop-color="rgb(0%, 61.094666%, 91.242981%)" offset="1"/></linearGradient></defs><g clip-path="url(#4b840e1e20)"><rect x="-37.5" fill="url(#c26f08d1b2)" width="450" y="-37.499999" height="449.999989"/></g></svg>