<svg xmlns="http://www.w3.org/2000/svg" xmlns:xlink="http://www.w3.org/1999/xlink" width="500" zoomAndPan="magnify" viewBox="0 0 375 374.999991" height="500" preserveAspectRatio="xMidYMid meet" version="1.0"><defs><clipPath id="7e9a825ea8"><path d="M 33 0 L 342 0 L 342 375 L 33 375 Z M 33 0 " clip-rule="nonzero"/></clipPath><clipPath id="53369550a5"><path d="M 33.910156 129.746094 L 33.910156 80.300781 L 187.5 -0.015625 L 341.089844 80.300781 L 341.089844 129.796875 L 191.125 50.058594 L 191.105469 50.109375 C 190.519531 49.796875 189.902344 49.554688 189.253906 49.394531 C 188.605469 49.230469 187.949219 49.148438 187.28125 49.148438 C 186.613281 49.148438 185.953125 49.230469 185.308594 49.394531 C 184.660156 49.554688 184.042969 49.796875 183.453125 50.109375 Z M 341.089844 146.542969 L 340.351562 147.902344 L 187.261719 66.539062 L 33.910156 148.214844 L 33.910156 217.859375 C 35.027344 222.535156 36.300781 227.171875 37.726562 231.765625 C 39.15625 236.355469 40.738281 240.894531 42.472656 245.382812 C 44.207031 249.867188 46.09375 254.289062 48.128906 258.648438 C 50.160156 263.007812 52.339844 267.289062 54.660156 271.503906 C 56.984375 275.714844 59.449219 279.84375 62.050781 283.886719 C 64.652344 287.933594 67.386719 291.886719 70.253906 295.746094 C 73.121094 299.605469 76.117188 303.367188 79.242188 307.023438 C 82.363281 310.683594 85.605469 314.230469 88.96875 317.671875 C 92.328125 321.109375 95.804688 324.429688 99.390625 327.636719 C 102.976562 330.839844 106.664062 333.921875 110.460938 336.878906 C 114.253906 339.832031 118.144531 342.65625 122.128906 345.351562 C 126.113281 348.042969 130.183594 350.597656 134.34375 353.015625 C 138.5 355.433594 142.734375 357.710938 147.042969 359.84375 C 151.355469 361.976562 155.734375 363.960938 160.179688 365.796875 C 164.625 367.632812 169.125 369.320312 173.683594 370.851562 C 178.242188 372.382812 182.847656 373.761719 187.5 374.984375 C 192.152344 373.761719 196.757812 372.382812 201.316406 370.851562 C 205.875 369.320312 210.375 367.632812 214.820312 365.796875 C 219.265625 363.960938 223.644531 361.976562 227.957031 359.84375 C 232.265625 357.710938 236.5 355.4375 240.660156 353.019531 C 244.816406 350.601562 248.886719 348.042969 252.871094 345.351562 C 256.855469 342.660156 260.746094 339.835938 264.539062 336.878906 C 268.335938 333.921875 272.027344 330.84375 275.613281 327.636719 C 279.199219 324.433594 282.671875 321.109375 286.035156 317.671875 C 289.394531 314.230469 292.636719 310.683594 295.761719 307.023438 C 298.882812 303.367188 301.878906 299.605469 304.746094 295.746094 C 307.617188 291.886719 310.351562 287.933594 312.953125 283.886719 C 315.554688 279.84375 318.015625 275.714844 320.339844 271.503906 C 322.660156 267.292969 324.839844 263.007812 326.875 258.648438 C 328.90625 254.289062 330.792969 249.867188 332.527344 245.382812 C 334.261719 240.894531 335.84375 236.355469 337.273438 231.765625 C 338.699219 227.171875 339.972656 222.535156 341.089844 217.859375 Z M 341.089844 146.542969 " clip-rule="evenodd"/></clipPath><linearGradient x1="255.996" gradientTransform="matrix(0.732422, 0, 0, 0.732422, 0.0000045, 0)" y1="511.978003" x2="255.996" gradientUnits="userSpaceOnUse" y2="0.000000000000056843" id="1dd5c31a5c"><stop stop-opacity="1" stop-color="rgb(0%, 47.799683%, 71.398926%)" offset="0"/><stop stop-opacity="1" stop-color="rgb(0%, 47.903442%, 71.554565%)" offset="0.015625"/><stop stop-opacity="1" stop-color="rgb(0%, 48.112488%, 71.867371%)" offset="0.03125"/><stop stop-opacity="1" stop-color="rgb(0%, 48.321533%, 72.180176%)" offset="0.046875"/><stop stop-opacity="1" stop-color="rgb(0%, 48.532104%, 72.492981%)" offset="0.0625"/><stop stop-opacity="1" stop-color="rgb(0%, 48.74115%, 72.80426%)" offset="0.078125"/><stop stop-opacity="1" stop-color="rgb(0%, 48.950195%, 73.117065%)" offset="0.09375"/><stop stop-opacity="1" stop-color="rgb(0%, 49.159241%, 73.429871%)" offset="0.109375"/><stop stop-opacity="1" stop-color="rgb(0%, 49.368286%, 73.742676%)" offset="0.125"/><stop stop-opacity="1" stop-color="rgb(0%, 49.578857%, 74.055481%)" offset="0.140625"/><stop stop-opacity="1" stop-color="rgb(0%, 49.787903%, 74.36676%)" offset="0.15625"/><stop stop-opacity="1" stop-color="rgb(0%, 49.996948%, 74.679565%)" offset="0.171875"/><stop stop-opacity="1" stop-color="rgb(0%, 50.205994%, 74.992371%)" offset="0.1875"/><stop stop-opacity="1" stop-color="rgb(0%, 50.415039%, 75.305176%)" offset="0.203125"/><stop stop-opacity="1" stop-color="rgb(0%, 50.62561%, 75.616455%)" offset="0.21875"/><stop stop-opacity="1" stop-color="rgb(0%, 50.834656%, 75.92926%)" offset="0.234375"/><stop stop-opacity="1" stop-color="rgb(0%, 51.043701%, 76.242065%)" offset="0.25"/><stop stop-opacity="1" stop-color="rgb(0%, 51.252747%, 76.554871%)" offset="0.265625"/><stop stop-opacity="1" stop-color="rgb(0%, 51.461792%, 76.867676%)" offset="0.28125"/><stop stop-opacity="1" stop-color="rgb(0%, 51.672363%, 77.178955%)" offset="0.296875"/><stop stop-opacity="1" stop-color="rgb(0%, 51.881409%, 77.49176%)" offset="0.3125"/><stop stop-opacity="1" stop-color="rgb(0%, 52.090454%, 77.804565%)" offset="0.328125"/><stop stop-opacity="1" stop-color="rgb(0%, 52.2995%, 78.117371%)" offset="0.34375"/><stop stop-opacity="1" stop-color="rgb(0%, 52.510071%, 78.430176%)" offset="0.359375"/><stop stop-opacity="1" stop-color="rgb(0%, 52.719116%, 78.741455%)" offset="0.375"/><stop stop-opacity="1" stop-color="rgb(0%, 52.928162%, 79.05426%)" offset="0.390625"/><stop stop-opacity="1" stop-color="rgb(0%, 53.137207%, 79.367065%)" offset="0.40625"/><stop stop-opacity="1" stop-color="rgb(0%, 53.346252%, 79.679871%)" offset="0.421875"/><stop stop-opacity="1" stop-color="rgb(0%, 53.556824%, 79.992676%)" offset="0.4375"/><stop stop-opacity="1" stop-color="rgb(0%, 53.765869%, 80.303955%)" offset="0.453125"/><stop stop-opacity="1" stop-color="rgb(0%, 53.974915%, 80.61676%)" offset="0.46875"/><stop stop-opacity="1" stop-color="rgb(0%, 54.18396%, 80.929565%)" offset="0.484375"/><stop stop-opacity="1" stop-color="rgb(0%, 54.393005%, 81.242371%)" offset="0.5"/><stop stop-opacity="1" stop-color="rgb(0%, 54.603577%, 81.555176%)" offset="0.515625"/><stop stop-opacity="1" stop-color="rgb(0%, 54.812622%, 81.866455%)" offset="0.53125"/><stop stop-opacity="1" stop-color="rgb(0%, 55.021667%, 82.17926%)" offset="0.546875"/><stop stop-opacity="1" stop-color="rgb(0%, 55.230713%, 82.492065%)" offset="0.5625"/><stop stop-opacity="1" stop-color="rgb(0%, 55.441284%, 82.804871%)" offset="0.578125"/><stop stop-opacity="1" stop-color="rgb(0%, 55.65033%, 83.117676%)" offset="0.59375"/><stop stop-opacity="1" stop-color="rgb(0%, 55.859375%, 83.428955%)" offset="0.609375"/><stop stop-opacity="1" stop-color="rgb(0%, 56.06842%, 83.74176%)" offset="0.625"/><stop stop-opacity="1" stop-color="rgb(0%, 56.277466%, 84.054565%)" offset="0.640625"/><stop stop-opacity="1" stop-color="rgb(0%, 56.488037%, 84.367371%)" offset="0.65625"/><stop stop-opacity="1" stop-color="rgb(0%, 56.697083%, 84.67865%)" offset="0.671875"/><stop stop-opacity="1" stop-color="rgb(0%, 56.906128%, 84.991455%)" offset="0.6875"/><stop stop-opacity="1" stop-color="rgb(0%, 57.115173%, 85.30426%)" offset="0.703125"/><stop stop-opacity="1" stop-color="rgb(0%, 57.324219%, 85.617065%)" offset="0.71875"/><stop stop-opacity="1" stop-color="rgb(0%, 57.53479%, 85.929871%)" offset="0.734375"/><stop stop-opacity="1" stop-color="rgb(0%, 57.743835%, 86.24115%)" offset="0.75"/><stop stop-opacity="1" stop-color="rgb(0%, 57.952881%, 86.553955%)" offset="0.765625"/><stop stop-opacity="1" stop-color="rgb(0%, 58.161926%, 86.86676%)" offset="0.78125"/><stop stop-opacity="1" stop-color="rgb(0%, 58.370972%, 87.179565%)" offset="0.796875"/><stop stop-opacity="1" stop-color="rgb(0%, 58.581543%, 87.492371%)" offset="0.8125"/><stop stop-opacity="1" stop-color="rgb(0%, 58.790588%, 87.80365%)" offset="0.828125"/><stop stop-opacity="1" stop-color="rgb(0%, 58.999634%, 88.116455%)" offset="0.84375"/><stop stop-opacity="1" stop-color="rgb(0%, 59.208679%, 88.42926%)" offset="0.859375"/><stop stop-opacity="1" stop-color="rgb(0%, 59.41925%, 88.742065%)" offset="0.875"/><stop stop-opacity="1" stop-color="rgb(0%, 59.628296%, 89.054871%)" offset="0.890625"/><stop stop-opacity="1" stop-color="rgb(0%, 59.837341%, 89.36615%)" offset="0.90625"/><stop stop-opacity="1" stop-color="rgb(0%, 60.046387%, 89.678955%)" offset="0.921875"/><stop stop-opacity="1" stop-color="rgb(0%, 60.255432%, 89.99176%)" offset="0.9375"/><stop stop-opacity="1" stop-color="rgb(0%, 60.466003%, 90.304565%)" offset="0.953125"/><stop stop-opacity="1" stop-color="rgb(0%, 60.675049%, 90.617371%)" offset="0.96875"/><stop stop-opacity="1" stop-color="rgb(0%, 60.884094%, 90.92865%)" offset="0.984375"/><stop stop-opacity="1" stop-color="rgb(0%, 61.09314%, 91.241455%)" offset="1"/></linearGradient></defs><g clip-path="url(#7e9a825ea8)"><g clip-path="url(#53369550a5)"><path fill="url(#1dd5c31a5c)" d="M 33.910156 0 L 33.910156 374.984375 L 341.089844 374.984375 L 341.089844 0 Z M 33.910156 0 " fill-rule="nonzero"/></g></g></svg>