<svg xmlns="http://www.w3.org/2000/svg" xmlns:xlink="http://www.w3.org/1999/xlink" width="500" zoomAndPan="magnify" viewBox="0 0 375 374.999991" height="500" preserveAspectRatio="xMidYMid meet" version="1.0"><defs><clipPath id="79d0f07659"><path d="M 0 2 L 375 2 L 375 373 L 0 373 Z M 0 2 " clip-rule="nonzero"/></clipPath><clipPath id="ed5a6ea12f"><path d="M 187.5 89.476562 C 189.078125 89.476562 190.652344 89.523438 192.226562 89.613281 C 193.800781 89.707031 195.371094 89.839844 196.933594 90.023438 C 198.5 90.203125 200.0625 90.429688 201.613281 90.699219 C 203.167969 90.96875 204.710938 91.285156 206.246094 91.644531 C 207.78125 92 209.304688 92.402344 210.816406 92.851562 C 212.328125 93.296875 213.828125 93.785156 215.3125 94.316406 C 216.796875 94.847656 218.261719 95.421875 219.714844 96.039062 C 221.164062 96.65625 222.597656 97.3125 224.011719 98.007812 C 225.425781 98.707031 226.816406 99.445312 228.1875 100.222656 C 229.5625 101 230.910156 101.816406 232.234375 102.671875 C 233.558594 103.527344 234.855469 104.417969 236.128906 105.347656 C 237.402344 106.277344 238.648438 107.242188 239.867188 108.242188 C 241.085938 109.246094 242.273438 110.277344 243.433594 111.347656 C 244.59375 112.417969 245.71875 113.519531 246.816406 114.652344 C 247.910156 115.785156 248.972656 116.949219 250.003906 118.144531 C 251.03125 119.335938 252.027344 120.558594 252.984375 121.8125 C 253.945312 123.0625 254.867188 124.339844 255.753906 125.644531 C 256.636719 126.949219 257.488281 128.277344 258.296875 129.628906 C 259.105469 130.980469 259.875 132.355469 260.609375 133.753906 C 261.339844 135.148438 262.03125 136.566406 262.679688 138.003906 C 263.328125 139.4375 263.9375 140.890625 264.503906 142.363281 C 265.070312 143.835938 265.59375 145.320312 266.078125 146.820312 C 266.558594 148.324219 266.996094 149.835938 267.390625 151.363281 C 267.785156 152.890625 268.136719 154.425781 268.445312 155.972656 C 268.75 157.519531 269.011719 159.070312 269.230469 160.632812 C 269.449219 162.195312 269.621094 163.761719 269.75 165.332031 C 269.878906 166.902344 269.960938 168.476562 270 170.054688 C 270.039062 171.628906 270.03125 173.203125 269.976562 174.78125 C 269.925781 176.355469 269.828125 177.929688 269.6875 179.5 C 269.542969 181.070312 269.355469 182.632812 269.125 184.191406 C 268.890625 185.753906 268.617188 187.304688 268.296875 188.847656 C 267.972656 190.390625 267.609375 191.925781 267.199219 193.445312 C 266.792969 194.96875 266.339844 196.480469 265.84375 197.976562 C 265.351562 199.472656 264.8125 200.953125 264.230469 202.417969 C 263.652344 203.886719 263.03125 205.332031 262.367188 206.765625 C 261.703125 208.195312 261 209.605469 260.257812 210.996094 C 259.515625 212.382812 258.730469 213.753906 257.910156 215.097656 C 257.085938 216.441406 256.226562 217.761719 255.328125 219.058594 C 254.429688 220.355469 253.496094 221.625 252.527344 222.867188 C 251.558594 224.109375 250.550781 225.324219 249.511719 226.507812 C 248.472656 227.691406 247.398438 228.847656 246.292969 229.96875 C 245.1875 231.09375 244.050781 232.183594 242.878906 233.242188 C 241.710938 234.300781 240.515625 235.324219 239.289062 236.316406 C 238.058594 237.304688 236.804688 238.257812 235.523438 239.175781 C 234.242188 240.09375 232.933594 240.972656 231.601562 241.816406 C 230.269531 242.660156 228.914062 243.464844 227.535156 244.230469 C 226.160156 244.996094 224.757812 245.71875 223.339844 246.40625 C 221.917969 247.089844 220.480469 247.734375 219.023438 248.335938 C 217.566406 248.9375 216.09375 249.5 214.605469 250.019531 C 213.117188 250.535156 211.613281 251.011719 210.097656 251.445312 C 208.582031 251.875 207.054688 252.265625 205.515625 252.609375 C 203.980469 252.953125 202.433594 253.253906 200.875 253.511719 C 199.320312 253.769531 197.757812 253.980469 196.191406 254.144531 C 194.625 254.3125 193.054688 254.433594 191.476562 254.511719 C 189.902344 254.589844 188.328125 254.621094 186.75 254.605469 C 185.175781 254.59375 183.601562 254.535156 182.027344 254.429688 C 180.453125 254.328125 178.886719 254.179688 177.320312 253.984375 C 175.757812 253.792969 174.199219 253.554688 172.648438 253.269531 C 171.097656 252.988281 169.554688 252.660156 168.023438 252.289062 C 166.492188 251.917969 164.96875 251.503906 163.460938 251.046875 C 161.953125 250.589844 160.460938 250.085938 158.980469 249.542969 C 157.5 249 156.035156 248.414062 154.589844 247.785156 C 153.144531 247.160156 151.71875 246.492188 150.308594 245.78125 C 148.902344 245.070312 147.515625 244.324219 146.148438 243.535156 C 144.785156 242.746094 143.445312 241.917969 142.125 241.054688 C 140.808594 240.1875 139.515625 239.285156 138.25 238.34375 C 136.984375 237.40625 135.746094 236.429688 134.535156 235.421875 C 133.328125 234.410156 132.144531 233.367188 130.996094 232.289062 C 129.84375 231.210938 128.726562 230.097656 127.640625 228.957031 C 126.554688 227.816406 125.5 226.644531 124.480469 225.441406 C 123.460938 224.238281 122.476562 223.007812 121.527344 221.75 C 120.578125 220.488281 119.667969 219.203125 118.792969 217.894531 C 117.914062 216.582031 117.078125 215.246094 116.28125 213.886719 C 115.480469 212.53125 114.722656 211.148438 114 209.746094 C 113.28125 208.34375 112.601562 206.921875 111.964844 205.480469 C 111.324219 204.039062 110.726562 202.582031 110.171875 201.105469 C 109.617188 199.628906 109.105469 198.140625 108.636719 196.632812 C 108.167969 195.128906 107.742188 193.613281 107.359375 192.082031 C 106.976562 190.554688 106.636719 189.015625 106.34375 187.464844 C 106.046875 185.917969 105.796875 184.359375 105.59375 182.796875 C 105.386719 181.234375 105.226562 179.667969 105.113281 178.09375 C 104.996094 176.523438 104.925781 174.949219 104.902344 173.371094 C 104.875 171.796875 104.894531 170.21875 104.960938 168.644531 C 105.023438 167.070312 105.132812 165.496094 105.289062 163.929688 C 105.445312 162.359375 105.644531 160.796875 105.890625 159.238281 C 106.132812 157.679688 106.421875 156.132812 106.753906 154.589844 C 107.089844 153.050781 107.464844 151.519531 107.886719 150 C 108.308594 148.480469 108.769531 146.976562 109.277344 145.484375 C 109.785156 143.992188 110.335938 142.511719 110.925781 141.050781 C 111.519531 139.589844 112.152344 138.148438 112.824219 136.722656 C 113.5 135.296875 114.214844 133.894531 114.96875 132.507812 C 115.726562 131.125 116.519531 129.765625 117.351562 128.425781 C 118.183594 127.085938 119.054688 125.773438 119.960938 124.484375 C 120.871094 123.195312 121.816406 121.933594 122.796875 120.699219 C 123.777344 119.464844 124.789062 118.257812 125.839844 117.082031 C 126.890625 115.90625 127.972656 114.761719 129.085938 113.644531 C 131 111.734375 133 109.917969 135.09375 108.203125 C 137.183594 106.484375 139.355469 104.875 141.601562 103.371094 C 143.851562 101.871094 146.171875 100.480469 148.558594 99.207031 C 150.941406 97.933594 153.386719 96.777344 155.886719 95.742188 C 158.386719 94.707031 160.929688 93.800781 163.519531 93.015625 C 166.109375 92.230469 168.730469 91.578125 171.382812 91.050781 C 174.039062 90.523438 176.710938 90.128906 179.402344 89.867188 C 182.097656 89.605469 184.792969 89.472656 187.5 89.476562 Z M 234.335938 125.210938 C 233.441406 124.316406 232.519531 123.449219 231.574219 122.605469 C 230.632812 121.765625 229.664062 120.949219 228.671875 120.164062 C 227.683594 119.375 226.667969 118.617188 225.632812 117.886719 C 224.601562 117.160156 223.546875 116.460938 222.472656 115.792969 C 221.394531 115.125 220.304688 114.484375 219.191406 113.878906 C 218.082031 113.273438 216.953125 112.699219 215.808594 112.160156 C 214.667969 111.617188 213.507812 111.109375 212.335938 110.632812 C 211.160156 110.160156 209.976562 109.71875 208.777344 109.3125 C 207.578125 108.902344 206.371094 108.53125 205.152344 108.195312 C 203.929688 107.855469 202.703125 107.554688 201.464844 107.285156 C 200.230469 107.019531 198.984375 106.785156 197.734375 106.589844 C 196.484375 106.394531 195.230469 106.234375 193.96875 106.109375 C 192.710938 105.984375 191.449219 105.894531 190.183594 105.84375 C 188.921875 105.792969 187.65625 105.777344 186.390625 105.796875 C 185.125 105.816406 183.859375 105.875 182.597656 105.964844 C 181.335938 106.058594 180.078125 106.1875 178.824219 106.351562 C 177.566406 106.515625 176.320312 106.71875 175.074219 106.953125 C 173.832031 107.191406 172.597656 107.460938 171.371094 107.769531 C 170.140625 108.078125 168.921875 108.417969 167.714844 108.796875 C 166.507812 109.171875 165.3125 109.585938 164.125 110.03125 C 162.941406 110.476562 161.769531 110.953125 160.613281 111.464844 C 159.457031 111.980469 158.316406 112.523438 157.1875 113.101562 C 156.0625 113.679688 154.953125 114.289062 153.863281 114.929688 C 152.773438 115.574219 151.703125 116.246094 150.648438 116.949219 C 149.597656 117.648438 148.566406 118.382812 147.554688 119.144531 C 146.542969 119.90625 145.554688 120.695312 144.589844 121.515625 C 143.625 122.332031 142.683594 123.179688 141.765625 124.050781 C 140.851562 124.925781 139.960938 125.820312 139.09375 126.746094 C 138.230469 127.667969 137.390625 128.617188 136.578125 129.585938 C 135.769531 130.558594 134.984375 131.554688 134.230469 132.570312 C 133.476562 133.585938 132.753906 134.621094 132.058594 135.679688 C 131.363281 136.738281 130.699219 137.816406 130.066406 138.910156 C 129.433594 140.007812 128.832031 141.121094 128.261719 142.25 C 127.691406 143.378906 127.15625 144.527344 126.652344 145.6875 C 126.148438 146.847656 125.679688 148.023438 125.242188 149.210938 C 124.804688 150.398438 124.402344 151.597656 124.035156 152.808594 C 123.667969 154.019531 123.335938 155.238281 123.039062 156.46875 C 122.738281 157.699219 122.476562 158.9375 122.25 160.183594 C 122.023438 161.425781 121.832031 162.679688 121.675781 163.933594 C 121.523438 165.191406 121.402344 166.449219 121.320312 167.710938 C 121.238281 168.976562 121.1875 170.238281 121.179688 171.503906 C 121.167969 172.769531 121.195312 174.035156 121.253906 175.300781 C 121.316406 176.5625 121.414062 177.824219 121.546875 179.082031 C 121.683594 180.339844 121.851562 181.59375 122.058594 182.84375 C 122.265625 184.09375 122.503906 185.335938 122.78125 186.570312 C 123.058594 187.804688 123.371094 189.03125 123.71875 190.246094 C 124.066406 191.464844 124.445312 192.671875 124.863281 193.863281 C 125.28125 195.058594 125.730469 196.242188 126.214844 197.410156 C 126.695312 198.582031 127.214844 199.734375 127.765625 200.875 C 128.3125 202.015625 128.898438 203.136719 129.511719 204.246094 C 130.125 205.351562 130.769531 206.4375 131.449219 207.507812 C 132.125 208.578125 132.832031 209.628906 133.566406 210.65625 C 134.304688 211.683594 135.070312 212.691406 135.863281 213.675781 C 136.660156 214.664062 137.480469 215.625 138.332031 216.5625 C 139.179688 217.5 140.054688 218.414062 140.957031 219.300781 C 141.859375 220.1875 142.785156 221.050781 143.738281 221.886719 C 144.6875 222.71875 145.664062 223.527344 146.660156 224.304688 C 147.660156 225.085938 148.675781 225.835938 149.71875 226.554688 C 150.757812 227.273438 151.816406 227.964844 152.898438 228.625 C 153.976562 229.285156 155.074219 229.914062 156.191406 230.511719 C 157.308594 231.109375 158.441406 231.671875 159.589844 232.203125 C 160.738281 232.738281 161.898438 233.234375 163.074219 233.699219 C 164.253906 234.167969 165.441406 234.597656 166.644531 234.996094 C 167.84375 235.390625 169.058594 235.753906 170.277344 236.082031 C 171.5 236.410156 172.730469 236.703125 173.972656 236.960938 C 175.210938 237.21875 176.457031 237.441406 177.707031 237.625 C 178.960938 237.8125 180.214844 237.964844 181.476562 238.078125 C 182.738281 238.191406 184 238.269531 185.265625 238.3125 C 186.527344 238.351562 187.792969 238.359375 189.058594 238.328125 C 190.324219 238.296875 191.585938 238.230469 192.847656 238.128906 C 194.109375 238.023438 195.367188 237.886719 196.621094 237.710938 C 197.875 237.535156 199.121094 237.324219 200.363281 237.078125 C 201.605469 236.832031 202.835938 236.550781 204.0625 236.234375 C 205.289062 235.917969 206.503906 235.5625 207.707031 235.175781 C 208.914062 234.789062 210.105469 234.371094 211.289062 233.914062 C 212.46875 233.460938 213.636719 232.972656 214.789062 232.449219 C 215.941406 231.929688 217.078125 231.375 218.199219 230.785156 C 219.320312 230.199219 220.425781 229.582031 221.507812 228.929688 C 222.59375 228.28125 223.660156 227.597656 224.707031 226.886719 C 225.753906 226.175781 226.78125 225.4375 227.785156 224.667969 C 228.789062 223.894531 229.769531 223.097656 230.730469 222.273438 C 231.6875 221.445312 232.621094 220.59375 233.53125 219.710938 C 234.441406 218.832031 235.324219 217.925781 236.183594 216.996094 C 237.042969 216.066406 237.871094 215.113281 238.675781 214.132812 C 239.476562 213.15625 240.253906 212.15625 241 211.132812 C 241.746094 210.113281 242.460938 209.070312 243.148438 208.003906 C 243.832031 206.941406 244.488281 205.859375 245.113281 204.757812 C 245.738281 203.660156 246.328125 202.539062 246.890625 201.40625 C 247.449219 200.269531 247.976562 199.121094 248.472656 197.957031 C 248.964844 196.789062 249.425781 195.613281 249.851562 194.421875 C 250.28125 193.230469 250.671875 192.027344 251.03125 190.8125 C 251.386719 189.597656 251.710938 188.375 252 187.144531 C 252.285156 185.910156 252.539062 184.671875 252.753906 183.425781 C 252.972656 182.179688 253.152344 180.925781 253.296875 179.667969 C 253.445312 178.410156 253.554688 177.152344 253.625 175.886719 C 253.699219 174.625 253.734375 173.359375 253.734375 172.09375 C 253.746094 167.742188 253.328125 163.425781 252.484375 159.15625 C 251.640625 154.886719 250.386719 150.738281 248.71875 146.714844 C 247.054688 142.691406 245.011719 138.871094 242.589844 135.25 C 240.171875 131.632812 237.417969 128.285156 234.335938 125.210938 Z M 145.988281 175.707031 L 175.652344 201.191406 C 176.046875 201.53125 176.472656 201.832031 176.925781 202.089844 C 177.378906 202.347656 177.851562 202.5625 178.34375 202.730469 C 178.839844 202.898438 179.34375 203.019531 179.863281 203.089844 C 180.378906 203.160156 180.898438 203.179688 181.417969 203.152344 C 181.941406 203.121094 182.453125 203.042969 182.960938 202.914062 C 183.464844 202.789062 183.953125 202.613281 184.425781 202.390625 C 184.898438 202.167969 185.347656 201.90625 185.765625 201.597656 C 186.1875 201.289062 186.578125 200.945312 186.929688 200.5625 L 229.675781 154.726562 C 230.039062 154.335938 230.363281 153.910156 230.648438 153.453125 C 230.929688 152.996094 231.164062 152.519531 231.355469 152.015625 C 231.542969 151.511719 231.679688 150.996094 231.765625 150.464844 C 231.851562 149.9375 231.886719 149.402344 231.867188 148.867188 C 231.851562 148.332031 231.777344 147.800781 231.65625 147.28125 C 231.535156 146.757812 231.359375 146.25 231.136719 145.761719 C 230.914062 145.273438 230.648438 144.8125 230.335938 144.375 C 230.019531 143.941406 229.667969 143.539062 229.273438 143.175781 C 228.882812 142.808594 228.457031 142.484375 228 142.203125 C 227.546875 141.917969 227.066406 141.683594 226.5625 141.496094 C 226.058594 141.308594 225.542969 141.171875 225.015625 141.085938 C 224.484375 141 223.949219 140.964844 223.414062 140.984375 C 222.878906 141.003906 222.347656 141.074219 221.828125 141.199219 C 221.304688 141.320312 220.800781 141.492188 220.3125 141.71875 C 219.824219 141.941406 219.359375 142.207031 218.925781 142.523438 C 218.488281 142.835938 218.089844 143.1875 217.722656 143.582031 L 180.328125 183.714844 L 156.597656 163.308594 C 156.191406 162.949219 155.753906 162.632812 155.285156 162.363281 C 154.816406 162.089844 154.328125 161.867188 153.816406 161.695312 C 153.300781 161.519531 152.777344 161.398438 152.242188 161.328125 C 151.703125 161.257812 151.164062 161.242188 150.625 161.28125 C 150.085938 161.316406 149.554688 161.410156 149.03125 161.550781 C 148.507812 161.695312 148.007812 161.886719 147.523438 162.132812 C 147.039062 162.375 146.585938 162.664062 146.160156 163 C 145.730469 163.332031 145.34375 163.703125 144.992188 164.117188 C 144.640625 164.527344 144.332031 164.96875 144.066406 165.441406 C 143.804688 165.914062 143.589844 166.410156 143.421875 166.925781 C 143.257812 167.441406 143.144531 167.96875 143.082031 168.503906 C 143.023438 169.042969 143.015625 169.582031 143.0625 170.121094 C 143.109375 170.660156 143.207031 171.191406 143.359375 171.710938 C 143.511719 172.230469 143.710938 172.730469 143.964844 173.207031 C 144.214844 173.6875 144.511719 174.136719 144.851562 174.558594 C 145.191406 174.980469 145.570312 175.363281 145.988281 175.707031 Z M 6.859375 80.527344 C 4.273438 66.503906 1.992188 52.066406 0 37.363281 C 14.839844 31.394531 29.945312 26.1875 45.308594 21.734375 C 60.671875 17.285156 76.222656 13.613281 91.953125 10.722656 C 107.6875 7.832031 123.523438 5.734375 139.46875 4.433594 C 155.410156 3.132812 171.378906 2.632812 187.371094 2.933594 L 187.628906 2.933594 C 203.621094 2.632812 219.589844 3.132812 235.53125 4.433594 C 251.476562 5.734375 267.3125 7.832031 283.046875 10.722656 C 298.777344 13.613281 314.328125 17.285156 329.691406 21.734375 C 345.054688 26.1875 360.160156 31.394531 375 37.363281 C 373.046875 51.75 370.816406 65.828125 368.3125 79.585938 C 349.300781 70.746094 324.675781 63.839844 299.226562 58.605469 C 257.648438 50.078125 213.53125 45.996094 188.703125 45.523438 L 188.445312 45.523438 C 163.207031 45.996094 118.046875 50.183594 75.894531 59.023438 C 50.300781 64.359375 25.65625 71.476562 6.855469 80.527344 Z M 365.113281 96.171875 C 347.066406 87.070312 322.066406 79.953125 295.972656 74.617188 C 255.453125 66.296875 212.660156 62.320312 188.574219 61.847656 C 164.117188 62.320312 120.332031 66.402344 79.21875 75.03125 C 52.859375 80.527344 27.785156 87.851562 10.089844 97.164062 C 21.492188 152.628906 37.953125 202.492188 60.585938 245.082031 C 90.894531 302.011719 132.300781 345.753906 187.5 372.175781 C 242.699219 345.753906 284.105469 302.011719 314.410156 245.085938 C 337.175781 202.230469 353.710938 152.054688 365.113281 96.171875 Z M 365.113281 96.171875 " clip-rule="evenodd"/></clipPath><linearGradient x1="256" gradientTransform="matrix(0.732422, 0, 0, 0.732422, 0.0000045, 0)" y1="508.146486" x2="256.001011" gradientUnits="userSpaceOnUse" y2="3.594171" id="8a51f5e390"><stop stop-opacity="1" stop-color="rgb(0%, 47.799683%, 71.398926%)" offset="0"/><stop stop-opacity="1" stop-color="rgb(0%, 47.903442%, 71.554565%)" offset="0.00000203251"/><stop stop-opacity="1" stop-color="rgb(0%, 48.008728%, 71.711731%)" offset="0.015625"/><stop stop-opacity="1" stop-color="rgb(0%, 48.112488%, 71.867371%)" offset="0.03125"/><stop stop-opacity="1" stop-color="rgb(0%, 48.323059%, 72.180176%)" offset="0.046875"/><stop stop-opacity="1" stop-color="rgb(0%, 48.532104%, 72.492981%)" offset="0.0625"/><stop stop-opacity="1" stop-color="rgb(0%, 48.74115%, 72.805786%)" offset="0.078125"/><stop stop-opacity="1" stop-color="rgb(0%, 48.950195%, 73.118591%)" offset="0.09375"/><stop stop-opacity="1" stop-color="rgb(0%, 49.160767%, 73.431396%)" offset="0.109375"/><stop stop-opacity="1" stop-color="rgb(0%, 49.369812%, 73.744202%)" offset="0.125"/><stop stop-opacity="1" stop-color="rgb(0%, 49.578857%, 74.057007%)" offset="0.140625"/><stop stop-opacity="1" stop-color="rgb(0%, 49.789429%, 74.368286%)" offset="0.15625"/><stop stop-opacity="1" stop-color="rgb(0%, 49.998474%, 74.681091%)" offset="0.171875"/><stop stop-opacity="1" stop-color="rgb(0%, 50.20752%, 74.993896%)" offset="0.1875"/><stop stop-opacity="1" stop-color="rgb(0%, 50.418091%, 75.306702%)" offset="0.203125"/><stop stop-opacity="1" stop-color="rgb(0%, 50.627136%, 75.619507%)" offset="0.21875"/><stop stop-opacity="1" stop-color="rgb(0%, 50.836182%, 75.932312%)" offset="0.234375"/><stop stop-opacity="1" stop-color="rgb(0%, 51.045227%, 76.245117%)" offset="0.25"/><stop stop-opacity="1" stop-color="rgb(0%, 51.255798%, 76.557922%)" offset="0.265625"/><stop stop-opacity="1" stop-color="rgb(0%, 51.464844%, 76.870728%)" offset="0.28125"/><stop stop-opacity="1" stop-color="rgb(0%, 51.673889%, 77.183533%)" offset="0.296875"/><stop stop-opacity="1" stop-color="rgb(0%, 51.88446%, 77.496338%)" offset="0.3125"/><stop stop-opacity="1" stop-color="rgb(0%, 52.093506%, 77.809143%)" offset="0.328125"/><stop stop-opacity="1" stop-color="rgb(0%, 52.302551%, 78.121948%)" offset="0.34375"/><stop stop-opacity="1" stop-color="rgb(0%, 52.513123%, 78.433228%)" offset="0.359375"/><stop stop-opacity="1" stop-color="rgb(0%, 52.722168%, 78.746033%)" offset="0.375"/><stop stop-opacity="1" stop-color="rgb(0%, 52.931213%, 79.058838%)" offset="0.390625"/><stop stop-opacity="1" stop-color="rgb(0%, 53.140259%, 79.371643%)" offset="0.40625"/><stop stop-opacity="1" stop-color="rgb(0%, 53.35083%, 79.684448%)" offset="0.421875"/><stop stop-opacity="1" stop-color="rgb(0%, 53.559875%, 79.997253%)" offset="0.4375"/><stop stop-opacity="1" stop-color="rgb(0%, 53.768921%, 80.310059%)" offset="0.453125"/><stop stop-opacity="1" stop-color="rgb(0%, 53.979492%, 80.622864%)" offset="0.46875"/><stop stop-opacity="1" stop-color="rgb(0%, 54.188538%, 80.935669%)" offset="0.484375"/><stop stop-opacity="1" stop-color="rgb(0%, 54.397583%, 81.248474%)" offset="0.5"/><stop stop-opacity="1" stop-color="rgb(0%, 54.606628%, 81.561279%)" offset="0.515625"/><stop stop-opacity="1" stop-color="rgb(0%, 54.8172%, 81.874084%)" offset="0.53125"/><stop stop-opacity="1" stop-color="rgb(0%, 55.026245%, 82.185364%)" offset="0.546875"/><stop stop-opacity="1" stop-color="rgb(0%, 55.235291%, 82.498169%)" offset="0.5625"/><stop stop-opacity="1" stop-color="rgb(0%, 55.445862%, 82.810974%)" offset="0.578125"/><stop stop-opacity="1" stop-color="rgb(0%, 55.654907%, 83.123779%)" offset="0.59375"/><stop stop-opacity="1" stop-color="rgb(0%, 55.863953%, 83.436584%)" offset="0.609375"/><stop stop-opacity="1" stop-color="rgb(0%, 56.074524%, 83.74939%)" offset="0.625"/><stop stop-opacity="1" stop-color="rgb(0%, 56.283569%, 84.062195%)" offset="0.640625"/><stop stop-opacity="1" stop-color="rgb(0%, 56.492615%, 84.375%)" offset="0.65625"/><stop stop-opacity="1" stop-color="rgb(0%, 56.70166%, 84.687805%)" offset="0.671875"/><stop stop-opacity="1" stop-color="rgb(0%, 56.912231%, 85.00061%)" offset="0.6875"/><stop stop-opacity="1" stop-color="rgb(0%, 57.121277%, 85.313416%)" offset="0.703125"/><stop stop-opacity="1" stop-color="rgb(0%, 57.330322%, 85.626221%)" offset="0.71875"/><stop stop-opacity="1" stop-color="rgb(0%, 57.540894%, 85.939026%)" offset="0.734375"/><stop stop-opacity="1" stop-color="rgb(0%, 57.749939%, 86.250305%)" offset="0.75"/><stop stop-opacity="1" stop-color="rgb(0%, 57.958984%, 86.56311%)" offset="0.765625"/><stop stop-opacity="1" stop-color="rgb(0%, 58.169556%, 86.875916%)" offset="0.78125"/><stop stop-opacity="1" stop-color="rgb(0%, 58.378601%, 87.188721%)" offset="0.796875"/><stop stop-opacity="1" stop-color="rgb(0%, 58.587646%, 87.501526%)" offset="0.8125"/><stop stop-opacity="1" stop-color="rgb(0%, 58.796692%, 87.814331%)" offset="0.828125"/><stop stop-opacity="1" stop-color="rgb(0%, 59.007263%, 88.127136%)" offset="0.84375"/><stop stop-opacity="1" stop-color="rgb(0%, 59.216309%, 88.439941%)" offset="0.859375"/><stop stop-opacity="1" stop-color="rgb(0%, 59.425354%, 88.752747%)" offset="0.875"/><stop stop-opacity="1" stop-color="rgb(0%, 59.635925%, 89.065552%)" offset="0.890625"/><stop stop-opacity="1" stop-color="rgb(0%, 59.844971%, 89.378357%)" offset="0.90625"/><stop stop-opacity="1" stop-color="rgb(0%, 60.054016%, 89.691162%)" offset="0.921875"/><stop stop-opacity="1" stop-color="rgb(0%, 60.263062%, 90.002441%)" offset="0.9375"/><stop stop-opacity="1" stop-color="rgb(0%, 60.473633%, 90.315247%)" offset="0.953125"/><stop stop-opacity="1" stop-color="rgb(0%, 60.682678%, 90.628052%)" offset="0.96875"/><stop stop-opacity="1" stop-color="rgb(0%, 60.891724%, 90.940857%)" offset="0.984375"/><stop stop-opacity="1" stop-color="rgb(0%, 61.097717%, 91.247559%)" offset="0.999998"/><stop stop-opacity="1" stop-color="rgb(0%, 61.199951%, 91.398621%)" offset="1"/></linearGradient></defs><g clip-path="url(#79d0f07659)"><g clip-path="url(#ed5a6ea12f)"><path fill="url(#8a51f5e390)" d="M 0 2.632812 L 0 372.175781 L 375 372.175781 L 375 2.632812 Z M 0 2.632812 " fill-rule="nonzero"/></g></g></svg>