<svg xmlns="http://www.w3.org/2000/svg" xmlns:xlink="http://www.w3.org/1999/xlink" width="500" zoomAndPan="magnify" viewBox="0 0 375 374.999991" height="500" preserveAspectRatio="xMidYMid meet" version="1.0"><defs><clipPath id="d1cff938f7"><path d="M 145.375 188.566406 C 145.210938 188.566406 145.054688 188.535156 144.90625 188.476562 C 144.753906 188.417969 144.621094 188.328125 144.503906 188.21875 C 144.386719 188.105469 144.296875 187.976562 144.230469 187.828125 C 144.164062 187.679688 144.128906 187.523438 144.121094 187.363281 C 144.113281 187.191406 144.140625 187.023438 144.199219 186.863281 C 144.261719 186.703125 144.347656 186.558594 144.46875 186.4375 C 144.585938 186.3125 144.722656 186.214844 144.882812 186.148438 C 145.039062 186.082031 145.203125 186.046875 145.375 186.046875 C 145.546875 186.046875 145.710938 186.082031 145.871094 186.148438 C 146.027344 186.214844 146.167969 186.3125 146.285156 186.4375 C 146.402344 186.558594 146.492188 186.703125 146.550781 186.863281 C 146.613281 187.023438 146.636719 187.191406 146.628906 187.363281 C 146.625 187.523438 146.589844 187.679688 146.523438 187.828125 C 146.457031 187.976562 146.363281 188.105469 146.246094 188.21875 C 146.128906 188.332031 145.996094 188.417969 145.84375 188.476562 C 145.691406 188.539062 145.535156 188.566406 145.375 188.566406 Z M 145.375 176.0625 C 144.636719 176.0625 143.90625 176.132812 143.179688 176.277344 C 142.457031 176.421875 141.753906 176.636719 141.074219 176.917969 C 140.390625 177.199219 139.742188 177.546875 139.128906 177.957031 C 138.515625 178.367188 137.949219 178.832031 137.425781 179.351562 C 136.90625 179.875 136.441406 180.441406 136.027344 181.054688 C 135.617188 181.667969 135.273438 182.316406 134.988281 182.996094 C 134.707031 183.679688 134.492188 184.382812 134.347656 185.105469 C 134.203125 185.828125 134.132812 186.558594 134.128906 187.296875 C 134.128906 188.035156 134.199219 188.765625 134.34375 189.488281 C 134.484375 190.214844 134.699219 190.917969 134.980469 191.597656 C 135.261719 192.28125 135.605469 192.929688 136.015625 193.542969 C 136.421875 194.15625 136.886719 194.726562 137.410156 195.25 C 137.929688 195.769531 138.496094 196.238281 139.109375 196.648438 C 139.722656 197.0625 140.367188 197.410156 141.046875 197.691406 C 141.730469 197.976562 142.433594 198.191406 143.15625 198.335938 C 143.878906 198.484375 144.609375 198.558594 145.347656 198.558594 C 146.085938 198.5625 146.816406 198.492188 147.539062 198.351562 C 148.261719 198.207031 148.96875 197.996094 149.648438 197.71875 C 150.332031 197.4375 150.980469 197.09375 151.597656 196.6875 C 152.210938 196.277344 152.78125 195.8125 153.304688 195.292969 C 153.828125 194.773438 154.296875 194.210938 154.707031 193.597656 C 155.121094 192.984375 155.46875 192.339844 155.753906 191.660156 C 156.039062 190.976562 156.253906 190.277344 156.402344 189.554688 C 156.550781 188.832031 156.625 188.101562 156.628906 187.363281 C 156.628906 186.621094 156.558594 185.886719 156.414062 185.164062 C 156.269531 184.4375 156.058594 183.730469 155.777344 183.046875 C 155.492188 182.363281 155.148438 181.710938 154.738281 181.09375 C 154.328125 180.480469 153.859375 179.90625 153.339844 179.382812 C 152.816406 178.859375 152.246094 178.390625 151.632812 177.976562 C 151.019531 177.566406 150.371094 177.214844 149.6875 176.929688 C 149.003906 176.644531 148.296875 176.429688 147.574219 176.285156 C 146.847656 176.136719 146.113281 176.0625 145.375 176.0625 Z M 148.542969 113.324219 L 145.386719 142.886719 L 142.214844 113.324219 C 142.152344 112.921875 142.183594 112.527344 142.308594 112.140625 C 142.4375 111.753906 142.644531 111.414062 142.933594 111.128906 C 143.1875 110.804688 143.503906 110.554688 143.878906 110.378906 C 144.253906 110.203125 144.648438 110.121094 145.0625 110.132812 L 145.691406 110.132812 C 146.105469 110.121094 146.5 110.203125 146.875 110.378906 C 147.25 110.550781 147.566406 110.800781 147.824219 111.128906 C 148.117188 111.414062 148.324219 111.75 148.453125 112.136719 C 148.582031 112.527344 148.613281 112.921875 148.546875 113.324219 Z M 145.6875 97.679688 L 145.058594 97.679688 C 144.523438 97.679688 143.984375 97.707031 143.449219 97.761719 C 142.914062 97.816406 142.386719 97.902344 141.859375 98.011719 C 141.332031 98.125 140.8125 98.261719 140.300781 98.429688 C 139.789062 98.59375 139.289062 98.785156 138.796875 99.003906 C 138.304688 99.222656 137.828125 99.46875 137.363281 99.738281 C 136.894531 100.003906 136.445312 100.296875 136.011719 100.613281 C 135.574219 100.929688 135.15625 101.269531 134.757812 101.628906 C 134.359375 101.988281 133.980469 102.371094 133.621094 102.769531 C 133.261719 103.167969 132.921875 103.585938 132.609375 104.023438 C 132.292969 104.457031 132 104.910156 131.734375 105.375 C 131.464844 105.84375 131.222656 106.320312 131.003906 106.8125 C 130.785156 107.304688 130.59375 107.804688 130.429688 108.320312 C 130.265625 108.832031 130.128906 109.347656 130.015625 109.875 C 129.90625 110.402344 129.824219 110.933594 129.769531 111.46875 C 129.714844 112.003906 129.6875 112.539062 129.691406 113.078125 C 129.691406 113.617188 129.722656 114.152344 129.78125 114.6875 L 135.234375 165.335938 C 135.296875 165.957031 135.417969 166.570312 135.59375 167.167969 C 135.769531 167.769531 136 168.347656 136.285156 168.90625 C 136.566406 169.464844 136.898438 169.992188 137.28125 170.492188 C 137.660156 170.988281 138.082031 171.445312 138.546875 171.863281 C 139.011719 172.285156 139.511719 172.65625 140.046875 172.984375 C 140.578125 173.3125 141.136719 173.589844 141.722656 173.8125 C 142.304688 174.039062 142.90625 174.207031 143.523438 174.320312 C 144.136719 174.4375 144.757812 174.492188 145.382812 174.492188 C 146.011719 174.492188 146.628906 174.4375 147.246094 174.320312 C 147.863281 174.207031 148.460938 174.039062 149.046875 173.8125 C 149.628906 173.589844 150.1875 173.3125 150.722656 172.984375 C 151.253906 172.65625 151.753906 172.285156 152.21875 171.863281 C 152.683594 171.445312 153.105469 170.988281 153.488281 170.492188 C 153.867188 169.992188 154.199219 169.464844 154.484375 168.90625 C 154.765625 168.347656 154.996094 167.769531 155.171875 167.167969 C 155.351562 166.570312 155.46875 165.957031 155.535156 165.335938 L 160.976562 114.6875 C 161.035156 114.152344 161.066406 113.613281 161.066406 113.078125 C 161.066406 112.539062 161.042969 112.003906 160.988281 111.46875 C 160.933594 110.933594 160.851562 110.402344 160.738281 109.875 C 160.628906 109.347656 160.492188 108.828125 160.328125 108.316406 C 160.160156 107.804688 159.96875 107.300781 159.75 106.808594 C 159.535156 106.316406 159.289062 105.839844 159.023438 105.371094 C 158.753906 104.90625 158.460938 104.457031 158.148438 104.019531 C 157.832031 103.582031 157.492188 103.164062 157.132812 102.765625 C 156.773438 102.367188 156.394531 101.984375 155.992188 101.625 C 155.59375 101.265625 155.175781 100.925781 154.742188 100.609375 C 154.304688 100.292969 153.855469 100.003906 153.390625 99.734375 C 152.921875 99.464844 152.445312 99.222656 151.953125 99.003906 C 151.460938 98.785156 150.960938 98.59375 150.449219 98.425781 C 149.9375 98.261719 149.417969 98.121094 148.890625 98.011719 C 148.363281 97.898438 147.832031 97.816406 147.296875 97.761719 C 146.761719 97.707031 146.226562 97.679688 145.6875 97.679688 Z M 145.375 222.632812 C 183.421875 200.292969 209.417969 169.472656 213.058594 97.214844 C 210.210938 97.476562 207.375 97.683594 204.539062 97.683594 C 201.75 97.671875 198.96875 97.515625 196.199219 97.210938 C 193.425781 96.90625 190.675781 96.457031 187.949219 95.863281 C 185.226562 95.273438 182.539062 94.539062 179.890625 93.660156 C 177.242188 92.785156 174.648438 91.773438 172.105469 90.625 C 169.566406 89.476562 167.089844 88.199219 164.683594 86.789062 C 162.277344 85.382812 159.949219 83.851562 157.703125 82.199219 C 155.457031 80.542969 153.304688 78.777344 151.242188 76.898438 C 149.183594 75.019531 147.226562 73.035156 145.375 70.949219 C 143.289062 73.304688 141.070312 75.527344 138.71875 77.621094 C 136.371094 79.710938 133.90625 81.652344 131.324219 83.449219 C 128.742188 85.246094 126.0625 86.886719 123.285156 88.363281 C 120.507812 89.839844 117.65625 91.148438 114.722656 92.289062 C 111.789062 93.425781 108.800781 94.386719 105.753906 95.167969 C 102.707031 95.949219 99.625 96.550781 96.507812 96.964844 C 93.390625 97.378906 90.257812 97.609375 87.113281 97.652344 C 83.96875 97.691406 80.832031 97.546875 77.703125 97.21875 C 81.339844 169.476562 107.335938 200.292969 145.375 222.636719 Z M 223.582031 84.964844 C 222.84375 84.351562 222.011719 83.929688 221.078125 83.710938 C 220.144531 83.488281 219.207031 83.488281 218.273438 83.710938 C 192.730469 89.203125 166.109375 78.84375 150.4375 57.289062 C 150.152344 56.882812 149.820312 56.519531 149.449219 56.195312 C 149.074219 55.867188 148.667969 55.59375 148.226562 55.363281 C 147.789062 55.136719 147.328125 54.964844 146.847656 54.847656 C 146.363281 54.730469 145.875 54.671875 145.382812 54.671875 C 144.886719 54.671875 144.398438 54.730469 143.917969 54.847656 C 143.433594 54.964844 142.972656 55.136719 142.535156 55.363281 C 142.09375 55.59375 141.6875 55.867188 141.3125 56.195312 C 140.941406 56.519531 140.609375 56.882812 140.324219 57.289062 C 124.648438 78.84375 98.027344 89.203125 72.480469 83.710938 C 71.546875 83.488281 70.613281 83.488281 69.679688 83.710938 C 68.746094 83.929688 67.914062 84.351562 67.175781 84.964844 C 66.441406 85.578125 65.875 86.320312 65.476562 87.191406 C 65.078125 88.066406 64.890625 88.980469 64.910156 89.9375 C 66.003906 129.335938 73.390625 160.152344 87.515625 184.117188 C 99.671875 204.734375 117.082031 221.007812 142.308594 235.242188 C 143.257812 235.78125 144.28125 236.058594 145.375 236.078125 C 146.472656 236.058594 147.5 235.78125 148.460938 235.242188 C 173.675781 221.007812 191.085938 204.738281 203.238281 184.117188 C 217.347656 160.152344 224.746094 129.332031 225.847656 89.9375 C 225.863281 88.980469 225.675781 88.066406 225.277344 87.195312 C 224.882812 86.324219 224.316406 85.582031 223.582031 84.964844 Z M 367.675781 367.667969 C 368.257812 367.085938 368.804688 366.480469 369.328125 365.847656 C 369.847656 365.210938 370.335938 364.554688 370.792969 363.871094 C 371.246094 363.191406 371.667969 362.488281 372.054688 361.765625 C 372.441406 361.039062 372.792969 360.300781 373.105469 359.542969 C 373.421875 358.785156 373.695312 358.011719 373.933594 357.226562 C 374.171875 356.441406 374.371094 355.648438 374.53125 354.84375 C 374.691406 354.039062 374.8125 353.226562 374.894531 352.410156 C 374.972656 351.59375 375.015625 350.777344 375.015625 349.957031 C 375.015625 349.136719 374.972656 348.316406 374.894531 347.5 C 374.8125 346.683594 374.691406 345.875 374.53125 345.070312 C 374.371094 344.265625 374.171875 343.46875 373.933594 342.683594 C 373.695312 341.898438 373.421875 341.128906 373.105469 340.371094 C 372.792969 339.613281 372.441406 338.871094 372.054688 338.148438 C 371.667969 337.425781 371.246094 336.722656 370.792969 336.039062 C 370.335938 335.359375 369.847656 334.699219 369.328125 334.066406 C 368.804688 333.433594 368.257812 332.824219 367.675781 332.246094 L 301.636719 266.160156 L 266.183594 301.636719 L 332.207031 367.667969 C 332.789062 368.25 333.398438 368.800781 334.03125 369.320312 C 334.667969 369.839844 335.328125 370.328125 336.007812 370.785156 C 336.691406 371.238281 337.394531 371.660156 338.121094 372.046875 C 338.84375 372.433594 339.585938 372.785156 340.34375 373.097656 C 341.105469 373.414062 341.875 373.691406 342.660156 373.929688 C 343.449219 374.167969 344.242188 374.363281 345.050781 374.523438 C 345.855469 374.683594 346.664062 374.804688 347.484375 374.886719 C 348.300781 374.964844 349.121094 375.007812 349.941406 375.007812 C 350.761719 375.007812 351.582031 374.964844 352.398438 374.886719 C 353.214844 374.804688 354.027344 374.683594 354.832031 374.523438 C 355.636719 374.363281 356.433594 374.167969 357.21875 373.929688 C 358.003906 373.691406 358.777344 373.414062 359.535156 373.097656 C 360.292969 372.785156 361.035156 372.433594 361.761719 372.046875 C 362.484375 371.660156 363.1875 371.242188 363.871094 370.785156 C 364.554688 370.328125 365.214844 369.839844 365.847656 369.320312 C 366.484375 368.800781 367.089844 368.25 367.671875 367.667969 Z M 251.789062 262.027344 C 253.5625 260.40625 255.3125 258.730469 257.03125 257.054688 C 258.746094 255.332031 260.410156 253.550781 262.027344 251.824219 L 280.191406 269.929688 L 269.941406 280.234375 L 251.785156 262.027344 Z M 42.574219 248.160156 C 44.257812 249.84375 45.980469 251.484375 47.742188 253.082031 C 49.503906 254.679688 51.304688 256.234375 53.144531 257.746094 C 54.984375 259.253906 56.859375 260.71875 58.769531 262.136719 C 60.679688 263.554688 62.625 264.921875 64.605469 266.246094 C 66.582031 267.566406 68.59375 268.839844 70.632812 270.0625 C 72.675781 271.289062 74.742188 272.460938 76.84375 273.582031 C 78.941406 274.703125 81.066406 275.773438 83.214844 276.792969 C 85.367188 277.808594 87.542969 278.773438 89.738281 279.683594 C 91.9375 280.59375 94.15625 281.449219 96.398438 282.253906 C 98.636719 283.054688 100.898438 283.800781 103.171875 284.492188 C 105.449219 285.183594 107.742188 285.816406 110.050781 286.394531 C 112.359375 286.972656 114.679688 287.492188 117.015625 287.957031 C 119.347656 288.421875 121.691406 288.828125 124.046875 289.179688 C 126.398438 289.527344 128.757812 289.820312 131.128906 290.050781 C 133.496094 290.285156 135.867188 290.460938 138.246094 290.578125 C 140.621094 290.695312 143 290.753906 145.378906 290.753906 C 147.757812 290.753906 150.136719 290.695312 152.511719 290.578125 C 154.890625 290.460938 157.261719 290.285156 159.628906 290.050781 C 161.996094 289.820312 164.359375 289.527344 166.710938 289.179688 C 169.066406 288.828125 171.410156 288.421875 173.742188 287.957031 C 176.078125 287.492188 178.398438 286.972656 180.707031 286.394531 C 183.015625 285.816406 185.304688 285.183594 187.582031 284.492188 C 189.859375 283.800781 192.117188 283.054688 194.359375 282.253906 C 196.597656 281.449219 198.820312 280.59375 201.015625 279.683594 C 203.214844 278.773438 205.390625 277.808594 207.539062 276.792969 C 209.691406 275.773438 211.816406 274.703125 213.914062 273.582031 C 216.011719 272.460938 218.082031 271.289062 220.125 270.0625 C 222.164062 268.839844 224.175781 267.566406 226.152344 266.246094 C 228.128906 264.921875 230.074219 263.554688 231.988281 262.136719 C 233.898438 260.71875 235.773438 259.253906 237.613281 257.746094 C 239.449219 256.234375 241.253906 254.679688 243.015625 253.082031 C 244.777344 251.484375 246.5 249.84375 248.183594 248.160156 C 304.878906 191.496094 304.878906 99.25 248.183594 42.585938 C 246.5 40.902344 244.777344 39.261719 243.015625 37.664062 C 241.253906 36.066406 239.449219 34.511719 237.613281 33 C 235.773438 31.492188 233.898438 30.027344 231.988281 28.609375 C 230.074219 27.191406 228.128906 25.824219 226.152344 24.5 C 224.175781 23.179688 222.164062 21.90625 220.125 20.683594 C 218.082031 19.460938 216.011719 18.285156 213.914062 17.164062 C 211.816406 16.042969 209.691406 14.972656 207.539062 13.957031 C 205.390625 12.9375 203.214844 11.972656 201.015625 11.0625 C 198.820312 10.152344 196.601562 9.296875 194.359375 8.496094 C 192.117188 7.691406 189.859375 6.945312 187.582031 6.253906 C 185.304688 5.566406 183.015625 4.929688 180.707031 4.351562 C 178.398438 3.773438 176.078125 3.253906 173.742188 2.789062 C 171.410156 2.324219 169.066406 1.917969 166.710938 1.566406 C 164.359375 1.21875 161.996094 0.925781 159.628906 0.695312 C 157.261719 0.460938 154.890625 0.285156 152.511719 0.167969 C 150.136719 0.0507812 147.757812 -0.0078125 145.378906 -0.0078125 C 143 -0.0078125 140.621094 0.0507812 138.246094 0.167969 C 135.867188 0.285156 133.496094 0.460938 131.128906 0.695312 C 128.757812 0.925781 126.398438 1.21875 124.042969 1.566406 C 121.691406 1.917969 119.347656 2.324219 117.015625 2.789062 C 114.679688 3.253906 112.359375 3.773438 110.050781 4.351562 C 107.742188 4.929688 105.449219 5.566406 103.171875 6.253906 C 100.894531 6.945312 98.636719 7.691406 96.398438 8.496094 C 94.15625 9.296875 91.9375 10.152344 89.738281 11.0625 C 87.542969 11.972656 85.367188 12.9375 83.214844 13.957031 C 81.066406 14.972656 78.941406 16.042969 76.84375 17.164062 C 74.742188 18.285156 72.675781 19.460938 70.632812 20.683594 C 68.59375 21.90625 66.582031 23.179688 64.605469 24.5 C 62.625 25.824219 60.679688 27.191406 58.769531 28.609375 C 56.859375 30.027344 54.984375 31.492188 53.144531 33 C 51.304688 34.511719 49.503906 36.066406 47.742188 37.664062 C 45.980469 39.261719 44.257812 40.902344 42.574219 42.585938 C 40.890625 44.265625 39.25 45.988281 37.652344 47.753906 C 36.054688 49.515625 34.5 51.316406 32.992188 53.152344 C 31.484375 54.992188 30.019531 56.867188 28.601562 58.777344 C 27.183594 60.6875 25.816406 62.632812 24.492188 64.613281 C 23.171875 66.589844 21.898438 68.597656 20.675781 70.640625 C 19.453125 72.679688 18.277344 74.75 17.15625 76.847656 C 16.035156 78.945312 14.964844 81.070312 13.949219 83.21875 C 12.929688 85.371094 11.96875 87.546875 11.054688 89.742188 C 10.144531 91.941406 9.289062 94.160156 8.488281 96.398438 C 7.6875 98.640625 6.941406 100.898438 6.25 103.175781 C 5.558594 105.453125 4.925781 107.742188 4.347656 110.050781 C 3.769531 112.359375 3.246094 114.679688 2.78125 117.011719 C 2.320312 119.347656 1.910156 121.691406 1.5625 124.042969 C 1.214844 126.398438 0.921875 128.757812 0.6875 131.125 C 0.457031 133.492188 0.28125 135.863281 0.164062 138.242188 C 0.046875 140.617188 -0.0117188 142.996094 -0.0117188 145.375 C -0.0117188 147.753906 0.046875 150.128906 0.164062 152.507812 C 0.28125 154.882812 0.457031 157.253906 0.6875 159.621094 C 0.921875 161.988281 1.214844 164.351562 1.5625 166.703125 C 1.910156 169.058594 2.320312 171.402344 2.78125 173.734375 C 3.246094 176.066406 3.769531 178.386719 4.347656 180.695312 C 4.925781 183.003906 5.558594 185.296875 6.25 187.570312 C 6.941406 189.847656 7.6875 192.105469 8.488281 194.347656 C 9.289062 196.585938 10.144531 198.804688 11.054688 201.003906 C 11.96875 203.203125 12.929688 205.375 13.949219 207.527344 C 14.964844 209.675781 16.035156 211.800781 17.15625 213.898438 C 18.277344 215.996094 19.453125 218.066406 20.675781 220.109375 C 21.898438 222.148438 23.171875 224.15625 24.492188 226.136719 C 25.816406 228.113281 27.183594 230.058594 28.601562 231.96875 C 30.019531 233.878906 31.484375 235.753906 32.992188 237.59375 C 34.5 239.433594 36.054688 241.234375 37.652344 242.996094 C 39.25 244.757812 40.890625 246.480469 42.574219 248.160156 Z M 220.074219 220.0625 C 261.257812 178.886719 261.257812 111.914062 220.074219 70.683594 C 178.890625 29.503906 111.867188 29.503906 70.675781 70.683594 C 29.5 111.914062 29.5 178.886719 70.675781 220.0625 C 71.898438 221.285156 73.152344 222.476562 74.433594 223.636719 C 75.714844 224.796875 77.023438 225.925781 78.359375 227.023438 C 79.699219 228.117188 81.058594 229.179688 82.449219 230.210938 C 83.839844 231.238281 85.25 232.234375 86.6875 233.195312 C 88.125 234.152344 89.585938 235.078125 91.070312 235.964844 C 92.554688 236.855469 94.058594 237.707031 95.582031 238.519531 C 97.105469 239.335938 98.648438 240.109375 100.214844 240.851562 C 101.777344 241.589844 103.355469 242.289062 104.953125 242.949219 C 106.550781 243.609375 108.164062 244.234375 109.789062 244.816406 C 111.417969 245.398438 113.058594 245.9375 114.714844 246.441406 C 116.367188 246.941406 118.035156 247.402344 119.710938 247.820312 C 121.386719 248.242188 123.074219 248.621094 124.769531 248.957031 C 126.464844 249.292969 128.167969 249.589844 129.878906 249.84375 C 131.585938 250.097656 133.300781 250.308594 135.023438 250.476562 C 136.742188 250.648438 138.464844 250.773438 140.191406 250.859375 C 141.921875 250.941406 143.648438 250.984375 145.375 250.984375 C 147.105469 250.984375 148.832031 250.941406 150.558594 250.859375 C 152.285156 250.773438 154.007812 250.648438 155.730469 250.476562 C 157.449219 250.308594 159.164062 250.097656 160.875 249.84375 C 162.585938 249.589844 164.289062 249.292969 165.984375 248.957031 C 167.679688 248.621094 169.363281 248.242188 171.042969 247.820312 C 172.71875 247.402344 174.382812 246.941406 176.039062 246.441406 C 177.691406 245.9375 179.335938 245.398438 180.960938 244.816406 C 182.589844 244.234375 184.203125 243.609375 185.800781 242.949219 C 187.394531 242.289062 188.976562 241.589844 190.539062 240.851562 C 192.101562 240.109375 193.644531 239.335938 195.171875 238.519531 C 196.695312 237.707031 198.199219 236.855469 199.683594 235.964844 C 201.164062 235.078125 202.625 234.152344 204.0625 233.195312 C 205.5 232.234375 206.914062 231.238281 208.304688 230.210938 C 209.691406 229.179688 211.054688 228.117188 212.390625 227.023438 C 213.726562 225.925781 215.039062 224.796875 216.320312 223.636719 C 217.601562 222.476562 218.851562 221.285156 220.074219 220.0625 Z M 228.917969 61.839844 C 182.851562 15.796875 107.90625 15.796875 61.839844 61.839844 C 15.78125 107.9375 15.78125 182.808594 61.839844 228.90625 C 63.207031 230.273438 64.609375 231.605469 66.039062 232.902344 C 67.472656 234.199219 68.9375 235.460938 70.433594 236.6875 C 71.925781 237.914062 73.449219 239.101562 75.003906 240.253906 C 76.558594 241.40625 78.136719 242.515625 79.746094 243.589844 C 81.351562 244.664062 82.988281 245.699219 84.644531 246.691406 C 86.304688 247.683594 87.984375 248.636719 89.691406 249.546875 C 91.394531 250.457031 93.121094 251.328125 94.871094 252.152344 C 96.617188 252.980469 98.386719 253.761719 100.171875 254.503906 C 101.957031 255.242188 103.761719 255.9375 105.582031 256.589844 C 107.402344 257.238281 109.238281 257.84375 111.085938 258.40625 C 112.9375 258.96875 114.800781 259.480469 116.675781 259.953125 C 118.550781 260.421875 120.4375 260.84375 122.332031 261.222656 C 124.230469 261.597656 126.132812 261.929688 128.046875 262.210938 C 129.957031 262.496094 131.875 262.730469 133.800781 262.921875 C 135.722656 263.109375 137.652344 263.253906 139.582031 263.347656 C 141.511719 263.441406 143.445312 263.492188 145.378906 263.492188 C 147.3125 263.492188 149.246094 263.441406 151.175781 263.347656 C 153.105469 263.253906 155.035156 263.109375 156.957031 262.921875 C 158.882812 262.730469 160.800781 262.496094 162.710938 262.210938 C 164.625 261.929688 166.527344 261.597656 168.425781 261.222656 C 170.320312 260.84375 172.207031 260.421875 174.082031 259.953125 C 175.957031 259.480469 177.820312 258.96875 179.671875 258.40625 C 181.519531 257.84375 183.355469 257.238281 185.175781 256.589844 C 186.996094 255.9375 188.800781 255.242188 190.585938 254.503906 C 192.371094 253.761719 194.140625 252.980469 195.886719 252.152344 C 197.636719 251.328125 199.363281 250.457031 201.066406 249.546875 C 202.773438 248.636719 204.453125 247.683594 206.113281 246.691406 C 207.769531 245.699219 209.402344 244.664062 211.011719 243.589844 C 212.621094 242.515625 214.199219 241.40625 215.753906 240.253906 C 217.304688 239.101562 218.832031 237.914062 220.324219 236.6875 C 221.820312 235.460938 223.285156 234.199219 224.71875 232.902344 C 226.148438 231.605469 227.550781 230.273438 228.917969 228.90625 C 274.976562 182.808594 274.976562 107.933594 228.917969 61.839844 Z M 228.917969 61.839844 " clip-rule="evenodd"/></clipPath><linearGradient x1="256" gradientTransform="matrix(0.732422, 0, 0, 0.732422, 0.0000045, 0)" y1="512.00048" x2="256.00101" gradientUnits="userSpaceOnUse" y2="-0.000504982" id="4f1095da70"><stop stop-opacity="1" stop-color="rgb(0%, 47.799683%, 71.398926%)" offset="0"/><stop stop-opacity="1" stop-color="rgb(0%, 47.903442%, 71.554565%)" offset="0.00000197259"/><stop stop-opacity="1" stop-color="rgb(0%, 48.008728%, 71.711731%)" offset="0.015625"/><stop stop-opacity="1" stop-color="rgb(0%, 48.112488%, 71.867371%)" offset="0.03125"/><stop stop-opacity="1" stop-color="rgb(0%, 48.321533%, 72.180176%)" offset="0.046875"/><stop stop-opacity="1" stop-color="rgb(0%, 48.532104%, 72.492981%)" offset="0.0625"/><stop stop-opacity="1" stop-color="rgb(0%, 48.74115%, 72.805786%)" offset="0.078125"/><stop stop-opacity="1" stop-color="rgb(0%, 48.950195%, 73.117065%)" offset="0.09375"/><stop stop-opacity="1" stop-color="rgb(0%, 49.159241%, 73.429871%)" offset="0.109375"/><stop stop-opacity="1" stop-color="rgb(0%, 49.369812%, 73.742676%)" offset="0.125"/><stop stop-opacity="1" stop-color="rgb(0%, 49.578857%, 74.055481%)" offset="0.140625"/><stop stop-opacity="1" stop-color="rgb(0%, 49.787903%, 74.368286%)" offset="0.15625"/><stop stop-opacity="1" stop-color="rgb(0%, 49.996948%, 74.679565%)" offset="0.171875"/><stop stop-opacity="1" stop-color="rgb(0%, 50.205994%, 74.992371%)" offset="0.1875"/><stop stop-opacity="1" stop-color="rgb(0%, 50.416565%, 75.305176%)" offset="0.203125"/><stop stop-opacity="1" stop-color="rgb(0%, 50.62561%, 75.617981%)" offset="0.21875"/><stop stop-opacity="1" stop-color="rgb(0%, 50.834656%, 75.930786%)" offset="0.234375"/><stop stop-opacity="1" stop-color="rgb(0%, 51.043701%, 76.242065%)" offset="0.25"/><stop stop-opacity="1" stop-color="rgb(0%, 51.252747%, 76.554871%)" offset="0.265625"/><stop stop-opacity="1" stop-color="rgb(0%, 51.463318%, 76.867676%)" offset="0.28125"/><stop stop-opacity="1" stop-color="rgb(0%, 51.672363%, 77.180481%)" offset="0.296875"/><stop stop-opacity="1" stop-color="rgb(0%, 51.881409%, 77.49176%)" offset="0.3125"/><stop stop-opacity="1" stop-color="rgb(0%, 52.090454%, 77.804565%)" offset="0.328125"/><stop stop-opacity="1" stop-color="rgb(0%, 52.301025%, 78.117371%)" offset="0.34375"/><stop stop-opacity="1" stop-color="rgb(0%, 52.510071%, 78.430176%)" offset="0.359375"/><stop stop-opacity="1" stop-color="rgb(0%, 52.719116%, 78.742981%)" offset="0.375"/><stop stop-opacity="1" stop-color="rgb(0%, 52.928162%, 79.05426%)" offset="0.390625"/><stop stop-opacity="1" stop-color="rgb(0%, 53.137207%, 79.367065%)" offset="0.40625"/><stop stop-opacity="1" stop-color="rgb(0%, 53.347778%, 79.679871%)" offset="0.421875"/><stop stop-opacity="1" stop-color="rgb(0%, 53.556824%, 79.992676%)" offset="0.4375"/><stop stop-opacity="1" stop-color="rgb(0%, 53.765869%, 80.305481%)" offset="0.453125"/><stop stop-opacity="1" stop-color="rgb(0%, 53.974915%, 80.61676%)" offset="0.46875"/><stop stop-opacity="1" stop-color="rgb(0%, 54.18396%, 80.929565%)" offset="0.484375"/><stop stop-opacity="1" stop-color="rgb(0%, 54.394531%, 81.242371%)" offset="0.5"/><stop stop-opacity="1" stop-color="rgb(0%, 54.603577%, 81.555176%)" offset="0.515625"/><stop stop-opacity="1" stop-color="rgb(0%, 54.812622%, 81.867981%)" offset="0.53125"/><stop stop-opacity="1" stop-color="rgb(0%, 55.021667%, 82.17926%)" offset="0.546875"/><stop stop-opacity="1" stop-color="rgb(0%, 55.230713%, 82.492065%)" offset="0.5625"/><stop stop-opacity="1" stop-color="rgb(0%, 55.441284%, 82.804871%)" offset="0.578125"/><stop stop-opacity="1" stop-color="rgb(0%, 55.65033%, 83.117676%)" offset="0.59375"/><stop stop-opacity="1" stop-color="rgb(0%, 55.859375%, 83.430481%)" offset="0.609375"/><stop stop-opacity="1" stop-color="rgb(0%, 56.06842%, 83.74176%)" offset="0.625"/><stop stop-opacity="1" stop-color="rgb(0%, 56.278992%, 84.054565%)" offset="0.640625"/><stop stop-opacity="1" stop-color="rgb(0%, 56.488037%, 84.367371%)" offset="0.65625"/><stop stop-opacity="1" stop-color="rgb(0%, 56.697083%, 84.680176%)" offset="0.671875"/><stop stop-opacity="1" stop-color="rgb(0%, 56.906128%, 84.992981%)" offset="0.6875"/><stop stop-opacity="1" stop-color="rgb(0%, 57.115173%, 85.30426%)" offset="0.703125"/><stop stop-opacity="1" stop-color="rgb(0%, 57.325745%, 85.617065%)" offset="0.71875"/><stop stop-opacity="1" stop-color="rgb(0%, 57.53479%, 85.929871%)" offset="0.734375"/><stop stop-opacity="1" stop-color="rgb(0%, 57.743835%, 86.242676%)" offset="0.75"/><stop stop-opacity="1" stop-color="rgb(0%, 57.952881%, 86.555481%)" offset="0.765625"/><stop stop-opacity="1" stop-color="rgb(0%, 58.161926%, 86.86676%)" offset="0.78125"/><stop stop-opacity="1" stop-color="rgb(0%, 58.372498%, 87.179565%)" offset="0.796875"/><stop stop-opacity="1" stop-color="rgb(0%, 58.581543%, 87.492371%)" offset="0.8125"/><stop stop-opacity="1" stop-color="rgb(0%, 58.790588%, 87.805176%)" offset="0.828125"/><stop stop-opacity="1" stop-color="rgb(0%, 58.999634%, 88.116455%)" offset="0.84375"/><stop stop-opacity="1" stop-color="rgb(0%, 59.208679%, 88.42926%)" offset="0.859375"/><stop stop-opacity="1" stop-color="rgb(0%, 59.41925%, 88.742065%)" offset="0.875"/><stop stop-opacity="1" stop-color="rgb(0%, 59.628296%, 89.054871%)" offset="0.890625"/><stop stop-opacity="1" stop-color="rgb(0%, 59.837341%, 89.367676%)" offset="0.90625"/><stop stop-opacity="1" stop-color="rgb(0%, 60.046387%, 89.678955%)" offset="0.921875"/><stop stop-opacity="1" stop-color="rgb(0%, 60.256958%, 89.99176%)" offset="0.9375"/><stop stop-opacity="1" stop-color="rgb(0%, 60.466003%, 90.304565%)" offset="0.953125"/><stop stop-opacity="1" stop-color="rgb(0%, 60.675049%, 90.617371%)" offset="0.96875"/><stop stop-opacity="1" stop-color="rgb(0%, 60.884094%, 90.930176%)" offset="0.984375"/><stop stop-opacity="1" stop-color="rgb(0%, 61.09314%, 91.241455%)" offset="0.999998"/><stop stop-opacity="1" stop-color="rgb(0%, 61.198425%, 91.398621%)" offset="1"/></linearGradient></defs><g clip-path="url(#d1cff938f7)"><rect x="-37.5" fill="url(#4f1095da70)" width="450" y="-37.499999" height="449.999989"/></g></svg>