<svg xmlns="http://www.w3.org/2000/svg" xmlns:xlink="http://www.w3.org/1999/xlink" width="500" zoomAndPan="magnify" viewBox="0 0 375 374.999991" height="500" preserveAspectRatio="xMidYMid meet" version="1.0"><defs><clipPath id="67fa7281fa"><path d="M 27 0 L 348 0 L 348 375 L 27 375 Z M 27 0 " clip-rule="nonzero"/></clipPath><clipPath id="8a8c8c7ab3"><path d="M 213.355469 0.0117188 C 214.945312 0.0117188 216.535156 0.0898438 218.117188 0.25 C 219.703125 0.40625 221.277344 0.640625 222.835938 0.953125 C 224.398438 1.261719 225.941406 1.648438 227.464844 2.113281 C 228.988281 2.574219 230.484375 3.109375 231.957031 3.722656 C 233.425781 4.332031 234.863281 5.011719 236.265625 5.761719 C 237.671875 6.511719 239.035156 7.328125 240.359375 8.214844 C 241.683594 9.097656 242.960938 10.046875 244.191406 11.054688 C 245.421875 12.0625 246.601562 13.132812 247.726562 14.257812 C 248.851562 15.382812 249.921875 16.558594 250.933594 17.789062 C 251.941406 19.019531 252.890625 20.296875 253.777344 21.621094 C 254.660156 22.945312 255.480469 24.308594 256.230469 25.710938 C 256.984375 27.113281 257.664062 28.550781 258.273438 30.019531 C 258.886719 31.492188 259.421875 32.988281 259.886719 34.511719 C 260.351562 36.035156 260.738281 37.574219 261.050781 39.136719 C 261.363281 40.699219 261.597656 42.269531 261.757812 43.855469 C 261.917969 45.4375 261.996094 47.027344 262 48.617188 L 262 54.898438 C 262 56.109375 262.058594 57.3125 262.175781 58.519531 C 262.296875 59.722656 262.472656 60.917969 262.707031 62.101562 C 262.945312 63.289062 263.238281 64.460938 263.589844 65.617188 C 263.941406 66.777344 264.347656 67.914062 264.808594 69.03125 C 265.273438 70.148438 265.789062 71.242188 266.359375 72.308594 C 266.929688 73.375 267.550781 74.410156 268.222656 75.417969 C 268.894531 76.421875 269.613281 77.390625 270.382812 78.328125 C 271.148438 79.261719 271.960938 80.15625 272.816406 81.011719 C 273.671875 81.867188 274.566406 82.679688 275.5 83.445312 C 276.4375 84.214844 277.40625 84.933594 278.414062 85.605469 C 279.417969 86.277344 280.453125 86.898438 281.523438 87.46875 C 282.589844 88.039062 283.679688 88.554688 284.796875 89.019531 C 285.914062 89.480469 287.054688 89.890625 288.210938 90.238281 C 289.367188 90.589844 290.539062 90.882812 291.726562 91.121094 C 292.914062 91.355469 294.109375 91.535156 295.3125 91.652344 C 296.515625 91.769531 297.722656 91.832031 298.929688 91.832031 C 300.140625 91.832031 301.347656 91.769531 302.550781 91.652344 C 303.753906 91.535156 304.949219 91.355469 306.136719 91.121094 C 307.324219 90.882812 308.496094 90.589844 309.652344 90.238281 C 310.808594 89.890625 311.949219 89.480469 313.066406 89.019531 C 314.183594 88.554688 315.273438 88.039062 316.339844 87.46875 C 317.40625 86.898438 318.445312 86.277344 319.449219 85.605469 C 320.457031 84.933594 321.425781 84.214844 322.359375 83.445312 C 323.296875 82.679688 324.191406 81.867188 325.046875 81.011719 C 325.902344 80.15625 326.714844 79.261719 327.480469 78.328125 C 328.246094 77.390625 328.96875 76.421875 329.640625 75.417969 C 330.3125 74.410156 330.933594 73.375 331.503906 72.308594 C 332.074219 71.242188 332.589844 70.148438 333.050781 69.03125 C 333.515625 67.914062 333.921875 66.777344 334.273438 65.617188 C 334.625 64.460938 334.917969 63.289062 335.152344 62.101562 C 335.390625 60.917969 335.566406 59.722656 335.6875 58.519531 C 335.804688 57.3125 335.863281 56.109375 335.863281 54.898438 C 335.863281 54.511719 335.902344 54.132812 335.976562 53.753906 C 336.050781 53.378906 336.164062 53.011719 336.308594 52.65625 C 336.457031 52.300781 336.636719 51.960938 336.851562 51.644531 C 337.066406 51.324219 337.308594 51.027344 337.578125 50.753906 C 337.851562 50.484375 338.148438 50.238281 338.46875 50.027344 C 338.789062 49.8125 339.125 49.632812 339.480469 49.484375 C 339.835938 49.335938 340.203125 49.226562 340.578125 49.152344 C 340.957031 49.074219 341.339844 49.039062 341.722656 49.039062 C 342.109375 49.039062 342.488281 49.074219 342.867188 49.152344 C 343.242188 49.226562 343.609375 49.335938 343.964844 49.484375 C 344.320312 49.632812 344.660156 49.8125 344.976562 50.027344 C 345.296875 50.238281 345.59375 50.484375 345.867188 50.753906 C 346.136719 51.027344 346.382812 51.324219 346.59375 51.644531 C 346.808594 51.960938 346.988281 52.300781 347.136719 52.65625 C 347.285156 53.011719 347.394531 53.378906 347.46875 53.753906 C 347.546875 54.132812 347.582031 54.511719 347.582031 54.898438 C 347.589844 56.496094 347.515625 58.089844 347.367188 59.679688 C 347.214844 61.269531 346.988281 62.847656 346.679688 64.417969 C 346.375 65.984375 345.992188 67.535156 345.53125 69.0625 C 345.074219 70.59375 344.539062 72.097656 343.933594 73.574219 C 343.328125 75.054688 342.648438 76.496094 341.898438 77.910156 C 341.148438 79.320312 340.332031 80.691406 339.449219 82.019531 C 338.566406 83.351562 337.617188 84.636719 336.605469 85.871094 C 335.59375 87.109375 334.527344 88.292969 333.398438 89.425781 C 332.273438 90.558594 331.089844 91.632812 329.859375 92.644531 C 328.625 93.660156 327.34375 94.613281 326.019531 95.503906 C 324.691406 96.394531 323.324219 97.214844 321.914062 97.96875 C 320.507812 98.726562 319.066406 99.410156 317.589844 100.023438 C 316.117188 100.632812 314.613281 101.171875 313.085938 101.636719 C 311.558594 102.101562 310.007812 102.492188 308.441406 102.804688 C 306.875 103.117188 305.296875 103.351562 303.707031 103.507812 C 302.117188 103.664062 300.523438 103.742188 298.925781 103.742188 C 297.328125 103.742188 295.734375 103.664062 294.144531 103.507812 C 292.558594 103.351562 290.976562 103.117188 289.410156 102.804688 C 287.84375 102.492188 286.296875 102.101562 284.769531 101.636719 C 283.242188 101.171875 281.738281 100.632812 280.265625 100.023438 C 278.789062 99.410156 277.347656 98.726562 275.9375 97.96875 C 274.53125 97.214844 273.164062 96.394531 271.835938 95.503906 C 270.507812 94.613281 269.230469 93.660156 267.996094 92.644531 C 266.761719 91.632812 265.582031 90.558594 264.457031 89.425781 C 263.328125 88.292969 262.257812 87.109375 261.25 85.871094 C 260.238281 84.636719 259.289062 83.351562 258.40625 82.019531 C 257.523438 80.691406 256.703125 79.320312 255.957031 77.910156 C 255.207031 76.496094 254.527344 75.054688 253.921875 73.574219 C 253.3125 72.097656 252.78125 70.59375 252.324219 69.0625 C 251.863281 67.535156 251.480469 65.984375 251.175781 64.417969 C 250.867188 62.847656 250.640625 61.269531 250.488281 59.679688 C 250.339844 58.089844 250.265625 56.496094 250.273438 54.898438 L 250.273438 48.617188 C 250.269531 47.472656 250.214844 46.328125 250.109375 45.183594 C 250 44.042969 249.839844 42.910156 249.625 41.78125 C 249.410156 40.65625 249.144531 39.539062 248.828125 38.4375 C 248.511719 37.335938 248.144531 36.25 247.722656 35.183594 C 247.304688 34.113281 246.839844 33.066406 246.320312 32.042969 C 245.804688 31.019531 245.242188 30.019531 244.632812 29.046875 C 244.023438 28.078125 243.371094 27.136719 242.675781 26.222656 C 241.976562 25.3125 241.238281 24.4375 240.460938 23.59375 C 239.683594 22.75 238.867188 21.945312 238.011719 21.179688 C 237.160156 20.414062 236.273438 19.6875 235.351562 19.003906 C 234.429688 18.320312 233.476562 17.683594 232.496094 17.085938 C 231.515625 16.492188 230.511719 15.945312 229.476562 15.445312 C 228.445312 14.941406 227.394531 14.488281 226.320312 14.085938 C 225.246094 13.683594 224.15625 13.332031 223.046875 13.03125 C 221.941406 12.730469 220.824219 12.480469 219.691406 12.28125 C 218.5625 12.085938 217.425781 11.941406 216.28125 11.847656 C 215.140625 11.757812 213.992188 11.71875 212.847656 11.734375 C 211.699219 11.75 210.554688 11.820312 209.414062 11.941406 C 208.273438 12.0625 207.140625 12.238281 206.019531 12.464844 C 204.894531 12.695312 203.78125 12.972656 202.683594 13.304688 C 201.585938 13.636719 200.503906 14.015625 199.441406 14.449219 C 198.378906 14.878906 197.339844 15.359375 196.320312 15.890625 C 195.304688 16.417969 194.3125 16.992188 193.347656 17.613281 C 192.382812 18.234375 191.449219 18.898438 190.546875 19.609375 C 189.644531 20.316406 188.777344 21.066406 187.945312 21.855469 C 187.113281 22.644531 186.316406 23.46875 185.5625 24.332031 C 184.804688 25.195312 184.09375 26.089844 183.417969 27.019531 C 182.746094 27.949219 182.121094 28.910156 181.535156 29.898438 C 180.953125 30.886719 180.417969 31.898438 179.929688 32.9375 C 179.441406 33.972656 179.003906 35.03125 178.613281 36.109375 C 178.222656 37.191406 177.882812 38.285156 177.597656 39.394531 C 177.308594 40.503906 177.074219 41.628906 176.890625 42.757812 L 197.910156 42.757812 C 198.523438 42.761719 199.136719 42.792969 199.75 42.851562 C 200.363281 42.914062 200.96875 43.003906 201.570312 43.125 C 202.175781 43.246094 202.769531 43.394531 203.359375 43.574219 C 203.945312 43.753906 204.523438 43.960938 205.09375 44.195312 C 205.660156 44.433594 206.214844 44.695312 206.757812 44.984375 C 207.300781 45.277344 207.824219 45.59375 208.335938 45.933594 C 208.847656 46.277344 209.339844 46.640625 209.816406 47.03125 C 210.289062 47.421875 210.746094 47.835938 211.179688 48.269531 C 211.613281 48.703125 212.027344 49.160156 212.417969 49.636719 C 212.808594 50.109375 213.171875 50.605469 213.515625 51.113281 C 213.855469 51.625 214.171875 52.152344 214.460938 52.695312 C 214.75 53.238281 215.015625 53.792969 215.25 54.359375 C 215.484375 54.929688 215.691406 55.507812 215.871094 56.09375 C 216.050781 56.683594 216.199219 57.277344 216.320312 57.882812 C 216.441406 58.484375 216.53125 59.089844 216.589844 59.703125 C 216.652344 60.316406 216.683594 60.929688 216.683594 61.542969 L 216.683594 91.367188 C 223.71875 93.628906 230.542969 96.40625 237.15625 99.703125 C 243.769531 102.996094 250.097656 106.773438 256.140625 111.027344 C 262.179688 115.28125 267.867188 119.964844 273.199219 125.082031 C 278.53125 130.195312 283.449219 135.683594 287.949219 141.546875 C 292.78125 147.820312 297.070312 154.453125 300.808594 161.433594 C 304.550781 168.417969 307.691406 175.664062 310.230469 183.167969 C 312.773438 190.667969 314.683594 198.332031 315.960938 206.148438 C 317.238281 213.96875 317.863281 221.839844 317.839844 229.761719 C 317.839844 309.867188 252.691406 374.988281 172.621094 374.988281 C 92.554688 374.988281 27.414062 309.867188 27.414062 229.761719 C 27.414062 226.03125 27.558594 222.304688 27.847656 218.585938 C 28.132812 214.867188 28.566406 211.164062 29.136719 207.476562 C 29.710938 203.789062 30.425781 200.132812 31.277344 196.5 C 32.132812 192.867188 33.125 189.277344 34.257812 185.722656 C 35.390625 182.164062 36.65625 178.660156 38.058594 175.203125 C 39.460938 171.746094 40.992188 168.347656 42.65625 165.007812 C 44.320312 161.667969 46.109375 158.398438 48.027344 155.199219 C 49.941406 151.996094 51.976562 148.875 54.132812 145.828125 C 56.292969 142.785156 58.5625 139.828125 60.945312 136.960938 C 63.332031 134.089844 65.820312 131.316406 68.417969 128.640625 C 71.015625 125.960938 73.714844 123.390625 76.511719 120.917969 C 79.308594 118.449219 82.195312 116.09375 85.171875 113.84375 C 88.152344 111.597656 91.210938 109.46875 94.351562 107.457031 C 97.496094 105.449219 100.710938 103.558594 103.996094 101.796875 C 107.285156 100.035156 110.636719 98.398438 114.050781 96.894531 C 117.460938 95.390625 120.929688 94.015625 124.449219 92.78125 L 124.449219 61.542969 C 124.449219 60.929688 124.480469 60.316406 124.539062 59.703125 C 124.597656 59.089844 124.691406 58.484375 124.808594 57.882812 C 124.929688 57.277344 125.078125 56.683594 125.257812 56.09375 C 125.4375 55.507812 125.644531 54.929688 125.878906 54.359375 C 126.113281 53.792969 126.375 53.238281 126.664062 52.695312 C 126.953125 52.152344 127.269531 51.625 127.613281 51.113281 C 127.953125 50.605469 128.320312 50.109375 128.707031 49.636719 C 129.097656 49.160156 129.511719 48.703125 129.945312 48.269531 C 130.378906 47.835938 130.832031 47.421875 131.308594 47.03125 C 131.785156 46.640625 132.277344 46.277344 132.789062 45.933594 C 133.296875 45.59375 133.824219 45.277344 134.367188 44.984375 C 134.90625 44.695312 135.460938 44.433594 136.03125 44.195312 C 136.597656 43.960938 137.175781 43.753906 137.765625 43.574219 C 138.351562 43.394531 138.949219 43.246094 139.550781 43.125 C 140.152344 43.003906 140.761719 42.914062 141.371094 42.851562 C 141.984375 42.789062 142.597656 42.757812 143.210938 42.757812 L 165.066406 42.757812 C 165.246094 41.300781 165.492188 39.851562 165.800781 38.417969 C 166.109375 36.980469 166.484375 35.558594 166.925781 34.15625 C 167.363281 32.753906 167.863281 31.375 168.429688 30.019531 C 168.992188 28.660156 169.617188 27.332031 170.300781 26.03125 C 170.984375 24.730469 171.726562 23.464844 172.523438 22.230469 C 173.324219 20.996094 174.175781 19.800781 175.082031 18.648438 C 175.988281 17.492188 176.945312 16.378906 177.953125 15.308594 C 178.960938 14.238281 180.015625 13.214844 181.117188 12.242188 C 182.21875 11.269531 183.359375 10.347656 184.542969 9.476562 C 185.726562 8.605469 186.949219 7.789062 188.207031 7.027344 C 189.464844 6.269531 190.753906 5.566406 192.074219 4.925781 C 193.394531 4.28125 194.742188 3.699219 196.117188 3.175781 C 197.492188 2.65625 198.886719 2.199219 200.300781 1.800781 C 201.714844 1.40625 203.148438 1.078125 204.59375 0.8125 C 206.039062 0.546875 207.492188 0.347656 208.953125 0.214844 C 210.417969 0.078125 211.886719 0.0117188 213.355469 0.0117188 Z M 172.621094 273.03125 C 172.839844 273.035156 173.023438 272.957031 173.179688 272.804688 C 173.335938 272.652344 173.410156 272.46875 173.414062 272.25 C 173.414062 272.03125 173.335938 271.847656 173.183594 271.695312 C 173.03125 271.539062 172.847656 271.460938 172.628906 271.460938 C 172.410156 271.460938 172.226562 271.539062 172.074219 271.691406 C 171.917969 271.84375 171.84375 272.03125 171.84375 272.246094 C 171.84375 272.464844 171.921875 272.648438 172.070312 272.800781 C 172.222656 272.953125 172.40625 273.03125 172.621094 273.03125 Z M 172.621094 261.3125 C 171.90625 261.3125 171.195312 261.382812 170.488281 261.527344 C 169.785156 261.667969 169.101562 261.875 168.4375 262.148438 C 167.777344 262.425781 167.144531 262.761719 166.550781 263.160156 C 165.953125 263.558594 165.402344 264.015625 164.894531 264.523438 C 164.386719 265.03125 163.933594 265.582031 163.535156 266.179688 C 163.136719 266.777344 162.800781 267.40625 162.527344 268.070312 C 162.25 268.734375 162.042969 269.417969 161.90625 270.121094 C 161.765625 270.828125 161.695312 271.539062 161.695312 272.253906 C 161.695312 272.972656 161.765625 273.683594 161.90625 274.386719 C 162.046875 275.09375 162.253906 275.777344 162.53125 276.4375 C 162.804688 277.101562 163.144531 277.734375 163.542969 278.328125 C 163.941406 278.925781 164.394531 279.476562 164.902344 279.984375 C 165.410156 280.492188 165.960938 280.945312 166.558594 281.34375 C 167.15625 281.742188 167.789062 282.078125 168.449219 282.355469 C 169.113281 282.628906 169.796875 282.835938 170.5 282.976562 C 171.207031 283.117188 171.917969 283.183594 172.636719 283.183594 C 173.351562 283.183594 174.0625 283.113281 174.769531 282.972656 C 175.472656 282.835938 176.15625 282.625 176.820312 282.351562 C 177.480469 282.078125 178.113281 281.738281 178.710938 281.339844 C 179.304688 280.941406 179.859375 280.488281 180.367188 279.980469 C 180.875 279.472656 181.328125 278.921875 181.726562 278.324219 C 182.125 277.726562 182.460938 277.097656 182.734375 276.433594 C 183.011719 275.769531 183.21875 275.085938 183.359375 274.382812 C 183.496094 273.679688 183.566406 272.96875 183.566406 272.25 C 183.566406 271.53125 183.496094 270.820312 183.355469 270.117188 C 183.214844 269.410156 183.003906 268.726562 182.730469 268.066406 C 182.453125 267.402344 182.117188 266.773438 181.71875 266.175781 C 181.316406 265.578125 180.863281 265.027344 180.355469 264.519531 C 179.847656 264.011719 179.296875 263.558594 178.699219 263.160156 C 178.101562 262.757812 177.472656 262.421875 176.808594 262.148438 C 176.144531 261.871094 175.460938 261.664062 174.757812 261.523438 C 174.050781 261.382812 173.339844 261.3125 172.621094 261.3125 Z M 169.769531 194.445312 C 169.429688 194.789062 169.183594 195.191406 169.035156 195.652344 C 168.886719 196.113281 168.851562 196.582031 168.929688 197.058594 L 172.621094 231.644531 L 176.347656 197.058594 C 176.371094 196.820312 176.367188 196.585938 176.339844 196.347656 C 176.3125 196.109375 176.261719 195.878906 176.183594 195.652344 C 176.109375 195.425781 176.011719 195.210938 175.890625 195.003906 C 175.773438 194.800781 175.632812 194.609375 175.472656 194.429688 C 175.3125 194.253906 175.136719 194.09375 174.945312 193.953125 C 174.75 193.8125 174.546875 193.695312 174.328125 193.597656 C 174.113281 193.5 173.886719 193.425781 173.652344 193.371094 C 173.421875 193.320312 173.183594 193.292969 172.945312 193.292969 L 172.304688 193.292969 C 171.816406 193.277344 171.347656 193.371094 170.902344 193.574219 C 170.457031 193.777344 170.082031 194.066406 169.769531 194.441406 Z M 162.796875 249.851562 C 162.859375 250.457031 162.976562 251.046875 163.152344 251.625 C 163.324219 252.207031 163.546875 252.765625 163.824219 253.304688 C 164.097656 253.84375 164.421875 254.351562 164.789062 254.832031 C 165.160156 255.3125 165.570312 255.753906 166.019531 256.160156 C 166.46875 256.5625 166.953125 256.925781 167.46875 257.242188 C 167.984375 257.554688 168.527344 257.824219 169.089844 258.039062 C 169.65625 258.253906 170.234375 258.417969 170.832031 258.53125 C 171.425781 258.640625 172.027344 258.695312 172.632812 258.695312 C 173.238281 258.695312 173.835938 258.640625 174.433594 258.53125 C 175.027344 258.417969 175.609375 258.253906 176.171875 258.039062 C 176.738281 257.824219 177.277344 257.554688 177.796875 257.242188 C 178.3125 256.925781 178.796875 256.5625 179.246094 256.160156 C 179.695312 255.753906 180.105469 255.3125 180.472656 254.832031 C 180.84375 254.351562 181.164062 253.84375 181.441406 253.304688 C 181.714844 252.765625 181.941406 252.207031 182.113281 251.625 C 182.285156 251.046875 182.40625 250.457031 182.46875 249.851562 L 187.984375 198.316406 C 188.109375 197.257812 188.125 196.203125 188.019531 195.144531 C 187.917969 194.085938 187.703125 193.050781 187.378906 192.039062 C 187.050781 191.027344 186.617188 190.0625 186.082031 189.144531 C 185.546875 188.226562 184.917969 187.378906 184.195312 186.597656 C 183.492188 185.800781 182.710938 185.085938 181.855469 184.457031 C 181 183.828125 180.085938 183.296875 179.117188 182.863281 C 178.144531 182.429688 177.140625 182.105469 176.101562 181.886719 C 175.0625 181.671875 174.007812 181.566406 172.945312 181.574219 L 172.304688 181.574219 C 171.773438 181.574219 171.246094 181.601562 170.71875 181.65625 C 170.195312 181.714844 169.671875 181.796875 169.15625 181.90625 C 168.636719 182.015625 168.128906 182.15625 167.625 182.320312 C 167.121094 182.484375 166.628906 182.671875 166.144531 182.886719 C 165.660156 183.105469 165.191406 183.34375 164.734375 183.609375 C 164.273438 183.875 163.832031 184.164062 163.40625 184.472656 C 162.976562 184.785156 162.566406 185.117188 162.175781 185.472656 C 161.78125 185.828125 161.40625 186.203125 161.054688 186.59375 C 160.699219 186.988281 160.367188 187.398438 160.058594 187.828125 C 159.75 188.257812 159.460938 188.699219 159.195312 189.160156 C 158.933594 189.617188 158.695312 190.089844 158.480469 190.570312 C 158.265625 191.054688 158.078125 191.550781 157.914062 192.054688 C 157.75 192.554688 157.613281 193.066406 157.503906 193.585938 C 157.398438 194.101562 157.316406 194.625 157.261719 195.152344 C 157.207031 195.675781 157.179688 196.203125 157.179688 196.734375 C 157.179688 197.261719 157.210938 197.789062 157.265625 198.316406 L 162.796875 249.855469 Z M 172.621094 153.160156 C 170.753906 155.300781 168.773438 157.332031 166.6875 159.261719 C 164.601562 161.191406 162.421875 163.003906 160.140625 164.699219 C 157.863281 166.394531 155.5 167.96875 153.054688 169.414062 C 150.609375 170.859375 148.097656 172.171875 145.511719 173.347656 C 142.925781 174.527344 140.285156 175.566406 137.589844 176.464844 C 134.894531 177.363281 132.160156 178.113281 129.386719 178.722656 C 126.609375 179.328125 123.8125 179.789062 120.988281 180.097656 C 118.164062 180.410156 115.332031 180.570312 112.492188 180.578125 C 109.425781 180.585938 106.371094 180.410156 103.328125 180.054688 C 107.230469 258.539062 138.527344 288.78125 172.625 308.667969 C 206.730469 288.785156 238.035156 258.542969 241.941406 180.054688 C 216.070312 183.140625 190.09375 173.042969 172.625 153.160156 Z M 167.886719 140.34375 C 151.839844 162.421875 124.5625 173.046875 98.429688 167.394531 C 97.546875 167.191406 96.667969 167.195312 95.789062 167.40625 C 94.914062 167.617188 94.128906 168.015625 93.4375 168.597656 C 92.746094 169.171875 92.21875 169.867188 91.847656 170.683594 C 91.476562 171.5 91.304688 172.355469 91.328125 173.253906 C 92.4375 213.230469 99.929688 244.464844 114.230469 268.742188 C 126.542969 289.617188 144.1875 306.050781 169.746094 320.542969 C 170.648438 321.03125 171.609375 321.277344 172.628906 321.277344 C 173.652344 321.277344 174.613281 321.03125 175.515625 320.542969 C 201.074219 306.050781 218.710938 289.621094 231.023438 268.742188 C 245.328125 244.464844 252.820312 213.226562 253.9375 173.253906 C 253.957031 172.355469 253.78125 171.5 253.410156 170.683594 C 253.035156 169.867188 252.507812 169.171875 251.816406 168.597656 C 251.125 168.015625 250.34375 167.621094 249.46875 167.40625 C 248.589844 167.195312 247.714844 167.191406 246.835938 167.394531 C 220.6875 173.046875 193.425781 162.421875 177.371094 140.34375 C 177.097656 139.96875 176.789062 139.632812 176.4375 139.335938 C 176.082031 139.035156 175.703125 138.78125 175.289062 138.570312 C 174.878906 138.363281 174.449219 138.203125 174 138.097656 C 173.550781 137.988281 173.09375 137.9375 172.632812 137.9375 C 172.171875 137.9375 171.714844 137.988281 171.265625 138.097656 C 170.816406 138.203125 170.386719 138.363281 169.972656 138.570312 C 169.5625 138.78125 169.179688 139.035156 168.828125 139.335938 C 168.476562 139.632812 168.164062 139.96875 167.890625 140.34375 Z M 167.886719 140.34375 " clip-rule="evenodd"/></clipPath><linearGradient x1="255.99899" gradientTransform="matrix(0.732422, 0, 0, 0.732422, 0.0000045, 0)" y1="511.984384" x2="256" gradientUnits="userSpaceOnUse" y2="0.0145529" id="f12db588bc"><stop stop-opacity="1" stop-color="rgb(0%, 47.799683%, 71.398926%)" offset="0"/><stop stop-opacity="1" stop-color="rgb(0%, 47.903442%, 71.554565%)" offset="0.00000168444"/><stop stop-opacity="1" stop-color="rgb(0%, 48.008728%, 71.711731%)" offset="0.015625"/><stop stop-opacity="1" stop-color="rgb(0%, 48.112488%, 71.867371%)" offset="0.03125"/><stop stop-opacity="1" stop-color="rgb(0%, 48.321533%, 72.180176%)" offset="0.046875"/><stop stop-opacity="1" stop-color="rgb(0%, 48.532104%, 72.492981%)" offset="0.0625"/><stop stop-opacity="1" stop-color="rgb(0%, 48.74115%, 72.80426%)" offset="0.078125"/><stop stop-opacity="1" stop-color="rgb(0%, 48.950195%, 73.117065%)" offset="0.09375"/><stop stop-opacity="1" stop-color="rgb(0%, 49.159241%, 73.429871%)" offset="0.109375"/><stop stop-opacity="1" stop-color="rgb(0%, 49.368286%, 73.742676%)" offset="0.125"/><stop stop-opacity="1" stop-color="rgb(0%, 49.578857%, 74.055481%)" offset="0.140625"/><stop stop-opacity="1" stop-color="rgb(0%, 49.787903%, 74.36676%)" offset="0.15625"/><stop stop-opacity="1" stop-color="rgb(0%, 49.996948%, 74.679565%)" offset="0.171875"/><stop stop-opacity="1" stop-color="rgb(0%, 50.205994%, 74.992371%)" offset="0.1875"/><stop stop-opacity="1" stop-color="rgb(0%, 50.416565%, 75.305176%)" offset="0.203125"/><stop stop-opacity="1" stop-color="rgb(0%, 50.62561%, 75.617981%)" offset="0.21875"/><stop stop-opacity="1" stop-color="rgb(0%, 50.834656%, 75.92926%)" offset="0.234375"/><stop stop-opacity="1" stop-color="rgb(0%, 51.043701%, 76.242065%)" offset="0.25"/><stop stop-opacity="1" stop-color="rgb(0%, 51.252747%, 76.554871%)" offset="0.265625"/><stop stop-opacity="1" stop-color="rgb(0%, 51.463318%, 76.867676%)" offset="0.28125"/><stop stop-opacity="1" stop-color="rgb(0%, 51.672363%, 77.180481%)" offset="0.296875"/><stop stop-opacity="1" stop-color="rgb(0%, 51.881409%, 77.49176%)" offset="0.3125"/><stop stop-opacity="1" stop-color="rgb(0%, 52.090454%, 77.804565%)" offset="0.328125"/><stop stop-opacity="1" stop-color="rgb(0%, 52.2995%, 78.117371%)" offset="0.34375"/><stop stop-opacity="1" stop-color="rgb(0%, 52.510071%, 78.430176%)" offset="0.359375"/><stop stop-opacity="1" stop-color="rgb(0%, 52.719116%, 78.742981%)" offset="0.375"/><stop stop-opacity="1" stop-color="rgb(0%, 52.928162%, 79.05426%)" offset="0.390625"/><stop stop-opacity="1" stop-color="rgb(0%, 53.137207%, 79.367065%)" offset="0.40625"/><stop stop-opacity="1" stop-color="rgb(0%, 53.347778%, 79.679871%)" offset="0.421875"/><stop stop-opacity="1" stop-color="rgb(0%, 53.556824%, 79.992676%)" offset="0.4375"/><stop stop-opacity="1" stop-color="rgb(0%, 53.765869%, 80.305481%)" offset="0.453125"/><stop stop-opacity="1" stop-color="rgb(0%, 53.974915%, 80.61676%)" offset="0.46875"/><stop stop-opacity="1" stop-color="rgb(0%, 54.18396%, 80.929565%)" offset="0.484375"/><stop stop-opacity="1" stop-color="rgb(0%, 54.394531%, 81.242371%)" offset="0.5"/><stop stop-opacity="1" stop-color="rgb(0%, 54.603577%, 81.555176%)" offset="0.515625"/><stop stop-opacity="1" stop-color="rgb(0%, 54.812622%, 81.867981%)" offset="0.53125"/><stop stop-opacity="1" stop-color="rgb(0%, 55.021667%, 82.17926%)" offset="0.546875"/><stop stop-opacity="1" stop-color="rgb(0%, 55.230713%, 82.492065%)" offset="0.5625"/><stop stop-opacity="1" stop-color="rgb(0%, 55.441284%, 82.804871%)" offset="0.578125"/><stop stop-opacity="1" stop-color="rgb(0%, 55.65033%, 83.117676%)" offset="0.59375"/><stop stop-opacity="1" stop-color="rgb(0%, 55.859375%, 83.430481%)" offset="0.609375"/><stop stop-opacity="1" stop-color="rgb(0%, 56.06842%, 83.74176%)" offset="0.625"/><stop stop-opacity="1" stop-color="rgb(0%, 56.278992%, 84.054565%)" offset="0.640625"/><stop stop-opacity="1" stop-color="rgb(0%, 56.488037%, 84.367371%)" offset="0.65625"/><stop stop-opacity="1" stop-color="rgb(0%, 56.697083%, 84.680176%)" offset="0.671875"/><stop stop-opacity="1" stop-color="rgb(0%, 56.906128%, 84.992981%)" offset="0.6875"/><stop stop-opacity="1" stop-color="rgb(0%, 57.115173%, 85.30426%)" offset="0.703125"/><stop stop-opacity="1" stop-color="rgb(0%, 57.325745%, 85.617065%)" offset="0.71875"/><stop stop-opacity="1" stop-color="rgb(0%, 57.53479%, 85.929871%)" offset="0.734375"/><stop stop-opacity="1" stop-color="rgb(0%, 57.743835%, 86.242676%)" offset="0.75"/><stop stop-opacity="1" stop-color="rgb(0%, 57.952881%, 86.555481%)" offset="0.765625"/><stop stop-opacity="1" stop-color="rgb(0%, 58.163452%, 86.86676%)" offset="0.78125"/><stop stop-opacity="1" stop-color="rgb(0%, 58.372498%, 87.179565%)" offset="0.796875"/><stop stop-opacity="1" stop-color="rgb(0%, 58.581543%, 87.492371%)" offset="0.8125"/><stop stop-opacity="1" stop-color="rgb(0%, 58.790588%, 87.805176%)" offset="0.828125"/><stop stop-opacity="1" stop-color="rgb(0%, 58.999634%, 88.117981%)" offset="0.84375"/><stop stop-opacity="1" stop-color="rgb(0%, 59.210205%, 88.42926%)" offset="0.859375"/><stop stop-opacity="1" stop-color="rgb(0%, 59.41925%, 88.742065%)" offset="0.875"/><stop stop-opacity="1" stop-color="rgb(0%, 59.628296%, 89.054871%)" offset="0.890625"/><stop stop-opacity="1" stop-color="rgb(0%, 59.837341%, 89.367676%)" offset="0.90625"/><stop stop-opacity="1" stop-color="rgb(0%, 60.046387%, 89.680481%)" offset="0.921875"/><stop stop-opacity="1" stop-color="rgb(0%, 60.256958%, 89.99176%)" offset="0.9375"/><stop stop-opacity="1" stop-color="rgb(0%, 60.466003%, 90.304565%)" offset="0.953125"/><stop stop-opacity="1" stop-color="rgb(0%, 60.675049%, 90.617371%)" offset="0.96875"/><stop stop-opacity="1" stop-color="rgb(0%, 60.884094%, 90.930176%)" offset="0.984375"/><stop stop-opacity="1" stop-color="rgb(0%, 61.094666%, 91.242981%)" offset="0.999998"/><stop stop-opacity="1" stop-color="rgb(0%, 61.199951%, 91.398621%)" offset="1"/></linearGradient></defs><g clip-path="url(#67fa7281fa)"><g clip-path="url(#8a8c8c7ab3)"><path fill="url(#f12db588bc)" d="M 27.414062 0.0117188 L 27.414062 374.988281 L 347.589844 374.988281 L 347.589844 0.0117188 Z M 27.414062 0.0117188 " fill-rule="nonzero"/></g></g></svg>