<svg xmlns="http://www.w3.org/2000/svg" xmlns:xlink="http://www.w3.org/1999/xlink" width="500" zoomAndPan="magnify" viewBox="0 0 375 374.999991" height="500" preserveAspectRatio="xMidYMid meet" version="1.0"><defs><clipPath id="21d3dfdb37"><path d="M 286.199219 181.25 C 285.667969 145.621094 280.574219 111.578125 271.488281 82.03125 C 288.1875 74.261719 303.507812 64.359375 317.453125 52.324219 C 321.8125 56.5 325.957031 60.878906 329.894531 65.457031 C 333.828125 70.035156 337.535156 74.792969 341.007812 79.726562 C 344.484375 84.664062 347.710938 89.757812 350.691406 95.007812 C 353.675781 100.257812 356.394531 105.636719 358.855469 111.148438 C 361.316406 116.660156 363.507812 122.28125 365.421875 128.003906 C 367.339844 133.730469 368.976562 139.53125 370.328125 145.417969 C 371.683594 151.300781 372.753906 157.234375 373.53125 163.21875 C 374.3125 169.207031 374.800781 175.214844 375 181.25 Z M 193.808594 1.605469 C 213.675781 4.792969 232.472656 23.105469 247.289062 53.980469 C 250.566406 60.855469 253.476562 67.882812 256.023438 75.0625 C 246.101562 78.980469 235.917969 82.023438 225.472656 84.191406 C 215.027344 86.359375 204.472656 87.621094 193.808594 87.976562 Z M 258.554688 48.574219 C 261.90625 55.589844 264.890625 62.757812 267.511719 70.082031 C 282.171875 63.125 295.691406 54.398438 308.070312 43.902344 C 302.191406 38.949219 296.03125 34.378906 289.589844 30.1875 C 283.148438 25.996094 276.476562 22.21875 269.570312 18.847656 C 262.664062 15.480469 255.574219 12.546875 248.304688 10.054688 C 241.039062 7.558594 233.644531 5.519531 226.125 3.933594 C 238.230469 14.101562 249.234375 29.140625 258.558594 48.574219 Z M 267.511719 304.921875 C 282.171875 311.878906 295.691406 320.605469 308.070312 331.101562 C 302.191406 336.050781 296.03125 340.625 289.59375 344.8125 C 283.152344 349.003906 276.476562 352.785156 269.570312 356.152344 C 262.664062 359.523438 255.574219 362.453125 248.304688 364.949219 C 241.039062 367.445312 233.644531 369.484375 226.125 371.066406 C 238.230469 360.898438 249.234375 345.863281 258.558594 326.429688 C 261.910156 319.410156 264.894531 312.242188 267.511719 304.921875 Z M 247.289062 321.019531 C 250.566406 314.144531 253.476562 307.113281 256.023438 299.933594 C 246.101562 296.015625 235.917969 292.972656 225.472656 290.808594 C 215.027344 288.640625 204.472656 287.378906 193.808594 287.023438 L 193.808594 373.398438 C 213.675781 370.207031 232.46875 351.898438 247.289062 321.019531 Z M 193.808594 274.511719 L 193.808594 193.753906 L 273.695312 193.753906 C 273.171875 227.664062 268.410156 259.976562 259.933594 288.03125 C 249.378906 283.914062 238.550781 280.71875 227.449219 278.449219 C 216.347656 276.179688 205.132812 274.867188 193.808594 274.511719 Z M 193.808594 181.25 L 273.695312 181.25 C 273.171875 147.335938 268.410156 115.023438 259.933594 86.96875 C 249.375 91.085938 238.546875 94.28125 227.449219 96.550781 C 216.347656 98.820312 205.132812 100.132812 193.808594 100.488281 Z M 0 187.5 C 0 86.171875 80.765625 3.363281 181.304688 0.0585938 L 181.304688 374.941406 C 80.765625 371.636719 0 288.828125 0 187.5 Z M 317.453125 322.675781 C 321.808594 318.5 325.957031 314.121094 329.894531 309.542969 C 333.828125 304.96875 337.535156 300.210938 341.007812 295.273438 C 344.484375 290.335938 347.710938 285.246094 350.691406 279.996094 C 353.675781 274.746094 356.394531 269.367188 358.855469 263.851562 C 361.316406 258.339844 363.507812 252.722656 365.421875 246.996094 C 367.339844 241.273438 368.976562 235.46875 370.328125 229.585938 C 371.683594 223.703125 372.753906 217.769531 373.53125 211.78125 C 374.3125 205.796875 374.800781 199.785156 375 193.753906 L 286.199219 193.753906 C 285.667969 229.382812 280.574219 263.421875 271.488281 292.972656 C 288.1875 300.742188 303.507812 310.644531 317.453125 322.675781 Z M 128.585938 168.472656 L 128.585938 157.539062 C 128.589844 156.292969 128.535156 155.050781 128.417969 153.808594 C 128.300781 152.570312 128.125 151.335938 127.886719 150.113281 C 127.648438 148.890625 127.347656 147.683594 126.992188 146.488281 C 126.632812 145.296875 126.21875 144.125 125.746094 142.972656 C 125.273438 141.820312 124.746094 140.691406 124.160156 139.589844 C 123.578125 138.492188 122.941406 137.421875 122.25 136.382812 C 121.5625 135.347656 120.824219 134.34375 120.035156 133.378906 C 119.246094 132.414062 118.414062 131.492188 117.535156 130.609375 C 116.65625 129.726562 115.734375 128.886719 114.773438 128.09375 C 113.8125 127.304688 112.8125 126.558594 111.777344 125.867188 C 110.746094 125.171875 109.679688 124.53125 108.578125 123.941406 C 107.480469 123.351562 106.359375 122.820312 105.207031 122.339844 C 104.058594 121.863281 102.886719 121.441406 101.695312 121.082031 C 100.5 120.71875 99.296875 120.414062 98.074219 120.171875 C 96.851562 119.925781 95.621094 119.746094 94.378906 119.621094 C 93.140625 119.5 91.898438 119.4375 90.652344 119.4375 C 89.40625 119.4375 88.164062 119.5 86.921875 119.621094 C 85.683594 119.746094 84.453125 119.925781 83.230469 120.171875 C 82.007812 120.414062 80.800781 120.71875 79.609375 121.082031 C 78.417969 121.441406 77.246094 121.863281 76.097656 122.339844 C 74.945312 122.820312 73.824219 123.351562 72.722656 123.941406 C 71.625 124.53125 70.558594 125.171875 69.523438 125.867188 C 68.492188 126.558594 67.492188 127.304688 66.53125 128.09375 C 65.570312 128.886719 64.648438 129.726562 63.769531 130.609375 C 62.890625 131.492188 62.058594 132.414062 61.269531 133.378906 C 60.480469 134.34375 59.742188 135.347656 59.054688 136.382812 C 58.363281 137.421875 57.726562 138.492188 57.144531 139.589844 C 56.558594 140.691406 56.03125 141.820312 55.558594 142.972656 C 55.085938 144.125 54.671875 145.296875 54.3125 146.488281 C 53.957031 147.683594 53.65625 148.890625 53.417969 150.113281 C 53.179688 151.335938 53.003906 152.570312 52.886719 153.808594 C 52.769531 155.050781 52.714844 156.292969 52.71875 157.539062 L 52.71875 168.472656 C 51.851562 168.808594 51.011719 169.210938 50.203125 169.671875 C 49.394531 170.136719 48.625 170.660156 47.890625 171.238281 C 47.160156 171.816406 46.480469 172.449219 45.84375 173.128906 C 45.207031 173.8125 44.625 174.539062 44.097656 175.308594 C 43.570312 176.078125 43.105469 176.882812 42.699219 177.71875 C 42.292969 178.558594 41.953125 179.425781 41.675781 180.316406 C 41.398438 181.207031 41.191406 182.113281 41.050781 183.035156 C 40.910156 183.957031 40.839844 184.882812 40.839844 185.816406 L 40.839844 236.792969 C 40.839844 237.402344 40.867188 238.007812 40.929688 238.617188 C 40.988281 239.222656 41.078125 239.824219 41.199219 240.421875 C 41.316406 241.019531 41.464844 241.609375 41.644531 242.191406 C 41.820312 242.777344 42.023438 243.347656 42.257812 243.910156 C 42.492188 244.476562 42.753906 245.023438 43.039062 245.5625 C 43.328125 246.101562 43.640625 246.621094 43.980469 247.128906 C 44.316406 247.636719 44.679688 248.125 45.066406 248.59375 C 45.453125 249.066406 45.863281 249.515625 46.292969 249.949219 C 46.722656 250.378906 47.175781 250.789062 47.644531 251.175781 C 48.117188 251.5625 48.605469 251.925781 49.113281 252.261719 C 49.617188 252.601562 50.140625 252.914062 50.675781 253.203125 C 51.214844 253.492188 51.765625 253.75 52.328125 253.984375 C 52.890625 254.21875 53.464844 254.421875 54.046875 254.601562 C 54.628906 254.777344 55.21875 254.925781 55.816406 255.046875 C 56.414062 255.164062 57.015625 255.253906 57.625 255.316406 C 58.230469 255.375 58.835938 255.40625 59.445312 255.40625 L 121.859375 255.40625 C 122.46875 255.40625 123.074219 255.375 123.679688 255.316406 C 124.289062 255.253906 124.890625 255.164062 125.488281 255.046875 C 126.085938 254.925781 126.675781 254.777344 127.257812 254.601562 C 127.839844 254.421875 128.414062 254.21875 128.976562 253.984375 C 129.539062 253.75 130.089844 253.488281 130.625 253.203125 C 131.164062 252.914062 131.683594 252.601562 132.191406 252.261719 C 132.699219 251.921875 133.1875 251.558594 133.65625 251.171875 C 134.128906 250.785156 134.578125 250.378906 135.007812 249.945312 C 135.441406 249.515625 135.847656 249.066406 136.234375 248.59375 C 136.621094 248.121094 136.984375 247.632812 137.324219 247.128906 C 137.660156 246.621094 137.972656 246.097656 138.261719 245.5625 C 138.546875 245.023438 138.808594 244.472656 139.042969 243.910156 C 139.277344 243.347656 139.480469 242.773438 139.65625 242.191406 C 139.835938 241.609375 139.984375 241.019531 140.101562 240.421875 C 140.222656 239.824219 140.3125 239.222656 140.371094 238.617188 C 140.429688 238.007812 140.460938 237.402344 140.460938 236.792969 L 140.460938 185.816406 C 140.460938 184.882812 140.390625 183.957031 140.25 183.035156 C 140.109375 182.113281 139.902344 181.207031 139.625 180.316406 C 139.347656 179.425781 139.007812 178.5625 138.601562 177.722656 C 138.195312 176.882812 137.730469 176.078125 137.203125 175.308594 C 136.675781 174.539062 136.09375 173.8125 135.460938 173.132812 C 134.824219 172.449219 134.140625 171.820312 133.410156 171.238281 C 132.679688 170.660156 131.910156 170.140625 131.101562 169.675781 C 130.292969 169.210938 129.453125 168.8125 128.585938 168.472656 Z M 90.652344 132.101562 C 89.820312 132.101562 88.988281 132.144531 88.160156 132.226562 C 87.332031 132.308594 86.507812 132.429688 85.691406 132.59375 C 84.875 132.757812 84.070312 132.960938 83.273438 133.203125 C 82.476562 133.445312 81.691406 133.726562 80.921875 134.046875 C 80.15625 134.363281 79.402344 134.71875 78.667969 135.113281 C 77.933594 135.507812 77.222656 135.933594 76.527344 136.398438 C 75.835938 136.859375 75.167969 137.355469 74.523438 137.882812 C 73.882812 138.414062 73.265625 138.972656 72.675781 139.558594 C 72.089844 140.148438 71.53125 140.765625 71 141.410156 C 70.472656 142.054688 69.976562 142.722656 69.515625 143.414062 C 69.050781 144.105469 68.625 144.820312 68.230469 145.554688 C 67.839844 146.289062 67.484375 147.039062 67.164062 147.808594 C 66.84375 148.578125 66.566406 149.363281 66.324219 150.160156 C 66.082031 150.957031 65.878906 151.761719 65.714844 152.578125 C 65.550781 153.394531 65.429688 154.21875 65.347656 155.046875 C 65.265625 155.875 65.222656 156.707031 65.222656 157.539062 L 65.222656 167.207031 L 116.082031 167.207031 L 116.082031 157.539062 C 116.082031 156.707031 116.039062 155.875 115.957031 155.046875 C 115.875 154.21875 115.753906 153.394531 115.589844 152.578125 C 115.425781 151.761719 115.222656 150.957031 114.980469 150.160156 C 114.738281 149.363281 114.457031 148.578125 114.140625 147.808594 C 113.820312 147.039062 113.464844 146.289062 113.070312 145.554688 C 112.679688 144.820312 112.25 144.105469 111.789062 143.414062 C 111.328125 142.722656 110.832031 142.054688 110.300781 141.410156 C 109.773438 140.765625 109.214844 140.152344 108.628906 139.5625 C 108.039062 138.972656 107.421875 138.414062 106.777344 137.886719 C 106.136719 137.355469 105.46875 136.863281 104.773438 136.398438 C 104.082031 135.9375 103.371094 135.507812 102.636719 135.113281 C 101.902344 134.722656 101.148438 134.367188 100.378906 134.046875 C 99.613281 133.726562 98.828125 133.445312 98.03125 133.203125 C 97.234375 132.960938 96.429688 132.757812 95.613281 132.59375 C 94.796875 132.433594 93.972656 132.308594 93.144531 132.226562 C 92.316406 132.144531 91.484375 132.101562 90.652344 132.101562 Z M 127.960938 236.792969 L 127.960938 185.816406 C 127.957031 185.414062 127.917969 185.019531 127.839844 184.625 C 127.761719 184.234375 127.648438 183.851562 127.492188 183.480469 C 127.339844 183.113281 127.152344 182.761719 126.929688 182.425781 C 126.707031 182.09375 126.453125 181.785156 126.171875 181.503906 C 125.886719 181.21875 125.578125 180.964844 125.246094 180.742188 C 124.914062 180.519531 124.5625 180.332031 124.191406 180.179688 C 123.820312 180.027344 123.441406 179.910156 123.046875 179.832031 C 122.65625 179.753906 122.257812 179.710938 121.859375 179.710938 L 59.445312 179.710938 C 59.046875 179.710938 58.648438 179.753906 58.257812 179.832031 C 57.863281 179.910156 57.484375 180.023438 57.113281 180.179688 C 56.742188 180.332031 56.390625 180.519531 56.058594 180.742188 C 55.726562 180.964844 55.417969 181.21875 55.132812 181.503906 C 54.851562 181.785156 54.597656 182.09375 54.375 182.425781 C 54.152344 182.757812 53.964844 183.109375 53.808594 183.480469 C 53.65625 183.851562 53.539062 184.230469 53.460938 184.625 C 53.382812 185.019531 53.34375 185.414062 53.34375 185.816406 L 53.34375 236.792969 C 53.34375 237.191406 53.382812 237.589844 53.460938 237.984375 C 53.539062 238.375 53.652344 238.757812 53.808594 239.128906 C 53.960938 239.5 54.148438 239.851562 54.371094 240.183594 C 54.59375 240.519531 54.847656 240.828125 55.128906 241.109375 C 55.414062 241.394531 55.722656 241.648438 56.054688 241.871094 C 56.390625 242.09375 56.742188 242.28125 57.109375 242.433594 C 57.480469 242.589844 57.863281 242.707031 58.257812 242.785156 C 58.648438 242.863281 59.046875 242.902344 59.445312 242.902344 L 121.859375 242.902344 C 122.257812 242.902344 122.65625 242.863281 123.050781 242.785156 C 123.441406 242.707031 123.824219 242.589844 124.195312 242.433594 C 124.5625 242.28125 124.914062 242.09375 125.25 241.871094 C 125.582031 241.648438 125.890625 241.394531 126.171875 241.109375 C 126.457031 240.828125 126.710938 240.519531 126.933594 240.183594 C 127.152344 239.851562 127.34375 239.5 127.496094 239.128906 C 127.648438 238.757812 127.765625 238.375 127.84375 237.984375 C 127.921875 237.589844 127.960938 237.191406 127.960938 236.792969 Z M 90.652344 189.566406 C 89.859375 189.5625 89.070312 189.628906 88.285156 189.761719 C 87.5 189.894531 86.734375 190.089844 85.984375 190.351562 C 85.230469 190.609375 84.507812 190.933594 83.8125 191.316406 C 83.113281 191.699219 82.457031 192.136719 81.832031 192.628906 C 81.210938 193.125 80.632812 193.667969 80.101562 194.257812 C 79.570312 194.847656 79.089844 195.480469 78.667969 196.152344 C 78.242188 196.824219 77.875 197.523438 77.566406 198.257812 C 77.261719 198.992188 77.015625 199.746094 76.835938 200.519531 C 76.65625 201.292969 76.542969 202.078125 76.496094 202.871094 C 76.445312 203.664062 76.464844 204.457031 76.550781 205.246094 C 76.636719 206.035156 76.785156 206.8125 77.003906 207.578125 C 77.21875 208.34375 77.496094 209.085938 77.839844 209.800781 C 78.179688 210.519531 78.578125 211.207031 79.035156 211.855469 C 79.492188 212.507812 79.996094 213.113281 80.554688 213.679688 C 81.113281 214.246094 81.71875 214.761719 82.363281 215.226562 C 83.007812 215.6875 83.6875 216.09375 84.402344 216.445312 L 84.402344 226.800781 C 84.402344 227.210938 84.441406 227.617188 84.519531 228.019531 C 84.601562 228.421875 84.71875 228.8125 84.875 229.191406 C 85.035156 229.570312 85.226562 229.933594 85.453125 230.273438 C 85.683594 230.613281 85.941406 230.929688 86.230469 231.222656 C 86.523438 231.511719 86.835938 231.769531 87.179688 232 C 87.519531 232.226562 87.878906 232.417969 88.261719 232.578125 C 88.640625 232.734375 89.03125 232.851562 89.433594 232.933594 C 89.835938 233.011719 90.242188 233.050781 90.652344 233.050781 C 91.0625 233.050781 91.46875 233.011719 91.871094 232.933594 C 92.273438 232.851562 92.664062 232.734375 93.046875 232.578125 C 93.425781 232.417969 93.785156 232.226562 94.125 232 C 94.46875 231.769531 94.78125 231.511719 95.074219 231.222656 C 95.363281 230.929688 95.621094 230.613281 95.851562 230.273438 C 96.078125 229.933594 96.273438 229.570312 96.429688 229.191406 C 96.585938 228.8125 96.703125 228.421875 96.785156 228.019531 C 96.863281 227.617188 96.90625 227.210938 96.90625 226.800781 L 96.90625 216.441406 C 97.617188 216.089844 98.296875 215.683594 98.941406 215.21875 C 99.585938 214.753906 100.1875 214.242188 100.746094 213.675781 C 101.304688 213.109375 101.8125 212.5 102.269531 211.851562 C 102.726562 211.199219 103.125 210.515625 103.464844 209.796875 C 103.804688 209.078125 104.085938 208.339844 104.300781 207.574219 C 104.515625 206.808594 104.667969 206.03125 104.75 205.242188 C 104.835938 204.453125 104.855469 203.660156 104.808594 202.867188 C 104.757812 202.074219 104.644531 201.289062 104.464844 200.515625 C 104.285156 199.742188 104.042969 198.988281 103.734375 198.253906 C 103.429688 197.523438 103.0625 196.820312 102.636719 196.148438 C 102.210938 195.476562 101.734375 194.84375 101.203125 194.253906 C 100.671875 193.664062 100.09375 193.121094 99.472656 192.628906 C 98.847656 192.132812 98.1875 191.695312 97.492188 191.3125 C 96.796875 190.929688 96.074219 190.609375 95.320312 190.347656 C 94.570312 190.085938 93.804688 189.890625 93.019531 189.757812 C 92.238281 189.625 91.449219 189.558594 90.652344 189.5625 Z M 90.652344 202.070312 C 90.429688 202.070312 90.21875 202.113281 90.015625 202.199219 C 89.808594 202.285156 89.628906 202.40625 89.472656 202.5625 C 89.316406 202.71875 89.199219 202.898438 89.113281 203.105469 C 89.027344 203.308594 88.988281 203.523438 88.988281 203.742188 C 88.988281 203.964844 89.03125 204.175781 89.117188 204.382812 C 89.203125 204.585938 89.324219 204.765625 89.480469 204.921875 C 89.636719 205.078125 89.816406 205.199219 90.023438 205.28125 C 90.226562 205.367188 90.441406 205.410156 90.660156 205.40625 C 90.882812 205.40625 91.09375 205.363281 91.300781 205.277344 C 91.503906 205.195312 91.683594 205.074219 91.839844 204.914062 C 91.996094 204.757812 92.117188 204.578125 92.199219 204.375 C 92.285156 204.167969 92.328125 203.957031 92.328125 203.734375 C 92.324219 203.515625 92.277344 203.300781 92.191406 203.097656 C 92.105469 202.894531 91.984375 202.71875 91.828125 202.5625 C 91.671875 202.40625 91.492188 202.285156 91.289062 202.199219 C 91.085938 202.113281 90.875 202.070312 90.652344 202.066406 Z M 90.652344 202.070312 " clip-rule="evenodd"/></clipPath><linearGradient x1="256" gradientTransform="matrix(0.732422, 0, 0, 0.732422, 0.0000045, 0)" y1="511.922003" x2="256" gradientUnits="userSpaceOnUse" y2="0.0780334" id="de6d2f530e"><stop stop-opacity="1" stop-color="rgb(0%, 47.799683%, 71.398926%)" offset="0"/><stop stop-opacity="1" stop-color="rgb(0%, 47.903442%, 71.554565%)" offset="0.015625"/><stop stop-opacity="1" stop-color="rgb(0%, 48.112488%, 71.867371%)" offset="0.03125"/><stop stop-opacity="1" stop-color="rgb(0%, 48.321533%, 72.180176%)" offset="0.046875"/><stop stop-opacity="1" stop-color="rgb(0%, 48.532104%, 72.492981%)" offset="0.0625"/><stop stop-opacity="1" stop-color="rgb(0%, 48.74115%, 72.80426%)" offset="0.078125"/><stop stop-opacity="1" stop-color="rgb(0%, 48.950195%, 73.117065%)" offset="0.09375"/><stop stop-opacity="1" stop-color="rgb(0%, 49.159241%, 73.429871%)" offset="0.109375"/><stop stop-opacity="1" stop-color="rgb(0%, 49.368286%, 73.742676%)" offset="0.125"/><stop stop-opacity="1" stop-color="rgb(0%, 49.578857%, 74.055481%)" offset="0.140625"/><stop stop-opacity="1" stop-color="rgb(0%, 49.787903%, 74.36676%)" offset="0.15625"/><stop stop-opacity="1" stop-color="rgb(0%, 49.996948%, 74.679565%)" offset="0.171875"/><stop stop-opacity="1" stop-color="rgb(0%, 50.205994%, 74.992371%)" offset="0.1875"/><stop stop-opacity="1" stop-color="rgb(0%, 50.416565%, 75.305176%)" offset="0.203125"/><stop stop-opacity="1" stop-color="rgb(0%, 50.62561%, 75.617981%)" offset="0.21875"/><stop stop-opacity="1" stop-color="rgb(0%, 50.834656%, 75.92926%)" offset="0.234375"/><stop stop-opacity="1" stop-color="rgb(0%, 51.043701%, 76.242065%)" offset="0.25"/><stop stop-opacity="1" stop-color="rgb(0%, 51.252747%, 76.554871%)" offset="0.265625"/><stop stop-opacity="1" stop-color="rgb(0%, 51.463318%, 76.867676%)" offset="0.28125"/><stop stop-opacity="1" stop-color="rgb(0%, 51.672363%, 77.180481%)" offset="0.296875"/><stop stop-opacity="1" stop-color="rgb(0%, 51.881409%, 77.49176%)" offset="0.3125"/><stop stop-opacity="1" stop-color="rgb(0%, 52.090454%, 77.804565%)" offset="0.328125"/><stop stop-opacity="1" stop-color="rgb(0%, 52.2995%, 78.117371%)" offset="0.34375"/><stop stop-opacity="1" stop-color="rgb(0%, 52.510071%, 78.430176%)" offset="0.359375"/><stop stop-opacity="1" stop-color="rgb(0%, 52.719116%, 78.742981%)" offset="0.375"/><stop stop-opacity="1" stop-color="rgb(0%, 52.928162%, 79.05426%)" offset="0.390625"/><stop stop-opacity="1" stop-color="rgb(0%, 53.137207%, 79.367065%)" offset="0.40625"/><stop stop-opacity="1" stop-color="rgb(0%, 53.347778%, 79.679871%)" offset="0.421875"/><stop stop-opacity="1" stop-color="rgb(0%, 53.556824%, 79.992676%)" offset="0.4375"/><stop stop-opacity="1" stop-color="rgb(0%, 53.765869%, 80.305481%)" offset="0.453125"/><stop stop-opacity="1" stop-color="rgb(0%, 53.974915%, 80.61676%)" offset="0.46875"/><stop stop-opacity="1" stop-color="rgb(0%, 54.18396%, 80.929565%)" offset="0.484375"/><stop stop-opacity="1" stop-color="rgb(0%, 54.394531%, 81.242371%)" offset="0.5"/><stop stop-opacity="1" stop-color="rgb(0%, 54.603577%, 81.555176%)" offset="0.515625"/><stop stop-opacity="1" stop-color="rgb(0%, 54.812622%, 81.867981%)" offset="0.53125"/><stop stop-opacity="1" stop-color="rgb(0%, 55.021667%, 82.17926%)" offset="0.546875"/><stop stop-opacity="1" stop-color="rgb(0%, 55.230713%, 82.492065%)" offset="0.5625"/><stop stop-opacity="1" stop-color="rgb(0%, 55.441284%, 82.804871%)" offset="0.578125"/><stop stop-opacity="1" stop-color="rgb(0%, 55.65033%, 83.117676%)" offset="0.59375"/><stop stop-opacity="1" stop-color="rgb(0%, 55.859375%, 83.430481%)" offset="0.609375"/><stop stop-opacity="1" stop-color="rgb(0%, 56.06842%, 83.74176%)" offset="0.625"/><stop stop-opacity="1" stop-color="rgb(0%, 56.278992%, 84.054565%)" offset="0.640625"/><stop stop-opacity="1" stop-color="rgb(0%, 56.488037%, 84.367371%)" offset="0.65625"/><stop stop-opacity="1" stop-color="rgb(0%, 56.697083%, 84.680176%)" offset="0.671875"/><stop stop-opacity="1" stop-color="rgb(0%, 56.906128%, 84.992981%)" offset="0.6875"/><stop stop-opacity="1" stop-color="rgb(0%, 57.115173%, 85.30426%)" offset="0.703125"/><stop stop-opacity="1" stop-color="rgb(0%, 57.325745%, 85.617065%)" offset="0.71875"/><stop stop-opacity="1" stop-color="rgb(0%, 57.53479%, 85.929871%)" offset="0.734375"/><stop stop-opacity="1" stop-color="rgb(0%, 57.743835%, 86.242676%)" offset="0.75"/><stop stop-opacity="1" stop-color="rgb(0%, 57.952881%, 86.555481%)" offset="0.765625"/><stop stop-opacity="1" stop-color="rgb(0%, 58.163452%, 86.86676%)" offset="0.78125"/><stop stop-opacity="1" stop-color="rgb(0%, 58.372498%, 87.179565%)" offset="0.796875"/><stop stop-opacity="1" stop-color="rgb(0%, 58.581543%, 87.492371%)" offset="0.8125"/><stop stop-opacity="1" stop-color="rgb(0%, 58.790588%, 87.805176%)" offset="0.828125"/><stop stop-opacity="1" stop-color="rgb(0%, 58.999634%, 88.117981%)" offset="0.84375"/><stop stop-opacity="1" stop-color="rgb(0%, 59.210205%, 88.42926%)" offset="0.859375"/><stop stop-opacity="1" stop-color="rgb(0%, 59.41925%, 88.742065%)" offset="0.875"/><stop stop-opacity="1" stop-color="rgb(0%, 59.628296%, 89.054871%)" offset="0.890625"/><stop stop-opacity="1" stop-color="rgb(0%, 59.837341%, 89.367676%)" offset="0.90625"/><stop stop-opacity="1" stop-color="rgb(0%, 60.046387%, 89.680481%)" offset="0.921875"/><stop stop-opacity="1" stop-color="rgb(0%, 60.256958%, 89.99176%)" offset="0.9375"/><stop stop-opacity="1" stop-color="rgb(0%, 60.466003%, 90.304565%)" offset="0.953125"/><stop stop-opacity="1" stop-color="rgb(0%, 60.675049%, 90.617371%)" offset="0.96875"/><stop stop-opacity="1" stop-color="rgb(0%, 60.884094%, 90.930176%)" offset="0.984375"/><stop stop-opacity="1" stop-color="rgb(0%, 61.094666%, 91.242981%)" offset="1"/></linearGradient></defs><g clip-path="url(#21d3dfdb37)"><path fill="url(#de6d2f530e)" d="M 0 0.0585938 L 0 374.941406 L 375 374.941406 L 375 0.0585938 Z M 0 0.0585938 " fill-rule="nonzero"/></g></svg>