<svg xmlns="http://www.w3.org/2000/svg" viewBox="0 0 50 50"><defs><style>.cls-1,.cls-2,.cls-3{fill:#0c5adb;}.cls-1{opacity:0.2;}.cls-2{stroke:#fff;stroke-miterlimit:10;}</style></defs><g id="Layer_1" data-name="Layer 1"><rect class="cls-1" width="50" height="50"/></g><g id="Layer_2" data-name="Layer 2"><path class="cls-2" d="M16.78,25.42,33.34,8.86Z" transform="translate(0 0)"/><path class="cls-2" d="M16.88,24.8,33.39,41.31Z" transform="translate(0 0)"/></g><g id="Layer_3" data-name="Layer 3"><polygon class="cls-3" points="13.01 0 13.01 2.01 2.01 2.01 2.01 12.47 0 12.47 0 0 13.01 0"/><polygon class="cls-3" points="36.99 50 36.99 47.99 47.99 47.99 47.99 37.53 50 37.53 50 50 36.99 50"/><polygon class="cls-3" points="36.99 0 36.99 2.01 47.99 2.01 47.99 12.47 50 12.47 50 0 36.99 0"/><polygon class="cls-3" points="13.01 50 13.01 47.99 2.01 47.99 2.01 37.53 0 37.53 0 50 13.01 50"/></g></svg>