<svg id="Layer_1" data-name="Layer 1" xmlns="http://www.w3.org/2000/svg" viewBox="0 0 228.22 124.18"><defs><style>.cls-1{fill:#41bbf9;}.cls-2{fill:#3960ad;}.cls-3{fill:#22a3f2;}.cls-4{fill:#228cc6;}.cls-5{fill:#c9c9c9;}</style></defs><rect class="cls-1" x="43.59" y="93.26" width="57.31" height="22.43"/><path class="cls-2" d="M101.4,116.19H43.09V92.76H101.4Zm-57.31-1H100.4V93.76H44.09Z"/><rect class="cls-3" x="107.2" y="57.29" width="57.31" height="58.41"/><path class="cls-2" d="M165,116.19H106.7V56.79H165Zm-57.32-1H164V57.79H107.7Z"/><rect class="cls-4" x="170.41" y="8.78" width="57.31" height="106.91"/><path class="cls-2" d="M228.22,116.2H169.91V8.28h58.31Zm-57.31-1h56.31V9.28H170.91Z"/><path class="cls-5" d="M68.39,123.29v.83h-3v-.54L66.66,122a3.27,3.27,0,0,0,.4-.61,1.13,1.13,0,0,0,.12-.48.52.52,0,0,0-.19-.45,1.1,1.1,0,0,0-.64-.15,3.15,3.15,0,0,0-1,.18v-.82a2.8,2.8,0,0,1,.53-.12,4.15,4.15,0,0,1,.59,0,2.2,2.2,0,0,1,1.3.32,1.18,1.18,0,0,1,.43,1,1.91,1.91,0,0,1-.15.7,3.41,3.41,0,0,1-.51.78l-.81,1Z"/><path class="cls-5" d="M71,123.21a.91.91,0,0,0,.26-.47,4.5,4.5,0,0,0,0-1.79.91.91,0,0,0-.26-.47.64.64,0,0,0-.43-.14.65.65,0,0,0-.44.14.91.91,0,0,0-.26.47,4.5,4.5,0,0,0,0,1.79.91.91,0,0,0,.26.47.65.65,0,0,0,.44.15.64.64,0,0,0,.43-.15m-1.75.39a3.58,3.58,0,0,1,0-3.51,1.61,1.61,0,0,1,1.32-.57,1.59,1.59,0,0,1,1.31.57,2.76,2.76,0,0,1,.46,1.76,2.73,2.73,0,0,1-.46,1.75,1.78,1.78,0,0,1-2.63,0"/><polygon class="cls-5" points="74.09 119.56 72.7 120.52 72.7 121.46 73.74 120.74 73.74 124.12 74.75 124.12 74.75 119.56 74.09 119.56"/><path class="cls-5" d="M76.46,121.42a.82.82,0,0,0,.55.17,1.32,1.32,0,0,0,.39-.06,1.39,1.39,0,0,0,.35-.16,2,2,0,0,0-.12-.68.71.71,0,0,0-.27-.35.82.82,0,0,0-.42-.11.62.62,0,0,0-.68.68.63.63,0,0,0,.2.51m1.8-1.37a2.44,2.44,0,0,1,.47,1.65,2.64,2.64,0,0,1-.57,1.85,2.08,2.08,0,0,1-1.64.62,2.7,2.7,0,0,1-.93-.13v-.77a2.43,2.43,0,0,0,.88.14,1.26,1.26,0,0,0,1-.33,1.51,1.51,0,0,0,.33-1,1.69,1.69,0,0,1-.43.19,2.24,2.24,0,0,1-.51.07,1.81,1.81,0,0,1-.76-.15,1.13,1.13,0,0,1-.51-.46,1.47,1.47,0,0,1-.19-.76,1.41,1.41,0,0,1,.2-.76,1.19,1.19,0,0,1,.55-.49,1.87,1.87,0,0,1,.85-.18,1.67,1.67,0,0,1,1.31.54"/><path class="cls-5" d="M3,4.78a1.54,1.54,0,0,1-.85.48V6H1.27V5.33l-.54,0a3.33,3.33,0,0,1-.5-.12V4.34a3.34,3.34,0,0,0,.62.14,3.52,3.52,0,0,0,.62,0,1.21,1.21,0,0,0,.66-.13A.44.44,0,0,0,2.34,4a.48.48,0,0,0-.06-.24.45.45,0,0,0-.21-.16,1.55,1.55,0,0,0-.39-.14l-.35-.09A1.87,1.87,0,0,1,.42,2.9a1.2,1.2,0,0,1-.3-.84,1.19,1.19,0,0,1,.29-.84A1.55,1.55,0,0,1,1.27.75V0h.92V.68A4.11,4.11,0,0,1,3.11.8v.81a3.3,3.3,0,0,0-.49-.09,3.08,3.08,0,0,0-.51,0,1.57,1.57,0,0,0-.76.14A.43.43,0,0,0,1.12,2a.52.52,0,0,0,0,.23.57.57,0,0,0,.18.16,1.88,1.88,0,0,0,.35.13l.35.08A2,2,0,0,1,3,3.1a1.13,1.13,0,0,1,.31.84,1.2,1.2,0,0,1-.3.84"/><path class="cls-5" d="M6.11,4.45a.66.66,0,0,0,.18-.51.63.63,0,0,0-.19-.51.84.84,0,0,0-.55-.16,1.31,1.31,0,0,0-.39,0,1,1,0,0,0-.35.17,1.91,1.91,0,0,0,.12.67.67.67,0,0,0,.27.35.79.79,0,0,0,.42.11.71.71,0,0,0,.49-.17M6.5,2.69A1.16,1.16,0,0,1,7,3.15a1.49,1.49,0,0,1,.18.77A1.45,1.45,0,0,1,7,4.68a1.31,1.31,0,0,1-.55.49,2,2,0,0,1-.85.17A1.65,1.65,0,0,1,4.3,4.8a2.43,2.43,0,0,1-.47-1.64A2.65,2.65,0,0,1,4.4,1.3,2.07,2.07,0,0,1,6,.68,2.53,2.53,0,0,1,7,.82v.76a2.71,2.71,0,0,0-.88-.14,1.26,1.26,0,0,0-1,.33,1.51,1.51,0,0,0-.33,1,1.55,1.55,0,0,1,.43-.19,2.1,2.1,0,0,1,.51-.06,1.93,1.93,0,0,1,.75.14"/><path class="cls-5" d="M9.87,4.38a1,1,0,0,0,.26-.48A3.48,3.48,0,0,0,10.22,3a3.62,3.62,0,0,0-.09-.9.91.91,0,0,0-.26-.47.69.69,0,0,0-.43-.14A.7.7,0,0,0,9,1.64a.91.91,0,0,0-.26.47,3.56,3.56,0,0,0-.09.9,3.53,3.53,0,0,0,.09.89A1,1,0,0,0,9,4.38a.7.7,0,0,0,.44.14.69.69,0,0,0,.43-.14m-1.75.38A2.73,2.73,0,0,1,7.66,3a2.76,2.76,0,0,1,.46-1.76A1.61,1.61,0,0,1,9.44.68a1.59,1.59,0,0,1,1.31.57A2.76,2.76,0,0,1,11.21,3a2.73,2.73,0,0,1-.46,1.75,1.58,1.58,0,0,1-1.31.58,1.59,1.59,0,0,1-1.32-.58"/><path class="cls-5" d="M14,4.38a1,1,0,0,0,.26-.48A3.48,3.48,0,0,0,14.35,3a3.62,3.62,0,0,0-.09-.9A.91.91,0,0,0,14,1.64a.69.69,0,0,0-.43-.14.7.7,0,0,0-.44.14.91.91,0,0,0-.26.47,3.56,3.56,0,0,0-.09.9,3.53,3.53,0,0,0,.09.89,1,1,0,0,0,.26.48.7.7,0,0,0,.44.14A.69.69,0,0,0,14,4.38m-1.75.38A2.73,2.73,0,0,1,11.79,3a2.76,2.76,0,0,1,.46-1.76A1.61,1.61,0,0,1,13.57.68a1.59,1.59,0,0,1,1.31.57A2.76,2.76,0,0,1,15.34,3a2.73,2.73,0,0,1-.46,1.75,1.58,1.58,0,0,1-1.31.58,1.59,1.59,0,0,1-1.32-.58"/><path class="cls-5" d="M16.76,4.34a.86.86,0,0,1,.17.57,2.46,2.46,0,0,1-.13.75,2.7,2.7,0,0,1-.36.67h-.56a4.89,4.89,0,0,0,.21-.54,1.59,1.59,0,0,0,.1-.46.58.58,0,0,1-.39-.19.57.57,0,0,1-.15-.4.59.59,0,0,1,.17-.44.61.61,0,0,1,.46-.16.6.6,0,0,1,.48.2"/><path class="cls-5" d="M19.45,4.38a1,1,0,0,0,.26-.48A3.48,3.48,0,0,0,19.8,3a3.62,3.62,0,0,0-.09-.9.91.91,0,0,0-.26-.47A.7.7,0,0,0,19,1.5a.69.69,0,0,0-.43.14.91.91,0,0,0-.26.47,3.56,3.56,0,0,0-.09.9,3.53,3.53,0,0,0,.09.89,1,1,0,0,0,.26.48.67.67,0,0,0,.43.14.7.7,0,0,0,.44-.14m-1.75.38A2.73,2.73,0,0,1,17.24,3a2.76,2.76,0,0,1,.46-1.76A1.57,1.57,0,0,1,19,.68a1.61,1.61,0,0,1,1.32.57A2.76,2.76,0,0,1,20.79,3a2.73,2.73,0,0,1-.46,1.75A1.59,1.59,0,0,1,19,5.34a1.55,1.55,0,0,1-1.31-.58"/><path class="cls-5" d="M23.58,4.38a1,1,0,0,0,.26-.48A3.48,3.48,0,0,0,23.93,3a3.62,3.62,0,0,0-.09-.9.91.91,0,0,0-.26-.47.7.7,0,0,0-.44-.14.69.69,0,0,0-.43.14.91.91,0,0,0-.26.47,3.56,3.56,0,0,0-.09.9,3.53,3.53,0,0,0,.09.89,1,1,0,0,0,.26.48.67.67,0,0,0,.43.14.7.7,0,0,0,.44-.14m-1.75.38A2.73,2.73,0,0,1,21.37,3a2.76,2.76,0,0,1,.46-1.76A1.57,1.57,0,0,1,23.14.68a1.61,1.61,0,0,1,1.32.57A2.76,2.76,0,0,1,24.92,3a2.73,2.73,0,0,1-.46,1.75,1.59,1.59,0,0,1-1.32.58,1.55,1.55,0,0,1-1.31-.58"/><path class="cls-5" d="M27.71,4.38A1,1,0,0,0,28,3.9,3.48,3.48,0,0,0,28.06,3a3.62,3.62,0,0,0-.09-.9.91.91,0,0,0-.26-.47.7.7,0,0,0-.44-.14.69.69,0,0,0-.43.14.91.91,0,0,0-.26.47,3.56,3.56,0,0,0-.09.9,3.53,3.53,0,0,0,.09.89,1,1,0,0,0,.26.48.67.67,0,0,0,.43.14.7.7,0,0,0,.44-.14M26,4.76A2.73,2.73,0,0,1,25.5,3,2.76,2.76,0,0,1,26,1.25,1.57,1.57,0,0,1,27.27.68a1.61,1.61,0,0,1,1.32.57A2.76,2.76,0,0,1,29.05,3a2.73,2.73,0,0,1-.46,1.75,1.59,1.59,0,0,1-1.32.58A1.55,1.55,0,0,1,26,4.76"/><path class="cls-5" d="M29.53,5.17a.56.56,0,0,1-.17-.43.55.55,0,0,1,.17-.44A.65.65,0,0,1,30,4.14a.67.67,0,0,1,.47.16.6.6,0,0,1,.17.44.55.55,0,0,1-.18.43.63.63,0,0,1-.46.16.65.65,0,0,1-.47-.16"/><path class="cls-5" d="M33.15,4.38a.92.92,0,0,0,.27-.48A3.48,3.48,0,0,0,33.51,3a3.62,3.62,0,0,0-.09-.9.85.85,0,0,0-.27-.47.67.67,0,0,0-.43-.14.69.69,0,0,0-.43.14.84.84,0,0,0-.26.47,3.56,3.56,0,0,0-.09.9A3.53,3.53,0,0,0,32,3.9a.91.91,0,0,0,.26.48.73.73,0,0,0,.86,0m-1.74.38A2.73,2.73,0,0,1,30.94,3a2.76,2.76,0,0,1,.47-1.76A1.57,1.57,0,0,1,32.72.68,1.61,1.61,0,0,1,34,1.25,2.76,2.76,0,0,1,34.5,3,2.73,2.73,0,0,1,34,4.76a1.59,1.59,0,0,1-1.32.58,1.55,1.55,0,0,1-1.31-.58"/><path class="cls-5" d="M37.28,4.38a.92.92,0,0,0,.27-.48A3.48,3.48,0,0,0,37.64,3a3.62,3.62,0,0,0-.09-.9.85.85,0,0,0-.27-.47.67.67,0,0,0-.43-.14.69.69,0,0,0-.43.14.84.84,0,0,0-.26.47,3.49,3.49,0,0,0-.1.9,3.47,3.47,0,0,0,.1.89.91.91,0,0,0,.26.48.73.73,0,0,0,.86,0m-1.74.38A2.73,2.73,0,0,1,35.07,3a2.76,2.76,0,0,1,.47-1.76A1.57,1.57,0,0,1,36.85.68a1.61,1.61,0,0,1,1.32.57A2.76,2.76,0,0,1,38.63,3a2.73,2.73,0,0,1-.46,1.75,1.59,1.59,0,0,1-1.32.58,1.55,1.55,0,0,1-1.31-.58"/><path class="cls-5" d="M3.51,23.2a1.58,1.58,0,0,1-.85.48v.75H1.73v-.68l-.54-.06a3.33,3.33,0,0,1-.5-.12v-.81a3.76,3.76,0,0,0,.62.14,5,5,0,0,0,.62.05,1.28,1.28,0,0,0,.67-.13.45.45,0,0,0,.2-.4.48.48,0,0,0-.06-.24.58.58,0,0,0-.2-.17,2.56,2.56,0,0,0-.4-.14l-.34-.09a1.78,1.78,0,0,1-.92-.47,1.16,1.16,0,0,1-.3-.83,1.29,1.29,0,0,1,.29-.85,1.58,1.58,0,0,1,.86-.46v-.75h.93v.68a4.09,4.09,0,0,1,.91.12V20l-.48-.1-.51,0a1.48,1.48,0,0,0-.77.14.43.43,0,0,0-.23.38.39.39,0,0,0,.06.23.33.33,0,0,0,.17.16,1.52,1.52,0,0,0,.35.13l.35.09a2.09,2.09,0,0,1,1,.48,1.16,1.16,0,0,1,.31.84,1.29,1.29,0,0,1-.29.85"/><path class="cls-5" d="M6.41,21.15a1.25,1.25,0,0,1,.62.46,1.3,1.3,0,0,1,.19.73,1.27,1.27,0,0,1-.47,1.06,2.29,2.29,0,0,1-1.37.35,4.27,4.27,0,0,1-1.19-.16v-.75a4.06,4.06,0,0,0,.57.12,4,4,0,0,0,.58,0,1.22,1.22,0,0,0,.71-.16.53.53,0,0,0,.22-.48A.56.56,0,0,0,6.15,22a.75.75,0,0,0-.41-.21,3.69,3.69,0,0,0-.82-.11l-.59,0,.16-2.49H7v.77H5.39l-.08,1a3.43,3.43,0,0,1,1.1.2"/><path class="cls-5" d="M9.87,22.79a.91.91,0,0,0,.26-.47,4.5,4.5,0,0,0,0-1.79.91.91,0,0,0-.26-.47.64.64,0,0,0-.43-.15.65.65,0,0,0-.44.15.91.91,0,0,0-.26.47,4.5,4.5,0,0,0,0,1.79.91.91,0,0,0,.26.47.65.65,0,0,0,.44.14.64.64,0,0,0,.43-.14m-1.75.39a2.76,2.76,0,0,1-.46-1.76,2.73,2.73,0,0,1,.46-1.75,1.61,1.61,0,0,1,1.32-.58,1.59,1.59,0,0,1,1.31.58,2.73,2.73,0,0,1,.46,1.75,2.76,2.76,0,0,1-.46,1.76,1.6,1.6,0,0,1-1.31.57,1.61,1.61,0,0,1-1.32-.57"/><path class="cls-5" d="M14,22.79a.91.91,0,0,0,.26-.47,4.5,4.5,0,0,0,0-1.79.91.91,0,0,0-.26-.47.64.64,0,0,0-.43-.15.65.65,0,0,0-.44.15.91.91,0,0,0-.26.47,4.5,4.5,0,0,0,0,1.79.91.91,0,0,0,.26.47.65.65,0,0,0,.44.14.64.64,0,0,0,.43-.14m-1.75.39a2.76,2.76,0,0,1-.46-1.76,2.73,2.73,0,0,1,.46-1.75,1.61,1.61,0,0,1,1.32-.58,1.59,1.59,0,0,1,1.31.58,2.73,2.73,0,0,1,.46,1.75,2.76,2.76,0,0,1-.46,1.76,1.6,1.6,0,0,1-1.31.57,1.61,1.61,0,0,1-1.32-.57"/><path class="cls-5" d="M16.76,22.75a.89.89,0,0,1,.17.58,2.4,2.4,0,0,1-.13.74,2.6,2.6,0,0,1-.36.68h-.56a4.89,4.89,0,0,0,.21-.54,1.65,1.65,0,0,0,.1-.47.6.6,0,0,1-.39-.18.58.58,0,0,1-.15-.41.56.56,0,0,1,.17-.43.61.61,0,0,1,.46-.16.59.59,0,0,1,.48.19"/><path class="cls-5" d="M19.45,22.79a.91.91,0,0,0,.26-.47,4.5,4.5,0,0,0,0-1.79.91.91,0,0,0-.26-.47.65.65,0,0,0-.44-.15.64.64,0,0,0-.43.15.91.91,0,0,0-.26.47,4.5,4.5,0,0,0,0,1.79.91.91,0,0,0,.26.47.62.62,0,0,0,.43.14.65.65,0,0,0,.44-.14m-1.75.39a2.76,2.76,0,0,1-.46-1.76,2.73,2.73,0,0,1,.46-1.75A1.59,1.59,0,0,1,19,19.09a1.61,1.61,0,0,1,1.32.58,2.73,2.73,0,0,1,.46,1.75,2.76,2.76,0,0,1-.46,1.76,1.61,1.61,0,0,1-1.32.57,1.59,1.59,0,0,1-1.31-.57"/><path class="cls-5" d="M23.58,22.79a.91.91,0,0,0,.26-.47,4.5,4.5,0,0,0,0-1.79.91.91,0,0,0-.26-.47.65.65,0,0,0-.44-.15.64.64,0,0,0-.43.15.91.91,0,0,0-.26.47,4.5,4.5,0,0,0,0,1.79.91.91,0,0,0,.26.47.62.62,0,0,0,.43.14.65.65,0,0,0,.44-.14m-1.75.39a2.76,2.76,0,0,1-.46-1.76,2.73,2.73,0,0,1,.46-1.75,1.59,1.59,0,0,1,1.31-.58,1.61,1.61,0,0,1,1.32.58,2.73,2.73,0,0,1,.46,1.75,2.76,2.76,0,0,1-.46,1.76,1.61,1.61,0,0,1-1.32.57,1.59,1.59,0,0,1-1.31-.57"/><path class="cls-5" d="M27.71,22.79a.91.91,0,0,0,.26-.47,4.5,4.5,0,0,0,0-1.79.91.91,0,0,0-.26-.47.65.65,0,0,0-.44-.15.64.64,0,0,0-.43.15.91.91,0,0,0-.26.47,4.5,4.5,0,0,0,0,1.79.91.91,0,0,0,.26.47.62.62,0,0,0,.43.14.65.65,0,0,0,.44-.14M26,23.18a2.76,2.76,0,0,1-.46-1.76A2.73,2.73,0,0,1,26,19.67a1.59,1.59,0,0,1,1.31-.58,1.61,1.61,0,0,1,1.32.58,2.73,2.73,0,0,1,.46,1.75,2.76,2.76,0,0,1-.46,1.76,1.61,1.61,0,0,1-1.32.57A1.59,1.59,0,0,1,26,23.18"/><path class="cls-5" d="M29.53,23.59a.59.59,0,0,1-.17-.44.54.54,0,0,1,.17-.43.65.65,0,0,1,.47-.16.67.67,0,0,1,.47.16.58.58,0,0,1,.17.43.57.57,0,0,1-.18.44.67.67,0,0,1-.46.16.65.65,0,0,1-.47-.16"/><path class="cls-5" d="M33.15,22.79a.85.85,0,0,0,.27-.47,4.5,4.5,0,0,0,0-1.79.85.85,0,0,0-.27-.47.69.69,0,0,0-.86,0,.84.84,0,0,0-.26.47,4.06,4.06,0,0,0,0,1.79.84.84,0,0,0,.26.47.73.73,0,0,0,.86,0m-1.74.39a2.76,2.76,0,0,1-.47-1.76,2.73,2.73,0,0,1,.47-1.75,1.58,1.58,0,0,1,1.31-.58,1.61,1.61,0,0,1,1.32.58,2.73,2.73,0,0,1,.46,1.75A2.76,2.76,0,0,1,34,23.18a1.61,1.61,0,0,1-1.32.57,1.57,1.57,0,0,1-1.31-.57"/><path class="cls-5" d="M37.28,22.79a.85.85,0,0,0,.27-.47,4.5,4.5,0,0,0,0-1.79.85.85,0,0,0-.27-.47.69.69,0,0,0-.86,0,.84.84,0,0,0-.26.47,4.06,4.06,0,0,0,0,1.79.84.84,0,0,0,.26.47.73.73,0,0,0,.86,0m-1.74.39a2.76,2.76,0,0,1-.47-1.76,2.73,2.73,0,0,1,.47-1.75,1.58,1.58,0,0,1,1.31-.58,1.61,1.61,0,0,1,1.32.58,2.73,2.73,0,0,1,.46,1.75,2.76,2.76,0,0,1-.46,1.76,1.61,1.61,0,0,1-1.32.57,1.57,1.57,0,0,1-1.31-.57"/><path class="cls-5" d="M2.93,41.62a1.57,1.57,0,0,1-.85.47v.76H1.15v-.68l-.54-.06A3.33,3.33,0,0,1,.11,42v-.81a5.16,5.16,0,0,0,.62.14,5,5,0,0,0,.62,0A1.26,1.26,0,0,0,2,41.23a.45.45,0,0,0,.2-.39.43.43,0,0,0-.06-.24.49.49,0,0,0-.2-.17,1.82,1.82,0,0,0-.4-.14l-.34-.09a1.86,1.86,0,0,1-.92-.47,1.17,1.17,0,0,1-.3-.84,1.26,1.26,0,0,1,.29-.84,1.52,1.52,0,0,1,.86-.46v-.76h.93v.68a4.09,4.09,0,0,1,.91.12v.81c-.15,0-.31-.07-.48-.09l-.51,0a1.61,1.61,0,0,0-.77.13.43.43,0,0,0-.23.39.41.41,0,0,0,.06.23.38.38,0,0,0,.17.16,1.52,1.52,0,0,0,.35.13l.35.09a2.09,2.09,0,0,1,1,.48,1.13,1.13,0,0,1,.31.84,1.29,1.29,0,0,1-.29.85"/><polygon class="cls-5" points="7.3 40.41 7.3 41.18 6.71 41.18 6.71 42.11 5.81 42.11 5.81 41.18 3.58 41.18 3.58 40.63 5.17 37.57 6.14 37.57 4.69 40.41 5.81 40.41 5.91 39.1 6.71 39.1 6.71 40.41 7.3 40.41"/><path class="cls-5" d="M9.87,41.21a.91.91,0,0,0,.26-.47,4.5,4.5,0,0,0,0-1.79.94.94,0,0,0-.26-.48.69.69,0,0,0-.43-.14.7.7,0,0,0-.44.14,1,1,0,0,0-.26.47,3.62,3.62,0,0,0-.09.9,3.56,3.56,0,0,0,.09.9.91.91,0,0,0,.26.47.7.7,0,0,0,.44.14.69.69,0,0,0,.43-.14m-1.75.39a2.76,2.76,0,0,1-.46-1.76,2.76,2.76,0,0,1,.46-1.76,1.61,1.61,0,0,1,1.32-.57,1.59,1.59,0,0,1,1.31.57,2.78,2.78,0,0,1,.46,1.76,2.76,2.76,0,0,1-.46,1.76,1.6,1.6,0,0,1-1.31.57,1.61,1.61,0,0,1-1.32-.57"/><path class="cls-5" d="M14,41.21a.91.91,0,0,0,.26-.47,4.5,4.5,0,0,0,0-1.79.94.94,0,0,0-.26-.48.69.69,0,0,0-.43-.14.7.7,0,0,0-.44.14,1,1,0,0,0-.26.47,3.62,3.62,0,0,0-.09.9,3.56,3.56,0,0,0,.09.9.91.91,0,0,0,.26.47.7.7,0,0,0,.44.14.69.69,0,0,0,.43-.14m-1.75.39a2.76,2.76,0,0,1-.46-1.76,2.76,2.76,0,0,1,.46-1.76,1.61,1.61,0,0,1,1.32-.57,1.59,1.59,0,0,1,1.31.57,2.78,2.78,0,0,1,.46,1.76,2.76,2.76,0,0,1-.46,1.76,1.6,1.6,0,0,1-1.31.57,1.61,1.61,0,0,1-1.32-.57"/><path class="cls-5" d="M16.76,41.17a.87.87,0,0,1,.17.58,2.45,2.45,0,0,1-.13.74,2.53,2.53,0,0,1-.36.67h-.56a4.89,4.89,0,0,0,.21-.54,1.52,1.52,0,0,0,.1-.46A.56.56,0,0,1,15.8,42a.55.55,0,0,1-.15-.4.59.59,0,0,1,.17-.44.66.66,0,0,1,.46-.16.6.6,0,0,1,.48.2"/><path class="cls-5" d="M19.45,41.21a.91.91,0,0,0,.26-.47,4.5,4.5,0,0,0,0-1.79.94.94,0,0,0-.26-.48.7.7,0,0,0-.44-.14.69.69,0,0,0-.43.14,1,1,0,0,0-.26.47,3.62,3.62,0,0,0-.09.9,3.56,3.56,0,0,0,.09.9.91.91,0,0,0,.26.47.67.67,0,0,0,.43.14.7.7,0,0,0,.44-.14m-1.75.39a2.76,2.76,0,0,1-.46-1.76,2.76,2.76,0,0,1,.46-1.76A1.57,1.57,0,0,1,19,37.51a1.61,1.61,0,0,1,1.32.57,2.78,2.78,0,0,1,.46,1.76,2.76,2.76,0,0,1-.46,1.76,1.61,1.61,0,0,1-1.32.57,1.57,1.57,0,0,1-1.31-.57"/><path class="cls-5" d="M23.58,41.21a.91.91,0,0,0,.26-.47,4.5,4.5,0,0,0,0-1.79.94.94,0,0,0-.26-.48.7.7,0,0,0-.44-.14.69.69,0,0,0-.43.14,1,1,0,0,0-.26.47,3.62,3.62,0,0,0-.09.9,3.56,3.56,0,0,0,.09.9.91.91,0,0,0,.26.47.67.67,0,0,0,.43.14.7.7,0,0,0,.44-.14m-1.75.39a2.76,2.76,0,0,1-.46-1.76,2.76,2.76,0,0,1,.46-1.76,1.57,1.57,0,0,1,1.31-.57,1.61,1.61,0,0,1,1.32.57,2.78,2.78,0,0,1,.46,1.76,2.76,2.76,0,0,1-.46,1.76,1.61,1.61,0,0,1-1.32.57,1.57,1.57,0,0,1-1.31-.57"/><path class="cls-5" d="M27.71,41.21a.91.91,0,0,0,.26-.47A4.5,4.5,0,0,0,28,39a.94.94,0,0,0-.26-.48.7.7,0,0,0-.44-.14.69.69,0,0,0-.43.14,1,1,0,0,0-.26.47,3.62,3.62,0,0,0-.09.9,3.56,3.56,0,0,0,.09.9.91.91,0,0,0,.26.47.67.67,0,0,0,.43.14.7.7,0,0,0,.44-.14M26,41.6a2.76,2.76,0,0,1-.46-1.76A2.76,2.76,0,0,1,26,38.08a1.57,1.57,0,0,1,1.31-.57,1.61,1.61,0,0,1,1.32.57,2.78,2.78,0,0,1,.46,1.76,2.76,2.76,0,0,1-.46,1.76,1.61,1.61,0,0,1-1.32.57A1.57,1.57,0,0,1,26,41.6"/><path class="cls-5" d="M29.53,42a.6.6,0,0,1-.17-.44.53.53,0,0,1,.17-.43A.66.66,0,0,1,30,41a.68.68,0,0,1,.47.17.58.58,0,0,1,.17.43.55.55,0,0,1-.18.43.64.64,0,0,1-.46.17.7.7,0,0,1-.47-.16"/><path class="cls-5" d="M33.15,41.21a.85.85,0,0,0,.27-.47,4.5,4.5,0,0,0,0-1.79.88.88,0,0,0-.27-.48.67.67,0,0,0-.43-.14.69.69,0,0,0-.43.14.88.88,0,0,0-.26.47,3.62,3.62,0,0,0-.09.9,3.56,3.56,0,0,0,.09.9.84.84,0,0,0,.26.47.73.73,0,0,0,.86,0m-1.74.39a2.76,2.76,0,0,1-.47-1.76,2.76,2.76,0,0,1,.47-1.76,1.57,1.57,0,0,1,1.31-.57,1.61,1.61,0,0,1,1.32.57,2.78,2.78,0,0,1,.46,1.76A2.76,2.76,0,0,1,34,41.6a1.61,1.61,0,0,1-1.32.57,1.57,1.57,0,0,1-1.31-.57"/><path class="cls-5" d="M37.28,41.21a.85.85,0,0,0,.27-.47,4.5,4.5,0,0,0,0-1.79.88.88,0,0,0-.27-.48.67.67,0,0,0-.43-.14.69.69,0,0,0-.43.14.88.88,0,0,0-.26.47,3.55,3.55,0,0,0-.1.9,3.49,3.49,0,0,0,.1.9.84.84,0,0,0,.26.47.73.73,0,0,0,.86,0m-1.74.39a2.76,2.76,0,0,1-.47-1.76,2.76,2.76,0,0,1,.47-1.76,1.57,1.57,0,0,1,1.31-.57,1.61,1.61,0,0,1,1.32.57,2.78,2.78,0,0,1,.46,1.76,2.76,2.76,0,0,1-.46,1.76,1.61,1.61,0,0,1-1.32.57,1.57,1.57,0,0,1-1.31-.57"/><path class="cls-5" d="M3.53,60a1.6,1.6,0,0,1-.84.47v.76H1.76v-.69l-.54,0a3.33,3.33,0,0,1-.5-.12v-.82a3.54,3.54,0,0,0,.62.14,3.52,3.52,0,0,0,.62.05,1.28,1.28,0,0,0,.67-.13.45.45,0,0,0,.2-.39A.49.49,0,0,0,2.77,59a.47.47,0,0,0-.2-.16,1.82,1.82,0,0,0-.4-.14l-.35-.09a1.87,1.87,0,0,1-.91-.47,1.34,1.34,0,0,1,0-1.68A1.52,1.52,0,0,1,1.76,56v-.76h.93v.68a4.09,4.09,0,0,1,.91.12v.81a3.3,3.3,0,0,0-.49-.09,3,3,0,0,0-.5,0,1.59,1.59,0,0,0-.77.14.43.43,0,0,0-.23.39.52.52,0,0,0,0,.23.57.57,0,0,0,.18.16,1.88,1.88,0,0,0,.35.13l.35.08a2,2,0,0,1,1,.49,1.13,1.13,0,0,1,.31.84,1.24,1.24,0,0,1-.3.85"/><path class="cls-5" d="M6.93,58.55a1,1,0,0,1,.24.72,1.13,1.13,0,0,1-.46,1,2.3,2.3,0,0,1-1.38.35,4.24,4.24,0,0,1-1.2-.16v-.74l.57.11a4,4,0,0,0,.58,0A1.36,1.36,0,0,0,6,59.69a.55.55,0,0,0,.22-.48A.52.52,0,0,0,6,58.74a1.3,1.3,0,0,0-.72-.16H4.62v-.75h.52a1.28,1.28,0,0,0,.7-.15.52.52,0,0,0,.22-.45.5.5,0,0,0-.2-.42,1.11,1.11,0,0,0-.62-.14,3.27,3.27,0,0,0-.53,0,2.61,2.61,0,0,0-.5.12v-.75A3.12,3.12,0,0,1,4.75,56a4.22,4.22,0,0,1,.6,0,2.08,2.08,0,0,1,1.25.31,1.06,1.06,0,0,1,.42.91,1,1,0,0,1-.77,1,1.19,1.19,0,0,1,.68.37"/><path class="cls-5" d="M9.87,59.63a.94.94,0,0,0,.26-.48,3.48,3.48,0,0,0,.09-.89,3.62,3.62,0,0,0-.09-.9.91.91,0,0,0-.26-.47.69.69,0,0,0-.43-.14.7.7,0,0,0-.44.14.91.91,0,0,0-.26.47,4.5,4.5,0,0,0,0,1.79.94.94,0,0,0,.26.48.7.7,0,0,0,.44.14.69.69,0,0,0,.43-.14M8.12,60a3.6,3.6,0,0,1,0-3.52,1.61,1.61,0,0,1,1.32-.57,1.59,1.59,0,0,1,1.31.57,3.6,3.6,0,0,1,0,3.52,1.6,1.6,0,0,1-1.31.57A1.61,1.61,0,0,1,8.12,60"/><path class="cls-5" d="M14,59.63a.94.94,0,0,0,.26-.48,3.48,3.48,0,0,0,.09-.89,3.62,3.62,0,0,0-.09-.9.91.91,0,0,0-.26-.47.69.69,0,0,0-.43-.14.7.7,0,0,0-.44.14.91.91,0,0,0-.26.47,4.5,4.5,0,0,0,0,1.79.94.94,0,0,0,.26.48.7.7,0,0,0,.44.14.69.69,0,0,0,.43-.14M12.25,60a3.6,3.6,0,0,1,0-3.52,1.61,1.61,0,0,1,1.32-.57,1.59,1.59,0,0,1,1.31.57,3.6,3.6,0,0,1,0,3.52,1.6,1.6,0,0,1-1.31.57A1.61,1.61,0,0,1,12.25,60"/><path class="cls-5" d="M16.76,59.59a.86.86,0,0,1,.17.57,2.46,2.46,0,0,1-.13.75,2.7,2.7,0,0,1-.36.67h-.56a4.89,4.89,0,0,0,.21-.54,1.59,1.59,0,0,0,.1-.46.58.58,0,0,1-.39-.19.57.57,0,0,1-.15-.4.59.59,0,0,1,.17-.44.61.61,0,0,1,.46-.16.6.6,0,0,1,.48.2"/><path class="cls-5" d="M19.45,59.63a.94.94,0,0,0,.26-.48,3.48,3.48,0,0,0,.09-.89,3.62,3.62,0,0,0-.09-.9.91.91,0,0,0-.26-.47.7.7,0,0,0-.44-.14.69.69,0,0,0-.43.14.91.91,0,0,0-.26.47,4.5,4.5,0,0,0,0,1.79.94.94,0,0,0,.26.48.67.67,0,0,0,.43.14.7.7,0,0,0,.44-.14M17.7,60a3.6,3.6,0,0,1,0-3.52A1.57,1.57,0,0,1,19,55.93a1.61,1.61,0,0,1,1.32.57,3.6,3.6,0,0,1,0,3.52,1.61,1.61,0,0,1-1.32.57A1.57,1.57,0,0,1,17.7,60"/><path class="cls-5" d="M23.58,59.63a.94.94,0,0,0,.26-.48,3.48,3.48,0,0,0,.09-.89,3.62,3.62,0,0,0-.09-.9.91.91,0,0,0-.26-.47.7.7,0,0,0-.44-.14.69.69,0,0,0-.43.14.91.91,0,0,0-.26.47,4.5,4.5,0,0,0,0,1.79.94.94,0,0,0,.26.48.67.67,0,0,0,.43.14.7.7,0,0,0,.44-.14M21.83,60a3.6,3.6,0,0,1,0-3.52,1.57,1.57,0,0,1,1.31-.57,1.61,1.61,0,0,1,1.32.57,3.6,3.6,0,0,1,0,3.52,1.61,1.61,0,0,1-1.32.57A1.57,1.57,0,0,1,21.83,60"/><path class="cls-5" d="M27.71,59.63a.94.94,0,0,0,.26-.48,3.48,3.48,0,0,0,.09-.89,3.62,3.62,0,0,0-.09-.9.91.91,0,0,0-.26-.47.7.7,0,0,0-.44-.14.69.69,0,0,0-.43.14.91.91,0,0,0-.26.47,4.5,4.5,0,0,0,0,1.79.94.94,0,0,0,.26.48.67.67,0,0,0,.43.14.7.7,0,0,0,.44-.14M26,60a3.6,3.6,0,0,1,0-3.52,1.57,1.57,0,0,1,1.31-.57,1.61,1.61,0,0,1,1.32.57,3.6,3.6,0,0,1,0,3.52,1.61,1.61,0,0,1-1.32.57A1.57,1.57,0,0,1,26,60"/><path class="cls-5" d="M29.53,60.42a.56.56,0,0,1-.17-.43.55.55,0,0,1,.17-.44.65.65,0,0,1,.47-.16.67.67,0,0,1,.47.16.6.6,0,0,1,.17.44.55.55,0,0,1-.18.43.63.63,0,0,1-.46.16.65.65,0,0,1-.47-.16"/><path class="cls-5" d="M33.15,59.63a.88.88,0,0,0,.27-.48,3.48,3.48,0,0,0,.09-.89,3.62,3.62,0,0,0-.09-.9.85.85,0,0,0-.27-.47.73.73,0,0,0-.86,0,.84.84,0,0,0-.26.47,4.06,4.06,0,0,0,0,1.79.88.88,0,0,0,.26.48.73.73,0,0,0,.86,0M31.41,60a3.53,3.53,0,0,1,0-3.52,1.57,1.57,0,0,1,1.31-.57A1.61,1.61,0,0,1,34,56.5,3.6,3.6,0,0,1,34,60a1.61,1.61,0,0,1-1.32.57A1.57,1.57,0,0,1,31.41,60"/><path class="cls-5" d="M37.28,59.63a.88.88,0,0,0,.27-.48,3.48,3.48,0,0,0,.09-.89,3.62,3.62,0,0,0-.09-.9.85.85,0,0,0-.27-.47.73.73,0,0,0-.86,0,.84.84,0,0,0-.26.47,4.06,4.06,0,0,0,0,1.79.88.88,0,0,0,.26.48.73.73,0,0,0,.86,0M35.54,60a3.53,3.53,0,0,1,0-3.52,1.57,1.57,0,0,1,1.31-.57,1.61,1.61,0,0,1,1.32.57,3.6,3.6,0,0,1,0,3.52,1.61,1.61,0,0,1-1.32.57A1.57,1.57,0,0,1,35.54,60"/><path class="cls-5" d="M3.63,78.45a1.58,1.58,0,0,1-.85.48v.75H1.85V79a5,5,0,0,1-.54-.06,3.33,3.33,0,0,1-.5-.12V78a3.76,3.76,0,0,0,.62.14,5,5,0,0,0,.62,0,1.28,1.28,0,0,0,.67-.13.45.45,0,0,0,.2-.4.48.48,0,0,0-.06-.24.58.58,0,0,0-.2-.17l-.4-.14L1.92,77A1.78,1.78,0,0,1,1,76.56a1.16,1.16,0,0,1-.3-.83A1.24,1.24,0,0,1,1,74.89a1.53,1.53,0,0,1,.86-.47v-.75h.93v.68a4.09,4.09,0,0,1,.91.12v.81a3.41,3.41,0,0,0-.48-.09,3.08,3.08,0,0,0-.51,0,1.48,1.48,0,0,0-.77.14.43.43,0,0,0-.23.38.39.39,0,0,0,.06.23.33.33,0,0,0,.17.16,1.52,1.52,0,0,0,.35.13l.35.09a2.09,2.09,0,0,1,1,.48,1.17,1.17,0,0,1,.31.85,1.26,1.26,0,0,1-.29.84"/><path class="cls-5" d="M7.24,78.12V79h-3v-.54l1.27-1.57a3.27,3.27,0,0,0,.4-.61A1.13,1.13,0,0,0,6,75.75a.52.52,0,0,0-.19-.45,1.08,1.08,0,0,0-.64-.15,2.32,2.32,0,0,0-.53,0,2.34,2.34,0,0,0-.49.13v-.82a2.8,2.8,0,0,1,.53-.12,4.27,4.27,0,0,1,.59,0,2.2,2.2,0,0,1,1.3.32,1.16,1.16,0,0,1,.43,1,1.73,1.73,0,0,1-.15.7,3.41,3.41,0,0,1-.51.78l-.8,1Z"/><path class="cls-5" d="M9.87,78a.91.91,0,0,0,.26-.47,4.5,4.5,0,0,0,0-1.79.91.91,0,0,0-.26-.47.64.64,0,0,0-.43-.14.65.65,0,0,0-.44.14.91.91,0,0,0-.26.47,4.5,4.5,0,0,0,0,1.79A.91.91,0,0,0,9,78a.65.65,0,0,0,.44.15A.64.64,0,0,0,9.87,78m-1.75.39a3.58,3.58,0,0,1,0-3.51,1.61,1.61,0,0,1,1.32-.57,1.59,1.59,0,0,1,1.31.57,3.58,3.58,0,0,1,0,3.51A1.61,1.61,0,0,1,9.44,79a1.61,1.61,0,0,1-1.32-.58"/><path class="cls-5" d="M14,78a.91.91,0,0,0,.26-.47,4.5,4.5,0,0,0,0-1.79.91.91,0,0,0-.26-.47.64.64,0,0,0-.43-.14.65.65,0,0,0-.44.14.91.91,0,0,0-.26.47,4.5,4.5,0,0,0,0,1.79.91.91,0,0,0,.26.47.65.65,0,0,0,.44.15A.64.64,0,0,0,14,78m-1.75.39a3.58,3.58,0,0,1,0-3.51,1.61,1.61,0,0,1,1.32-.57,1.59,1.59,0,0,1,1.31.57,3.58,3.58,0,0,1,0,3.51,1.61,1.61,0,0,1-1.31.58,1.61,1.61,0,0,1-1.32-.58"/><path class="cls-5" d="M16.76,78a.89.89,0,0,1,.17.58,2.4,2.4,0,0,1-.13.74,2.6,2.6,0,0,1-.36.68h-.56a4.89,4.89,0,0,0,.21-.54,1.65,1.65,0,0,0,.1-.47.6.6,0,0,1-.39-.18.58.58,0,0,1-.15-.41.56.56,0,0,1,.17-.43.61.61,0,0,1,.46-.16.59.59,0,0,1,.48.19"/><path class="cls-5" d="M19.45,78a.91.91,0,0,0,.26-.47,4.5,4.5,0,0,0,0-1.79.91.91,0,0,0-.26-.47.65.65,0,0,0-.44-.14.64.64,0,0,0-.43.14.91.91,0,0,0-.26.47,4.5,4.5,0,0,0,0,1.79.91.91,0,0,0,.26.47.63.63,0,0,0,.43.15.65.65,0,0,0,.44-.15m-1.75.39a3.58,3.58,0,0,1,0-3.51A1.59,1.59,0,0,1,19,74.35a1.61,1.61,0,0,1,1.32.57,3.58,3.58,0,0,1,0,3.51A1.61,1.61,0,0,1,19,79a1.59,1.59,0,0,1-1.31-.58"/><path class="cls-5" d="M23.58,78a.91.91,0,0,0,.26-.47,4.5,4.5,0,0,0,0-1.79.91.91,0,0,0-.26-.47.65.65,0,0,0-.44-.14.64.64,0,0,0-.43.14.91.91,0,0,0-.26.47,4.5,4.5,0,0,0,0,1.79.91.91,0,0,0,.26.47.63.63,0,0,0,.43.15.65.65,0,0,0,.44-.15m-1.75.39a3.58,3.58,0,0,1,0-3.51,1.59,1.59,0,0,1,1.31-.57,1.61,1.61,0,0,1,1.32.57,3.58,3.58,0,0,1,0,3.51,1.61,1.61,0,0,1-1.32.58,1.59,1.59,0,0,1-1.31-.58"/><path class="cls-5" d="M27.71,78a.91.91,0,0,0,.26-.47,4.5,4.5,0,0,0,0-1.79.91.91,0,0,0-.26-.47.65.65,0,0,0-.44-.14.64.64,0,0,0-.43.14.91.91,0,0,0-.26.47,4.5,4.5,0,0,0,0,1.79.91.91,0,0,0,.26.47.63.63,0,0,0,.43.15.65.65,0,0,0,.44-.15M26,78.43a3.58,3.58,0,0,1,0-3.51,1.59,1.59,0,0,1,1.31-.57,1.61,1.61,0,0,1,1.32.57,3.58,3.58,0,0,1,0,3.51,1.61,1.61,0,0,1-1.32.58A1.59,1.59,0,0,1,26,78.43"/><path class="cls-5" d="M29.53,78.84a.59.59,0,0,1-.17-.44.54.54,0,0,1,.17-.43.65.65,0,0,1,.47-.16.67.67,0,0,1,.47.16.58.58,0,0,1,.17.43.57.57,0,0,1-.18.44A.67.67,0,0,1,30,79a.65.65,0,0,1-.47-.16"/><path class="cls-5" d="M33.15,78a.85.85,0,0,0,.27-.47,4.5,4.5,0,0,0,0-1.79.85.85,0,0,0-.27-.47.73.73,0,0,0-.86,0,.84.84,0,0,0-.26.47,4.06,4.06,0,0,0,0,1.79.84.84,0,0,0,.26.47.69.69,0,0,0,.86,0m-1.74.39a3.51,3.51,0,0,1,0-3.51,1.57,1.57,0,0,1,1.31-.57,1.61,1.61,0,0,1,1.32.57,3.58,3.58,0,0,1,0,3.51,1.61,1.61,0,0,1-1.32.58,1.58,1.58,0,0,1-1.31-.58"/><path class="cls-5" d="M37.28,78a.85.85,0,0,0,.27-.47,4.5,4.5,0,0,0,0-1.79.85.85,0,0,0-.27-.47.73.73,0,0,0-.86,0,.84.84,0,0,0-.26.47,4.06,4.06,0,0,0,0,1.79.84.84,0,0,0,.26.47.69.69,0,0,0,.86,0m-1.74.39a3.51,3.51,0,0,1,0-3.51,1.57,1.57,0,0,1,1.31-.57,1.61,1.61,0,0,1,1.32.57,3.58,3.58,0,0,1,0,3.51,1.61,1.61,0,0,1-1.32.58,1.58,1.58,0,0,1-1.31-.58"/><path class="cls-5" d="M4.33,96.87a1.53,1.53,0,0,1-.85.47v.76H2.56v-.68A5,5,0,0,1,2,97.36a3.33,3.33,0,0,1-.5-.12v-.81a4.41,4.41,0,0,0,.62.14,4.82,4.82,0,0,0,.62.05,1.2,1.2,0,0,0,.66-.14.44.44,0,0,0,.21-.39.43.43,0,0,0-.06-.24.46.46,0,0,0-.21-.17A1.55,1.55,0,0,0,3,95.54l-.35-.09A1.87,1.87,0,0,1,1.71,95a1.17,1.17,0,0,1-.3-.84,1.21,1.21,0,0,1,.29-.84,1.49,1.49,0,0,1,.86-.46v-.76h.92v.68a4.11,4.11,0,0,1,.92.12v.81c-.15,0-.31-.07-.49-.09l-.51,0a1.59,1.59,0,0,0-.76.13.43.43,0,0,0-.23.39.52.52,0,0,0,0,.23.47.47,0,0,0,.18.16,1.36,1.36,0,0,0,.35.13l.35.09a2.09,2.09,0,0,1,1,.48,1.13,1.13,0,0,1,.31.84,1.24,1.24,0,0,1-.3.85"/><polygon class="cls-5" points="6.28 92.81 6.93 92.81 6.93 97.36 5.92 97.36 5.92 93.99 4.89 94.7 4.89 93.77 6.28 92.81"/><path class="cls-5" d="M9.87,96.46a.91.91,0,0,0,.26-.47,4.5,4.5,0,0,0,0-1.79.94.94,0,0,0-.26-.48.69.69,0,0,0-.43-.14.7.7,0,0,0-.44.14.94.94,0,0,0-.26.48,3.48,3.48,0,0,0-.09.89,3.56,3.56,0,0,0,.09.9.91.91,0,0,0,.26.47.7.7,0,0,0,.44.14.69.69,0,0,0,.43-.14m-1.75.39a3.6,3.6,0,0,1,0-3.52,1.61,1.61,0,0,1,1.32-.57,1.59,1.59,0,0,1,1.31.57,3.6,3.6,0,0,1,0,3.52,1.6,1.6,0,0,1-1.31.57,1.61,1.61,0,0,1-1.32-.57"/><path class="cls-5" d="M14,96.46a.91.91,0,0,0,.26-.47,4.5,4.5,0,0,0,0-1.79.94.94,0,0,0-.26-.48.69.69,0,0,0-.43-.14.7.7,0,0,0-.44.14.94.94,0,0,0-.26.48,3.48,3.48,0,0,0-.09.89,3.56,3.56,0,0,0,.09.9.91.91,0,0,0,.26.47.7.7,0,0,0,.44.14.69.69,0,0,0,.43-.14m-1.75.39a3.6,3.6,0,0,1,0-3.52,1.61,1.61,0,0,1,1.32-.57,1.59,1.59,0,0,1,1.31.57,3.6,3.6,0,0,1,0,3.52,1.6,1.6,0,0,1-1.31.57,1.61,1.61,0,0,1-1.32-.57"/><path class="cls-5" d="M16.76,96.42a.87.87,0,0,1,.17.58,2.45,2.45,0,0,1-.13.74,2.53,2.53,0,0,1-.36.67h-.56a4.81,4.81,0,0,0,.21-.53,1.65,1.65,0,0,0,.1-.47.56.56,0,0,1-.39-.19.55.55,0,0,1-.15-.4.6.6,0,0,1,.17-.44.66.66,0,0,1,.46-.16.6.6,0,0,1,.48.2"/><path class="cls-5" d="M19.45,96.46a.91.91,0,0,0,.26-.47,4.5,4.5,0,0,0,0-1.79.94.94,0,0,0-.26-.48.7.7,0,0,0-.44-.14.69.69,0,0,0-.43.14.94.94,0,0,0-.26.48,3.48,3.48,0,0,0-.09.89,3.56,3.56,0,0,0,.09.9.91.91,0,0,0,.26.47.67.67,0,0,0,.43.14.7.7,0,0,0,.44-.14m-1.75.39a3.6,3.6,0,0,1,0-3.52A1.59,1.59,0,0,1,19,92.76a1.61,1.61,0,0,1,1.32.57,3.6,3.6,0,0,1,0,3.52,1.61,1.61,0,0,1-1.32.57,1.59,1.59,0,0,1-1.31-.57"/><path class="cls-5" d="M23.58,96.46a.91.91,0,0,0,.26-.47,4.5,4.5,0,0,0,0-1.79.94.94,0,0,0-.26-.48.7.7,0,0,0-.44-.14.69.69,0,0,0-.43.14.94.94,0,0,0-.26.48,3.48,3.48,0,0,0-.09.89,3.56,3.56,0,0,0,.09.9.91.91,0,0,0,.26.47.67.67,0,0,0,.43.14.7.7,0,0,0,.44-.14m-1.75.39a3.6,3.6,0,0,1,0-3.52,1.59,1.59,0,0,1,1.31-.57,1.61,1.61,0,0,1,1.32.57,3.6,3.6,0,0,1,0,3.52,1.61,1.61,0,0,1-1.32.57,1.59,1.59,0,0,1-1.31-.57"/><path class="cls-5" d="M27.71,96.46A.91.91,0,0,0,28,96a4.5,4.5,0,0,0,0-1.79.94.94,0,0,0-.26-.48.7.7,0,0,0-.44-.14.69.69,0,0,0-.43.14.94.94,0,0,0-.26.48,3.48,3.48,0,0,0-.09.89,3.56,3.56,0,0,0,.09.9.91.91,0,0,0,.26.47.67.67,0,0,0,.43.14.7.7,0,0,0,.44-.14M26,96.85a3.6,3.6,0,0,1,0-3.52,1.59,1.59,0,0,1,1.31-.57,1.61,1.61,0,0,1,1.32.57,3.6,3.6,0,0,1,0,3.52,1.61,1.61,0,0,1-1.32.57A1.59,1.59,0,0,1,26,96.85"/><path class="cls-5" d="M29.53,97.26a.6.6,0,0,1-.17-.44.53.53,0,0,1,.17-.43.66.66,0,0,1,.47-.17.68.68,0,0,1,.47.17.58.58,0,0,1,.17.43.55.55,0,0,1-.18.43.64.64,0,0,1-.46.17.7.7,0,0,1-.47-.16"/><path class="cls-5" d="M33.15,96.46a.85.85,0,0,0,.27-.47,4.5,4.5,0,0,0,0-1.79.88.88,0,0,0-.27-.48.73.73,0,0,0-.86,0,.88.88,0,0,0-.26.48,3.41,3.41,0,0,0-.1.89,3.49,3.49,0,0,0,.1.9.84.84,0,0,0,.26.47.73.73,0,0,0,.86,0m-1.74.39a3.53,3.53,0,0,1,0-3.52,1.57,1.57,0,0,1,1.31-.57,1.61,1.61,0,0,1,1.32.57,3.6,3.6,0,0,1,0,3.52,1.61,1.61,0,0,1-1.32.57,1.57,1.57,0,0,1-1.31-.57"/><path class="cls-5" d="M37.28,96.46a.85.85,0,0,0,.27-.47,4.5,4.5,0,0,0,0-1.79.88.88,0,0,0-.27-.48.73.73,0,0,0-.86,0,.88.88,0,0,0-.26.48,3.41,3.41,0,0,0-.1.89,3.49,3.49,0,0,0,.1.9.84.84,0,0,0,.26.47.73.73,0,0,0,.86,0m-1.74.39a3.53,3.53,0,0,1,0-3.52,1.57,1.57,0,0,1,1.31-.57,1.61,1.61,0,0,1,1.32.57,3.6,3.6,0,0,1,0,3.52,1.61,1.61,0,0,1-1.32.57,1.57,1.57,0,0,1-1.31-.57"/><path class="cls-5" d="M35.56,115.29a1.63,1.63,0,0,1-.85.47v.76h-.93v-.69l-.54,0a3.33,3.33,0,0,1-.5-.12v-.82a3.66,3.66,0,0,0,.63.14,3.41,3.41,0,0,0,.61,0,1.28,1.28,0,0,0,.67-.13.45.45,0,0,0,.2-.39.42.42,0,0,0-.26-.41,1.82,1.82,0,0,0-.4-.14l-.34-.09a1.9,1.9,0,0,1-.92-.47,1.2,1.2,0,0,1-.3-.84,1.24,1.24,0,0,1,.29-.84,1.52,1.52,0,0,1,.86-.46v-.76h.93v.68a4,4,0,0,1,.91.12v.81a3.16,3.16,0,0,0-.48-.09,3.08,3.08,0,0,0-.51,0,1.62,1.62,0,0,0-.77.14.43.43,0,0,0-.22.39.38.38,0,0,0,.23.39,1.88,1.88,0,0,0,.35.13l.34.08a2,2,0,0,1,1,.49,1.13,1.13,0,0,1,.31.84,1.24,1.24,0,0,1-.29.85"/><rect class="cls-5" x="36.47" y="113.64" width="2.09" height="0.8"/><path class="cls-5" d="M131.61,123.29v.83h-3v-.54l1.26-1.57a3.41,3.41,0,0,0,.41-.61,1.13,1.13,0,0,0,.12-.48.52.52,0,0,0-.2-.45,1.06,1.06,0,0,0-.64-.15,2.44,2.44,0,0,0-.53.05,2.24,2.24,0,0,0-.48.13v-.82a2.68,2.68,0,0,1,.52-.12,4.28,4.28,0,0,1,.6,0,2.17,2.17,0,0,1,1.29.32,1.16,1.16,0,0,1,.43,1,1.73,1.73,0,0,1-.15.7,3.33,3.33,0,0,1-.5.78l-.81,1Z"/><path class="cls-5" d="M134.23,123.21a.85.85,0,0,0,.27-.47,4.5,4.5,0,0,0,0-1.79.85.85,0,0,0-.27-.47.73.73,0,0,0-.86,0,.84.84,0,0,0-.26.47,4.06,4.06,0,0,0,0,1.79.84.84,0,0,0,.26.47.69.69,0,0,0,.86,0m-1.75.39a3.58,3.58,0,0,1,0-3.51,1.81,1.81,0,0,1,2.64,0,2.76,2.76,0,0,1,.46,1.76,2.8,2.8,0,0,1-.46,1.75,1.79,1.79,0,0,1-2.64,0"/><path class="cls-5" d="M139,123.29v.83h-3v-.54l1.27-1.57a4.05,4.05,0,0,0,.41-.61,1.13,1.13,0,0,0,.12-.48.52.52,0,0,0-.2-.45,1.08,1.08,0,0,0-.64-.15,2.38,2.38,0,0,0-.53.05,2.34,2.34,0,0,0-.49.13v-.82a3,3,0,0,1,.53-.12,4.27,4.27,0,0,1,.59,0,2.2,2.2,0,0,1,1.3.32,1.16,1.16,0,0,1,.43,1,1.73,1.73,0,0,1-.15.7,3.69,3.69,0,0,1-.5.78l-.81,1Z"/><path class="cls-5" d="M141.63,123.21a.91.91,0,0,0,.26-.47,4.5,4.5,0,0,0,0-1.79.91.91,0,0,0-.26-.47.64.64,0,0,0-.43-.14.65.65,0,0,0-.44.14.91.91,0,0,0-.26.47,4.5,4.5,0,0,0,0,1.79.91.91,0,0,0,.26.47.65.65,0,0,0,.44.15.64.64,0,0,0,.43-.15m-1.75.39a3.58,3.58,0,0,1,0-3.51,1.61,1.61,0,0,1,1.32-.57,1.57,1.57,0,0,1,1.31.57,2.76,2.76,0,0,1,.46,1.76,2.73,2.73,0,0,1-.46,1.75,1.78,1.78,0,0,1-2.63,0"/><path class="cls-5" d="M195.59,123.29v.83h-3v-.54l1.26-1.57a2.94,2.94,0,0,0,.41-.61,1.13,1.13,0,0,0,.12-.48.5.5,0,0,0-.2-.45,1,1,0,0,0-.63-.15,2.47,2.47,0,0,0-.54.05,2.42,2.42,0,0,0-.48.13v-.82a2.8,2.8,0,0,1,.53-.12,4,4,0,0,1,.59,0,2.15,2.15,0,0,1,1.29.32,1.16,1.16,0,0,1,.44,1,1.93,1.93,0,0,1-.16.7,3,3,0,0,1-.5.78l-.81,1Z"/><path class="cls-5" d="M198.21,123.21a.85.85,0,0,0,.27-.47,4.5,4.5,0,0,0,0-1.79.85.85,0,0,0-.27-.47.6.6,0,0,0-.43-.14.64.64,0,0,0-.43.14.91.91,0,0,0-.26.47,4.5,4.5,0,0,0,0,1.79.84.84,0,0,0,.26.47.63.63,0,0,0,.43.15.61.61,0,0,0,.43-.15m-1.74.39a3.51,3.51,0,0,1,0-3.51,1.57,1.57,0,0,1,1.31-.57,1.61,1.61,0,0,1,1.32.57,2.76,2.76,0,0,1,.46,1.76,2.73,2.73,0,0,1-.46,1.75,1.61,1.61,0,0,1-1.32.58,1.58,1.58,0,0,1-1.31-.58"/><path class="cls-5" d="M203,123.29v.83h-3v-.54l1.27-1.57a3.41,3.41,0,0,0,.41-.61,1.13,1.13,0,0,0,.12-.48.52.52,0,0,0-.2-.45,1.08,1.08,0,0,0-.64-.15,2.38,2.38,0,0,0-.53.05,2.34,2.34,0,0,0-.49.13v-.82a3,3,0,0,1,.53-.12,4.27,4.27,0,0,1,.59,0,2.2,2.2,0,0,1,1.3.32,1.16,1.16,0,0,1,.43,1,1.73,1.73,0,0,1-.15.7,3.69,3.69,0,0,1-.5.78l-.81,1Z"/><polygon class="cls-5" points="204.6 119.56 203.21 120.52 203.21 121.46 204.24 120.74 204.24 124.12 205.25 124.12 205.25 119.56 204.6 119.56"/></svg>