<svg id="Layer_1" data-name="Layer 1" xmlns="http://www.w3.org/2000/svg" viewBox="0 0 211.17 139.67"><defs><style>.cls-1{fill:#41bbf9;}.cls-2{fill:#3960ad;}.cls-3{fill:#22a3f2;}.cls-4{fill:#228cc6;}.cls-5{fill:#1568a0;}.cls-6{fill:#124e7c;}.cls-7{fill:#0b385e;}.cls-8{fill:#c9c9c9;}</style></defs><rect class="cls-1" x="71.61" y="0.5" width="123.87" height="17.75"/><path class="cls-2" d="M196.51,18.75H71.64V0H196.51Zm-123.87-1H195.51V1H72.64Z" transform="translate(-0.53 0)"/><rect class="cls-3" x="71.61" y="24.68" width="101.07" height="17.75"/><path class="cls-2" d="M173.71,42.93H71.64V24.19H173.71Zm-101.07-1H172.71V25.19H72.64Z" transform="translate(-0.53 0)"/><rect class="cls-4" x="71.61" y="48.87" width="93.55" height="17.75"/><path class="cls-2" d="M166.18,67.12H71.64V48.37h94.54Zm-93.54-1h92.54V49.37H72.64Z" transform="translate(-0.53 0)"/><rect class="cls-5" x="71.61" y="73.06" width="89.06" height="17.75"/><path class="cls-2" d="M161.69,91.3h-90V72.56h90.05Zm-89-1h88.05V73.56h-88Z" transform="translate(-0.53 0)"/><rect class="cls-6" x="71.61" y="97.24" width="88.04" height="17.75"/><path class="cls-2" d="M160.68,115.49h-89V96.74h89Zm-88-1h87V97.74h-87Z" transform="translate(-0.53 0)"/><rect class="cls-7" x="71.61" y="121.43" width="88.04" height="17.75"/><path class="cls-2" d="M160.68,139.67h-89V120.93h89Zm-88-1h87V121.93h-87Z" transform="translate(-0.53 0)"/><path class="cls-8" d="M36.21,6.28v2H38.5v-2h.61V11H38.5V8.79H36.21V11H35.6V6.28Z" transform="translate(-0.53 0)"/><path class="cls-8" d="M40.49,9.42a1.09,1.09,0,0,0,1.16,1.18,2.16,2.16,0,0,0,.94-.18l.11.45a2.91,2.91,0,0,1-1.13.21A1.58,1.58,0,0,1,39.9,9.37a1.65,1.65,0,0,1,1.59-1.83,1.43,1.43,0,0,1,1.4,1.6,1.8,1.8,0,0,1,0,.28ZM42.3,9a.88.88,0,0,0-.86-1,1,1,0,0,0-.94,1Z" transform="translate(-0.53 0)"/><path class="cls-8" d="M45.53,11l-.05-.43h0a1.27,1.27,0,0,1-1,.5,1,1,0,0,1-1-1c0-.82.73-1.27,2-1.26V8.78A.7.7,0,0,0,44.66,8a1.66,1.66,0,0,0-.89.26l-.14-.41a2.14,2.14,0,0,1,1.12-.3c1,0,1.29.71,1.29,1.39v1.26a5.16,5.16,0,0,0,.05.82Zm-.09-1.73c-.67,0-1.44.1-1.44.76a.55.55,0,0,0,.59.59.85.85,0,0,0,.82-.57.64.64,0,0,0,0-.2Z" transform="translate(-0.53 0)"/><path class="cls-8" d="M47,6h.62v5H47Z" transform="translate(-0.53 0)"/><path class="cls-8" d="M49.42,6.64v1h.89v.46h-.89V9.91c0,.42.12.66.47.66a1.33,1.33,0,0,0,.35,0l0,.46a1.49,1.49,0,0,1-.55.09.89.89,0,0,1-.66-.26,1.26,1.26,0,0,1-.24-.89V8.08H48.3V7.62h.52V6.8Z" transform="translate(-0.53 0)"/><path class="cls-8" d="M51,6h.61V8.15h0a1.16,1.16,0,0,1,.44-.44,1.32,1.32,0,0,1,.63-.17c.45,0,1.18.28,1.18,1.45v2h-.61V9.06c0-.55-.21-1-.79-1a.87.87,0,0,0-.82.62.63.63,0,0,0,0,.29v2H51Z" transform="translate(-0.53 0)"/><path class="cls-8" d="M57.3,10.88a2.32,2.32,0,0,1-1,.2,1.61,1.61,0,0,1-1.69-1.73,1.72,1.72,0,0,1,1.82-1.8,2.1,2.1,0,0,1,.85.17l-.14.48A1.35,1.35,0,0,0,56.46,8a1.17,1.17,0,0,0-1.2,1.28,1.17,1.17,0,0,0,1.18,1.27,1.8,1.8,0,0,0,.75-.17Z" transform="translate(-0.53 0)"/><path class="cls-8" d="M59.9,11l0-.43h0a1.29,1.29,0,0,1-1,.5,1,1,0,0,1-1-1c0-.82.73-1.27,2-1.26V8.78A.7.7,0,0,0,59,8a1.65,1.65,0,0,0-.88.26L58,7.84a2.1,2.1,0,0,1,1.11-.3c1,0,1.29.71,1.29,1.39v1.26a4.15,4.15,0,0,0,.06.82Zm-.1-1.73c-.67,0-1.43.1-1.43.76a.54.54,0,0,0,.58.59.85.85,0,0,0,.82-.57.64.64,0,0,0,0-.2Z" transform="translate(-0.53 0)"/><path class="cls-8" d="M61.39,8.67c0-.4,0-.74,0-1h.54l0,.66h0a1,1,0,0,1,.94-.74l.18,0v.58l-.21,0a.86.86,0,0,0-.83.79,2.36,2.36,0,0,0,0,.29V11h-.61Z" transform="translate(-0.53 0)"/><path class="cls-8" d="M64,9.42a1.08,1.08,0,0,0,1.16,1.18,2.2,2.2,0,0,0,.94-.18l.1.45a2.91,2.91,0,0,1-1.13.21,1.57,1.57,0,0,1-1.66-1.71A1.64,1.64,0,0,1,65,7.54a1.44,1.44,0,0,1,1.4,1.6c0,.12,0,.22,0,.28ZM65.76,9a.87.87,0,0,0-.85-1A1,1,0,0,0,64,9Z" transform="translate(-0.53 0)"/><path class="cls-8" d="M9,30.06H11.5v.51H9.57v1.57h1.78v.5H9.57v2.14H9Z" transform="translate(-0.53 0)"/><path class="cls-8" d="M12.86,30.43a.39.39,0,0,1-.77,0,.38.38,0,0,1,.39-.38A.37.37,0,0,1,12.86,30.43Zm-.69,4.35V31.39h.62v3.39Z" transform="translate(-0.53 0)"/><path class="cls-8" d="M13.81,32.3c0-.35,0-.63,0-.91h.55l0,.56h0a1.26,1.26,0,0,1,1.13-.64c.46,0,1.19.28,1.19,1.44v2h-.61v-2c0-.54-.21-1-.79-1a.87.87,0,0,0-.82.63.84.84,0,0,0-.05.29v2h-.61Z" transform="translate(-0.53 0)"/><path class="cls-8" d="M19.57,34.78l-.05-.43h0a1.25,1.25,0,0,1-1,.5,1,1,0,0,1-1-1c0-.82.72-1.27,2-1.26v-.07a.69.69,0,0,0-.77-.78,1.64,1.64,0,0,0-.88.25l-.14-.41a2.13,2.13,0,0,1,1.11-.3c1,0,1.29.71,1.29,1.39V34a5,5,0,0,0,.06.82Zm-.09-1.73c-.67,0-1.44.1-1.44.76a.55.55,0,0,0,.58.59.85.85,0,0,0,.82-.57.65.65,0,0,0,0-.19Z" transform="translate(-0.53 0)"/><path class="cls-8" d="M21.07,32.3c0-.35,0-.63,0-.91h.54l0,.56h0a1.25,1.25,0,0,1,1.12-.64c.47,0,1.2.28,1.2,1.44v2h-.62v-2c0-.54-.2-1-.78-1a.88.88,0,0,0-.83.63,1.19,1.19,0,0,0,0,.29v2h-.61Z" transform="translate(-0.53 0)"/><path class="cls-8" d="M27.37,34.65a2.33,2.33,0,0,1-1,.2,1.61,1.61,0,0,1-1.68-1.73,1.72,1.72,0,0,1,1.82-1.8,2.14,2.14,0,0,1,.85.17l-.14.48a1.38,1.38,0,0,0-.71-.16,1.28,1.28,0,0,0,0,2.55,1.66,1.66,0,0,0,.75-.17Z" transform="translate(-0.53 0)"/><path class="cls-8" d="M28.4,33.19a1.08,1.08,0,0,0,1.16,1.18,2.39,2.39,0,0,0,.94-.17l.1.44a2.91,2.91,0,0,1-1.13.21,1.57,1.57,0,0,1-1.66-1.71,1.65,1.65,0,0,1,1.59-1.83,1.44,1.44,0,0,1,1.4,1.6c0,.12,0,.22,0,.28Zm1.8-.44a.87.87,0,0,0-.85-1,1,1,0,0,0-1,1Z" transform="translate(-0.53 0)"/><path class="cls-8" d="M36,34.78l-.44-.46a2,2,0,0,1-1.38.53,1.33,1.33,0,0,1-1.45-1.32,1.55,1.55,0,0,1,.92-1.38v0a1.65,1.65,0,0,1-.39-1A1.14,1.14,0,0,1,34.48,30a1,1,0,0,1,1,1c0,.5-.28.89-1,1.26v0l1.14,1.32a3.43,3.43,0,0,0,.46-1.38h.56A3.61,3.61,0,0,1,36,33.94l.78.84ZM35.28,34c-.28-.3-.81-.88-1.33-1.48a1.14,1.14,0,0,0-.61,1,.93.93,0,0,0,1,1A1.32,1.32,0,0,0,35.28,34Zm-1.44-2.87a1.33,1.33,0,0,0,.36.84c.47-.27.78-.52.78-.92a.55.55,0,0,0-.54-.61A.61.61,0,0,0,33.84,31.09Z" transform="translate(-0.53 0)"/><path class="cls-8" d="M39.39,30.06v4.72h-.61V30.06Z" transform="translate(-0.53 0)"/><path class="cls-8" d="M40.5,32.3c0-.35,0-.63,0-.91H41l0,.56h0a1.26,1.26,0,0,1,1.13-.64c.46,0,1.19.28,1.19,1.44v2h-.61v-2c0-.54-.21-1-.79-1a.87.87,0,0,0-.82.63.84.84,0,0,0,0,.29v2H40.5Z" transform="translate(-0.53 0)"/><path class="cls-8" d="M44.3,34.15a1.58,1.58,0,0,0,.81.24c.45,0,.66-.22.66-.5s-.18-.46-.63-.63c-.61-.21-.9-.55-.9-1a1,1,0,0,1,1.17-1,1.72,1.72,0,0,1,.84.21l-.16.45a1.26,1.26,0,0,0-.69-.2c-.37,0-.57.21-.57.46s.2.41.65.58.88.52.88,1-.46,1-1.26,1a2,2,0,0,1-1-.23Z" transform="translate(-0.53 0)"/><path class="cls-8" d="M50,33.85q0,.52,0,.93h-.55l0-.56h0a1.25,1.25,0,0,1-1.12.63c-.53,0-1.17-.29-1.17-1.48v-2h.62v1.87c0,.65.2,1.08.76,1.08a.88.88,0,0,0,.81-.56,1,1,0,0,0,.06-.31V31.39H50Z" transform="translate(-0.53 0)"/><path class="cls-8" d="M51,32.44q0-.59,0-1h.54l0,.66h0a1,1,0,0,1,.94-.74l.18,0v.58l-.21,0a.86.86,0,0,0-.83.79,2.36,2.36,0,0,0,0,.29v1.81H51Z" transform="translate(-0.53 0)"/><path class="cls-8" d="M55.14,34.78l0-.43h0a1.24,1.24,0,0,1-1,.5,1,1,0,0,1-1-1c0-.82.73-1.27,2-1.26v-.07a.7.7,0,0,0-.77-.78,1.65,1.65,0,0,0-.89.25l-.14-.41a2.14,2.14,0,0,1,1.12-.3c1,0,1.29.71,1.29,1.39V34a5.08,5.08,0,0,0,.05.82Zm-.09-1.73c-.67,0-1.43.1-1.43.76a.54.54,0,0,0,.58.59.85.85,0,0,0,.82-.57.63.63,0,0,0,0-.19Z" transform="translate(-0.53 0)"/><path class="cls-8" d="M56.64,32.3c0-.35,0-.63,0-.91h.55l0,.56h0a1.25,1.25,0,0,1,1.12-.64c.47,0,1.2.28,1.2,1.44v2h-.62v-2c0-.54-.2-1-.79-1a.87.87,0,0,0-.82.63.85.85,0,0,0,0,.29v2h-.62Z" transform="translate(-0.53 0)"/><path class="cls-8" d="M62.94,34.65a2.32,2.32,0,0,1-1,.2,1.61,1.61,0,0,1-1.69-1.73,1.72,1.72,0,0,1,1.82-1.8,2.1,2.1,0,0,1,.85.17l-.14.48a1.32,1.32,0,0,0-.71-.16,1.28,1.28,0,0,0,0,2.55,1.74,1.74,0,0,0,.76-.17Z" transform="translate(-0.53 0)"/><path class="cls-8" d="M64,33.19a1.08,1.08,0,0,0,1.16,1.18,2.39,2.39,0,0,0,.94-.17l.1.44a2.81,2.81,0,0,1-1.12.21,1.58,1.58,0,0,1-1.67-1.71A1.65,1.65,0,0,1,65,31.31a1.43,1.43,0,0,1,1.4,1.6,1.8,1.8,0,0,1,0,.28Zm1.81-.44a.89.89,0,0,0-.86-1,1,1,0,0,0-.94,1Z" transform="translate(-0.53 0)"/><path class="cls-8" d="M33.14,53.83v4.72h-.61V53.83Z" transform="translate(-0.53 0)"/><path class="cls-8" d="M34.25,56.08c0-.35,0-.64,0-.92h.55l0,.56h0a1.26,1.26,0,0,1,1.13-.64c.46,0,1.19.28,1.19,1.44v2h-.61V56.6c0-.55-.21-1-.79-1a.93.93,0,0,0-.87.92v2h-.61Z" transform="translate(-0.53 0)"/><path class="cls-8" d="M38.2,58.55V55.63h-.48v-.47h.48V55a1.57,1.57,0,0,1,.39-1.18,1.15,1.15,0,0,1,.82-.32,1.42,1.42,0,0,1,.53.1l-.08.47a1,1,0,0,0-.4-.07c-.52,0-.66.46-.66,1v.18h.82v.47H38.8v2.92Z" transform="translate(-0.53 0)"/><path class="cls-8" d="M43.16,56.83a1.66,1.66,0,0,1-1.69,1.8,1.61,1.61,0,0,1-1.62-1.75,1.66,1.66,0,0,1,1.68-1.8A1.61,1.61,0,0,1,43.16,56.83Zm-2.69,0c0,.74.43,1.3,1,1.3s1-.55,1-1.31c0-.58-.29-1.31-1-1.31S40.47,56.22,40.47,56.86Z" transform="translate(-0.53 0)"/><path class="cls-8" d="M43.94,56.22c0-.4,0-.74,0-1.06h.54l0,.66h0a1,1,0,0,1,.93-.74l.18,0v.59a.66.66,0,0,0-.21,0,.87.87,0,0,0-.83.8,2.19,2.19,0,0,0,0,.28v1.81h-.6Z" transform="translate(-0.53 0)"/><path class="cls-8" d="M46.25,56.08c0-.35,0-.64,0-.92h.54l0,.55h0a1.14,1.14,0,0,1,1.06-.63,1,1,0,0,1,1,.68h0a1.51,1.51,0,0,1,.38-.44,1.18,1.18,0,0,1,.75-.24c.45,0,1.11.3,1.11,1.47v2h-.6V56.63c0-.65-.24-1-.73-1a.8.8,0,0,0-.73.56.91.91,0,0,0-.05.31v2.09h-.6v-2c0-.54-.24-.93-.71-.93a.83.83,0,0,0-.76.61.76.76,0,0,0,0,.3v2h-.6Z" transform="translate(-0.53 0)"/><path class="cls-8" d="M54,58.55l-.05-.43h0a1.25,1.25,0,0,1-1,.51,1,1,0,0,1-1-1c0-.82.73-1.26,2-1.26v-.07a.69.69,0,0,0-.77-.78,1.74,1.74,0,0,0-.88.25l-.14-.41a2.14,2.14,0,0,1,1.12-.3c1,0,1.28.71,1.28,1.39v1.27a5,5,0,0,0,.06.81Zm-.09-1.73c-.67,0-1.44.1-1.44.76a.55.55,0,0,0,.58.59.83.83,0,0,0,.82-.57.65.65,0,0,0,0-.19Z" transform="translate(-0.53 0)"/><path class="cls-8" d="M56.18,54.19v1h.88v.47h-.88v1.83c0,.42.12.65.46.65a1.49,1.49,0,0,0,.36,0l0,.47a1.78,1.78,0,0,1-.55.08.86.86,0,0,1-.67-.26,1.27,1.27,0,0,1-.23-.88V55.63h-.53v-.47h.53v-.81Z" transform="translate(-0.53 0)"/><path class="cls-8" d="M58.44,54.21a.38.38,0,1,1-.76,0,.38.38,0,0,1,.38-.39A.37.37,0,0,1,58.44,54.21Zm-.69,4.34V55.16h.62v3.39Z" transform="translate(-0.53 0)"/><path class="cls-8" d="M62.46,56.83a1.66,1.66,0,0,1-1.69,1.8,1.61,1.61,0,0,1-1.62-1.75,1.66,1.66,0,0,1,1.68-1.8A1.61,1.61,0,0,1,62.46,56.83Zm-2.69,0c0,.74.43,1.3,1,1.3s1-.55,1-1.31c0-.58-.29-1.31-1-1.31S59.77,56.22,59.77,56.86Z" transform="translate(-0.53 0)"/><path class="cls-8" d="M63.23,56.08c0-.35,0-.64,0-.92h.54l0,.56h0a1.25,1.25,0,0,1,1.12-.64c.47,0,1.2.28,1.2,1.44v2H65.5V56.6c0-.55-.2-1-.78-1a.9.9,0,0,0-.87.92v2h-.62Z" transform="translate(-0.53 0)"/><path class="cls-8" d="M.53,79.65a6.88,6.88,0,0,1,1.17-.1A2,2,0,0,1,3,80a1.28,1.28,0,0,1,.41,1,1.38,1.38,0,0,1-.37,1,1.91,1.91,0,0,1-1.44.52,2.43,2.43,0,0,1-.49,0v1.89H.53Zm.61,2.27a1.82,1.82,0,0,0,.51,0c.73,0,1.18-.36,1.18-1S2.39,80,1.72,80a2.49,2.49,0,0,0-.58,0Z" transform="translate(-0.53 0)"/><path class="cls-8" d="M4.3,82c0-.4,0-.74,0-1.06h.54l0,.67h0a1,1,0,0,1,.94-.75l.17,0v.59a.62.62,0,0,0-.21,0,.86.86,0,0,0-.82.8,1.2,1.2,0,0,0,0,.28v1.81H4.3Z" transform="translate(-0.53 0)"/><path class="cls-8" d="M9.72,82.59A1.66,1.66,0,0,1,8,84.39a1.61,1.61,0,0,1-1.62-1.75,1.66,1.66,0,0,1,1.68-1.8A1.61,1.61,0,0,1,9.72,82.59ZM7,82.62c0,.75.43,1.31,1,1.31s1-.56,1-1.32c0-.58-.29-1.3-1-1.3S7,82,7,82.62Z" transform="translate(-0.53 0)"/><path class="cls-8" d="M10.62,84.31V81.39h-.48v-.47h.48v-.16A1.57,1.57,0,0,1,11,79.58a1.16,1.16,0,0,1,.83-.32,1.37,1.37,0,0,1,.52.1l-.08.48a.81.81,0,0,0-.39-.08c-.53,0-.66.46-.66,1v.18h.82v.47h-.82v2.92Z" transform="translate(-0.53 0)"/><path class="cls-8" d="M13,82.73a1.08,1.08,0,0,0,1.16,1.17,2.22,2.22,0,0,0,.94-.17l.1.44a2.7,2.7,0,0,1-1.13.21,1.57,1.57,0,0,1-1.66-1.71A1.65,1.65,0,0,1,14,80.84a1.44,1.44,0,0,1,1.4,1.6c0,.13,0,.23,0,.29Zm1.8-.44a.87.87,0,0,0-.85-1,1,1,0,0,0-1,1Z" transform="translate(-0.53 0)"/><path class="cls-8" d="M16.15,83.68a1.58,1.58,0,0,0,.81.25c.45,0,.66-.23.66-.51S17.44,83,17,82.8c-.61-.22-.9-.56-.9-1a1,1,0,0,1,1.17-1,1.72,1.72,0,0,1,.84.21l-.16.45a1.36,1.36,0,0,0-.69-.19c-.37,0-.57.21-.57.46s.2.4.65.57.88.52.88,1-.46,1-1.26,1a2,2,0,0,1-1-.23Z" transform="translate(-0.53 0)"/><path class="cls-8" d="M19,83.68a1.66,1.66,0,0,0,.82.25c.44,0,.65-.23.65-.51s-.17-.45-.63-.62-.89-.56-.89-1a1,1,0,0,1,1.17-1,1.71,1.71,0,0,1,.83.21l-.15.45a1.4,1.4,0,0,0-.7-.19c-.36,0-.56.21-.56.46s.2.4.64.57.89.52.89,1-.46,1-1.27,1a1.93,1.93,0,0,1-1-.23Z" transform="translate(-0.53 0)"/><path class="cls-8" d="M22.59,80a.38.38,0,1,1-.76,0,.38.38,0,0,1,.38-.39A.37.37,0,0,1,22.59,80Zm-.69,4.34V80.92h.62v3.39Z" transform="translate(-0.53 0)"/><path class="cls-8" d="M26.67,82.59A1.66,1.66,0,0,1,25,84.39a1.62,1.62,0,0,1-1.62-1.75A1.66,1.66,0,0,1,25,80.84,1.61,1.61,0,0,1,26.67,82.59Zm-2.69,0c0,.75.43,1.31,1,1.31s1-.56,1-1.32c0-.58-.29-1.3-1-1.3S24,82,24,82.62Z" transform="translate(-0.53 0)"/><path class="cls-8" d="M27.51,81.84c0-.35,0-.64,0-.92H28l0,.56h0a1.25,1.25,0,0,1,1.12-.64c.47,0,1.2.28,1.2,1.45v2h-.62v-2c0-.55-.2-1-.79-1a.87.87,0,0,0-.82.64.79.79,0,0,0,0,.28v2h-.62Z" transform="translate(-0.53 0)"/><path class="cls-8" d="M33.33,84.31l0-.43h0a1.27,1.27,0,0,1-1,.51,1,1,0,0,1-1-1c0-.82.73-1.26,2-1.26v-.07a.7.7,0,0,0-.77-.78,1.71,1.71,0,0,0-.88.25l-.14-.41a2.1,2.1,0,0,1,1.11-.3c1,0,1.29.71,1.29,1.39V83.5a4,4,0,0,0,.06.81Zm-.09-1.73c-.67,0-1.43.11-1.43.76a.54.54,0,0,0,.58.59.85.85,0,0,0,.82-.56.75.75,0,0,0,0-.2Z" transform="translate(-0.53 0)"/><path class="cls-8" d="M34.9,79.34h.61v5H34.9Z" transform="translate(-0.53 0)"/><path class="cls-8" d="M36.09,84.59l2-5.08h.47l-2,5.08Z" transform="translate(-0.53 0)"/><path class="cls-8" d="M39,83.57a2.12,2.12,0,0,0,1.09.31c.63,0,1-.33,1-.81s-.25-.69-.89-.94S39,81.46,39,80.8a1.36,1.36,0,0,1,1.53-1.29,2.25,2.25,0,0,1,1,.23l-.16.5a2,2,0,0,0-.9-.22c-.64,0-.89.38-.89.7s.29.66.94.91c.8.31,1.2.7,1.2,1.39s-.54,1.36-1.65,1.36a2.41,2.41,0,0,1-1.2-.3Z" transform="translate(-0.53 0)"/><path class="cls-8" d="M45,84.18a2.13,2.13,0,0,1-1,.2,1.61,1.61,0,0,1-1.69-1.73,1.73,1.73,0,0,1,1.82-1.8A2,2,0,0,1,45,81l-.14.47a1.5,1.5,0,0,0-.72-.16A1.17,1.17,0,0,0,43,82.62a1.16,1.16,0,0,0,1.17,1.27,1.74,1.74,0,0,0,.76-.17Z" transform="translate(-0.53 0)"/><path class="cls-8" d="M46.47,80a.36.36,0,0,1-.39.38.37.37,0,0,1-.37-.38.38.38,0,0,1,.38-.39A.36.36,0,0,1,46.47,80Zm-.68,4.34V80.92h.61v3.39Z" transform="translate(-0.53 0)"/><path class="cls-8" d="M47.83,82.73A1.09,1.09,0,0,0,49,83.9a2.18,2.18,0,0,0,.94-.17l.11.44a2.74,2.74,0,0,1-1.13.21,1.58,1.58,0,0,1-1.67-1.71,1.65,1.65,0,0,1,1.59-1.83,1.44,1.44,0,0,1,1.4,1.6,1.85,1.85,0,0,1,0,.29Zm1.81-.44a.87.87,0,0,0-.86-1,1,1,0,0,0-.94,1Z" transform="translate(-0.53 0)"/><path class="cls-8" d="M51.06,81.84c0-.35,0-.64,0-.92h.55l0,.56h0a1.27,1.27,0,0,1,1.13-.64c.46,0,1.19.28,1.19,1.45v2h-.61v-2c0-.55-.21-1-.79-1a.87.87,0,0,0-.82.64.78.78,0,0,0,0,.28v2h-.61Z" transform="translate(-0.53 0)"/><path class="cls-8" d="M55.75,80v1h.88v.47h-.88v1.83c0,.42.12.66.46.66a1.06,1.06,0,0,0,.36,0l0,.47a1.52,1.52,0,0,1-.55.08.86.86,0,0,1-.67-.26,1.27,1.27,0,0,1-.23-.88V81.39h-.53v-.47h.53v-.81Z" transform="translate(-0.53 0)"/><path class="cls-8" d="M58.07,80a.38.38,0,1,1-.76,0,.38.38,0,0,1,.38-.39A.37.37,0,0,1,58.07,80Zm-.68,4.34V80.92H58v3.39Z" transform="translate(-0.53 0)"/><path class="cls-8" d="M59.15,84.31V81.39h-.48v-.47h.48v-.18a1.36,1.36,0,0,1,1.48-1.48,1.68,1.68,0,0,1,.86.23l-.18.46a1.31,1.31,0,0,0-.71-.19c-.65,0-.84.45-.84,1v.17h2v3.39h-.61V81.39H59.76v2.92Z" transform="translate(-0.53 0)"/><path class="cls-8" d="M65.23,84.18a2.18,2.18,0,0,1-1,.2,1.6,1.6,0,0,1-1.68-1.73,1.72,1.72,0,0,1,1.82-1.8,2,2,0,0,1,.85.18l-.14.47a1.48,1.48,0,0,0-.71-.16,1.18,1.18,0,0,0-1.2,1.28,1.16,1.16,0,0,0,1.18,1.27,1.66,1.66,0,0,0,.75-.17Z" transform="translate(-0.53 0)"/><path class="cls-8" d="M27.76,104c0-.66-.08-1.45-.07-2h0c-.16.56-.36,1.14-.6,1.79l-.83,2.29h-.46L25,103.82a19.08,19.08,0,0,1-.55-1.84h0c0,.59,0,1.38-.09,2.09l-.12,2h-.58l.33-4.72h.77l.81,2.29c.19.58.36,1.09.47,1.59h0a14.57,14.57,0,0,1,.49-1.59l.84-2.29h.78l.29,4.72h-.59Z" transform="translate(-0.53 0)"/><path class="cls-8" d="M31.31,106.09l0-.42h0a1.28,1.28,0,0,1-1,.5,1,1,0,0,1-1-1c0-.82.72-1.27,2-1.26v-.07a.7.7,0,0,0-.77-.79,1.74,1.74,0,0,0-.88.25l-.14-.4a2.13,2.13,0,0,1,1.11-.3c1,0,1.29.7,1.29,1.38v1.27a5,5,0,0,0,.06.81Zm-.09-1.73c-.68,0-1.44.11-1.44.77a.54.54,0,0,0,.58.58.85.85,0,0,0,.82-.56.79.79,0,0,0,0-.2Z" transform="translate(-0.53 0)"/><path class="cls-8" d="M32.81,103.62c0-.35,0-.64,0-.92h.54l0,.56h0a1.25,1.25,0,0,1,1.12-.63c.47,0,1.2.28,1.2,1.44v2h-.62v-2c0-.55-.2-1-.78-1a.87.87,0,0,0-.83.63,1.11,1.11,0,0,0,0,.28v2h-.61Z" transform="translate(-0.53 0)"/><path class="cls-8" d="M39.53,105.17c0,.35,0,.66,0,.92H39l0-.55h0a1.28,1.28,0,0,1-1.12.63c-.53,0-1.17-.29-1.17-1.49v-2h.62v1.88c0,.64.19,1.08.75,1.08a.88.88,0,0,0,.81-.56.79.79,0,0,0,.06-.32V102.7h.62Z" transform="translate(-0.53 0)"/><path class="cls-8" d="M40.61,106.09v-2.92h-.48v-.47h.48v-.16a1.58,1.58,0,0,1,.39-1.18,1.16,1.16,0,0,1,.83-.32,1.37,1.37,0,0,1,.52.1l-.08.48a1,1,0,0,0-.39-.08c-.53,0-.66.46-.66,1v.18H42v.47h-.82v2.92Z" transform="translate(-0.53 0)"/><path class="cls-8" d="M44.47,106.09l0-.42h0a1.29,1.29,0,0,1-1,.5,1,1,0,0,1-1-1c0-.82.73-1.27,2-1.26v-.07a.7.7,0,0,0-.77-.79,1.74,1.74,0,0,0-.88.25l-.14-.4a2.13,2.13,0,0,1,1.11-.3c1,0,1.29.7,1.29,1.38v1.27a5,5,0,0,0,.06.81Zm-.09-1.73c-.68,0-1.44.11-1.44.77a.54.54,0,0,0,.58.58.85.85,0,0,0,.82-.56.79.79,0,0,0,0-.2Z" transform="translate(-0.53 0)"/><path class="cls-8" d="M48.38,106a2.35,2.35,0,0,1-1,.19,1.61,1.61,0,0,1-1.69-1.73,1.72,1.72,0,0,1,1.82-1.8,2,2,0,0,1,.86.18l-.14.47a1.5,1.5,0,0,0-.72-.16,1.18,1.18,0,0,0-1.2,1.29,1.16,1.16,0,0,0,1.18,1.26,1.74,1.74,0,0,0,.76-.17Z" transform="translate(-0.53 0)"/><path class="cls-8" d="M49.93,101.73v1h.88v.47h-.88V105c0,.42.12.66.46.66a1.49,1.49,0,0,0,.36,0l0,.46a1.42,1.42,0,0,1-.54.08.86.86,0,0,1-.67-.26,1.27,1.27,0,0,1-.23-.88v-1.85H48.8v-.47h.53v-.81Z" transform="translate(-0.53 0)"/><path class="cls-8" d="M54.34,105.17c0,.35,0,.66,0,.92h-.55l0-.55h0a1.28,1.28,0,0,1-1.12.63c-.53,0-1.17-.29-1.17-1.49v-2h.62v1.88c0,.64.19,1.08.75,1.08a.91.91,0,0,0,.82-.56,1,1,0,0,0,0-.32V102.7h.62Z" transform="translate(-0.53 0)"/><path class="cls-8" d="M55.36,103.76c0-.4,0-.74,0-1.06h.54l0,.67h0a1,1,0,0,1,.94-.74.44.44,0,0,1,.17,0v.58a.65.65,0,0,0-.21,0A.86.86,0,0,0,56,104a1.23,1.23,0,0,0,0,.29v1.8h-.61Z" transform="translate(-0.53 0)"/><path class="cls-8" d="M58.36,101.75a.39.39,0,1,1-.38-.38A.36.36,0,0,1,58.36,101.75Zm-.69,4.34V102.7h.62v3.39Z" transform="translate(-0.53 0)"/><path class="cls-8" d="M59.31,103.62c0-.35,0-.64,0-.92h.55l0,.56h0a1.25,1.25,0,0,1,1.12-.63c.47,0,1.2.28,1.2,1.44v2h-.61v-2c0-.55-.21-1-.79-1a.88.88,0,0,0-.83.63,1.11,1.11,0,0,0,0,.28v2h-.61Z" transform="translate(-0.53 0)"/><path class="cls-8" d="M66.11,102.7c0,.25,0,.52,0,.93v2a1.94,1.94,0,0,1-.48,1.55,1.78,1.78,0,0,1-1.23.41,2.2,2.2,0,0,1-1.13-.28l.16-.47a1.89,1.89,0,0,0,1,.26c.63,0,1.09-.33,1.09-1.18v-.38h0a1.2,1.2,0,0,1-1.08.57A1.52,1.52,0,0,1,63,104.43a1.63,1.63,0,0,1,1.52-1.8,1.13,1.13,0,0,1,1.06.58h0l0-.51ZM65.48,104a.82.82,0,0,0,0-.28.88.88,0,0,0-.86-.65c-.59,0-1,.5-1,1.28s.34,1.22,1,1.22a.92.92,0,0,0,.86-.63,1.32,1.32,0,0,0,0-.33Z" transform="translate(-0.53 0)"/><path class="cls-8" d="M4.25,125.2a7,7,0,0,1,1.17-.09,2,2,0,0,1,1.33.39,1.3,1.3,0,0,1,.41,1,1.39,1.39,0,0,1-.37,1,2,2,0,0,1-1.44.52,1.85,1.85,0,0,1-.49-.05v1.89H4.25Zm.61,2.28a2.3,2.3,0,0,0,.51,0c.73,0,1.18-.36,1.18-1s-.44-.93-1.11-.93a2.49,2.49,0,0,0-.58,0Z" transform="translate(-0.53 0)"/><path class="cls-8" d="M10.69,128.94c0,.35,0,.66,0,.92h-.54l0-.55h0a1.28,1.28,0,0,1-1.12.63c-.54,0-1.17-.29-1.17-1.48v-2h.61v1.88c0,.65.2,1.08.76,1.08a.89.89,0,0,0,.81-.56.79.79,0,0,0,.06-.32v-2.08h.61Z" transform="translate(-0.53 0)"/><path class="cls-8" d="M11.69,129.86c0-.23,0-.57,0-.87v-4.1h.61V127h0a1.25,1.25,0,0,1,1.15-.62,1.52,1.52,0,0,1,1.43,1.73,1.61,1.61,0,0,1-1.52,1.81,1.2,1.2,0,0,1-1.13-.64h0l0,.56Zm.63-1.35a1.66,1.66,0,0,0,0,.22,1,1,0,0,0,.93.72c.64,0,1-.52,1-1.3s-.35-1.26-1-1.26a1,1,0,0,0-.94.75,1,1,0,0,0,0,.26Z" transform="translate(-0.53 0)"/><path class="cls-8" d="M15.7,124.89h.61v5H15.7Z" transform="translate(-0.53 0)"/><path class="cls-8" d="M18,125.52a.39.39,0,1,1-.38-.38A.36.36,0,0,1,18,125.52Zm-.69,4.34v-3.39H18v3.39Z" transform="translate(-0.53 0)"/><path class="cls-8" d="M21.4,129.74a2.35,2.35,0,0,1-1,.19,1.61,1.61,0,0,1-1.69-1.73,1.73,1.73,0,0,1,1.82-1.8,2.13,2.13,0,0,1,.86.18l-.14.48a1.38,1.38,0,0,0-.72-.17,1.18,1.18,0,0,0-1.19,1.29,1.15,1.15,0,0,0,1.17,1.26,1.92,1.92,0,0,0,.76-.16Z" transform="translate(-0.53 0)"/><path class="cls-8" d="M24.39,128.38l-.49,1.48h-.63l1.6-4.72h.74l1.61,4.72h-.65l-.51-1.48Zm1.55-.48-.46-1.35c-.11-.31-.18-.59-.25-.87h0c-.07.28-.15.57-.24.86l-.46,1.36Z" transform="translate(-0.53 0)"/><path class="cls-8" d="M30.74,124.89V129c0,.3,0,.64,0,.87h-.55l0-.58h0a1.26,1.26,0,0,1-1.15.66,1.54,1.54,0,0,1-1.45-1.72,1.62,1.62,0,0,1,1.52-1.82,1.11,1.11,0,0,1,1,.52h0v-2Zm-.62,3a1.18,1.18,0,0,0,0-.26.91.91,0,0,0-.89-.71c-.64,0-1,.56-1,1.31s.34,1.25,1,1.25a.93.93,0,0,0,.91-.73,1.14,1.14,0,0,0,0-.27Z" transform="translate(-0.53 0)"/><path class="cls-8" d="M31.76,127.39c0-.35,0-.64,0-.92h.54l0,.55h0a1.18,1.18,0,0,1,1.07-.62,1,1,0,0,1,1,.68h0a1.39,1.39,0,0,1,.38-.44,1.13,1.13,0,0,1,.75-.24c.45,0,1.11.29,1.11,1.47v2H36V128c0-.66-.24-1-.74-1a.78.78,0,0,0-.72.56,1,1,0,0,0,0,.31v2.09h-.61v-2c0-.54-.23-.93-.7-.93a.85.85,0,0,0-.77.62.94.94,0,0,0,0,.3v2h-.6Z" transform="translate(-0.53 0)"/><path class="cls-8" d="M38.29,125.52a.39.39,0,1,1-.38-.38A.36.36,0,0,1,38.29,125.52Zm-.69,4.34v-3.39h.62v3.39Z" transform="translate(-0.53 0)"/><path class="cls-8" d="M39.24,127.39c0-.35,0-.64,0-.92h.55l0,.57h0a1.24,1.24,0,0,1,1.13-.64c.46,0,1.19.28,1.19,1.44v2h-.61v-2c0-.55-.21-1-.79-1a.87.87,0,0,0-.82.63.84.84,0,0,0,0,.29v2h-.61Z" transform="translate(-0.53 0)"/><path class="cls-8" d="M43.81,125.52a.38.38,0,1,1-.38-.38A.36.36,0,0,1,43.81,125.52Zm-.69,4.34v-3.39h.62v3.39Z" transform="translate(-0.53 0)"/><path class="cls-8" d="M44.68,129.23a1.58,1.58,0,0,0,.81.25c.45,0,.66-.23.66-.51s-.18-.45-.63-.62c-.61-.22-.9-.55-.9-1a1,1,0,0,1,1.17-1,1.71,1.71,0,0,1,.83.21l-.15.45a1.26,1.26,0,0,0-.69-.2c-.37,0-.57.21-.57.46s.2.41.64.58.89.51.89,1-.46,1-1.27,1a1.93,1.93,0,0,1-.95-.23Z" transform="translate(-0.53 0)"/><path class="cls-8" d="M48.27,125.5v1h.89v.47h-.89v1.83c0,.42.12.66.47.66a1.33,1.33,0,0,0,.35,0l0,.46a1.5,1.5,0,0,1-.54.08.86.86,0,0,1-.67-.26,1.27,1.27,0,0,1-.24-.88v-1.85h-.52v-.47h.52v-.81Z" transform="translate(-0.53 0)"/><path class="cls-8" d="M49.85,127.53c0-.4,0-.74,0-1.06h.54l0,.67h0a1,1,0,0,1,.94-.74.44.44,0,0,1,.17,0V127l-.21,0a.86.86,0,0,0-.82.79,1.23,1.23,0,0,0,0,.29v1.8h-.61Z" transform="translate(-0.53 0)"/><path class="cls-8" d="M54,129.86l0-.42h0a1.28,1.28,0,0,1-1,.5,1,1,0,0,1-1-1c0-.82.73-1.27,2-1.26v-.07a.71.71,0,0,0-.78-.79,1.74,1.74,0,0,0-.88.25l-.14-.4a2.14,2.14,0,0,1,1.12-.3c1,0,1.28.7,1.28,1.38v1.27a4.87,4.87,0,0,0,.06.81Zm-.09-1.73c-.67,0-1.44.11-1.44.77a.55.55,0,0,0,.59.59.82.82,0,0,0,.81-.57.45.45,0,0,0,0-.2Z" transform="translate(-0.53 0)"/><path class="cls-8" d="M56.2,125.5v1h.88v.47H56.2v1.83c0,.42.12.66.46.66a1.49,1.49,0,0,0,.36,0l0,.46a1.52,1.52,0,0,1-.55.08.86.86,0,0,1-.67-.26,1.27,1.27,0,0,1-.23-.88v-1.85h-.53v-.47h.53v-.81Z" transform="translate(-0.53 0)"/><path class="cls-8" d="M58.46,125.52a.38.38,0,1,1-.38-.38A.36.36,0,0,1,58.46,125.52Zm-.69,4.34v-3.39h.62v3.39Z" transform="translate(-0.53 0)"/><path class="cls-8" d="M62.48,128.14a1.66,1.66,0,0,1-1.69,1.8,1.6,1.6,0,0,1-1.62-1.74,1.65,1.65,0,0,1,1.68-1.8A1.6,1.6,0,0,1,62.48,128.14Zm-2.69,0c0,.74.43,1.3,1,1.3s1-.55,1-1.32c0-.57-.29-1.3-1-1.3S59.79,127.53,59.79,128.18Z" transform="translate(-0.53 0)"/><path class="cls-8" d="M63.25,127.39c0-.35,0-.64,0-.92h.54l0,.57h0a1.24,1.24,0,0,1,1.12-.64c.47,0,1.2.28,1.2,1.44v2h-.62v-2c0-.55-.2-1-.78-1a.88.88,0,0,0-.83.63.85.85,0,0,0,0,.29v2h-.62Z" transform="translate(-0.53 0)"/><path class="cls-8" d="M201.5,11v-.38l.49-.47c1.16-1.11,1.69-1.69,1.69-2.38a.81.81,0,0,0-.9-.89,1.54,1.54,0,0,0-1,.39l-.19-.44a2,2,0,0,1,1.29-.46,1.28,1.28,0,0,1,1.39,1.32c0,.84-.61,1.52-1.57,2.45l-.36.33v0h2V11Z" transform="translate(-0.53 0)"/><path class="cls-8" d="M205.24,10.29a2.09,2.09,0,0,0,1,.29c.79,0,1-.51,1-.88,0-.64-.58-.91-1.18-.91h-.34V8.32h.34c.45,0,1-.23,1-.77,0-.36-.23-.68-.8-.68a1.69,1.69,0,0,0-.91.3l-.16-.45a2.13,2.13,0,0,1,1.19-.35c.9,0,1.3.53,1.3,1.08a1.15,1.15,0,0,1-.84,1.08h0a1.19,1.19,0,0,1,1,1.17c0,.73-.57,1.37-1.66,1.37a2.44,2.44,0,0,1-1.19-.31Z" transform="translate(-0.53 0)"/><path class="cls-8" d="M208.63,9.84a1.31,1.31,0,0,1,.9-1.22v0a1.13,1.13,0,0,1-.73-1,1.28,1.28,0,0,1,1.41-1.21,1.18,1.18,0,0,1,1.33,1.12,1.15,1.15,0,0,1-.75,1.06v0a1.27,1.27,0,0,1,.92,1.17,1.41,1.41,0,0,1-1.55,1.33C209.2,11.08,208.63,10.51,208.63,9.84Zm2.45,0c0-.56-.38-.82-1-1a1,1,0,0,0-.82.94.84.84,0,0,0,.91.87A.83.83,0,0,0,211.08,9.82Zm-1.69-2.28c0,.45.34.7.86.84a.89.89,0,0,0,.7-.83.71.71,0,0,0-.77-.74A.73.73,0,0,0,209.39,7.54Z" transform="translate(-0.53 0)"/><path class="cls-8" d="M179.39,30.79h0l-.79.43-.12-.47,1-.53H180v4.55h-.6Z" transform="translate(-0.53 0)"/><path class="cls-8" d="M182,34.34a3,3,0,0,0,.5,0,1.69,1.69,0,0,0,.95-.45,2,2,0,0,0,.6-1.21h0a1.36,1.36,0,0,1-2.41-.9,1.56,1.56,0,0,1,1.55-1.62c.93,0,1.51.76,1.51,1.92a2.89,2.89,0,0,1-.79,2.14,2.31,2.31,0,0,1-1.32.61,3,3,0,0,1-.57,0Zm.23-2.62a.87.87,0,0,0,.87,1,1,1,0,0,0,.9-.47.49.49,0,0,0,.05-.23c0-.77-.28-1.37-.93-1.37S182.23,31.07,182.23,31.72Z" transform="translate(-0.53 0)"/><path class="cls-8" d="M187.14,34.77V33.53H185v-.41l2-2.9h.66v2.83h.64v.48h-.64v1.24Zm0-1.72V31.53c0-.24,0-.48,0-.72h0c-.14.27-.25.46-.38.67L185.65,33v0Z" transform="translate(-0.53 0)"/><path class="cls-8" d="M172,54.56h0l-.79.43-.12-.47,1-.53h.53v4.55H172Z" transform="translate(-0.53 0)"/><path class="cls-8" d="M174.17,57.39a1.3,1.3,0,0,1,.9-1.22v0a1.13,1.13,0,0,1-.73-1,1.28,1.28,0,0,1,1.41-1.21A1.19,1.19,0,0,1,177.08,55a1.16,1.16,0,0,1-.75,1.07v0a1.26,1.26,0,0,1,.91,1.18,1.4,1.4,0,0,1-1.54,1.32C174.74,58.62,174.17,58.05,174.17,57.39Zm2.45,0c0-.55-.38-.82-1-1a1,1,0,0,0-.82.94.84.84,0,0,0,.91.87A.82.82,0,0,0,176.62,57.36Zm-1.69-2.28c0,.46.34.7.86.84a.89.89,0,0,0,.7-.82.71.71,0,0,0-.77-.75A.73.73,0,0,0,174.93,55.08Z" transform="translate(-0.53 0)"/><path class="cls-8" d="M180.84,56.22c0,1.55-.57,2.4-1.58,2.4s-1.49-.83-1.51-2.34.66-2.37,1.59-2.37S180.84,54.77,180.84,56.22Zm-2.47.07c0,1.18.36,1.85.92,1.85s.94-.73.94-1.89-.29-1.86-.93-1.86S178.37,55.05,178.37,56.29Z" transform="translate(-0.53 0)"/><path class="cls-8" d="M167.52,78.34h0l-.8.42-.11-.47,1-.53h.53v4.55h-.6Z" transform="translate(-0.53 0)"/><path class="cls-8" d="M172.73,77.76v.41l-2,4.14h-.64l2-4v0h-2.22v-.51Z" transform="translate(-0.53 0)"/><path class="cls-8" d="M174.7,78.34h0l-.79.42-.12-.47,1-.53h.53v4.55h-.6Z" transform="translate(-0.53 0)"/><path class="cls-8" d="M167.52,102.11h0l-.8.43-.11-.47,1-.54h.53v4.56h-.6Z" transform="translate(-0.53 0)"/><path class="cls-8" d="M172.37,102a1.92,1.92,0,0,0-.46,0,1.83,1.83,0,0,0-1.58,1.61h0a1.39,1.39,0,0,1,2.47,1,1.52,1.52,0,0,1-1.51,1.6c-1,0-1.61-.75-1.61-1.94a2.86,2.86,0,0,1,.77-2,2.45,2.45,0,0,1,1.45-.67,2.93,2.93,0,0,1,.45,0Zm-.17,2.62a.92.92,0,0,0-.94-1,1,1,0,0,0-.88.56.45.45,0,0,0-.07.27c0,.75.35,1.31,1,1.31S172.2,105.25,172.2,104.59Z" transform="translate(-0.53 0)"/><path class="cls-8" d="M173.72,105.65a2.24,2.24,0,0,0,.5,0,1.74,1.74,0,0,0,.95-.44,2,2,0,0,0,.6-1.21h0a1.36,1.36,0,0,1-2.41-.91,1.55,1.55,0,0,1,1.55-1.61c.93,0,1.51.75,1.51,1.92a2.85,2.85,0,0,1-.79,2.13,2.31,2.31,0,0,1-1.32.61,3.14,3.14,0,0,1-.57,0ZM174,103a.87.87,0,0,0,.87,1,1,1,0,0,0,.9-.48.42.42,0,0,0,.05-.22c0-.78-.28-1.37-.93-1.37S174,102.39,174,103Z" transform="translate(-0.53 0)"/><path class="cls-8" d="M167.52,125.88h0l-.8.43-.11-.47,1-.54h.53v4.56h-.6Z" transform="translate(-0.53 0)"/><path class="cls-8" d="M172.37,125.74a1.92,1.92,0,0,0-.46,0,1.84,1.84,0,0,0-1.58,1.61h0a1.39,1.39,0,0,1,2.47,1,1.52,1.52,0,0,1-1.51,1.6c-1,0-1.61-.75-1.61-1.94a2.86,2.86,0,0,1,.77-2,2.45,2.45,0,0,1,1.45-.67,2.71,2.71,0,0,1,.45,0Zm-.17,2.63a.93.93,0,0,0-.94-1.05,1,1,0,0,0-.88.56.47.47,0,0,0-.07.28c0,.75.35,1.3,1,1.3S172.2,129,172.2,128.37Z" transform="translate(-0.53 0)"/><path class="cls-8" d="M173.72,129.42a2.24,2.24,0,0,0,.5,0,1.68,1.68,0,0,0,.95-.44,2,2,0,0,0,.6-1.21h0a1.36,1.36,0,0,1-2.41-.9,1.55,1.55,0,0,1,1.55-1.62c.93,0,1.51.75,1.51,1.92a2.85,2.85,0,0,1-.79,2.13,2.19,2.19,0,0,1-1.32.61,3.14,3.14,0,0,1-.57,0Zm.23-2.62a.87.87,0,0,0,.87,1,1,1,0,0,0,.9-.48.42.42,0,0,0,.05-.22c0-.78-.28-1.37-.93-1.37S174,126.16,174,126.8Z" transform="translate(-0.53 0)"/></svg>