<svg id="Layer_1" data-name="Layer 1" xmlns="http://www.w3.org/2000/svg" xmlns:xlink="http://www.w3.org/1999/xlink" viewBox="0 0 414.32 169.01"><defs><style>.cls-1{fill:none;}.cls-2{clip-path:url(#clip-path);}.cls-3{fill:#c9c9c9;}.cls-4{fill:#22a3f2;}.cls-5{opacity:0.5;}.cls-6{clip-path:url(#clip-path-3);}.cls-7{fill:#3960ad;}.cls-8{fill:#228cc6;}.cls-9{clip-path:url(#clip-path-4);}.cls-10{fill:#41bbf9;}.cls-11{clip-path:url(#clip-path-5);}.cls-12{fill:#124e7c;}.cls-13{clip-path:url(#clip-path-6);}.cls-14{fill:#1568a0;}.cls-15{clip-path:url(#clip-path-7);}</style><clipPath id="clip-path"><rect class="cls-1" width="414.32" height="169.01"/></clipPath><clipPath id="clip-path-3"><rect class="cls-1" x="96.75" y="-7" width="197.52" height="107.62"/></clipPath><clipPath id="clip-path-4"><rect class="cls-1" x="61.81" y="36.64" width="112.86" height="90.9"/></clipPath><clipPath id="clip-path-5"><rect class="cls-1" x="228.14" y="19.56" width="122.6" height="118.04"/></clipPath><clipPath id="clip-path-6"><rect class="cls-1" x="59.54" y="122.55" width="101.07" height="15.05"/></clipPath><clipPath id="clip-path-7"><rect class="cls-1" x="59.78" y="105.7" width="101.54" height="28.44"/></clipPath></defs><g class="cls-2"><path class="cls-3" d="M77.14,145.61v-5.39h.76L79.63,143a15.92,15.92,0,0,1,1,1.75h0c-.06-.72-.08-1.38-.08-2.22v-2.25h.66v5.39h-.7l-1.72-2.74a18.08,18.08,0,0,1-1-1.79h0c0,.68.06,1.33.06,2.23v2.3Z"/><path class="cls-3" d="M85.89,143.64A1.9,1.9,0,0,1,84,145.7a1.84,1.84,0,0,1-1.86-2A1.89,1.89,0,0,1,84,141.65,1.84,1.84,0,0,1,85.89,143.64Zm-3.07,0c0,.85.48,1.49,1.17,1.49s1.18-.63,1.18-1.5c0-.66-.33-1.49-1.16-1.49S82.82,143,82.82,143.68Z"/><path class="cls-3" d="M87.62,140.63v1.11h1v.53h-1v2.09c0,.48.14.75.53.75a1.86,1.86,0,0,0,.41,0l0,.52a1.63,1.63,0,0,1-.62.1,1,1,0,0,1-.76-.3,1.41,1.41,0,0,1-.27-1v-2.12h-.6v-.53h.6v-.93Z"/><path class="cls-3" d="M93.26,145.61l-.05-.49h0a1.42,1.42,0,0,1-1.18.58,1.1,1.1,0,0,1-1.18-1.11c0-.94.83-1.45,2.32-1.44v-.08a.8.8,0,0,0-.88-.9,1.86,1.86,0,0,0-1,.29L91.1,142a2.46,2.46,0,0,1,1.27-.34c1.18,0,1.47.81,1.47,1.58v1.45a5.25,5.25,0,0,0,.06.93Zm-.1-2c-.77,0-1.64.12-1.64.88a.62.62,0,0,0,.66.67,1,1,0,0,0,.94-.65.85.85,0,0,0,0-.22Z"/><path class="cls-3" d="M95.8,140.63v1.11h1v.53h-1v2.09c0,.48.13.75.53.75a1.75,1.75,0,0,0,.4,0l0,.52a1.69,1.69,0,0,1-.63.1,1,1,0,0,1-.76-.3,1.41,1.41,0,0,1-.27-1v-2.12h-.6v-.53h.6v-.93Z"/><path class="cls-3" d="M101.44,145.61l-.06-.49h0a1.43,1.43,0,0,1-1.18.58A1.1,1.1,0,0,1,99,144.59c0-.94.83-1.45,2.33-1.44v-.08a.8.8,0,0,0-.88-.9,1.9,1.9,0,0,0-1,.29l-.16-.47a2.49,2.49,0,0,1,1.27-.34c1.19,0,1.47.81,1.47,1.58v1.45a5.18,5.18,0,0,0,.07.93Zm-.11-2c-.76,0-1.63.12-1.63.88a.62.62,0,0,0,.66.67,1,1,0,0,0,.93-.65.57.57,0,0,0,0-.22Z"/><path class="cls-3" d="M103.15,139.93h.71v5.68h-.71Z"/><path class="cls-3" d="M105,139.93h.7v5.68H105Z"/><path class="cls-3" d="M112.41,145.43a3.35,3.35,0,0,1-1.42.26,2.52,2.52,0,0,1-2.66-2.73,2.68,2.68,0,0,1,2.81-2.83,3,3,0,0,1,1.28.24l-.17.57a2.48,2.48,0,0,0-1.08-.22,2,2,0,0,0-2.11,2.22,2,2,0,0,0,2.07,2.17,2.72,2.72,0,0,0,1.14-.23Z"/><path class="cls-3" d="M116.68,143.64a1.9,1.9,0,0,1-1.93,2.06,1.84,1.84,0,0,1-1.85-2,1.89,1.89,0,0,1,1.91-2.06A1.83,1.83,0,0,1,116.68,143.64Zm-3.07,0c0,.85.48,1.49,1.17,1.49s1.18-.63,1.18-1.5c0-.66-.33-1.49-1.16-1.49S113.61,143,113.61,143.68Z"/><path class="cls-3" d="M117.57,142.79c0-.4,0-.73,0-1h.62l0,.64h0a1.43,1.43,0,0,1,1.28-.73c.54,0,1.37.32,1.37,1.65v2.31h-.7v-2.23c0-.63-.23-1.15-.9-1.15a1,1,0,0,0-.94.72,1.09,1.09,0,0,0,0,.33v2.33h-.7Z"/><path class="cls-3" d="M124.77,145.47a2.77,2.77,0,0,1-1.12.22,1.84,1.84,0,0,1-1.92-2,2,2,0,0,1,2.08-2.05,2.27,2.27,0,0,1,1,.2l-.16.54a1.7,1.7,0,0,0-.81-.18,1.46,1.46,0,0,0,0,2.91,2.16,2.16,0,0,0,.87-.19Z"/><path class="cls-3" d="M125.94,143.8a1.24,1.24,0,0,0,1.32,1.35,2.37,2.37,0,0,0,1.07-.21l.12.51a3.12,3.12,0,0,1-1.28.24,1.8,1.8,0,0,1-1.91-1.95,1.88,1.88,0,0,1,1.82-2.09,1.64,1.64,0,0,1,1.6,1.82,2.06,2.06,0,0,1,0,.33Zm2.06-.5a1,1,0,0,0-1-1.15,1.18,1.18,0,0,0-1.08,1.15Z"/><path class="cls-3" d="M129.55,143c0-.46,0-.85,0-1.21h.61l0,.76h0a1.17,1.17,0,0,1,1.07-.85.6.6,0,0,1,.2,0v.66a.86.86,0,0,0-.24,0,1,1,0,0,0-.94.9,1.61,1.61,0,0,0,0,.33v2.06h-.7Z"/><path class="cls-3" d="M132.19,142.79c0-.4,0-.73,0-1h.62l0,.64h0a1.42,1.42,0,0,1,1.28-.73c.53,0,1.36.32,1.36,1.65v2.31h-.7v-2.23c0-.63-.23-1.15-.89-1.15a1,1,0,0,0-.95.72,1.09,1.09,0,0,0-.05.33v2.33h-.7Z"/><path class="cls-3" d="M137,143.8a1.25,1.25,0,0,0,1.33,1.35,2.4,2.4,0,0,0,1.07-.21l.12.51a3.17,3.17,0,0,1-1.29.24,1.79,1.79,0,0,1-1.9-1.95,1.88,1.88,0,0,1,1.82-2.09,1.63,1.63,0,0,1,1.59,1.82,2.38,2.38,0,0,1,0,.33Zm2.07-.5a1,1,0,0,0-1-1.15A1.18,1.18,0,0,0,137,143.3Z"/><path class="cls-3" d="M144,139.93v4.68c0,.34,0,.74,0,1h-.63l0-.67h0a1.42,1.42,0,0,1-1.32.76,1.76,1.76,0,0,1-1.65-2,1.85,1.85,0,0,1,1.73-2.08,1.28,1.28,0,0,1,1.17.59h0v-2.31Zm-.7,3.38a1.5,1.5,0,0,0,0-.29,1,1,0,0,0-1-.82c-.73,0-1.16.64-1.16,1.5s.38,1.43,1.14,1.43a1.06,1.06,0,0,0,1-.84,1.45,1.45,0,0,0,0-.3Z"/><path class="cls-3" d="M268.33,143.08h-2.09V145h2.33v.59h-3v-5.39h2.91v.58h-2.21v1.71h2.09Z"/><path class="cls-3" d="M269.78,141.74l.56.83.39.63h0c.13-.23.26-.43.38-.64l.55-.82h.76l-1.32,1.87,1.36,2h-.8l-.57-.87-.42-.67h0c-.13.23-.27.44-.41.67l-.56.87h-.77l1.37-2L269,141.74Z"/><path class="cls-3" d="M274.11,140.63v1.11h1v.53h-1v2.09c0,.48.14.75.53.75a1.93,1.93,0,0,0,.41,0l0,.52a1.65,1.65,0,0,1-.63.1,1,1,0,0,1-.76-.3,1.41,1.41,0,0,1-.27-1v-2.12h-.6v-.53h.6v-.93Z"/><path class="cls-3" d="M275.91,143c0-.46,0-.85,0-1.21h.61l0,.76h0a1.17,1.17,0,0,1,1.07-.85.6.6,0,0,1,.2,0v.66a.86.86,0,0,0-.24,0,1,1,0,0,0-.94.9,1.61,1.61,0,0,0,0,.33v2.06h-.7Z"/><path class="cls-3" d="M278.84,143.8a1.25,1.25,0,0,0,1.33,1.35,2.43,2.43,0,0,0,1.07-.21l.12.51a3.17,3.17,0,0,1-1.29.24,1.79,1.79,0,0,1-1.9-1.95,1.88,1.88,0,0,1,1.81-2.09,1.63,1.63,0,0,1,1.6,1.82,2.38,2.38,0,0,1,0,.33Zm2.06-.5a1,1,0,0,0-1-1.15,1.16,1.16,0,0,0-1.08,1.15Z"/><path class="cls-3" d="M282.45,142.79c0-.4,0-.73,0-1H283l0,.62h0a1.34,1.34,0,0,1,1.22-.71,1.15,1.15,0,0,1,1.1.78h0a1.57,1.57,0,0,1,.43-.51,1.38,1.38,0,0,1,.86-.27c.51,0,1.27.34,1.27,1.68v2.28h-.69v-2.19c0-.75-.27-1.19-.84-1.19a.9.9,0,0,0-.83.64,1.18,1.18,0,0,0-.05.35v2.39h-.69v-2.32c0-.62-.27-1.06-.81-1.06a1,1,0,0,0-.87.7.93.93,0,0,0-.06.34v2.34h-.69Z"/><path class="cls-3" d="M289.52,143.8a1.24,1.24,0,0,0,1.33,1.35,2.43,2.43,0,0,0,1.07-.21l.12.51a3.17,3.17,0,0,1-1.29.24,1.79,1.79,0,0,1-1.9-1.95,1.87,1.87,0,0,1,1.81-2.09,1.63,1.63,0,0,1,1.6,1.82,2.38,2.38,0,0,1,0,.33Zm2.06-.5a1,1,0,0,0-1-1.15,1.17,1.17,0,0,0-1.08,1.15Z"/><path class="cls-3" d="M293.14,139.93h.7v5.68h-.7Z"/><path class="cls-3" d="M295.28,141.74l.85,2.29c.08.25.18.56.24.79h0c.07-.23.15-.53.25-.81l.77-2.27h.74l-1.06,2.76a5.92,5.92,0,0,1-1.32,2.42,2.09,2.09,0,0,1-.87.46l-.17-.6a1.65,1.65,0,0,0,.61-.34,2.12,2.12,0,0,0,.59-.78.43.43,0,0,0,.06-.17.62.62,0,0,0-.05-.18l-1.43-3.57Z"/><path class="cls-3" d="M304.28,145.43a3.44,3.44,0,0,1-1.43.26,2.52,2.52,0,0,1-2.66-2.73,2.68,2.68,0,0,1,2.82-2.83,2.92,2.92,0,0,1,1.27.24l-.16.57a2.53,2.53,0,0,0-1.09-.22,2,2,0,0,0-2.1,2.22,2,2,0,0,0,2.07,2.17,2.7,2.7,0,0,0,1.13-.23Z"/><path class="cls-3" d="M308.54,143.64a1.9,1.9,0,0,1-1.93,2.06,1.84,1.84,0,0,1-1.85-2,1.89,1.89,0,0,1,1.92-2.06A1.83,1.83,0,0,1,308.54,143.64Zm-3.07,0c0,.85.49,1.49,1.18,1.49s1.17-.63,1.17-1.5c0-.66-.33-1.49-1.16-1.49S305.47,143,305.47,143.68Z"/><path class="cls-3" d="M309.43,142.79c0-.4,0-.73,0-1H310l0,.64h0a1.42,1.42,0,0,1,1.28-.73c.53,0,1.37.32,1.37,1.65v2.31H312v-2.23c0-.63-.23-1.15-.89-1.15a1,1,0,0,0-.95.72,1.09,1.09,0,0,0-.05.33v2.33h-.7Z"/><path class="cls-3" d="M316.63,145.47a2.72,2.72,0,0,1-1.11.22,1.84,1.84,0,0,1-1.93-2,2,2,0,0,1,2.08-2.05,2.33,2.33,0,0,1,1,.2l-.17.54a1.67,1.67,0,0,0-.81-.18,1.46,1.46,0,0,0,0,2.91,2.11,2.11,0,0,0,.86-.19Z"/><path class="cls-3" d="M317.8,143.8a1.24,1.24,0,0,0,1.33,1.35,2.43,2.43,0,0,0,1.07-.21l.12.51a3.17,3.17,0,0,1-1.29.24,1.79,1.79,0,0,1-1.9-1.95,1.87,1.87,0,0,1,1.81-2.09,1.64,1.64,0,0,1,1.6,1.82c0,.15,0,.26,0,.33Zm2.06-.5a1,1,0,0,0-1-1.15,1.16,1.16,0,0,0-1.08,1.15Z"/><path class="cls-3" d="M321.41,143c0-.46,0-.85,0-1.21H322l0,.76h0a1.17,1.17,0,0,1,1.08-.85.64.64,0,0,1,.2,0v.66a.93.93,0,0,0-.24,0,1,1,0,0,0-.95.9,2.88,2.88,0,0,0,0,.33v2.06h-.7Z"/><path class="cls-3" d="M324.06,142.79c0-.4,0-.73,0-1h.62l0,.64h0a1.42,1.42,0,0,1,1.28-.73c.53,0,1.37.32,1.37,1.65v2.31h-.71v-2.23c0-.63-.23-1.15-.89-1.15a1,1,0,0,0-.95.72,1.11,1.11,0,0,0,0,.33v2.33h-.71Z"/><path class="cls-3" d="M328.89,143.8a1.25,1.25,0,0,0,1.33,1.35,2.37,2.37,0,0,0,1.07-.21l.12.51a3.16,3.16,0,0,1-1.28.24,1.8,1.8,0,0,1-1.91-1.95,1.88,1.88,0,0,1,1.82-2.09,1.64,1.64,0,0,1,1.6,1.82,2.06,2.06,0,0,1,0,.33Zm2.07-.5a1,1,0,0,0-1-1.15,1.18,1.18,0,0,0-1.08,1.15Z"/><path class="cls-3" d="M335.85,139.93v4.68c0,.34,0,.74,0,1h-.63l0-.67h0a1.42,1.42,0,0,1-1.31.76,1.77,1.77,0,0,1-1.66-2,1.85,1.85,0,0,1,1.74-2.08,1.28,1.28,0,0,1,1.16.59h0v-2.31Zm-.7,3.38a1.5,1.5,0,0,0,0-.29,1,1,0,0,0-1-.82c-.73,0-1.16.64-1.16,1.5s.39,1.43,1.15,1.43a1.06,1.06,0,0,0,1-.84,1.45,1.45,0,0,0,0-.3Z"/><g class="cls-2"><path class="cls-4" d="M166.36,99.63a53.54,53.54,0,0,1,70-6.61l48.94-67A136.58,136.58,0,0,0,105.75,42.91Z"/><g class="cls-5"><g class="cls-6"><path class="cls-7" d="M166.36,99.62l-.36-.33L105.75,42.9l.34-.36A136.6,136.6,0,0,1,284.86,25.67l.41.3-.3.41L236.33,93l-.4-.28a53.54,53.54,0,0,0-69.23,6.53Zm-59.2-56.76,59.17,55.37a54.53,54.53,0,0,1,69.77-6.59l47.77-65.45A135.61,135.61,0,0,0,107.16,42.86Z"/></g></g><path class="cls-8" d="M70.81,111.71l81.69,14.83a53.43,53.43,0,0,1,13.17-26.19L105.06,43.64a136.22,136.22,0,0,0-34.25,68.07"/><g class="cls-5"><g class="cls-9"><path class="cls-7" d="M152.5,126.54,70.81,111.71l.09-.49A136.14,136.14,0,0,1,104.72,44l.34-.37,60.61,56.71-.33.36a53.51,53.51,0,0,0-12.75,25.35ZM72,110.91l79.73,14.47a54.58,54.58,0,0,1,12.56-25L105.12,45.06A135,135,0,0,0,72,110.91Z"/></g></g><path class="cls-10" d="M286.08,26.56l-48.94,67a53.52,53.52,0,0,1,21.6,43h83a136.41,136.41,0,0,0-55.66-110"/><g class="cls-5"><g class="cls-11"><path class="cls-7" d="M341.74,136.6h-83v-.49a53.2,53.2,0,0,0-21.2-42.21l-.39-.3,48.94-67,.4.3A137.36,137.36,0,0,1,341.74,136.1Zm-82-1h81A136.41,136.41,0,0,0,286.29,28L238.53,93.4A54.25,54.25,0,0,1,259.73,135.6Z"/></g></g><path class="cls-12" d="M68.72,129.55q-.18,3.49-.18,7h83c0-.83,0-1.65.07-2.46Z"/><g class="cls-5"><g class="cls-13"><path class="cls-7" d="M151.54,136.6h-83v-.5c0-2,.06-4,.15-6l0-.5.5,0,82.38,4.56v.49c0,.49,0,1,0,1.48Zm-82-1h81c0-.17,0-.35,0-.52l-80.9-4.48C69.6,132.28,69.56,134,69.54,135.6Z"/></g></g><path class="cls-14" d="M151.67,133.14a54.89,54.89,0,0,1,.65-5.62L70.63,112.7a135.54,135.54,0,0,0-1.85,15.85Z"/><g class="cls-5"><g class="cls-15"><path class="cls-7" d="M151.66,133.14l-82.88-4.59,0-.5a137.11,137.11,0,0,1,1.73-14.85l.09-.5,81.69,14.82-.08.49c-.24,1.53-.43,3.1-.54,4.64Zm-81.82-5.53,80.9,4.48c.1-1.25.25-2.51.44-3.76L71.44,113.86A138.34,138.34,0,0,0,69.84,127.61Z"/></g></g></g><path class="cls-3" d="M274.52,94.22a5.76,5.76,0,0,0,2.8.8c2.2,0,2.89-1.41,2.87-2.46,0-1.77-1.62-2.53-3.28-2.53h-1V88.75h1c1.25,0,2.83-.64,2.83-2.14,0-1-.64-1.91-2.22-1.91a4.71,4.71,0,0,0-2.53.83l-.45-1.24a6,6,0,0,1,3.31-1c2.49,0,3.62,1.48,3.62,3a3.14,3.14,0,0,1-2.34,3v0A3.3,3.3,0,0,1,282,92.6c0,2-1.58,3.8-4.62,3.8a6.44,6.44,0,0,1-3.29-.86Z"/><path class="cls-3" d="M284.1,96.19V95.13l1.34-1.3c3.24-3.08,4.7-4.71,4.72-6.62a2.26,2.26,0,0,0-2.51-2.47A4.29,4.29,0,0,0,285,85.81l-.55-1.21A5.58,5.58,0,0,1,288,83.32,3.56,3.56,0,0,1,291.87,87c0,2.33-1.69,4.22-4.36,6.79l-1,.94v0h5.68v1.43Z"/><path class="cls-3" d="M299.8,87.09c0,2.67-1.41,4-3,4s-2.94-1.26-3-3.81,1.38-4,3.06-4S299.8,84.68,299.8,87.09Zm-4.64.12c0,1.62.57,2.84,1.64,2.84s1.63-1.2,1.63-2.88-.44-2.82-1.63-2.82S295.16,85.61,295.16,87.21Zm1.48,9.19,7.44-13.08h1.09L297.73,96.4ZM308,92.33c0,2.67-1.4,4-3,4s-2.94-1.26-2.95-3.8,1.38-4,3.05-4S308,89.92,308,92.33Zm-4.63.12c0,1.61.6,2.84,1.65,2.84s1.64-1.21,1.64-2.88-.45-2.83-1.64-2.83S303.4,90.85,303.4,92.45Z"/><path class="cls-3" d="M37.63,116.36a4.55,4.55,0,0,0,2.2.62c1.71,0,2.25-1.09,2.23-1.92,0-1.38-1.26-2-2.55-2h-.75v-1h.75c1,0,2.2-.5,2.2-1.67,0-.79-.5-1.49-1.73-1.49a3.69,3.69,0,0,0-2,.65l-.35-1a4.71,4.71,0,0,1,2.59-.76c1.94,0,2.83,1.15,2.83,2.36a2.45,2.45,0,0,1-1.83,2.32v0a2.59,2.59,0,0,1,2.21,2.55c0,1.58-1.24,3-3.61,3a5,5,0,0,1-2.57-.67Z"/><path class="cls-3" d="M49.58,110.79c0,2.08-1.1,3.12-2.37,3.12s-2.3-1-2.32-3,1.08-3.09,2.39-3.09S49.58,108.9,49.58,110.79Zm-3.62.09c0,1.26.44,2.22,1.28,2.22s1.27-.94,1.27-2.25-.35-2.21-1.27-2.21S46,109.63,46,110.88Zm1.15,7.18,5.82-10.22h.85L48,118.06Zm8.9-3.18C56,117,54.92,118,53.66,118s-2.3-1-2.32-3,1.08-3.1,2.39-3.1S56,113,56,114.88Zm-3.62.09c0,1.27.47,2.22,1.3,2.22s1.27-.94,1.27-2.25-.35-2.2-1.27-2.2S52.39,113.73,52.39,115Z"/><path class="cls-3" d="M40.22,125h0l-1.72.93-.26-1,2.16-1.16h1.14v9.89H40.22Z"/><path class="cls-3" d="M49.58,126.49c0,2.09-1.1,3.12-2.37,3.12s-2.3-1-2.32-3,1.08-3.09,2.39-3.09S49.58,124.61,49.58,126.49Zm-3.62.09c0,1.27.44,2.23,1.28,2.23s1.27-1,1.27-2.26-.35-2.2-1.27-2.2S46,125.34,46,126.58Zm1.15,7.19,5.82-10.23h.85L48,133.77Zm8.9-3.18c0,2.08-1.09,3.11-2.35,3.11s-2.3-1-2.32-3,1.08-3.11,2.39-3.11S56,128.7,56,130.59Zm-3.62.09c0,1.26.47,2.22,1.3,2.22S55,132,55,130.65s-.35-2.21-1.27-2.21S52.39,129.43,52.39,130.68Z"/><path class="cls-3" d="M183.88,48.21V44.77H178V43.64l5.65-8.08h1.85v7.86h1.77v1.35H185.5v3.44Zm0-4.79V39.2c0-.66,0-1.32.06-2h-.06c-.39.74-.7,1.29-1,1.87l-3.09,4.31v0Z"/><path class="cls-3" d="M192.3,37.16h0l-2.2,1.18-.33-1.3,2.76-1.48H194V48.21H192.3Z"/><path class="cls-3" d="M204.27,39.12c0,2.67-1.4,4-3,4s-2.94-1.26-3-3.81,1.38-4,3.05-4S204.27,36.71,204.27,39.12Zm-4.63.12c0,1.61.56,2.84,1.63,2.84s1.64-1.21,1.64-2.88-.45-2.82-1.64-2.82S199.64,37.64,199.64,39.24Zm1.48,9.19,7.44-13.09h1.09l-7.44,13.09Zm11.39-4.07c0,2.67-1.4,4-3,4s-2.94-1.26-3-3.8,1.38-4,3.06-4S212.51,41.94,212.51,44.36Zm-4.63.12c0,1.61.6,2.84,1.65,2.84s1.64-1.21,1.64-2.88-.45-2.83-1.64-2.83S207.88,42.88,207.88,44.48Z"/><path class="cls-3" d="M99.85,94.19v-1l1.35-1.3c3.23-3.08,4.69-4.71,4.71-6.62a2.26,2.26,0,0,0-2.51-2.47,4.29,4.29,0,0,0-2.69,1.07l-.55-1.21a5.58,5.58,0,0,1,3.59-1.29A3.56,3.56,0,0,1,107.62,85c0,2.34-1.69,4.23-4.36,6.8l-1,.93v0h5.68v1.42Z"/><path class="cls-3" d="M110.25,92.23a5.77,5.77,0,0,0,2.81.8c2.2,0,2.88-1.41,2.86-2.46,0-1.77-1.62-2.53-3.27-2.53h-1V86.76h1c1.24,0,2.82-.65,2.82-2.15,0-1-.64-1.9-2.22-1.9a4.63,4.63,0,0,0-2.53.83l-.45-1.24a6,6,0,0,1,3.31-1c2.49,0,3.62,1.48,3.62,3a3.14,3.14,0,0,1-2.33,3v0a3.3,3.3,0,0,1,2.82,3.25c0,2-1.58,3.8-4.62,3.8a6.44,6.44,0,0,1-3.29-.86Z"/><path class="cls-3" d="M125.54,85.1c0,2.67-1.4,4-3,4s-2.94-1.26-3-3.81,1.38-4,3.06-4S125.54,82.69,125.54,85.1Zm-4.64.12c0,1.61.57,2.84,1.64,2.84s1.63-1.21,1.63-2.88-.44-2.82-1.63-2.82S120.9,83.62,120.9,85.22Zm1.48,9.19,7.44-13.09h1.09l-7.44,13.09Zm11.39-4.07c0,2.67-1.4,4-3,4s-2.94-1.26-3-3.8,1.38-4,3-4S133.77,87.92,133.77,90.34Zm-4.63.12c0,1.61.6,2.84,1.65,2.84s1.64-1.21,1.64-2.88-.45-2.83-1.64-2.83S129.14,88.86,129.14,90.46Z"/><path class="cls-3" d="M13.94,165.23v-5.39h.76l1.73,2.73a15.92,15.92,0,0,1,1,1.75h0c-.06-.72-.08-1.38-.08-2.22v-2.25H18v5.39h-.71l-1.71-2.74a17.13,17.13,0,0,1-1-1.8h0c0,.68.06,1.33.06,2.23v2.3Z"/><path class="cls-3" d="M22.68,163.26a1.89,1.89,0,0,1-1.92,2.06,1.85,1.85,0,0,1-1.86-2,1.89,1.89,0,0,1,1.92-2A1.83,1.83,0,0,1,22.68,163.26Zm-3.07,0c0,.85.49,1.49,1.18,1.49s1.17-.63,1.17-1.51c0-.65-.32-1.48-1.15-1.48S19.61,162.57,19.61,163.3Z"/><path class="cls-3" d="M24.42,160.25v1.11h1v.53h-1V164c0,.48.14.75.53.75a1.37,1.37,0,0,0,.41,0l0,.53a1.63,1.63,0,0,1-.62.1A1,1,0,0,1,24,165a1.44,1.44,0,0,1-.28-1v-2.11h-.6v-.53h.6v-.93Z"/><path class="cls-3" d="M30.06,165.23l-.06-.49h0a1.46,1.46,0,0,1-1.18.58,1.11,1.11,0,0,1-1.19-1.12c0-.93.84-1.44,2.33-1.43v-.08a.8.8,0,0,0-.88-.9,1.92,1.92,0,0,0-1,.29l-.16-.47a2.5,2.5,0,0,1,1.28-.34c1.18,0,1.47.81,1.47,1.58v1.45a5.32,5.32,0,0,0,.06.93Zm-.1-2c-.77,0-1.64.12-1.64.87a.62.62,0,0,0,.66.68,1,1,0,0,0,.94-.65.85.85,0,0,0,0-.23Z"/><path class="cls-3" d="M32.6,160.25v1.11h1v.53h-1V164c0,.48.13.75.53.75a1.3,1.3,0,0,0,.4,0l0,.53a1.59,1.59,0,0,1-.62.1,1,1,0,0,1-.76-.3,1.44,1.44,0,0,1-.27-1v-2.11h-.6v-.53h.6v-.93Z"/><path class="cls-3" d="M38.24,165.23l-.06-.49h0a1.46,1.46,0,0,1-1.19.58,1.11,1.11,0,0,1-1.18-1.12c0-.93.83-1.44,2.33-1.43v-.08a.8.8,0,0,0-.88-.9,1.9,1.9,0,0,0-1,.29l-.16-.47a2.46,2.46,0,0,1,1.27-.34c1.18,0,1.47.81,1.47,1.58v1.45a5.26,5.26,0,0,0,.07.93Zm-.11-2c-.76,0-1.64.12-1.64.87a.63.63,0,0,0,.67.68,1,1,0,0,0,.93-.65.59.59,0,0,0,0-.23Z"/><path class="cls-3" d="M40,159.55h.7v5.68H40Z"/><path class="cls-3" d="M41.84,159.55h.7v5.68h-.7Z"/><path class="cls-3" d="M49.21,165.05a3.39,3.39,0,0,1-1.42.26,2.52,2.52,0,0,1-2.66-2.73,2.68,2.68,0,0,1,2.81-2.83,3,3,0,0,1,1.28.24l-.17.57a2.49,2.49,0,0,0-1.09-.23,2,2,0,0,0-2.1,2.23,2,2,0,0,0,2.07,2.16,2.72,2.72,0,0,0,1.14-.22Z"/><path class="cls-3" d="M53.48,163.26a1.9,1.9,0,0,1-1.93,2.06,1.85,1.85,0,0,1-1.86-2,1.89,1.89,0,0,1,1.92-2A1.84,1.84,0,0,1,53.48,163.26Zm-3.07,0c0,.85.48,1.49,1.17,1.49s1.18-.63,1.18-1.51c0-.65-.33-1.48-1.16-1.48S50.41,162.57,50.41,163.3Z"/><path class="cls-3" d="M54.37,162.41c0-.4,0-.73,0-1H55l0,.64h0a1.43,1.43,0,0,1,1.28-.73c.54,0,1.37.32,1.37,1.65v2.31H57V163c0-.63-.24-1.15-.9-1.15a1,1,0,0,0-.94.72,1.09,1.09,0,0,0,0,.33v2.33h-.7Z"/><path class="cls-3" d="M61.56,165.08a2.49,2.49,0,0,1-1.11.23,1.84,1.84,0,0,1-1.92-2,2,2,0,0,1,2.07-2.05,2.29,2.29,0,0,1,1,.2l-.16.54a1.71,1.71,0,0,0-.82-.18,1.46,1.46,0,0,0,0,2.91,2.11,2.11,0,0,0,.86-.19Z"/><path class="cls-3" d="M62.74,163.42a1.24,1.24,0,0,0,1.33,1.34,2.42,2.42,0,0,0,1.07-.2l.12.51a3.17,3.17,0,0,1-1.29.24,1.8,1.8,0,0,1-1.9-1.95,1.88,1.88,0,0,1,1.81-2.09,1.63,1.63,0,0,1,1.6,1.82,2.38,2.38,0,0,1,0,.33Zm2.06-.5a1,1,0,0,0-1-1.15,1.18,1.18,0,0,0-1.08,1.15Z"/><path class="cls-3" d="M66.36,162.57c0-.46,0-.85,0-1.21h.61l0,.76h0a1.16,1.16,0,0,1,1.07-.85l.2,0V162a.88.88,0,0,0-.24,0,1,1,0,0,0-.94.91,1.57,1.57,0,0,0,0,.33v2.06h-.69Z"/><path class="cls-3" d="M69,162.41c0-.4,0-.73,0-1h.62l0,.64h0a1.4,1.4,0,0,1,1.27-.73c.54,0,1.37.32,1.37,1.65v2.31h-.7V163c0-.63-.23-1.15-.9-1.15a1,1,0,0,0-.94.72,1.09,1.09,0,0,0,0,.33v2.33H69Z"/><path class="cls-3" d="M73.83,163.42a1.23,1.23,0,0,0,1.33,1.34,2.45,2.45,0,0,0,1.07-.2l.12.51a3.17,3.17,0,0,1-1.29.24,1.8,1.8,0,0,1-1.9-1.95A1.87,1.87,0,0,1,75,161.27a1.63,1.63,0,0,1,1.6,1.82,2.38,2.38,0,0,1,0,.33Zm2.06-.5a1,1,0,0,0-1-1.15,1.16,1.16,0,0,0-1.08,1.15Z"/><path class="cls-3" d="M80.79,159.55v4.68c0,.34,0,.73,0,1h-.63l0-.67h0a1.44,1.44,0,0,1-1.32.76,1.76,1.76,0,0,1-1.65-2,1.85,1.85,0,0,1,1.73-2.08,1.31,1.31,0,0,1,1.17.59h0v-2.31Zm-.71,3.38a1,1,0,0,0,0-.29,1,1,0,0,0-1-.82c-.73,0-1.16.64-1.16,1.5s.38,1.43,1.14,1.43a1.06,1.06,0,0,0,1-.84,1,1,0,0,0,0-.3Z"/><path class="cls-3" d="M100.47,164.38a2.49,2.49,0,0,0,1.25.35c.71,0,1.12-.37,1.12-.92s-.28-.79-1-1.07-1.42-.77-1.42-1.53a1.54,1.54,0,0,1,1.74-1.46,2.39,2.39,0,0,1,1.19.27l-.19.56a2.26,2.26,0,0,0-1-.25c-.74,0-1,.44-1,.8,0,.51.33.76,1.07,1,.91.36,1.38.8,1.38,1.59s-.62,1.55-1.89,1.55a2.72,2.72,0,0,1-1.38-.35Z"/><path class="cls-3" d="M104.49,159.55h.7v5.68h-.7Z"/><path class="cls-3" d="M107.16,160.27a.44.44,0,0,1-.87,0,.43.43,0,0,1,.44-.44A.42.42,0,0,1,107.16,160.27Zm-.79,5v-3.87h.71v3.87Z"/><path class="cls-3" d="M111.58,161.36c0,.28,0,.59,0,1.06v2.25a2.26,2.26,0,0,1-.55,1.77,2.07,2.07,0,0,1-1.41.46,2.49,2.49,0,0,1-1.29-.32l.18-.54a2.14,2.14,0,0,0,1.13.31c.72,0,1.25-.38,1.25-1.35v-.44h0a1.37,1.37,0,0,1-1.23.65,1.72,1.72,0,0,1-1.64-1.89,1.85,1.85,0,0,1,1.74-2,1.29,1.29,0,0,1,1.21.67h0l0-.58Zm-.73,1.53a1,1,0,0,0,0-.32,1,1,0,0,0-1-.75c-.67,0-1.15.57-1.15,1.46s.38,1.4,1.14,1.4a1.05,1.05,0,0,0,1-.72,1.24,1.24,0,0,0,0-.38Z"/><path class="cls-3" d="M112.72,159.55h.7V162h0a1.33,1.33,0,0,1,.5-.5,1.47,1.47,0,0,1,.72-.2c.52,0,1.35.32,1.35,1.66v2.3h-.7V163c0-.63-.23-1.16-.9-1.16a1,1,0,0,0-.94.71.82.82,0,0,0,0,.33v2.34h-.7Z"/><path class="cls-3" d="M118,160.25v1.11h1v.53h-1V164c0,.48.14.75.53.75a1.37,1.37,0,0,0,.41,0l0,.53a1.63,1.63,0,0,1-.62.1,1,1,0,0,1-.76-.3,1.44,1.44,0,0,1-.28-1v-2.11h-.6v-.53h.6v-.93Z"/><path class="cls-3" d="M119.78,159.55h.71v5.68h-.71Z"/><path class="cls-3" d="M121.93,161.36l.84,2.29c.09.25.19.55.25.79h0c.07-.24.15-.53.24-.81l.77-2.27h.75l-1.06,2.76a5.91,5.91,0,0,1-1.33,2.42,1.86,1.86,0,0,1-.86.45l-.18-.59a1.68,1.68,0,0,0,.62-.34,2.12,2.12,0,0,0,.59-.78.7.7,0,0,0,.06-.17.76.76,0,0,0,0-.19l-1.43-3.56Z"/><path class="cls-3" d="M130.92,165.05a3.35,3.35,0,0,1-1.42.26,2.52,2.52,0,0,1-2.66-2.73,2.68,2.68,0,0,1,2.81-2.83,3,3,0,0,1,1.28.24l-.17.57a2.47,2.47,0,0,0-1.08-.23,2,2,0,0,0-2.11,2.23,2,2,0,0,0,2.07,2.16,2.72,2.72,0,0,0,1.14-.22Z"/><path class="cls-3" d="M135.19,163.26a1.9,1.9,0,0,1-1.93,2.06,1.84,1.84,0,0,1-1.85-2,1.88,1.88,0,0,1,1.91-2A1.83,1.83,0,0,1,135.19,163.26Zm-3.07,0c0,.85.49,1.49,1.17,1.49s1.18-.63,1.18-1.51c0-.65-.33-1.48-1.16-1.48S132.12,162.57,132.12,163.3Z"/><path class="cls-3" d="M136.08,162.41c0-.4,0-.73,0-1h.62l0,.64h0a1.4,1.4,0,0,1,1.27-.73c.54,0,1.37.32,1.37,1.65v2.31h-.7V163c0-.63-.23-1.15-.9-1.15a1,1,0,0,0-.94.72,1.09,1.09,0,0,0-.05.33v2.33h-.7Z"/><path class="cls-3" d="M143.28,165.08a2.58,2.58,0,0,1-1.12.23,1.84,1.84,0,0,1-1.92-2,2,2,0,0,1,2.08-2.05,2.27,2.27,0,0,1,1,.2l-.16.54a1.7,1.7,0,0,0-.81-.18,1.46,1.46,0,0,0,0,2.91,2.16,2.16,0,0,0,.87-.19Z"/><path class="cls-3" d="M144.45,163.42a1.23,1.23,0,0,0,1.32,1.34,2.38,2.38,0,0,0,1.07-.2l.12.51a3.12,3.12,0,0,1-1.28.24,1.81,1.81,0,0,1-1.91-1.95,1.88,1.88,0,0,1,1.82-2.09,1.64,1.64,0,0,1,1.6,1.82,2.06,2.06,0,0,1,0,.33Zm2.06-.5a1,1,0,0,0-1-1.15,1.18,1.18,0,0,0-1.08,1.15Z"/><path class="cls-3" d="M148.06,162.57c0-.46,0-.85,0-1.21h.62l0,.76h0a1.17,1.17,0,0,1,1.07-.85l.2,0V162a.83.83,0,0,0-.24,0,1,1,0,0,0-.94.91,1.61,1.61,0,0,0,0,.33v2.06h-.7Z"/><path class="cls-3" d="M150.71,162.41c0-.4,0-.73,0-1h.62l0,.64h0a1.42,1.42,0,0,1,1.28-.73c.53,0,1.36.32,1.36,1.65v2.31h-.7V163c0-.63-.23-1.15-.9-1.15a1,1,0,0,0-.94.72,1.09,1.09,0,0,0-.05.33v2.33h-.7Z"/><path class="cls-3" d="M155.54,163.42a1.24,1.24,0,0,0,1.33,1.34,2.42,2.42,0,0,0,1.07-.2l.12.51a3.17,3.17,0,0,1-1.29.24,1.8,1.8,0,0,1-1.9-1.95,1.88,1.88,0,0,1,1.81-2.09,1.63,1.63,0,0,1,1.6,1.82,2.38,2.38,0,0,1,0,.33Zm2.06-.5a1,1,0,0,0-1-1.15,1.18,1.18,0,0,0-1.08,1.15Z"/><path class="cls-3" d="M162.5,159.55v4.68c0,.34,0,.73,0,1h-.63l0-.67h0a1.43,1.43,0,0,1-1.32.76,1.77,1.77,0,0,1-1.65-2,1.85,1.85,0,0,1,1.73-2.08,1.31,1.31,0,0,1,1.17.59h0v-2.31Zm-.7,3.38a1,1,0,0,0,0-.29,1,1,0,0,0-1-.82c-.73,0-1.16.64-1.16,1.5s.38,1.43,1.14,1.43a1,1,0,0,0,1-.84,1,1,0,0,0,0-.3Z"/><path class="cls-3" d="M186.73,162.86c0-.75-.09-1.65-.08-2.33h0c-.19.64-.41,1.31-.68,2.05L185,165.2h-.53l-.87-2.57q-.39-1.14-.63-2.1h0c0,.68-.06,1.58-.11,2.39l-.14,2.31h-.66l.37-5.39h.89l.92,2.61c.22.66.41,1.25.54,1.81h0a18.71,18.71,0,0,1,.56-1.81l1-2.61h.89l.34,5.39h-.68Z"/><path class="cls-3" d="M192.15,163.26a1.9,1.9,0,0,1-1.93,2.06,1.84,1.84,0,0,1-1.85-2,1.88,1.88,0,0,1,1.92-2A1.83,1.83,0,0,1,192.15,163.26Zm-3.07,0c0,.85.49,1.49,1.17,1.49s1.18-.63,1.18-1.51c0-.65-.33-1.48-1.16-1.48S189.08,162.57,189.08,163.3Z"/><path class="cls-3" d="M196.38,159.55v4.68c0,.34,0,.73,0,1h-.63l0-.67h0a1.42,1.42,0,0,1-1.32.76,1.77,1.77,0,0,1-1.65-2,1.85,1.85,0,0,1,1.73-2.08,1.3,1.3,0,0,1,1.17.59h0v-2.31Zm-.7,3.38a1.5,1.5,0,0,0,0-.29,1,1,0,0,0-1-.82c-.73,0-1.16.64-1.16,1.5s.38,1.43,1.14,1.43a1.06,1.06,0,0,0,1-.84,1.45,1.45,0,0,0,0-.3Z"/><path class="cls-3" d="M197.94,163.42a1.24,1.24,0,0,0,1.33,1.34,2.42,2.42,0,0,0,1.07-.2l.12.51a3.17,3.17,0,0,1-1.29.24,1.8,1.8,0,0,1-1.9-1.95,1.88,1.88,0,0,1,1.82-2.09,1.63,1.63,0,0,1,1.59,1.82,2.38,2.38,0,0,1,0,.33Zm2.06-.5a1,1,0,0,0-1-1.15,1.18,1.18,0,0,0-1.08,1.15Z"/><path class="cls-3" d="M201.56,162.57c0-.46,0-.85,0-1.21h.61l0,.76h0a1.16,1.16,0,0,1,1.07-.85l.2,0V162a.88.88,0,0,0-.24,0,1,1,0,0,0-.94.91,1.57,1.57,0,0,0,0,.33v2.06h-.69Z"/><path class="cls-3" d="M206.28,165.23l-.06-.49h0a1.46,1.46,0,0,1-1.19.58,1.11,1.11,0,0,1-1.18-1.12c0-.93.83-1.44,2.33-1.43v-.08a.8.8,0,0,0-.88-.9,1.9,1.9,0,0,0-1,.29l-.16-.47a2.46,2.46,0,0,1,1.27-.34c1.18,0,1.47.81,1.47,1.58v1.45a5.26,5.26,0,0,0,.07.93Zm-.11-2c-.76,0-1.64.12-1.64.87a.63.63,0,0,0,.67.68,1,1,0,0,0,.93-.65.59.59,0,0,0,0-.23Z"/><path class="cls-3" d="M208.81,160.25v1.11h1v.53h-1V164c0,.48.14.75.53.75a1.37,1.37,0,0,0,.41,0l0,.53a1.59,1.59,0,0,1-.62.1,1,1,0,0,1-.76-.3,1.44,1.44,0,0,1-.27-1v-2.11h-.6v-.53h.6v-.93Z"/><path class="cls-3" d="M211,163.42a1.23,1.23,0,0,0,1.32,1.34,2.47,2.47,0,0,0,1.08-.2l.12.51a3.21,3.21,0,0,1-1.29.24,1.8,1.8,0,0,1-1.9-1.95,1.87,1.87,0,0,1,1.81-2.09,1.64,1.64,0,0,1,1.6,1.82c0,.15,0,.26,0,.33Zm2.06-.5a1,1,0,0,0-1-1.15,1.16,1.16,0,0,0-1.07,1.15Z"/><path class="cls-3" d="M214.57,159.55h.71v5.68h-.71Z"/><path class="cls-3" d="M216.72,161.36l.85,2.29c.08.25.18.55.24.79h0c.07-.24.15-.53.25-.81l.76-2.27h.75l-1.06,2.76a5.79,5.79,0,0,1-1.33,2.42,1.86,1.86,0,0,1-.86.45l-.17-.59a1.73,1.73,0,0,0,.61-.34,2.12,2.12,0,0,0,.59-.78.7.7,0,0,0,.06-.17.76.76,0,0,0-.05-.19L216,161.36Z"/><path class="cls-3" d="M225.72,165.05a3.44,3.44,0,0,1-1.43.26,2.52,2.52,0,0,1-2.66-2.73,2.68,2.68,0,0,1,2.81-2.83,2.94,2.94,0,0,1,1.28.24l-.16.57a2.52,2.52,0,0,0-1.09-.23,2,2,0,0,0-2.11,2.23,2,2,0,0,0,2.08,2.16,2.71,2.71,0,0,0,1.13-.22Z"/><path class="cls-3" d="M230,163.26a1.9,1.9,0,0,1-1.93,2.06,1.84,1.84,0,0,1-1.85-2,1.88,1.88,0,0,1,1.92-2A1.83,1.83,0,0,1,230,163.26Zm-3.07,0c0,.85.49,1.49,1.17,1.49s1.18-.63,1.18-1.51c0-.65-.33-1.48-1.16-1.48S226.91,162.57,226.91,163.3Z"/><path class="cls-3" d="M230.87,162.41c0-.4,0-.73,0-1h.62l0,.64h0a1.42,1.42,0,0,1,1.28-.73c.53,0,1.36.32,1.36,1.65v2.31h-.7V163c0-.63-.23-1.15-.9-1.15a1,1,0,0,0-.94.72,1.09,1.09,0,0,0-.05.33v2.33h-.7Z"/><path class="cls-3" d="M238.07,165.08a2.53,2.53,0,0,1-1.11.23,1.84,1.84,0,0,1-1.93-2,2,2,0,0,1,2.08-2.05,2.27,2.27,0,0,1,1,.2l-.16.54a1.67,1.67,0,0,0-.81-.18,1.46,1.46,0,0,0,0,2.91,2.16,2.16,0,0,0,.87-.19Z"/><path class="cls-3" d="M239.24,163.42a1.23,1.23,0,0,0,1.32,1.34,2.47,2.47,0,0,0,1.08-.2l.12.51a3.21,3.21,0,0,1-1.29.24,1.8,1.8,0,0,1-1.9-1.95,1.87,1.87,0,0,1,1.81-2.09,1.64,1.64,0,0,1,1.6,1.82c0,.15,0,.26,0,.33Zm2.06-.5a1,1,0,0,0-1-1.15,1.18,1.18,0,0,0-1.08,1.15Z"/><path class="cls-3" d="M242.85,162.57c0-.46,0-.85,0-1.21h.62l0,.76h0a1.17,1.17,0,0,1,1.07-.85l.2,0V162a.83.83,0,0,0-.24,0,1,1,0,0,0-.94.91,2.88,2.88,0,0,0,0,.33v2.06h-.7Z"/><path class="cls-3" d="M245.5,162.41c0-.4,0-.73,0-1h.62l0,.64h0a1.42,1.42,0,0,1,1.28-.73c.53,0,1.37.32,1.37,1.65v2.31h-.71V163c0-.63-.23-1.15-.89-1.15a1,1,0,0,0-.95.72,1.09,1.09,0,0,0-.05.33v2.33h-.7Z"/><path class="cls-3" d="M250.33,163.42a1.24,1.24,0,0,0,1.33,1.34,2.42,2.42,0,0,0,1.07-.2l.12.51a3.17,3.17,0,0,1-1.29.24,1.8,1.8,0,0,1-1.9-1.95,1.88,1.88,0,0,1,1.82-2.09,1.63,1.63,0,0,1,1.59,1.82,2.38,2.38,0,0,1,0,.33Zm2.07-.5a1,1,0,0,0-1-1.15,1.18,1.18,0,0,0-1.08,1.15Z"/><path class="cls-3" d="M257.29,159.55v4.68c0,.34,0,.73,0,1h-.63l0-.67h0a1.42,1.42,0,0,1-1.32.76,1.77,1.77,0,0,1-1.65-2,1.85,1.85,0,0,1,1.73-2.08,1.28,1.28,0,0,1,1.17.59h0v-2.31Zm-.7,3.38a1.5,1.5,0,0,0,0-.29,1,1,0,0,0-1-.82c-.73,0-1.16.64-1.16,1.5s.38,1.43,1.14,1.43a1.06,1.06,0,0,0,1-.84,1.45,1.45,0,0,0,0-.3Z"/><path class="cls-3" d="M278,165.23l-1.76-5.39H277l.84,2.65c.23.73.43,1.39.57,2h0c.15-.63.38-1.3.62-2l.91-2.66h.74l-1.92,5.39Z"/><path class="cls-3" d="M281.38,163.42a1.24,1.24,0,0,0,1.33,1.34,2.42,2.42,0,0,0,1.07-.2l.12.51a3.17,3.17,0,0,1-1.29.24,1.8,1.8,0,0,1-1.9-1.95,1.88,1.88,0,0,1,1.81-2.09,1.63,1.63,0,0,1,1.6,1.82,2.38,2.38,0,0,1,0,.33Zm2.06-.5a1,1,0,0,0-1-1.15,1.18,1.18,0,0,0-1.08,1.15Z"/><path class="cls-3" d="M285,162.57c0-.46,0-.85,0-1.21h.61l0,.76h0a1.16,1.16,0,0,1,1.07-.85l.2,0V162a.83.83,0,0,0-.24,0,1,1,0,0,0-.94.91,1.57,1.57,0,0,0,0,.33v2.06H285Z"/><path class="cls-3" d="M288.07,161.36l.85,2.29c.09.25.18.55.25.79h0c.07-.24.15-.53.25-.81l.77-2.27h.74l-1.06,2.76a5.92,5.92,0,0,1-1.32,2.42,1.92,1.92,0,0,1-.87.45l-.17-.59a1.65,1.65,0,0,0,.61-.34,2,2,0,0,0,.6-.78.58.58,0,0,0,0-.17.48.48,0,0,0,0-.19l-1.43-3.56Z"/><path class="cls-3" d="M297.07,165.05a3.42,3.42,0,0,1-1.42.26,2.52,2.52,0,0,1-2.67-2.73,2.68,2.68,0,0,1,2.82-2.83,3,3,0,0,1,1.28.24l-.17.57a2.52,2.52,0,0,0-1.09-.23,2,2,0,0,0-2.1,2.23,2,2,0,0,0,2.07,2.16,2.71,2.71,0,0,0,1.13-.22Z"/><path class="cls-3" d="M301.34,163.26a1.9,1.9,0,0,1-1.93,2.06,1.84,1.84,0,0,1-1.85-2,1.89,1.89,0,0,1,1.92-2A1.83,1.83,0,0,1,301.34,163.26Zm-3.07,0c0,.85.49,1.49,1.17,1.49s1.18-.63,1.18-1.51c0-.65-.33-1.48-1.16-1.48S298.27,162.57,298.27,163.3Z"/><path class="cls-3" d="M302.23,162.41c0-.4,0-.73,0-1h.62l0,.64h0a1.42,1.42,0,0,1,1.28-.73c.53,0,1.36.32,1.36,1.65v2.31h-.7V163c0-.63-.23-1.15-.9-1.15a1,1,0,0,0-.94.72,1.09,1.09,0,0,0-.05.33v2.33h-.7Z"/><path class="cls-3" d="M309.43,165.08a2.53,2.53,0,0,1-1.11.23,1.84,1.84,0,0,1-1.93-2,2,2,0,0,1,2.08-2.05,2.24,2.24,0,0,1,1,.2l-.16.54a1.67,1.67,0,0,0-.81-.18,1.46,1.46,0,0,0,0,2.91,2.12,2.12,0,0,0,.87-.19Z"/><path class="cls-3" d="M310.61,163.42a1.23,1.23,0,0,0,1.32,1.34,2.38,2.38,0,0,0,1.07-.2l.12.51a3.12,3.12,0,0,1-1.28.24,1.81,1.81,0,0,1-1.91-1.95,1.88,1.88,0,0,1,1.82-2.09,1.64,1.64,0,0,1,1.6,1.82,2.06,2.06,0,0,1,0,.33Zm2.06-.5a1,1,0,0,0-1-1.15,1.18,1.18,0,0,0-1.08,1.15Z"/><path class="cls-3" d="M314.22,162.57c0-.46,0-.85,0-1.21h.62l0,.76h0a1.17,1.17,0,0,1,1.07-.85l.2,0V162a.83.83,0,0,0-.24,0,1,1,0,0,0-.94.91,1.61,1.61,0,0,0,0,.33v2.06h-.7Z"/><path class="cls-3" d="M316.86,162.41c0-.4,0-.73,0-1h.62l0,.64h0a1.42,1.42,0,0,1,1.28-.73c.53,0,1.37.32,1.37,1.65v2.31h-.71V163c0-.63-.23-1.15-.89-1.15a1,1,0,0,0-.95.72,1.11,1.11,0,0,0,0,.33v2.33h-.71Z"/><path class="cls-3" d="M321.69,163.42a1.24,1.24,0,0,0,1.33,1.34,2.42,2.42,0,0,0,1.07-.2l.12.51a3.16,3.16,0,0,1-1.28.24,1.8,1.8,0,0,1-1.91-1.95,1.88,1.88,0,0,1,1.82-2.09,1.64,1.64,0,0,1,1.6,1.82,2.06,2.06,0,0,1,0,.33Zm2.07-.5a1,1,0,0,0-1-1.15,1.18,1.18,0,0,0-1.08,1.15Z"/><path class="cls-3" d="M328.65,159.55v4.68c0,.34,0,.73,0,1h-.63l0-.67h0a1.42,1.42,0,0,1-1.31.76,1.77,1.77,0,0,1-1.66-2,1.85,1.85,0,0,1,1.74-2.08,1.28,1.28,0,0,1,1.16.59h0v-2.31Zm-.7,3.38a1.5,1.5,0,0,0,0-.29,1,1,0,0,0-1-.82c-.73,0-1.16.64-1.16,1.5s.39,1.43,1.15,1.43a1.06,1.06,0,0,0,1-.84,1.45,1.45,0,0,0,0-.3Z"/><path class="cls-3" d="M352.23,162.7h-2.1v1.94h2.34v.59h-3v-5.39h2.91v.58h-2.22v1.71h2.1Z"/><path class="cls-3" d="M353.68,161.36l.55.83.39.63h0c.12-.23.25-.43.38-.64l.54-.82h.76L355,163.23l1.36,2h-.8l-.56-.87c-.16-.23-.28-.44-.42-.67h0c-.13.23-.26.43-.4.67l-.56.87h-.78l1.38-2-1.32-1.89Z"/><path class="cls-3" d="M358,160.25v1.11h1v.53h-1V164c0,.48.13.75.52.75a1.33,1.33,0,0,0,.41,0l0,.53a1.59,1.59,0,0,1-.62.1,1,1,0,0,1-.76-.3,1.44,1.44,0,0,1-.27-1v-2.11h-.6v-.53h.6v-.93Z"/><path class="cls-3" d="M359.81,162.57c0-.46,0-.85,0-1.21h.62l0,.76h0a1.16,1.16,0,0,1,1.07-.85l.2,0V162a.88.88,0,0,0-.24,0,1,1,0,0,0-1,.91,2.88,2.88,0,0,0,0,.33v2.06h-.69Z"/><path class="cls-3" d="M362.73,163.42a1.24,1.24,0,0,0,1.33,1.34,2.38,2.38,0,0,0,1.07-.2l.12.51a3.16,3.16,0,0,1-1.28.24,1.8,1.8,0,0,1-1.91-1.95,1.88,1.88,0,0,1,1.82-2.09,1.64,1.64,0,0,1,1.6,1.82,2.06,2.06,0,0,1,0,.33Zm2.07-.5a1,1,0,0,0-1-1.15,1.18,1.18,0,0,0-1.08,1.15Z"/><path class="cls-3" d="M366.35,162.41c0-.4,0-.73,0-1h.61l0,.62h0a1.34,1.34,0,0,1,1.21-.71,1.15,1.15,0,0,1,1.1.78h0a1.57,1.57,0,0,1,.43-.51,1.35,1.35,0,0,1,.85-.27c.51,0,1.27.34,1.27,1.68v2.28h-.68V163c0-.75-.27-1.19-.84-1.19a.9.9,0,0,0-.83.64.91.91,0,0,0-.06.35v2.39h-.69v-2.32c0-.62-.27-1.06-.8-1.06a1,1,0,0,0-.88.7.93.93,0,0,0,0,.34v2.34h-.69Z"/><path class="cls-3" d="M373.41,163.42a1.24,1.24,0,0,0,1.33,1.34,2.42,2.42,0,0,0,1.07-.2l.12.51a3.16,3.16,0,0,1-1.28.24,1.8,1.8,0,0,1-1.91-1.95,1.88,1.88,0,0,1,1.82-2.09,1.64,1.64,0,0,1,1.6,1.82,2.06,2.06,0,0,1,0,.33Zm2.07-.5a1,1,0,0,0-1-1.15,1.18,1.18,0,0,0-1.08,1.15Z"/><path class="cls-3" d="M377,159.55h.7v5.68H377Z"/><path class="cls-3" d="M379.17,161.36l.85,2.29c.09.25.19.55.25.79h0c.07-.24.15-.53.24-.81l.77-2.27H382L381,164.12a6,6,0,0,1-1.33,2.42,1.9,1.9,0,0,1-.86.45l-.18-.59a1.68,1.68,0,0,0,.62-.34,2.12,2.12,0,0,0,.59-.78.7.7,0,0,0,.06-.17.76.76,0,0,0-.05-.19l-1.43-3.56Z"/><rect class="cls-12" y="159.94" width="9.07" height="9.07"/><rect class="cls-14" x="86.62" y="159.94" width="9.07" height="9.07"/><rect class="cls-8" x="168.24" y="159.94" width="9.07" height="9.07"/><rect class="cls-4" x="262.87" y="159.94" width="9.07" height="9.07"/><rect class="cls-10" x="335.49" y="159.94" width="9.07" height="9.07"/></g><rect class="cls-1" x="385.58" width="28.74" height="169.01"/></svg>