<svg id="Layer_1" data-name="Layer 1" xmlns="http://www.w3.org/2000/svg" xmlns:xlink="http://www.w3.org/1999/xlink" viewBox="0 0 147.64 145.91"><defs><style>.cls-1{fill:none;}.cls-2{clip-path:url(#clip-path);}.cls-3{fill:#228cc6;}.cls-4{fill:#3960ad;}.cls-5{fill:#124e7c;}.cls-6{fill:#c9c9c9;}</style><clipPath id="clip-path" transform="translate(-0.03 0)"><polygon class="cls-1" points="0 145.94 148.21 146.58 148.21 0.65 0 0 0 145.94"/></clipPath></defs><g class="cls-2"><path class="cls-3" d="M72.65,73.29l39.28,60.5a72.14,72.14,0,0,1-78.57-121A70.23,70.23,0,0,1,72.65,1.15Z" transform="translate(-0.03 0)"/><path class="cls-4" d="M72.76,145.91A72.63,72.63,0,0,1,33.08,12.37,70.63,70.63,0,0,1,72.65.65h.5V73.14l39.48,60.8-.42.27A72.29,72.29,0,0,1,72.76,145.91ZM72.15,1.65A69.51,69.51,0,0,0,33.63,13.21a71.64,71.64,0,0,0,77.61,120.43L72.15,73.44Z" transform="translate(-0.03 0)"/><path class="cls-5" d="M75,72.64V.5a72.13,72.13,0,0,1,72.13,72.14c0,25.5-11.46,46.61-32.84,60.5Z" transform="translate(-0.03 0)"/><path class="cls-4" d="M114.18,133.83l-.27-.42L74.54,72.79V0H75a72.71,72.71,0,0,1,72.63,72.64c0,25.8-11.43,46.86-33.07,60.92ZM75.54,72.49l38.93,60c21.07-13.85,32.2-34.52,32.2-59.8A71.71,71.71,0,0,0,75.54,1Z" transform="translate(-0.03 0)"/></g><path class="cls-6" d="M22.35,60.18a3.88,3.88,0,0,1-1.54.27,2.73,2.73,0,0,1-2.88-3A2.91,2.91,0,0,1,21,54.44a3.19,3.19,0,0,1,1.38.26l-.18.61A2.85,2.85,0,0,0,21,55.07a2.17,2.17,0,0,0-2.27,2.41A2.12,2.12,0,0,0,21,59.82a3,3,0,0,0,1.23-.24Z" transform="translate(-0.03 0)"/><path class="cls-6" d="M27,58.24a2,2,0,0,1-2.09,2.22,2,2,0,0,1-2-2.15A2.05,2.05,0,0,1,25,56.08,2,2,0,0,1,27,58.24Zm-3.33,0c0,.92.53,1.61,1.28,1.61s1.27-.68,1.27-1.63c0-.7-.36-1.61-1.26-1.61S23.65,57.49,23.65,58.28Z" transform="translate(-0.03 0)"/><path class="cls-6" d="M28.18,56.18,29,58.53c.14.38.25.73.34,1.07h0c.09-.34.21-.69.35-1.07l.81-2.35h.8l-1.64,4.19H29l-1.59-4.19Z" transform="translate(-0.03 0)"/><path class="cls-6" d="M32.4,58.41a1.33,1.33,0,0,0,1.43,1.45A2.75,2.75,0,0,0,35,59.65l.13.54a3.42,3.42,0,0,1-1.39.26,2,2,0,0,1-2.06-2.11,2,2,0,0,1,2-2.26,1.78,1.78,0,0,1,1.73,2,2.87,2.87,0,0,1,0,.35Zm2.23-.54a1.08,1.08,0,0,0-1.06-1.24,1.26,1.26,0,0,0-1.17,1.24Z" transform="translate(-0.03 0)"/><path class="cls-6" d="M36.31,57.49c0-.5,0-.92,0-1.31h.67L37,57h0a1.26,1.26,0,0,1,1.16-.92.73.73,0,0,1,.22,0v.72a1,1,0,0,0-.26,0,1.08,1.08,0,0,0-1,1,3.27,3.27,0,0,0,0,.35v2.24h-.75Z" transform="translate(-0.03 0)"/><path class="cls-6" d="M39.48,58.41a1.33,1.33,0,0,0,1.43,1.45,2.75,2.75,0,0,0,1.16-.21l.13.54a3.42,3.42,0,0,1-1.39.26,2,2,0,0,1-2.06-2.11,2,2,0,0,1,2-2.26,1.78,1.78,0,0,1,1.73,2,2.87,2.87,0,0,1,0,.35Zm2.23-.54a1.08,1.08,0,0,0-1.06-1.24,1.26,1.26,0,0,0-1.17,1.24Z" transform="translate(-0.03 0)"/><path class="cls-6" d="M47,54.22v5.07c0,.37,0,.79,0,1.08h-.68l0-.73h0a1.53,1.53,0,0,1-1.42.82,1.91,1.91,0,0,1-1.8-2.13A2,2,0,0,1,45,56.08a1.44,1.44,0,0,1,1.27.64h0v-2.5Zm-.76,3.66a1.82,1.82,0,0,0,0-.32,1.12,1.12,0,0,0-1.1-.88c-.79,0-1.26.69-1.26,1.62s.42,1.55,1.24,1.55a1.15,1.15,0,0,0,1.12-.91,1.69,1.69,0,0,0,0-.33Z" transform="translate(-0.03 0)"/><path class="cls-6" d="M50.07,60.37c0-.29,0-.71,0-1.08V54.22h.76v2.63h0a1.59,1.59,0,0,1,1.43-.77c1,0,1.77.87,1.77,2.14a2,2,0,0,1-1.88,2.24,1.48,1.48,0,0,1-1.4-.79h0l0,.7Zm.79-1.68a1.33,1.33,0,0,0,0,.28,1.19,1.19,0,0,0,1.14.89c.8,0,1.27-.65,1.27-1.61s-.43-1.56-1.24-1.56a1.21,1.21,0,0,0-1.16.93,1.39,1.39,0,0,0,0,.32Z" transform="translate(-0.03 0)"/><path class="cls-6" d="M55.25,56.18l.92,2.47c.1.28.2.61.27.86h0c.07-.25.16-.57.26-.87l.84-2.46h.8l-1.14,3a6.44,6.44,0,0,1-1.44,2.63,2.19,2.19,0,0,1-.93.49l-.19-.64a1.94,1.94,0,0,0,.66-.37,2.3,2.3,0,0,0,.64-.85.46.46,0,0,0,.06-.18A.48.48,0,0,0,56,60l-1.55-3.86Z" transform="translate(-0.03 0)"/><path class="cls-6" d="M19,63.66v5.83h-.75V63.66Z" transform="translate(-0.03 0)"/><path class="cls-6" d="M20.41,66.44c0-.44,0-.79,0-1.14h.68l0,.69h0a1.55,1.55,0,0,1,1.38-.78c.58,0,1.48.34,1.48,1.78v2.5h-.76V67.08c0-.68-.25-1.24-1-1.24a1.08,1.08,0,0,0-1,.78,1.18,1.18,0,0,0,0,.35v2.52h-.76Z" transform="translate(-0.03 0)"/><path class="cls-6" d="M25.11,68.71a1.94,1.94,0,0,0,1,.3c.56,0,.82-.27.82-.62s-.22-.56-.78-.77c-.76-.27-1.11-.68-1.11-1.18a1.28,1.28,0,0,1,1.44-1.23,2,2,0,0,1,1,.26l-.19.55a1.63,1.63,0,0,0-.85-.24c-.45,0-.7.26-.7.57s.25.5.79.71c.73.28,1.1.64,1.1,1.26s-.57,1.26-1.57,1.26a2.41,2.41,0,0,1-1.17-.29Z" transform="translate(-0.03 0)"/><path class="cls-6" d="M32.14,68.35c0,.43,0,.81,0,1.14H31.5l0-.68h0a1.58,1.58,0,0,1-1.38.77c-.66,0-1.45-.36-1.45-1.83V65.3h.76v2.32c0,.8.25,1.33.94,1.33a1.09,1.09,0,0,0,1-.69,1,1,0,0,0,.07-.39V65.3h.76Z" transform="translate(-0.03 0)"/><path class="cls-6" d="M33.41,66.61c0-.49,0-.92,0-1.31H34l0,.82h0a1.25,1.25,0,0,1,1.16-.91l.22,0V66a1.07,1.07,0,0,0-1.28,1,2,2,0,0,0,0,.36v2.23h-.75Z" transform="translate(-0.03 0)"/><path class="cls-6" d="M36.58,67.53A1.34,1.34,0,0,0,38,69a2.73,2.73,0,0,0,1.16-.22l.13.55a3.42,3.42,0,0,1-1.39.26,2,2,0,0,1-2.06-2.11,2,2,0,0,1,2-2.26,1.77,1.77,0,0,1,1.73,2,2.61,2.61,0,0,1,0,.35ZM38.81,67a1.09,1.09,0,0,0-1.06-1.24A1.26,1.26,0,0,0,36.58,67Z" transform="translate(-0.03 0)"/><path class="cls-6" d="M40.49,66.61c0-.49,0-.92,0-1.31h.67l0,.82h0a1.25,1.25,0,0,1,1.16-.91l.22,0V66a1.07,1.07,0,0,0-1.28,1,2,2,0,0,0,0,.36v2.23h-.75Z" transform="translate(-0.03 0)"/><path class="cls-6" d="M26.05,78.22H21.22l-.48,3.25a6.71,6.71,0,0,1,1-.07,5.29,5.29,0,0,1,2.72.68,3.58,3.58,0,0,1,1.81,3.25,4.39,4.39,0,0,1-4.71,4.32,6.17,6.17,0,0,1-3.15-.78l.43-1.3a5.67,5.67,0,0,0,2.7.7,2.79,2.79,0,0,0,3-2.75c0-1.63-1.11-2.8-3.64-2.8a12.76,12.76,0,0,0-1.75.14L20,76.78h6.05Z" transform="translate(-0.03 0)"/><path class="cls-6" d="M29.48,88.23a6.93,6.93,0,0,0,1.38-.06,4.73,4.73,0,0,0,2.65-1.23,5.55,5.55,0,0,0,1.68-3.36h-.06a3.74,3.74,0,0,1-3,1.36,3.67,3.67,0,0,1-3.74-3.88,4.33,4.33,0,0,1,4.32-4.49c2.59,0,4.19,2.1,4.19,5.33a8,8,0,0,1-2.18,5.94,6.34,6.34,0,0,1-3.68,1.69,7.82,7.82,0,0,1-1.58.1ZM30.1,81a2.45,2.45,0,0,0,2.44,2.69A2.83,2.83,0,0,0,35,82.31a1.11,1.11,0,0,0,.16-.62c0-2.16-.8-3.82-2.59-3.82C31.14,77.87,30.1,79.16,30.1,81Z" transform="translate(-0.03 0)"/><path class="cls-6" d="M44.18,80.34c0,2.67-1.4,4-3,4s-2.94-1.27-3-3.82,1.38-4,3.05-4S44.18,77.93,44.18,80.34Zm-4.63.12c0,1.62.56,2.84,1.63,2.84s1.64-1.2,1.64-2.88-.45-2.82-1.64-2.82S39.55,78.86,39.55,80.46ZM41,89.65l7.44-13.08h1.09L42.12,89.65Zm11.39-4.07c0,2.67-1.4,4-3,4s-2.94-1.26-3-3.79,1.38-4,3.06-4S52.42,83.17,52.42,85.58Zm-4.64.12c0,1.61.61,2.84,1.66,2.84s1.63-1.21,1.63-2.88-.44-2.82-1.63-2.82S47.78,84.1,47.78,85.7Z" transform="translate(-0.03 0)"/><path class="cls-6" d="M86.26,49.55V43.72h.82l1.87,3a17.79,17.79,0,0,1,1,1.89h0c-.07-.78-.09-1.49-.09-2.4V43.72h.71v5.83h-.76l-1.85-3a17.41,17.41,0,0,1-1.09-1.94h0c0,.74.06,1.44.06,2.41v2.49Z" transform="translate(-0.03 0)"/><path class="cls-6" d="M95.72,47.42a2,2,0,0,1-2.08,2.23,2,2,0,0,1-2-2.16,2,2,0,0,1,2.07-2.22A2,2,0,0,1,95.72,47.42Zm-3.32,0c0,.91.53,1.61,1.27,1.61s1.27-.69,1.27-1.63c0-.71-.35-1.61-1.25-1.61S92.4,46.67,92.4,47.47Z" transform="translate(-0.03 0)"/><path class="cls-6" d="M97.6,44.16v1.2h1.09v.58H97.6V48.2c0,.52.15.82.57.82a1.44,1.44,0,0,0,.44-.06l0,.57a1.87,1.87,0,0,1-.68.11,1.08,1.08,0,0,1-.82-.32,1.55,1.55,0,0,1-.29-1.09V45.94h-.65v-.58h.65v-1Z" transform="translate(-0.03 0)"/><path class="cls-6" d="M105.48,49.36a3.67,3.67,0,0,1-1.54.28,2.73,2.73,0,0,1-2.88-3,2.91,2.91,0,0,1,3-3.07,3.19,3.19,0,0,1,1.38.26l-.18.62a2.73,2.73,0,0,0-1.18-.24,2.16,2.16,0,0,0-2.27,2.4A2.12,2.12,0,0,0,104.1,49a3,3,0,0,0,1.23-.25Z" transform="translate(-0.03 0)"/><path class="cls-6" d="M110.11,47.42A2.06,2.06,0,0,1,108,49.65a2,2,0,0,1-2-2.16,2,2,0,0,1,2.08-2.22A2,2,0,0,1,110.11,47.42Zm-3.33,0c0,.91.53,1.61,1.27,1.61s1.28-.69,1.28-1.63c0-.71-.36-1.61-1.26-1.61S106.78,46.67,106.78,47.47Z" transform="translate(-0.03 0)"/><path class="cls-6" d="M111.31,45.36l.82,2.36a10.89,10.89,0,0,1,.34,1.07h0c.1-.35.22-.69.36-1.07l.81-2.36h.8l-1.64,4.19h-.73l-1.59-4.19Z" transform="translate(-0.03 0)"/><path class="cls-6" d="M115.53,47.6A1.33,1.33,0,0,0,117,49.05a2.76,2.76,0,0,0,1.16-.22l.13.55a3.42,3.42,0,0,1-1.39.26,2,2,0,0,1-2.06-2.11,2,2,0,0,1,2-2.26,1.77,1.77,0,0,1,1.73,2,2.93,2.93,0,0,1,0,.36Zm2.23-.55a1.09,1.09,0,0,0-1.06-1.24,1.26,1.26,0,0,0-1.17,1.24Z" transform="translate(-0.03 0)"/><path class="cls-6" d="M119.44,46.67c0-.49,0-.92,0-1.31h.67l0,.83h0a1.25,1.25,0,0,1,1.16-.92l.21,0V46l-.25,0a1.07,1.07,0,0,0-1,1c0,.11,0,.23,0,.36v2.23h-.75Z" transform="translate(-0.03 0)"/><path class="cls-6" d="M122.61,47.6a1.34,1.34,0,0,0,1.44,1.45,2.8,2.8,0,0,0,1.16-.22l.13.55a3.42,3.42,0,0,1-1.39.26,2,2,0,0,1-2.06-2.11,2,2,0,0,1,2-2.26,1.77,1.77,0,0,1,1.73,2,2.55,2.55,0,0,1,0,.36Zm2.24-.55a1.09,1.09,0,0,0-1.06-1.24,1.26,1.26,0,0,0-1.17,1.24Z" transform="translate(-0.03 0)"/><path class="cls-6" d="M130.14,43.41v5.06c0,.37,0,.8,0,1.08h-.69l0-.73h0a1.54,1.54,0,0,1-1.43.83,1.91,1.91,0,0,1-1.79-2.13,2,2,0,0,1,1.88-2.25,1.39,1.39,0,0,1,1.26.64h0v-2.5Zm-.76,3.66a1.66,1.66,0,0,0,0-.32,1.12,1.12,0,0,0-1.1-.88c-.79,0-1.26.69-1.26,1.61s.42,1.55,1.24,1.55a1.15,1.15,0,0,0,1.12-.91,1.58,1.58,0,0,0,0-.32Z" transform="translate(-0.03 0)"/><path class="cls-6" d="M86.2,58.67c0-.28,0-.7,0-1.08V52.53H87v2.63h0a1.54,1.54,0,0,1,1.42-.77,1.88,1.88,0,0,1,1.77,2.14,2,2,0,0,1-1.88,2.24,1.48,1.48,0,0,1-1.4-.79h0l0,.69ZM87,57a2.23,2.23,0,0,0,0,.27,1.17,1.17,0,0,0,1.14.89c.8,0,1.28-.64,1.28-1.61S89,55,88.19,55a1.21,1.21,0,0,0-1.16.93,1.37,1.37,0,0,0,0,.31Z" transform="translate(-0.03 0)"/><path class="cls-6" d="M91.39,54.49,92.3,57c.1.28.2.61.27.86h0c.08-.25.16-.57.27-.88l.83-2.45h.8l-1.14,3a6.38,6.38,0,0,1-1.44,2.62,2.12,2.12,0,0,1-.93.5L90.79,60a2,2,0,0,0,.66-.38,2.18,2.18,0,0,0,.64-.84.5.5,0,0,0,.07-.19.55.55,0,0,0-.06-.19l-1.55-3.86Z" transform="translate(-0.03 0)"/><path class="cls-6" d="M97.8,52.84v5.83h-.75V52.84Z" transform="translate(-0.03 0)"/><path class="cls-6" d="M99.17,55.62c0-.43,0-.79,0-1.13h.68l0,.69h0a1.52,1.52,0,0,1,1.38-.79c.58,0,1.48.35,1.48,1.78v2.5H102V56.26c0-.67-.25-1.24-1-1.24a1.09,1.09,0,0,0-1,.78,1,1,0,0,0,0,.36v2.51h-.77Z" transform="translate(-0.03 0)"/><path class="cls-6" d="M103.87,57.9a2.11,2.11,0,0,0,1,.3c.55,0,.81-.28.81-.62s-.21-.57-.78-.77c-.75-.27-1.1-.69-1.1-1.19a1.29,1.29,0,0,1,1.44-1.23,2.08,2.08,0,0,1,1,.26l-.19.55a1.67,1.67,0,0,0-.86-.24c-.45,0-.7.26-.7.57s.25.51.8.71c.73.28,1.1.64,1.1,1.27s-.57,1.25-1.57,1.25a2.45,2.45,0,0,1-1.18-.28Z" transform="translate(-0.03 0)"/><path class="cls-6" d="M110.91,57.53c0,.44,0,.82,0,1.14h-.68l0-.68h0a1.57,1.57,0,0,1-1.39.78c-.65,0-1.44-.36-1.44-1.84V54.49h.76v2.32c0,.79.24,1.33.94,1.33a1.11,1.11,0,0,0,1-.69,1.28,1.28,0,0,0,.07-.39V54.49h.76Z" transform="translate(-0.03 0)"/><path class="cls-6" d="M112.18,55.79c0-.49,0-.91,0-1.3h.67l0,.82h0a1.26,1.26,0,0,1,1.16-.92.71.71,0,0,1,.21,0v.72a.93.93,0,0,0-.26,0,1.08,1.08,0,0,0-1,1,3.27,3.27,0,0,0,0,.35v2.23h-.75Z" transform="translate(-0.03 0)"/><path class="cls-6" d="M115.34,56.72a1.34,1.34,0,0,0,1.44,1.45,2.82,2.82,0,0,0,1.16-.21l.13.54a3.42,3.42,0,0,1-1.39.26,2,2,0,0,1-2.06-2.11,2,2,0,0,1,2-2.26,1.77,1.77,0,0,1,1.73,2,2.55,2.55,0,0,1,0,.36Zm2.23-.55a1.07,1.07,0,0,0-1-1.23,1.26,1.26,0,0,0-1.17,1.23Z" transform="translate(-0.03 0)"/><path class="cls-6" d="M119.25,55.79c0-.49,0-.91,0-1.3h.67l0,.82h0a1.26,1.26,0,0,1,1.16-.92.71.71,0,0,1,.21,0v.72a1,1,0,0,0-.26,0,1.08,1.08,0,0,0-1,1,3.27,3.27,0,0,0,0,.35v2.23h-.76Z" transform="translate(-0.03 0)"/><path class="cls-6" d="M91.78,78.62V75.18H85.9V74.05L91.54,66h1.85v7.86h1.77v1.35H93.39v3.44Zm0-4.79V69.61c0-.66,0-1.33,0-2h0c-.39.74-.71,1.29-1.06,1.87l-3.09,4.3v0Z" transform="translate(-0.03 0)"/><path class="cls-6" d="M100.19,67.56h0L98,68.75l-.33-1.3L100.38,66h1.46V78.62h-1.65Z" transform="translate(-0.03 0)"/><path class="cls-6" d="M112.17,69.53c0,2.67-1.41,4-3,4s-2.94-1.26-3-3.81,1.38-4,3.06-4S112.17,67.12,112.17,69.53Zm-4.64.12c0,1.61.57,2.84,1.64,2.84s1.63-1.21,1.63-2.88-.45-2.83-1.63-2.83S107.53,68.05,107.53,69.65ZM109,78.84l7.44-13.09h1.09L110.1,78.84Zm11.39-4.07c0,2.66-1.4,4-3,4s-2.94-1.27-3-3.8,1.39-4,3.06-4S120.4,72.35,120.4,74.77Zm-4.63.11c0,1.62.6,2.85,1.65,2.85s1.64-1.21,1.64-2.88S118.61,72,117.42,72,115.77,73.29,115.77,74.88Z" transform="translate(-0.03 0)"/></svg>