<svg id="Layer_1" data-name="Layer 1" xmlns="http://www.w3.org/2000/svg" xmlns:xlink="http://www.w3.org/1999/xlink" viewBox="0 0 226.94 138.51"><defs><style>.cls-1{fill:none;}.cls-2{fill:#41bbf9;}.cls-3{clip-path:url(#clip-path);}.cls-4{fill:#0c5adb;}.cls-5{fill:#22a3f2;}.cls-6{fill:#228cc6;}.cls-7{fill:#1568a0;}.cls-8{clip-path:url(#clip-path-2);}.cls-9{fill:#c9c9c9;}</style><clipPath id="clip-path" transform="translate(-1 -0.8)"><rect class="cls-1" x="1" width="227.94" height="152.64"/></clipPath><clipPath id="clip-path-2" transform="translate(-1 -0.8)"><rect class="cls-1" width="227.94" height="152.64"/></clipPath></defs><rect class="cls-2" x="0.5" y="35.16" width="53.36" height="82.45"/><g class="cls-3"><path class="cls-4" d="M55.36,118.91H1V35.46H55.36ZM2,117.91H54.36V36.46H2Z" transform="translate(-1 -0.8)"/></g><rect class="cls-5" x="57.89" y="28.68" width="53.36" height="88.94"/><path class="cls-4" d="M112.76,118.91H58.39V29h54.37Zm-53.37-1h52.37V30H59.39Z" transform="translate(-1 -0.8)"/><rect class="cls-6" x="115.38" y="20.28" width="53.36" height="97.33"/><path class="cls-4" d="M170.25,118.91H115.88V20.58h54.37Zm-53.37-1h52.37V21.58H116.88Z" transform="translate(-1 -0.8)"/><rect class="cls-7" x="173.08" y="17.18" width="53.36" height="100.43"/><g class="cls-8"><path class="cls-4" d="M227.94,118.91H173.58V17.48h54.36Zm-53.36-1h52.36V18.48H174.58Z" transform="translate(-1 -0.8)"/></g><path class="cls-9" d="M9.29,127.42a2.12,2.12,0,0,0,1.09.3c.62,0,1-.32,1-.8s-.26-.69-.89-.94-1.25-.67-1.25-1.34a1.36,1.36,0,0,1,1.53-1.28,2.13,2.13,0,0,1,1,.23l-.17.5a1.93,1.93,0,0,0-.9-.22c-.64,0-.88.38-.88.7s.28.66.93.91c.8.31,1.21.7,1.21,1.39s-.54,1.36-1.65,1.36a2.42,2.42,0,0,1-1.21-.3Z" transform="translate(-1 -0.8)"/><path class="cls-9" d="M15.91,126.44a1.66,1.66,0,0,1-1.69,1.8,1.61,1.61,0,0,1-1.62-1.75,1.66,1.66,0,0,1,1.68-1.8A1.61,1.61,0,0,1,15.91,126.44Zm-2.69,0c0,.74.43,1.3,1,1.3s1-.55,1-1.31c0-.58-.29-1.31-1-1.31S13.22,125.83,13.22,126.47Z" transform="translate(-1 -0.8)"/><path class="cls-9" d="M16.75,128.16v-2.92h-.48v-.47h.48v-.16a1.57,1.57,0,0,1,.39-1.18,1.16,1.16,0,0,1,.83-.32,1.41,1.41,0,0,1,.52.1l-.08.47a1,1,0,0,0-.4-.07c-.52,0-.65.46-.65,1v.18h.82v.47h-.82v2.92Z" transform="translate(-1 -0.8)"/><path class="cls-9" d="M19.55,123.8v1h.88v.47h-.88v1.83c0,.42.12.65.46.65a1.49,1.49,0,0,0,.36,0l0,.47a1.78,1.78,0,0,1-.55.08.86.86,0,0,1-.67-.26,1.27,1.27,0,0,1-.23-.88v-1.85h-.53v-.47H19V124Z" transform="translate(-1 -0.8)"/><path class="cls-9" d="M21.42,124.77l.45,1.72c.1.38.19.73.25,1.08h0a9.63,9.63,0,0,1,.3-1.07l.55-1.73h.52l.52,1.69a11.09,11.09,0,0,1,.3,1.11h0a9.37,9.37,0,0,1,.25-1.1l.49-1.7h.61l-1.1,3.39h-.56l-.51-1.62c-.12-.38-.22-.71-.31-1.11h0a9.68,9.68,0,0,1-.31,1.12l-.54,1.61h-.56l-1-3.39Z" transform="translate(-1 -0.8)"/><path class="cls-9" d="M28.18,128.16l-.05-.43h0a1.25,1.25,0,0,1-1,.51,1,1,0,0,1-1-1c0-.82.72-1.26,2-1.26v-.07a.69.69,0,0,0-.77-.78,1.74,1.74,0,0,0-.88.25l-.14-.41a2.13,2.13,0,0,1,1.11-.3c1,0,1.29.71,1.29,1.39v1.27a5,5,0,0,0,.06.81Zm-.09-1.73c-.67,0-1.44.1-1.44.76a.55.55,0,0,0,.58.59.85.85,0,0,0,.82-.57.65.65,0,0,0,0-.19Z" transform="translate(-1 -0.8)"/><path class="cls-9" d="M29.68,125.83c0-.4,0-.74,0-1.06h.54l0,.66h0a1,1,0,0,1,.93-.74l.18,0v.59a.66.66,0,0,0-.21,0,.88.88,0,0,0-.83.8,2.3,2.3,0,0,0,0,.28v1.81h-.61Z" transform="translate(-1 -0.8)"/><path class="cls-9" d="M32.25,126.58a1.08,1.08,0,0,0,1.16,1.17,2.22,2.22,0,0,0,.94-.17l.1.44a2.74,2.74,0,0,1-1.13.21,1.57,1.57,0,0,1-1.66-1.71,1.65,1.65,0,0,1,1.59-1.83,1.44,1.44,0,0,1,1.4,1.6c0,.13,0,.22,0,.29Zm1.8-.44a.88.88,0,0,0-.85-1,1,1,0,0,0-1,1Z" transform="translate(-1 -0.8)"/><path class="cls-9" d="M38.77,128.16l-.05-.43h0a1.25,1.25,0,0,1-1,.51,1,1,0,0,1-1-1c0-.82.73-1.26,2-1.26v-.07a.69.69,0,0,0-.77-.78,1.74,1.74,0,0,0-.88.25l-.14-.41a2.14,2.14,0,0,1,1.12-.3c1,0,1.28.71,1.28,1.39v1.27a5,5,0,0,0,.06.81Zm-.09-1.73c-.67,0-1.44.1-1.44.76a.55.55,0,0,0,.58.59.83.83,0,0,0,.82-.57.65.65,0,0,0,0-.19Z" transform="translate(-1 -0.8)"/><path class="cls-9" d="M40.27,125.69c0-.35,0-.64,0-.92h.55l0,.56h0a1.25,1.25,0,0,1,1.12-.64c.47,0,1.2.28,1.2,1.45v2h-.61v-2c0-.55-.21-1-.79-1a.89.89,0,0,0-.83.63,1.27,1.27,0,0,0,0,.29v2h-.61Z" transform="translate(-1 -0.8)"/><path class="cls-9" d="M47.08,123.19v4.09c0,.31,0,.65,0,.88h-.56l0-.59h0a1.25,1.25,0,0,1-1.15.67,1.55,1.55,0,0,1-1.45-1.73,1.62,1.62,0,0,1,1.52-1.82,1.15,1.15,0,0,1,1,.52h0v-2Zm-.62,3a1.14,1.14,0,0,0,0-.26.92.92,0,0,0-.89-.71c-.64,0-1,.56-1,1.31s.34,1.25,1,1.25a.94.94,0,0,0,.91-.74,1.06,1.06,0,0,0,0-.26Z" transform="translate(-1 -0.8)"/><path class="cls-9" d="M12.67,133.55H11.23V133h3.5v.51H13.28v4.21h-.61Z" transform="translate(-1 -0.8)"/><path class="cls-9" d="M15.08,136.17a1.09,1.09,0,0,0,1.16,1.18,2.35,2.35,0,0,0,.94-.17l.11.44a2.74,2.74,0,0,1-1.13.21,1.58,1.58,0,0,1-1.67-1.71,1.65,1.65,0,0,1,1.59-1.83,1.43,1.43,0,0,1,1.4,1.6,1.8,1.8,0,0,1,0,.28Zm1.81-.44a.88.88,0,0,0-.86-1,1,1,0,0,0-.94,1Z" transform="translate(-1 -0.8)"/><path class="cls-9" d="M20.66,137.63a2.17,2.17,0,0,1-1,.2A1.62,1.62,0,0,1,18,136.1a1.72,1.72,0,0,1,1.82-1.8,2.16,2.16,0,0,1,.86.17l-.14.48a1.39,1.39,0,0,0-.72-.16,1.28,1.28,0,0,0,0,2.55,1.74,1.74,0,0,0,.76-.17Z" transform="translate(-1 -0.8)"/><path class="cls-9" d="M21.38,132.78H22v2.12h0a1.07,1.07,0,0,1,.44-.43,1.22,1.22,0,0,1,.63-.18c.46,0,1.19.28,1.19,1.45v2h-.62v-1.95c0-.55-.2-1-.78-1a.89.89,0,0,0-.83.62.64.64,0,0,0,0,.29v2h-.62Z" transform="translate(-1 -0.8)"/><path class="cls-9" d="M25.27,135.28c0-.35,0-.63,0-.91h.54l0,.56h0a1.25,1.25,0,0,1,1.12-.64c.47,0,1.2.28,1.2,1.44v2h-.62v-2c0-.54-.2-1-.78-1a.88.88,0,0,0-.83.63,1.19,1.19,0,0,0,0,.29v2h-.61Z" transform="translate(-1 -0.8)"/><path class="cls-9" d="M32.22,136a1.65,1.65,0,0,1-1.69,1.8,1.6,1.6,0,0,1-1.62-1.74,1.66,1.66,0,0,1,1.68-1.8A1.61,1.61,0,0,1,32.22,136Zm-2.69,0c0,.74.43,1.3,1,1.3s1-.55,1-1.32c0-.57-.29-1.3-1-1.3S29.53,135.43,29.53,136.07Z" transform="translate(-1 -0.8)"/><path class="cls-9" d="M33,132.78h.62v5H33Z" transform="translate(-1 -0.8)"/><path class="cls-9" d="M37.71,136a1.65,1.65,0,0,1-1.68,1.8,1.61,1.61,0,0,1-1.63-1.74,1.66,1.66,0,0,1,1.68-1.8A1.61,1.61,0,0,1,37.71,136Zm-2.69,0c0,.74.43,1.3,1,1.3s1-.55,1-1.32c0-.57-.28-1.3-1-1.3S35,135.43,35,136.07Z" transform="translate(-1 -0.8)"/><path class="cls-9" d="M41.41,134.37c0,.24,0,.52,0,.93v2a1.93,1.93,0,0,1-.48,1.54,1.8,1.8,0,0,1-1.23.41,2.2,2.2,0,0,1-1.13-.28l.15-.47a2,2,0,0,0,1,.27c.63,0,1.09-.33,1.09-1.19v-.37h0a1.23,1.23,0,0,1-1.08.56,1.52,1.52,0,0,1-1.45-1.65,1.63,1.63,0,0,1,1.53-1.8,1.13,1.13,0,0,1,1.06.59h0l0-.51Zm-.64,1.34a.8.8,0,0,0,0-.28.9.9,0,0,0-.86-.66c-.59,0-1,.5-1,1.28s.33,1.22,1,1.22a.88.88,0,0,0,.85-.63.91.91,0,0,0,.05-.33Z" transform="translate(-1 -0.8)"/><path class="cls-9" d="M42.63,134.37l.74,2c.08.22.16.49.22.69h0c.06-.2.13-.46.22-.7l.67-2h.65l-.92,2.41a5.29,5.29,0,0,1-1.17,2.13,1.61,1.61,0,0,1-.75.39l-.16-.51a1.64,1.64,0,0,0,.54-.3,2,2,0,0,0,.52-.69.37.37,0,0,0,0-.15.5.5,0,0,0,0-.16L42,134.37Z" transform="translate(-1 -0.8)"/><path class="cls-9" d="M24.24,19.51V20l-2.55,5.33h-.82l2.54-5.18v0H20.54v-.66Z" transform="translate(-1 -0.8)"/><path class="cls-9" d="M28.85,19.51V20L26.3,25.37h-.81L28,20.19v0H25.16v-.66Z" transform="translate(-1 -0.8)"/><path class="cls-9" d="M32.31,21.16c0,1.23-.65,1.85-1.41,1.85s-1.36-.59-1.36-1.77.63-1.83,1.41-1.83S32.31,20.05,32.31,21.16Zm-2.14.06c0,.74.26,1.31.75,1.31s.76-.56.76-1.33-.21-1.31-.76-1.31S30.17,20.48,30.17,21.22Zm.68,4.24,3.44-6.05h.5l-3.44,6.05Zm5.27-1.88c0,1.24-.65,1.85-1.4,1.85s-1.36-.59-1.37-1.76.64-1.83,1.42-1.83S36.12,22.47,36.12,23.58ZM34,23.64c0,.74.28,1.31.77,1.31s.76-.56.76-1.33-.21-1.31-.76-1.31S34,22.9,34,23.64Z" transform="translate(-1 -0.8)"/><path class="cls-9" d="M77.76,16.85a1.66,1.66,0,0,1,1.16-1.56v0A1.45,1.45,0,0,1,78,13.94a1.64,1.64,0,0,1,1.81-1.55,1.46,1.46,0,0,1,.74,2.81v0a1.62,1.62,0,0,1,1.18,1.51,1.81,1.81,0,0,1-2,1.71C78.49,18.44,77.76,17.71,77.76,16.85Zm3.15,0c0-.72-.5-1.06-1.29-1.28a1.27,1.27,0,0,0-1.05,1.2,1.08,1.08,0,0,0,1.17,1.12A1.06,1.06,0,0,0,80.91,16.82Zm-2.18-2.93c0,.58.44.9,1.12,1.08a1.15,1.15,0,0,0,.89-1.06.91.91,0,0,0-1-1A.94.94,0,0,0,78.73,13.89Z" transform="translate(-1 -0.8)"/><path class="cls-9" d="M82.63,17.43a2.72,2.72,0,0,0,1.3.37c1,0,1.33-.65,1.32-1.14,0-.82-.74-1.17-1.51-1.17H83.3V14.9h.44c.58,0,1.31-.3,1.31-1,0-.47-.3-.88-1-.88a2.14,2.14,0,0,0-1.17.38l-.21-.57a2.75,2.75,0,0,1,1.53-.45c1.16,0,1.68.68,1.68,1.39a1.45,1.45,0,0,1-1.08,1.38v0a1.51,1.51,0,0,1,1.3,1.5c0,.94-.73,1.76-2.13,1.76a3,3,0,0,1-1.52-.4Z" transform="translate(-1 -0.8)"/><path class="cls-9" d="M89.7,14.13c0,1.24-.65,1.85-1.4,1.85s-1.36-.59-1.37-1.77.64-1.82,1.41-1.82S89.7,13,89.7,14.13Zm-2.14.06c0,.74.26,1.31.75,1.31s.76-.56.76-1.33-.21-1.31-.76-1.31S87.56,13.45,87.56,14.19Zm.68,4.25,3.44-6.05h.51l-3.44,6.05Zm5.27-1.89c0,1.24-.65,1.85-1.4,1.85s-1.36-.59-1.37-1.76.64-1.83,1.42-1.83S93.51,15.44,93.51,16.55Zm-2.14.06c0,.75.27,1.31.76,1.31s.76-.56.76-1.33-.21-1.3-.76-1.3S91.37,15.87,91.37,16.61Z" transform="translate(-1 -0.8)"/><path class="cls-9" d="M136,9.94a3,3,0,0,0,.64,0,2.19,2.19,0,0,0,1.23-.57,2.6,2.6,0,0,0,.77-1.55h0a1.76,1.76,0,0,1-1.38.63,1.69,1.69,0,0,1-1.73-1.79,2,2,0,0,1,2-2.08c1.19,0,1.93,1,1.93,2.46a3.73,3.73,0,0,1-1,2.75,2.94,2.94,0,0,1-1.71.78,3.3,3.3,0,0,1-.73.05Zm.29-3.37a1.12,1.12,0,0,0,1.13,1.24,1.31,1.31,0,0,0,1.15-.61.48.48,0,0,0,.07-.29c0-1-.37-1.76-1.19-1.76S136.3,5.74,136.3,6.57Z" transform="translate(-1 -0.8)"/><path class="cls-9" d="M141.89,5.38h0l-1,.55-.16-.6L142,4.65h.68V10.5h-.77Z" transform="translate(-1 -0.8)"/><path class="cls-9" d="M147.43,6.29c0,1.24-.65,1.85-1.41,1.85s-1.36-.59-1.37-1.77.64-1.82,1.42-1.82S147.43,5.18,147.43,6.29Zm-2.15.06c0,.74.26,1.31.76,1.31s.76-.56.76-1.33S146.59,5,146,5,145.28,5.61,145.28,6.35ZM146,10.6l3.44-6h.5l-3.44,6.05Zm5.27-1.88c0,1.23-.65,1.84-1.4,1.84s-1.36-.59-1.37-1.76S149.11,7,149.88,7,151.24,7.6,151.24,8.72Zm-2.15,0c0,.75.28,1.31.77,1.31s.75-.56.75-1.33-.2-1.3-.75-1.3S149.09,8,149.09,8.77Z" transform="translate(-1 -0.8)"/><g class="cls-8"><path class="cls-9" d="M193.12,6.19a3,3,0,0,0,.64,0A2.22,2.22,0,0,0,195,5.6,2.52,2.52,0,0,0,195.75,4h0a1.76,1.76,0,0,1-3.11-1.16,2,2,0,0,1,2-2.08c1.2,0,1.94,1,1.94,2.46a3.73,3.73,0,0,1-1,2.75,2.91,2.91,0,0,1-1.7.78,3.34,3.34,0,0,1-.73,0Zm.29-3.37a1.13,1.13,0,0,0,1.12,1.25,1.31,1.31,0,0,0,1.15-.62.47.47,0,0,0,.07-.28c0-1-.36-1.77-1.19-1.77S193.41,2,193.41,2.82Z" transform="translate(-1 -0.8)"/><path class="cls-9" d="M199.72,6.75V5.16H197V4.63L199.62.9h.85V4.53h.82v.63h-.82V6.75Zm0-2.22V2.58c0-.31,0-.61,0-.92h0c-.18.35-.32.6-.48.87l-1.43,2h1.91Z" transform="translate(-1 -0.8)"/><path class="cls-9" d="M204.53,2.55c0,1.23-.65,1.84-1.4,1.84s-1.36-.59-1.37-1.76S202.4.8,203.17.8,204.53,1.43,204.53,2.55Zm-2.14.05c0,.75.26,1.31.75,1.31s.76-.55.76-1.33-.21-1.3-.76-1.3S202.39,1.86,202.39,2.6Zm.68,4.25,3.44-6h.5l-3.43,6.05ZM208.34,5c0,1.23-.65,1.84-1.4,1.84s-1.36-.58-1.37-1.75.64-1.84,1.42-1.84S208.34,3.85,208.34,5ZM206.2,5c0,.75.27,1.32.76,1.32s.76-.56.76-1.34-.21-1.3-.76-1.3S206.2,4.28,206.2,5Z" transform="translate(-1 -0.8)"/></g><path class="cls-9" d="M64.53,123.5a6.88,6.88,0,0,1,1.17-.1,1.92,1.92,0,0,1,1.33.4,1.24,1.24,0,0,1,.41,1,1.41,1.41,0,0,1-.36,1,2,2,0,0,1-1.45.52,2.43,2.43,0,0,1-.49,0v1.89h-.61Zm.61,2.27a1.87,1.87,0,0,0,.51,0c.73,0,1.18-.36,1.18-1s-.44-.92-1.11-.92a2.49,2.49,0,0,0-.58,0Z" transform="translate(-1 -0.8)"/><path class="cls-9" d="M71,127.23a8.74,8.74,0,0,0,0,.93h-.55l0-.55h0a1.28,1.28,0,0,1-1.12.63c-.53,0-1.17-.3-1.17-1.49v-2h.62v1.88c0,.64.19,1.07.75,1.07a.87.87,0,0,0,.87-.87v-2.08H71Z" transform="translate(-1 -0.8)"/><path class="cls-9" d="M72,128.16c0-.23,0-.57,0-.88v-4.09h.61v2.13h0a1.27,1.27,0,0,1,1.16-.63c.84,0,1.43.7,1.43,1.73a1.62,1.62,0,0,1-1.52,1.82,1.21,1.21,0,0,1-1.14-.64h0l0,.56Zm.64-1.36a.78.78,0,0,0,0,.22.94.94,0,0,0,.92.73c.64,0,1-.53,1-1.31s-.35-1.26-1-1.26a1,1,0,0,0-.94.76,1.56,1.56,0,0,0,0,.25Z" transform="translate(-1 -0.8)"/><path class="cls-9" d="M76,123.19h.62v5H76Z" transform="translate(-1 -0.8)"/><path class="cls-9" d="M78.31,123.82a.38.38,0,1,1-.76,0,.38.38,0,0,1,.38-.39A.37.37,0,0,1,78.31,123.82Zm-.69,4.34v-3.39h.62v3.39Z" transform="translate(-1 -0.8)"/><path class="cls-9" d="M81.68,128a2.18,2.18,0,0,1-1,.2A1.6,1.6,0,0,1,79,126.5a1.72,1.72,0,0,1,1.82-1.8,2.14,2.14,0,0,1,.85.17l-.14.48a1.48,1.48,0,0,0-.71-.16,1.28,1.28,0,0,0,0,2.55,1.66,1.66,0,0,0,.75-.17Z" transform="translate(-1 -0.8)"/><path class="cls-9" d="M83.82,127.42a2.12,2.12,0,0,0,1.09.3c.62,0,1-.32,1-.8s-.25-.69-.89-.94-1.25-.67-1.25-1.34a1.36,1.36,0,0,1,1.53-1.28,2.13,2.13,0,0,1,1,.23l-.17.5a1.92,1.92,0,0,0-.89-.22c-.65,0-.89.38-.89.7s.29.66.94.91,1.2.7,1.2,1.39-.54,1.36-1.65,1.36a2.45,2.45,0,0,1-1.21-.3Z" transform="translate(-1 -0.8)"/><path class="cls-9" d="M87.71,126.58a1.08,1.08,0,0,0,1.16,1.17,2.22,2.22,0,0,0,.94-.17l.11.44a2.74,2.74,0,0,1-1.13.21,1.58,1.58,0,0,1-1.67-1.71,1.65,1.65,0,0,1,1.59-1.83,1.44,1.44,0,0,1,1.4,1.6,2,2,0,0,1,0,.29Zm1.81-.44c0-.4-.16-1-.86-1a1,1,0,0,0-.94,1Z" transform="translate(-1 -0.8)"/><path class="cls-9" d="M90.87,125.83c0-.4,0-.74,0-1.06h.53l0,.66h0a1,1,0,0,1,.94-.74l.18,0v.59a.71.71,0,0,0-.21,0,.86.86,0,0,0-.83.8,2.19,2.19,0,0,0,0,.28v1.81h-.61Z" transform="translate(-1 -0.8)"/><path class="cls-9" d="M93.57,124.77l.66,1.91a6.6,6.6,0,0,1,.28.86h0a8.71,8.71,0,0,1,.29-.86l.65-1.91h.65l-1.33,3.39H94.2l-1.29-3.39Z" transform="translate(-1 -0.8)"/><path class="cls-9" d="M97.38,123.82a.36.36,0,0,1-.39.38.37.37,0,0,1-.37-.38.38.38,0,0,1,.39-.39A.36.36,0,0,1,97.38,123.82Zm-.68,4.34v-3.39h.61v3.39Z" transform="translate(-1 -0.8)"/><path class="cls-9" d="M100.75,128a2.17,2.17,0,0,1-1,.2,1.61,1.61,0,0,1-1.69-1.73,1.72,1.72,0,0,1,1.82-1.8,2.2,2.2,0,0,1,.86.17l-.14.48a1.5,1.5,0,0,0-.72-.16,1.28,1.28,0,0,0,0,2.55,1.74,1.74,0,0,0,.76-.17Z" transform="translate(-1 -0.8)"/><path class="cls-9" d="M101.78,126.58a1.08,1.08,0,0,0,1.16,1.17,2.22,2.22,0,0,0,.94-.17l.11.44a2.74,2.74,0,0,1-1.13.21,1.58,1.58,0,0,1-1.67-1.71,1.65,1.65,0,0,1,1.59-1.83,1.44,1.44,0,0,1,1.4,1.6,2,2,0,0,1,0,.29Zm1.81-.44c0-.4-.16-1-.86-1a1,1,0,0,0-.94,1Z" transform="translate(-1 -0.8)"/><path class="cls-9" d="M104.86,127.53a1.58,1.58,0,0,0,.81.24c.45,0,.66-.22.66-.5s-.18-.46-.63-.62c-.61-.22-.9-.56-.9-1a1,1,0,0,1,1.17-1,1.72,1.72,0,0,1,.84.21l-.16.45a1.35,1.35,0,0,0-.69-.2c-.37,0-.57.21-.57.47s.2.4.65.57.88.52.88,1-.46,1-1.26,1a2,2,0,0,1-1-.23Z" transform="translate(-1 -0.8)"/><path class="cls-9" d="M131.29,126h-1.84v1.7h2.05v.51h-2.66v-4.72h2.55V124h-1.94v1.49h1.84Z" transform="translate(-1 -0.8)"/><path class="cls-9" d="M135.17,123.19v4.09c0,.31,0,.65,0,.88h-.56l0-.59h0a1.25,1.25,0,0,1-1.15.67,1.55,1.55,0,0,1-1.45-1.73,1.62,1.62,0,0,1,1.52-1.82,1.13,1.13,0,0,1,1,.52h0v-2Zm-.62,3a1.14,1.14,0,0,0,0-.26.92.92,0,0,0-.89-.71c-.64,0-1,.56-1,1.31s.34,1.25,1,1.25a.93.93,0,0,0,.91-.74,1.06,1.06,0,0,0,0-.26Z" transform="translate(-1 -0.8)"/><path class="cls-9" d="M139,127.23a8.74,8.74,0,0,0,0,.93h-.55l0-.55h0a1.28,1.28,0,0,1-1.12.63c-.53,0-1.17-.3-1.17-1.49v-2h.62v1.88c0,.64.19,1.07.75,1.07a.87.87,0,0,0,.87-.87v-2.08H139Z" transform="translate(-1 -0.8)"/><path class="cls-9" d="M142.46,128a2.13,2.13,0,0,1-1,.2,1.61,1.61,0,0,1-1.69-1.73,1.73,1.73,0,0,1,1.82-1.8,2.16,2.16,0,0,1,.86.17l-.14.48a1.5,1.5,0,0,0-.72-.16,1.28,1.28,0,0,0,0,2.55,1.74,1.74,0,0,0,.76-.17Z" transform="translate(-1 -0.8)"/><path class="cls-9" d="M145.06,128.16l-.05-.43h0a1.25,1.25,0,0,1-1,.51,1,1,0,0,1-1-1c0-.82.73-1.26,2-1.26v-.07a.7.7,0,0,0-.78-.78,1.74,1.74,0,0,0-.88.25l-.14-.41a2.14,2.14,0,0,1,1.12-.3c1,0,1.28.71,1.28,1.39v1.27a5,5,0,0,0,.06.81Zm-.09-1.73c-.67,0-1.44.1-1.44.76a.55.55,0,0,0,.59.59.82.82,0,0,0,.81-.57.43.43,0,0,0,0-.19Z" transform="translate(-1 -0.8)"/><path class="cls-9" d="M147.28,123.8v1h.88v.47h-.88v1.83c0,.42.12.65.46.65a1.49,1.49,0,0,0,.36,0l0,.47a1.78,1.78,0,0,1-.55.08.82.82,0,0,1-.66-.26,1.22,1.22,0,0,1-.24-.88v-1.85h-.53v-.47h.53V124Z" transform="translate(-1 -0.8)"/><path class="cls-9" d="M149.54,123.82a.38.38,0,1,1-.76,0,.38.38,0,0,1,.38-.39A.37.37,0,0,1,149.54,123.82Zm-.69,4.34v-3.39h.62v3.39Z" transform="translate(-1 -0.8)"/><path class="cls-9" d="M153.56,126.44a1.66,1.66,0,0,1-1.69,1.8,1.61,1.61,0,0,1-1.62-1.75,1.66,1.66,0,0,1,1.68-1.8A1.61,1.61,0,0,1,153.56,126.44Zm-2.69,0c0,.74.43,1.3,1,1.3s1-.55,1-1.31c0-.58-.29-1.31-1-1.31S150.87,125.83,150.87,126.47Z" transform="translate(-1 -0.8)"/><path class="cls-9" d="M154.33,125.69c0-.35,0-.64,0-.92h.54l0,.56h0a1.25,1.25,0,0,1,1.12-.64c.47,0,1.2.28,1.2,1.45v2h-.62v-2c0-.55-.2-1-.78-1a.9.9,0,0,0-.87.92v2h-.62Z" transform="translate(-1 -0.8)"/><path class="cls-9" d="M185.91,123.44v2h2.29v-2h.61v4.72h-.61V126h-2.29v2.21h-.61v-4.72Z" transform="translate(-1 -0.8)"/><path class="cls-9" d="M190.19,126.58a1.08,1.08,0,0,0,1.16,1.17,2.22,2.22,0,0,0,.94-.17l.11.44a2.74,2.74,0,0,1-1.13.21,1.58,1.58,0,0,1-1.67-1.71,1.65,1.65,0,0,1,1.59-1.83,1.44,1.44,0,0,1,1.4,1.6,2,2,0,0,1,0,.29Zm1.81-.44c0-.4-.16-1-.86-1a1,1,0,0,0-.94,1Z" transform="translate(-1 -0.8)"/><path class="cls-9" d="M195.23,128.16l0-.43h0a1.25,1.25,0,0,1-1,.51,1,1,0,0,1-1-1c0-.82.73-1.26,2-1.26v-.07a.7.7,0,0,0-.78-.78,1.74,1.74,0,0,0-.88.25l-.14-.41a2.14,2.14,0,0,1,1.12-.3c1,0,1.28.71,1.28,1.39v1.27a5,5,0,0,0,.06.81Zm-.09-1.73c-.67,0-1.44.1-1.44.76a.55.55,0,0,0,.59.59.82.82,0,0,0,.81-.57.43.43,0,0,0,0-.19Z" transform="translate(-1 -0.8)"/><path class="cls-9" d="M196.73,123.19h.61v5h-.61Z" transform="translate(-1 -0.8)"/><path class="cls-9" d="M199.12,123.8v1H200v.47h-.88v1.83c0,.42.12.65.46.65a1.42,1.42,0,0,0,.36,0l0,.47a1.78,1.78,0,0,1-.55.08.84.84,0,0,1-.66-.26,1.22,1.22,0,0,1-.24-.88v-1.85H198v-.47h.53V124Z" transform="translate(-1 -0.8)"/><path class="cls-9" d="M200.7,123.19h.61v2.11h0a1.07,1.07,0,0,1,.44-.43,1.22,1.22,0,0,1,.63-.18c.45,0,1.18.28,1.18,1.45v2H203v-2c0-.54-.2-1-.78-1a.9.9,0,0,0-.83.62.85.85,0,0,0,0,.29v2h-.61Z" transform="translate(-1 -0.8)"/><path class="cls-9" d="M207,128a2.18,2.18,0,0,1-1,.2,1.6,1.6,0,0,1-1.68-1.73,1.72,1.72,0,0,1,1.82-1.8,2.14,2.14,0,0,1,.85.17l-.14.48a1.48,1.48,0,0,0-.71-.16,1.28,1.28,0,0,0,0,2.55,1.66,1.66,0,0,0,.75-.17Z" transform="translate(-1 -0.8)"/><path class="cls-9" d="M209.59,128.16l-.05-.43h0a1.23,1.23,0,0,1-1,.51,1,1,0,0,1-1-1c0-.82.73-1.26,2-1.26v-.07a.7.7,0,0,0-.77-.78,1.68,1.68,0,0,0-.88.25l-.14-.41a2.1,2.1,0,0,1,1.11-.3c1,0,1.29.71,1.29,1.39v1.27a5,5,0,0,0,.05.81Zm-.09-1.73c-.67,0-1.43.1-1.43.76a.54.54,0,0,0,.58.59.85.85,0,0,0,.82-.57.63.63,0,0,0,0-.19Z" transform="translate(-1 -0.8)"/><path class="cls-9" d="M211.09,125.83c0-.4,0-.74,0-1.06h.54l0,.66h0a1,1,0,0,1,.94-.74l.17,0v.59a.62.62,0,0,0-.21,0,.86.86,0,0,0-.82.8,1.2,1.2,0,0,0,0,.28v1.81h-.61Z" transform="translate(-1 -0.8)"/><path class="cls-9" d="M213.65,126.58a1.09,1.09,0,0,0,1.17,1.17,2.17,2.17,0,0,0,.93-.17l.11.44a2.74,2.74,0,0,1-1.13.21,1.57,1.57,0,0,1-1.66-1.71,1.65,1.65,0,0,1,1.59-1.83,1.44,1.44,0,0,1,1.4,1.6c0,.13,0,.22,0,.29Zm1.81-.44a.88.88,0,0,0-.85-1,1,1,0,0,0-1,1Z" transform="translate(-1 -0.8)"/></svg>