<svg id="Layer_1" data-name="Layer 1" xmlns="http://www.w3.org/2000/svg" xmlns:xlink="http://www.w3.org/1999/xlink" viewBox="0 0 228.24 127.36"><defs><style>.cls-1{fill:none;}.cls-2{fill:#22a3f2;}.cls-3{clip-path:url(#clip-path);}.cls-4{fill:#0c5adb;}.cls-5{fill:#228cc6;}.cls-6{fill:#1568a0;}.cls-7{fill:#124e7c;}.cls-8{clip-path:url(#clip-path-4);}.cls-9{fill:#0b385e;}.cls-10{fill:#042c49;}.cls-11{fill:#c9c9c9;}</style><clipPath id="clip-path" transform="translate(0)"><rect class="cls-1" y="3.84" width="228.24" height="123.52"/></clipPath><clipPath id="clip-path-4" transform="translate(0)"><rect class="cls-1" y="3.33" width="228.24" height="123.52"/></clipPath></defs><rect class="cls-2" x="0.5" y="79.67" width="31.57" height="46.7"/><g class="cls-3"><path class="cls-4" d="M32.57,126.87H0V79.17H32.57ZM1,125.87H31.57V80.17H1Z" transform="translate(0)"/></g><rect class="cls-5" x="39.63" y="72.64" width="31.57" height="53.73"/><g class="cls-3"><path class="cls-4" d="M71.7,126.87H39.14V72.14H71.7Zm-31.56-1H70.7V73.14H40.14Z" transform="translate(0)"/></g><rect class="cls-6" x="78.66" y="52.97" width="31.57" height="73.4"/><g class="cls-3"><path class="cls-4" d="M110.73,126.87H78.16V52.47h32.57Zm-31.57-1h30.57V53.47H79.16Z" transform="translate(0)"/></g><rect class="cls-7" x="117.69" y="45.82" width="31.57" height="80.54"/><g class="cls-8"><path class="cls-4" d="M149.75,126.85H117.19V45.32h32.56Zm-31.56-1h30.56V46.32H118.19Z" transform="translate(0)"/></g><rect class="cls-9" x="156.71" y="32.41" width="31.57" height="93.95"/><g class="cls-8"><path class="cls-4" d="M188.78,126.85H156.21V31.91h32.57Zm-31.57-1h30.57V32.91H157.21Z" transform="translate(0)"/></g><rect class="cls-10" x="196.17" y="12.52" width="31.57" height="113.84"/><g class="cls-8"><path class="cls-4" d="M228.24,126.85H195.67V12h32.57Zm-31.57-1h30.57V13H196.67Z" transform="translate(0)"/></g><path class="cls-11" d="M13.88,71.88v.45l-2.17,4.53H11l2.16-4.4v0H10.74v-.56Z" transform="translate(0)"/><path class="cls-11" d="M16.82,73.28c0,1-.55,1.57-1.19,1.57s-1.16-.5-1.17-1.5S15,71.8,15.67,71.8,16.82,72.33,16.82,73.28Zm-1.82,0c0,.63.22,1.12.64,1.12s.65-.48.65-1.14-.18-1.11-.65-1.11S15,72.7,15,73.33Zm.58,3.61,2.93-5.14h.43L16,76.94Zm4.48-1.6c0,1-.55,1.57-1.18,1.57s-1.16-.49-1.17-1.49.55-1.56,1.2-1.56S20.06,74.39,20.06,75.34Zm-1.82,0c0,.63.24,1.12.65,1.12s.64-.48.64-1.14-.17-1.11-.64-1.11S18.24,74.76,18.24,75.39Z" transform="translate(0)"/><path class="cls-11" d="M49.12,68.66a1.41,1.41,0,0,1,1-1.33v0a1.24,1.24,0,0,1-.79-1.12,1.4,1.4,0,0,1,1.54-1.33,1.29,1.29,0,0,1,1.45,1.23,1.26,1.26,0,0,1-.82,1.16v0a1.39,1.39,0,0,1,1,1.29A1.53,1.53,0,0,1,50.79,70C49.75,70,49.12,69.39,49.12,68.66Zm2.68,0c0-.6-.42-.9-1.1-1.09a1.08,1.08,0,0,0-.89,1,.92.92,0,0,0,1,1A.9.9,0,0,0,51.8,68.63ZM50,66.14c0,.5.37.77.95.92a1,1,0,0,0,.75-.9.77.77,0,0,0-.84-.82A.79.79,0,0,0,50,66.14Z" transform="translate(0)"/><path class="cls-11" d="M55.35,66.35c0,1.05-.55,1.57-1.19,1.57S53,67.42,53,66.42s.54-1.56,1.2-1.56S55.35,65.4,55.35,66.35Zm-1.82,0c0,.64.22,1.12.65,1.12s.64-.47.64-1.13-.18-1.11-.64-1.11S53.53,65.77,53.53,66.39ZM54.11,70,57,64.86h.43L54.54,70Zm4.48-1.6c0,1-.55,1.57-1.18,1.57s-1.16-.5-1.17-1.5.55-1.56,1.21-1.56S58.59,67.46,58.59,68.41Zm-1.82,0c0,.64.24,1.12.65,1.12s.65-.47.65-1.13-.18-1.11-.65-1.11S56.77,67.83,56.77,68.45Z" transform="translate(0)"/><path class="cls-11" d="M89,45.37h0l-.86.47L88,45.33l1.08-.59h.58v5H89Z" transform="translate(0)"/><path class="cls-11" d="M93,45.37h0l-.86.47L92,45.33,93,44.74h.58v5H93Z" transform="translate(0)"/><path class="cls-11" d="M97.68,46.14c0,1-.55,1.57-1.2,1.57s-1.15-.49-1.16-1.5.54-1.55,1.2-1.55S97.68,45.19,97.68,46.14Zm-1.82,0c0,.64.22,1.12.64,1.12s.64-.48.64-1.14-.17-1.11-.64-1.11S95.86,45.56,95.86,46.19Zm.58,3.62,2.93-5.15h.42l-2.92,5.15Zm4.48-1.61c0,1-.55,1.58-1.19,1.58s-1.15-.5-1.16-1.5.54-1.56,1.2-1.56S100.92,47.25,100.92,48.2Zm-1.82,0c0,.64.23,1.12.65,1.12s.64-.48.64-1.13-.17-1.12-.64-1.12S99.1,47.62,99.1,48.25Z" transform="translate(0)"/><path class="cls-11" d="M128,38.3h0l-.87.47-.13-.51,1.09-.59h.57v5H128Z" transform="translate(0)"/><path class="cls-11" d="M130.49,42.65v-.41l.53-.51c1.27-1.21,1.84-1.86,1.85-2.61a.89.89,0,0,0-1-1,1.69,1.69,0,0,0-1,.42l-.22-.48a2.21,2.21,0,0,1,1.41-.5A1.4,1.4,0,0,1,133.55,39c0,.92-.67,1.66-1.72,2.67l-.4.37h2.24v.56Z" transform="translate(0)"/><path class="cls-11" d="M136.66,39.08c0,1-.55,1.57-1.19,1.57s-1.16-.5-1.17-1.51.55-1.55,1.21-1.55S136.66,38.12,136.66,39.08Zm-1.82,0c0,.64.22,1.12.64,1.12s.65-.48.65-1.13S136,38,135.48,38,134.84,38.49,134.84,39.12Zm.58,3.62,2.93-5.15h.43l-2.93,5.15Zm4.48-1.6c0,1-.55,1.57-1.18,1.57s-1.16-.5-1.17-1.5.55-1.56,1.2-1.56S139.9,40.19,139.9,41.14Zm-1.82,0c0,.64.24,1.12.65,1.12s.65-.47.65-1.13-.18-1.11-.65-1.11S138.08,40.55,138.08,41.18Z" transform="translate(0)"/><path class="cls-11" d="M167.25,24.69h0l-.87.47-.13-.51,1.09-.58h.57v5h-.65Z" transform="translate(0)"/><path class="cls-11" d="M171.8,29V27.69h-2.31v-.45l2.22-3.17h.73v3.09h.7v.53h-.7V29Zm0-1.88V25.5c0-.26,0-.52,0-.78h0c-.15.29-.27.5-.41.73l-1.22,1.69v0Z" transform="translate(0)"/><path class="cls-11" d="M175.89,25.47c0,1.05-.55,1.57-1.19,1.57s-1.16-.5-1.17-1.5.55-1.56,1.21-1.56S175.89,24.52,175.89,25.47Zm-1.82,0c0,.64.22,1.12.64,1.12s.65-.47.65-1.13-.18-1.11-.65-1.11S174.07,24.88,174.07,25.51Zm.58,3.62L177.58,24H178l-2.93,5.15Zm4.48-1.6c0,1-.55,1.57-1.18,1.57s-1.16-.5-1.17-1.5S177.33,26,178,26,179.13,26.58,179.13,27.53Zm-1.82,0c0,.64.24,1.12.65,1.12s.65-.47.65-1.13-.18-1.11-.65-1.11S177.31,27,177.31,27.57Z" transform="translate(0)"/><g class="cls-8"><path class="cls-11" d="M206.19,4.74h0l-.86.46-.13-.51,1.08-.58h.58v5h-.65Z" transform="translate(0)"/><path class="cls-11" d="M211.89,4.11v.44l-2.17,4.54H209l2.16-4.41h-2.43V4.11Z" transform="translate(0)"/><path class="cls-11" d="M214.83,5.51c0,1-.55,1.57-1.19,1.57s-1.16-.5-1.17-1.5S213,4,213.67,4,214.83,4.56,214.83,5.51Zm-1.82,0c0,.63.22,1.12.64,1.12s.64-.48.64-1.14-.17-1.11-.64-1.11S213,4.93,213,5.56Zm.58,3.61L216.52,4h.42L214,9.17Zm4.48-1.6c0,1-.55,1.57-1.19,1.57s-1.15-.5-1.16-1.49.54-1.56,1.2-1.56S218.07,6.62,218.07,7.57Zm-1.82,0c0,.63.24,1.12.65,1.12s.64-.48.64-1.14-.17-1.11-.64-1.11S216.25,7,216.25,7.62Z" transform="translate(0)"/></g><rect class="cls-1" width="228.24" height="127.36"/></svg>