<svg xmlns="http://www.w3.org/2000/svg" xmlns:xlink="http://www.w3.org/1999/xlink" viewBox="0 0 228.53 174.57"><defs><style>.cls-1{fill:none;}.cls-2{fill:#41bbf9;}.cls-3{clip-path:url(#clip-path);}.cls-4{fill:#0c5adb;}.cls-5{fill:#22a3f2;}.cls-6{fill:#228cc6;}.cls-7{fill:#1568a0;}.cls-8{fill:#124e7c;}.cls-9{fill:#0b385e;}.cls-10{fill:#042c49;}.cls-11{clip-path:url(#clip-path-8);}.cls-12{fill:#c9c9c9;}</style><clipPath id="clip-path" transform="translate(0 -0.59)"><rect class="cls-1" width="228.53" height="111.22"/></clipPath><clipPath id="clip-path-8" transform="translate(0 -0.59)"><rect class="cls-1" width="228.53" height="170.28"/></clipPath></defs><g id="Layer_1" data-name="Layer 1"><rect class="cls-2" x="0.5" y="78.44" width="15.24" height="31.69"/><g class="cls-3"><path class="cls-4" d="M16.24,111.22H0V78.53H16.24ZM1,110.22H15.24V79.53H1Z" transform="translate(0 -0.59)"/></g><rect class="cls-2" x="30.34" y="78.44" width="15.24" height="31.69"/><g class="cls-3"><path class="cls-4" d="M46.08,111.22H29.84V78.53H46.08Zm-15.24-1H45.08V79.53H30.84Z" transform="translate(0 -0.59)"/></g><rect class="cls-5" x="60.83" y="69.82" width="15.24" height="40.31"/><g class="cls-3"><path class="cls-4" d="M76.57,111.22H60.33V69.92H76.57Zm-15.24-1H75.57V70.92H61.33Z" transform="translate(0 -0.59)"/></g><rect class="cls-6" x="91.32" y="65.6" width="15.25" height="44.53"/><g class="cls-3"><path class="cls-4" d="M107.06,111.22H90.82V65.69h16.24Zm-15.24-1h14.24V66.69H91.82Z" transform="translate(0 -0.59)"/></g><rect class="cls-7" x="121.97" y="60.72" width="15.24" height="49.41"/><g class="cls-3"><path class="cls-4" d="M137.71,111.22H121.47V60.82h16.24Zm-15.24-1h14.24V61.82H122.47Z" transform="translate(0 -0.59)"/></g><rect class="cls-8" x="151.65" y="38.78" width="15.24" height="71.35"/><g class="cls-3"><path class="cls-4" d="M167.39,111.22H151.15V38.87h16.24Zm-15.24-1h14.24V39.87H152.15Z" transform="translate(0 -0.59)"/></g><rect class="cls-9" x="182.3" y="34.23" width="15.24" height="75.9"/><g class="cls-3"><path class="cls-4" d="M198,111.22H181.8V34.32H198Zm-15.24-1H197V35.32H182.8Z" transform="translate(0 -0.59)"/></g><rect class="cls-10" x="212.79" y="7.25" width="15.24" height="102.88"/><g class="cls-11"><path class="cls-4" d="M228.53,111.22H212.29V7.34h16.24Zm-15.24-1h14.24V8.34H213.29Z" transform="translate(0 -0.59)"/><path class="cls-12" d="M6.06,72v.38L4.2,76.25H3.61l1.85-3.78H3.37V72Z" transform="translate(0 -0.59)"/><path class="cls-12" d="M8.58,73.18c0,.9-.47,1.35-1,1.35s-1-.43-1-1.29.47-1.34,1-1.34S8.58,72.36,8.58,73.18ZM7,73.22c0,.54.19,1,.55,1s.55-.41.55-1-.15-1-.55-1S7,72.68,7,73.22Zm.5,3.1L10,71.9h.36l-2.5,4.42ZM11.36,75c0,.9-.47,1.35-1,1.35s-1-.43-1-1.29.47-1.34,1-1.34S11.36,74.13,11.36,75ZM9.8,75c0,.54.2,1,.55,1s.56-.41.56-1-.16-1-.56-1S9.8,74.45,9.8,75Z" transform="translate(0 -0.59)"/><path class="cls-12" d="M35.86,72v.38L34,76.25h-.59l1.85-3.78H33.17V72Z" transform="translate(0 -0.59)"/><path class="cls-12" d="M38.38,73.18c0,.9-.47,1.35-1,1.35s-1-.43-1-1.29.47-1.34,1-1.34S38.38,72.36,38.38,73.18Zm-1.56,0c0,.54.19,1,.55,1s.55-.41.55-1-.15-1-.55-1S36.82,72.68,36.82,73.22Zm.5,3.1,2.51-4.42h.36l-2.5,4.42ZM41.16,75c0,.9-.48,1.35-1,1.35s-1-.43-1-1.29.47-1.34,1-1.34S41.16,74.13,41.16,75ZM39.6,75c0,.54.2,1,.55,1s.55-.41.55-1-.15-1-.55-1S39.6,74.45,39.6,75Z" transform="translate(0 -0.59)"/><path class="cls-12" d="M63.57,66.74a2.7,2.7,0,0,0,.47,0,1.64,1.64,0,0,0,.89-.42,1.82,1.82,0,0,0,.56-1.13h0a1.28,1.28,0,0,1-2.26-.85,1.46,1.46,0,0,1,1.46-1.52c.87,0,1.41.71,1.41,1.8a2.72,2.72,0,0,1-.74,2,2.1,2.1,0,0,1-1.24.57,2.59,2.59,0,0,1-.53,0Zm.21-2.46a.82.82,0,0,0,.82.91.94.94,0,0,0,.84-.45.41.41,0,0,0,0-.21c0-.73-.26-1.29-.87-1.29S63.78,63.67,63.78,64.28Z" transform="translate(0 -0.59)"/><path class="cls-12" d="M68.53,64.07c0,.91-.47,1.35-1,1.35s-1-.42-1-1.29.46-1.33,1-1.33S68.53,63.26,68.53,64.07Zm-1.56,0c0,.55.19,1,.55,1s.55-.4.55-1-.15-.95-.55-.95S67,63.57,67,64.11Zm.5,3.11L70,62.8h.37l-2.51,4.42Zm3.83-1.38c0,.9-.47,1.35-1,1.35s-1-.43-1-1.28.47-1.34,1-1.34S71.3,65,71.3,65.84Zm-1.56,0c0,.55.21,1,.56,1s.55-.4.55-1-.15-1-.55-1S69.74,65.34,69.74,65.88Z" transform="translate(0 -0.59)"/><path class="cls-12" d="M93.42,59.16h0l-.74.4-.11-.44.93-.5H94v4.27h-.55Z" transform="translate(0 -0.59)"/><path class="cls-12" d="M98.37,60.71c0,1.45-.54,2.26-1.49,2.26s-1.39-.79-1.41-2.2.62-2.22,1.49-2.22S98.37,59.35,98.37,60.71Zm-2.32.07c0,1.11.34,1.74.87,1.74s.87-.69.87-1.78S97.52,59,96.92,59,96.05,59.61,96.05,60.78Z" transform="translate(0 -0.59)"/><path class="cls-12" d="M101.21,59.82c0,.9-.47,1.35-1,1.35s-1-.43-1-1.29.47-1.33,1-1.33S101.21,59,101.21,59.82Zm-1.56,0c0,.55.19,1,.55,1s.55-.41.55-1-.15-1-.55-1S99.65,59.32,99.65,59.86Zm.5,3.11,2.5-4.42H103L100.52,63ZM104,61.59c0,.9-.48,1.35-1,1.35s-1-.43-1-1.28.47-1.34,1-1.34S104,60.78,104,61.59Zm-1.56,0c0,.55.2,1,.55,1s.55-.41.55-1-.15-1-.55-1S102.43,61.09,102.43,61.63Z" transform="translate(0 -0.59)"/><path class="cls-12" d="M125,54.64h0l-.74.4-.11-.44.93-.5h.49v4.28H125Z" transform="translate(0 -0.59)"/><path class="cls-12" d="M128.33,54.64h0l-.74.4-.12-.44.94-.5h.49v4.28h-.56Z" transform="translate(0 -0.59)"/><path class="cls-12" d="M132.37,55.31c0,.9-.47,1.35-1,1.35s-1-.43-1-1.29.47-1.34,1-1.34S132.37,54.49,132.37,55.31Zm-1.56,0c0,.54.19,1,.55,1s.55-.41.55-1-.15-.95-.55-.95S130.81,54.81,130.81,55.35Zm.5,3.1,2.5-4.42h.37l-2.51,4.42Zm3.84-1.37c0,.9-.48,1.34-1,1.34s-1-.42-1-1.28.47-1.34,1-1.34S135.15,56.26,135.15,57.08Zm-1.57,0c0,.54.21,1,.56,1s.55-.41.55-1-.15-1-.55-1S133.58,56.58,133.58,57.12Z" transform="translate(0 -0.59)"/><path class="cls-12" d="M154,32.08h0l-.75.4-.11-.44.94-.5h.49v4.27H154Z" transform="translate(0 -0.59)"/><path class="cls-12" d="M158.51,32a2.19,2.19,0,0,0-.43,0,1.74,1.74,0,0,0-1.49,1.52h0a1.28,1.28,0,0,1,1-.49,1.26,1.26,0,0,1,1.29,1.38,1.43,1.43,0,0,1-1.42,1.51c-.91,0-1.51-.71-1.51-1.83a2.68,2.68,0,0,1,.73-1.92,2.25,2.25,0,0,1,1.36-.63,2.52,2.52,0,0,1,.42,0Zm-.16,2.46a.87.87,0,0,0-.88-1,1,1,0,0,0-.83.53.47.47,0,0,0-.07.26c0,.7.34,1.22.94,1.22S158.35,35,158.35,34.41Z" transform="translate(0 -0.59)"/><path class="cls-12" d="M161.47,32.74c0,.9-.48,1.35-1,1.35s-1-.43-1-1.29.46-1.33,1-1.33S161.47,31.93,161.47,32.74Zm-1.56,0c0,.55.18,1,.55,1s.55-.41.55-1-.15-1-.55-1S159.91,32.24,159.91,32.78Zm.49,3.11,2.51-4.42h.37l-2.51,4.42Zm3.84-1.38c0,.9-.47,1.35-1,1.35s-1-.43-1-1.28.46-1.35,1-1.35S164.24,33.7,164.24,34.51Zm-1.56,0c0,.55.2,1,.56,1s.55-.41.55-1-.15-1-.55-1S162.68,34,162.68,34.55Z" transform="translate(0 -0.59)"/><path class="cls-12" d="M185,27.93h0l-.74.4-.12-.44.94-.5h.49v4.28H185Z" transform="translate(0 -0.59)"/><path class="cls-12" d="M189.87,27.39v.38L188,31.67h-.6l1.85-3.78v0h-2.09v-.48Z" transform="translate(0 -0.59)"/><path class="cls-12" d="M191.75,28.6c0,.9-.48,1.34-1,1.34s-1-.42-1-1.29.47-1.33,1-1.33S191.75,27.78,191.75,28.6Zm-1.57,0c0,.55.19,1,.55,1s.56-.41.56-1-.16-.95-.56-.95S190.18,28.1,190.18,28.63Zm.5,3.11,2.51-4.42h.37l-2.51,4.42Zm3.84-1.38c0,.91-.47,1.35-1,1.35s-1-.43-1-1.28.46-1.34,1-1.34S194.52,29.55,194.52,30.36Zm-1.56,0c0,.55.2,1,.56,1s.55-.4.55-1-.15-.95-.55-.95S193,29.86,193,30.4Z" transform="translate(0 -0.59)"/><path class="cls-12" d="M213.7,4.94V4.59l.45-.44c1.09-1,1.58-1.6,1.59-2.24a.77.77,0,0,0-.85-.84,1.39,1.39,0,0,0-.9.37L213.8,1A1.89,1.89,0,0,1,215,.59a1.2,1.2,0,0,1,1.3,1.25c0,.79-.57,1.42-1.47,2.29l-.34.32h1.92v.48Z" transform="translate(0 -0.59)"/><path class="cls-12" d="M217.2,4.28a2,2,0,0,0,1,.27c.74,0,1-.48,1-.83,0-.6-.54-.86-1.1-.86h-.32V2.43H218c.42,0,1-.22,1-.72,0-.35-.21-.65-.75-.65a1.56,1.56,0,0,0-.85.28l-.15-.42a2.07,2.07,0,0,1,1.12-.33c.84,0,1.22.5,1.22,1a1.07,1.07,0,0,1-.79,1h0a1.12,1.12,0,0,1,1,1.1c0,.68-.53,1.28-1.55,1.28a2.15,2.15,0,0,1-1.11-.29Z" transform="translate(0 -0.59)"/><path class="cls-12" d="M222.74,1.87c0,.9-.47,1.35-1,1.35s-1-.43-1-1.29.46-1.34,1-1.34S222.74,1.05,222.74,1.87Zm-1.56,0c0,.54.19,1,.55,1s.55-.41.55-1-.15-1-.55-1S221.18,1.37,221.18,1.91Zm.5,3.1,2.5-4.42h.37L222,5Zm3.83-1.37c0,.9-.47,1.35-1,1.35s-1-.43-1-1.29.47-1.34,1-1.34S225.51,2.82,225.51,3.64Zm-1.56,0c0,.54.21,1,.56,1s.55-.41.55-1-.15-1-.55-1S224,3.14,224,3.68Z" transform="translate(0 -0.59)"/></g></g><g id="Layer_2" data-name="Layer 2"><path class="cls-12" d="M3.4,142.81h2v-2.28h-2v-.62H8.12v.62H5.91v2.28H8.12v.61H3.4Z" transform="translate(0 -0.59)"/><path class="cls-12" d="M3.78,138.13a.38.38,0,1,1,0,.76.38.38,0,0,1-.39-.38A.37.37,0,0,1,3.78,138.13Zm4.34.69H4.73v-.62H8.12Z" transform="translate(0 -0.59)"/><path class="cls-12" d="M4.73,134.26c.25,0,.52,0,.93,0h2a1.94,1.94,0,0,1,1.55.48A1.78,1.78,0,0,1,9.59,136a2.2,2.2,0,0,1-.28,1.13L8.84,137a1.89,1.89,0,0,0,.26-1c0-.63-.33-1.09-1.18-1.09H7.54A1.2,1.2,0,0,1,8.11,136a1.52,1.52,0,0,1-1.66,1.44,1.62,1.62,0,0,1-1.79-1.52,1.13,1.13,0,0,1,.58-1.06v0l-.51,0Zm1.34.63a.79.79,0,0,0-.28,0,.88.88,0,0,0-.65.86c0,.59.5,1,1.28,1s1.22-.34,1.22-1a.92.92,0,0,0-.63-.86,1.32,1.32,0,0,0-.33-.05Z" transform="translate(0 -0.59)"/><path class="cls-12" d="M3.15,133.26v-.61H5.26v0a1.14,1.14,0,0,1-.43-.44,1.32,1.32,0,0,1-.17-.63c0-.45.28-1.18,1.45-1.18h2V131H6.17c-.54,0-1,.2-1,.78a.89.89,0,0,0,.61.83.91.91,0,0,0,.3,0h2v.61Z" transform="translate(0 -0.59)"/><path class="cls-12" d="M6,128h.45v1.73H6Z" transform="translate(0 -0.59)"/><path class="cls-12" d="M3.92,126.66v1.43H3.4V124.6h.52V126h4.2v.62Z" transform="translate(0 -0.59)"/><path class="cls-12" d="M6.54,124.25a1.09,1.09,0,0,0,1.18-1.16,2.2,2.2,0,0,0-.18-.94L8,122a2.74,2.74,0,0,1,.21,1.13,1.58,1.58,0,0,1-1.71,1.67,1.64,1.64,0,0,1-1.82-1.59,1.43,1.43,0,0,1,1.59-1.4l.29,0Zm-.44-1.81a.88.88,0,0,0-1,.86,1,1,0,0,0,1,.94Z" transform="translate(0 -0.59)"/><path class="cls-12" d="M8,118.67a2.35,2.35,0,0,1,.19,1,1.61,1.61,0,0,1-1.73,1.69,1.72,1.72,0,0,1-1.8-1.82,1.92,1.92,0,0,1,.18-.85l.47.13a1.5,1.5,0,0,0-.16.72,1.18,1.18,0,0,0,1.28,1.2,1.16,1.16,0,0,0,1.27-1.18,1.74,1.74,0,0,0-.17-.76Z" transform="translate(0 -0.59)"/><path class="cls-12" d="M3.15,118v-.62H5.26a1.21,1.21,0,0,1-.43-.44,1.32,1.32,0,0,1-.17-.63c0-.46.28-1.19,1.45-1.19h2v.62H6.17c-.54,0-1,.2-1,.78a.89.89,0,0,0,.61.83.71.71,0,0,0,.3,0h2V118Z" transform="translate(0 -0.59)"/><path class="cls-12" d="M38.42,166.3H33.7v-.67l2.39-1.51a14.38,14.38,0,0,1,1.53-.85h0c-.63.06-1.2.07-1.94.07h-2v-.57h4.72v.61l-2.4,1.5a14.67,14.67,0,0,1-1.57.88v0c.6,0,1.17,0,1.95,0h2Z" transform="translate(0 -0.59)"/><path class="cls-12" d="M38.42,159.84l-.43,0v0a1.25,1.25,0,0,1,.51,1,1,1,0,0,1-1,1c-.82,0-1.27-.73-1.26-2h-.07a.7.7,0,0,0-.78.77,1.65,1.65,0,0,0,.25.89l-.41.14a2.14,2.14,0,0,1-.3-1.12c0-1,.71-1.29,1.39-1.29h1.27a5,5,0,0,0,.81-.05Zm-1.73.09c0,.67.1,1.43.76,1.43a.54.54,0,0,0,.59-.58.85.85,0,0,0-.57-.82.63.63,0,0,0-.19,0Z" transform="translate(0 -0.59)"/><path class="cls-12" d="M34.05,157.62h1v-.88h.47v.88h1.83c.42,0,.65-.12.65-.46a1.49,1.49,0,0,0,0-.36l.46,0a1.49,1.49,0,0,1,.09.55.82.82,0,0,1-.26.66,1.22,1.22,0,0,1-.88.24H35.5v.53H35v-.53h-.81Z" transform="translate(0 -0.59)"/><path class="cls-12" d="M37.49,153.21q.52,0,.93,0v.55l-.56,0v0a1.25,1.25,0,0,1,.64,1.12c0,.53-.3,1.17-1.49,1.17H35v-.62h1.88c.64,0,1.07-.2,1.07-.76a.88.88,0,0,0-.56-.81,1,1,0,0,0-.31,0H35v-.62Z" transform="translate(0 -0.59)"/><path class="cls-12" d="M36.09,152.19c-.4,0-.75,0-1.06,0v-.54l.66,0v0a1,1,0,0,1-.74-.94,1,1,0,0,1,0-.18h.58a1.36,1.36,0,0,0,0,.21.86.86,0,0,0,.79.83,2.58,2.58,0,0,0,.29,0h1.81v.61Z" transform="translate(0 -0.59)"/><path class="cls-12" d="M38.42,148.05l-.43,0v0a1.25,1.25,0,0,1,.51,1,1,1,0,0,1-1,1c-.82,0-1.27-.73-1.26-2h-.07a.69.69,0,0,0-.78.77,1.64,1.64,0,0,0,.25.88l-.41.14a2.14,2.14,0,0,1-.3-1.12c0-1,.71-1.28,1.39-1.28h1.27a5,5,0,0,0,.81-.06Zm-1.73.09c0,.67.1,1.44.76,1.44A.55.55,0,0,0,38,149a.83.83,0,0,0-.57-.82.65.65,0,0,0-.19,0Z" transform="translate(0 -0.59)"/><path class="cls-12" d="M33.45,146.55v-.61h5v.61Z" transform="translate(0 -0.59)"/><path class="cls-12" d="M33.76,143.4a6.63,6.63,0,0,1-.1-1.17,1.94,1.94,0,0,1,.39-1.37,1.16,1.16,0,0,1,.89-.37,1.24,1.24,0,0,1,1.21.89h0a1.16,1.16,0,0,1,.95-.69,7.7,7.7,0,0,0,1.3-.37V141a6.23,6.23,0,0,1-1.13.32c-.65.14-.9.39-.92.94v.58h2.05v.61Zm2.15-.61v-.63c0-.65-.36-1.06-.9-1.06s-.87.44-.88,1.08a2.4,2.4,0,0,0,.06.61Z" transform="translate(0 -0.59)"/><path class="cls-12" d="M36.83,139.29A1.09,1.09,0,0,0,38,138.12a2.33,2.33,0,0,0-.17-.93l.44-.11a2.74,2.74,0,0,1,.21,1.13,1.58,1.58,0,0,1-1.71,1.67A1.65,1.65,0,0,1,35,138.29a1.44,1.44,0,0,1,1.6-1.41,1.58,1.58,0,0,1,.28,0Zm-.44-1.81a.87.87,0,0,0-1,.85,1,1,0,0,0,1,.95Z" transform="translate(0 -0.59)"/><path class="cls-12" d="M37.79,136.21a1.65,1.65,0,0,0,.24-.82c0-.44-.22-.65-.5-.65s-.46.17-.62.63-.56.89-1,.89a1,1,0,0,1-1-1.17,1.71,1.71,0,0,1,.21-.83l.45.15a1.39,1.39,0,0,0-.2.7c0,.36.21.56.47.56s.4-.2.57-.64c.22-.59.52-.89,1-.89s1,.46,1,1.27a1.93,1.93,0,0,1-.23,1Z" transform="translate(0 -0.59)"/><path class="cls-12" d="M36.7,130.28A1.66,1.66,0,0,1,38.5,132a1.62,1.62,0,0,1-1.75,1.63,1.66,1.66,0,0,1-1.8-1.68A1.61,1.61,0,0,1,36.7,130.28Zm0,2.69c.74,0,1.3-.42,1.3-1s-.55-1-1.31-1c-.58,0-1.31.29-1.31,1S36.09,133,36.73,133Z" transform="translate(0 -0.59)"/><path class="cls-12" d="M37.49,126.67a8.83,8.83,0,0,0,.93,0v.55l-.56,0h0a1.27,1.27,0,0,1,.64,1.12c0,.53-.3,1.17-1.49,1.17H35v-.62h1.88c.64,0,1.07-.19,1.07-.75a.89.89,0,0,0-.56-.82,1,1,0,0,0-.31,0H35v-.62Z" transform="translate(0 -0.59)"/><path class="cls-12" d="M36.09,125.65c-.4,0-.75,0-1.06,0v-.54l.66,0v0a1,1,0,0,1-.74-.94.79.79,0,0,1,0-.17h.58a1.15,1.15,0,0,0,0,.21.86.86,0,0,0,.79.82,1.36,1.36,0,0,0,.29,0h1.81v.61Z" transform="translate(0 -0.59)"/><path class="cls-12" d="M38.29,121a2.13,2.13,0,0,1,.2,1,1.62,1.62,0,0,1-1.73,1.69,1.72,1.72,0,0,1-1.8-1.82,2.16,2.16,0,0,1,.17-.86l.48.14a1.5,1.5,0,0,0-.16.72,1.28,1.28,0,0,0,2.55,0,1.74,1.74,0,0,0-.17-.76Z" transform="translate(0 -0.59)"/><path class="cls-12" d="M36.83,120A1.09,1.09,0,0,0,38,118.83a2.35,2.35,0,0,0-.17-.94l.44-.11a2.74,2.74,0,0,1,.21,1.13,1.58,1.58,0,0,1-1.71,1.67A1.65,1.65,0,0,1,35,119a1.43,1.43,0,0,1,1.6-1.4l.28,0Zm-.44-1.81a.88.88,0,0,0-1,.86,1,1,0,0,0,1,.94Z" transform="translate(0 -0.59)"/><path class="cls-12" d="M37.79,116.91a1.62,1.62,0,0,0,.24-.81c0-.45-.22-.66-.5-.66s-.46.17-.62.63c-.22.61-.56.89-1,.89a1,1,0,0,1-1-1.17,1.71,1.71,0,0,1,.21-.83l.45.16a1.31,1.31,0,0,0-.2.69c0,.36.21.57.47.57s.4-.21.57-.65c.22-.59.52-.89,1-.89s1,.46,1,1.27a1.9,1.9,0,0,1-.23,1Z" transform="translate(0 -0.59)"/><path class="cls-12" d="M64,151v-.61H68.2v-2h.51V151Z" transform="translate(0 -0.59)"/><path class="cls-12" d="M64.37,147a.39.39,0,1,1-.38.38A.36.36,0,0,1,64.37,147Zm4.34.69H65.32v-.62h3.39Z" transform="translate(0 -0.59)"/><path class="cls-12" d="M68.71,146H65.79v.48h-.47V146h-.16a1.62,1.62,0,0,1-1.18-.39,1.16,1.16,0,0,1-.32-.83,1.33,1.33,0,0,1,.1-.52l.48.08a1,1,0,0,0-.08.39c0,.53.46.66,1,.66h.18v-.82h.47v.82h2.92Z" transform="translate(0 -0.59)"/><path class="cls-12" d="M67.13,143.74a1.09,1.09,0,0,0,1.18-1.16,2.16,2.16,0,0,0-.18-.94l.44-.11a2.74,2.74,0,0,1,.21,1.13,1.57,1.57,0,0,1-1.7,1.67,1.65,1.65,0,0,1-1.83-1.59,1.43,1.43,0,0,1,1.59-1.4l.29,0Zm-.44-1.81a.88.88,0,0,0-1,.86,1,1,0,0,0,1,.94Z" transform="translate(0 -0.59)"/><path class="cls-12" d="M68,139.15a2.12,2.12,0,0,0,.31-1.09c0-.62-.33-1-.81-1s-.69.26-.93.89-.68,1.25-1.34,1.25a1.36,1.36,0,0,1-1.28-1.53,2.13,2.13,0,0,1,.23-1l.49.17a1.92,1.92,0,0,0-.22.89c0,.65.39.89.71.89s.66-.28.91-.93.69-1.21,1.38-1.21,1.36.54,1.36,1.65a2.42,2.42,0,0,1-.3,1.21Z" transform="translate(0 -0.59)"/><path class="cls-12" d="M68.59,133.19a2.35,2.35,0,0,1,.19,1,1.61,1.61,0,0,1-1.73,1.69,1.72,1.72,0,0,1-1.8-1.82,2,2,0,0,1,.18-.86l.48.15a1.31,1.31,0,0,0-.17.71,1.18,1.18,0,0,0,1.29,1.2,1.16,1.16,0,0,0,1.26-1.18,1.92,1.92,0,0,0-.16-.76Z" transform="translate(0 -0.59)"/><path class="cls-12" d="M64.37,131.78a.39.39,0,1,1-.38.38A.36.36,0,0,1,64.37,131.78Zm4.34.69H65.32v-.62h3.39Z" transform="translate(0 -0.59)"/><path class="cls-12" d="M67.13,130.49a1.09,1.09,0,0,0,1.18-1.16,2.16,2.16,0,0,0-.18-.94l.44-.11a2.74,2.74,0,0,1,.21,1.13,1.57,1.57,0,0,1-1.7,1.67,1.65,1.65,0,0,1-1.83-1.59,1.43,1.43,0,0,1,1.59-1.4l.29,0Zm-.44-1.81a.88.88,0,0,0-1,.86,1,1,0,0,0,1,.94Z" transform="translate(0 -0.59)"/><path class="cls-12" d="M66.24,127.32c-.35,0-.64,0-.92,0v-.54l.56,0h0a1.25,1.25,0,0,1-.63-1.12c0-.47.28-1.2,1.44-1.2h2v.62H66.76c-.55,0-1,.2-1,.78a.88.88,0,0,0,.63.83,1.19,1.19,0,0,0,.29,0h2v.61Z" transform="translate(0 -0.59)"/><path class="cls-12" d="M68.59,121a2.37,2.37,0,0,1,.19,1,1.6,1.6,0,0,1-1.73,1.68,1.72,1.72,0,0,1-1.8-1.82,2,2,0,0,1,.18-.85l.48.14a1.36,1.36,0,0,0-.17.71,1.18,1.18,0,0,0,1.29,1.2,1.16,1.16,0,0,0,1.26-1.18,1.82,1.82,0,0,0-.16-.75Z" transform="translate(0 -0.59)"/><path class="cls-12" d="M67.13,120a1.08,1.08,0,0,0,1.18-1.16,2.2,2.2,0,0,0-.18-.94l.44-.1a2.64,2.64,0,0,1,.21,1.12,1.57,1.57,0,0,1-1.7,1.67A1.64,1.64,0,0,1,65.25,119a1.43,1.43,0,0,1,1.59-1.4l.29,0Zm-.44-1.81a.89.89,0,0,0-1,.86,1,1,0,0,0,1,1Z" transform="translate(0 -0.59)"/><path class="cls-12" d="M68.08,116.92a1.58,1.58,0,0,0,.25-.81c0-.45-.23-.66-.51-.66s-.45.18-.62.63c-.22.61-.55.9-1,.9a1,1,0,0,1-1-1.17,1.61,1.61,0,0,1,.21-.83l.45.15a1.26,1.26,0,0,0-.2.69c0,.37.21.57.46.57s.41-.2.58-.64c.22-.59.51-.89,1-.89s1,.46,1,1.26a1.94,1.94,0,0,1-.23,1Z" transform="translate(0 -0.59)"/><path class="cls-12" d="M94.81,169v1.44h-.52v-3.5h.52v1.44H99V169Z" transform="translate(0 -0.59)"/><path class="cls-12" d="M96.68,166.75c-.4,0-.74,0-1.06,0v-.54l.67,0v0a1,1,0,0,1-.75-.94.88.88,0,0,1,0-.17h.59a.66.66,0,0,0,0,.21.88.88,0,0,0,.8.83l.28,0H99v.61Z" transform="translate(0 -0.59)"/><path class="cls-12" d="M99,162.62l-.43,0v0a1.25,1.25,0,0,1,.51,1,1,1,0,0,1-1,1c-.82,0-1.26-.73-1.26-2h-.07a.7.7,0,0,0-.78.77,1.68,1.68,0,0,0,.25.88l-.41.14a2.1,2.1,0,0,1-.3-1.11c0-1,.71-1.29,1.39-1.29H98.2a5,5,0,0,0,.81-.05Zm-1.73.09c0,.67.1,1.43.76,1.43a.54.54,0,0,0,.59-.58.85.85,0,0,0-.57-.82.63.63,0,0,0-.19,0Z" transform="translate(0 -0.59)"/><path class="cls-12" d="M95.62,160.93l1.91-.67a8.42,8.42,0,0,1,.86-.27v0a8.71,8.71,0,0,1-.86-.29L95.62,159v-.64L99,159.71v.59l-3.39,1.29Z" transform="translate(0 -0.59)"/><path class="cls-12" d="M97.43,157.52a1.08,1.08,0,0,0,1.17-1.16,2.22,2.22,0,0,0-.17-.94l.44-.1a2.64,2.64,0,0,1,.21,1.12,1.58,1.58,0,0,1-1.71,1.67,1.65,1.65,0,0,1-1.83-1.59,1.44,1.44,0,0,1,1.6-1.4l.29,0ZM97,155.71a.89.89,0,0,0-1,.86,1,1,0,0,0,1,.94Z" transform="translate(0 -0.59)"/><path class="cls-12" d="M94,154.36v-.62h5v.62Z" transform="translate(0 -0.59)"/><path class="cls-12" d="M99,148.25l-.46.44a1.92,1.92,0,0,1,.54,1.38,1.33,1.33,0,0,1-1.33,1.44,1.56,1.56,0,0,1-1.38-.92h0a1.59,1.59,0,0,1-1,.39,1.14,1.14,0,0,1-1.16-1.19,1,1,0,0,1,1-1c.5,0,.89.29,1.26,1h0c.46-.4,1-.85,1.31-1.15a3.53,3.53,0,0,0-1.38-.46v-.56a3.69,3.69,0,0,1,1.75.68l.83-.77Zm-3.69,2.17a1.35,1.35,0,0,0,.85-.35c-.28-.48-.53-.79-.93-.79a.55.55,0,0,0-.61.55A.61.61,0,0,0,95.32,150.42ZM98.2,149l-1.49,1.33a1.16,1.16,0,0,0,1,.61.93.93,0,0,0,1-1A1.31,1.31,0,0,0,98.2,149Z" transform="translate(0 -0.59)"/><path class="cls-12" d="M94.29,144.87h2v-2.28h-2V142H99v.62H96.8v2.28H99v.61H94.29Z" transform="translate(0 -0.59)"/><path class="cls-12" d="M97.29,137.87a1.66,1.66,0,0,1,1.8,1.69,1.61,1.61,0,0,1-1.75,1.62,1.66,1.66,0,0,1-1.8-1.68A1.61,1.61,0,0,1,97.29,137.87Zm0,2.69c.74,0,1.3-.43,1.3-1s-.55-1-1.31-1c-.58,0-1.31.29-1.31,1S96.68,140.56,97.32,140.56Z" transform="translate(0 -0.59)"/><path class="cls-12" d="M98.38,137.18a1.62,1.62,0,0,0,.24-.81c0-.45-.22-.66-.5-.66s-.46.17-.62.63-.56.9-1,.9a1.05,1.05,0,0,1-1-1.17,1.72,1.72,0,0,1,.21-.84l.45.16a1.31,1.31,0,0,0-.2.69c0,.36.21.57.47.57s.4-.21.57-.65.52-.89,1-.89,1,.47,1,1.27a1.9,1.9,0,0,1-.23,1Z" transform="translate(0 -0.59)"/><path class="cls-12" d="M96.73,134.32c-.44,0-.79,0-1.11,0v-.55l.58,0h0a1.36,1.36,0,0,1-.66-1.21,1.54,1.54,0,0,1,1.73-1.43,1.61,1.61,0,0,1,1.82,1.54,1.19,1.19,0,0,1-.54,1h1.85v.61Zm.9-.61.25,0a1,1,0,0,0,.72-.93c0-.65-.53-1-1.31-1s-1.26.36-1.26,1a1,1,0,0,0,.77.93.93.93,0,0,0,.25,0Z" transform="translate(0 -0.59)"/><path class="cls-12" d="M94.67,129.65a.39.39,0,0,1,0,.77.38.38,0,0,1-.39-.39A.37.37,0,0,1,94.67,129.65Zm4.34.69H95.62v-.62H99Z" transform="translate(0 -0.59)"/><path class="cls-12" d="M94.65,128h1v-.88h.47V128h1.83c.42,0,.66-.12.66-.46a1.4,1.4,0,0,0,0-.36l.47,0a1.78,1.78,0,0,1,.08.55.82.82,0,0,1-.26.66,1.22,1.22,0,0,1-.88.24H96.09v.53h-.47v-.53h-.81Z" transform="translate(0 -0.59)"/><path class="cls-12" d="M99,124.51l-.43,0v0a1.25,1.25,0,0,1,.51,1,1,1,0,0,1-1,1c-.82,0-1.26-.73-1.26-2h-.07a.7.7,0,0,0-.78.77,1.75,1.75,0,0,0,.25.89l-.41.14a2.14,2.14,0,0,1-.3-1.12c0-1,.71-1.29,1.39-1.29H98.2a5,5,0,0,0,.81,0Zm-1.73.09c0,.67.1,1.44.76,1.44a.55.55,0,0,0,.59-.59.85.85,0,0,0-.57-.82.63.63,0,0,0-.19,0Z" transform="translate(0 -0.59)"/><path class="cls-12" d="M94,123v-.61h5V123Z" transform="translate(0 -0.59)"/><path class="cls-12" d="M94.67,120.67a.39.39,0,0,1,0,.77.38.38,0,0,1-.39-.39A.37.37,0,0,1,94.67,120.67Zm4.34.69H95.62v-.62H99Z" transform="translate(0 -0.59)"/><path class="cls-12" d="M94.65,119h1v-.88h.47V119h1.83c.42,0,.66-.12.66-.46a1.4,1.4,0,0,0,0-.36l.47,0a1.78,1.78,0,0,1,.08.55.82.82,0,0,1-.26.66,1.22,1.22,0,0,1-.88.24H96.09v.53h-.47v-.53h-.81Z" transform="translate(0 -0.59)"/><path class="cls-12" d="M95.62,117.13l2-.75c.23-.07.49-.16.7-.21v0c-.21-.06-.47-.13-.71-.22l-2-.67v-.65l2.42.93a5.2,5.2,0,0,1,2.12,1.16,1.76,1.76,0,0,1,.4.75l-.52.16a1.64,1.64,0,0,0-.3-.54,1.8,1.8,0,0,0-.69-.52.37.37,0,0,0-.15,0l-.16,0-3.12,1.26Z" transform="translate(0 -0.59)"/><path class="cls-12" d="M124.58,140.94h4.73v.61h-4.73Z" transform="translate(0 -0.59)"/><path class="cls-12" d="M126.83,139.83c-.35,0-.63,0-.91,0v-.55l.56,0v0a1.22,1.22,0,0,1-.64-1.12c0-.47.28-1.19,1.44-1.19h2v.61h-2c-.54,0-1,.21-1,.79a.87.87,0,0,0,.63.82.84.84,0,0,0,.29.05h2v.61Z" transform="translate(0 -0.59)"/><path class="cls-12" d="M124.33,133h4.1c.3,0,.64,0,.88,0v.55l-.59,0v0a1.23,1.23,0,0,1,.66,1.15,1.54,1.54,0,0,1-1.72,1.45,1.62,1.62,0,0,1-1.82-1.52,1.11,1.11,0,0,1,.52-1v0h-2Zm3,.61a1.09,1.09,0,0,0-.26,0,.91.91,0,0,0-.72.89c0,.64.56,1,1.31,1s1.26-.34,1.26-1a.93.93,0,0,0-.74-.91,1.12,1.12,0,0,0-.27,0Z" transform="translate(0 -0.59)"/><path class="cls-12" d="M128.38,129.16a8.83,8.83,0,0,0,.93,0v.55l-.56,0h0a1.26,1.26,0,0,1,.63,1.12c0,.53-.29,1.17-1.48,1.17h-2v-.62h1.87c.65,0,1.08-.19,1.08-.75a.91.91,0,0,0-.56-.82,1,1,0,0,0-.31-.05h-2.08v-.62Z" transform="translate(0 -0.59)"/><path class="cls-12" d="M128.68,128.23a1.76,1.76,0,0,0,.24-.82c0-.45-.22-.66-.5-.66s-.46.18-.63.64c-.21.61-.55.89-1,.89a1,1,0,0,1-1-1.17,1.71,1.71,0,0,1,.21-.83l.45.15a1.3,1.3,0,0,0-.2.7c0,.36.21.56.46.56s.41-.2.58-.64c.22-.59.52-.89,1-.89s1,.46,1,1.27a1.93,1.93,0,0,1-.24.95Z" transform="translate(0 -0.59)"/><path class="cls-12" d="M124.94,124.63h1v-.88h.46v.88h1.83c.42,0,.66-.12.66-.46a1.36,1.36,0,0,0,0-.36l.46,0a1.49,1.49,0,0,1,.09.55.89.89,0,0,1-.26.66,1.26,1.26,0,0,1-.89.24h-1.85v.52h-.46v-.52h-.82Z" transform="translate(0 -0.59)"/><path class="cls-12" d="M127,123.05c-.4,0-.74,0-1,0v-.54l.66,0v0a1,1,0,0,1-.74-.94.79.79,0,0,1,0-.17h.58a1.15,1.15,0,0,0,0,.21.88.88,0,0,0,.79.83l.29,0h1.81v.61Z" transform="translate(0 -0.59)"/><path class="cls-12" d="M125,120.06a.36.36,0,0,1,.38.39.37.37,0,0,1-.38.37.38.38,0,0,1-.38-.39A.36.36,0,0,1,125,120.06Zm4.35.68h-3.39v-.61h3.39Z" transform="translate(0 -0.59)"/><path class="cls-12" d="M129.31,117.23l-.43,0v0a1.27,1.27,0,0,1,.5,1,1,1,0,0,1-1,1c-.82,0-1.27-.73-1.26-2h-.07a.7.7,0,0,0-.79.77,1.66,1.66,0,0,0,.26.89l-.41.14a2.17,2.17,0,0,1-.3-1.12c0-1,.71-1.29,1.39-1.29h1.26a5.16,5.16,0,0,0,.82,0Zm-1.73.09c0,.67.1,1.43.76,1.43a.54.54,0,0,0,.59-.58.85.85,0,0,0-.57-.82.64.64,0,0,0-.2,0Z" transform="translate(0 -0.59)"/><path class="cls-12" d="M124.33,115.73v-.62h5v.62Z" transform="translate(0 -0.59)"/><path class="cls-12" d="M155.4,173.73v1.43h-.52v-3.49h.52v1.44h4.2v.62Z" transform="translate(0 -0.59)"/><path class="cls-12" d="M158,171.31a1.09,1.09,0,0,0,1.18-1.16,2.2,2.2,0,0,0-.18-.94l.44-.11a2.74,2.74,0,0,1,.21,1.13A1.57,1.57,0,0,1,158,171.9a1.64,1.64,0,0,1-1.82-1.59,1.43,1.43,0,0,1,1.59-1.4l.29,0Zm-.44-1.81a.89.89,0,0,0-1,.86,1,1,0,0,0,1,.94Z" transform="translate(0 -0.59)"/><path class="cls-12" d="M154.63,168.15v-.62h5v.62Z" transform="translate(0 -0.59)"/><path class="cls-12" d="M158,166.15A1.09,1.09,0,0,0,159.2,165a2.2,2.2,0,0,0-.18-.94l.44-.1a2.64,2.64,0,0,1,.21,1.12,1.57,1.57,0,0,1-1.71,1.67,1.64,1.64,0,0,1-1.82-1.59,1.43,1.43,0,0,1,1.59-1.4l.29,0Zm-.44-1.81a.88.88,0,0,0-1,.86,1,1,0,0,0,1,.94Z" transform="translate(0 -0.59)"/><path class="cls-12" d="M159.48,160.57a2.35,2.35,0,0,1,.19,1,1.61,1.61,0,0,1-1.73,1.69,1.72,1.72,0,0,1-1.8-1.82,2,2,0,0,1,.18-.85l.47.14a1.45,1.45,0,0,0-.16.71,1.18,1.18,0,0,0,1.28,1.2,1.16,1.16,0,0,0,1.27-1.18,1.66,1.66,0,0,0-.17-.75Z" transform="translate(0 -0.59)"/><path class="cls-12" d="M157.88,156.82a1.66,1.66,0,0,1,1.8,1.69,1.61,1.61,0,0,1-1.74,1.62,1.65,1.65,0,0,1-1.8-1.68A1.6,1.6,0,0,1,157.88,156.82Zm0,2.69c.75,0,1.31-.43,1.31-1s-.56-1-1.32-1c-.57,0-1.3.29-1.3,1S157.27,159.51,157.91,159.51Z" transform="translate(0 -0.59)"/><path class="cls-12" d="M157.13,156c-.35,0-.64,0-.92,0v-.54l.55,0v0a1.16,1.16,0,0,1-.62-1.06,1,1,0,0,1,.68-1h0a1.56,1.56,0,0,1-.45-.38,1.2,1.2,0,0,1-.23-.75c0-.45.29-1.12,1.47-1.12h2v.61h-1.92c-.65,0-1,.23-1,.73a.8.8,0,0,0,.56.73,1,1,0,0,0,.31,0h2.09v.6h-2c-.54,0-.93.24-.93.71a.85.85,0,0,0,.62.76.73.73,0,0,0,.3.05h2v.6Z" transform="translate(0 -0.59)"/><path class="cls-12" d="M157.13,150.21c-.35,0-.64,0-.92,0v-.54l.55,0v0a1.18,1.18,0,0,1-.62-1.07,1,1,0,0,1,.68-1h0a1.56,1.56,0,0,1-.45-.38,1.18,1.18,0,0,1-.23-.75c0-.45.29-1.11,1.47-1.11h2v.6h-1.92c-.65,0-1,.24-1,.73a.8.8,0,0,0,.56.73,1,1,0,0,0,.31,0h2.09v.6h-2c-.54,0-.93.24-.93.71a.83.83,0,0,0,.62.76.73.73,0,0,0,.3,0h2v.61Z" transform="translate(0 -0.59)"/><path class="cls-12" d="M158.68,141.53c.35,0,.66,0,.92,0v.55l-.55,0v0a1.28,1.28,0,0,1,.63,1.12c0,.53-.29,1.17-1.49,1.17h-2v-.62h1.88c.64,0,1.08-.19,1.08-.75a.91.91,0,0,0-.56-.82,1,1,0,0,0-.32,0h-2.08v-.62Z" transform="translate(0 -0.59)"/><path class="cls-12" d="M157.13,140.51c-.35,0-.64,0-.92,0V140l.56,0v0a1.24,1.24,0,0,1-.63-1.12c0-.47.28-1.19,1.44-1.19h2v.61h-1.95c-.55,0-1,.2-1,.79a.86.86,0,0,0,.63.82.79.79,0,0,0,.28,0h2v.62Z" transform="translate(0 -0.59)"/><path class="cls-12" d="M155.26,135.94a.38.38,0,1,1,0,.76.38.38,0,0,1-.39-.38A.37.37,0,0,1,155.26,135.94Zm4.34.69h-3.39V136h3.39Z" transform="translate(0 -0.59)"/><path class="cls-12" d="M159.48,132.57a2.35,2.35,0,0,1,.19,1,1.61,1.61,0,0,1-1.73,1.69,1.72,1.72,0,0,1-1.8-1.82,2,2,0,0,1,.18-.85l.47.14a1.45,1.45,0,0,0-.16.71,1.18,1.18,0,0,0,1.28,1.2,1.16,1.16,0,0,0,1.27-1.18,1.66,1.66,0,0,0-.17-.75Z" transform="translate(0 -0.59)"/><path class="cls-12" d="M159.6,130l-.42,0v0a1.29,1.29,0,0,1,.5,1,1,1,0,0,1-1,1c-.82,0-1.27-.73-1.26-2h-.08a.7.7,0,0,0-.78.77,1.68,1.68,0,0,0,.25.88l-.4.14a2,2,0,0,1-.3-1.11c0-1,.7-1.29,1.38-1.29h1.27a5,5,0,0,0,.81-.05Zm-1.73.09c0,.67.11,1.43.77,1.43a.54.54,0,0,0,.58-.58.85.85,0,0,0-.56-.82l-.2,0Z" transform="translate(0 -0.59)"/><path class="cls-12" d="M155.24,127.76h1v-.88h.47v.88h1.83c.42,0,.66-.12.66-.46a1.49,1.49,0,0,0,0-.36l.46,0a1.46,1.46,0,0,1,.08.54.86.86,0,0,1-.26.67,1.27,1.27,0,0,1-.88.24h-1.85v.52h-.47v-.52h-.81Z" transform="translate(0 -0.59)"/><path class="cls-12" d="M155.26,125.5a.39.39,0,0,1,0,.77.38.38,0,0,1-.39-.39A.37.37,0,0,1,155.26,125.5Zm4.34.69h-3.39v-.62h3.39Z" transform="translate(0 -0.59)"/><path class="cls-12" d="M157.88,121.48a1.66,1.66,0,0,1,1.8,1.69,1.61,1.61,0,0,1-1.74,1.63,1.66,1.66,0,0,1-1.8-1.68A1.6,1.6,0,0,1,157.88,121.48Zm0,2.69c.75,0,1.31-.42,1.31-1s-.56-1-1.32-1c-.57,0-1.3.29-1.3,1S157.27,124.17,157.91,124.17Z" transform="translate(0 -0.59)"/><path class="cls-12" d="M157.13,120.71a8.73,8.73,0,0,0-.92,0v-.55l.56,0v0a1.25,1.25,0,0,1-.63-1.12c0-.47.28-1.2,1.44-1.2h2v.62h-1.95c-.55,0-1,.2-1,.78a.87.87,0,0,0,.63.83.79.79,0,0,0,.28,0h2v.62Z" transform="translate(0 -0.59)"/><path class="cls-12" d="M159,116.91a1.62,1.62,0,0,0,.25-.82c0-.44-.23-.65-.51-.65s-.45.17-.62.63c-.22.61-.55.89-1,.89a1,1,0,0,1-1-1.17,1.61,1.61,0,0,1,.21-.83l.44.15a1.4,1.4,0,0,0-.19.7c0,.36.21.57.46.57s.41-.21.57-.65c.23-.59.52-.89,1-.89s1,.46,1,1.27a1.93,1.93,0,0,1-.23,1Z" transform="translate(0 -0.59)"/><path class="cls-12" d="M187.74,161.17a3,3,0,0,1,.23,1.24,2.21,2.21,0,0,1-2.39,2.34,2.35,2.35,0,0,1-2.48-2.47,2.43,2.43,0,0,1,.21-1.12l.5.15a2.1,2.1,0,0,0-.2.95,1.76,1.76,0,0,0,1.95,1.84,1.71,1.71,0,0,0,1.89-1.81,2.48,2.48,0,0,0-.19-1Z" transform="translate(0 -0.59)"/><path class="cls-12" d="M186.17,157.43a1.65,1.65,0,0,1,1.8,1.69,1.61,1.61,0,0,1-1.74,1.62,1.65,1.65,0,0,1-1.8-1.68A1.61,1.61,0,0,1,186.17,157.43Zm0,2.69c.74,0,1.3-.43,1.3-1s-.55-1-1.32-1c-.57,0-1.3.28-1.3,1S185.56,160.12,186.21,160.12Z" transform="translate(0 -0.59)"/><path class="cls-12" d="M185.42,156.65c-.35,0-.63,0-.91,0v-.55l.56,0v0a1.24,1.24,0,0,1-.64-1.12c0-.46.28-1.19,1.44-1.19h2v.61h-2c-.54,0-1,.21-1,.79a.87.87,0,0,0,.63.82.84.84,0,0,0,.29,0h2v.61Z" transform="translate(0 -0.59)"/><path class="cls-12" d="M187.27,152.85a1.69,1.69,0,0,0,.24-.81c0-.45-.22-.66-.5-.66s-.46.18-.63.63c-.21.61-.55.9-1,.9a1,1,0,0,1-1-1.17,1.76,1.76,0,0,1,.21-.84l.45.16a1.26,1.26,0,0,0-.2.69c0,.37.21.57.46.57s.41-.2.58-.65.52-.88,1-.88,1,.46,1,1.26a2.09,2.09,0,0,1-.23,1Z" transform="translate(0 -0.59)"/><path class="cls-12" d="M187,147.16q.53,0,.93,0v.55l-.56,0v0a1.26,1.26,0,0,1,.63,1.12c0,.53-.29,1.17-1.48,1.17h-2v-.62h1.87c.65,0,1.08-.2,1.08-.76a.89.89,0,0,0-.56-.81,1,1,0,0,0-.31-.05h-2.08v-.62Z" transform="translate(0 -0.59)"/><path class="cls-12" d="M185.42,146.14c-.35,0-.63,0-.91,0v-.54l.54,0v0a1.18,1.18,0,0,1-.62-1.07,1,1,0,0,1,.68-1h0a1.39,1.39,0,0,1-.44-.38,1.11,1.11,0,0,1-.24-.75c0-.45.29-1.11,1.47-1.11h2v.6H186c-.65,0-1,.24-1,.74a.81.81,0,0,0,.56.73,1.46,1.46,0,0,0,.31,0h2.1V144h-2c-.54,0-.94.23-.94.7a.85.85,0,0,0,.62.77,1,1,0,0,0,.3,0h2.05v.6Z" transform="translate(0 -0.59)"/><path class="cls-12" d="M186.31,140a1.09,1.09,0,0,0,1.18-1.17,2.33,2.33,0,0,0-.17-.93l.44-.11a2.91,2.91,0,0,1,.21,1.13,1.58,1.58,0,0,1-1.71,1.67,1.65,1.65,0,0,1-1.83-1.59,1.43,1.43,0,0,1,1.6-1.4l.28,0Zm-.44-1.81a.87.87,0,0,0-1,.85,1,1,0,0,0,1,.95Z" transform="translate(0 -0.59)"/><path class="cls-12" d="M185.56,136.79c-.4,0-.74,0-1.05,0v-.54l.66,0v0a1,1,0,0,1-.74-.94.88.88,0,0,1,0-.17H185a1.25,1.25,0,0,0,0,.21.88.88,0,0,0,.79.83l.29,0h1.81v.61Z" transform="translate(0 -0.59)"/><path class="cls-12" d="M187.69,129.41a4.58,4.58,0,0,1,.26,1.45,2.23,2.23,0,0,1-2.39,2.42,2.37,2.37,0,0,1-2.43-2.56,3.07,3.07,0,0,1,.21-1.17l.5.14a2.53,2.53,0,0,0-.2,1.05,1.76,1.76,0,0,0,1.9,1.9,1.74,1.74,0,0,0,1.9-1.83,2.24,2.24,0,0,0-.12-.81h-1.41v1h-.49v-1.55Z" transform="translate(0 -0.59)"/><path class="cls-12" d="M186.17,125.4a1.65,1.65,0,0,1,1.8,1.69,1.61,1.61,0,0,1-1.74,1.63,1.66,1.66,0,0,1-1.8-1.69A1.61,1.61,0,0,1,186.17,125.4Zm0,2.69c.74,0,1.3-.42,1.3-1s-.55-1-1.32-1c-.57,0-1.3.29-1.3,1S185.56,128.09,186.21,128.09Z" transform="translate(0 -0.59)"/><path class="cls-12" d="M186.17,121.56a1.65,1.65,0,0,1,1.8,1.69,1.6,1.6,0,0,1-1.74,1.62,1.65,1.65,0,0,1-1.8-1.68A1.61,1.61,0,0,1,186.17,121.56Zm0,2.69c.74,0,1.3-.43,1.3-1s-.55-1-1.32-1c-.57,0-1.3.29-1.3,1S185.56,124.25,186.21,124.25Z" transform="translate(0 -0.59)"/><path class="cls-12" d="M182.92,117.86H187c.3,0,.64,0,.88,0v.55l-.59,0h0a1.26,1.26,0,0,1,.66,1.16,1.54,1.54,0,0,1-1.72,1.45,1.62,1.62,0,0,1-1.82-1.52,1.11,1.11,0,0,1,.52-1v0h-2Zm3,.61a1.09,1.09,0,0,0-.26,0,.92.92,0,0,0-.72.89c0,.64.56,1,1.31,1s1.26-.34,1.26-1a.93.93,0,0,0-.74-.91,1.12,1.12,0,0,0-.27,0Z" transform="translate(0 -0.59)"/><path class="cls-12" d="M187.27,116.92a1.69,1.69,0,0,0,.24-.81c0-.45-.22-.66-.5-.66s-.46.18-.63.63c-.21.61-.55.9-1,.9a1,1,0,0,1-1-1.17,1.72,1.72,0,0,1,.21-.84l.45.16a1.26,1.26,0,0,0-.2.69c0,.37.21.57.46.57s.41-.2.58-.65.52-.89,1-.89,1,.47,1,1.27a2.09,2.09,0,0,1-.23,1Z" transform="translate(0 -0.59)"/><path class="cls-12" d="M195.5,140.65l-.46.44a2,2,0,0,1,.54,1.38,1.34,1.34,0,0,1-1.33,1.45,1.57,1.57,0,0,1-1.38-.92h0a1.65,1.65,0,0,1-1,.39,1.15,1.15,0,0,1-1.16-1.2,1,1,0,0,1,1-1c.5,0,.89.28,1.26,1h0L194.3,141a3.54,3.54,0,0,0-1.38-.45V140a3.52,3.52,0,0,1,1.74.68l.84-.78Zm-3.69,2.18a1.33,1.33,0,0,0,.84-.36c-.27-.48-.52-.78-.92-.78a.55.55,0,0,0-.61.54A.62.62,0,0,0,191.81,142.83Zm2.88-1.44c-.31.28-.89.81-1.49,1.33a1.16,1.16,0,0,0,1,.61.93.93,0,0,0,1-1A1.35,1.35,0,0,0,194.69,141.39Z" transform="translate(0 -0.59)"/><path class="cls-12" d="M194.76,138a2.22,2.22,0,0,0,.3-1.09c0-.63-.33-1-.8-1s-.69.25-.94.89S192.65,138,192,138a1.36,1.36,0,0,1-1.28-1.53,2.13,2.13,0,0,1,.23-1l.5.16a1.83,1.83,0,0,0-.23.9c0,.64.39.89.71.89s.66-.29.91-.94c.31-.8.7-1.2,1.39-1.2s1.36.54,1.36,1.65a2.52,2.52,0,0,1-.3,1.2Z" transform="translate(0 -0.59)"/><path class="cls-12" d="M193.91,134.08a1.09,1.09,0,0,0,1.18-1.16,2.35,2.35,0,0,0-.17-.94l.44-.11a2.74,2.74,0,0,1,.21,1.13,1.58,1.58,0,0,1-1.71,1.67,1.65,1.65,0,0,1-1.83-1.59,1.44,1.44,0,0,1,1.6-1.41,1.58,1.58,0,0,1,.28,0Zm-.44-1.81a.87.87,0,0,0-1,.85,1,1,0,0,0,1,.95Z" transform="translate(0 -0.59)"/><path class="cls-12" d="M193.17,130.91c-.4,0-.75,0-1.06,0v-.54l.66,0v0a1,1,0,0,1-.74-.93.9.9,0,0,1,0-.18h.58a1.25,1.25,0,0,0,0,.21.88.88,0,0,0,.79.83l.29,0h1.81v.61Z" transform="translate(0 -0.59)"/><path class="cls-12" d="M192.11,128.21l1.9-.66a7.25,7.25,0,0,1,.87-.28v0c-.28-.08-.56-.17-.87-.29l-1.9-.65v-.65L195.5,127v.59l-3.39,1.29Z" transform="translate(0 -0.59)"/><path class="cls-12" d="M191.16,124.4a.35.35,0,0,1,.37.39.36.36,0,0,1-.37.37.38.38,0,0,1-.39-.39A.36.36,0,0,1,191.16,124.4Zm4.34.68h-3.39v-.61h3.39Z" transform="translate(0 -0.59)"/><path class="cls-12" d="M195.37,121a2.17,2.17,0,0,1,.2,1,1.62,1.62,0,0,1-1.73,1.69,1.72,1.72,0,0,1-1.8-1.82,2.16,2.16,0,0,1,.17-.86l.48.14a1.5,1.5,0,0,0-.16.72,1.28,1.28,0,0,0,2.55,0,1.74,1.74,0,0,0-.17-.76Z" transform="translate(0 -0.59)"/><path class="cls-12" d="M193.91,120a1.08,1.08,0,0,0,1.18-1.16,2.39,2.39,0,0,0-.17-.94l.44-.11a2.74,2.74,0,0,1,.21,1.13,1.58,1.58,0,0,1-1.71,1.67A1.65,1.65,0,0,1,192,119a1.43,1.43,0,0,1,1.6-1.4l.28,0Zm-.44-1.81a.88.88,0,0,0-1,.86,1,1,0,0,0,1,.94Z" transform="translate(0 -0.59)"/><path class="cls-12" d="M194.87,116.92a1.58,1.58,0,0,0,.24-.81c0-.45-.22-.66-.5-.66s-.46.18-.62.63c-.22.61-.56.9-1,.9a1,1,0,0,1-1-1.17,1.72,1.72,0,0,1,.21-.84l.45.16a1.35,1.35,0,0,0-.2.69c0,.37.21.57.47.57s.4-.2.57-.65.52-.89,1-.89,1,.47,1,1.27a2,2,0,0,1-.23,1Z" transform="translate(0 -0.59)"/><path class="cls-12" d="M217.07,141.8h4.72v.61h-4.72Z" transform="translate(0 -0.59)"/><path class="cls-12" d="M219.32,140.7c-.35,0-.64,0-.92,0v-.55l.56,0v0a1.25,1.25,0,0,1-.64-1.12c0-.47.28-1.2,1.45-1.2h2v.62h-1.95c-.55,0-1,.2-1,.78a.88.88,0,0,0,.63.83.88.88,0,0,0,.29,0h2v.62Z" transform="translate(0 -0.59)"/><path class="cls-12" d="M221.16,136.9a1.62,1.62,0,0,0,.25-.82c0-.44-.23-.65-.51-.65s-.45.17-.62.63-.56.89-1,.89a1,1,0,0,1-1-1.17,1.71,1.71,0,0,1,.21-.83l.45.15a1.4,1.4,0,0,0-.19.7c0,.36.21.57.46.57s.4-.21.57-.65c.23-.59.52-.89,1-.89s1,.46,1,1.27a1.93,1.93,0,0,1-.23,1Z" transform="translate(0 -0.59)"/><path class="cls-12" d="M220.87,131.21c.35,0,.65,0,.92,0v.54l-.55,0h0a1.28,1.28,0,0,1,.63,1.12c0,.54-.3,1.17-1.49,1.17h-2v-.61h1.88c.64,0,1.08-.2,1.08-.76a.89.89,0,0,0-.56-.81.87.87,0,0,0-.32-.06H218.4v-.61Z" transform="translate(0 -0.59)"/><path class="cls-12" d="M219.46,130.18c-.4,0-.74,0-1.06,0v-.54l.67,0v0a1,1,0,0,1-.75-.93,1,1,0,0,1,0-.18h.59a.66.66,0,0,0,0,.21.87.87,0,0,0,.8.83,2.19,2.19,0,0,0,.28,0h1.81v.6Z" transform="translate(0 -0.59)"/><path class="cls-12" d="M221.79,126.05l-.43,0v0a1.25,1.25,0,0,1,.51,1,1,1,0,0,1-1,1c-.82,0-1.26-.73-1.26-2h-.07a.7.7,0,0,0-.78.77,1.75,1.75,0,0,0,.25.89l-.41.14a2.14,2.14,0,0,1-.3-1.12c0-1,.71-1.29,1.39-1.29H221a5,5,0,0,0,.81-.05Zm-1.73.09c0,.67.1,1.43.76,1.43a.54.54,0,0,0,.59-.58.85.85,0,0,0-.57-.82.63.63,0,0,0-.19,0Z" transform="translate(0 -0.59)"/><path class="cls-12" d="M219.32,124.55c-.35,0-.64,0-.92,0V124l.56,0v0a1.24,1.24,0,0,1-.64-1.12c0-.47.28-1.19,1.45-1.19h2v.61h-1.95c-.55,0-1,.2-1,.79a.87.87,0,0,0,.63.82.88.88,0,0,0,.29,0h2v.62Z" transform="translate(0 -0.59)"/><path class="cls-12" d="M221.66,118.25a2.17,2.17,0,0,1,.2,1,1.61,1.61,0,0,1-1.73,1.69,1.72,1.72,0,0,1-1.8-1.82,2.1,2.1,0,0,1,.17-.85l.48.14a1.42,1.42,0,0,0-.16.71,1.28,1.28,0,0,0,2.55,0,1.74,1.74,0,0,0-.17-.76Z" transform="translate(0 -0.59)"/><path class="cls-12" d="M220.21,117.22a1.08,1.08,0,0,0,1.17-1.16,2.22,2.22,0,0,0-.17-.94l.44-.11a2.74,2.74,0,0,1,.21,1.13,1.58,1.58,0,0,1-1.71,1.67,1.65,1.65,0,0,1-1.83-1.59,1.44,1.44,0,0,1,1.6-1.4l.29,0Zm-.44-1.81a.89.89,0,0,0-1,.86,1,1,0,0,0,1,.94Z" transform="translate(0 -0.59)"/></g></svg>