<svg xmlns="http://www.w3.org/2000/svg" viewBox="0 0 779.64 347.67"><g id="Layer_6" data-name="Layer 6"><rect y="0.07" width="779.64" height="347.6" style="fill:none;opacity:0.8"/></g><g id="Layer_1" data-name="Layer 1"><rect x="454.38" y="99.2" width="243.56" height="243.56" style="fill:none"/><path d="M488.42,150.15c-7.17,0-14.12,0-21,0a10.54,10.54,0,0,1-2.86-.32,3.3,3.3,0,0,1-1.7-1,3.17,3.17,0,0,1-.62-1.85,10.07,10.07,0,0,1,.31-2.78c2.92-12.85,5.6-24.56,8.19-35.81.55-2.39,1.23-3.77,2.28-4.61s2.54-1.2,5-1.2c4.74,0,9.57,0,14.23,0h12.82c5.08,0,10.35,0,15.52,0,2.21,0,3.5.39,4.19,1.25a3,3,0,0,1,.59,1.73,9.5,9.5,0,0,1-.27,2.62c-2.48,11.35-5.14,23.31-8.15,36.57-.87,3.85-2.88,5.43-6.93,5.44C502.56,150.14,495.39,150.15,488.42,150.15ZM487,102.51H478c-2.44,0-3.92.37-5,1.2s-1.73,2.21-2.28,4.6c-2.59,11.24-5.27,23-8.18,35.8-.52,2.28-.43,3.7.3,4.61s2.14,1.35,4.54,1.36c6.84,0,13.79,0,21,0,7,0,14.15,0,21.63,0,4,0,6-1.58,6.91-5.43,3-13.26,5.67-25.22,8.15-36.56.46-2.14.37-3.48-.32-4.33s-2-1.24-4.17-1.25c-5.17,0-10.44,0-15.52,0H487Z" transform="translate(0 0.07)" style="fill:#3960ad;stroke:#3960ad;stroke-miterlimit:10;stroke-width:4px"/><path d="M494.64,125.29c-.48-.55-1-1.2-1.55-1.81-3.14-3.49-6.25-7-9.44-10.43-1.46-1.57-1.93-3.09-.17-4.64s3.43-1.4,5,.36c4.42,4.91,8.85,9.82,13.35,14.67,1.68,1.8,1.29,3-.56,4.37q-10.67,7.73-21.23,15.56c-1.59,1.17-3.1,1.46-4.38-.27-1.42-1.91-.11-3,1.36-4.11q7.86-5.73,15.69-11.52C493.47,126.93,494.51,126.61,494.64,125.29Z" transform="translate(0 0.07)" style="fill:#3960ad;fill-rule:evenodd"/><path d="M496.89,143.75c-1.91,0-3.83.07-5.73,0a2.28,2.28,0,0,1-2.42-2.52c0-1.51.78-2.65,2.3-2.69,4.18-.11,8.36-.09,12.53,0a2.19,2.19,0,0,1,2.3,2.28,2.64,2.64,0,0,1-2.54,2.91c-2.14.13-4.3,0-6.44,0Z" transform="translate(0 0.07)" style="fill:#3960ad;stroke:#3960ad;stroke-miterlimit:10;fill-rule:evenodd"/><path d="M545.44,116.45a3.5,3.5,0,0,1-.59,4.88,6.82,6.82,0,0,1-7.11,0,3.25,3.25,0,0,1-1.32-2.74,3.21,3.21,0,0,1,.76-2.15,3.94,3.94,0,0,1,2.07-1.24,3.56,3.56,0,0,1-1.87-1.19,3.07,3.07,0,0,1-.65-2,3.26,3.26,0,0,1,.57-1.91,3.71,3.71,0,0,1,1.62-1.26,5.91,5.91,0,0,1,2.38-.45,6,6,0,0,1,2.38.45,3.73,3.73,0,0,1,1.61,1.26,3.2,3.2,0,0,1,.58,1.91,3.07,3.07,0,0,1-.66,2,3.66,3.66,0,0,1-1.85,1.19A4,4,0,0,1,545.44,116.45Zm-1.68,3.93a2.2,2.2,0,0,0,.86-1.89,2.17,2.17,0,0,0-.9-1.81,4.83,4.83,0,0,0-2.42-.83,4.76,4.76,0,0,0-2.42.83,2.15,2.15,0,0,0-.91,1.81,2.22,2.22,0,0,0,.86,1.89,5,5,0,0,0,4.93,0Zm-4.65-6.45a4,4,0,0,0,2.19.83,4.09,4.09,0,0,0,2.19-.83,2.37,2.37,0,0,0,0-3.55,4.08,4.08,0,0,0-4.42,0,2.35,2.35,0,0,0,0,3.55Z" transform="translate(0 0.07)" style="fill:#c9c9c9"/><path d="M555.59,114.2a3.67,3.67,0,0,1,1.48,1.52,4.67,4.67,0,0,1,.52,2.25,4.49,4.49,0,0,1-.57,2.28,3.83,3.83,0,0,1-1.6,1.54,5.25,5.25,0,0,1-2.44.54,7,7,0,0,1-2.45-.45,5.68,5.68,0,0,1-2-1.23l.59-1.2A6,6,0,0,0,553,121a3.06,3.06,0,0,0,2.25-.81A3,3,0,0,0,556,118a3.06,3.06,0,0,0-.8-2.19,2.87,2.87,0,0,0-2.15-.83,3.65,3.65,0,0,0-3.11,1.59h-1.09v-8h8.16v1.3h-6.59v4.85a4,4,0,0,1,2.88-1.09A4.41,4.41,0,0,1,555.59,114.2Z" transform="translate(0 0.07)" style="fill:#c9c9c9"/><path d="M560.44,115.7a6.05,6.05,0,0,1,0-6.22,3.29,3.29,0,0,1,4.82,0,5.94,5.94,0,0,1,0,6.22,3.29,3.29,0,0,1-4.82,0Zm3.81-.79a4.65,4.65,0,0,0,.45-2.33,4.55,4.55,0,0,0-.45-2.3,1.69,1.69,0,0,0-2.8,0,4.43,4.43,0,0,0-.46,2.3,4.53,4.53,0,0,0,.46,2.33,1.71,1.71,0,0,0,2.8,0Zm-1.46,7.29,7.88-13.61h1.51L564.3,122.2Zm6.92-.92a6.05,6.05,0,0,1,0-6.22,2.93,2.93,0,0,1,2.41-1,3,3,0,0,1,2.42,1,6,6,0,0,1,0,6.22,3,3,0,0,1-2.42,1A2.94,2.94,0,0,1,569.71,121.28Zm3.83-.78a4.6,4.6,0,0,0,.45-2.33,4.45,4.45,0,0,0-.46-2.31,1.73,1.73,0,0,0-2.82,0,6.18,6.18,0,0,0,0,4.63,1.54,1.54,0,0,0,1.41.74A1.56,1.56,0,0,0,573.54,120.5Z" transform="translate(0 0.07)" style="fill:#c9c9c9"/><path d="M584.53,121.72a4.15,4.15,0,0,1-1.6-1.74,5.9,5.9,0,0,1-.56-2.64,6,6,0,0,1,.56-2.64,4.15,4.15,0,0,1,1.6-1.74,5,5,0,0,1,4.78,0,4.15,4.15,0,0,1,1.6,1.74,6,6,0,0,1,.56,2.64,5.9,5.9,0,0,1-.56,2.64,4.15,4.15,0,0,1-1.6,1.74,5,5,0,0,1-4.78,0Zm4.59-1.61a4.33,4.33,0,0,0,.76-2.77,4.22,4.22,0,0,0-.78-2.72,3,3,0,0,0-4.38,0,4.22,4.22,0,0,0-.78,2.72,4.33,4.33,0,0,0,.77,2.77,2.69,2.69,0,0,0,2.21.94A2.66,2.66,0,0,0,589.12,120.11Z" transform="translate(0 0.07)" style="fill:#c9c9c9"/><path d="M596.36,109.82a2,2,0,0,0-.43,1.48v1.28h2.35v1.23h-2.35v8.39h-1.55v-8.39H592.5v-1.23h1.88v-1.47a3.17,3.17,0,0,1,.75-2.29,2.86,2.86,0,0,1,2.12-.77,5.15,5.15,0,0,1,1.3.17v1.32a3.73,3.73,0,0,0-1-.15A1.58,1.58,0,0,0,596.36,109.82Z" transform="translate(0 0.07)" style="fill:#c9c9c9"/><path d="M613.77,112.58v9.62h-1.53v-1.74a3.11,3.11,0,0,1-1.27,1.39,4,4,0,0,1-2,.48,4.08,4.08,0,0,1-2.25-.61,4,4,0,0,1-1.49-1.73,6.68,6.68,0,0,1,0-5.24,4.08,4.08,0,0,1,1.5-1.77,4,4,0,0,1,2.23-.63,3.85,3.85,0,0,1,2,.5,3.28,3.28,0,0,1,1.28,1.4v-1.67Zm-2.3,7.51a4.35,4.35,0,0,0,.77-2.75,4.29,4.29,0,0,0-.77-2.73,2.63,2.63,0,0,0-2.18-1,2.68,2.68,0,0,0-2.21,1,5.14,5.14,0,0,0,0,5.46,2.75,2.75,0,0,0,2.22,1A2.63,2.63,0,0,0,611.47,120.09Z" transform="translate(0 0.07)" style="fill:#c9c9c9"/><path d="M616.77,108.13h1.55V122.2h-1.55Z" transform="translate(0 0.07)" style="fill:#c9c9c9"/><path d="M621.32,108.13h1.55V122.2h-1.55Z" transform="translate(0 0.07)" style="fill:#c9c9c9"/><path d="M639.33,112.58v9.62H637.8v-1.74a3.06,3.06,0,0,1-1.27,1.39,4,4,0,0,1-2,.48,4.12,4.12,0,0,1-2.25-.61,4,4,0,0,1-1.49-1.73,6,6,0,0,1-.52-2.61,6.24,6.24,0,0,1,.53-2.63,4.22,4.22,0,0,1,1.5-1.77,4,4,0,0,1,2.23-.63,3.82,3.82,0,0,1,2,.5,3.22,3.22,0,0,1,1.28,1.4v-1.67ZM637,120.09a4.35,4.35,0,0,0,.76-2.75,4.29,4.29,0,0,0-.76-2.73,2.63,2.63,0,0,0-2.18-1,2.67,2.67,0,0,0-2.21,1,5.08,5.08,0,0,0,0,5.46,2.72,2.72,0,0,0,2.22,1A2.63,2.63,0,0,0,637,120.09Z" transform="translate(0 0.07)" style="fill:#c9c9c9"/><path d="M644.4,113.81v5.25a2.05,2.05,0,0,0,.44,1.51,1.73,1.73,0,0,0,1.24.43,3,3,0,0,0,1-.18v1.32a4.25,4.25,0,0,1-1.34.19,2.91,2.91,0,0,1-2.15-.77,3.14,3.14,0,0,1-.77-2.29v-5.46H641v-1.23h1.88v-2.46l1.55-.56v3h2.75v1.23Z" transform="translate(0 0.07)" style="fill:#c9c9c9"/><path d="M651.15,113.81v5.25a2.05,2.05,0,0,0,.44,1.51,1.73,1.73,0,0,0,1.24.43,3,3,0,0,0,1-.18v1.32a4.25,4.25,0,0,1-1.34.19,2.91,2.91,0,0,1-2.15-.77,3.14,3.14,0,0,1-.77-2.29v-5.46h-1.88v-1.23h1.88v-2.46l1.55-.56v3h2.75v1.23Z" transform="translate(0 0.07)" style="fill:#c9c9c9"/><path d="M664.25,112.58v9.62h-1.53v-1.74a3.08,3.08,0,0,1-1.28,1.39,3.91,3.91,0,0,1-2,.48,4.08,4.08,0,0,1-2.25-.61,4,4,0,0,1-1.49-1.73,6.68,6.68,0,0,1,0-5.24,4.08,4.08,0,0,1,1.5-1.77,4,4,0,0,1,2.23-.63,3.78,3.78,0,0,1,2,.5,3.24,3.24,0,0,1,1.29,1.4v-1.67Zm-2.3,7.51a4.35,4.35,0,0,0,.77-2.75,4.29,4.29,0,0,0-.77-2.73,2.63,2.63,0,0,0-2.18-1,2.68,2.68,0,0,0-2.21,1,5.14,5.14,0,0,0,0,5.46,2.75,2.75,0,0,0,2.22,1A2.63,2.63,0,0,0,662,120.09Z" transform="translate(0 0.07)" style="fill:#c9c9c9"/><path d="M668.84,121.72a4.06,4.06,0,0,1-1.6-1.73,5.64,5.64,0,0,1-.57-2.61,5.82,5.82,0,0,1,.58-2.63,4.23,4.23,0,0,1,1.63-1.77,4.79,4.79,0,0,1,2.48-.63,5.22,5.22,0,0,1,1.88.34,4,4,0,0,1,1.5.92l-.51,1.15a5.94,5.94,0,0,0-1.41-.84,3.7,3.7,0,0,0-1.39-.27,2.87,2.87,0,0,0-2.31,1,4.86,4.86,0,0,0,0,5.45,2.92,2.92,0,0,0,2.32,1,3.89,3.89,0,0,0,1.39-.26,5.68,5.68,0,0,0,1.41-.85l.51,1.15a4.31,4.31,0,0,1-1.54.91,5.66,5.66,0,0,1-1.92.33A4.73,4.73,0,0,1,668.84,121.72Z" transform="translate(0 0.07)" style="fill:#c9c9c9"/><path d="M683.19,122.2l-4.93-4.63v4.63h-1.55V108.13h1.55V117l4.53-4.4h2l-4.82,4.61,5.28,5Z" transform="translate(0 0.07)" style="fill:#c9c9c9"/><path d="M685.8,121.09l.51-1.15a5,5,0,0,0,1.59.88,5.58,5.58,0,0,0,1.8.27,3,3,0,0,0,1.65-.37,1.21,1.21,0,0,0,.56-1.08,1.16,1.16,0,0,0-.38-.92,2.76,2.76,0,0,0-1.26-.54l-1.63-.38a3.58,3.58,0,0,1-1.86-1,2.3,2.3,0,0,1-.66-1.65,2.5,2.5,0,0,1,1-2,4.23,4.23,0,0,1,2.68-.8,5.48,5.48,0,0,1,1.91.33,4,4,0,0,1,1.51.93l-.51,1.13a4.51,4.51,0,0,0-2.91-1.13,2.8,2.8,0,0,0-1.6.4,1.38,1.38,0,0,0-.21,2,2.52,2.52,0,0,0,1.14.54l1.63.4a4.07,4.07,0,0,1,2,1,2.24,2.24,0,0,1,.65,1.67,2.35,2.35,0,0,1-1,2,4.51,4.51,0,0,1-2.75.74A5.59,5.59,0,0,1,685.8,121.09Z" transform="translate(0 0.07)" style="fill:#c9c9c9"/><path d="M545.1,135.53v9.62h-1.51v-1.67a3.07,3.07,0,0,1-1.28,1.34,3.71,3.71,0,0,1-1.85.46,3.34,3.34,0,0,1-2.59-1,4.06,4.06,0,0,1-.88-2.83v-6h1.55v5.93a2.85,2.85,0,0,0,.54,1.91,2,2,0,0,0,1.62.61,2.72,2.72,0,0,0,2.07-.83,3.09,3.09,0,0,0,.78-2.19v-5.43Z" transform="translate(0 0.07)" style="fill:#c9c9c9"/><path d="M547.49,144l.52-1.15a5.25,5.25,0,0,0,1.59.88,5.56,5.56,0,0,0,1.79.27,3,3,0,0,0,1.66-.38,1.21,1.21,0,0,0,.56-1.08,1.18,1.18,0,0,0-.38-.91,2.86,2.86,0,0,0-1.26-.54l-1.63-.38a3.59,3.59,0,0,1-1.86-1,2.28,2.28,0,0,1-.66-1.64,2.49,2.49,0,0,1,1-2.06,4.23,4.23,0,0,1,2.68-.79,5.76,5.76,0,0,1,1.91.32,4.08,4.08,0,0,1,1.51.94l-.52,1.13a4.46,4.46,0,0,0-2.9-1.13,2.8,2.8,0,0,0-1.6.39,1.25,1.25,0,0,0-.56,1.1,1.23,1.23,0,0,0,.35.94,2.38,2.38,0,0,0,1.14.53l1.62.41a4.07,4.07,0,0,1,2,.94,2.24,2.24,0,0,1,.65,1.68,2.35,2.35,0,0,1-1,2,4.53,4.53,0,0,1-2.75.75A5.62,5.62,0,0,1,547.49,144Z" transform="translate(0 0.07)" style="fill:#c9c9c9"/><path d="M565.62,140.29h-7.06a4.18,4.18,0,0,0,.85,2.77,3.06,3.06,0,0,0,2.42.94,4.88,4.88,0,0,0,3.1-1.13l.52,1.13a4.55,4.55,0,0,1-1.62.94,6.08,6.08,0,0,1-2,.34,4.65,4.65,0,0,1-3.53-1.33,5,5,0,0,1-1.28-3.64,5.76,5.76,0,0,1,.57-2.61,4.25,4.25,0,0,1,1.61-1.77,4.4,4.4,0,0,1,2.35-.63,3.79,3.79,0,0,1,3,1.25,5.08,5.08,0,0,1,1.09,3.45Zm-6-3.06a3.47,3.47,0,0,0-1,2.05h5.6a3.27,3.27,0,0,0-.79-2.07,2.49,2.49,0,0,0-1.88-.71A2.71,2.71,0,0,0,559.59,137.23Z" transform="translate(0 0.07)" style="fill:#c9c9c9"/><path d="M573.15,131.53h5.43a4.84,4.84,0,0,1,3.28,1,3.46,3.46,0,0,1,1.18,2.79,3.51,3.51,0,0,1-1.19,2.8,4.85,4.85,0,0,1-3.27,1h-3.86v6h-1.57Zm5.3,6.33a3.43,3.43,0,0,0,2.27-.65,2.66,2.66,0,0,0,0-3.74,3.49,3.49,0,0,0-2.27-.64h-3.73v5Z" transform="translate(0 0.07)" style="fill:#c9c9c9"/><path d="M586.69,144.67a4.15,4.15,0,0,1-1.6-1.74,6.5,6.5,0,0,1,0-5.28,4.15,4.15,0,0,1,1.6-1.74,5,5,0,0,1,4.78,0,4.15,4.15,0,0,1,1.6,1.74,6.5,6.5,0,0,1,0,5.28,4.15,4.15,0,0,1-1.6,1.74,5,5,0,0,1-4.78,0Zm4.59-1.62a5.28,5.28,0,0,0,0-5.49,2.66,2.66,0,0,0-2.18-1,2.68,2.68,0,0,0-2.2,1,5.25,5.25,0,0,0,0,5.49,2.7,2.7,0,0,0,2.21.95A2.67,2.67,0,0,0,591.28,143.05Z" transform="translate(0 0.07)" style="fill:#c9c9c9"/><path d="M610.54,135.53,607,145.15h-1.49l-2.76-7.52L600,145.15h-1.49L595,135.53h1.63l2.71,7.76,2.81-7.76h1.36l2.77,7.78,2.78-7.78Z" transform="translate(0 0.07)" style="fill:#c9c9c9"/><path d="M620.48,140.29h-7.06a4.13,4.13,0,0,0,.85,2.77,3.06,3.06,0,0,0,2.42.94,4.88,4.88,0,0,0,3.1-1.13l.51,1.13a4.42,4.42,0,0,1-1.61.94,6.08,6.08,0,0,1-2,.34,4.65,4.65,0,0,1-3.53-1.33,5,5,0,0,1-1.29-3.64,5.76,5.76,0,0,1,.58-2.61,4.3,4.3,0,0,1,1.6-1.77,4.46,4.46,0,0,1,2.36-.63,3.79,3.79,0,0,1,3,1.25,5.13,5.13,0,0,1,1.09,3.45Zm-6-3.06a3.52,3.52,0,0,0-1,2.05h5.6a3.27,3.27,0,0,0-.79-2.07,2.5,2.5,0,0,0-1.89-.71A2.75,2.75,0,0,0,614.44,137.23Z" transform="translate(0 0.07)" style="fill:#c9c9c9"/><path d="M628.18,135.41l0,1.42a3.22,3.22,0,0,0-1-.15,2.46,2.46,0,0,0-2.07.87,3.28,3.28,0,0,0-.68,2.11v5.49h-1.55v-6.93a21.87,21.87,0,0,0-.15-2.69h1.47l.15,1.78a2.94,2.94,0,0,1,1.17-1.5,3.34,3.34,0,0,1,1.83-.51A3.42,3.42,0,0,1,628.18,135.41Z" transform="translate(0 0.07)" style="fill:#c9c9c9"/><path d="M629.18,143.58l.59-1.21a6.43,6.43,0,0,0,2.07,1.23,7.51,7.51,0,0,0,2.44.36,4.3,4.3,0,0,0,2.54-.64,2.11,2.11,0,0,0,.89-1.81,1.55,1.55,0,0,0-.43-1.12,3.06,3.06,0,0,0-1.13-.67,16.89,16.89,0,0,0-1.87-.52,17.2,17.2,0,0,1-2.58-.75,4,4,0,0,1-1.64-1.15,3,3,0,0,1-.63-2,3.52,3.52,0,0,1,.61-2.06,4,4,0,0,1,1.73-1.38,6.23,6.23,0,0,1,2.61-.5,7.86,7.86,0,0,1,2.64.44,5.49,5.49,0,0,1,2.06,1.28l-.61,1.2a6.78,6.78,0,0,0-1.94-1.2,5.79,5.79,0,0,0-2.15-.38,4,4,0,0,0-2.49.68,2.2,2.2,0,0,0-.9,1.86,1.74,1.74,0,0,0,.79,1.55,7.92,7.92,0,0,0,2.41.9c1.17.28,2.09.54,2.76.77a4.08,4.08,0,0,1,1.67,1.07,2.68,2.68,0,0,1,.67,1.91,3.39,3.39,0,0,1-.61,2,4,4,0,0,1-1.75,1.35,6.84,6.84,0,0,1-2.67.48A7.25,7.25,0,0,1,629.18,143.58Z" transform="translate(0 0.07)" style="fill:#c9c9c9"/><path d="M649.93,139.1v6.05h-1.55v-6a2.94,2.94,0,0,0-.54-2,2.12,2.12,0,0,0-1.68-.62,2.84,2.84,0,0,0-2.14.82,3,3,0,0,0-.81,2.22v5.51h-1.55V131.07h1.55v6a3.14,3.14,0,0,1,1.31-1.34,4,4,0,0,1,1.94-.46Q649.92,135.3,649.93,139.1Z" transform="translate(0 0.07)" style="fill:#c9c9c9"/><path d="M660.9,140.29h-7.06a4.13,4.13,0,0,0,.86,2.77,3,3,0,0,0,2.41.94,4.86,4.86,0,0,0,3.1-1.13l.52,1.13a4.55,4.55,0,0,1-1.62.94,6,6,0,0,1-2,.34,4.66,4.66,0,0,1-3.54-1.33,5,5,0,0,1-1.28-3.64,5.76,5.76,0,0,1,.57-2.61,4.25,4.25,0,0,1,1.61-1.77,4.4,4.4,0,0,1,2.35-.63,3.79,3.79,0,0,1,3,1.25A5.08,5.08,0,0,1,660.9,140Zm-6-3.06a3.47,3.47,0,0,0-1,2.05h5.6a3.27,3.27,0,0,0-.79-2.07,2.49,2.49,0,0,0-1.88-.71A2.71,2.71,0,0,0,654.87,137.23Z" transform="translate(0 0.07)" style="fill:#c9c9c9"/><path d="M663.25,131.07h1.55v14.08h-1.55Z" transform="translate(0 0.07)" style="fill:#c9c9c9"/><path d="M667.8,131.07h1.55v14.08H667.8Z" transform="translate(0 0.07)" style="fill:#c9c9c9"/><rect x="457.23" y="187.06" width="193.48" height="58.55" style="fill:none"/><rect x="463.92" y="191.8" width="59.03" height="41.6" style="fill:none"/><path d="M547.91,206.38a3.48,3.48,0,0,1-.58,4.87,6.78,6.78,0,0,1-7.12,0,3.46,3.46,0,0,1-.56-4.88,3.93,3.93,0,0,1,2.07-1.25,3.6,3.6,0,0,1-1.87-1.19,3.12,3.12,0,0,1-.65-2,3.21,3.21,0,0,1,.57-1.9,3.84,3.84,0,0,1,1.62-1.27,6.66,6.66,0,0,1,4.76,0,3.72,3.72,0,0,1,1.62,1.27,3.21,3.21,0,0,1,.57,1.9,3.07,3.07,0,0,1-.66,2,3.63,3.63,0,0,1-1.84,1.19A4,4,0,0,1,547.91,206.38Zm-1.67,3.93a2.26,2.26,0,0,0,.86-1.9,2.12,2.12,0,0,0-.91-1.8,3.91,3.91,0,0,0-4.84,0,2.15,2.15,0,0,0-.91,1.8,2.26,2.26,0,0,0,.86,1.9,5,5,0,0,0,4.94,0Zm-4.66-6.46a3.3,3.3,0,0,0,4.38,0,2.19,2.19,0,0,0,.81-1.77,2.15,2.15,0,0,0-.79-1.77,4.08,4.08,0,0,0-4.42,0,2.15,2.15,0,0,0-.79,1.77A2.19,2.19,0,0,0,541.58,203.85Z" transform="translate(0 0.07)" style="fill:#c9c9c9"/><path d="M558.63,200.08A7.82,7.82,0,0,1,560,205a9.09,9.09,0,0,1-1.39,5.38,4.5,4.5,0,0,1-3.87,1.93,6.29,6.29,0,0,1-2.29-.44,6.39,6.39,0,0,1-2-1.25l.62-1.2a7.34,7.34,0,0,0,1.85,1.19,4.52,4.52,0,0,0,1.78.38,3,3,0,0,0,2.72-1.57,8.35,8.35,0,0,0,1-4.4v-.25a3.47,3.47,0,0,1-1.43,1.69,4.2,4.2,0,0,1-2.28.63,4.41,4.41,0,0,1-2.2-.55A3.79,3.79,0,0,1,551,205a4.59,4.59,0,0,1-.54-2.25,4.43,4.43,0,0,1,.57-2.25,4,4,0,0,1,1.56-1.56,4.42,4.42,0,0,1,2.25-.56A4.53,4.53,0,0,1,558.63,200.08Zm-1.53,4.81a2.93,2.93,0,0,0,.84-2.17,2.9,2.9,0,0,0-3-3.05,2.76,2.76,0,0,0-2.1.84,3,3,0,0,0-.81,2.21,3,3,0,0,0,.81,2.18,2.79,2.79,0,0,0,2.12.84A2.92,2.92,0,0,0,557.1,204.89Z" transform="translate(0 0.07)" style="fill:#c9c9c9"/><path d="M562.91,205.62a4.86,4.86,0,0,1-.86-3.12,4.8,4.8,0,0,1,.86-3.09,2.94,2.94,0,0,1,2.41-1,3,3,0,0,1,2.42,1,4.74,4.74,0,0,1,.87,3.09,4.8,4.8,0,0,1-.87,3.12,3,3,0,0,1-2.42,1A2.94,2.94,0,0,1,562.91,205.62Zm3.82-.79a4.62,4.62,0,0,0,.45-2.33,4.55,4.55,0,0,0-.45-2.3,1.54,1.54,0,0,0-1.41-.74,1.55,1.55,0,0,0-1.4.74,4.55,4.55,0,0,0-.45,2.3,4.62,4.62,0,0,0,.45,2.33,1.55,1.55,0,0,0,1.4.73A1.53,1.53,0,0,0,566.73,204.83Zm-1.47,7.29,7.88-13.61h1.51l-7.88,13.61Zm6.92-.92a6.05,6.05,0,0,1,0-6.22,3.32,3.32,0,0,1,4.83,0,6,6,0,0,1,0,6.22,3.28,3.28,0,0,1-4.83,0Zm3.84-.78a4.57,4.57,0,0,0,.45-2.33,4.45,4.45,0,0,0-.46-2.31,1.56,1.56,0,0,0-1.42-.73,1.52,1.52,0,0,0-1.4.73,6.18,6.18,0,0,0,0,4.63,1.53,1.53,0,0,0,1.4.74A1.55,1.55,0,0,0,576,210.42Z" transform="translate(0 0.07)" style="fill:#c9c9c9"/><path d="M587,211.64a4,4,0,0,1-1.59-1.74,6.38,6.38,0,0,1,0-5.27,4.13,4.13,0,0,1,1.59-1.74,5,5,0,0,1,4.79,0,4.13,4.13,0,0,1,1.59,1.74,6.38,6.38,0,0,1,0,5.27,4,4,0,0,1-1.59,1.74,4.94,4.94,0,0,1-4.79,0Zm4.59-1.61a4.3,4.3,0,0,0,.77-2.76,4.17,4.17,0,0,0-.79-2.73,3,3,0,0,0-4.37,0,4.17,4.17,0,0,0-.79,2.73,4.24,4.24,0,0,0,.78,2.76,3,3,0,0,0,4.4,0Z" transform="translate(0 0.07)" style="fill:#c9c9c9"/><path d="M598.83,199.74a2,2,0,0,0-.43,1.48v1.28h2.35v1.23H598.4v8.39h-1.55v-8.39H595V202.5h1.87V201a3.11,3.11,0,0,1,.76-2.28,2.78,2.78,0,0,1,2.11-.78,5.09,5.09,0,0,1,1.3.17v1.32a3.72,3.72,0,0,0-1-.15A1.62,1.62,0,0,0,598.83,199.74Z" transform="translate(0 0.07)" style="fill:#c9c9c9"/><path d="M616.24,202.5v9.62h-1.53v-1.74a3.06,3.06,0,0,1-1.27,1.39,4,4,0,0,1-2,.49,4.13,4.13,0,0,1-2.25-.62,4,4,0,0,1-1.49-1.73,6,6,0,0,1-.52-2.61,6.24,6.24,0,0,1,.53-2.63,4.25,4.25,0,0,1,1.5-1.76,4,4,0,0,1,2.23-.63,3.82,3.82,0,0,1,2,.49,3.22,3.22,0,0,1,1.28,1.4V202.5ZM614,210a5.32,5.32,0,0,0,0-5.48,2.62,2.62,0,0,0-2.18-.95,2.66,2.66,0,0,0-2.21,1,4.26,4.26,0,0,0-.8,2.74,4.2,4.2,0,0,0,.79,2.72,2.7,2.7,0,0,0,2.22,1A2.64,2.64,0,0,0,614,210Z" transform="translate(0 0.07)" style="fill:#c9c9c9"/><path d="M621.31,203.73V209a2,2,0,0,0,.44,1.5,1.73,1.73,0,0,0,1.24.43,3.22,3.22,0,0,0,1-.17v1.32a4.56,4.56,0,0,1-1.34.19,2.91,2.91,0,0,1-2.15-.78,3.11,3.11,0,0,1-.77-2.28v-5.47h-1.87V202.5h1.87V200l1.55-.56v3h2.75v1.23Z" transform="translate(0 0.07)" style="fill:#c9c9c9"/><path d="M628.06,203.73V209a2,2,0,0,0,.44,1.5,1.73,1.73,0,0,0,1.24.43,3.22,3.22,0,0,0,1-.17v1.32a4.56,4.56,0,0,1-1.34.19,2.91,2.91,0,0,1-2.15-.78,3.11,3.11,0,0,1-.77-2.28v-5.47h-1.87V202.5h1.87V200l1.55-.56v3h2.75v1.23Z" transform="translate(0 0.07)" style="fill:#c9c9c9"/><path d="M641.16,202.5v9.62h-1.53v-1.74a3.08,3.08,0,0,1-1.28,1.39,3.92,3.92,0,0,1-2,.49,4.08,4.08,0,0,1-2.25-.62,3.9,3.9,0,0,1-1.49-1.73,6.68,6.68,0,0,1,0-5.24,4.11,4.11,0,0,1,1.5-1.76,4,4,0,0,1,2.23-.63,3.84,3.84,0,0,1,2,.49,3.28,3.28,0,0,1,1.28,1.4V202.5Zm-2.3,7.51a5.26,5.26,0,0,0,0-5.48,2.62,2.62,0,0,0-2.18-.95,2.67,2.67,0,0,0-2.21,1,4.26,4.26,0,0,0-.79,2.74,4.2,4.2,0,0,0,.78,2.72,2.72,2.72,0,0,0,2.22,1A2.64,2.64,0,0,0,638.86,210Z" transform="translate(0 0.07)" style="fill:#c9c9c9"/><path d="M645.75,211.64a4,4,0,0,1-1.6-1.73,5.64,5.64,0,0,1-.57-2.61,5.82,5.82,0,0,1,.58-2.63,4.26,4.26,0,0,1,1.63-1.76,4.79,4.79,0,0,1,2.48-.63,5.43,5.43,0,0,1,1.88.33,3.91,3.91,0,0,1,1.5.93l-.51,1.14a5.94,5.94,0,0,0-1.41-.84,3.67,3.67,0,0,0-1.38-.26,2.87,2.87,0,0,0-2.32,1,4.1,4.1,0,0,0-.84,2.74A4,4,0,0,0,646,210a2.93,2.93,0,0,0,2.33,1,3.69,3.69,0,0,0,1.38-.27,5.94,5.94,0,0,0,1.41-.84l.51,1.14a4.17,4.17,0,0,1-1.54.91,5.67,5.67,0,0,1-1.92.34A4.73,4.73,0,0,1,645.75,211.64Z" transform="translate(0 0.07)" style="fill:#c9c9c9"/><path d="M660.1,212.12l-4.93-4.62v4.62h-1.55V198.05h1.55v8.87l4.53-4.4h2l-4.82,4.61,5.28,5Z" transform="translate(0 0.07)" style="fill:#c9c9c9"/><path d="M662.71,211l.51-1.14a5.48,5.48,0,0,0,1.59.88,5.88,5.88,0,0,0,1.8.26,3,3,0,0,0,1.65-.37,1.21,1.21,0,0,0,.56-1.08,1.16,1.16,0,0,0-.38-.92,2.66,2.66,0,0,0-1.26-.53l-1.63-.39a3.51,3.51,0,0,1-1.86-.95,2.3,2.3,0,0,1-.66-1.65,2.5,2.5,0,0,1,1-2.05,4.23,4.23,0,0,1,2.68-.79,5.47,5.47,0,0,1,1.91.32,4,4,0,0,1,1.51.94l-.51,1.13a4.45,4.45,0,0,0-2.91-1.13,2.8,2.8,0,0,0-1.6.39,1.39,1.39,0,0,0-.21,2,2.63,2.63,0,0,0,1.14.53l1.63.4a4.16,4.16,0,0,1,2,.95,2.25,2.25,0,0,1,.65,1.67,2.35,2.35,0,0,1-1,2,4.51,4.51,0,0,1-2.75.75A5.6,5.6,0,0,1,662.71,211Z" transform="translate(0 0.07)" style="fill:#c9c9c9"/><path d="M547.58,230.21h-7.06a4.11,4.11,0,0,0,.85,2.77,3.06,3.06,0,0,0,2.42.94,4.84,4.84,0,0,0,3.1-1.13l.51,1.13a4.45,4.45,0,0,1-1.61.94,6.08,6.08,0,0,1-2,.34,4.69,4.69,0,0,1-3.54-1.33,5,5,0,0,1-1.28-3.64,5.63,5.63,0,0,1,.58-2.61,4.23,4.23,0,0,1,1.6-1.77,4.42,4.42,0,0,1,2.35-.63,3.8,3.8,0,0,1,3,1.25,5.13,5.13,0,0,1,1.09,3.45Zm-6-3.06a3.55,3.55,0,0,0-1,2h5.6a3.32,3.32,0,0,0-.79-2.07,2.51,2.51,0,0,0-1.89-.7A2.74,2.74,0,0,0,541.54,227.15Z" transform="translate(0 0.07)" style="fill:#c9c9c9"/><path d="M558.3,235.07h-1.85l-3-3.79-3,3.79h-1.9l4-4.95-3.77-4.67h1.88l2.79,3.54,2.79-3.54h1.89l-3.74,4.67Z" transform="translate(0 0.07)" style="fill:#c9c9c9"/><path d="M562.09,225.45H568v9.62h-1.55v-8.4h-4.36v8.4h-1.55v-8.4h-1.87v-1.22h1.87v-1.28a4.27,4.27,0,0,1,.35-1.87,2.16,2.16,0,0,1,1.16-1,6.12,6.12,0,0,1,2.18-.32h.61v1.2h-.48a4.7,4.7,0,0,0-1.46.17,1.07,1.07,0,0,0-.64.66,5.07,5.07,0,0,0-.17,1.51Zm6.1-4.17v1.8h-1.93v-1.8Z" transform="translate(0 0.07)" style="fill:#c9c9c9"/><path d="M571,221h1.55v14.08H571Z" transform="translate(0 0.07)" style="fill:#c9c9c9"/><path d="M577.6,226.67v5.26a2,2,0,0,0,.44,1.5,1.67,1.67,0,0,0,1.24.43,3,3,0,0,0,1-.17V235a4.25,4.25,0,0,1-1.34.19,3,3,0,0,1-2.15-.77,3.14,3.14,0,0,1-.77-2.29v-5.47h-1.88v-1.22h1.88V223l1.55-.55v3h2.75v1.22Z" transform="translate(0 0.07)" style="fill:#c9c9c9"/><path d="M587.58,225.34l0,1.41a3.11,3.11,0,0,0-1-.15,2.48,2.48,0,0,0-2.08.87,3.34,3.34,0,0,0-.68,2.11v5.49h-1.55v-6.92a21.93,21.93,0,0,0-.15-2.7h1.47l.16,1.78a2.91,2.91,0,0,1,1.16-1.49,3.3,3.3,0,0,1,1.84-.52A3.07,3.07,0,0,1,587.58,225.34Z" transform="translate(0 0.07)" style="fill:#c9c9c9"/><path d="M597.43,225.45v9.62H595.9v-1.74a3.08,3.08,0,0,1-1.28,1.39,3.92,3.92,0,0,1-2,.48,4.07,4.07,0,0,1-2.24-.61,4,4,0,0,1-1.49-1.73,6.68,6.68,0,0,1,0-5.24,4.08,4.08,0,0,1,1.5-1.77,4,4,0,0,1,2.22-.63,3.79,3.79,0,0,1,2,.5,3.21,3.21,0,0,1,1.29,1.39v-1.66Zm-2.3,7.51a4.35,4.35,0,0,0,.77-2.75,4.27,4.27,0,0,0-.77-2.73,2.63,2.63,0,0,0-2.18-1,2.68,2.68,0,0,0-2.21,1,5.14,5.14,0,0,0,0,5.46,2.75,2.75,0,0,0,2.22.95A2.63,2.63,0,0,0,595.13,233Z" transform="translate(0 0.07)" style="fill:#c9c9c9"/><path d="M602.49,226.67v5.26a2.05,2.05,0,0,0,.44,1.5,1.7,1.7,0,0,0,1.25.43,3,3,0,0,0,1-.17V235a4.3,4.3,0,0,1-1.34.19,2.91,2.91,0,0,1-2.15-.77,3.1,3.1,0,0,1-.78-2.29v-5.47h-1.87v-1.22h1.87V223l1.55-.55v3h2.76v1.22Z" transform="translate(0 0.07)" style="fill:#c9c9c9"/><path d="M615.17,230.21h-7.06A4.11,4.11,0,0,0,609,233a3,3,0,0,0,2.41.94,4.8,4.8,0,0,0,3.1-1.13l.52,1.13a4.41,4.41,0,0,1-1.62.94,6.08,6.08,0,0,1-2,.34,4.65,4.65,0,0,1-3.53-1.33,5,5,0,0,1-1.28-3.64,5.76,5.76,0,0,1,.57-2.61,4.25,4.25,0,0,1,1.61-1.77,4.4,4.4,0,0,1,2.35-.63,3.79,3.79,0,0,1,3,1.25,5.08,5.08,0,0,1,1.09,3.45Zm-6-3.06a3.5,3.5,0,0,0-1,2h5.6a3.27,3.27,0,0,0-.79-2.07,2.48,2.48,0,0,0-1.88-.7A2.71,2.71,0,0,0,609.14,227.15Z" transform="translate(0 0.07)" style="fill:#c9c9c9"/><path d="M631,221v14.08h-1.53v-1.74a3.06,3.06,0,0,1-1.27,1.39,4.29,4.29,0,0,1-4.21-.15,4.22,4.22,0,0,1-1.5-1.77,6.2,6.2,0,0,1-.53-2.63,6.11,6.11,0,0,1,.52-2.61,4,4,0,0,1,3.74-2.34,3.82,3.82,0,0,1,2,.49,3,3,0,0,1,1.26,1.37V221Zm-2.29,12a4.35,4.35,0,0,0,.76-2.75,4.27,4.27,0,0,0-.76-2.72,2.61,2.61,0,0,0-2.18-1,2.7,2.7,0,0,0-2.21,1,4.07,4.07,0,0,0-.79,2.69,4.31,4.31,0,0,0,.79,2.77,2.69,2.69,0,0,0,2.21,1A2.63,2.63,0,0,0,628.69,233Z" transform="translate(0 0.07)" style="fill:#c9c9c9"/><path d="M642.46,225.45v9.62h-1.53v-1.74a3.08,3.08,0,0,1-1.28,1.39,3.91,3.91,0,0,1-2,.48,4.08,4.08,0,0,1-2.25-.61,4,4,0,0,1-1.49-1.73,6.68,6.68,0,0,1,0-5.24,4.08,4.08,0,0,1,1.5-1.77,4,4,0,0,1,2.23-.63,3.78,3.78,0,0,1,2,.5,3.21,3.21,0,0,1,1.29,1.39v-1.66Zm-2.3,7.51a4.35,4.35,0,0,0,.77-2.75,4.27,4.27,0,0,0-.77-2.73,2.63,2.63,0,0,0-2.18-1,2.68,2.68,0,0,0-2.21,1,5.14,5.14,0,0,0,0,5.46,2.75,2.75,0,0,0,2.22.95A2.63,2.63,0,0,0,640.16,233Z" transform="translate(0 0.07)" style="fill:#c9c9c9"/><path d="M647.52,226.67v5.26a2.05,2.05,0,0,0,.44,1.5,1.71,1.71,0,0,0,1.25.43,3,3,0,0,0,1-.17V235a4.3,4.3,0,0,1-1.34.19,2.93,2.93,0,0,1-2.15-.77,3.1,3.1,0,0,1-.78-2.29v-5.47H644.1v-1.22H646V223l1.55-.55v3h2.76v1.22Z" transform="translate(0 0.07)" style="fill:#c9c9c9"/><path d="M660.62,225.45v9.62h-1.53v-1.74a3.06,3.06,0,0,1-1.27,1.39,4,4,0,0,1-2,.48,4.07,4.07,0,0,1-2.24-.61,4,4,0,0,1-1.5-1.73,6.11,6.11,0,0,1-.52-2.61,6.24,6.24,0,0,1,.53-2.63,4.22,4.22,0,0,1,1.5-1.77,4,4,0,0,1,2.23-.63,3.82,3.82,0,0,1,2,.5,3.19,3.19,0,0,1,1.28,1.39v-1.66ZM658.33,233a4.35,4.35,0,0,0,.76-2.75,4.27,4.27,0,0,0-.76-2.73,2.63,2.63,0,0,0-2.18-1,2.67,2.67,0,0,0-2.21,1,5.08,5.08,0,0,0,0,5.46,2.72,2.72,0,0,0,2.22.95A2.63,2.63,0,0,0,658.33,233Z" transform="translate(0 0.07)" style="fill:#c9c9c9"/><path d="M547.59,302.26h-7.12l-1.51,3.5h-1.62l6-13.62h1.38l6,13.62h-1.61ZM547,301l-3-7-3,7Z" transform="translate(0 0.07)" style="fill:#c9c9c9"/><path d="M560.53,296.16l-4.15,9.6h-1.47l-4.09-9.6h1.62l3.26,7.91,3.28-7.91Z" transform="translate(0 0.07)" style="fill:#c9c9c9"/><path d="M570.17,300.9h-7.06a4.13,4.13,0,0,0,.86,2.77,3,3,0,0,0,2.41.94,4.86,4.86,0,0,0,3.1-1.13l.52,1.13a4.55,4.55,0,0,1-1.62.94,6.08,6.08,0,0,1-2,.34,4.65,4.65,0,0,1-3.53-1.33,5,5,0,0,1-1.28-3.64,5.76,5.76,0,0,1,.57-2.61,4.25,4.25,0,0,1,1.61-1.77,4.4,4.4,0,0,1,2.35-.63,3.79,3.79,0,0,1,3,1.25,5.08,5.08,0,0,1,1.09,3.45Zm-6-3.06a3.47,3.47,0,0,0-1,2.05h5.6a3.27,3.27,0,0,0-.79-2.07,2.49,2.49,0,0,0-1.88-.71A2.71,2.71,0,0,0,564.14,297.84Z" transform="translate(0 0.07)" style="fill:#c9c9c9"/><path d="M577.88,296l0,1.42a3.16,3.16,0,0,0-1-.16,2.46,2.46,0,0,0-2.07.87,3.38,3.38,0,0,0-.68,2.12v5.49h-1.55v-6.93a21.87,21.87,0,0,0-.15-2.69h1.47l.15,1.78a3.05,3.05,0,0,1,1.17-1.5,3.37,3.37,0,0,1,1.84-.51A3.53,3.53,0,0,1,577.88,296Z" transform="translate(0 0.07)" style="fill:#c9c9c9"/><path d="M587.72,296.14v9.62h-1.53V304a3,3,0,0,1-1.27,1.38,3.83,3.83,0,0,1-2,.49,4.07,4.07,0,0,1-2.24-.61,4,4,0,0,1-1.49-1.73,6,6,0,0,1-.53-2.61,6.06,6.06,0,0,1,.54-2.63,4.08,4.08,0,0,1,1.5-1.77,4,4,0,0,1,2.22-.63,3.79,3.79,0,0,1,2,.49,3.27,3.27,0,0,1,1.28,1.4v-1.66Zm-2.29,7.5a5.32,5.32,0,0,0,0-5.48,2.65,2.65,0,0,0-2.18-1,2.7,2.7,0,0,0-2.21,1,4.27,4.27,0,0,0-.79,2.75,4.17,4.17,0,0,0,.78,2.71,2.7,2.7,0,0,0,2.22,1A2.61,2.61,0,0,0,585.43,303.64Z" transform="translate(0 0.07)" style="fill:#c9c9c9"/><path d="M599.29,296.14v9.54A3.87,3.87,0,0,1,595,310a7,7,0,0,1-3.78-1l.26-1.27a7.81,7.81,0,0,0,1.73.75,6.74,6.74,0,0,0,1.79.23,2.78,2.78,0,0,0,2.1-.74,3,3,0,0,0,.71-2.19v-2.27a3.23,3.23,0,0,1-1.29,1.42,3.86,3.86,0,0,1-2,.51,4.28,4.28,0,0,1-2.24-.59,3.9,3.9,0,0,1-1.52-1.69,6.08,6.08,0,0,1,0-5,3.93,3.93,0,0,1,1.52-1.68,4.28,4.28,0,0,1,2.24-.59,3.88,3.88,0,0,1,2,.49,3.23,3.23,0,0,1,1.29,1.4v-1.66Zm-2.34,7.1a4.51,4.51,0,0,0,0-5.1,2.73,2.73,0,0,0-2.19-.93,2.81,2.81,0,0,0-2.23.93,4.42,4.42,0,0,0,0,5.1,2.81,2.81,0,0,0,2.23.93A2.73,2.73,0,0,0,597,303.24Z" transform="translate(0 0.07)" style="fill:#c9c9c9"/><path d="M610.33,300.9h-7.06a4.13,4.13,0,0,0,.85,2.77,3.06,3.06,0,0,0,2.42.94,4.9,4.9,0,0,0,3.1-1.13l.51,1.13a4.6,4.6,0,0,1-1.61.94,6.08,6.08,0,0,1-2,.34,4.69,4.69,0,0,1-3.54-1.33,5,5,0,0,1-1.28-3.64,5.76,5.76,0,0,1,.57-2.61,4.32,4.32,0,0,1,1.61-1.77,4.42,4.42,0,0,1,2.35-.63,3.8,3.8,0,0,1,3,1.25,5.13,5.13,0,0,1,1.09,3.45Zm-6-3.06a3.52,3.52,0,0,0-1,2.05h5.6a3.32,3.32,0,0,0-.79-2.07,2.53,2.53,0,0,0-1.89-.71A2.75,2.75,0,0,0,604.29,297.84Z" transform="translate(0 0.07)" style="fill:#c9c9c9"/><path d="M624.7,296.54a4.19,4.19,0,0,1,1.52,1.77,6.2,6.2,0,0,1,.53,2.63,6.11,6.11,0,0,1-.53,2.61,4.12,4.12,0,0,1-1.51,1.73,4.07,4.07,0,0,1-2.24.61,3.82,3.82,0,0,1-2-.5,3.19,3.19,0,0,1-1.28-1.41v5.91h-1.55V298.83a20,20,0,0,0-.16-2.69H619l.15,1.85a3.21,3.21,0,0,1,1.27-1.54,3.84,3.84,0,0,1,2.06-.54A4,4,0,0,1,624.7,296.54Zm-.33,7.11a4.17,4.17,0,0,0,.77-2.71,4.33,4.33,0,0,0-.78-2.75,3,3,0,0,0-4.38,0,5.32,5.32,0,0,0,0,5.48,2.62,2.62,0,0,0,2.2,1A2.66,2.66,0,0,0,624.37,303.65Z" transform="translate(0 0.07)" style="fill:#c9c9c9"/><path d="M637.61,296.14v9.62h-1.53V304a3,3,0,0,1-1.27,1.38,3.88,3.88,0,0,1-2,.49,4.12,4.12,0,0,1-2.25-.61,4.07,4.07,0,0,1-1.49-1.73,6.11,6.11,0,0,1-.52-2.61,6.2,6.2,0,0,1,.53-2.63,4.22,4.22,0,0,1,1.5-1.77,4,4,0,0,1,2.23-.63,3.82,3.82,0,0,1,2,.49,3.27,3.27,0,0,1,1.28,1.4v-1.66Zm-2.29,7.5a5.32,5.32,0,0,0,0-5.48,2.65,2.65,0,0,0-2.18-1,2.69,2.69,0,0,0-2.21,1,4.27,4.27,0,0,0-.8,2.75,4.17,4.17,0,0,0,.79,2.71,2.7,2.7,0,0,0,2.22,1A2.61,2.61,0,0,0,635.32,303.64Z" transform="translate(0 0.07)" style="fill:#c9c9c9"/><path d="M649.06,296.14l-4.49,10.5a5.52,5.52,0,0,1-1.78,2.4,6.57,6.57,0,0,1-2.64,1.06l-.32-1.21a5.52,5.52,0,0,0,2-.81,3.63,3.63,0,0,0,1.16-1.56l.38-.86-4.07-9.52H641l3.25,7.93,3.29-7.93Z" transform="translate(0 0.07)" style="fill:#c9c9c9"/><path d="M652.24,305.28a4.15,4.15,0,0,1-1.6-1.74,6.5,6.5,0,0,1,0-5.28,4.15,4.15,0,0,1,1.6-1.74,5,5,0,0,1,4.78,0,4.15,4.15,0,0,1,1.6,1.74,6.5,6.5,0,0,1,0,5.28,4.15,4.15,0,0,1-1.6,1.74,5,5,0,0,1-4.78,0Zm4.59-1.62a5.28,5.28,0,0,0,0-5.49,2.66,2.66,0,0,0-2.18-1,2.68,2.68,0,0,0-2.2,1,5.25,5.25,0,0,0,0,5.49,2.7,2.7,0,0,0,2.21.95A2.67,2.67,0,0,0,656.83,303.66Z" transform="translate(0 0.07)" style="fill:#c9c9c9"/><path d="M669.64,296.14v9.62h-1.51v-1.67a3.19,3.19,0,0,1-1.28,1.34,3.72,3.72,0,0,1-1.86.46,3.34,3.34,0,0,1-2.58-1,4.06,4.06,0,0,1-.88-2.83v-6h1.55v5.93a2.85,2.85,0,0,0,.54,1.91,2,2,0,0,0,1.62.61,2.73,2.73,0,0,0,2.07-.83,3.09,3.09,0,0,0,.78-2.19v-5.43Z" transform="translate(0 0.07)" style="fill:#c9c9c9"/><path d="M674.69,297.36v5.26a2,2,0,0,0,.44,1.5,1.69,1.69,0,0,0,1.24.43,3.22,3.22,0,0,0,1-.17v1.32a4.25,4.25,0,0,1-1.34.19,2.91,2.91,0,0,1-2.15-.78,3.1,3.1,0,0,1-.77-2.28v-5.47h-1.88v-1.22h1.88v-2.47l1.55-.55v3h2.75v1.22Z" transform="translate(0 0.07)" style="fill:#c9c9c9"/><path d="M540,327.47a5.62,5.62,0,0,1-1.37-4.1v-8.28h1.55v8.41a4.15,4.15,0,0,0,1,3,3.8,3.8,0,0,0,2.88,1,3.74,3.74,0,0,0,2.86-1,4.15,4.15,0,0,0,1-3v-8.41h1.57v8.28a5.59,5.59,0,0,1-1.38,4.09,6.52,6.52,0,0,1-8.06,0Z" transform="translate(0 0.07)" style="fill:#c9c9c9"/><path d="M551.89,327.13l.59-1.2a6.58,6.58,0,0,0,2.07,1.22,7.26,7.26,0,0,0,2.45.37,4.34,4.34,0,0,0,2.53-.64,2.11,2.11,0,0,0,.89-1.81A1.55,1.55,0,0,0,560,324a3.07,3.07,0,0,0-1.13-.68c-.47-.16-1.09-.34-1.86-.52a16,16,0,0,1-2.59-.74,4,4,0,0,1-1.64-1.16,3,3,0,0,1-.63-2,3.51,3.51,0,0,1,.61-2.05,4,4,0,0,1,1.73-1.39,6.43,6.43,0,0,1,2.61-.5,7.86,7.86,0,0,1,2.64.44,5.66,5.66,0,0,1,2.07,1.28l-.62,1.21a6.69,6.69,0,0,0-1.94-1.21,6,6,0,0,0-2.15-.38,4.07,4.07,0,0,0-2.49.68,2.23,2.23,0,0,0-.89,1.87,1.72,1.72,0,0,0,.78,1.54,7.52,7.52,0,0,0,2.41.9,27.68,27.68,0,0,1,2.76.78,4.08,4.08,0,0,1,1.68,1.07A2.7,2.7,0,0,1,562,325a3.41,3.41,0,0,1-.62,2,4,4,0,0,1-1.75,1.35,6.76,6.76,0,0,1-2.66.48A7.27,7.27,0,0,1,551.89,327.13Z" transform="translate(0 0.07)" style="fill:#c9c9c9"/><path d="M577.36,327.57a4.9,4.9,0,0,1-2.89,1.25v2.1h-1.34v-2.08a8.14,8.14,0,0,1-2.43-.52,6.06,6.06,0,0,1-2-1.22l.59-1.21a7.08,7.08,0,0,0,1.84,1.17,6.27,6.27,0,0,0,2,.44v-4.86a14.15,14.15,0,0,1-2.18-.73,3.66,3.66,0,0,1-1.44-1.12,3,3,0,0,1-.59-1.94,3.5,3.5,0,0,1,.53-1.89,4,4,0,0,1,1.46-1.37,5.51,5.51,0,0,1,2.16-.64v-2.08h1.34V315a6.69,6.69,0,0,1,2.12.54,5.69,5.69,0,0,1,1.71,1.14l-.6,1.21a5.51,5.51,0,0,0-3.28-1.55v5.14a14,14,0,0,1,2.09.67,3.63,3.63,0,0,1,1.38,1.07,2.82,2.82,0,0,1,.56,1.82A3.36,3.36,0,0,1,577.36,327.57Zm-6.1-7.28a5.72,5.72,0,0,0,1.93.86v-4.84a3.12,3.12,0,0,0-1.91.78,2.26,2.26,0,0,0-.69,1.71A1.77,1.77,0,0,0,571.26,320.29Zm5,6.39a2.14,2.14,0,0,0,.64-1.63,1.54,1.54,0,0,0-.63-1.31,5.4,5.4,0,0,0-1.81-.79v4.51A3.06,3.06,0,0,0,576.22,326.68Z" transform="translate(0 0.07)" style="fill:#c9c9c9"/><path d="M589.69,327.38v1.32h-8.76v-1.18l4.77-5.28a9.66,9.66,0,0,0,1.39-1.93,3.7,3.7,0,0,0,.44-1.72,2.24,2.24,0,0,0-.65-1.73,2.58,2.58,0,0,0-1.85-.61,6.14,6.14,0,0,0-3.87,1.57l-.59-1.2a6,6,0,0,1,2-1.23,7.1,7.1,0,0,1,2.47-.46,4.34,4.34,0,0,1,3,1,3.29,3.29,0,0,1,1.09,2.61,5.09,5.09,0,0,1-.53,2.25,10.73,10.73,0,0,1-1.75,2.42l-3.88,4.2Z" transform="translate(0 0.07)" style="fill:#c9c9c9"/><path d="M599.38,320.7a3.74,3.74,0,0,1,1.48,1.52,4.8,4.8,0,0,1,.52,2.26,4.48,4.48,0,0,1-.57,2.27,3.83,3.83,0,0,1-1.6,1.54,5.26,5.26,0,0,1-2.44.55,6.94,6.94,0,0,1-2.45-.45,5.83,5.83,0,0,1-2-1.24l.6-1.2a6.06,6.06,0,0,0,3.88,1.57,3,3,0,0,0,2.24-.82,2.94,2.94,0,0,0,.82-2.21,3,3,0,0,0-.81-2.18,2.82,2.82,0,0,0-2.14-.84,3.68,3.68,0,0,0-3.12,1.59h-1.08v-8h8.16v1.3h-6.6v4.85a4,4,0,0,1,2.89-1.09A4.57,4.57,0,0,1,599.38,320.7Z" transform="translate(0 0.07)" style="fill:#c9c9c9"/><path d="M612.17,323a3.48,3.48,0,0,1-.58,4.87,6.78,6.78,0,0,1-7.12,0,3.46,3.46,0,0,1-.56-4.88A3.89,3.89,0,0,1,606,321.7a3.6,3.6,0,0,1-1.87-1.19,3.12,3.12,0,0,1-.65-2,3.21,3.21,0,0,1,.57-1.9,3.71,3.71,0,0,1,1.62-1.27,6.52,6.52,0,0,1,4.76,0,3.77,3.77,0,0,1,1.62,1.27,3.21,3.21,0,0,1,.57,1.9,3.07,3.07,0,0,1-.66,2,3.63,3.63,0,0,1-1.84,1.19A4,4,0,0,1,612.17,323Zm-1.67,3.93a2.26,2.26,0,0,0,.86-1.9,2.15,2.15,0,0,0-.91-1.8,3.91,3.91,0,0,0-4.84,0,2.15,2.15,0,0,0-.91,1.8,2.26,2.26,0,0,0,.86,1.9,5,5,0,0,0,4.94,0Zm-4.66-6.46a3.3,3.3,0,0,0,4.38,0,2.37,2.37,0,0,0,0-3.55,4.08,4.08,0,0,0-4.42,0,2.37,2.37,0,0,0,0,3.55Z" transform="translate(0 0.07)" style="fill:#c9c9c9"/><path d="M617,326.73v1.4a3.66,3.66,0,0,1-1.17,2.77l-.72-.55a3.33,3.33,0,0,0,.84-1.65H615v-2Z" transform="translate(0 0.07)" style="fill:#c9c9c9"/><path d="M628.22,327.38v1.32h-7.59v-1.32h3V317l-2.79,1.78v-1.51l3.48-2.22h.9v12.29Z" transform="translate(0 0.07)" style="fill:#c9c9c9"/><path d="M640.5,325.74h-2.07v3h-1.57v-3h-6.27v-1.19l6.56-9.46h1.28v9.35h2.07Zm-3.64-1.3v-6.7l-4.64,6.7Z" transform="translate(0 0.07)" style="fill:#c9c9c9"/><path d="M650.58,322.89a3.44,3.44,0,0,1,.63,2.12,3.48,3.48,0,0,1-1.21,2.8,4.89,4.89,0,0,1-3.27,1,7.44,7.44,0,0,1-2.53-.44,5.84,5.84,0,0,1-2.06-1.25l.61-1.2a6.17,6.17,0,0,0,3.94,1.57,3.31,3.31,0,0,0,2.21-.65,2.38,2.38,0,0,0,.76-1.92c0-1.67-1-2.5-3.14-2.5H645v-1.32h1.27a3.52,3.52,0,0,0,2.31-.67,2.36,2.36,0,0,0,.8-1.91,2.16,2.16,0,0,0-.66-1.7,2.67,2.67,0,0,0-1.86-.6,6.1,6.1,0,0,0-3.86,1.57l-.6-1.2a5.79,5.79,0,0,1,2-1.24,7,7,0,0,1,2.5-.45,4.39,4.39,0,0,1,2.93.94,3.17,3.17,0,0,1,1.1,2.53,3.66,3.66,0,0,1-.57,2,3.16,3.16,0,0,1-1.59,1.26A3.43,3.43,0,0,1,650.58,322.89Z" transform="translate(0 0.07)" style="fill:#c9c9c9"/><path d="M660.58,328.7l-4.94-4.63v4.63h-1.55V314.63h1.55v8.87l4.53-4.4h2l-4.82,4.61,5.28,5Z" transform="translate(0 0.07)" style="fill:#c9c9c9"/><rect x="481.29" y="300.45" width="9.8" height="27.7" style="fill:#3960ad"/><path d="M468,294.26h0a11.66,11.66,0,0,1,11.66,11.66v21.87a0,0,0,0,1,0,0H468a0,0,0,0,1,0,0V294.26A0,0,0,0,1,468,294.26Z" style="fill:#3960ad"/><rect x="497.63" y="306.89" width="8.38" height="21.7" style="fill:#3960ad"/><rect x="508.45" y="313.02" width="9.57" height="14.77" style="fill:#3960ad"/><path d="M527,330.72H464.46a.44.44,0,0,1-.44-.44V287.81a.44.44,0,0,1,.44-.44.44.44,0,0,1,.44.44v42H527a.44.44,0,0,1,.44.44A.44.44,0,0,1,527,330.72Z" transform="translate(0 0.07)" style="fill:#404c88"/><path d="M527,330.72a.44.44,0,0,1-.31-.13l-2.42-2.41a.44.44,0,0,1,0-.62.43.43,0,0,1,.63,0l2.41,2.41a.44.44,0,0,1,0,.62A.48.48,0,0,1,527,330.72Z" transform="translate(0 0.07)" style="fill:#404c88"/><path d="M524.63,333.13a.44.44,0,0,1-.32-.75l2.42-2.41a.44.44,0,0,1,.62.62L524.94,333A.43.43,0,0,1,524.63,333.13Z" transform="translate(0 0.07)" style="fill:#404c88"/><path d="M487,296a1.26,1.26,0,0,0,.82-.44l11.95-13.74,2.44,10a1.3,1.3,0,0,0,1.09,1,1.29,1.29,0,0,0,1.29-.68L510.92,280l10.85-3.27a1.28,1.28,0,0,0-.74-2.46l-11.37,3.43a1.29,1.29,0,0,0-.77.64l-5,9.61-2.23-9.15a1.28,1.28,0,0,0-2.21-.54l-12.2,14-2-4.85a1.29,1.29,0,0,0-1.65-.71l-9.05,3.49a1.29,1.29,0,0,0-.74,1.66,1.28,1.28,0,0,0,1.66.73l7.88-3,2.28,5.61a1.27,1.27,0,0,0,1,.78A1.47,1.47,0,0,0,487,296Z" transform="translate(0 0.07)" style="fill:#22a3f2"/><path d="M474.58,290.27l2.45-.94c.59.69,1.21,1.36,1.81,2.05l-3.34,1.28a1.28,1.28,0,0,1-1.66-.73A1.29,1.29,0,0,1,474.58,290.27Z" transform="translate(0 0.07)" style="fill:#22a3f2"/><polygon points="467.98 294.26 479.63 297.96 474.13 283.69 467.98 294.26" style="fill:#22a3f2"/><path d="M493.22,300a10.58,10.58,0,0,0,2.33-.16,4.75,4.75,0,0,0,1.11-.34,8.26,8.26,0,0,0,1-.65,1.62,1.62,0,0,1,.86-.32.87.87,0,0,1,.67.25.71.71,0,0,1,0,.88,4.32,4.32,0,0,1-.79.49,6.88,6.88,0,0,1-1.75.67A5,5,0,0,1,495,301a2.71,2.71,0,0,1-1.59-.64Z" transform="translate(0 0.07)" style="fill:#eceaf3"/><path d="M495.92,335q-4.12,0-8.23-.3c-2.83-.21-5.91-1.08-6.73-4.17a8.46,8.46,0,0,1,.26-4.62c.31-1,.76-2,1.13-3,1.2-3.22,1.63-6.88,3.92-9.45,1.06-1.19,2.46-2.06,3.42-3.35s2-2.89,3.11-4.2a3.39,3.39,0,0,1,2.77-1.46,3.07,3.07,0,0,1,1.54.76c2.26,1.87,2.65,5.09,4.28,7.46.62.91,1.32,1.76,1.85,2.73,1,1.86,1.27,4,2,6,1.26,3.27,4,7.18,2.28,10.77-1.21,2.52-4.44,2.54-6.93,2.67C499.06,335,497.49,335,495.92,335Z" transform="translate(0 0.07)" style="fill:#0b385e"/><path d="M505.27,321.46c-.76-2-1-4.14-2-6-.53-1-1.23-1.82-1.85-2.73a11.71,11.71,0,0,1-1-1.91,14.52,14.52,0,0,0,.34,1.45,11.73,11.73,0,0,0,.75,2,17.84,17.84,0,0,1,.85,1.83,8,8,0,0,1,.46,1.94c.08.7,0,1.4.05,2.11.1,1.37.61,2.68.77,4.05,0,.22,0,.44,0,.65a6.74,6.74,0,0,1,.12,2.15c-.35,2.78-2.72,4.6-5.21,5.47-3.31,1.17-6.92.57-10.27-.13-1.5-.31-3-.61-4.5-1a9.82,9.82,0,0,1-2.91-1.28l.12.55c.82,3.09,3.9,4,6.73,4.17s5.48.31,8.23.3c1.57,0,3.14,0,4.7-.13,2.49-.13,5.72-.15,6.93-2.67C509.3,328.64,506.53,324.73,505.27,321.46Z" transform="translate(0 0.07)" style="fill:#0b385e"/><path d="M499.26,299.11l-1.54.61a10,10,0,0,1-1.67.58,4.46,4.46,0,0,1-2.53-.22,3.09,3.09,0,0,0-.88-.27.7.7,0,0,0-.73.45,1,1,0,0,0,.23.73,13.28,13.28,0,0,1,1.35,4.65h3.35c.13,0,.76-.91.86-1a10.45,10.45,0,0,0,.81-1.16,7.75,7.75,0,0,0,.9-2.52,3,3,0,0,0-.07-1.84Z" transform="translate(0 0.07)" style="fill:#0b385e"/><path d="M495.45,305.75a15.86,15.86,0,0,1-2.26-.2.19.19,0,0,1-.16-.21.18.18,0,0,1,.21-.15,9.48,9.48,0,0,0,4.15-.06.19.19,0,0,1,.23.13.18.18,0,0,1-.13.22A7.49,7.49,0,0,1,495.45,305.75Z" transform="translate(0 0.07)" style="fill:#eedaae"/><path d="M496.4,306.22a7.81,7.81,0,0,1-3.06-.61.18.18,0,0,1-.1-.24.18.18,0,0,1,.24-.1,7.6,7.6,0,0,0,4.54.41.18.18,0,0,1,.22.14.18.18,0,0,1-.14.22A8,8,0,0,1,496.4,306.22Z" transform="translate(0 0.07)" style="fill:#eedaae"/><path d="M490.4,312.48h-.06a.2.2,0,0,1-.12-.24,2.81,2.81,0,0,1,.57-.86,3.92,3.92,0,0,0,.38-.47,3.65,3.65,0,0,0,.37-1.71c0-.24,0-.48,0-.73a5.66,5.66,0,0,1,1.33-3,4.53,4.53,0,0,0-3.9,2,7.83,7.83,0,0,0-.47.91c-.13.26-.26.54-.41.8a2.78,2.78,0,0,1-1.5,1.35.2.2,0,0,1-.24-.13.19.19,0,0,1,.13-.23,2.39,2.39,0,0,0,1.29-1.18c.14-.25.27-.51.39-.77a7.07,7.07,0,0,1,.5-.94,4.85,4.85,0,0,1,4.65-2.18.19.19,0,0,1,.15.12.21.21,0,0,1-.05.2,5,5,0,0,0-1.5,3c0,.23,0,.47,0,.7a3.8,3.8,0,0,1-.43,1.88,3.56,3.56,0,0,1-.41.53,2,2,0,0,0-.49.73A.19.19,0,0,1,490.4,312.48Z" transform="translate(0 0.07)" style="fill:#eedaae"/><path d="M495.18,317.69a7.25,7.25,0,0,1,2.2.23c.48.17.71.42.71.76h0q-.09.54-1.11.54a11.44,11.44,0,0,0-1.79-.17l0,3q3.84.31,3.84,2.71c-.17,1.79-1.43,2.82-3.78,3.07l0,1.63c0,.29-.26.5-.78.62h-.07a1,1,0,0,1-.93-.47q0-.28-.06-1.71a9.15,9.15,0,0,1-2.64-.32c-.68-.23-1-.5-1-.83a.61.61,0,0,1,.48-.67,1.53,1.53,0,0,1,.3,0,2.55,2.55,0,0,1,.9.19,6.22,6.22,0,0,0,2,.28c0-.91,0-2-.05-3.31-2.3-.3-3.44-1.18-3.44-2.65s1.13-2.48,3.4-2.78v-.7q0-.74.39-.87a1.14,1.14,0,0,1,.55-.13.91.91,0,0,1,.88.53l0,.13,0,.2Zm-3.47,2.86c0,.67.56,1.12,1.67,1.34,0-.84,0-1.74,0-2.71C492.26,319.39,491.71,319.84,491.71,320.55Zm5.49,4.21c0-.72-.66-1.18-2-1.37l0,3.08a2,2,0,0,0,1.93-1.64Z" transform="translate(0 0.07)" style="fill:#41bbf9"/><rect x="483.88" y="210.02" width="19.85" height="15.57" style="fill:red;opacity:0.2"/><rect x="491.69" y="215.08" width="3.49" height="6.07" style="fill:#231f20"/><rect x="458.52" y="233.85" width="69.49" height="7.75" rx="3.88" style="fill:#22a3f2"/><path d="M523,234.86a1,1,0,0,1-1-1V192.65H465v41.23a1,1,0,1,1-2,0V191.67a1,1,0,0,1,1-1h59a1,1,0,0,1,1,1v42.21A1,1,0,0,1,523,234.86Z" transform="translate(0 0.07)" style="fill:#3960ad;fill-rule:evenodd"/><path d="M524.33,243.11H462.72a5.11,5.11,0,0,1-5.1-5.11v-4.12a1,1,0,0,1,1-1h69.86a1,1,0,0,1,1,1V238a5.11,5.11,0,0,1-5.11,5.11Zm-64.75-8.25V238a3.15,3.15,0,0,0,3.14,3.14h61.61a3.15,3.15,0,0,0,3.15-3.14v-3.14Z" transform="translate(0 0.07)" style="fill:#3960ad;fill-rule:evenodd"/><path d="M499.3,239H487.76a3,3,0,0,1-3-3v-2.06a1,1,0,0,1,1-1h15.66a1,1,0,0,1,1,1v2.06a3,3,0,0,1-3,3Zm-12.62-4.12v1.08a1.08,1.08,0,0,0,1.08,1.08H499.3a1.08,1.08,0,0,0,1.08-1.08v-1.08Z" transform="translate(0 0.07)" style="fill:#3960ad;fill-rule:evenodd"/><path d="M521.35,239h-2.21a1,1,0,0,1,0-2h2.21a1,1,0,1,1,0,2Z" transform="translate(0 0.07)" style="fill:#3960ad;fill-rule:evenodd"/><path d="M516.13,239h-2.21a1,1,0,0,1,0-2h2.21a1,1,0,1,1,0,2Z" transform="translate(0 0.07)" style="fill:#3960ad;fill-rule:evenodd"/><path d="M510.91,239H508.7a1,1,0,1,1,0-2h2.21a1,1,0,0,1,0,2Z" transform="translate(0 0.07)" style="fill:#3960ad;fill-rule:evenodd"/><path d="M501.46,211.15a1,1,0,0,1-1-1v-2.24a7,7,0,0,0-13.9,0v2.24a1,1,0,1,1-2,0v-2.24a8.91,8.91,0,1,1,17.82,0v2.24A1,1,0,0,1,501.46,211.15Z" transform="translate(0 0.07)" style="fill:#3960ad;fill-rule:evenodd"/><path d="M503.74,226.53H483.32a1,1,0,0,1-1-1V211.47a2.28,2.28,0,0,1,2.28-2.28h17.82a2.28,2.28,0,0,1,2.28,2.28v14.08a1,1,0,0,1-1,1Zm-19.44-2h18.46v-13.1a.33.33,0,0,0-.32-.32H484.62a.33.33,0,0,0-.32.32Z" transform="translate(0 0.07)" style="fill:#3960ad;fill-rule:evenodd"/><path d="M494.64,222.09h-2.22a1,1,0,0,1-1-1v-1.65A3.26,3.26,0,0,1,490.3,217a3.23,3.23,0,1,1,5.32,2.46v1.65a1,1,0,0,1-1,1Zm-1.24-2h.25V219a1,1,0,0,1,.5-.85,1.26,1.26,0,1,0-1.24,0,1,1,0,0,1,.49.85v1.18Z" transform="translate(0 0.07)" style="fill:#3960ad;fill-rule:evenodd"/><path d="M503.81,220.58a1,1,0,0,1-.49-.13,1,1,0,0,1-.36-1.34l3.65-6.32-.18-.11a1.87,1.87,0,0,1-.69-2.55l1.19-2.06a1.86,1.86,0,0,1,1.14-.87,1.83,1.83,0,0,1,1.41.19l.18.1.22-.37-.18-.11a1.84,1.84,0,0,1-.87-1.13,1.86,1.86,0,0,1,.19-1.42l1.19-2.06a1.79,1.79,0,0,1,1.13-.86,1.83,1.83,0,0,1,1.41.18l.18.1.22-.37-.18-.1a1.86,1.86,0,0,1-.87-1.14,1.83,1.83,0,0,1,.19-1.41l1.19-2.06a1.87,1.87,0,0,1,2.55-.69l.18.11,2.75-4.78a1,1,0,0,1,1.7,1l-2.75,4.77.18.1a1.87,1.87,0,0,1,.68,2.55l-1.19,2.06a1.87,1.87,0,0,1-2.55.69l-.18-.11-.21.38.18.1a1.81,1.81,0,0,1,.86,1.13,1.85,1.85,0,0,1-.18,1.42l-1.19,2.06a1.87,1.87,0,0,1-2.55.68l-.18-.1-.22.37.18.11a1.87,1.87,0,0,1,.69,2.55L511,213.19a1.86,1.86,0,0,1-1.14.87,1.83,1.83,0,0,1-1.41-.19l-.18-.1-3.65,6.32a1,1,0,0,1-.85.49Zm4.64-9,.93.54,1.1-1.89-1.9-1.09L507.49,211l.94.54h0Zm2.31-6.22,1.9,1.1,1.09-1.9-1-.54h0l-.94-.55-1.1,1.89Zm4.22-5.12.95.55L517,198.9l-1.89-1.1L514,199.7l.94.54Z" transform="translate(0 0.07)" style="fill:#3960ad;fill-rule:evenodd"/><path d="M483.32,220.58a1,1,0,0,1-.85-.49l-3.65-6.32-.18.1a1.87,1.87,0,0,1-2.55-.68l-1.19-2.06a1.86,1.86,0,0,1,.68-2.55l.18-.11-.21-.37-.18.1a1.86,1.86,0,0,1-2.55-.68l-1.19-2.06a1.86,1.86,0,0,1,.68-2.55l.18-.11-.22-.37-.18.11a1.88,1.88,0,0,1-2.55-.69l-1.19-2.06a1.88,1.88,0,0,1,.69-2.55l.18-.1-2.87-5a1,1,0,0,1,.35-1.34,1,1,0,0,1,1.35.36l2.87,5,.18-.1h0a1.87,1.87,0,0,1,2.55.68l1.19,2.07a1.83,1.83,0,0,1,.18,1.41,1.85,1.85,0,0,1-.87,1.14l-.17.1.21.37.18-.1a1.86,1.86,0,0,1,2.55.68l1.19,2.06a1.9,1.9,0,0,1,.19,1.42,1.86,1.86,0,0,1-.87,1.13l-.18.11.21.37.18-.1a1.86,1.86,0,0,1,2.55.68l1.19,2.06a1.86,1.86,0,0,1-.68,2.55l-.18.1,3.65,6.33a1,1,0,0,1-.85,1.47Zm-6.67-10.35,1.09,1.89,1.89-1.09-1.09-1.89-1.89,1.09Zm-3.27-5.67,1.09,1.89.94-.54h0l.94-.55-1.09-1.89-.95.54h0l-.94.54Zm-3.28-5.67,1.1,1.9.94-.55h0l.94-.55L472,197.8l-.95.54h0Z" transform="translate(0 0.07)" style="fill:#3960ad;fill-rule:evenodd"/></g><g id="Layer_2" data-name="Layer 2"><rect x="106.02" y="100.65" width="268.7" height="15.24" style="fill:#042c49;stroke:#3960ad;stroke-miterlimit:10;stroke-width:2px;opacity:0.8"/><rect x="105.94" y="125.66" width="253.62" height="15.24" style="fill:#0b385e;stroke:#3960ad;stroke-miterlimit:10;stroke-width:2px;opacity:0.8"/><rect x="105.86" y="150.66" width="236.22" height="15.24" style="fill:#124e7c;stroke:#3960ad;stroke-miterlimit:10;stroke-width:2px;opacity:0.8"/><rect x="105.76" y="175.67" width="216.89" height="15.24" style="fill:#1568a0;stroke:#3960ad;stroke-miterlimit:10;stroke-width:2px;opacity:0.8"/><rect x="105.65" y="200.68" width="192.53" height="15.24" style="fill:#228cc6;stroke:#3960ad;stroke-miterlimit:10;stroke-width:2px;opacity:0.8"/><rect x="105.61" y="225.68" width="185.95" height="15.24" style="fill:#22a3f2;stroke:#3960ad;stroke-miterlimit:10;stroke-width:2px;opacity:0.8"/><rect x="105.49" y="250.69" width="160.05" height="15.24" style="fill:#41bbf9;stroke:#3960ad;stroke-miterlimit:10;stroke-width:2px;opacity:0.8"/><rect x="105.24" y="275.69" width="108.44" height="15.24" style="fill:#7ad2f4;stroke:#3960ad;stroke-miterlimit:10;stroke-width:2px;opacity:0.8"/><g style="opacity:0.8"><rect x="105.13" y="300.7" width="86.59" height="15.24" style="fill:#8fdff7"/><path d="M192.72,316.87H104.13V299.63h88.59Zm-86.59-2h84.59V301.63H106.13Z" transform="translate(0 0.07)" style="fill:#3960ad"/></g><g style="opacity:0.8"><rect x="105.49" y="325.71" width="159.28" height="15.24" style="fill:#41bbf9"/><path d="M265.76,341.88H104.49V324.64H265.76Zm-159.27-2H263.76V326.64H106.49Z" transform="translate(0 0.07)" style="fill:#3960ad"/></g><g style="opacity:0.8"><path d="M362.37,107.34a2.41,2.41,0,0,1,.94,1,3.1,3.1,0,0,1,0,2.9,2.63,2.63,0,0,1-1.11,1,3.8,3.8,0,0,1-1.67.35,4.81,4.81,0,0,1-1.58-.27,3.66,3.66,0,0,1-1.28-.72l.51-1.13a3.92,3.92,0,0,0,2.38.89,1.74,1.74,0,0,0,1.23-.41,1.49,1.49,0,0,0,.42-1.14,1.54,1.54,0,0,0-.43-1.14,1.65,1.65,0,0,0-1.17-.42,2.47,2.47,0,0,0-.95.18,2.26,2.26,0,0,0-.78.55h-.94v-5h5.35v1.2h-3.84v2.33A2.65,2.65,0,0,1,361,107,2.84,2.84,0,0,1,362.37,107.34Z" transform="translate(0 0.07)" style="fill:#fff"/><path d="M370.71,111.2v1.26h-5.27V111.2h1.87v-5.51l-1.74,1v-1.38l2.38-1.44h.9v7.29Z" transform="translate(0 0.07)" style="fill:#fff"/></g><g style="opacity:0.8"><path d="M349,135.84h-1.21v1.67h-1.51v-1.67h-3.72v-1.15l4-5.73h1.24v5.67H349Zm-2.72-1.21v-3.26L344,134.63Z" transform="translate(0 0.07)" style="fill:#fff"/><path d="M355.61,133.87a2,2,0,0,1,.47,1.33,2.08,2.08,0,0,1-.4,1.28,2.5,2.5,0,0,1-1.13.83,4.33,4.33,0,0,1-1.67.29,4.42,4.42,0,0,1-1.68-.29,2.47,2.47,0,0,1-1.12-.83,2.08,2.08,0,0,1-.41-1.28,2,2,0,0,1,.47-1.33,2.42,2.42,0,0,1,1.3-.76,2.43,2.43,0,0,1-1.14-.75,1.92,1.92,0,0,1-.41-1.2,2,2,0,0,1,.38-1.22,2.37,2.37,0,0,1,1.07-.8,4.23,4.23,0,0,1,3.08,0,2.34,2.34,0,0,1,1.06.8,2,2,0,0,1,.39,1.22,1.9,1.9,0,0,1-.42,1.22,2.19,2.19,0,0,1-1.13.73A2.39,2.39,0,0,1,355.61,133.87Zm-1.45,2.18a1.2,1.2,0,0,0,0-1.9,2.58,2.58,0,0,0-1.26-.47,2.66,2.66,0,0,0-1.27.47,1.13,1.13,0,0,0-.47.94,1.1,1.1,0,0,0,.46,1,2.58,2.58,0,0,0,2.56,0Zm-2.4-5.66a1.12,1.12,0,0,0-.41.92,1.13,1.13,0,0,0,.42.92,2.09,2.09,0,0,0,1.11.46,2.16,2.16,0,0,0,1.11-.46,1.16,1.16,0,0,0,.41-.92,1.09,1.09,0,0,0-.41-.92,1.71,1.71,0,0,0-1.11-.32A1.74,1.74,0,0,0,351.76,130.39Z" transform="translate(0 0.07)" style="fill:#fff"/></g><g style="opacity:0.8"><path d="M330.62,160.89H329.4v1.67h-1.51v-1.67h-3.72v-1.15l4-5.73h1.23v5.67h1.22Zm-2.73-1.21v-3.26l-2.25,3.26Z" transform="translate(0 0.07)" style="fill:#fff"/><path d="M337.49,161.3v1.26h-5.73v-1.14l2.9-3.14a5,5,0,0,0,.76-1,2,2,0,0,0,.24-.92,1.12,1.12,0,0,0-.35-.89,1.41,1.41,0,0,0-1-.3A3.89,3.89,0,0,0,332,156l-.52-1.13a3.78,3.78,0,0,1,1.3-.73,4.93,4.93,0,0,1,1.6-.27,3.06,3.06,0,0,1,2,.63,2.11,2.11,0,0,1,.75,1.7,3.11,3.11,0,0,1-.32,1.38,6.11,6.11,0,0,1-1.06,1.45l-2.1,2.24Z" transform="translate(0 0.07)" style="fill:#fff"/></g><g style="opacity:0.8"><path d="M310.39,183.75a2.23,2.23,0,0,1,.4,1.33,2.15,2.15,0,0,1-.82,1.77,3.51,3.51,0,0,1-2.22.65,5.16,5.16,0,0,1-1.66-.27,3.52,3.52,0,0,1-1.31-.73l.52-1.13a3.86,3.86,0,0,0,2.39.89,2,2,0,0,0,1.22-.32,1.2,1.2,0,0,0,.4-1,1.09,1.09,0,0,0-.41-.95,2.05,2.05,0,0,0-1.26-.31h-1.12v-1.23h.92c1.1,0,1.66-.42,1.66-1.26a1.1,1.1,0,0,0-.36-.9,1.49,1.49,0,0,0-1-.32,3.8,3.8,0,0,0-2.31.89l-.51-1.13a3.86,3.86,0,0,1,1.3-.72,4.9,4.9,0,0,1,1.61-.27,3,3,0,0,1,2,.62,2,2,0,0,1,.75,1.65,2.2,2.2,0,0,1-.36,1.23,2.1,2.1,0,0,1-1,.76A2,2,0,0,1,310.39,183.75Z" transform="translate(0 0.07)" style="fill:#fff"/><path d="M317,182.26a2.58,2.58,0,0,1,.93,1,3.2,3.2,0,0,1,0,2.89,2.67,2.67,0,0,1-1,1,2.94,2.94,0,0,1-1.49.37,3,3,0,0,1-2.49-1.1,4.86,4.86,0,0,1-.88-3.13,6.37,6.37,0,0,1,.42-2.43,3.29,3.29,0,0,1,1.2-1.56,3.19,3.19,0,0,1,1.86-.54,4.31,4.31,0,0,1,1.5.26,3.76,3.76,0,0,1,1.26.73l-.53,1.13a3.55,3.55,0,0,0-2.17-.89,1.63,1.63,0,0,0-1.46.81,4.27,4.27,0,0,0-.54,2.3,2,2,0,0,1,.84-.86,2.49,2.49,0,0,1,1.25-.31A2.66,2.66,0,0,1,317,182.26Zm-.62,3.59a1.61,1.61,0,0,0,.41-1.14,1.57,1.57,0,0,0-.41-1.13,1.37,1.37,0,0,0-1.07-.43,1.48,1.48,0,0,0-1.09.43,1.56,1.56,0,0,0-.42,1.13,1.59,1.59,0,0,0,.42,1.14,1.48,1.48,0,0,0,1.1.43A1.36,1.36,0,0,0,316.37,185.85Z" transform="translate(0 0.07)" style="fill:#fff"/></g><g style="opacity:0.8"><path d="M286.93,211.4v1.26H281.2v-1.14l2.9-3.14a5,5,0,0,0,.76-1,2,2,0,0,0,.24-.92,1.12,1.12,0,0,0-.35-.89,1.41,1.41,0,0,0-1-.3,3.89,3.89,0,0,0-2.32.89l-.52-1.13a3.61,3.61,0,0,1,1.3-.72,4.68,4.68,0,0,1,1.6-.27,3.06,3.06,0,0,1,2,.62,2.11,2.11,0,0,1,.75,1.7,3.11,3.11,0,0,1-.32,1.38,6.11,6.11,0,0,1-1.06,1.45l-2.1,2.24Z" transform="translate(0 0.07)" style="fill:#fff"/><path d="M293.38,205.1a4.9,4.9,0,0,1,.88,3.13,6.33,6.33,0,0,1-.42,2.43,3.42,3.42,0,0,1-1.2,1.56,3.17,3.17,0,0,1-1.87.54,4.44,4.44,0,0,1-1.49-.25,3.68,3.68,0,0,1-1.26-.74l.52-1.13a3.6,3.6,0,0,0,2.17.89,1.66,1.66,0,0,0,1.47-.81,4.46,4.46,0,0,0,.55-2.32,2.07,2.07,0,0,1-.84.87,2.42,2.42,0,0,1-1.26.33,2.61,2.61,0,0,1-1.35-.35,2.41,2.41,0,0,1-.93-1,2.93,2.93,0,0,1-.34-1.43,2.89,2.89,0,0,1,.37-1.47,2.54,2.54,0,0,1,1-1,3.34,3.34,0,0,1,4,.73Zm-1.32,2.83a1.73,1.73,0,0,0,0-2.26,1.47,1.47,0,0,0-1.1-.44,1.39,1.39,0,0,0-1.07.43,1.6,1.6,0,0,0-.4,1.14,1.56,1.56,0,0,0,.4,1.13,1.39,1.39,0,0,0,1.07.43A1.46,1.46,0,0,0,292.06,207.93Z" transform="translate(0 0.07)" style="fill:#fff"/></g><g style="opacity:0.8"><path d="M280.88,236.33v1.26h-5.74v-1.14l2.91-3.13a5.16,5.16,0,0,0,.75-1,2,2,0,0,0,.24-.93,1.12,1.12,0,0,0-.34-.89,1.49,1.49,0,0,0-1-.3,3.89,3.89,0,0,0-2.31.89l-.52-1.12a3.62,3.62,0,0,1,1.3-.73,4.87,4.87,0,0,1,1.59-.27,3.07,3.07,0,0,1,2,.63,2.1,2.1,0,0,1,.75,1.7,3.14,3.14,0,0,1-.32,1.38,6.63,6.63,0,0,1-1.06,1.45l-2.1,2.23Z" transform="translate(0 0.07)" style="fill:#fff"/><path d="M287.84,234a2,2,0,0,1,.47,1.34,2.1,2.1,0,0,1-.41,1.28,2.47,2.47,0,0,1-1.12.83,4.62,4.62,0,0,1-1.68.29,4.53,4.53,0,0,1-1.67-.29,2.5,2.5,0,0,1-1.13-.83,2.1,2.1,0,0,1-.4-1.28,2,2,0,0,1,.47-1.34,2.44,2.44,0,0,1,1.29-.75,2.3,2.3,0,0,1-1.13-.76,1.83,1.83,0,0,1-.42-1.2,2,2,0,0,1,.39-1.21,2.43,2.43,0,0,1,1.06-.81,4.38,4.38,0,0,1,3.08,0,2.46,2.46,0,0,1,1.07.81,2,2,0,0,1,.38,1.21,1.93,1.93,0,0,1-.41,1.22,2.28,2.28,0,0,1-1.14.74A2.47,2.47,0,0,1,287.84,234Zm-1.46,2.19a1.11,1.11,0,0,0,.46-1,1.15,1.15,0,0,0-.47-1,2.77,2.77,0,0,0-1.27-.47,2.68,2.68,0,0,0-1.26.47,1.21,1.21,0,0,0,0,1.91,2.65,2.65,0,0,0,2.56,0ZM284,230.47a1.11,1.11,0,0,0-.41.93,1.17,1.17,0,0,0,.41.92,2.25,2.25,0,0,0,1.11.46,2.17,2.17,0,0,0,1.11-.46,1.15,1.15,0,0,0,.42-.92,1.14,1.14,0,0,0-.41-.93,1.8,1.8,0,0,0-1.12-.32A1.77,1.77,0,0,0,284,230.47Z" transform="translate(0 0.07)" style="fill:#fff"/></g><g style="opacity:0.8"><path d="M254.15,261.34v1.26h-5.74v-1.14l2.91-3.14a4.89,4.89,0,0,0,.75-1,2,2,0,0,0,.24-.92,1.12,1.12,0,0,0-.34-.89,1.44,1.44,0,0,0-1-.3,3.89,3.89,0,0,0-2.31.89l-.52-1.13a3.78,3.78,0,0,1,1.3-.73,4.87,4.87,0,0,1,1.59-.27,3.07,3.07,0,0,1,2,.63,2.14,2.14,0,0,1,.75,1.7,3.11,3.11,0,0,1-.32,1.38,6.4,6.4,0,0,1-1.06,1.45l-2.1,2.24Z" transform="translate(0 0.07)" style="fill:#fff"/><path d="M261.36,261.34v1.26h-5.74v-1.14l2.91-3.14a4.89,4.89,0,0,0,.75-1,2,2,0,0,0,.24-.92,1.12,1.12,0,0,0-.34-.89,1.44,1.44,0,0,0-1-.3,3.89,3.89,0,0,0-2.31.89l-.52-1.13a3.78,3.78,0,0,1,1.3-.73,4.92,4.92,0,0,1,1.59-.27,3.07,3.07,0,0,1,2,.63,2.11,2.11,0,0,1,.75,1.7,3.11,3.11,0,0,1-.32,1.38,6.4,6.4,0,0,1-1.06,1.45l-2.1,2.24Z" transform="translate(0 0.07)" style="fill:#fff"/></g><g style="opacity:0.8"><path d="M202.73,286.64v1.26h-5.27v-1.26h1.87v-5.51l-1.74,1.05V280.8l2.38-1.44h.9v7.28Z" transform="translate(0 0.07)" style="fill:#fff"/><path d="M210.23,286.23H209v1.67h-1.51v-1.67h-3.72v-1.15l4-5.72H209V285h1.21ZM207.51,285v-3.25L205.25,285Z" transform="translate(0 0.07)" style="fill:#fff"/></g><g style="opacity:0.8"><path d="M187.16,308.88a2,2,0,0,1,.47,1.33,2.14,2.14,0,0,1-.4,1.28,2.57,2.57,0,0,1-1.13.84,4.62,4.62,0,0,1-1.68.28,4.53,4.53,0,0,1-1.67-.28,2.52,2.52,0,0,1-1.13-.84,2.08,2.08,0,0,1-.4-1.28,2,2,0,0,1,.47-1.33,2.32,2.32,0,0,1,1.29-.75,2.37,2.37,0,0,1-1.13-.76,1.82,1.82,0,0,1-.41-1.2,2,2,0,0,1,.38-1.22,2.41,2.41,0,0,1,1.06-.8,4.37,4.37,0,0,1,3.08,0,2.44,2.44,0,0,1,1.07.8,2.06,2.06,0,0,1,.38,1.22,2,2,0,0,1-.41,1.22,2.28,2.28,0,0,1-1.14.74A2.35,2.35,0,0,1,187.16,308.88Zm-1.46,2.19a1.12,1.12,0,0,0,.46-1,1.14,1.14,0,0,0-.47-.95,2.66,2.66,0,0,0-1.27-.47,2.62,2.62,0,0,0-1.26.47,1.2,1.2,0,0,0,0,1.91,2.13,2.13,0,0,0,1.27.33A2.16,2.16,0,0,0,185.7,311.07Zm-2.39-5.67a1.11,1.11,0,0,0-.41.93,1.15,1.15,0,0,0,.41.91,2.26,2.26,0,0,0,1.11.47,2.18,2.18,0,0,0,1.11-.47,1.23,1.23,0,0,0,0-1.84,2.1,2.1,0,0,0-2.23,0Z" transform="translate(0 0.07)" style="fill:#fff"/></g><g style="opacity:0.8"><path d="M254,336.34v1.26h-5.74v-1.14l2.9-3.13a4.88,4.88,0,0,0,.76-1,2,2,0,0,0,.24-.93,1.1,1.1,0,0,0-.34-.88,1.45,1.45,0,0,0-1-.3,3.92,3.92,0,0,0-2.32.88L248,330a3.54,3.54,0,0,1,1.3-.73,4.83,4.83,0,0,1,1.59-.27,3.07,3.07,0,0,1,2,.63,2.14,2.14,0,0,1,.75,1.7,3.11,3.11,0,0,1-.32,1.38,7,7,0,0,1-1.06,1.45l-2.11,2.23Z" transform="translate(0 0.07)" style="fill:#fff"/><path d="M261.23,336.34v1.26h-5.74v-1.14l2.91-3.13a5.16,5.16,0,0,0,.75-1,2,2,0,0,0,.24-.93,1.1,1.1,0,0,0-.34-.88,1.44,1.44,0,0,0-1-.3,3.87,3.87,0,0,0-2.31.88l-.52-1.12a3.62,3.62,0,0,1,1.3-.73,4.87,4.87,0,0,1,1.59-.27,3.07,3.07,0,0,1,2,.63,2.11,2.11,0,0,1,.75,1.7,3.11,3.11,0,0,1-.32,1.38,6.63,6.63,0,0,1-1.06,1.45l-2.1,2.23Z" transform="translate(0 0.07)" style="fill:#fff"/></g><path d="M32.4,104h5v.75H33.29v2.72h3.84v.76H33.29v2.85h4.06v.75h-5Z" transform="translate(0 0.07)" style="fill:#c9c9c9"/><path d="M38.86,104h2.63a3.94,3.94,0,0,1,2.91,1,3.84,3.84,0,0,1,1,2.88,3.57,3.57,0,0,1-3.94,3.93H38.86ZM41.44,111a3,3,0,0,0,2.28-.79,3.29,3.29,0,0,0,.76-2.37q0-3.13-3-3.13H39.77V111Z" transform="translate(0 0.07)" style="fill:#c9c9c9"/><path d="M47.8,111.1a3.25,3.25,0,0,1-.79-2.36V104h.9v4.84a2.35,2.35,0,0,0,.56,1.72,2.6,2.6,0,0,0,3.3,0,2.39,2.39,0,0,0,.56-1.72V104h.9v4.76a3.24,3.24,0,0,1-.79,2.35,3.09,3.09,0,0,1-2.31.81A3.13,3.13,0,0,1,47.8,111.1Z" transform="translate(0 0.07)" style="fill:#c9c9c9"/><path d="M56.52,111.41A3.22,3.22,0,0,1,55.26,110a5.4,5.4,0,0,1,0-4.27,3.37,3.37,0,0,1,1.26-1.38,3.76,3.76,0,0,1,1.93-.48,4.16,4.16,0,0,1,1.49.25,3.07,3.07,0,0,1,1.18.74l-.35.69a3.83,3.83,0,0,0-1.1-.69,3.29,3.29,0,0,0-1.2-.21,2.47,2.47,0,0,0-2,.84,3.57,3.57,0,0,0-.71,2.37,3.65,3.65,0,0,0,.7,2.4,2.48,2.48,0,0,0,2,.84,3.29,3.29,0,0,0,1.2-.21,3.67,3.67,0,0,0,1.1-.7l.35.7a3.07,3.07,0,0,1-1.18.74,4.16,4.16,0,0,1-1.49.25A3.67,3.67,0,0,1,56.52,111.41Z" transform="translate(0 0.07)" style="fill:#c9c9c9"/><path d="M67.56,109.8H63.47l-.87,2h-.93L65.11,104h.79l3.44,7.83h-.92Zm-.32-.75-1.72-4-1.73,4Z" transform="translate(0 0.07)" style="fill:#c9c9c9"/><path d="M71.49,104.75H68.76V104h6.37v.77H72.4v7.06h-.91Z" transform="translate(0 0.07)" style="fill:#c9c9c9"/><path d="M76.23,104h.9v7.83h-.9Z" transform="translate(0 0.07)" style="fill:#c9c9c9"/><path d="M80.45,111.41A3.16,3.16,0,0,1,79.22,110a4.85,4.85,0,0,1-.44-2.13,5,5,0,0,1,.43-2.13,3.27,3.27,0,0,1,1.23-1.39,4,4,0,0,1,3.81,0,3.2,3.2,0,0,1,1.23,1.39,4.83,4.83,0,0,1,.43,2.12,4.89,4.89,0,0,1-.43,2.14,3.29,3.29,0,0,1-1.24,1.39,3.64,3.64,0,0,1-1.89.49A3.56,3.56,0,0,1,80.45,111.41Zm3.83-1.13a3.69,3.69,0,0,0,.7-2.4,3.63,3.63,0,0,0-.69-2.38,2.67,2.67,0,0,0-3.89,0,4.48,4.48,0,0,0,0,4.78,2.64,2.64,0,0,0,3.88,0Z" transform="translate(0 0.07)" style="fill:#c9c9c9"/><path d="M93.84,104v7.83h-.7l-4.73-6.3v6.3h-.85V104h.69l4.73,6.3V104Z" transform="translate(0 0.07)" style="fill:#c9c9c9"/><path d="M25,132.75v3.63a4.65,4.65,0,0,1-1.21.39,7.68,7.68,0,0,1-1.52.15,4,4,0,0,1-2-.48A3.19,3.19,0,0,1,19,135.06a5.36,5.36,0,0,1,0-4.3,3.24,3.24,0,0,1,1.27-1.37,3.89,3.89,0,0,1,2-.48,4.31,4.31,0,0,1,1.51.25,3.07,3.07,0,0,1,1.18.74l-.35.69a3.91,3.91,0,0,0-1.12-.69,3.16,3.16,0,0,0-1.22-.22,2.54,2.54,0,0,0-2,.83,3.55,3.55,0,0,0-.71,2.39,3.6,3.6,0,0,0,.72,2.43,2.68,2.68,0,0,0,2.12.83,5.66,5.66,0,0,0,1.88-.31v-2.39h-2v-.71Z" transform="translate(0 0.07)" style="fill:#c9c9c9"/><path d="M28.23,136.44A3.2,3.2,0,0,1,27,135a4.83,4.83,0,0,1-.44-2.12,5,5,0,0,1,.43-2.14,3.18,3.18,0,0,1,1.23-1.38,3.57,3.57,0,0,1,1.91-.49,3.54,3.54,0,0,1,1.9.49,3.07,3.07,0,0,1,1.23,1.38,5.49,5.49,0,0,1,0,4.26A3.23,3.23,0,0,1,32,136.43a3.55,3.55,0,0,1-1.89.49A3.59,3.59,0,0,1,28.23,136.44Zm3.82-1.14a4.46,4.46,0,0,0,0-4.78,2.67,2.67,0,0,0-3.89,0,4.48,4.48,0,0,0,0,4.78,2.36,2.36,0,0,0,1.95.85A2.33,2.33,0,0,0,32.05,135.3Z" transform="translate(0 0.07)" style="fill:#c9c9c9"/><path d="M41.84,129l-3.42,7.83h-.79L34.21,129h1L38,135.69,40.91,129Z" transform="translate(0 0.07)" style="fill:#c9c9c9"/><path d="M42.82,129h5v.75H43.71v2.73h3.84v.75H43.71v2.85h4.06v.75h-5Z" transform="translate(0 0.07)" style="fill:#c9c9c9"/><path d="M55.44,136.83h-1l-1-2.61a1.1,1.1,0,0,0-.48-.64,1.83,1.83,0,0,0-.89-.17h-2v3.42h-.89V129H52.4a3,3,0,0,1,2,.56,2,2,0,0,1,.67,1.62,2,2,0,0,1-.4,1.29,2.11,2.11,0,0,1-1.16.74,1.1,1.1,0,0,1,.58.29,1.92,1.92,0,0,1,.41.68Zm-3.11-4.17q1.8,0,1.8-1.47a1.33,1.33,0,0,0-.44-1.09,2.19,2.19,0,0,0-1.36-.35H50.18v2.91Z" transform="translate(0 0.07)" style="fill:#c9c9c9"/><path d="M63.19,129v7.83h-.7l-4.73-6.3v6.3h-.85V129h.7l4.73,6.3V129Z" transform="translate(0 0.07)" style="fill:#c9c9c9"/><path d="M72.52,129v7.83h-.83V131l-2.54,5.82h-.64l-2.57-5.77,0,5.77h-.84V129h.75l3,6.75L71.77,129Z" transform="translate(0 0.07)" style="fill:#c9c9c9"/><path d="M74.46,129h5v.75H75.35v2.73h3.84v.75H75.35v2.85h4.06v.75h-5Z" transform="translate(0 0.07)" style="fill:#c9c9c9"/><path d="M87.21,129v7.83H86.5l-4.73-6.3v6.3h-.84V129h.69l4.73,6.3V129Z" transform="translate(0 0.07)" style="fill:#c9c9c9"/><path d="M91,129.77H88.3V129h6.37v.77H91.94v7.06H91Z" transform="translate(0 0.07)" style="fill:#c9c9c9"/><path d="M39.19,154v7.83h-.9v-3.6h-4.7v3.6H32.7V154h.89v3.47h4.7V154Z" transform="translate(0 0.07)" style="fill:#c9c9c9"/><path d="M41.13,154h4.95v.74H42v2.73h3.84v.76H42v2.85h4.06v.75H41.13Z" transform="translate(0 0.07)" style="fill:#c9c9c9"/><path d="M52.57,159.82H48.48l-.87,2h-.94L50.12,154h.79l3.44,7.83h-.92Zm-.32-.74-1.73-4-1.73,4Z" transform="translate(0 0.07)" style="fill:#c9c9c9"/><path d="M55.52,154h.9v7.06h3.93v.77H55.52Z" transform="translate(0 0.07)" style="fill:#c9c9c9"/><path d="M62,154.78H59.29V154h6.37v.77H62.93v7.06H62Z" transform="translate(0 0.07)" style="fill:#c9c9c9"/><path d="M67.69,161.44a3.15,3.15,0,0,1-1.26-1.39,4.78,4.78,0,0,1-.44-2.14,4.71,4.71,0,0,1,.44-2.13,3.13,3.13,0,0,1,1.26-1.38,3.73,3.73,0,0,1,1.93-.48,4.2,4.2,0,0,1,1.49.25,3.11,3.11,0,0,1,1.17.74l-.34.69a3.87,3.87,0,0,0-1.11-.69,3.29,3.29,0,0,0-1.2-.21,2.51,2.51,0,0,0-2,.83,4.36,4.36,0,0,0,0,4.77,2.46,2.46,0,0,0,2,.84,3.51,3.51,0,0,0,1.2-.2,3.71,3.71,0,0,0,1.11-.7l.34.7a3.24,3.24,0,0,1-1.17.74,4.43,4.43,0,0,1-1.49.25A3.74,3.74,0,0,1,67.69,161.44Z" transform="translate(0 0.07)" style="fill:#c9c9c9"/><path d="M78.73,159.82h-4.1l-.86,2h-.94L76.27,154h.8l3.44,7.83h-.93Zm-.32-.74-1.73-4-1.73,4Z" transform="translate(0 0.07)" style="fill:#c9c9c9"/><path d="M87.82,161.84h-.95l-1-2.61a1.14,1.14,0,0,0-.49-.65,2,2,0,0,0-.89-.16h-2v3.42h-.9V154h3.12a2.93,2.93,0,0,1,1.94.56,2,2,0,0,1,.68,1.61,2.06,2.06,0,0,1-.41,1.3,2.19,2.19,0,0,1-1.16.74,1.07,1.07,0,0,1,.59.29,1.83,1.83,0,0,1,.4.68Zm-3.11-4.17c1.2,0,1.8-.49,1.8-1.48a1.29,1.29,0,0,0-.44-1.08,2.11,2.11,0,0,0-1.36-.36H82.57v2.92Z" transform="translate(0 0.07)" style="fill:#c9c9c9"/><path d="M89.3,154h5v.74H90.19v2.73H94v.76H90.19v2.85h4.06v.75h-5Z" transform="translate(0 0.07)" style="fill:#c9c9c9"/><path d="M23.13,179.78H20.41V179h6.36v.77H24.05v7.06h-.92Z" transform="translate(0 0.07)" style="fill:#c9c9c9"/><path d="M27.87,179h4.95v.75H28.77v2.73H32.6v.76H28.77v2.85h4.05v.74H27.87Z" transform="translate(0 0.07)" style="fill:#c9c9c9"/><path d="M35.71,186.45a3.33,3.33,0,0,1-1.26-1.39,4.92,4.92,0,0,1-.44-2.14,4.85,4.85,0,0,1,.44-2.13,3.25,3.25,0,0,1,1.26-1.38,3.67,3.67,0,0,1,1.93-.49,4.39,4.39,0,0,1,1.49.25,3.24,3.24,0,0,1,1.17.74l-.34.7a3.67,3.67,0,0,0-1.1-.7,3.34,3.34,0,0,0-1.21-.21,2.46,2.46,0,0,0-2,.84,3.54,3.54,0,0,0-.71,2.38,3.62,3.62,0,0,0,.7,2.39,2.47,2.47,0,0,0,2,.84,3.34,3.34,0,0,0,1.21-.21,3.83,3.83,0,0,0,1.1-.69l.34.69a3.11,3.11,0,0,1-1.17.74,4.16,4.16,0,0,1-1.49.25A3.76,3.76,0,0,1,35.71,186.45Z" transform="translate(0 0.07)" style="fill:#c9c9c9"/><path d="M48.31,179v7.83h-.9v-3.59h-4.7v3.59h-.89V179h.89v3.48h4.7V179Z" transform="translate(0 0.07)" style="fill:#c9c9c9"/><path d="M56.53,179v7.83h-.7l-4.73-6.3v6.3h-.85V179h.69l4.73,6.3V179Z" transform="translate(0 0.07)" style="fill:#c9c9c9"/><path d="M59.84,186.45a3.23,3.23,0,0,1-1.24-1.39,5.52,5.52,0,0,1,0-4.27,3.07,3.07,0,0,1,1.23-1.38,3.93,3.93,0,0,1,3.8,0,3.14,3.14,0,0,1,1.24,1.38,5,5,0,0,1,.43,2.13,4.85,4.85,0,0,1-.44,2.13,3.17,3.17,0,0,1-1.24,1.39,3.5,3.5,0,0,1-1.89.49A3.64,3.64,0,0,1,59.84,186.45Zm3.83-1.14a4.48,4.48,0,0,0,0-4.78,2.36,2.36,0,0,0-1.94-.84,2.41,2.41,0,0,0-1.95.84,4.48,4.48,0,0,0,0,4.78,2.39,2.39,0,0,0,1.95.85A2.35,2.35,0,0,0,63.67,185.31Z" transform="translate(0 0.07)" style="fill:#c9c9c9"/><path d="M67,179h.9v7.06h3.92v.77H67Z" transform="translate(0 0.07)" style="fill:#c9c9c9"/><path d="M73.92,186.45a3.23,3.23,0,0,1-1.24-1.39,5.52,5.52,0,0,1,0-4.27,3.07,3.07,0,0,1,1.23-1.38,3.93,3.93,0,0,1,3.8,0A3.14,3.14,0,0,1,79,180.79a5,5,0,0,1,.43,2.13,4.85,4.85,0,0,1-.44,2.13,3.17,3.17,0,0,1-1.24,1.39,3.5,3.5,0,0,1-1.89.49A3.64,3.64,0,0,1,73.92,186.45Zm3.83-1.14a4.48,4.48,0,0,0,0-4.78,2.36,2.36,0,0,0-1.94-.84,2.41,2.41,0,0,0-2,.84,4.48,4.48,0,0,0,0,4.78,2.39,2.39,0,0,0,2,.85A2.35,2.35,0,0,0,77.75,185.31Z" transform="translate(0 0.07)" style="fill:#c9c9c9"/><path d="M87.22,182.76v3.63a4.65,4.65,0,0,1-1.21.39,7.76,7.76,0,0,1-1.52.15,4,4,0,0,1-2-.48,3.08,3.08,0,0,1-1.29-1.38,4.77,4.77,0,0,1-.45-2.15,4.7,4.7,0,0,1,.45-2.14,3.15,3.15,0,0,1,1.27-1.38,3.89,3.89,0,0,1,2-.48,4.55,4.55,0,0,1,1.51.25,3.2,3.2,0,0,1,1.18.74l-.35.7a3.87,3.87,0,0,0-1.12-.7,3.16,3.16,0,0,0-1.22-.22,2.57,2.57,0,0,0-2.05.83,3.63,3.63,0,0,0-.7,2.4,3.59,3.59,0,0,0,.72,2.42,2.64,2.64,0,0,0,2.11.83,5.62,5.62,0,0,0,1.88-.31v-2.38H84.45v-.72Z" transform="translate(0 0.07)" style="fill:#c9c9c9"/><path d="M91.72,183.68v3.16h-.9v-3.18L87.74,179h1.05l2.49,3.85L93.76,179h1Z" transform="translate(0 0.07)" style="fill:#c9c9c9"/><path d="M43.25,210.73l.34-.69a3.79,3.79,0,0,0,1.19.7,4.27,4.27,0,0,0,1.41.21,2.44,2.44,0,0,0,1.46-.37,1.2,1.2,0,0,0,.51-1,.86.86,0,0,0-.25-.64,1.79,1.79,0,0,0-.65-.39,10.42,10.42,0,0,0-1.07-.3,9.15,9.15,0,0,1-1.49-.43,2.29,2.29,0,0,1-.94-.66A1.73,1.73,0,0,1,43.4,206a2,2,0,0,1,.35-1.18,2.27,2.27,0,0,1,1-.8,3.68,3.68,0,0,1,1.5-.29,4.41,4.41,0,0,1,1.52.26,3.19,3.19,0,0,1,1.19.73l-.35.7a3.91,3.91,0,0,0-1.12-.7,3.55,3.55,0,0,0-1.24-.22,2.36,2.36,0,0,0-1.43.39A1.28,1.28,0,0,0,44.3,206a1,1,0,0,0,.45.89,4.48,4.48,0,0,0,1.38.52,14.68,14.68,0,0,1,1.59.44,2.38,2.38,0,0,1,1,.62,1.55,1.55,0,0,1,.38,1.09,2,2,0,0,1-.35,1.16,2.29,2.29,0,0,1-1,.78,4,4,0,0,1-1.53.27A4.19,4.19,0,0,1,43.25,210.73Z" transform="translate(0 0.07)" style="fill:#c9c9c9"/><path d="M50.54,203.8h5v.75H51.44v2.73h3.84V208H51.44v2.85H55.5v.74h-5Z" transform="translate(0 0.07)" style="fill:#c9c9c9"/><path d="M63.16,211.63h-.95l-1-2.6a1.11,1.11,0,0,0-.49-.65,2,2,0,0,0-.89-.17h-2v3.42H57V203.8h3.12a3,3,0,0,1,1.94.56,2,2,0,0,1,.67,1.62,2,2,0,0,1-.4,1.29,2.11,2.11,0,0,1-1.16.74,1.11,1.11,0,0,1,.59.3,1.78,1.78,0,0,1,.4.67Zm-3.11-4.17q1.8,0,1.8-1.47a1.29,1.29,0,0,0-.44-1.08,2.11,2.11,0,0,0-1.36-.36H57.9v2.91Z" transform="translate(0 0.07)" style="fill:#c9c9c9"/><path d="M71.21,203.8l-3.42,7.83H67l-3.42-7.83h1l2.87,6.69,2.87-6.69Z" transform="translate(0 0.07)" style="fill:#c9c9c9"/><path d="M72.19,203.8h.9v7.83h-.9Z" transform="translate(0 0.07)" style="fill:#c9c9c9"/><path d="M76.44,211.24a3.19,3.19,0,0,1-1.25-1.39,4.78,4.78,0,0,1-.44-2.14,4.71,4.71,0,0,1,.44-2.13,3.17,3.17,0,0,1,1.25-1.38,3.78,3.78,0,0,1,1.94-.49,4.48,4.48,0,0,1,1.49.25,3.24,3.24,0,0,1,1.17.74l-.34.7a3.84,3.84,0,0,0-1.11-.7,3.29,3.29,0,0,0-1.2-.21,2.47,2.47,0,0,0-2,.84,4.39,4.39,0,0,0,0,4.77,2.48,2.48,0,0,0,2,.84,3.29,3.29,0,0,0,1.2-.21A4,4,0,0,0,80.7,210l.34.69a3.11,3.11,0,0,1-1.17.74,4.24,4.24,0,0,1-1.49.25A3.77,3.77,0,0,1,76.44,211.24Z" transform="translate(0 0.07)" style="fill:#c9c9c9"/><path d="M82.55,203.8h5v.75h-4v2.73h3.83V208H83.45v2.85h4v.74h-5Z" transform="translate(0 0.07)" style="fill:#c9c9c9"/><path d="M88.47,210.73l.34-.69a3.79,3.79,0,0,0,1.19.7,4.31,4.31,0,0,0,1.41.21,2.44,2.44,0,0,0,1.46-.37,1.2,1.2,0,0,0,.51-1,.86.86,0,0,0-.25-.64,1.79,1.79,0,0,0-.65-.39,10.42,10.42,0,0,0-1.07-.3,9.15,9.15,0,0,1-1.49-.43,2.29,2.29,0,0,1-.94-.66,1.73,1.73,0,0,1-.36-1.14A2,2,0,0,1,89,204.8a2.27,2.27,0,0,1,1-.8,3.68,3.68,0,0,1,1.5-.29A4.41,4.41,0,0,1,93,204a3.19,3.19,0,0,1,1.19.73l-.35.7a3.91,3.91,0,0,0-1.12-.7,3.55,3.55,0,0,0-1.24-.22,2.36,2.36,0,0,0-1.43.39,1.28,1.28,0,0,0-.51,1.08,1,1,0,0,0,.45.89,4.48,4.48,0,0,0,1.38.52,14.68,14.68,0,0,1,1.59.44,2.38,2.38,0,0,1,1,.62,1.55,1.55,0,0,1,.38,1.09,2,2,0,0,1-.35,1.16,2.24,2.24,0,0,1-1,.78,4,4,0,0,1-1.53.27A4.19,4.19,0,0,1,88.47,210.73Z" transform="translate(0 0.07)" style="fill:#c9c9c9"/><path d="M7.4,228.81v7.83H6.57v-5.82L4,236.64H3.39L.83,230.86v5.78H0v-7.83H.75l3,6.75,2.94-6.75Z" transform="translate(0 0.07)" style="fill:#c9c9c9"/><path d="M14.47,234.63h-4.1l-.87,2H8.57L12,228.81h.79l3.45,7.83h-.93Zm-.32-.75-1.73-4-1.73,4Z" transform="translate(0 0.07)" style="fill:#c9c9c9"/><path d="M23.69,228.81v7.83H23l-4.73-6.3v6.3h-.85v-7.83h.7l4.73,6.3v-6.3Z" transform="translate(0 0.07)" style="fill:#c9c9c9"/><path d="M26.35,235.93a3.25,3.25,0,0,1-.79-2.36v-4.76h.9v4.84a2.35,2.35,0,0,0,.56,1.72,2.18,2.18,0,0,0,1.66.59,2.16,2.16,0,0,0,1.64-.59,2.39,2.39,0,0,0,.56-1.72v-4.84h.9v4.76a3.24,3.24,0,0,1-.79,2.35,3.09,3.09,0,0,1-2.31.81A3.13,3.13,0,0,1,26.35,235.93Z" transform="translate(0 0.07)" style="fill:#c9c9c9"/><path d="M33.66,228.81H38.5v.76h-4v2.71h3.73V233H34.55v3.6h-.89Z" transform="translate(0 0.07)" style="fill:#c9c9c9"/><path d="M44.29,234.63h-4.1l-.87,2h-.93l3.44-7.83h.79l3.45,7.83h-.93Zm-.32-.75-1.73-4-1.73,4Z" transform="translate(0 0.07)" style="fill:#c9c9c9"/><path d="M48.38,236.24a3.22,3.22,0,0,1-1.26-1.39,5.4,5.4,0,0,1,0-4.27,3.37,3.37,0,0,1,1.26-1.38,3.76,3.76,0,0,1,1.93-.48,4.16,4.16,0,0,1,1.49.25,3.07,3.07,0,0,1,1.18.74l-.35.69a3.83,3.83,0,0,0-1.1-.69,3.29,3.29,0,0,0-1.2-.21,2.47,2.47,0,0,0-2,.84,3.57,3.57,0,0,0-.71,2.37,3.65,3.65,0,0,0,.7,2.4,2.48,2.48,0,0,0,2,.84,3.29,3.29,0,0,0,1.2-.21,3.67,3.67,0,0,0,1.1-.7l.35.7a3.07,3.07,0,0,1-1.18.74,4.16,4.16,0,0,1-1.49.25A3.67,3.67,0,0,1,48.38,236.24Z" transform="translate(0 0.07)" style="fill:#c9c9c9"/><path d="M56.28,229.58H53.55v-.77h6.37v.77H57.19v7.06h-.91Z" transform="translate(0 0.07)" style="fill:#c9c9c9"/><path d="M61.75,235.93a3.21,3.21,0,0,1-.79-2.36v-4.76h.89v4.84a2.39,2.39,0,0,0,.56,1.72,2.21,2.21,0,0,0,1.66.59,2.17,2.17,0,0,0,1.65-.59,2.39,2.39,0,0,0,.55-1.72v-4.84h.91v4.76a3.2,3.2,0,0,1-.8,2.35,3.06,3.06,0,0,1-2.31.81A3.12,3.12,0,0,1,61.75,235.93Z" transform="translate(0 0.07)" style="fill:#c9c9c9"/><path d="M75.21,236.64h-1l-1-2.61a1.14,1.14,0,0,0-.49-.65,1.92,1.92,0,0,0-.88-.16H70v3.42h-.89v-7.83h3.11a2.93,2.93,0,0,1,1.94.56,2,2,0,0,1,.68,1.62,2.11,2.11,0,0,1-.4,1.29,2.21,2.21,0,0,1-1.16.74,1.07,1.07,0,0,1,.58.29,1.92,1.92,0,0,1,.41.68Zm-3.12-4.17c1.21,0,1.81-.49,1.81-1.47a1.33,1.33,0,0,0-.44-1.09,2.16,2.16,0,0,0-1.37-.35H70v2.91Z" transform="translate(0 0.07)" style="fill:#c9c9c9"/><path d="M76.68,228.81h.9v7.83h-.9Z" transform="translate(0 0.07)" style="fill:#c9c9c9"/><path d="M85.8,228.81v7.83h-.7l-4.73-6.3v6.3h-.85v-7.83h.69l4.73,6.3v-6.3Z" transform="translate(0 0.07)" style="fill:#c9c9c9"/><path d="M93.92,232.56v3.63a4.65,4.65,0,0,1-1.21.39,7.76,7.76,0,0,1-1.52.15,4,4,0,0,1-2-.48,3.16,3.16,0,0,1-1.3-1.38,4.92,4.92,0,0,1-.44-2.16,4.86,4.86,0,0,1,.44-2.14,3.26,3.26,0,0,1,1.28-1.37,3.85,3.85,0,0,1,2-.48,4.37,4.37,0,0,1,1.52.25,3.15,3.15,0,0,1,1.18.74l-.35.69a4.54,4.54,0,0,0-1.12-.7,3.37,3.37,0,0,0-1.23-.21,2.57,2.57,0,0,0-2,.83,4.39,4.39,0,0,0,0,4.82,2.66,2.66,0,0,0,2.11.83,5.66,5.66,0,0,0,1.88-.31v-2.39H91.15v-.71Z" transform="translate(0 0.07)" style="fill:#c9c9c9"/><path d="M65.33,261.87h-1l-1-2.6a1.07,1.07,0,0,0-.49-.65,1.88,1.88,0,0,0-.88-.17h-2v3.42h-.89V254h3.11a3,3,0,0,1,1.94.56,2,2,0,0,1,.68,1.62,2,2,0,0,1-.4,1.29,2.22,2.22,0,0,1-1.16.75,1,1,0,0,1,.58.29,1.79,1.79,0,0,1,.41.67Zm-3.11-4.16c1.2,0,1.8-.5,1.8-1.48a1.32,1.32,0,0,0-.44-1.08,2.13,2.13,0,0,0-1.36-.36H60.07v2.92Z" transform="translate(0 0.07)" style="fill:#c9c9c9"/><path d="M66.8,254h5v.75H67.69v2.73h3.84v.76H67.69v2.85h4.06v.74h-5Z" transform="translate(0 0.07)" style="fill:#c9c9c9"/><path d="M75,254.81H72.3V254h6.37v.77H75.94v7.06H75Z" transform="translate(0 0.07)" style="fill:#c9c9c9"/><path d="M84,259.86H79.89l-.87,2h-.93L81.53,254h.79l3.45,7.83h-.93Zm-.31-.75-1.73-4-1.73,4Z" transform="translate(0 0.07)" style="fill:#c9c9c9"/><path d="M86.93,254h.9v7.83h-.9Z" transform="translate(0 0.07)" style="fill:#c9c9c9"/><path d="M89.77,254h.9v7.06H94.6v.77H89.77Z" transform="translate(0 0.07)" style="fill:#c9c9c9"/><path d="M47.47,286a3.25,3.25,0,0,1-.79-2.36v-4.76h.9v4.84a2.35,2.35,0,0,0,.56,1.72,2.6,2.6,0,0,0,3.3,0,2.39,2.39,0,0,0,.56-1.72v-4.84h.9v4.76a3.24,3.24,0,0,1-.79,2.35,3.09,3.09,0,0,1-2.31.81A3.13,3.13,0,0,1,47.47,286Z" transform="translate(0 0.07)" style="fill:#c9c9c9"/><path d="M56.67,279.66H53.94v-.77h6.37v.77H57.58v7.06h-.91Z" transform="translate(0 0.07)" style="fill:#c9c9c9"/><path d="M61.41,278.89h.9v7.83h-.9Z" transform="translate(0 0.07)" style="fill:#c9c9c9"/><path d="M64.25,278.89h.9V286h3.93v.77H64.25Z" transform="translate(0 0.07)" style="fill:#c9c9c9"/><path d="M70.25,278.89h.9v7.83h-.9Z" transform="translate(0 0.07)" style="fill:#c9c9c9"/><path d="M75,279.66H72.25v-.77h6.37v.77H75.89v7.06H75Z" transform="translate(0 0.07)" style="fill:#c9c9c9"/><path d="M79.72,278.89h.9v7.83h-.9Z" transform="translate(0 0.07)" style="fill:#c9c9c9"/><path d="M82.55,278.89h5v.74h-4v2.73h3.83v.76H83.45V286h4v.75h-5Z" transform="translate(0 0.07)" style="fill:#c9c9c9"/><path d="M88.47,285.82l.34-.7a3.83,3.83,0,0,0,1.19.71,4.31,4.31,0,0,0,1.41.21,2.52,2.52,0,0,0,1.46-.37,1.21,1.21,0,0,0,.51-1,.83.83,0,0,0-.25-.64,1.67,1.67,0,0,0-.65-.4,10.8,10.8,0,0,0-1.07-.29,10.27,10.27,0,0,1-1.49-.43,2.41,2.41,0,0,1-.94-.67,1.72,1.72,0,0,1-.36-1.13,2,2,0,0,1,.35-1.19,2.25,2.25,0,0,1,1-.79,3.52,3.52,0,0,1,1.5-.29,4.41,4.41,0,0,1,1.52.25,3.21,3.21,0,0,1,1.19.74l-.35.69a4.1,4.1,0,0,0-1.12-.69,3.33,3.33,0,0,0-1.24-.22A2.36,2.36,0,0,0,90,280a1.28,1.28,0,0,0-.51,1.07,1,1,0,0,0,.45.89,4.48,4.48,0,0,0,1.38.52,14.33,14.33,0,0,1,1.59.45,2.37,2.37,0,0,1,1,.61,1.58,1.58,0,0,1,.38,1.1,2,2,0,0,1-.35,1.16,2.22,2.22,0,0,1-1,.77,3.77,3.77,0,0,1-1.53.28A4.19,4.19,0,0,1,88.47,285.82Z" transform="translate(0 0.07)" style="fill:#c9c9c9"/><path d="M48.26,304H53.1v.76h-4v2.72h3.73v.76H49.15v3.6h-.89Z" transform="translate(0 0.07)" style="fill:#c9c9c9"/><path d="M54.45,304h.9v7.84h-.9Z" transform="translate(0 0.07)" style="fill:#c9c9c9"/><path d="M63.57,304v7.84h-.71l-4.73-6.31v6.31h-.84V304H58l4.73,6.31V304Z" transform="translate(0 0.07)" style="fill:#c9c9c9"/><path d="M70.62,309.83H66.53l-.87,2h-.94L68.17,304H69l3.44,7.84h-.92Zm-.32-.74-1.73-4-1.72,4Z" transform="translate(0 0.07)" style="fill:#c9c9c9"/><path d="M79.85,304v7.84h-.71l-4.73-6.31v6.31h-.84V304h.69L79,310.32V304Z" transform="translate(0 0.07)" style="fill:#c9c9c9"/><path d="M83.19,311.45a3.15,3.15,0,0,1-1.26-1.39,4.78,4.78,0,0,1-.44-2.14,4.71,4.71,0,0,1,.44-2.13,3.13,3.13,0,0,1,1.26-1.38,3.73,3.73,0,0,1,1.93-.48,4.44,4.44,0,0,1,1.49.24,3.26,3.26,0,0,1,1.17.75l-.34.69a3.87,3.87,0,0,0-1.11-.69,3.29,3.29,0,0,0-1.2-.21,2.49,2.49,0,0,0-2,.83,4.36,4.36,0,0,0,0,4.77,2.46,2.46,0,0,0,2,.84,3.29,3.29,0,0,0,1.2-.21,3.66,3.66,0,0,0,1.11-.69l.34.69a3.26,3.26,0,0,1-1.17.75,4.44,4.44,0,0,1-1.49.24A3.73,3.73,0,0,1,83.19,311.45Z" transform="translate(0 0.07)" style="fill:#c9c9c9"/><path d="M89.3,304h5v.75H90.19v2.73H94v.76H90.19v2.85h4.06v.75h-5Z" transform="translate(0 0.07)" style="fill:#c9c9c9"/><path d="M60,336.47a3.21,3.21,0,0,1-1.23-1.39,4.91,4.91,0,0,1-.44-2.13,4.85,4.85,0,0,1,.43-2.13A3.16,3.16,0,0,1,60,329.43a4,4,0,0,1,3.81,0A3.16,3.16,0,0,1,65,330.82a4.8,4.8,0,0,1,.43,2.12,5,5,0,0,1-.43,2.13,3.23,3.23,0,0,1-1.24,1.39,3.55,3.55,0,0,1-1.89.49A3.65,3.65,0,0,1,60,336.47Zm3.83-1.13a3.73,3.73,0,0,0,.69-2.4,3.66,3.66,0,0,0-.68-2.39,2.68,2.68,0,0,0-3.89,0,3.65,3.65,0,0,0-.69,2.38,3.73,3.73,0,0,0,.69,2.4,2.66,2.66,0,0,0,3.88,0Z" transform="translate(0 0.07)" style="fill:#c9c9c9"/><path d="M68.51,329.8H65.78V329h6.37v.77H69.42v7.07h-.91Z" transform="translate(0 0.07)" style="fill:#c9c9c9"/><path d="M79.74,329v7.84h-.9v-3.6h-4.7v3.6h-.89V329h.89v3.48h4.7V329Z" transform="translate(0 0.07)" style="fill:#c9c9c9"/><path d="M81.67,329h5v.75H82.57v2.73H86.4v.76H82.57v2.85h4.05v.75h-5Z" transform="translate(0 0.07)" style="fill:#c9c9c9"/><path d="M94.29,336.87h-1l-1-2.61a1.14,1.14,0,0,0-.49-.65,2,2,0,0,0-.89-.17H89v3.43h-.89V329h3.12a3,3,0,0,1,1.94.56,2.29,2.29,0,0,1,.27,2.91,2.18,2.18,0,0,1-1.16.75,1,1,0,0,1,.58.29,1.74,1.74,0,0,1,.41.67Zm-3.11-4.17c1.2,0,1.8-.49,1.8-1.48a1.29,1.29,0,0,0-.44-1.08,2.13,2.13,0,0,0-1.36-.36H89v2.92Z" transform="translate(0 0.07)" style="fill:#c9c9c9"/></g><g id="Title_1" data-name="Title 1"><g style="opacity:0.2"><rect x="33.04" y="2.29" width="319.2" height="54.32" style="fill:#3960ad"/></g><path d="M80.73,35.5H77.87l-1.91-5a1.69,1.69,0,0,0-.78-1,3,3,0,0,0-1.36-.27H71.11V35.5H68.42V20.55h6.4a5.82,5.82,0,0,1,3.87,1.12A3.93,3.93,0,0,1,80,24.86a4.06,4.06,0,0,1-.79,2.53A4.3,4.3,0,0,1,77,28.87a2.61,2.61,0,0,1,1.91,1.85Zm-6.28-8.31a3.67,3.67,0,0,0,2.26-.57,2,2,0,0,0,.74-1.72,2,2,0,0,0-.73-1.69,3.73,3.73,0,0,0-2.27-.56H71.07v4.54Z" transform="translate(0 0.07)" style="fill:#fff"/><path d="M93.12,24.9V35.5H90.53V33.8a3.4,3.4,0,0,1-1.38,1.38,4.24,4.24,0,0,1-2.06.49A4.52,4.52,0,0,1,84.63,35,4.44,4.44,0,0,1,83,33.09a7.34,7.34,0,0,1,0-5.79,4.76,4.76,0,0,1,1.67-2,4.35,4.35,0,0,1,2.44-.7,4.24,4.24,0,0,1,2.06.49,3.4,3.4,0,0,1,1.38,1.38V24.9Zm-3.3,7.81a4,4,0,0,0,.71-2.54,4.11,4.11,0,0,0-.71-2.58,2.47,2.47,0,0,0-2-.91,2.44,2.44,0,0,0-2,.94A4.15,4.15,0,0,0,85,30.21a3.9,3.9,0,0,0,.72,2.52,2.51,2.51,0,0,0,2,.88A2.44,2.44,0,0,0,89.82,32.71Z" transform="translate(0 0.07)" style="fill:#fff"/><path d="M105.84,29V35.5h-2.62V29.12a2.87,2.87,0,0,0-.49-1.84,1.84,1.84,0,0,0-1.49-.57,2.55,2.55,0,0,0-1.93.76,2.81,2.81,0,0,0-.73,2v6H96V27.9a22.51,22.51,0,0,0-.17-3h2.46l.19,1.74a3.85,3.85,0,0,1,1.48-1.49,4.23,4.23,0,0,1,2.11-.52Q105.83,24.63,105.84,29Z" transform="translate(0 0.07)" style="fill:#fff"/><path d="M107.94,34.33l.74-1.85a6.35,6.35,0,0,0,3.88,1.26,2.8,2.8,0,0,0,1.46-.32,1,1,0,0,0,.52-.88.92.92,0,0,0-.36-.76,3.32,3.32,0,0,0-1.22-.5l-1.76-.4c-1.94-.42-2.9-1.4-2.9-3a2.85,2.85,0,0,1,.54-1.71,3.68,3.68,0,0,1,1.54-1.16,5.81,5.81,0,0,1,2.29-.42,7,7,0,0,1,2.18.34,5.79,5.79,0,0,1,1.85,1l-.78,1.79a5.41,5.41,0,0,0-3.27-1.18,2.45,2.45,0,0,0-1.41.34,1,1,0,0,0-.51.92.94.94,0,0,0,.31.73,2.47,2.47,0,0,0,1,.47l1.8.4a4.46,4.46,0,0,1,2.3,1.1,2.62,2.62,0,0,1,.73,1.94,2.72,2.72,0,0,1-1.18,2.33,5.27,5.27,0,0,1-3.21.86A7.23,7.23,0,0,1,107.94,34.33Z" transform="translate(0 0.07)" style="fill:#fff"/><path d="M121.12,35a4.6,4.6,0,0,1-1.89-1.92,6.83,6.83,0,0,1,0-5.86,4.6,4.6,0,0,1,1.89-1.92,5.81,5.81,0,0,1,2.84-.67,5.71,5.71,0,0,1,2.82.67,4.64,4.64,0,0,1,1.88,1.92,6.83,6.83,0,0,1,0,5.86A4.64,4.64,0,0,1,126.78,35a5.71,5.71,0,0,1-2.82.67A5.81,5.81,0,0,1,121.12,35ZM126,32.74a4,4,0,0,0,.7-2.59,4,4,0,0,0-.71-2.59,2.73,2.73,0,0,0-4,0,4,4,0,0,0-.72,2.59,4,4,0,0,0,.71,2.59,2.45,2.45,0,0,0,2,.87A2.48,2.48,0,0,0,126,32.74Z" transform="translate(0 0.07)" style="fill:#fff"/><path d="M146.79,25.71a5.1,5.1,0,0,1,.88,3.28V35.5h-2.62V29.08a3.15,3.15,0,0,0-.41-1.82,1.58,1.58,0,0,0-1.36-.55,2.09,2.09,0,0,0-1.71.76,3.29,3.29,0,0,0-.62,2.11V35.5h-2.62V29.08a3.07,3.07,0,0,0-.43-1.81,1.59,1.59,0,0,0-1.36-.56,2.1,2.1,0,0,0-1.72.76,3.24,3.24,0,0,0-.63,2.11V35.5h-2.6V27.9a24.33,24.33,0,0,0-.17-3h2.46l.18,1.68a3.36,3.36,0,0,1,1.34-1.45,3.88,3.88,0,0,1,2-.5,3,3,0,0,1,3.18,2A3.64,3.64,0,0,1,142,25.16a4.11,4.11,0,0,1,2.09-.53A3.27,3.27,0,0,1,146.79,25.71Z" transform="translate(0 0.07)" style="fill:#fff"/><path d="M167.35,24.9l-4.16,10.6H160.9l-2.62-6.95-2.56,7h-2.31l-4.16-10.6h2.69l2.73,7.48,2.75-7.48h1.89l2.75,7.54,2.73-7.54Z" transform="translate(0 0.07)" style="fill:#fff"/><path d="M179,24.9V35.5h-2.58V33.8A3.36,3.36,0,0,1,175,35.18a4.17,4.17,0,0,1-2.05.49,4.49,4.49,0,0,1-2.46-.67,4.37,4.37,0,0,1-1.66-1.91,7.34,7.34,0,0,1,0-5.79,4.76,4.76,0,0,1,1.67-2,4.33,4.33,0,0,1,2.44-.7,4.17,4.17,0,0,1,2.05.49,3.36,3.36,0,0,1,1.39,1.38V24.9Zm-3.29,7.81a4,4,0,0,0,.71-2.54,4.11,4.11,0,0,0-.71-2.58,2.47,2.47,0,0,0-2-.91,2.44,2.44,0,0,0-2,.94,4.15,4.15,0,0,0-.72,2.59,3.9,3.9,0,0,0,.72,2.52,2.51,2.51,0,0,0,2.05.88A2.44,2.44,0,0,0,175.67,32.71Z" transform="translate(0 0.07)" style="fill:#fff"/><path d="M188.58,24.82l0,2.39a3.7,3.7,0,0,0-1.39-.27,2.64,2.64,0,0,0-2,.77,3,3,0,0,0-.71,2.06V35.5h-2.6V27.9a24.33,24.33,0,0,0-.17-3h2.46l.21,1.87a3.11,3.11,0,0,1,1.26-1.58,3.57,3.57,0,0,1,1.95-.54A2.75,2.75,0,0,1,188.58,24.82Z" transform="translate(0 0.07)" style="fill:#fff"/><path d="M199.12,30.34h-7.31a3.87,3.87,0,0,0,.85,2.51,3,3,0,0,0,2.28.81,5.23,5.23,0,0,0,3.24-1.14l.75,1.81a5.89,5.89,0,0,1-1.85,1,7,7,0,0,1-2.24.37,5.59,5.59,0,0,1-4.1-1.47,5.41,5.41,0,0,1-1.49-4,6.23,6.23,0,0,1,.65-2.88,4.88,4.88,0,0,1,1.83-2,5.07,5.07,0,0,1,2.67-.7A4.42,4.42,0,0,1,197.85,26a5.64,5.64,0,0,1,1.27,3.9Zm-6.37-3.2a3,3,0,0,0-.85,1.79h4.93a2.87,2.87,0,0,0-.72-1.8,2.2,2.2,0,0,0-1.65-.61A2.37,2.37,0,0,0,192.75,27.14Z" transform="translate(0 0.07)" style="fill:#fff"/><path d="M215.6,25.31a4.49,4.49,0,0,1,1.64,1.92,6.56,6.56,0,0,1,.59,2.88,6.76,6.76,0,0,1-.6,2.91,4.63,4.63,0,0,1-1.65,2,4.62,4.62,0,0,1-4.52.19,3.27,3.27,0,0,1-1.37-1.41V35.5H207.1V20.05h2.61V26.5a3.4,3.4,0,0,1,1.38-1.38,4.21,4.21,0,0,1,2.06-.49A4.41,4.41,0,0,1,215.6,25.31Zm-1.13,7.38a4.12,4.12,0,0,0,.72-2.58,3.93,3.93,0,0,0-.72-2.53,2.74,2.74,0,0,0-4.07,0,4,4,0,0,0-.71,2.56,4,4,0,0,0,.71,2.57,2.46,2.46,0,0,0,2.06.89A2.36,2.36,0,0,0,214.47,32.69Z" transform="translate(0 0.07)" style="fill:#fff"/><path d="M230,24.9,225,36.22a6.45,6.45,0,0,1-2.15,2.87,7.37,7.37,0,0,1-3.21,1.2l-.59-2a6.76,6.76,0,0,0,2.24-.85,3.71,3.71,0,0,0,1.21-1.53l.33-.77L218.46,24.9h2.75l3,7.62,3.11-7.62Z" transform="translate(0 0.07)" style="fill:#fff"/><path d="M237.28,20.55H240v15h-2.71Z" transform="translate(0 0.07)" style="fill:#fff"/><path d="M252.9,29V35.5h-2.62V29.12a2.81,2.81,0,0,0-.49-1.84,1.83,1.83,0,0,0-1.49-.57,2.56,2.56,0,0,0-1.93.76,2.81,2.81,0,0,0-.73,2v6H243V27.9a22.51,22.51,0,0,0-.17-3h2.46l.19,1.74A3.85,3.85,0,0,1,247,25.15a4.23,4.23,0,0,1,2.11-.52C251.64,24.63,252.9,26.08,252.9,29Z" transform="translate(0 0.07)" style="fill:#fff"/><path d="M265.84,20.05V35.5h-2.58V33.8a3.48,3.48,0,0,1-1.39,1.38,4.21,4.21,0,0,1-2.06.49,4.37,4.37,0,0,1-2.43-.69,4.6,4.6,0,0,1-1.67-2,6.76,6.76,0,0,1-.6-2.91,6.56,6.56,0,0,1,.59-2.88,4.36,4.36,0,0,1,4.11-2.6,4.22,4.22,0,0,1,2,.47,3.31,3.31,0,0,1,1.37,1.33V20.05Zm-3.31,12.66a4,4,0,0,0,.73-2.56,4,4,0,0,0-.72-2.56,2.42,2.42,0,0,0-2-.91,2.47,2.47,0,0,0-2,.9,3.93,3.93,0,0,0-.73,2.53,4.12,4.12,0,0,0,.73,2.58,2.41,2.41,0,0,0,2,.92A2.46,2.46,0,0,0,262.53,32.71Z" transform="translate(0 0.07)" style="fill:#fff"/><path d="M278.35,24.9V35.5h-2.56V33.87a3.45,3.45,0,0,1-1.34,1.34,3.93,3.93,0,0,1-1.93.46c-2.59,0-3.89-1.45-3.89-4.37V24.9h2.61v6.42a2.55,2.55,0,0,0,.47,1.71,1.83,1.83,0,0,0,1.46.54,2.41,2.41,0,0,0,1.85-.75,2.9,2.9,0,0,0,.69-2V24.9Z" transform="translate(0 0.07)" style="fill:#fff"/><path d="M280.52,34.33l.73-1.85a6.38,6.38,0,0,0,3.89,1.26,2.82,2.82,0,0,0,1.46-.32,1,1,0,0,0,.51-.88.92.92,0,0,0-.36-.76,3.19,3.19,0,0,0-1.21-.5l-1.77-.4c-1.93-.42-2.9-1.4-2.9-3a2.86,2.86,0,0,1,.55-1.71A3.58,3.58,0,0,1,283,25.05a5.81,5.81,0,0,1,2.29-.42,7,7,0,0,1,2.19.34,5.74,5.74,0,0,1,1.84,1l-.77,1.79a5.46,5.46,0,0,0-3.28-1.18,2.49,2.49,0,0,0-1.41.34,1.05,1.05,0,0,0-.5.92.93.93,0,0,0,.3.73,2.53,2.53,0,0,0,1,.47l1.81.4a4.46,4.46,0,0,1,2.3,1.1,2.66,2.66,0,0,1,.72,1.94,2.74,2.74,0,0,1-1.17,2.33,5.31,5.31,0,0,1-3.21.86A7.21,7.21,0,0,1,280.52,34.33Z" transform="translate(0 0.07)" style="fill:#fff"/><path d="M295,26.87v4.75c0,1.25.58,1.87,1.74,1.87a3.82,3.82,0,0,0,1.05-.17V35.4a4.88,4.88,0,0,1-1.68.25,3.61,3.61,0,0,1-2.77-1,4,4,0,0,1-1-2.89V26.87h-2v-2h2V22.32l2.63-.89V24.9h2.81v2Z" transform="translate(0 0.07)" style="fill:#fff"/><path d="M306.35,24.82l0,2.39a3.7,3.7,0,0,0-1.39-.27,2.65,2.65,0,0,0-2.05.77,3,3,0,0,0-.7,2.06V35.5h-2.6V27.9a24.33,24.33,0,0,0-.17-3h2.45l.21,1.87a3.22,3.22,0,0,1,1.26-1.58,3.63,3.63,0,0,1,2-.54A2.82,2.82,0,0,1,306.35,24.82Z" transform="translate(0 0.07)" style="fill:#fff"/><path d="M318.49,24.9l-4.94,11.32a6.44,6.44,0,0,1-2.14,2.87,7.42,7.42,0,0,1-3.21,1.2l-.59-2a6.69,6.69,0,0,0,2.23-.85,3.71,3.71,0,0,0,1.21-1.53l.34-.77L307,24.9h2.75l3,7.62,3.11-7.62Z" transform="translate(0 0.07)" style="fill:#fff"/><polygon points="48.64 0.07 30.67 0.07 30.67 17.75 33.03 17.75 33.03 2.37 48.64 2.37 48.64 0.07" style="fill:#3960ad"/><polygon points="48.62 58.82 30.65 58.82 30.65 41.15 33.01 41.15 33.01 56.52 48.62 56.52 48.62 58.82" style="fill:#3960ad"/><polygon points="336.67 58.92 354.63 58.92 354.63 41.24 352.27 41.24 352.27 56.62 336.67 56.62 336.67 58.92" style="fill:#3960ad"/><polygon points="336.64 0 354.61 0 354.61 17.68 352.25 17.68 352.25 2.3 336.64 2.3 336.64 0" style="fill:#3960ad"/></g><g id="Title_2" data-name="Title 2"><g style="opacity:0.2"><rect x="418.07" y="2.29" width="319.2" height="54.32" style="fill:#3960ad"/></g><path d="M534.25,35.5l-7-7v7h-2.71V20.55h2.71v6.7l6.67-6.7h3.26L530,27.73l7.6,7.77Z" transform="translate(0 0.07)" style="fill:#fff"/><path d="M547.56,30.34h-7.31a3.87,3.87,0,0,0,.85,2.51,3,3,0,0,0,2.28.81,5.2,5.2,0,0,0,3.23-1.14l.76,1.81a5.83,5.83,0,0,1-1.86,1,6.86,6.86,0,0,1-2.23.37,5.58,5.58,0,0,1-4.1-1.47,5.41,5.41,0,0,1-1.49-4,6.23,6.23,0,0,1,.65-2.88,4.74,4.74,0,0,1,1.83-2,5.06,5.06,0,0,1,2.66-.7A4.43,4.43,0,0,1,546.29,26a5.64,5.64,0,0,1,1.27,3.9Zm-6.37-3.2a3,3,0,0,0-.85,1.79h4.93a2.87,2.87,0,0,0-.72-1.8,2.2,2.2,0,0,0-1.65-.61A2.37,2.37,0,0,0,541.19,27.14Z" transform="translate(0 0.07)" style="fill:#fff"/><path d="M559.63,24.9,554.7,36.22a6.44,6.44,0,0,1-2.14,2.87,7.41,7.41,0,0,1-3.22,1.2l-.58-2a6.69,6.69,0,0,0,2.23-.85,3.71,3.71,0,0,0,1.21-1.53l.34-.77L548.13,24.9h2.75l3,7.62L557,24.9Z" transform="translate(0 0.07)" style="fill:#fff"/><path d="M570.45,22.78h-4.87V20.55h12.49v2.23h-4.89V35.5h-2.73Z" transform="translate(0 0.07)" style="fill:#fff"/><path d="M584.85,24.82l0,2.39a3.65,3.65,0,0,0-1.38-.27,2.65,2.65,0,0,0-2.05.77,3,3,0,0,0-.7,2.06V35.5h-2.61V27.9a24.47,24.47,0,0,0-.16-3h2.45l.21,1.87a3.22,3.22,0,0,1,1.26-1.58,3.62,3.62,0,0,1,1.95-.54A2.75,2.75,0,0,1,584.85,24.82Z" transform="translate(0 0.07)" style="fill:#fff"/><path d="M595.4,30.34h-7.31a3.87,3.87,0,0,0,.85,2.51,3,3,0,0,0,2.28.81,5.2,5.2,0,0,0,3.23-1.14l.76,1.81a5.94,5.94,0,0,1-1.86,1,6.88,6.88,0,0,1-2.24.37A5.57,5.57,0,0,1,587,34.2a5.37,5.37,0,0,1-1.49-4,6.11,6.11,0,0,1,.65-2.88,4.74,4.74,0,0,1,1.83-2,5.06,5.06,0,0,1,2.66-.7A4.43,4.43,0,0,1,594.13,26a5.68,5.68,0,0,1,1.27,3.9ZM589,27.14a3,3,0,0,0-.85,1.79h4.94a2.93,2.93,0,0,0-.73-1.8,2.17,2.17,0,0,0-1.64-.61A2.41,2.41,0,0,0,589,27.14Z" transform="translate(0 0.07)" style="fill:#fff"/><path d="M607.49,29V35.5h-2.62V29.12a2.87,2.87,0,0,0-.48-1.84,1.87,1.87,0,0,0-1.5-.57,2.56,2.56,0,0,0-1.93.76,2.81,2.81,0,0,0-.73,2v6h-2.61V27.9a24.47,24.47,0,0,0-.16-3h2.45l.19,1.74a3.92,3.92,0,0,1,1.48-1.49,4.23,4.23,0,0,1,2.11-.52C606.23,24.63,607.49,26.08,607.49,29Z" transform="translate(0 0.07)" style="fill:#fff"/><path d="M620.43,20.05V35.5h-2.58V33.8a3.48,3.48,0,0,1-1.39,1.38,4.21,4.21,0,0,1-2.06.49A4.37,4.37,0,0,1,612,35a4.6,4.6,0,0,1-1.67-2,6.76,6.76,0,0,1-.6-2.91,6.56,6.56,0,0,1,.59-2.88,4.36,4.36,0,0,1,4.11-2.6,4.22,4.22,0,0,1,2,.47,3.31,3.31,0,0,1,1.37,1.33V20.05Zm-3.31,12.66a4,4,0,0,0,.73-2.56,4,4,0,0,0-.72-2.56,2.42,2.42,0,0,0-2-.91,2.47,2.47,0,0,0-2,.9,3.93,3.93,0,0,0-.73,2.53,4.12,4.12,0,0,0,.73,2.58,2.42,2.42,0,0,0,2,.92A2.45,2.45,0,0,0,617.12,32.71Z" transform="translate(0 0.07)" style="fill:#fff"/><path d="M622.59,34.33l.74-1.85a6.35,6.35,0,0,0,3.88,1.26,2.8,2.8,0,0,0,1.46-.32,1,1,0,0,0,.52-.88.92.92,0,0,0-.36-.76,3.32,3.32,0,0,0-1.22-.5l-1.76-.4c-1.93-.42-2.9-1.4-2.9-3a2.8,2.8,0,0,1,.55-1.71A3.58,3.58,0,0,1,625,25.05a5.81,5.81,0,0,1,2.29-.42,7,7,0,0,1,2.18.34,5.79,5.79,0,0,1,1.85,1l-.78,1.79a5.41,5.41,0,0,0-3.27-1.18,2.45,2.45,0,0,0-1.41.34,1,1,0,0,0-.5.92.93.93,0,0,0,.3.73,2.47,2.47,0,0,0,1,.47l1.81.4a4.42,4.42,0,0,1,2.29,1.1,2.62,2.62,0,0,1,.73,1.94,2.72,2.72,0,0,1-1.18,2.33,5.27,5.27,0,0,1-3.21.86A7.23,7.23,0,0,1,622.59,34.33Z" transform="translate(0 0.07)" style="fill:#fff"/><polygon points="433.65 0.07 415.69 0.07 415.69 17.75 418.04 17.75 418.04 2.37 433.65 2.37 433.65 0.07" style="fill:#3960ad"/><polygon points="433.63 58.82 415.67 58.82 415.67 41.15 418.02 41.15 418.02 56.52 433.63 56.52 433.63 58.82" style="fill:#3960ad"/><polygon points="721.68 58.92 739.64 58.92 739.64 41.24 737.29 41.24 737.29 56.62 721.68 56.62 721.68 58.92" style="fill:#3960ad"/><polygon points="721.66 0 739.62 0 739.62 17.68 737.27 17.68 737.27 2.3 721.66 2.3 721.66 0" style="fill:#3960ad"/></g></svg>