<svg xmlns="http://www.w3.org/2000/svg" xmlns:xlink="http://www.w3.org/1999/xlink" width="500" zoomAndPan="magnify" viewBox="0 0 375 374.999991" height="500" preserveAspectRatio="xMidYMid meet" version="1.0"><defs><clipPath id="6a2718e60f"><path d="M 32 0 L 343 0 L 343 375 L 32 375 Z M 32 0 " clip-rule="nonzero"/></clipPath><clipPath id="7161fab625"><path d="M 263.660156 225.199219 C 271.378906 230.113281 278.5625 235.714844 285.203125 242.011719 C 280.988281 245.980469 276.542969 249.679688 271.875 253.105469 C 267.207031 256.53125 262.347656 259.664062 257.296875 262.5 C 252.246094 265.332031 247.042969 267.851562 241.6875 270.054688 C 236.328125 272.257812 230.859375 274.125 225.273438 275.660156 C 236.082031 268.011719 245.949219 257.023438 254.445312 243.007812 C 257.90625 237.277344 260.980469 231.339844 263.660156 225.199219 Z M 243.957031 236.664062 C 247.355469 230.988281 250.367188 225.113281 252.992188 219.039062 C 243.800781 214.273438 234.195312 210.5625 224.183594 207.90625 C 214.171875 205.25 203.992188 203.714844 193.640625 203.300781 L 193.640625 275.667969 C 212.402344 273.222656 230.078125 259.589844 243.960938 236.664062 Z M 193.640625 191.03125 L 193.640625 84.636719 C 204.75 84.230469 215.691406 82.636719 226.453125 79.851562 C 237.21875 77.066406 247.558594 73.15625 257.472656 68.121094 C 264.773438 89.089844 268.679688 112.957031 268.679688 137.828125 C 268.679688 162.710938 264.777344 186.582031 257.472656 207.546875 C 247.558594 202.511719 237.21875 198.601562 226.453125 195.816406 C 215.691406 193.03125 204.75 191.4375 193.640625 191.03125 Z M 193.640625 72.367188 C 203.988281 71.957031 214.171875 70.421875 224.183594 67.769531 C 234.195312 65.113281 243.796875 61.402344 252.992188 56.632812 C 250.367188 50.558594 247.355469 44.683594 243.953125 39.007812 C 230.078125 16.078125 212.402344 2.441406 193.644531 0 L 193.644531 72.367188 Z M 254.441406 32.65625 C 245.945312 18.644531 236.078125 7.65625 225.273438 0.0078125 C 230.855469 1.542969 236.328125 3.410156 241.683594 5.613281 C 247.042969 7.816406 252.246094 10.332031 257.296875 13.167969 C 262.34375 16.003906 267.203125 19.136719 271.875 22.5625 C 276.542969 25.988281 280.988281 29.6875 285.203125 33.65625 C 278.5625 39.949219 271.378906 45.550781 263.660156 50.464844 C 260.976562 44.324219 257.90625 38.390625 254.441406 32.65625 Z M 111.339844 50.464844 C 103.621094 45.550781 96.4375 39.949219 89.792969 33.65625 C 94.011719 29.6875 98.457031 25.988281 103.125 22.5625 C 107.796875 19.136719 112.65625 16.003906 117.703125 13.167969 C 122.753906 10.332031 127.957031 7.816406 133.316406 5.613281 C 138.671875 3.410156 144.144531 1.542969 149.726562 0.0078125 C 138.921875 7.65625 129.054688 18.644531 120.558594 32.65625 C 117.09375 38.390625 114.019531 44.324219 111.339844 50.464844 Z M 131.042969 39.003906 C 127.628906 44.671875 124.617188 50.546875 122.007812 56.628906 C 131.199219 61.398438 140.800781 65.109375 150.8125 67.765625 C 160.824219 70.421875 171.003906 71.953125 181.355469 72.367188 L 181.355469 0 C 162.597656 2.441406 144.917969 16.078125 131.039062 39.003906 Z M 181.359375 84.632812 L 181.359375 191.03125 C 170.25 191.4375 159.308594 193.03125 148.546875 195.816406 C 137.78125 198.601562 127.441406 202.511719 117.527344 207.546875 C 110.226562 186.582031 106.320312 162.710938 106.320312 137.828125 C 106.320312 112.957031 110.222656 89.089844 117.527344 68.121094 C 127.441406 73.15625 137.78125 77.066406 148.546875 79.851562 C 159.308594 82.636719 170.25 84.230469 181.359375 84.636719 Z M 181.359375 203.296875 C 171.011719 203.710938 160.828125 205.246094 150.816406 207.902344 C 140.804688 210.558594 131.203125 214.269531 122.007812 219.039062 C 124.621094 225.117188 127.632812 230.992188 131.042969 236.660156 C 144.925781 259.582031 162.601562 273.21875 181.363281 275.664062 L 181.363281 203.300781 Z M 120.554688 243.007812 C 129.050781 257.023438 138.917969 268.011719 149.726562 275.660156 C 144.140625 274.125 138.671875 272.257812 133.316406 270.054688 C 127.957031 267.851562 122.753906 265.332031 117.703125 262.5 C 112.65625 259.664062 107.792969 256.53125 103.125 253.105469 C 98.457031 249.679688 94.011719 245.980469 89.792969 242.011719 C 96.4375 235.714844 103.617188 230.113281 111.339844 225.199219 C 114.019531 231.339844 117.09375 237.277344 120.554688 243.007812 Z M 293.769531 233.253906 C 295.226562 231.632812 296.644531 229.984375 298.027344 228.300781 C 299.40625 226.617188 300.75 224.902344 302.050781 223.15625 C 303.355469 221.410156 304.617188 219.636719 305.839844 217.832031 C 307.058594 216.027344 308.238281 214.199219 309.378906 212.339844 C 310.515625 210.484375 311.609375 208.601562 312.660156 206.695312 C 313.714844 204.789062 314.71875 202.855469 315.683594 200.902344 C 316.648438 198.949219 317.5625 196.976562 318.4375 194.980469 C 319.308594 192.984375 320.136719 190.96875 320.917969 188.9375 C 321.695312 186.902344 322.429688 184.851562 323.117188 182.785156 C 323.800781 180.71875 324.441406 178.636719 325.03125 176.539062 C 325.625 174.445312 326.167969 172.335938 326.660156 170.214844 C 327.15625 168.09375 327.601562 165.960938 327.996094 163.820312 C 328.394531 161.679688 328.742188 159.527344 329.039062 157.371094 C 329.339844 155.214844 329.585938 153.050781 329.785156 150.882812 C 329.984375 148.710938 330.136719 146.539062 330.234375 144.363281 C 330.335938 142.1875 330.382812 140.011719 330.382812 137.832031 C 330.382812 135.65625 330.335938 133.480469 330.234375 131.304688 C 330.136719 129.128906 329.984375 126.953125 329.785156 124.785156 C 329.585938 122.617188 329.339844 120.453125 329.039062 118.296875 C 328.742188 116.140625 328.394531 113.988281 327.996094 111.847656 C 327.601562 109.707031 327.15625 107.574219 326.660156 105.453125 C 326.167969 103.332031 325.625 101.222656 325.03125 99.128906 C 324.441406 97.03125 323.800781 94.949219 323.117188 92.882812 C 322.429688 90.816406 321.695312 88.765625 320.917969 86.730469 C 320.136719 84.699219 319.308594 82.683594 318.4375 80.6875 C 317.5625 78.691406 316.648438 76.71875 315.683594 74.765625 C 314.71875 72.8125 313.714844 70.878906 312.660156 68.972656 C 311.609375 67.066406 310.515625 65.183594 309.378906 63.324219 C 308.238281 61.46875 307.058594 59.636719 305.839844 57.835938 C 304.617188 56.03125 303.355469 54.257812 302.050781 52.511719 C 300.75 50.765625 299.40625 49.050781 298.027344 47.367188 C 296.644531 45.683594 295.226562 44.03125 293.769531 42.414062 C 285.964844 49.832031 277.480469 56.375 268.324219 62.035156 C 276.5625 84.808594 280.9375 110.800781 280.9375 137.828125 C 280.9375 164.863281 276.5625 190.855469 268.324219 213.628906 C 277.484375 219.289062 285.964844 225.832031 293.769531 233.253906 Z M 81.230469 42.414062 C 79.773438 44.03125 78.351562 45.683594 76.96875 47.367188 C 75.585938 49.050781 74.242188 50.765625 72.9375 52.507812 C 71.636719 54.253906 70.371094 56.027344 69.148438 57.832031 C 67.925781 59.632812 66.746094 61.464844 65.605469 63.320312 C 64.46875 65.175781 63.371094 67.058594 62.320312 68.964844 C 61.265625 70.875 60.257812 72.804688 59.296875 74.757812 C 58.332031 76.710938 57.414062 78.6875 56.539062 80.679688 C 55.664062 82.675781 54.839844 84.691406 54.058594 86.726562 C 53.277344 88.757812 52.542969 90.808594 51.855469 92.875 C 51.167969 94.945312 50.527344 97.023438 49.9375 99.121094 C 49.34375 101.21875 48.800781 103.328125 48.304688 105.449219 C 47.8125 107.570312 47.367188 109.703125 46.96875 111.84375 C 46.570312 113.984375 46.222656 116.136719 45.925781 118.292969 C 45.625 120.449219 45.375 122.613281 45.175781 124.785156 C 44.976562 126.953125 44.828125 129.125 44.726562 131.300781 C 44.628906 133.476562 44.578125 135.65625 44.578125 137.832031 C 44.578125 140.011719 44.628906 142.1875 44.726562 144.367188 C 44.828125 146.542969 44.976562 148.714844 45.175781 150.882812 C 45.375 153.054688 45.625 155.214844 45.925781 157.375 C 46.222656 159.53125 46.570312 161.683594 46.96875 163.824219 C 47.367188 165.964844 47.8125 168.097656 48.304688 170.21875 C 48.800781 172.339844 49.34375 174.449219 49.9375 176.546875 C 50.527344 178.640625 51.167969 180.722656 51.855469 182.792969 C 52.542969 184.859375 53.277344 186.910156 54.058594 188.941406 C 54.839844 190.976562 55.664062 192.992188 56.539062 194.984375 C 57.414062 196.980469 58.332031 198.957031 59.296875 200.910156 C 60.257812 202.863281 61.265625 204.792969 62.320312 206.699219 C 63.371094 208.609375 64.46875 210.488281 65.605469 212.347656 C 66.746094 214.203125 67.925781 216.035156 69.148438 217.835938 C 70.371094 219.640625 71.636719 221.414062 72.9375 223.160156 C 74.242188 224.902344 75.585938 226.617188 76.96875 228.300781 C 78.351562 229.984375 79.773438 231.636719 81.230469 233.253906 C 89.035156 225.835938 97.519531 219.292969 106.675781 213.628906 C 98.4375 190.851562 94.0625 164.863281 94.0625 137.828125 C 94.0625 110.800781 98.4375 84.808594 106.675781 62.039062 C 97.519531 56.375 89.035156 49.832031 81.230469 42.414062 Z M 193.644531 292.941406 C 189.550781 293.09375 185.453125 293.082031 181.355469 292.90625 L 181.355469 318.332031 C 180.023438 318.628906 178.722656 319.015625 177.445312 319.496094 C 176.171875 319.976562 174.9375 320.542969 173.742188 321.199219 C 172.546875 321.855469 171.402344 322.589844 170.3125 323.410156 C 169.222656 324.226562 168.195312 325.117188 167.234375 326.082031 C 166.269531 327.042969 165.378906 328.070312 164.5625 329.160156 C 163.742188 330.25 163.007812 331.394531 162.351562 332.589844 C 161.695312 333.78125 161.128906 335.019531 160.648438 336.292969 C 160.167969 337.570312 159.78125 338.871094 159.488281 340.203125 L 89 340.203125 C 88.878906 339.632812 88.734375 339.066406 88.578125 338.507812 C 88.417969 337.945312 88.242188 337.390625 88.046875 336.839844 C 87.855469 336.292969 87.644531 335.75 87.417969 335.210938 C 87.195312 334.675781 86.953125 334.144531 86.691406 333.621094 C 86.433594 333.101562 86.160156 332.585938 85.871094 332.082031 C 85.582031 331.574219 85.277344 331.078125 84.957031 330.589844 C 84.636719 330.105469 84.300781 329.628906 83.953125 329.160156 C 83.605469 328.695312 83.242188 328.238281 82.863281 327.792969 C 82.488281 327.351562 82.097656 326.917969 81.695312 326.496094 C 81.292969 326.074219 80.875 325.667969 80.449219 325.273438 C 80.019531 324.875 79.578125 324.496094 79.128906 324.125 C 78.675781 323.757812 78.214844 323.402344 77.742188 323.0625 C 77.269531 322.722656 76.785156 322.398438 76.292969 322.085938 C 75.800781 321.773438 75.296875 321.480469 74.789062 321.199219 C 74.277344 320.917969 73.757812 320.65625 73.230469 320.40625 C 72.703125 320.15625 72.167969 319.925781 71.628906 319.707031 C 71.085938 319.492188 70.539062 319.292969 69.988281 319.109375 C 69.433594 318.925781 68.875 318.761719 68.3125 318.613281 C 67.75 318.464844 67.179688 318.332031 66.609375 318.21875 C 66.039062 318.105469 65.464844 318.007812 64.886719 317.929688 C 64.308594 317.851562 63.730469 317.789062 63.148438 317.746094 C 62.566406 317.703125 61.984375 317.675781 61.402344 317.667969 C 60.820312 317.660156 60.238281 317.667969 59.65625 317.695312 C 59.074219 317.722656 58.492188 317.769531 57.914062 317.832031 C 57.335938 317.894531 56.757812 317.972656 56.183594 318.070312 C 55.609375 318.167969 55.039062 318.285156 54.46875 318.417969 C 53.902344 318.550781 53.339844 318.699219 52.78125 318.867188 C 52.222656 319.035156 51.671875 319.21875 51.125 319.417969 C 50.578125 319.617188 50.035156 319.835938 49.503906 320.070312 C 48.96875 320.304688 48.441406 320.554688 47.925781 320.820312 C 47.40625 321.085938 46.894531 321.367188 46.394531 321.664062 C 45.894531 321.960938 45.402344 322.269531 44.917969 322.597656 C 44.4375 322.925781 43.964844 323.265625 43.503906 323.621094 C 43.039062 323.976562 42.589844 324.347656 42.152344 324.730469 C 41.710938 325.113281 41.285156 325.507812 40.871094 325.917969 C 40.457031 326.328125 40.054688 326.75 39.664062 327.183594 C 39.273438 327.617188 38.898438 328.0625 38.535156 328.515625 C 38.175781 328.972656 37.828125 329.441406 37.492188 329.917969 C 37.160156 330.394531 36.839844 330.882812 36.535156 331.382812 C 36.234375 331.878906 35.945312 332.382812 35.671875 332.898438 C 35.398438 333.414062 35.140625 333.9375 34.898438 334.46875 C 34.660156 334.996094 34.433594 335.535156 34.226562 336.078125 C 34.015625 336.621094 33.824219 337.171875 33.652344 337.730469 C 33.476562 338.285156 33.316406 338.84375 33.175781 339.410156 C 33.035156 339.976562 32.914062 340.546875 32.808594 341.117188 C 32.703125 341.691406 32.613281 342.265625 32.542969 342.84375 C 32.472656 343.425781 32.417969 344.003906 32.382812 344.585938 C 32.347656 345.167969 32.328125 345.75 32.328125 346.332031 C 32.328125 346.914062 32.347656 347.496094 32.382812 348.078125 C 32.417969 348.660156 32.472656 349.242188 32.542969 349.820312 C 32.613281 350.398438 32.703125 350.972656 32.808594 351.546875 C 32.914062 352.117188 33.035156 352.6875 33.175781 353.253906 C 33.316406 353.820312 33.476562 354.378906 33.652344 354.933594 C 33.824219 355.492188 34.015625 356.042969 34.226562 356.585938 C 34.433594 357.128906 34.660156 357.667969 34.898438 358.199219 C 35.140625 358.726562 35.398438 359.25 35.671875 359.765625 C 35.945312 360.28125 36.234375 360.785156 36.535156 361.285156 C 36.839844 361.78125 37.160156 362.269531 37.492188 362.746094 C 37.828125 363.222656 38.175781 363.691406 38.535156 364.148438 C 38.898438 364.605469 39.273438 365.046875 39.664062 365.480469 C 40.054688 365.914062 40.457031 366.335938 40.871094 366.746094 C 41.285156 367.15625 41.710938 367.550781 42.152344 367.933594 C 42.589844 368.316406 43.039062 368.6875 43.503906 369.042969 C 43.964844 369.398438 44.4375 369.738281 44.917969 370.066406 C 45.402344 370.394531 45.894531 370.703125 46.394531 371 C 46.894531 371.296875 47.40625 371.578125 47.925781 371.84375 C 48.441406 372.113281 48.96875 372.359375 49.503906 372.59375 C 50.035156 372.828125 50.578125 373.046875 51.125 373.246094 C 51.671875 373.445312 52.222656 373.628906 52.78125 373.796875 C 53.339844 373.964844 53.902344 374.113281 54.46875 374.246094 C 55.039062 374.378906 55.609375 374.496094 56.183594 374.59375 C 56.757812 374.691406 57.335938 374.769531 57.914062 374.832031 C 58.492188 374.894531 59.074219 374.941406 59.65625 374.96875 C 60.238281 374.996094 60.820312 375.003906 61.402344 374.996094 C 61.984375 374.988281 62.566406 374.960938 63.148438 374.917969 C 63.730469 374.875 64.308594 374.8125 64.886719 374.734375 C 65.464844 374.65625 66.039062 374.558594 66.609375 374.445312 C 67.179688 374.332031 67.75 374.199219 68.3125 374.050781 C 68.875 373.902344 69.433594 373.738281 69.988281 373.554688 C 70.539062 373.371094 71.085938 373.171875 71.628906 372.957031 C 72.167969 372.738281 72.703125 372.507812 73.230469 372.257812 C 73.757812 372.011719 74.277344 371.746094 74.789062 371.464844 C 75.296875 371.183594 75.800781 370.890625 76.292969 370.578125 C 76.785156 370.265625 77.269531 369.941406 77.742188 369.601562 C 78.214844 369.261719 78.675781 368.90625 79.128906 368.539062 C 79.578125 368.167969 80.019531 367.789062 80.449219 367.390625 C 80.875 366.996094 81.292969 366.589844 81.695312 366.167969 C 82.097656 365.746094 82.488281 365.316406 82.863281 364.871094 C 83.242188 364.425781 83.605469 363.96875 83.953125 363.503906 C 84.300781 363.035156 84.636719 362.558594 84.957031 362.074219 C 85.277344 361.585938 85.582031 361.089844 85.871094 360.585938 C 86.160156 360.078125 86.433594 359.566406 86.691406 359.042969 C 86.953125 358.519531 87.195312 357.992188 87.417969 357.453125 C 87.644531 356.917969 87.855469 356.371094 88.046875 355.824219 C 88.242188 355.273438 88.417969 354.71875 88.578125 354.15625 C 88.734375 353.597656 88.878906 353.03125 89 352.460938 L 159.488281 352.460938 C 159.835938 354.046875 160.3125 355.59375 160.921875 357.097656 C 161.53125 358.601562 162.265625 360.042969 163.121094 361.421875 C 163.972656 362.800781 164.9375 364.101562 166.015625 365.316406 C 167.089844 366.53125 168.257812 367.648438 169.523438 368.667969 C 170.789062 369.683594 172.128906 370.585938 173.546875 371.378906 C 174.964844 372.167969 176.4375 372.832031 177.96875 373.371094 C 179.5 373.910156 181.066406 374.316406 182.664062 374.589844 C 184.265625 374.863281 185.878906 375 187.5 375 C 189.121094 375 190.734375 374.863281 192.335938 374.589844 C 193.933594 374.316406 195.5 373.910156 197.03125 373.371094 C 198.5625 372.832031 200.035156 372.167969 201.453125 371.378906 C 202.871094 370.585938 204.210938 369.683594 205.476562 368.667969 C 206.742188 367.648438 207.910156 366.53125 208.984375 365.316406 C 210.0625 364.101562 211.027344 362.800781 211.878906 361.421875 C 212.734375 360.042969 213.46875 358.601562 214.078125 357.097656 C 214.6875 355.59375 215.164062 354.046875 215.511719 352.460938 L 284.300781 352.460938 C 284.863281 352.460938 285.417969 352.382812 285.960938 352.230469 C 286.082031 352.804688 286.21875 353.371094 286.375 353.933594 C 286.53125 354.496094 286.703125 355.054688 286.890625 355.609375 C 287.078125 356.160156 287.285156 356.707031 287.507812 357.25 C 287.730469 357.789062 287.96875 358.320312 288.222656 358.847656 C 288.480469 359.371094 288.75 359.890625 289.035156 360.398438 C 289.324219 360.910156 289.625 361.410156 289.941406 361.898438 C 290.261719 362.390625 290.59375 362.871094 290.9375 363.339844 C 291.285156 363.808594 291.644531 364.269531 292.019531 364.71875 C 292.394531 365.167969 292.785156 365.601562 293.183594 366.027344 C 293.585938 366.453125 294 366.863281 294.425781 367.261719 C 294.855469 367.660156 295.292969 368.046875 295.742188 368.421875 C 296.191406 368.792969 296.652344 369.152344 297.125 369.496094 C 297.597656 369.839844 298.082031 370.167969 298.574219 370.484375 C 299.066406 370.796875 299.566406 371.097656 300.078125 371.382812 C 300.585938 371.664062 301.105469 371.933594 301.632812 372.1875 C 302.160156 372.4375 302.695312 372.675781 303.234375 372.894531 C 303.777344 373.113281 304.324219 373.316406 304.878906 373.503906 C 305.433594 373.6875 305.992188 373.859375 306.554688 374.011719 C 307.121094 374.160156 307.6875 374.296875 308.261719 374.414062 C 308.832031 374.53125 309.410156 374.628906 309.988281 374.710938 C 310.566406 374.792969 311.144531 374.859375 311.730469 374.90625 C 312.3125 374.953125 312.894531 374.980469 313.476562 374.992188 C 314.0625 375.003906 314.648438 374.996094 315.230469 374.96875 C 315.8125 374.945312 316.394531 374.902344 316.976562 374.84375 C 317.558594 374.78125 318.136719 374.703125 318.714844 374.609375 C 319.289062 374.511719 319.863281 374.398438 320.433594 374.269531 C 321.003906 374.136719 321.566406 373.988281 322.128906 373.824219 C 322.6875 373.660156 323.242188 373.476562 323.792969 373.277344 C 324.339844 373.078125 324.882812 372.863281 325.417969 372.628906 C 325.957031 372.394531 326.484375 372.148438 327.003906 371.882812 C 327.527344 371.617188 328.039062 371.335938 328.542969 371.042969 C 329.046875 370.746094 329.539062 370.433594 330.023438 370.109375 C 330.507812 369.78125 330.984375 369.441406 331.445312 369.085938 C 331.910156 368.730469 332.363281 368.359375 332.804688 367.976562 C 333.246094 367.59375 333.675781 367.199219 334.089844 366.789062 C 334.507812 366.378906 334.914062 365.957031 335.304688 365.523438 C 335.695312 365.089844 336.070312 364.644531 336.4375 364.1875 C 336.800781 363.730469 337.148438 363.261719 337.484375 362.785156 C 337.820312 362.304688 338.140625 361.816406 338.445312 361.320312 C 338.75 360.820312 339.042969 360.3125 339.316406 359.796875 C 339.589844 359.28125 339.847656 358.757812 340.089844 358.226562 C 340.335938 357.695312 340.558594 357.15625 340.769531 356.613281 C 340.980469 356.066406 341.171875 355.515625 341.347656 354.957031 C 341.523438 354.402344 341.683594 353.839844 341.824219 353.273438 C 341.964844 352.703125 342.089844 352.132812 342.195312 351.558594 C 342.300781 350.984375 342.390625 350.410156 342.460938 349.828125 C 342.535156 349.25 342.585938 348.667969 342.621094 348.082031 C 342.660156 347.5 342.675781 346.917969 342.675781 346.332031 C 342.675781 345.75 342.660156 345.164062 342.621094 344.582031 C 342.585938 344 342.535156 343.417969 342.460938 342.835938 C 342.390625 342.257812 342.300781 341.679688 342.195312 341.105469 C 342.089844 340.53125 341.964844 339.960938 341.824219 339.394531 C 341.683594 338.824219 341.523438 338.265625 341.347656 337.707031 C 341.171875 337.148438 340.980469 336.597656 340.769531 336.054688 C 340.558594 335.507812 340.335938 334.96875 340.089844 334.4375 C 339.847656 333.90625 339.589844 333.382812 339.316406 332.867188 C 339.042969 332.351562 338.75 331.84375 338.445312 331.347656 C 338.140625 330.847656 337.820312 330.359375 337.484375 329.882812 C 337.148438 329.402344 336.800781 328.933594 336.4375 328.476562 C 336.070312 328.019531 335.695312 327.574219 335.304688 327.140625 C 334.910156 326.707031 334.507812 326.285156 334.089844 325.875 C 333.675781 325.46875 333.246094 325.070312 332.804688 324.6875 C 332.363281 324.304688 331.910156 323.933594 331.445312 323.582031 C 330.984375 323.226562 330.507812 322.882812 330.023438 322.558594 C 329.539062 322.230469 329.046875 321.917969 328.542969 321.625 C 328.039062 321.328125 327.527344 321.046875 327.003906 320.78125 C 326.484375 320.515625 325.957031 320.269531 325.417969 320.035156 C 324.882812 319.804688 324.339844 319.585938 323.792969 319.386719 C 323.242188 319.1875 322.6875 319.007812 322.128906 318.839844 C 321.566406 318.675781 321 318.527344 320.433594 318.398438 C 319.863281 318.265625 319.289062 318.152344 318.714844 318.058594 C 318.136719 317.960938 317.558594 317.882812 316.976562 317.824219 C 316.394531 317.761719 315.8125 317.71875 315.230469 317.695312 C 314.648438 317.667969 314.0625 317.664062 313.476562 317.671875 C 312.894531 317.683594 312.3125 317.714844 311.730469 317.757812 C 311.144531 317.804688 310.566406 317.871094 309.988281 317.953125 C 309.410156 318.035156 308.832031 318.132812 308.261719 318.25 C 307.6875 318.367188 307.121094 318.503906 306.554688 318.65625 C 305.992188 318.808594 305.433594 318.976562 304.878906 319.164062 C 304.324219 319.347656 303.777344 319.550781 303.234375 319.769531 C 302.695312 319.992188 302.160156 320.226562 301.632812 320.480469 C 301.105469 320.730469 300.585938 321 300.078125 321.285156 C 299.566406 321.566406 299.066406 321.867188 298.574219 322.183594 C 298.082031 322.496094 297.597656 322.824219 297.125 323.171875 C 296.652344 323.515625 296.191406 323.871094 295.742188 324.246094 C 295.292969 324.617188 294.855469 325.003906 294.425781 325.402344 C 294 325.800781 293.585938 326.214844 293.183594 326.636719 C 292.785156 327.0625 292.394531 327.5 292.019531 327.945312 C 291.644531 328.394531 291.285156 328.855469 290.9375 329.324219 C 290.59375 329.796875 290.261719 330.277344 289.941406 330.765625 C 289.625 331.257812 289.324219 331.757812 289.035156 332.265625 C 288.75 332.773438 288.480469 333.292969 288.222656 333.816406 C 287.96875 334.34375 287.730469 334.875 287.507812 335.417969 C 287.285156 335.957031 287.078125 336.503906 286.890625 337.054688 C 286.703125 337.609375 286.53125 338.167969 286.375 338.730469 C 286.21875 339.292969 286.082031 339.863281 285.960938 340.433594 C 285.417969 340.28125 284.863281 340.203125 284.300781 340.203125 L 215.511719 340.203125 C 215.21875 338.871094 214.832031 337.570312 214.351562 336.292969 C 213.871094 335.019531 213.304688 333.78125 212.648438 332.589844 C 211.992188 331.394531 211.257812 330.25 210.4375 329.160156 C 209.621094 328.070312 208.730469 327.042969 207.765625 326.082031 C 206.804688 325.117188 205.777344 324.226562 204.6875 323.410156 C 203.597656 322.589844 202.453125 321.855469 201.257812 321.199219 C 200.0625 320.542969 198.828125 319.976562 197.554688 319.496094 C 196.277344 319.015625 194.976562 318.628906 193.644531 318.332031 Z M 193.644531 292.941406 " clip-rule="evenodd"/></clipPath><linearGradient x1="256" gradientTransform="matrix(0.732422, 0, 0, 0.732422, 0.0000045, 0)" y1="512.000393" x2="256.00101" gradientUnits="userSpaceOnUse" y2="-0.000417939" id="0c40a5e97f"><stop stop-opacity="1" stop-color="rgb(0%, 47.799683%, 71.398926%)" offset="0"/><stop stop-opacity="1" stop-color="rgb(0%, 47.903442%, 71.554565%)" offset="0.00000163255"/><stop stop-opacity="1" stop-color="rgb(0%, 48.008728%, 71.711731%)" offset="0.015625"/><stop stop-opacity="1" stop-color="rgb(0%, 48.112488%, 71.867371%)" offset="0.03125"/><stop stop-opacity="1" stop-color="rgb(0%, 48.321533%, 72.180176%)" offset="0.046875"/><stop stop-opacity="1" stop-color="rgb(0%, 48.532104%, 72.492981%)" offset="0.0625"/><stop stop-opacity="1" stop-color="rgb(0%, 48.74115%, 72.80426%)" offset="0.078125"/><stop stop-opacity="1" stop-color="rgb(0%, 48.950195%, 73.117065%)" offset="0.09375"/><stop stop-opacity="1" stop-color="rgb(0%, 49.159241%, 73.429871%)" offset="0.109375"/><stop stop-opacity="1" stop-color="rgb(0%, 49.368286%, 73.742676%)" offset="0.125"/><stop stop-opacity="1" stop-color="rgb(0%, 49.578857%, 74.055481%)" offset="0.140625"/><stop stop-opacity="1" stop-color="rgb(0%, 49.787903%, 74.36676%)" offset="0.15625"/><stop stop-opacity="1" stop-color="rgb(0%, 49.996948%, 74.679565%)" offset="0.171875"/><stop stop-opacity="1" stop-color="rgb(0%, 50.205994%, 74.992371%)" offset="0.1875"/><stop stop-opacity="1" stop-color="rgb(0%, 50.416565%, 75.305176%)" offset="0.203125"/><stop stop-opacity="1" stop-color="rgb(0%, 50.62561%, 75.617981%)" offset="0.21875"/><stop stop-opacity="1" stop-color="rgb(0%, 50.834656%, 75.92926%)" offset="0.234375"/><stop stop-opacity="1" stop-color="rgb(0%, 51.043701%, 76.242065%)" offset="0.25"/><stop stop-opacity="1" stop-color="rgb(0%, 51.252747%, 76.554871%)" offset="0.265625"/><stop stop-opacity="1" stop-color="rgb(0%, 51.463318%, 76.867676%)" offset="0.28125"/><stop stop-opacity="1" stop-color="rgb(0%, 51.672363%, 77.180481%)" offset="0.296875"/><stop stop-opacity="1" stop-color="rgb(0%, 51.881409%, 77.49176%)" offset="0.3125"/><stop stop-opacity="1" stop-color="rgb(0%, 52.090454%, 77.804565%)" offset="0.328125"/><stop stop-opacity="1" stop-color="rgb(0%, 52.2995%, 78.117371%)" offset="0.34375"/><stop stop-opacity="1" stop-color="rgb(0%, 52.510071%, 78.430176%)" offset="0.359375"/><stop stop-opacity="1" stop-color="rgb(0%, 52.719116%, 78.742981%)" offset="0.375"/><stop stop-opacity="1" stop-color="rgb(0%, 52.928162%, 79.05426%)" offset="0.390625"/><stop stop-opacity="1" stop-color="rgb(0%, 53.137207%, 79.367065%)" offset="0.40625"/><stop stop-opacity="1" stop-color="rgb(0%, 53.347778%, 79.679871%)" offset="0.421875"/><stop stop-opacity="1" stop-color="rgb(0%, 53.556824%, 79.992676%)" offset="0.4375"/><stop stop-opacity="1" stop-color="rgb(0%, 53.765869%, 80.305481%)" offset="0.453125"/><stop stop-opacity="1" stop-color="rgb(0%, 53.974915%, 80.61676%)" offset="0.46875"/><stop stop-opacity="1" stop-color="rgb(0%, 54.18396%, 80.929565%)" offset="0.484375"/><stop stop-opacity="1" stop-color="rgb(0%, 54.394531%, 81.242371%)" offset="0.5"/><stop stop-opacity="1" stop-color="rgb(0%, 54.603577%, 81.555176%)" offset="0.515625"/><stop stop-opacity="1" stop-color="rgb(0%, 54.812622%, 81.867981%)" offset="0.53125"/><stop stop-opacity="1" stop-color="rgb(0%, 55.021667%, 82.17926%)" offset="0.546875"/><stop stop-opacity="1" stop-color="rgb(0%, 55.230713%, 82.492065%)" offset="0.5625"/><stop stop-opacity="1" stop-color="rgb(0%, 55.441284%, 82.804871%)" offset="0.578125"/><stop stop-opacity="1" stop-color="rgb(0%, 55.65033%, 83.117676%)" offset="0.59375"/><stop stop-opacity="1" stop-color="rgb(0%, 55.859375%, 83.430481%)" offset="0.609375"/><stop stop-opacity="1" stop-color="rgb(0%, 56.06842%, 83.74176%)" offset="0.625"/><stop stop-opacity="1" stop-color="rgb(0%, 56.278992%, 84.054565%)" offset="0.640625"/><stop stop-opacity="1" stop-color="rgb(0%, 56.488037%, 84.367371%)" offset="0.65625"/><stop stop-opacity="1" stop-color="rgb(0%, 56.697083%, 84.680176%)" offset="0.671875"/><stop stop-opacity="1" stop-color="rgb(0%, 56.906128%, 84.992981%)" offset="0.6875"/><stop stop-opacity="1" stop-color="rgb(0%, 57.115173%, 85.30426%)" offset="0.703125"/><stop stop-opacity="1" stop-color="rgb(0%, 57.325745%, 85.617065%)" offset="0.71875"/><stop stop-opacity="1" stop-color="rgb(0%, 57.53479%, 85.929871%)" offset="0.734375"/><stop stop-opacity="1" stop-color="rgb(0%, 57.743835%, 86.242676%)" offset="0.75"/><stop stop-opacity="1" stop-color="rgb(0%, 57.952881%, 86.555481%)" offset="0.765625"/><stop stop-opacity="1" stop-color="rgb(0%, 58.163452%, 86.86676%)" offset="0.78125"/><stop stop-opacity="1" stop-color="rgb(0%, 58.372498%, 87.179565%)" offset="0.796875"/><stop stop-opacity="1" stop-color="rgb(0%, 58.581543%, 87.492371%)" offset="0.8125"/><stop stop-opacity="1" stop-color="rgb(0%, 58.790588%, 87.805176%)" offset="0.828125"/><stop stop-opacity="1" stop-color="rgb(0%, 58.999634%, 88.117981%)" offset="0.84375"/><stop stop-opacity="1" stop-color="rgb(0%, 59.210205%, 88.42926%)" offset="0.859375"/><stop stop-opacity="1" stop-color="rgb(0%, 59.41925%, 88.742065%)" offset="0.875"/><stop stop-opacity="1" stop-color="rgb(0%, 59.628296%, 89.054871%)" offset="0.890625"/><stop stop-opacity="1" stop-color="rgb(0%, 59.837341%, 89.367676%)" offset="0.90625"/><stop stop-opacity="1" stop-color="rgb(0%, 60.046387%, 89.680481%)" offset="0.921875"/><stop stop-opacity="1" stop-color="rgb(0%, 60.256958%, 89.99176%)" offset="0.9375"/><stop stop-opacity="1" stop-color="rgb(0%, 60.466003%, 90.304565%)" offset="0.953125"/><stop stop-opacity="1" stop-color="rgb(0%, 60.675049%, 90.617371%)" offset="0.96875"/><stop stop-opacity="1" stop-color="rgb(0%, 60.884094%, 90.930176%)" offset="0.984375"/><stop stop-opacity="1" stop-color="rgb(0%, 61.094666%, 91.242981%)" offset="0.999998"/><stop stop-opacity="1" stop-color="rgb(0%, 61.199951%, 91.398621%)" offset="1"/></linearGradient></defs><g clip-path="url(#6a2718e60f)"><g clip-path="url(#7161fab625)"><path fill="url(#0c40a5e97f)" d="M 32.328125 0 L 32.328125 375 L 342.675781 375 L 342.675781 0 Z M 32.328125 0 " fill-rule="nonzero"/></g></g></svg>