<svg xmlns="http://www.w3.org/2000/svg" xmlns:xlink="http://www.w3.org/1999/xlink" width="500" zoomAndPan="magnify" viewBox="0 0 375 374.999991" height="500" preserveAspectRatio="xMidYMid meet" version="1.0"><defs><clipPath id="1ed1478667"><path d="M 247.148438 21.039062 C 230.542969 6.859375 209.4375 0 187.71875 0 C 185.082031 0.00390625 182.449219 0.125 179.820312 0.359375 C 177.195312 0.597656 174.582031 0.949219 171.984375 1.417969 C 169.390625 1.882812 166.820312 2.464844 164.273438 3.160156 C 161.730469 3.855469 159.21875 4.660156 156.746094 5.574219 C 154.273438 6.492188 151.84375 7.515625 149.460938 8.648438 C 147.078125 9.777344 144.746094 11.011719 142.472656 12.347656 C 140.199219 13.683594 137.988281 15.117188 135.839844 16.652344 C 133.691406 18.183594 131.617188 19.804688 129.613281 21.523438 C 127.609375 23.238281 125.683594 25.039062 123.839844 26.921875 C 121.992188 28.808594 120.234375 30.773438 118.5625 32.8125 C 116.890625 34.851562 115.3125 36.964844 113.828125 39.144531 C 112.34375 41.324219 110.957031 43.566406 109.671875 45.867188 C 108.382812 48.171875 107.199219 50.527344 106.121094 52.933594 C 105.042969 55.339844 104.070312 57.792969 103.210938 60.285156 C 102.347656 62.777344 101.59375 65.304688 100.957031 67.863281 C 100.316406 70.421875 99.792969 73.003906 99.378906 75.609375 L 98.699219 79.976562 L 94.335938 80.65625 C 92.960938 80.871094 91.59375 81.117188 90.230469 81.398438 C 88.867188 81.675781 87.511719 81.984375 86.164062 82.328125 C 84.816406 82.667969 83.476562 83.039062 82.144531 83.445312 C 80.816406 83.847656 79.496094 84.285156 78.183594 84.75 C 76.875 85.214844 75.574219 85.710938 74.289062 86.238281 C 73 86.765625 71.726562 87.320312 70.464844 87.90625 C 69.203125 88.492188 67.957031 89.109375 66.722656 89.75 C 65.492188 90.394531 64.273438 91.070312 63.074219 91.769531 C 61.871094 92.46875 60.6875 93.199219 59.519531 93.957031 C 58.355469 94.710938 57.207031 95.496094 56.074219 96.304688 C 54.945312 97.113281 53.832031 97.949219 52.742188 98.8125 C 51.648438 99.671875 50.578125 100.558594 49.527344 101.472656 C 48.480469 102.382812 47.449219 103.320312 46.445312 104.277344 C 45.4375 105.238281 44.453125 106.222656 43.492188 107.226562 C 42.53125 108.230469 41.597656 109.257812 40.683594 110.308594 C 39.769531 111.359375 38.882812 112.429688 38.019531 113.519531 C 37.15625 114.609375 36.320312 115.71875 35.511719 116.851562 C 34.699219 117.980469 33.914062 119.128906 33.15625 120.292969 C 32.402344 121.460938 31.671875 122.644531 30.96875 123.84375 C 30.265625 125.042969 29.59375 126.261719 28.949219 127.492188 C 28.300781 128.726562 27.6875 129.972656 27.097656 131.230469 C 26.511719 132.492188 25.953125 133.765625 25.425781 135.054688 C 24.898438 136.339844 24.402344 137.636719 23.933594 138.949219 C 23.46875 140.257812 23.03125 141.578125 22.625 142.910156 C 22.222656 144.238281 21.847656 145.578125 21.503906 146.925781 C 21.160156 148.273438 20.851562 149.628906 20.570312 150.992188 C 20.289062 152.351562 20.042969 153.722656 19.828125 155.09375 C 19.613281 156.46875 19.429688 157.847656 19.277344 159.230469 C 19.125 160.613281 19.003906 161.996094 18.917969 163.382812 C 18.832031 164.773438 18.777344 166.160156 18.757812 167.550781 C 18.734375 168.941406 18.746094 170.332031 18.789062 171.722656 C 18.832031 173.113281 18.90625 174.5 19.011719 175.886719 C 19.121094 177.273438 19.261719 178.65625 19.433594 180.039062 C 19.605469 181.417969 19.8125 182.792969 20.046875 184.164062 C 20.285156 185.535156 20.550781 186.898438 20.851562 188.253906 C 21.152344 189.613281 21.484375 190.964844 21.847656 192.304688 C 22.210938 193.648438 22.605469 194.980469 23.03125 196.304688 C 23.457031 197.628906 23.914062 198.941406 24.398438 200.246094 C 24.886719 201.546875 25.402344 202.839844 25.949219 204.117188 C 26.496094 205.394531 27.074219 206.660156 27.679688 207.914062 C 28.285156 209.164062 28.921875 210.402344 29.585938 211.625 C 30.25 212.847656 30.941406 214.050781 31.660156 215.242188 C 32.378906 216.429688 33.128906 217.601562 33.902344 218.757812 C 34.675781 219.914062 35.480469 221.050781 36.308594 222.167969 C 37.136719 223.285156 37.988281 224.382812 38.867188 225.460938 C 39.746094 226.535156 40.648438 227.59375 41.578125 228.628906 C 42.507812 229.664062 43.460938 230.675781 44.433594 231.667969 C 45.410156 232.660156 46.410156 233.625 47.429688 234.570312 C 48.449219 235.515625 49.492188 236.433594 50.558594 237.332031 C 51.621094 238.226562 52.707031 239.097656 53.808594 239.941406 C 54.914062 240.785156 56.039062 241.605469 57.179688 242.398438 C 58.324219 243.191406 59.484375 243.957031 60.660156 244.695312 C 61.839844 245.433594 63.035156 246.144531 64.246094 246.828125 C 65.457031 247.507812 66.6875 248.164062 67.929688 248.789062 C 69.167969 249.414062 70.425781 250.011719 71.695312 250.578125 C 72.964844 251.144531 74.25 251.679688 75.542969 252.1875 C 76.839844 252.695312 78.144531 253.171875 79.460938 253.617188 C 80.777344 254.0625 82.105469 254.476562 83.441406 254.863281 C 84.78125 255.246094 86.125 255.597656 87.476562 255.917969 C 88.832031 256.242188 90.191406 256.53125 91.558594 256.789062 C 92.921875 257.046875 94.296875 257.269531 95.671875 257.464844 C 97.050781 257.660156 98.429688 257.820312 99.816406 257.949219 C 101.199219 258.078125 102.585938 258.175781 103.976562 258.238281 C 105.363281 258.304688 106.753906 258.335938 108.144531 258.335938 L 177.886719 258.335938 L 177.886719 301.117188 L 174.023438 302.613281 C 171.601562 303.550781 169.300781 304.730469 167.125 306.144531 C 164.949219 307.5625 162.9375 309.183594 161.097656 311.015625 C 159.257812 312.847656 157.625 314.851562 156.199219 317.019531 C 154.773438 319.191406 153.585938 321.484375 152.636719 323.902344 L 151.128906 327.742188 L 73.820312 327.742188 L 72.3125 323.90625 C 72.050781 323.238281 71.769531 322.574219 71.46875 321.921875 C 71.167969 321.269531 70.847656 320.625 70.511719 319.988281 C 70.171875 319.351562 69.816406 318.726562 69.441406 318.113281 C 69.066406 317.5 68.675781 316.894531 68.265625 316.304688 C 67.859375 315.710938 67.433594 315.132812 66.992188 314.5625 C 66.546875 313.996094 66.089844 313.441406 65.617188 312.902344 C 65.140625 312.359375 64.652344 311.832031 64.148438 311.320312 C 63.640625 310.808594 63.121094 310.308594 62.589844 309.828125 C 62.054688 309.34375 61.507812 308.875 60.949219 308.425781 C 60.386719 307.972656 59.816406 307.539062 59.230469 307.121094 C 58.644531 306.703125 58.046875 306.300781 57.4375 305.917969 C 56.828125 305.53125 56.210938 305.167969 55.582031 304.820312 C 54.953125 304.472656 54.3125 304.140625 53.664062 303.828125 C 53.015625 303.519531 52.355469 303.226562 51.691406 302.953125 C 51.027344 302.679688 50.351562 302.425781 49.671875 302.191406 C 48.992188 301.957031 48.304688 301.742188 47.613281 301.546875 C 46.921875 301.351562 46.222656 301.175781 45.519531 301.023438 C 44.816406 300.867188 44.109375 300.734375 43.402344 300.617188 C 42.691406 300.503906 41.976562 300.410156 41.261719 300.339844 C 40.546875 300.265625 39.828125 300.214844 39.109375 300.183594 C 38.390625 300.148438 37.671875 300.140625 36.953125 300.148438 C 36.230469 300.160156 35.511719 300.191406 34.796875 300.242188 C 34.078125 300.292969 33.363281 300.367188 32.648438 300.457031 C 31.933594 300.550781 31.222656 300.664062 30.515625 300.796875 C 29.808594 300.929688 29.109375 301.085938 28.410156 301.257812 C 27.710938 301.433594 27.019531 301.628906 26.332031 301.84375 C 25.644531 302.054688 24.964844 302.289062 24.292969 302.542969 C 23.617188 302.796875 22.953125 303.070312 22.292969 303.363281 C 21.636719 303.652344 20.988281 303.964844 20.347656 304.292969 C 19.707031 304.621094 19.078125 304.96875 18.457031 305.335938 C 17.839844 305.699219 17.230469 306.082031 16.632812 306.484375 C 16.035156 306.886719 15.449219 307.300781 14.875 307.738281 C 14.300781 308.171875 13.742188 308.621094 13.195312 309.089844 C 12.644531 309.554688 12.113281 310.039062 11.59375 310.535156 C 11.074219 311.03125 10.566406 311.546875 10.078125 312.070312 C 9.585938 312.597656 9.113281 313.140625 8.652344 313.691406 C 8.195312 314.246094 7.75 314.8125 7.324219 315.394531 C 6.898438 315.972656 6.488281 316.566406 6.097656 317.167969 C 5.703125 317.769531 5.328125 318.386719 4.972656 319.011719 C 4.617188 319.632812 4.277344 320.269531 3.957031 320.914062 C 3.636719 321.558594 3.335938 322.210938 3.050781 322.871094 C 2.769531 323.535156 2.507812 324.203125 2.261719 324.878906 C 2.019531 325.558594 1.792969 326.242188 1.589844 326.929688 C 1.386719 327.621094 1.199219 328.316406 1.035156 329.015625 C 0.871094 329.71875 0.726562 330.421875 0.601562 331.128906 C 0.480469 331.839844 0.375 332.550781 0.292969 333.265625 C 0.210938 333.980469 0.148438 334.699219 0.105469 335.414062 C 0.0664062 336.132812 0.0429688 336.851562 0.0429688 337.574219 C 0.0429688 338.292969 0.0664062 339.011719 0.105469 339.730469 C 0.148438 340.449219 0.210938 341.164062 0.292969 341.878906 C 0.375 342.59375 0.480469 343.304688 0.601562 344.015625 C 0.726562 344.722656 0.871094 345.429688 1.035156 346.128906 C 1.199219 346.828125 1.386719 347.523438 1.589844 348.214844 C 1.792969 348.90625 2.019531 349.585938 2.261719 350.265625 C 2.507812 350.941406 2.769531 351.609375 3.050781 352.273438 C 3.335938 352.933594 3.636719 353.585938 3.957031 354.230469 C 4.277344 354.875 4.617188 355.511719 4.972656 356.136719 C 5.328125 356.761719 5.703125 357.375 6.097656 357.976562 C 6.488281 358.582031 6.898438 359.171875 7.324219 359.753906 C 7.75 360.332031 8.195312 360.898438 8.652344 361.453125 C 9.113281 362.007812 9.585938 362.546875 10.078125 363.074219 C 10.566406 363.601562 11.074219 364.113281 11.59375 364.609375 C 12.113281 365.109375 12.644531 365.589844 13.195312 366.058594 C 13.742188 366.523438 14.300781 366.972656 14.875 367.410156 C 15.449219 367.84375 16.035156 368.261719 16.632812 368.660156 C 17.230469 369.0625 17.839844 369.445312 18.457031 369.808594 C 19.078125 370.175781 19.707031 370.523438 20.347656 370.851562 C 20.988281 371.183594 21.636719 371.492188 22.292969 371.785156 C 22.953125 372.074219 23.617188 372.347656 24.292969 372.601562 C 24.964844 372.855469 25.644531 373.089844 26.332031 373.304688 C 27.019531 373.515625 27.710938 373.710938 28.410156 373.886719 C 29.109375 374.058594 29.808594 374.214844 30.519531 374.347656 C 31.226562 374.480469 31.933594 374.59375 32.648438 374.6875 C 33.363281 374.78125 34.078125 374.851562 34.796875 374.902344 C 35.511719 374.957031 36.230469 374.984375 36.953125 374.996094 C 37.671875 375.007812 38.390625 374.996094 39.109375 374.964844 C 39.828125 374.933594 40.546875 374.878906 41.261719 374.808594 C 41.976562 374.734375 42.691406 374.640625 43.402344 374.527344 C 44.109375 374.414062 44.816406 374.277344 45.519531 374.125 C 46.222656 373.96875 46.921875 373.792969 47.613281 373.597656 C 48.304688 373.402344 48.992188 373.1875 49.671875 372.953125 C 50.351562 372.71875 51.027344 372.464844 51.691406 372.191406 C 52.355469 371.917969 53.015625 371.628906 53.664062 371.316406 C 54.3125 371.003906 54.953125 370.675781 55.582031 370.328125 C 56.210938 369.976562 56.828125 369.613281 57.4375 369.226562 C 58.046875 368.84375 58.644531 368.445312 59.230469 368.023438 C 59.816406 367.605469 60.386719 367.171875 60.949219 366.71875 C 61.507812 366.269531 62.054688 365.800781 62.589844 365.320312 C 63.121094 364.835938 63.640625 364.339844 64.148438 363.824219 C 64.652344 363.3125 65.140625 362.785156 65.617188 362.246094 C 66.089844 361.703125 66.546875 361.148438 66.992188 360.582031 C 67.433594 360.015625 67.859375 359.433594 68.265625 358.84375 C 68.675781 358.25 69.066406 357.648438 69.441406 357.03125 C 69.816406 356.417969 70.171875 355.792969 70.511719 355.15625 C 70.847656 354.523438 71.167969 353.878906 71.46875 353.222656 C 71.769531 352.570312 72.050781 351.910156 72.3125 351.238281 L 73.820312 347.402344 L 151.125 347.402344 L 152.632812 351.238281 C 153.316406 352.980469 154.125 354.660156 155.0625 356.28125 C 155.996094 357.898438 157.046875 359.441406 158.214844 360.902344 C 159.382812 362.367188 160.652344 363.734375 162.023438 365.007812 C 163.394531 366.277344 164.851562 367.441406 166.398438 368.496094 C 167.945312 369.546875 169.5625 370.480469 171.246094 371.292969 C 172.933594 372.105469 174.667969 372.785156 176.457031 373.335938 C 178.246094 373.890625 180.0625 374.304688 181.914062 374.582031 C 183.761719 374.859375 185.625 375 187.496094 375 C 189.367188 375 191.226562 374.859375 193.074219 374.582031 C 194.925781 374.304688 196.746094 373.890625 198.53125 373.335938 C 200.320312 372.785156 202.058594 372.105469 203.742188 371.292969 C 205.429688 370.480469 207.042969 369.546875 208.589844 368.496094 C 210.136719 367.441406 211.59375 366.277344 212.96875 365.007812 C 214.339844 363.734375 215.609375 362.367188 216.773438 360.902344 C 217.941406 359.441406 218.992188 357.898438 219.929688 356.28125 C 220.863281 354.660156 221.675781 352.980469 222.359375 351.238281 L 223.867188 347.402344 L 301.179688 347.402344 L 302.6875 351.238281 C 302.949219 351.910156 303.230469 352.574219 303.53125 353.226562 C 303.832031 353.882812 304.152344 354.53125 304.492188 355.167969 C 304.828125 355.804688 305.1875 356.429688 305.558594 357.046875 C 305.933594 357.664062 306.328125 358.269531 306.734375 358.863281 C 307.144531 359.457031 307.570312 360.035156 308.015625 360.605469 C 308.457031 361.175781 308.917969 361.730469 309.390625 362.273438 C 309.867188 362.816406 310.355469 363.34375 310.863281 363.859375 C 311.367188 364.375 311.886719 364.871094 312.421875 365.355469 C 312.957031 365.839844 313.503906 366.308594 314.066406 366.761719 C 314.628906 367.214844 315.203125 367.652344 315.789062 368.070312 C 316.375 368.492188 316.972656 368.894531 317.582031 369.277344 C 318.191406 369.664062 318.8125 370.03125 319.441406 370.378906 C 320.074219 370.730469 320.714844 371.058594 321.363281 371.371094 C 322.015625 371.683594 322.671875 371.976562 323.339844 372.253906 C 324.007812 372.527344 324.679688 372.78125 325.363281 373.015625 C 326.042969 373.253906 326.734375 373.46875 327.425781 373.664062 C 328.121094 373.859375 328.820312 374.035156 329.523438 374.191406 C 330.230469 374.347656 330.9375 374.480469 331.648438 374.597656 C 332.359375 374.710938 333.074219 374.804688 333.792969 374.878906 C 334.511719 374.949219 335.230469 375.003906 335.949219 375.035156 C 336.671875 375.066406 337.390625 375.078125 338.113281 375.070312 C 338.832031 375.058594 339.554688 375.027344 340.273438 374.976562 C 340.992188 374.925781 341.710938 374.855469 342.425781 374.761719 C 343.140625 374.667969 343.851562 374.554688 344.5625 374.421875 C 345.269531 374.289062 345.972656 374.132812 346.671875 373.960938 C 347.375 373.785156 348.066406 373.589844 348.753906 373.375 C 349.445312 373.164062 350.125 372.929688 350.800781 372.675781 C 351.476562 372.421875 352.144531 372.148438 352.804688 371.855469 C 353.460938 371.5625 354.113281 371.253906 354.753906 370.921875 C 355.394531 370.59375 356.027344 370.246094 356.648438 369.878906 C 357.269531 369.511719 357.878906 369.128906 358.480469 368.726562 C 359.078125 368.324219 359.664062 367.90625 360.238281 367.472656 C 360.816406 367.035156 361.375 366.585938 361.925781 366.117188 C 362.476562 365.648438 363.011719 365.167969 363.53125 364.667969 C 364.050781 364.167969 364.558594 363.65625 365.050781 363.128906 C 365.542969 362.601562 366.015625 362.058594 366.476562 361.503906 C 366.9375 360.949219 367.382812 360.382812 367.808594 359.800781 C 368.238281 359.21875 368.648438 358.625 369.039062 358.023438 C 369.433594 357.417969 369.808594 356.800781 370.167969 356.175781 C 370.523438 355.550781 370.863281 354.914062 371.183594 354.269531 C 371.507812 353.621094 371.808594 352.96875 372.09375 352.304688 C 372.375 351.640625 372.640625 350.972656 372.882812 350.292969 C 373.128906 349.613281 373.351562 348.929688 373.558594 348.238281 C 373.761719 347.546875 373.949219 346.847656 374.113281 346.148438 C 374.277344 345.445312 374.421875 344.738281 374.546875 344.027344 C 374.671875 343.316406 374.773438 342.605469 374.859375 341.886719 C 374.941406 341.171875 375.003906 340.453125 375.042969 339.734375 C 375.085938 339.015625 375.105469 338.292969 375.105469 337.570312 C 375.105469 336.851562 375.085938 336.128906 375.042969 335.410156 C 375.003906 334.691406 374.941406 333.972656 374.859375 333.253906 C 374.773438 332.539062 374.671875 331.824219 374.546875 331.117188 C 374.421875 330.40625 374.277344 329.699219 374.113281 328.996094 C 373.949219 328.292969 373.761719 327.597656 373.558594 326.90625 C 373.351562 326.214844 373.128906 325.53125 372.882812 324.851562 C 372.640625 324.171875 372.375 323.503906 372.09375 322.839844 C 371.808594 322.175781 371.507812 321.523438 371.183594 320.875 C 370.863281 320.230469 370.523438 319.59375 370.167969 318.96875 C 369.808594 318.34375 369.433594 317.726562 369.039062 317.121094 C 368.648438 316.519531 368.238281 315.925781 367.808594 315.34375 C 367.382812 314.761719 366.9375 314.195312 366.476562 313.640625 C 366.015625 313.085938 365.542969 312.542969 365.050781 312.015625 C 364.558594 311.488281 364.050781 310.972656 363.53125 310.476562 C 363.011719 309.976562 362.476562 309.496094 361.925781 309.027344 C 361.375 308.558594 360.816406 308.109375 360.238281 307.671875 C 359.664062 307.238281 359.078125 306.820312 358.480469 306.417969 C 357.878906 306.015625 357.269531 305.632812 356.648438 305.265625 C 356.027344 304.898438 355.394531 304.550781 354.753906 304.222656 C 354.113281 303.890625 353.460938 303.582031 352.804688 303.289062 C 352.144531 302.996094 351.476562 302.722656 350.800781 302.46875 C 350.125 302.214844 349.445312 301.980469 348.753906 301.769531 C 348.066406 301.554688 347.375 301.359375 346.671875 301.183594 C 345.972656 301.011719 345.269531 300.855469 344.5625 300.722656 C 343.851562 300.589844 343.140625 300.476562 342.425781 300.382812 C 341.710938 300.289062 340.992188 300.21875 340.273438 300.167969 C 339.554688 300.117188 338.832031 300.085938 338.113281 300.074219 C 337.390625 300.066406 336.671875 300.078125 335.949219 300.109375 C 335.230469 300.140625 334.511719 300.191406 333.792969 300.265625 C 333.074219 300.339844 332.359375 300.433594 331.648438 300.546875 C 330.9375 300.664062 330.230469 300.796875 329.523438 300.953125 C 328.820312 301.109375 328.121094 301.285156 327.425781 301.480469 C 326.734375 301.675781 326.042969 301.890625 325.363281 302.128906 C 324.679688 302.363281 324.007812 302.617188 323.339844 302.890625 C 322.671875 303.167969 322.015625 303.460938 321.363281 303.773438 C 320.714844 304.085938 320.074219 304.414062 319.441406 304.765625 C 318.8125 305.113281 318.191406 305.480469 317.582031 305.867188 C 316.972656 306.25 316.375 306.652344 315.789062 307.074219 C 315.203125 307.492188 314.628906 307.929688 314.066406 308.382812 C 313.503906 308.835938 312.957031 309.304688 312.421875 309.789062 C 311.886719 310.273438 311.367188 310.769531 310.863281 311.285156 C 310.355469 311.800781 309.867188 312.328125 309.390625 312.871094 C 308.917969 313.414062 308.457031 313.96875 308.015625 314.539062 C 307.570312 315.109375 307.144531 315.6875 306.734375 316.28125 C 306.328125 316.875 305.933594 317.480469 305.558594 318.097656 C 305.1875 318.714844 304.828125 319.339844 304.492188 319.976562 C 304.152344 320.613281 303.832031 321.261719 303.53125 321.914062 C 303.230469 322.570312 302.949219 323.234375 302.6875 323.90625 L 301.179688 327.742188 L 223.863281 327.742188 L 222.355469 323.902344 C 221.417969 321.519531 220.246094 319.25 218.84375 317.105469 C 217.445312 314.957031 215.839844 312.972656 214.035156 311.15625 C 212.226562 309.335938 210.257812 307.714844 208.121094 306.296875 C 205.984375 304.882812 203.726562 303.695312 201.347656 302.738281 L 197.546875 301.214844 L 197.546875 258.335938 L 267.292969 258.335938 C 269.410156 258.335938 271.523438 258.261719 273.636719 258.109375 C 275.75 257.960938 277.851562 257.734375 279.949219 257.433594 C 282.046875 257.132812 284.128906 256.761719 286.199219 256.3125 C 288.269531 255.863281 290.320312 255.34375 292.351562 254.75 C 294.386719 254.15625 296.394531 253.492188 298.378906 252.753906 C 300.367188 252.019531 302.324219 251.210938 304.25 250.335938 C 306.179688 249.460938 308.074219 248.519531 309.933594 247.507812 C 311.796875 246.496094 313.621094 245.421875 315.40625 244.28125 C 317.1875 243.144531 318.929688 241.941406 320.628906 240.675781 C 322.332031 239.414062 323.984375 238.089844 325.589844 236.710938 C 327.195312 235.328125 328.75 233.894531 330.25 232.402344 C 331.753906 230.910156 333.203125 229.367188 334.597656 227.773438 C 335.992188 226.179688 337.328125 224.535156 338.605469 222.847656 C 339.878906 221.15625 341.097656 219.425781 342.25 217.648438 C 343.402344 215.875 344.492188 214.058594 345.519531 212.207031 C 346.542969 210.351562 347.5 208.464844 348.390625 206.546875 C 349.285156 204.625 350.105469 202.671875 350.855469 200.695312 C 351.609375 198.714844 352.289062 196.710938 352.902344 194.683594 C 353.511719 192.65625 354.046875 190.605469 354.511719 188.542969 C 354.976562 186.476562 355.367188 184.394531 355.683594 182.300781 C 356 180.207031 356.242188 178.105469 356.410156 175.992188 C 356.578125 173.882812 356.667969 171.769531 356.6875 169.648438 C 356.703125 167.53125 356.644531 165.417969 356.511719 163.304688 C 356.378906 161.191406 356.167969 159.082031 355.886719 156.984375 C 355.601562 154.886719 355.246094 152.800781 354.816406 150.726562 C 354.382812 148.652344 353.878906 146.597656 353.300781 144.5625 C 352.722656 142.523438 352.074219 140.507812 351.355469 138.515625 C 350.632812 136.527344 349.84375 134.5625 348.984375 132.628906 C 348.125 130.691406 347.195312 128.789062 346.199219 126.921875 C 345.207031 125.050781 344.144531 123.21875 343.019531 121.425781 C 341.894531 119.632812 340.707031 117.878906 339.457031 116.171875 C 338.207031 114.460938 336.898438 112.796875 335.53125 111.179688 L 333.90625 109.269531 L 334.113281 106.769531 C 334.222656 105.378906 334.292969 103.988281 334.324219 102.597656 C 334.359375 101.203125 334.355469 99.8125 334.316406 98.417969 C 334.277344 97.027344 334.199219 95.636719 334.082031 94.246094 C 333.96875 92.859375 333.816406 91.476562 333.628906 90.09375 C 333.441406 88.714844 333.214844 87.339844 332.953125 85.972656 C 332.691406 84.605469 332.394531 83.242188 332.058594 81.890625 C 331.726562 80.539062 331.355469 79.195312 330.949219 77.863281 C 330.542969 76.53125 330.101562 75.210938 329.625 73.902344 C 329.148438 72.59375 328.636719 71.296875 328.09375 70.015625 C 327.546875 68.734375 326.96875 67.46875 326.355469 66.214844 C 325.742188 64.964844 325.097656 63.730469 324.417969 62.515625 C 323.738281 61.296875 323.027344 60.101562 322.285156 58.921875 C 321.542969 57.742188 320.769531 56.585938 319.964844 55.449219 C 319.160156 54.3125 318.324219 53.195312 317.460938 52.105469 C 316.597656 51.011719 315.707031 49.941406 314.785156 48.898438 C 313.863281 47.851562 312.914062 46.832031 311.941406 45.835938 C 310.964844 44.84375 309.964844 43.875 308.9375 42.933594 C 307.910156 41.992188 306.859375 41.078125 305.78125 40.195312 C 304.707031 39.308594 303.609375 38.453125 302.488281 37.625 C 301.367188 36.800781 300.222656 36.003906 299.058594 35.238281 C 297.894531 34.472656 296.710938 33.738281 295.507812 33.035156 C 294.304688 32.332031 293.085938 31.664062 291.847656 31.023438 C 290.609375 30.386719 289.355469 29.785156 288.082031 29.214844 C 286.8125 28.644531 285.527344 28.105469 284.226562 27.605469 C 282.929688 27.101562 281.617188 26.636719 280.292969 26.203125 C 278.96875 25.773438 277.632812 25.375 276.285156 25.015625 C 274.941406 24.652344 273.585938 24.328125 272.222656 24.042969 C 270.859375 23.753906 269.492188 23.5 268.117188 23.285156 C 266.738281 23.070312 265.359375 22.890625 263.972656 22.75 C 262.585938 22.605469 261.199219 22.503906 259.804688 22.433594 C 258.414062 22.367188 257.023438 22.335938 255.628906 22.34375 C 254.238281 22.347656 252.84375 22.394531 251.453125 22.472656 L 249.011719 22.625 Z M 247.148438 21.039062 " clip-rule="evenodd"/></clipPath><linearGradient x1="256" gradientTransform="matrix(0.732422, 0, 0, 0.732422, 0.0000045, 0)" y1="512.00048" x2="256.00101" gradientUnits="userSpaceOnUse" y2="-0.000504998" id="8ca85e6063"><stop stop-opacity="1" stop-color="rgb(0%, 47.799683%, 71.398926%)" offset="0"/><stop stop-opacity="1" stop-color="rgb(0%, 47.903442%, 71.554565%)" offset="0.00000197242"/><stop stop-opacity="1" stop-color="rgb(0%, 48.008728%, 71.711731%)" offset="0.015625"/><stop stop-opacity="1" stop-color="rgb(0%, 48.112488%, 71.867371%)" offset="0.03125"/><stop stop-opacity="1" stop-color="rgb(0%, 48.321533%, 72.180176%)" offset="0.046875"/><stop stop-opacity="1" stop-color="rgb(0%, 48.532104%, 72.492981%)" offset="0.0625"/><stop stop-opacity="1" stop-color="rgb(0%, 48.74115%, 72.80426%)" offset="0.078125"/><stop stop-opacity="1" stop-color="rgb(0%, 48.950195%, 73.117065%)" offset="0.09375"/><stop stop-opacity="1" stop-color="rgb(0%, 49.159241%, 73.429871%)" offset="0.109375"/><stop stop-opacity="1" stop-color="rgb(0%, 49.368286%, 73.742676%)" offset="0.125"/><stop stop-opacity="1" stop-color="rgb(0%, 49.578857%, 74.055481%)" offset="0.140625"/><stop stop-opacity="1" stop-color="rgb(0%, 49.787903%, 74.36676%)" offset="0.15625"/><stop stop-opacity="1" stop-color="rgb(0%, 49.996948%, 74.679565%)" offset="0.171875"/><stop stop-opacity="1" stop-color="rgb(0%, 50.205994%, 74.992371%)" offset="0.1875"/><stop stop-opacity="1" stop-color="rgb(0%, 50.416565%, 75.305176%)" offset="0.203125"/><stop stop-opacity="1" stop-color="rgb(0%, 50.62561%, 75.617981%)" offset="0.21875"/><stop stop-opacity="1" stop-color="rgb(0%, 50.834656%, 75.92926%)" offset="0.234375"/><stop stop-opacity="1" stop-color="rgb(0%, 51.043701%, 76.242065%)" offset="0.25"/><stop stop-opacity="1" stop-color="rgb(0%, 51.252747%, 76.554871%)" offset="0.265625"/><stop stop-opacity="1" stop-color="rgb(0%, 51.463318%, 76.867676%)" offset="0.28125"/><stop stop-opacity="1" stop-color="rgb(0%, 51.672363%, 77.180481%)" offset="0.296875"/><stop stop-opacity="1" stop-color="rgb(0%, 51.881409%, 77.49176%)" offset="0.3125"/><stop stop-opacity="1" stop-color="rgb(0%, 52.090454%, 77.804565%)" offset="0.328125"/><stop stop-opacity="1" stop-color="rgb(0%, 52.2995%, 78.117371%)" offset="0.34375"/><stop stop-opacity="1" stop-color="rgb(0%, 52.510071%, 78.430176%)" offset="0.359375"/><stop stop-opacity="1" stop-color="rgb(0%, 52.719116%, 78.742981%)" offset="0.375"/><stop stop-opacity="1" stop-color="rgb(0%, 52.928162%, 79.05426%)" offset="0.390625"/><stop stop-opacity="1" stop-color="rgb(0%, 53.137207%, 79.367065%)" offset="0.40625"/><stop stop-opacity="1" stop-color="rgb(0%, 53.347778%, 79.679871%)" offset="0.421875"/><stop stop-opacity="1" stop-color="rgb(0%, 53.556824%, 79.992676%)" offset="0.4375"/><stop stop-opacity="1" stop-color="rgb(0%, 53.765869%, 80.305481%)" offset="0.453125"/><stop stop-opacity="1" stop-color="rgb(0%, 53.974915%, 80.61676%)" offset="0.46875"/><stop stop-opacity="1" stop-color="rgb(0%, 54.18396%, 80.929565%)" offset="0.484375"/><stop stop-opacity="1" stop-color="rgb(0%, 54.394531%, 81.242371%)" offset="0.5"/><stop stop-opacity="1" stop-color="rgb(0%, 54.603577%, 81.555176%)" offset="0.515625"/><stop stop-opacity="1" stop-color="rgb(0%, 54.812622%, 81.867981%)" offset="0.53125"/><stop stop-opacity="1" stop-color="rgb(0%, 55.021667%, 82.17926%)" offset="0.546875"/><stop stop-opacity="1" stop-color="rgb(0%, 55.230713%, 82.492065%)" offset="0.5625"/><stop stop-opacity="1" stop-color="rgb(0%, 55.441284%, 82.804871%)" offset="0.578125"/><stop stop-opacity="1" stop-color="rgb(0%, 55.65033%, 83.117676%)" offset="0.59375"/><stop stop-opacity="1" stop-color="rgb(0%, 55.859375%, 83.430481%)" offset="0.609375"/><stop stop-opacity="1" stop-color="rgb(0%, 56.06842%, 83.74176%)" offset="0.625"/><stop stop-opacity="1" stop-color="rgb(0%, 56.278992%, 84.054565%)" offset="0.640625"/><stop stop-opacity="1" stop-color="rgb(0%, 56.488037%, 84.367371%)" offset="0.65625"/><stop stop-opacity="1" stop-color="rgb(0%, 56.697083%, 84.680176%)" offset="0.671875"/><stop stop-opacity="1" stop-color="rgb(0%, 56.906128%, 84.992981%)" offset="0.6875"/><stop stop-opacity="1" stop-color="rgb(0%, 57.115173%, 85.30426%)" offset="0.703125"/><stop stop-opacity="1" stop-color="rgb(0%, 57.325745%, 85.617065%)" offset="0.71875"/><stop stop-opacity="1" stop-color="rgb(0%, 57.53479%, 85.929871%)" offset="0.734375"/><stop stop-opacity="1" stop-color="rgb(0%, 57.743835%, 86.242676%)" offset="0.75"/><stop stop-opacity="1" stop-color="rgb(0%, 57.952881%, 86.555481%)" offset="0.765625"/><stop stop-opacity="1" stop-color="rgb(0%, 58.163452%, 86.86676%)" offset="0.78125"/><stop stop-opacity="1" stop-color="rgb(0%, 58.372498%, 87.179565%)" offset="0.796875"/><stop stop-opacity="1" stop-color="rgb(0%, 58.581543%, 87.492371%)" offset="0.8125"/><stop stop-opacity="1" stop-color="rgb(0%, 58.790588%, 87.805176%)" offset="0.828125"/><stop stop-opacity="1" stop-color="rgb(0%, 58.999634%, 88.117981%)" offset="0.84375"/><stop stop-opacity="1" stop-color="rgb(0%, 59.210205%, 88.42926%)" offset="0.859375"/><stop stop-opacity="1" stop-color="rgb(0%, 59.41925%, 88.742065%)" offset="0.875"/><stop stop-opacity="1" stop-color="rgb(0%, 59.628296%, 89.054871%)" offset="0.890625"/><stop stop-opacity="1" stop-color="rgb(0%, 59.837341%, 89.367676%)" offset="0.90625"/><stop stop-opacity="1" stop-color="rgb(0%, 60.046387%, 89.680481%)" offset="0.921875"/><stop stop-opacity="1" stop-color="rgb(0%, 60.256958%, 89.99176%)" offset="0.9375"/><stop stop-opacity="1" stop-color="rgb(0%, 60.466003%, 90.304565%)" offset="0.953125"/><stop stop-opacity="1" stop-color="rgb(0%, 60.675049%, 90.617371%)" offset="0.96875"/><stop stop-opacity="1" stop-color="rgb(0%, 60.884094%, 90.930176%)" offset="0.984375"/><stop stop-opacity="1" stop-color="rgb(0%, 61.094666%, 91.242981%)" offset="0.999998"/><stop stop-opacity="1" stop-color="rgb(0%, 61.199951%, 91.398621%)" offset="1"/></linearGradient></defs><g clip-path="url(#1ed1478667)"><path fill="url(#8ca85e6063)" d="M 0.0429688 0 L 0.0429688 375 L 375 375 L 375 0 Z M 0.0429688 0 " fill-rule="nonzero"/></g></svg>