<svg xmlns="http://www.w3.org/2000/svg" xmlns:xlink="http://www.w3.org/1999/xlink" width="500" zoomAndPan="magnify" viewBox="0 0 375 374.999991" height="500" preserveAspectRatio="xMidYMid meet" version="1.0"><defs><clipPath id="7ae80bc751"><path d="M 247.867188 264.753906 C 247.871094 265.707031 247.917969 266.652344 248.011719 267.601562 C 248.101562 268.546875 248.242188 269.484375 248.429688 270.417969 C 248.613281 271.351562 248.847656 272.269531 249.121094 273.179688 C 249.398438 274.089844 249.71875 274.984375 250.082031 275.863281 C 250.445312 276.738281 250.851562 277.597656 251.300781 278.4375 C 251.75 279.273438 252.238281 280.089844 252.765625 280.878906 C 253.292969 281.667969 253.859375 282.433594 254.464844 283.167969 C 255.066406 283.902344 255.703125 284.605469 256.378906 285.277344 C 257.050781 285.949219 257.753906 286.585938 258.488281 287.1875 C 259.222656 287.792969 259.984375 288.355469 260.777344 288.886719 C 261.566406 289.414062 262.382812 289.902344 263.21875 290.347656 C 264.058594 290.796875 264.917969 291.203125 265.796875 291.566406 C 266.675781 291.929688 267.566406 292.25 268.476562 292.523438 C 269.386719 292.800781 270.308594 293.03125 271.242188 293.214844 C 272.171875 293.402344 273.113281 293.539062 274.058594 293.632812 C 275.003906 293.726562 275.953125 293.773438 276.902344 293.773438 C 277.855469 293.773438 278.800781 293.726562 279.75 293.632812 C 280.695312 293.539062 281.632812 293.398438 282.566406 293.214844 C 283.5 293.027344 284.417969 292.796875 285.328125 292.523438 C 286.238281 292.246094 287.132812 291.925781 288.011719 291.5625 C 288.890625 291.199219 289.746094 290.792969 290.585938 290.34375 C 291.421875 289.894531 292.238281 289.40625 293.027344 288.878906 C 293.820312 288.351562 294.582031 287.785156 295.316406 287.183594 C 296.050781 286.578125 296.753906 285.941406 297.425781 285.269531 C 298.097656 284.597656 298.734375 283.894531 299.339844 283.15625 C 299.941406 282.421875 300.507812 281.660156 301.035156 280.871094 C 301.5625 280.078125 302.050781 279.265625 302.5 278.425781 C 302.949219 277.589844 303.355469 276.730469 303.71875 275.851562 C 304.082031 274.972656 304.402344 274.078125 304.675781 273.167969 C 304.953125 272.261719 305.183594 271.339844 305.367188 270.40625 C 305.554688 269.472656 305.695312 268.535156 305.785156 267.589844 C 305.878906 266.644531 305.925781 265.695312 305.925781 264.742188 C 305.925781 263.792969 305.878906 262.84375 305.785156 261.898438 C 305.695312 260.953125 305.554688 260.015625 305.367188 259.082031 C 305.183594 258.148438 304.953125 257.226562 304.675781 256.320312 C 304.402344 255.410156 304.082031 254.515625 303.71875 253.636719 C 303.355469 252.757812 302.949219 251.898438 302.5 251.0625 C 302.050781 250.222656 301.5625 249.410156 301.035156 248.617188 C 300.507812 247.828125 299.941406 247.066406 299.339844 246.332031 C 298.734375 245.59375 298.097656 244.890625 297.425781 244.21875 C 296.753906 243.546875 296.050781 242.910156 295.316406 242.304688 C 294.582031 241.703125 293.820312 241.136719 293.027344 240.609375 C 292.238281 240.082031 291.421875 239.59375 290.585938 239.144531 C 289.746094 238.695312 288.886719 238.289062 288.011719 237.925781 C 287.132812 237.5625 286.238281 237.242188 285.328125 236.964844 C 284.417969 236.691406 283.496094 236.460938 282.566406 236.273438 C 281.632812 236.089844 280.695312 235.949219 279.746094 235.855469 C 278.800781 235.761719 277.855469 235.714844 276.902344 235.714844 C 275.953125 235.714844 275.003906 235.761719 274.054688 235.855469 C 273.109375 235.949219 272.171875 236.085938 271.238281 236.273438 C 270.304688 236.457031 269.382812 236.6875 268.472656 236.964844 C 267.5625 237.238281 266.667969 237.558594 265.789062 237.921875 C 264.910156 238.289062 264.050781 238.695312 263.214844 239.140625 C 262.375 239.589844 261.558594 240.078125 260.769531 240.605469 C 259.976562 241.136719 259.214844 241.703125 258.480469 242.304688 C 257.746094 242.90625 257.039062 243.546875 256.367188 244.21875 C 255.695312 244.890625 255.058594 245.59375 254.453125 246.332031 C 253.851562 247.066406 253.285156 247.828125 252.757812 248.621094 C 252.230469 249.410156 251.742188 250.226562 251.292969 251.066406 C 250.84375 251.902344 250.4375 252.761719 250.074219 253.640625 C 249.710938 254.519531 249.390625 255.414062 249.117188 256.324219 C 248.839844 257.234375 248.609375 258.15625 248.425781 259.089844 C 248.238281 260.023438 248.101562 260.960938 248.007812 261.910156 C 247.914062 262.855469 247.867188 263.804688 247.867188 264.753906 Z M 270.707031 225.304688 L 271.972656 218.554688 L 281.820312 218.554688 L 283.09375 225.304688 C 283.191406 225.835938 283.359375 226.34375 283.597656 226.828125 C 283.835938 227.316406 284.136719 227.757812 284.5 228.160156 C 284.859375 228.5625 285.269531 228.90625 285.730469 229.195312 C 286.1875 229.484375 286.675781 229.703125 287.195312 229.855469 C 289.652344 230.597656 292.011719 231.574219 294.273438 232.785156 C 294.75 233.042969 295.25 233.234375 295.777344 233.351562 C 296.304688 233.472656 296.835938 233.519531 297.375 233.492188 C 297.917969 233.460938 298.441406 233.363281 298.953125 233.1875 C 299.464844 233.015625 299.945312 232.777344 300.390625 232.46875 L 306.066406 228.597656 L 313.03125 235.558594 L 309.144531 241.261719 C 308.839844 241.707031 308.601562 242.1875 308.429688 242.699219 C 308.253906 243.210938 308.15625 243.738281 308.128906 244.277344 C 308.101562 244.816406 308.148438 245.351562 308.269531 245.878906 C 308.386719 246.40625 308.578125 246.90625 308.835938 247.382812 C 310.054688 249.636719 311.03125 251.988281 311.761719 254.445312 C 311.914062 254.960938 312.136719 255.445312 312.421875 255.898438 C 312.710938 256.351562 313.054688 256.761719 313.453125 257.121094 C 313.855469 257.480469 314.292969 257.777344 314.777344 258.019531 C 315.257812 258.257812 315.761719 258.425781 316.292969 258.527344 L 323.070312 259.835938 L 323.070312 269.671875 L 316.261719 270.929688 C 315.730469 271.03125 315.222656 271.203125 314.738281 271.445312 C 314.253906 271.6875 313.8125 271.988281 313.410156 272.355469 C 313.011719 272.71875 312.667969 273.132812 312.382812 273.589844 C 312.097656 274.050781 311.878906 274.539062 311.730469 275.0625 C 311 277.5 310.023438 279.835938 308.804688 282.074219 C 308.546875 282.546875 308.355469 283.046875 308.238281 283.574219 C 308.117188 284.101562 308.070312 284.636719 308.097656 285.175781 C 308.125 285.714844 308.222656 286.242188 308.398438 286.753906 C 308.570312 287.269531 308.808594 287.746094 309.113281 288.195312 L 313.03125 293.898438 L 306.066406 300.855469 L 300.316406 296.929688 C 299.871094 296.632812 299.390625 296.398438 298.878906 296.226562 C 298.371094 296.058594 297.847656 295.957031 297.308594 295.929688 C 296.769531 295.902344 296.238281 295.949219 295.714844 296.0625 C 295.1875 296.179688 294.6875 296.367188 294.210938 296.617188 C 291.976562 297.832031 289.640625 298.808594 287.207031 299.546875 C 286.691406 299.699219 286.207031 299.914062 285.75 300.199219 C 285.296875 300.484375 284.886719 300.824219 284.527344 301.222656 C 284.164062 301.617188 283.863281 302.058594 283.625 302.535156 C 283.386719 303.015625 283.214844 303.519531 283.113281 304.046875 L 281.820312 310.902344 L 271.972656 310.902344 L 270.6875 304.046875 C 270.585938 303.519531 270.414062 303.015625 270.175781 302.535156 C 269.933594 302.058594 269.632812 301.617188 269.273438 301.222656 C 268.910156 300.824219 268.503906 300.484375 268.046875 300.199219 C 267.589844 299.914062 267.105469 299.699219 266.589844 299.546875 C 264.160156 298.804688 261.824219 297.828125 259.589844 296.617188 C 259.117188 296.359375 258.617188 296.167969 258.089844 296.050781 C 257.566406 295.929688 257.03125 295.882812 256.496094 295.910156 C 255.957031 295.9375 255.429688 296.039062 254.921875 296.210938 C 254.410156 296.386719 253.933594 296.625 253.488281 296.929688 L 247.738281 300.855469 L 240.761719 293.898438 L 244.683594 288.195312 C 244.988281 287.746094 245.226562 287.269531 245.398438 286.753906 C 245.574219 286.242188 245.671875 285.71875 245.699219 285.175781 C 245.726562 284.636719 245.679688 284.101562 245.558594 283.574219 C 245.441406 283.046875 245.25 282.546875 244.992188 282.074219 C 243.78125 279.832031 242.804688 277.496094 242.066406 275.0625 C 241.917969 274.539062 241.699219 274.050781 241.414062 273.589844 C 241.128906 273.128906 240.785156 272.71875 240.386719 272.351562 C 239.984375 271.988281 239.542969 271.683594 239.058594 271.441406 C 238.574219 271.199219 238.066406 271.027344 237.535156 270.929688 L 230.734375 269.671875 L 230.734375 259.835938 L 237.503906 258.527344 C 238.03125 258.425781 238.539062 258.257812 239.019531 258.019531 C 239.503906 257.777344 239.945312 257.480469 240.34375 257.121094 C 240.746094 256.761719 241.089844 256.355469 241.378906 255.898438 C 241.667969 255.445312 241.890625 254.960938 242.046875 254.445312 C 242.765625 251.984375 243.742188 249.632812 244.96875 247.382812 C 245.226562 246.90625 245.414062 246.40625 245.53125 245.878906 C 245.652344 245.351562 245.699219 244.816406 245.667969 244.277344 C 245.640625 243.738281 245.542969 243.210938 245.371094 242.699219 C 245.199219 242.1875 244.960938 241.707031 244.65625 241.261719 L 240.761719 235.558594 L 247.738281 228.597656 L 253.402344 232.46875 C 253.851562 232.777344 254.328125 233.015625 254.839844 233.1875 C 255.351562 233.363281 255.878906 233.460938 256.417969 233.492188 C 256.957031 233.519531 257.492188 233.472656 258.019531 233.351562 C 258.546875 233.234375 259.046875 233.042969 259.519531 232.785156 C 261.785156 231.570312 264.144531 230.59375 266.605469 229.855469 C 267.125 229.703125 267.613281 229.480469 268.070312 229.195312 C 268.527344 228.90625 268.9375 228.5625 269.300781 228.160156 C 269.660156 227.757812 269.960938 227.3125 270.203125 226.828125 C 270.441406 226.34375 270.609375 225.835938 270.707031 225.304688 Z M 261.109375 212.957031 C 261.191406 212.527344 261.308594 212.113281 261.460938 211.707031 C 261.617188 211.300781 261.804688 210.910156 262.023438 210.539062 C 262.246094 210.164062 262.496094 209.8125 262.777344 209.480469 C 263.0625 209.152344 263.367188 208.847656 263.703125 208.570312 C 264.035156 208.292969 264.390625 208.046875 264.769531 207.832031 C 265.144531 207.617188 265.539062 207.433594 265.945312 207.285156 C 266.355469 207.136719 266.773438 207.027344 267.199219 206.949219 C 267.625 206.875 268.058594 206.835938 268.492188 206.832031 L 285.316406 206.832031 C 285.75 206.835938 286.183594 206.875 286.609375 206.949219 C 287.035156 207.027344 287.453125 207.140625 287.863281 207.285156 C 288.269531 207.433594 288.664062 207.617188 289.039062 207.832031 C 289.414062 208.050781 289.769531 208.296875 290.105469 208.574219 C 290.441406 208.847656 290.746094 209.152344 291.027344 209.484375 C 291.3125 209.8125 291.5625 210.164062 291.785156 210.539062 C 292.003906 210.910156 292.191406 211.300781 292.347656 211.707031 C 292.5 212.113281 292.617188 212.527344 292.699219 212.957031 L 293.976562 219.808594 C 294.871094 220.125 295.75 220.488281 296.613281 220.855469 L 302.332031 216.984375 C 302.691406 216.738281 303.066406 216.527344 303.464844 216.34375 C 303.859375 216.164062 304.265625 216.019531 304.6875 215.910156 C 305.109375 215.800781 305.535156 215.730469 305.96875 215.695312 C 306.402344 215.660156 306.835938 215.660156 307.269531 215.703125 C 307.699219 215.742188 308.125 215.820312 308.546875 215.933594 C 308.964844 216.046875 309.371094 216.199219 309.765625 216.382812 C 310.15625 216.570312 310.53125 216.785156 310.886719 217.035156 C 311.242188 217.285156 311.574219 217.566406 311.882812 217.875 L 323.785156 229.75 C 324.09375 230.058594 324.371094 230.390625 324.621094 230.746094 C 324.871094 231.105469 325.089844 231.480469 325.273438 231.875 C 325.460938 232.269531 325.609375 232.675781 325.722656 233.097656 C 325.839844 233.515625 325.914062 233.941406 325.957031 234.378906 C 325.996094 234.8125 326 235.246094 325.964844 235.679688 C 325.929688 236.113281 325.859375 236.539062 325.75 236.960938 C 325.640625 237.382812 325.5 237.792969 325.320312 238.191406 C 325.140625 238.585938 324.925781 238.964844 324.683594 239.324219 L 320.757812 245.027344 C 321.136719 245.917969 321.5 246.753906 321.835938 247.644531 L 328.675781 248.953125 C 329.101562 249.035156 329.519531 249.152344 329.925781 249.304688 C 330.332031 249.457031 330.71875 249.644531 331.09375 249.863281 C 331.46875 250.085938 331.820312 250.335938 332.152344 250.617188 C 332.480469 250.898438 332.785156 251.207031 333.0625 251.542969 C 333.339844 251.875 333.585938 252.230469 333.800781 252.609375 C 334.015625 252.984375 334.199219 253.375 334.347656 253.785156 C 334.496094 254.191406 334.605469 254.609375 334.683594 255.039062 C 334.757812 255.464844 334.796875 255.898438 334.796875 256.332031 L 334.796875 273.175781 C 334.796875 273.609375 334.757812 274.042969 334.683594 274.46875 C 334.605469 274.894531 334.496094 275.3125 334.347656 275.722656 C 334.199219 276.128906 334.019531 276.523438 333.800781 276.898438 C 333.585938 277.277344 333.339844 277.632812 333.0625 277.964844 C 332.785156 278.300781 332.480469 278.609375 332.152344 278.890625 C 331.820312 279.171875 331.46875 279.421875 331.09375 279.644531 C 330.71875 279.863281 330.332031 280.050781 329.925781 280.203125 C 329.519531 280.355469 329.101562 280.472656 328.675781 280.554688 L 321.800781 281.808594 C 321.464844 282.699219 321.109375 283.535156 320.726562 284.371094 L 324.683594 290.179688 C 324.925781 290.539062 325.140625 290.914062 325.320312 291.308594 C 325.5 291.703125 325.644531 292.109375 325.753906 292.53125 C 325.859375 292.949219 325.933594 293.375 325.96875 293.804688 C 326.003906 294.238281 326 294.671875 325.960938 295.101562 C 325.921875 295.53125 325.84375 295.957031 325.730469 296.375 C 325.617188 296.792969 325.464844 297.199219 325.28125 297.589844 C 325.097656 297.984375 324.882812 298.355469 324.632812 298.710938 C 324.382812 299.066406 324.105469 299.394531 323.796875 299.703125 L 311.882812 311.632812 C 311.578125 311.9375 311.246094 312.21875 310.890625 312.46875 C 310.535156 312.71875 310.160156 312.9375 309.769531 313.121094 C 309.375 313.308594 308.96875 313.457031 308.550781 313.570312 C 308.128906 313.6875 307.703125 313.761719 307.269531 313.804688 C 306.839844 313.84375 306.40625 313.847656 305.972656 313.8125 C 305.539062 313.777344 305.113281 313.703125 304.691406 313.59375 C 304.269531 313.484375 303.863281 313.339844 303.464844 313.160156 C 303.070312 312.980469 302.695312 312.765625 302.335938 312.519531 L 296.535156 308.546875 C 295.703125 308.910156 294.859375 309.277344 294 309.589844 L 292.703125 316.496094 C 292.621094 316.925781 292.507812 317.34375 292.355469 317.75 C 292.203125 318.15625 292.015625 318.546875 291.792969 318.921875 C 291.574219 319.296875 291.324219 319.648438 291.042969 319.980469 C 290.761719 320.308594 290.453125 320.613281 290.117188 320.890625 C 289.78125 321.167969 289.425781 321.414062 289.050781 321.632812 C 288.671875 321.847656 288.277344 322.027344 287.871094 322.175781 C 287.460938 322.324219 287.042969 322.433594 286.613281 322.507812 C 286.1875 322.582031 285.753906 322.621094 285.320312 322.621094 L 268.488281 322.621094 C 268.054688 322.621094 267.625 322.582031 267.195312 322.507812 C 266.765625 322.433594 266.347656 322.324219 265.941406 322.175781 C 265.53125 322.03125 265.136719 321.847656 264.761719 321.632812 C 264.382812 321.417969 264.027344 321.171875 263.691406 320.894531 C 263.355469 320.617188 263.050781 320.3125 262.765625 319.980469 C 262.484375 319.648438 262.234375 319.296875 262.015625 318.921875 C 261.792969 318.546875 261.609375 318.15625 261.457031 317.75 C 261.304688 317.34375 261.1875 316.925781 261.105469 316.496094 L 259.800781 309.589844 C 258.949219 309.277344 258.097656 308.910156 257.265625 308.546875 L 251.46875 312.519531 C 251.109375 312.765625 250.734375 312.980469 250.335938 313.160156 C 249.941406 313.339844 249.53125 313.484375 249.113281 313.59375 C 248.691406 313.703125 248.265625 313.777344 247.832031 313.8125 C 247.398438 313.847656 246.964844 313.84375 246.53125 313.804688 C 246.097656 313.761719 245.671875 313.6875 245.253906 313.570312 C 244.832031 313.457031 244.425781 313.308594 244.03125 313.121094 C 243.640625 312.9375 243.265625 312.71875 242.910156 312.46875 C 242.554688 312.21875 242.222656 311.9375 241.914062 311.632812 L 230.015625 299.707031 C 229.707031 299.402344 229.429688 299.070312 229.179688 298.71875 C 228.929688 298.363281 228.710938 297.988281 228.527344 297.597656 C 228.34375 297.207031 228.191406 296.800781 228.078125 296.382812 C 227.964844 295.964844 227.886719 295.539062 227.847656 295.105469 C 227.804688 294.675781 227.804688 294.242188 227.839844 293.8125 C 227.875 293.378906 227.945312 292.953125 228.054688 292.535156 C 228.164062 292.113281 228.308594 291.707031 228.488281 291.3125 C 228.667969 290.917969 228.882812 290.542969 229.128906 290.183594 L 233.078125 284.378906 C 232.695312 283.539062 232.335938 282.703125 232.003906 281.8125 L 225.136719 280.558594 C 224.707031 280.476562 224.292969 280.363281 223.886719 280.207031 C 223.476562 280.054688 223.089844 279.871094 222.714844 279.648438 C 222.339844 279.429688 221.988281 279.175781 221.65625 278.894531 C 221.324219 278.613281 221.023438 278.308594 220.746094 277.972656 C 220.46875 277.636719 220.222656 277.28125 220.003906 276.90625 C 219.789062 276.527344 219.609375 276.136719 219.460938 275.726562 C 219.3125 275.320312 219.203125 274.902344 219.125 274.472656 C 219.050781 274.046875 219.011719 273.613281 219.011719 273.179688 L 219.011719 256.335938 C 219.011719 255.902344 219.050781 255.46875 219.125 255.042969 C 219.203125 254.613281 219.3125 254.195312 219.460938 253.789062 C 219.609375 253.378906 219.789062 252.988281 220.003906 252.609375 C 220.222656 252.234375 220.46875 251.878906 220.746094 251.542969 C 221.023438 251.210938 221.328125 250.902344 221.65625 250.621094 C 221.988281 250.339844 222.339844 250.085938 222.714844 249.867188 C 223.089844 249.648438 223.480469 249.460938 223.886719 249.308594 C 224.292969 249.15625 224.707031 249.039062 225.136719 248.957031 L 231.96875 247.648438 C 232.304688 246.761719 232.664062 245.921875 233.046875 245.03125 L 229.128906 239.332031 C 228.882812 238.96875 228.667969 238.59375 228.488281 238.195312 C 228.308594 237.800781 228.164062 237.390625 228.054688 236.96875 C 227.945312 236.546875 227.875 236.117188 227.839844 235.683594 C 227.804688 235.25 227.808594 234.816406 227.847656 234.382812 C 227.886719 233.949219 227.964844 233.523438 228.078125 233.101562 C 228.195312 232.679688 228.34375 232.273438 228.527344 231.878906 C 228.714844 231.484375 228.929688 231.109375 229.179688 230.753906 C 229.429688 230.394531 229.707031 230.0625 230.015625 229.753906 L 241.914062 217.878906 C 242.222656 217.570312 242.554688 217.292969 242.910156 217.039062 C 243.265625 216.789062 243.640625 216.574219 244.03125 216.386719 C 244.425781 216.203125 244.832031 216.054688 245.253906 215.9375 C 245.671875 215.824219 246.097656 215.746094 246.53125 215.707031 C 246.964844 215.667969 247.398438 215.664062 247.832031 215.699219 C 248.265625 215.734375 248.691406 215.804688 249.113281 215.914062 C 249.535156 216.023438 249.941406 216.167969 250.335938 216.347656 C 250.734375 216.53125 251.109375 216.742188 251.46875 216.988281 L 257.183594 220.859375 C 258.054688 220.492188 258.933594 220.128906 259.820312 219.8125 L 261.105469 212.960938 Z M 49.816406 116.941406 L 117.667969 40.289062 C 118.117188 39.789062 118.632812 39.378906 119.21875 39.058594 C 119.804688 38.738281 120.429688 38.519531 121.089844 38.410156 C 121.75 38.300781 122.40625 38.304688 123.066406 38.421875 C 123.726562 38.535156 124.347656 38.757812 124.929688 39.085938 L 188.75 75.136719 L 247.464844 11.71875 L 232.152344 11.71875 C 231.765625 11.71875 231.386719 11.679688 231.007812 11.605469 C 230.632812 11.53125 230.265625 11.421875 229.910156 11.273438 C 229.554688 11.125 229.214844 10.945312 228.894531 10.730469 C 228.574219 10.515625 228.28125 10.273438 228.007812 10.003906 C 227.734375 9.730469 227.492188 9.433594 227.28125 9.113281 C 227.066406 8.792969 226.886719 8.457031 226.738281 8.101562 C 226.589844 7.746094 226.480469 7.378906 226.40625 7.003906 C 226.328125 6.625 226.292969 6.242188 226.292969 5.859375 C 226.292969 5.476562 226.328125 5.09375 226.40625 4.714844 C 226.480469 4.339844 226.589844 3.972656 226.738281 3.617188 C 226.886719 3.261719 227.066406 2.925781 227.28125 2.605469 C 227.492188 2.285156 227.734375 1.988281 228.007812 1.714844 C 228.28125 1.445312 228.574219 1.203125 228.894531 0.988281 C 229.214844 0.773438 229.554688 0.59375 229.910156 0.445312 C 230.265625 0.296875 230.632812 0.1875 231.007812 0.113281 C 231.386719 0.0390625 231.765625 0 232.152344 0 L 260.890625 0 C 261.273438 0 261.65625 0.0390625 262.03125 0.113281 C 262.410156 0.1875 262.773438 0.296875 263.128906 0.445312 C 263.484375 0.59375 263.824219 0.773438 264.144531 0.988281 C 264.464844 1.199219 264.757812 1.445312 265.03125 1.714844 C 265.300781 1.988281 265.546875 2.285156 265.757812 2.605469 C 265.972656 2.925781 266.152344 3.261719 266.300781 3.617188 C 266.445312 3.972656 266.558594 4.339844 266.632812 4.714844 C 266.707031 5.09375 266.742188 5.476562 266.742188 5.859375 L 266.742188 34.585938 C 266.742188 34.96875 266.707031 35.351562 266.632812 35.726562 C 266.554688 36.105469 266.445312 36.472656 266.296875 36.828125 C 266.152344 37.183594 265.96875 37.519531 265.757812 37.839844 C 265.542969 38.160156 265.300781 38.457031 265.027344 38.726562 C 264.753906 39 264.460938 39.242188 264.140625 39.457031 C 263.820312 39.671875 263.480469 39.851562 263.125 40 C 262.769531 40.144531 262.40625 40.257812 262.027344 40.332031 C 261.648438 40.40625 261.269531 40.445312 260.882812 40.445312 C 260.5 40.445312 260.117188 40.40625 259.742188 40.332031 C 259.363281 40.257812 258.996094 40.144531 258.640625 40 C 258.285156 39.851562 257.949219 39.671875 257.628906 39.457031 C 257.308594 39.242188 257.011719 39 256.742188 38.726562 C 256.46875 38.457031 256.226562 38.160156 256.011719 37.839844 C 255.796875 37.519531 255.617188 37.183594 255.472656 36.828125 C 255.324219 36.472656 255.210938 36.105469 255.136719 35.726562 C 255.0625 35.351562 255.023438 34.96875 255.023438 34.585938 L 255.023438 20.824219 L 194.195312 86.492188 C 193.746094 86.976562 193.230469 87.371094 192.648438 87.679688 C 192.0625 87.992188 191.445312 88.195312 190.792969 88.296875 C 190.140625 88.394531 189.492188 88.382812 188.84375 88.261719 C 188.191406 88.140625 187.582031 87.917969 187.011719 87.589844 L 123.300781 51.644531 L 58.59375 124.6875 C 58.039062 125.316406 57.378906 125.808594 56.609375 126.152344 C 55.84375 126.5 55.039062 126.675781 54.199219 126.675781 C 52.71875 126.683594 51.425781 126.195312 50.324219 125.210938 C 50.035156 124.957031 49.773438 124.675781 49.539062 124.367188 C 49.308594 124.0625 49.105469 123.738281 48.9375 123.390625 C 48.769531 123.046875 48.636719 122.6875 48.535156 122.316406 C 48.4375 121.941406 48.378906 121.566406 48.355469 121.179688 C 48.332031 120.796875 48.34375 120.414062 48.394531 120.035156 C 48.449219 119.652344 48.535156 119.28125 48.660156 118.917969 C 48.789062 118.550781 48.945312 118.203125 49.140625 117.871094 C 49.335938 117.539062 49.558594 117.230469 49.8125 116.941406 Z M 350.070312 203.851562 C 354.253906 203.859375 358.421875 203.578125 362.566406 203.015625 C 358.082031 300.753906 319.167969 337.902344 276.902344 362.390625 C 234.625 337.902344 195.722656 300.753906 191.230469 203.015625 C 223.277344 207.355469 255.585938 194.800781 276.902344 169.789062 C 279.148438 172.4375 281.53125 174.960938 284.046875 177.351562 C 286.566406 179.746094 289.203125 181.996094 291.964844 184.101562 C 294.726562 186.210938 297.59375 188.160156 300.566406 189.960938 C 303.539062 191.757812 306.597656 193.386719 309.746094 194.851562 C 312.898438 196.320312 316.117188 197.609375 319.402344 198.730469 C 322.691406 199.847656 326.03125 200.785156 329.421875 201.539062 C 332.8125 202.296875 336.234375 202.867188 339.683594 203.253906 C 343.136719 203.640625 346.597656 203.839844 350.070312 203.851562 Z M 29.191406 181.039062 C 29.191406 180.652344 29.226562 180.273438 29.300781 179.894531 C 29.378906 179.515625 29.488281 179.148438 29.636719 178.792969 C 29.78125 178.4375 29.960938 178.101562 30.175781 177.78125 C 30.390625 177.460938 30.632812 177.164062 30.90625 176.894531 C 31.175781 176.621094 31.472656 176.378906 31.792969 176.164062 C 32.113281 175.949219 32.453125 175.769531 32.808594 175.621094 C 33.164062 175.476562 33.527344 175.363281 33.90625 175.289062 C 34.285156 175.214844 34.664062 175.179688 35.050781 175.179688 L 73.359375 175.179688 C 73.746094 175.179688 74.125 175.214844 74.503906 175.289062 C 74.882812 175.363281 75.25 175.476562 75.605469 175.621094 C 75.960938 175.769531 76.296875 175.949219 76.617188 176.164062 C 76.9375 176.378906 77.234375 176.621094 77.503906 176.894531 C 77.777344 177.164062 78.019531 177.460938 78.234375 177.78125 C 78.449219 178.101562 78.628906 178.4375 78.777344 178.792969 C 78.921875 179.148438 79.035156 179.515625 79.109375 179.894531 C 79.183594 180.273438 79.21875 180.652344 79.21875 181.039062 L 79.21875 256.488281 L 97.03125 256.488281 L 97.03125 104.382812 C 97.03125 104 97.066406 103.617188 97.144531 103.242188 C 97.21875 102.863281 97.328125 102.496094 97.476562 102.140625 C 97.621094 101.785156 97.804688 101.449219 98.015625 101.128906 C 98.230469 100.808594 98.472656 100.511719 98.746094 100.238281 C 99.019531 99.96875 99.3125 99.726562 99.632812 99.511719 C 99.953125 99.296875 100.292969 99.117188 100.648438 98.96875 C 101.003906 98.824219 101.371094 98.710938 101.746094 98.636719 C 102.125 98.5625 102.503906 98.523438 102.890625 98.523438 L 141.203125 98.523438 C 141.589844 98.523438 141.96875 98.5625 142.347656 98.636719 C 142.726562 98.710938 143.089844 98.820312 143.449219 98.96875 C 143.804688 99.117188 144.140625 99.296875 144.460938 99.511719 C 144.78125 99.722656 145.078125 99.96875 145.347656 100.238281 C 145.621094 100.511719 145.863281 100.808594 146.078125 101.128906 C 146.292969 101.449219 146.472656 101.785156 146.621094 102.140625 C 146.765625 102.496094 146.878906 102.863281 146.953125 103.242188 C 147.027344 103.617188 147.0625 104 147.0625 104.382812 L 147.0625 256.488281 L 164.878906 256.488281 L 164.878906 142.738281 C 164.878906 142.351562 164.917969 141.972656 164.992188 141.59375 C 165.066406 141.21875 165.179688 140.851562 165.324219 140.496094 C 165.472656 140.140625 165.652344 139.800781 165.867188 139.484375 C 166.082031 139.164062 166.324219 138.867188 166.59375 138.59375 C 166.867188 138.324219 167.164062 138.078125 167.484375 137.867188 C 167.804688 137.652344 168.140625 137.472656 168.496094 137.324219 C 168.851562 137.175781 169.21875 137.066406 169.59375 136.992188 C 169.972656 136.917969 170.355469 136.878906 170.738281 136.878906 L 209.050781 136.878906 C 209.433594 136.878906 209.816406 136.914062 210.191406 136.992188 C 210.570312 137.066406 210.9375 137.175781 211.292969 137.324219 C 211.648438 137.46875 211.984375 137.652344 212.304688 137.863281 C 212.625 138.078125 212.921875 138.320312 213.195312 138.59375 C 213.464844 138.867188 213.710938 139.160156 213.921875 139.480469 C 214.136719 139.800781 214.316406 140.140625 214.464844 140.496094 C 214.609375 140.851562 214.722656 141.21875 214.796875 141.59375 C 214.871094 141.972656 214.910156 142.351562 214.910156 142.738281 L 214.910156 191.347656 C 221.011719 190.519531 226.953125 189.039062 232.730469 186.898438 L 232.730469 66.085938 C 232.730469 65.699219 232.765625 65.316406 232.839844 64.941406 C 232.917969 64.5625 233.027344 64.195312 233.175781 63.839844 C 233.320312 63.484375 233.5 63.148438 233.714844 62.828125 C 233.929688 62.507812 234.171875 62.210938 234.445312 61.9375 C 234.714844 61.667969 235.011719 61.425781 235.332031 61.210938 C 235.652344 60.996094 235.992188 60.816406 236.347656 60.667969 C 236.703125 60.523438 237.066406 60.410156 237.445312 60.335938 C 237.824219 60.261719 238.203125 60.222656 238.589844 60.226562 L 276.898438 60.226562 C 277.285156 60.226562 277.664062 60.261719 278.042969 60.335938 C 278.421875 60.414062 278.785156 60.523438 279.140625 60.671875 C 279.496094 60.816406 279.835938 61 280.15625 61.210938 C 280.476562 61.425781 280.769531 61.667969 281.042969 61.941406 C 281.316406 62.214844 281.558594 62.507812 281.773438 62.828125 C 281.984375 63.148438 282.167969 63.488281 282.3125 63.84375 C 282.460938 64.199219 282.570312 64.5625 282.648438 64.941406 C 282.722656 65.320312 282.757812 65.699219 282.757812 66.085938 L 282.757812 158.328125 C 282.757812 158.328125 282.75 158.328125 282.75 158.382812 C 302.699219 184.648438 335.738281 197.152344 367.445312 190.300781 C 368.324219 190.097656 369.203125 190.101562 370.078125 190.3125 C 370.957031 190.527344 371.738281 190.921875 372.429688 191.503906 C 373.121094 192.078125 373.648438 192.773438 374.019531 193.589844 C 374.390625 194.40625 374.5625 195.261719 374.539062 196.160156 C 373.191406 244.558594 364.140625 282.335938 346.84375 311.6875 C 331.988281 336.90625 310.679688 356.792969 279.777344 374.265625 C 278.878906 374.753906 277.917969 375 276.894531 375 C 275.871094 375 274.910156 374.753906 274.011719 374.265625 C 243.109375 356.792969 221.808594 336.90625 206.945312 311.6875 C 205.949219 310.015625 204.976562 308.289062 204.027344 306.507812 L 6.316406 306.507812 C 5.929688 306.507812 5.550781 306.472656 5.171875 306.394531 C 4.792969 306.320312 4.429688 306.210938 4.074219 306.0625 C 3.71875 305.914062 3.378906 305.734375 3.058594 305.519531 C 2.738281 305.308594 2.445312 305.0625 2.171875 304.792969 C 1.898438 304.519531 1.65625 304.222656 1.441406 303.902344 C 1.230469 303.585938 1.046875 303.246094 0.902344 302.890625 C 0.753906 302.535156 0.644531 302.167969 0.566406 301.792969 C 0.492188 301.414062 0.457031 301.035156 0.457031 300.648438 L 0.457031 262.347656 C 0.457031 261.964844 0.492188 261.582031 0.566406 261.203125 C 0.644531 260.828125 0.753906 260.460938 0.902344 260.105469 C 1.046875 259.75 1.230469 259.414062 1.441406 259.09375 C 1.65625 258.773438 1.898438 258.476562 2.171875 258.203125 C 2.445312 257.933594 2.738281 257.691406 3.058594 257.476562 C 3.378906 257.261719 3.71875 257.082031 4.074219 256.933594 C 4.429688 256.785156 4.792969 256.675781 5.171875 256.601562 C 5.550781 256.527344 5.929688 256.488281 6.316406 256.488281 L 29.191406 256.488281 Z M 29.191406 181.039062 " clip-rule="evenodd"/></clipPath><linearGradient x1="256" gradientTransform="matrix(0.732422, 0, 0, 0.732422, 0.0000045, 0)" y1="511.999527" x2="256.00101" gradientUnits="userSpaceOnUse" y2="-0.000503822" id="167bef59d2"><stop stop-opacity="1" stop-color="rgb(0%, 47.799683%, 71.398926%)" offset="0"/><stop stop-opacity="1" stop-color="rgb(0%, 47.903442%, 71.554565%)" offset="0.00000196797"/><stop stop-opacity="1" stop-color="rgb(0%, 48.008728%, 71.711731%)" offset="0.015625"/><stop stop-opacity="1" stop-color="rgb(0%, 48.112488%, 71.867371%)" offset="0.03125"/><stop stop-opacity="1" stop-color="rgb(0%, 48.321533%, 72.180176%)" offset="0.046875"/><stop stop-opacity="1" stop-color="rgb(0%, 48.532104%, 72.492981%)" offset="0.0625"/><stop stop-opacity="1" stop-color="rgb(0%, 48.74115%, 72.80426%)" offset="0.078125"/><stop stop-opacity="1" stop-color="rgb(0%, 48.950195%, 73.117065%)" offset="0.09375"/><stop stop-opacity="1" stop-color="rgb(0%, 49.159241%, 73.429871%)" offset="0.109375"/><stop stop-opacity="1" stop-color="rgb(0%, 49.368286%, 73.742676%)" offset="0.125"/><stop stop-opacity="1" stop-color="rgb(0%, 49.578857%, 74.055481%)" offset="0.140625"/><stop stop-opacity="1" stop-color="rgb(0%, 49.787903%, 74.36676%)" offset="0.15625"/><stop stop-opacity="1" stop-color="rgb(0%, 49.996948%, 74.679565%)" offset="0.171875"/><stop stop-opacity="1" stop-color="rgb(0%, 50.205994%, 74.992371%)" offset="0.1875"/><stop stop-opacity="1" stop-color="rgb(0%, 50.416565%, 75.305176%)" offset="0.203125"/><stop stop-opacity="1" stop-color="rgb(0%, 50.62561%, 75.617981%)" offset="0.21875"/><stop stop-opacity="1" stop-color="rgb(0%, 50.834656%, 75.92926%)" offset="0.234375"/><stop stop-opacity="1" stop-color="rgb(0%, 51.043701%, 76.242065%)" offset="0.25"/><stop stop-opacity="1" stop-color="rgb(0%, 51.252747%, 76.554871%)" offset="0.265625"/><stop stop-opacity="1" stop-color="rgb(0%, 51.463318%, 76.867676%)" offset="0.28125"/><stop stop-opacity="1" stop-color="rgb(0%, 51.672363%, 77.180481%)" offset="0.296875"/><stop stop-opacity="1" stop-color="rgb(0%, 51.881409%, 77.49176%)" offset="0.3125"/><stop stop-opacity="1" stop-color="rgb(0%, 52.090454%, 77.804565%)" offset="0.328125"/><stop stop-opacity="1" stop-color="rgb(0%, 52.2995%, 78.117371%)" offset="0.34375"/><stop stop-opacity="1" stop-color="rgb(0%, 52.510071%, 78.430176%)" offset="0.359375"/><stop stop-opacity="1" stop-color="rgb(0%, 52.719116%, 78.742981%)" offset="0.375"/><stop stop-opacity="1" stop-color="rgb(0%, 52.928162%, 79.05426%)" offset="0.390625"/><stop stop-opacity="1" stop-color="rgb(0%, 53.137207%, 79.367065%)" offset="0.40625"/><stop stop-opacity="1" stop-color="rgb(0%, 53.347778%, 79.679871%)" offset="0.421875"/><stop stop-opacity="1" stop-color="rgb(0%, 53.556824%, 79.992676%)" offset="0.4375"/><stop stop-opacity="1" stop-color="rgb(0%, 53.765869%, 80.305481%)" offset="0.453125"/><stop stop-opacity="1" stop-color="rgb(0%, 53.974915%, 80.61676%)" offset="0.46875"/><stop stop-opacity="1" stop-color="rgb(0%, 54.18396%, 80.929565%)" offset="0.484375"/><stop stop-opacity="1" stop-color="rgb(0%, 54.394531%, 81.242371%)" offset="0.5"/><stop stop-opacity="1" stop-color="rgb(0%, 54.603577%, 81.555176%)" offset="0.515625"/><stop stop-opacity="1" stop-color="rgb(0%, 54.812622%, 81.867981%)" offset="0.53125"/><stop stop-opacity="1" stop-color="rgb(0%, 55.021667%, 82.17926%)" offset="0.546875"/><stop stop-opacity="1" stop-color="rgb(0%, 55.230713%, 82.492065%)" offset="0.5625"/><stop stop-opacity="1" stop-color="rgb(0%, 55.441284%, 82.804871%)" offset="0.578125"/><stop stop-opacity="1" stop-color="rgb(0%, 55.65033%, 83.117676%)" offset="0.59375"/><stop stop-opacity="1" stop-color="rgb(0%, 55.859375%, 83.430481%)" offset="0.609375"/><stop stop-opacity="1" stop-color="rgb(0%, 56.06842%, 83.74176%)" offset="0.625"/><stop stop-opacity="1" stop-color="rgb(0%, 56.278992%, 84.054565%)" offset="0.640625"/><stop stop-opacity="1" stop-color="rgb(0%, 56.488037%, 84.367371%)" offset="0.65625"/><stop stop-opacity="1" stop-color="rgb(0%, 56.697083%, 84.680176%)" offset="0.671875"/><stop stop-opacity="1" stop-color="rgb(0%, 56.906128%, 84.992981%)" offset="0.6875"/><stop stop-opacity="1" stop-color="rgb(0%, 57.115173%, 85.30426%)" offset="0.703125"/><stop stop-opacity="1" stop-color="rgb(0%, 57.325745%, 85.617065%)" offset="0.71875"/><stop stop-opacity="1" stop-color="rgb(0%, 57.53479%, 85.929871%)" offset="0.734375"/><stop stop-opacity="1" stop-color="rgb(0%, 57.743835%, 86.242676%)" offset="0.75"/><stop stop-opacity="1" stop-color="rgb(0%, 57.952881%, 86.555481%)" offset="0.765625"/><stop stop-opacity="1" stop-color="rgb(0%, 58.163452%, 86.86676%)" offset="0.78125"/><stop stop-opacity="1" stop-color="rgb(0%, 58.372498%, 87.179565%)" offset="0.796875"/><stop stop-opacity="1" stop-color="rgb(0%, 58.581543%, 87.492371%)" offset="0.8125"/><stop stop-opacity="1" stop-color="rgb(0%, 58.790588%, 87.805176%)" offset="0.828125"/><stop stop-opacity="1" stop-color="rgb(0%, 58.999634%, 88.117981%)" offset="0.84375"/><stop stop-opacity="1" stop-color="rgb(0%, 59.210205%, 88.42926%)" offset="0.859375"/><stop stop-opacity="1" stop-color="rgb(0%, 59.41925%, 88.742065%)" offset="0.875"/><stop stop-opacity="1" stop-color="rgb(0%, 59.628296%, 89.054871%)" offset="0.890625"/><stop stop-opacity="1" stop-color="rgb(0%, 59.837341%, 89.367676%)" offset="0.90625"/><stop stop-opacity="1" stop-color="rgb(0%, 60.046387%, 89.680481%)" offset="0.921875"/><stop stop-opacity="1" stop-color="rgb(0%, 60.256958%, 89.99176%)" offset="0.9375"/><stop stop-opacity="1" stop-color="rgb(0%, 60.466003%, 90.304565%)" offset="0.953125"/><stop stop-opacity="1" stop-color="rgb(0%, 60.675049%, 90.617371%)" offset="0.96875"/><stop stop-opacity="1" stop-color="rgb(0%, 60.884094%, 90.930176%)" offset="0.984375"/><stop stop-opacity="1" stop-color="rgb(0%, 61.094666%, 91.242981%)" offset="0.999998"/><stop stop-opacity="1" stop-color="rgb(0%, 61.199951%, 91.398621%)" offset="1"/></linearGradient></defs><g clip-path="url(#7ae80bc751)"><path fill="url(#167bef59d2)" d="M 0.457031 0 L 0.457031 375 L 374.5625 375 L 374.5625 0 Z M 0.457031 0 " fill-rule="nonzero"/></g></svg>