<svg xmlns="http://www.w3.org/2000/svg" xmlns:xlink="http://www.w3.org/1999/xlink" width="500" zoomAndPan="magnify" viewBox="0 0 375 374.999991" height="500" preserveAspectRatio="xMidYMid meet" version="1.0"><defs><clipPath id="5cd40e0970"><path d="M 0 9 L 375 9 L 375 366 L 0 366 Z M 0 9 " clip-rule="nonzero"/></clipPath><clipPath id="feec5f185b"><path d="M 360.640625 15.339844 L 201.8125 15.339844 C 200.871094 15.339844 199.9375 15.429688 199.011719 15.613281 C 198.089844 15.796875 197.191406 16.070312 196.320312 16.429688 C 195.449219 16.789062 194.621094 17.230469 193.839844 17.753906 C 193.054688 18.277344 192.328125 18.871094 191.664062 19.539062 C 190.996094 20.203125 190.398438 20.929688 189.875 21.710938 C 189.351562 22.496094 188.910156 23.320312 188.546875 24.191406 C 188.1875 25.0625 187.914062 25.960938 187.730469 26.882812 C 187.546875 27.808594 187.453125 28.742188 187.453125 29.683594 L 187.453125 140.527344 C 187.453125 141.46875 187.550781 142.402344 187.734375 143.324219 C 187.921875 144.246094 188.195312 145.144531 188.558594 146.011719 C 188.921875 146.882812 189.363281 147.707031 189.886719 148.492188 C 190.414062 149.273438 191.007812 149.996094 191.671875 150.660156 C 192.339844 151.328125 193.066406 151.921875 193.847656 152.445312 C 194.628906 152.96875 195.457031 153.410156 196.328125 153.773438 C 197.195312 154.132812 198.09375 154.40625 199.015625 154.589844 C 199.9375 154.777344 200.871094 154.871094 201.8125 154.871094 L 213.972656 154.871094 L 213.972656 178.535156 C 213.972656 179.359375 214.078125 180.167969 214.289062 180.960938 C 214.503906 181.757812 214.816406 182.511719 215.226562 183.222656 C 215.636719 183.9375 216.132812 184.582031 216.714844 185.164062 C 217.296875 185.746094 217.945312 186.246094 218.65625 186.65625 C 219.371094 187.066406 220.125 187.378906 220.917969 187.59375 C 221.714844 187.804688 222.523438 187.914062 223.347656 187.914062 C 224.167969 187.914062 224.976562 187.804688 225.773438 187.59375 C 226.566406 187.378906 227.320312 187.066406 228.035156 186.65625 L 283.136719 154.867188 L 360.640625 154.867188 C 361.582031 154.867188 362.511719 154.773438 363.4375 154.589844 C 364.359375 154.402344 365.253906 154.128906 366.125 153.769531 C 366.996094 153.40625 367.820312 152.964844 368.605469 152.441406 C 369.386719 151.917969 370.109375 151.324219 370.777344 150.660156 C 371.445312 149.996094 372.039062 149.269531 372.5625 148.488281 C 373.085938 147.707031 373.53125 146.882812 373.890625 146.011719 C 374.253906 145.144531 374.527344 144.246094 374.714844 143.324219 C 374.902344 142.402344 374.996094 141.46875 375 140.527344 L 375 29.683594 C 375 28.742188 374.90625 27.808594 374.722656 26.882812 C 374.539062 25.960938 374.265625 25.0625 373.902344 24.191406 C 373.542969 23.320312 373.101562 22.496094 372.574219 21.710938 C 372.050781 20.929688 371.457031 20.203125 370.789062 19.539062 C 370.121094 18.871094 369.398438 18.277344 368.613281 17.753906 C 367.828125 17.230469 367.003906 16.789062 366.132812 16.429688 C 365.261719 16.070312 364.363281 15.796875 363.4375 15.613281 C 362.515625 15.429688 361.582031 15.339844 360.640625 15.339844 Z M 64.273438 11.210938 C 65.992188 10.007812 67.902344 9.394531 70 9.367188 C 71.171875 9.367188 72.316406 9.546875 73.429688 9.914062 C 74.199219 10.136719 74.929688 10.445312 75.625 10.839844 C 76.320312 11.234375 76.960938 11.707031 77.542969 12.253906 C 78.128906 12.800781 78.640625 13.410156 79.082031 14.078125 C 79.519531 14.746094 79.875 15.457031 80.148438 16.210938 L 107.464844 85.808594 C 107.84375 86.71875 108.085938 87.660156 108.199219 88.640625 C 108.308594 89.617188 108.28125 90.589844 108.113281 91.5625 C 107.945312 92.53125 107.644531 93.457031 107.214844 94.34375 C 106.78125 95.226562 106.234375 96.035156 105.574219 96.765625 L 94.410156 109.550781 L 92.277344 105.550781 C 77.375 77.628906 66.089844 48.3125 58.429688 17.601562 L 57.914062 15.523438 L 59.664062 14.289062 C 61.179688 13.226562 62.71875 12.203125 64.28125 11.214844 Z M 241.199219 284.320312 C 270.433594 301.015625 301.269531 313.847656 333.71875 322.8125 L 338.234375 324.058594 L 335.351562 327.75 C 328.070312 337.085938 320.367188 346.1875 312.207031 354.769531 C 311.28125 355.777344 310.292969 356.722656 309.25 357.609375 C 308.207031 358.492188 307.113281 359.3125 305.972656 360.066406 C 304.828125 360.820312 303.644531 361.5 302.417969 362.113281 C 301.195312 362.722656 299.9375 363.253906 298.648438 363.714844 C 297.355469 364.171875 296.042969 364.550781 294.707031 364.847656 C 293.371094 365.144531 292.023438 365.363281 290.660156 365.5 C 289.300781 365.632812 287.933594 365.6875 286.566406 365.65625 C 285.199219 365.625 283.835938 365.511719 282.480469 365.316406 C 153.976562 348.574219 17.066406 211.605469 0.316406 83.109375 C 0.125 81.757812 0.0117188 80.398438 -0.015625 79.03125 C -0.046875 77.667969 0.0078125 76.304688 0.140625 74.945312 C 0.277344 73.585938 0.492188 72.238281 0.792969 70.90625 C 1.089844 69.574219 1.46875 68.261719 1.921875 66.976562 C 2.378906 65.6875 2.914062 64.433594 3.519531 63.210938 C 4.128906 61.984375 4.808594 60.804688 5.558594 59.664062 C 6.3125 58.523438 7.128906 57.429688 8.011719 56.386719 C 8.894531 55.347656 9.835938 54.359375 10.839844 53.433594 C 19.410156 45.246094 28.523438 37.539062 37.851562 30.238281 L 41.542969 27.347656 L 42.789062 31.867188 C 51.785156 64.3125 64.613281 95.160156 81.273438 124.417969 L 81.960938 125.628906 L 81.519531 126.945312 C 81.078125 128.273438 80.769531 129.628906 80.59375 131.015625 C 80.421875 132.40625 80.382812 133.796875 80.480469 135.191406 C 80.578125 136.585938 80.8125 137.957031 81.183594 139.304688 C 81.550781 140.65625 82.046875 141.953125 82.671875 143.207031 C 90.175781 158.222656 98.847656 172.535156 108.675781 186.144531 C 118.507812 199.75 129.375 212.476562 141.273438 224.320312 C 153.121094 236.21875 165.855469 247.085938 179.464844 256.917969 C 193.074219 266.753906 207.390625 275.433594 222.40625 282.949219 C 223.65625 283.574219 224.957031 284.066406 226.308594 284.433594 C 227.65625 284.800781 229.03125 285.03125 230.425781 285.125 C 231.820312 285.222656 233.210938 285.179688 234.597656 285.003906 C 235.984375 284.824219 237.339844 284.511719 238.664062 284.066406 L 239.988281 283.625 L 241.199219 284.316406 Z M 279.785156 258.105469 C 278.875 257.738281 277.929688 257.5 276.949219 257.402344 C 275.972656 257.300781 275 257.335938 274.03125 257.511719 C 273.066406 257.6875 272.140625 257.992188 271.261719 258.429688 C 270.378906 258.867188 269.578125 259.417969 268.851562 260.082031 L 256.046875 271.191406 L 260.0625 273.332031 C 287.984375 288.238281 317.300781 299.527344 348.011719 307.203125 L 350.117188 307.726562 L 351.34375 305.9375 C 352.382812 304.421875 353.414062 302.902344 354.425781 301.367188 C 354.644531 301.035156 354.84375 300.691406 355.023438 300.335938 C 355.203125 299.980469 355.367188 299.613281 355.503906 299.242188 C 355.644531 298.867188 355.765625 298.488281 355.863281 298.101562 C 355.960938 297.714844 356.039062 297.324219 356.089844 296.929688 C 356.144531 296.535156 356.179688 296.140625 356.1875 295.738281 C 356.199219 295.339844 356.1875 294.945312 356.152344 294.546875 C 356.121094 294.148438 356.0625 293.753906 355.984375 293.363281 C 355.910156 292.972656 355.808594 292.585938 355.6875 292.207031 C 355.566406 291.828125 355.425781 291.457031 355.265625 291.089844 C 355.101562 290.726562 354.921875 290.375 354.71875 290.03125 C 354.515625 289.683594 354.296875 289.355469 354.058594 289.035156 C 353.820312 288.714844 353.566406 288.410156 353.292969 288.117188 C 353.019531 287.828125 352.734375 287.550781 352.429688 287.292969 C 352.125 287.035156 351.808594 286.792969 351.480469 286.570312 C 351.148438 286.34375 350.808594 286.140625 350.457031 285.953125 C 350.101562 285.769531 349.742188 285.601562 349.371094 285.457031 Z M 309.097656 85.109375 C 309.097656 84.492188 309.15625 83.882812 309.277344 83.277344 C 309.398438 82.671875 309.574219 82.085938 309.808594 81.519531 C 310.046875 80.949219 310.332031 80.410156 310.675781 79.898438 C 311.019531 79.382812 311.40625 78.910156 311.84375 78.476562 C 312.277344 78.039062 312.75 77.652344 313.261719 77.308594 C 313.773438 76.96875 314.316406 76.679688 314.882812 76.445312 C 315.453125 76.207031 316.039062 76.03125 316.644531 75.910156 C 317.25 75.792969 317.859375 75.730469 318.472656 75.734375 L 318.863281 75.734375 C 319.480469 75.734375 320.089844 75.792969 320.695312 75.914062 C 321.296875 76.03125 321.882812 76.210938 322.453125 76.445312 C 323.023438 76.683594 323.5625 76.96875 324.074219 77.3125 C 324.585938 77.65625 325.058594 78.042969 325.496094 78.480469 C 325.929688 78.914062 326.320312 79.386719 326.660156 79.898438 C 327.003906 80.410156 327.292969 80.953125 327.527344 81.519531 C 327.761719 82.089844 327.941406 82.675781 328.0625 83.28125 C 328.183594 83.882812 328.242188 84.492188 328.242188 85.109375 C 328.242188 85.726562 328.183594 86.335938 328.0625 86.9375 C 327.941406 87.542969 327.761719 88.128906 327.527344 88.699219 C 327.292969 89.265625 327.003906 89.808594 326.660156 90.320312 C 326.320312 90.832031 325.929688 91.304688 325.496094 91.738281 C 325.058594 92.175781 324.585938 92.5625 324.074219 92.90625 C 323.5625 93.246094 323.023438 93.535156 322.453125 93.773438 C 321.882812 94.007812 321.296875 94.1875 320.695312 94.304688 C 320.089844 94.425781 319.480469 94.484375 318.863281 94.484375 L 318.472656 94.484375 C 317.859375 94.484375 317.25 94.421875 316.648438 94.300781 C 316.042969 94.179688 315.457031 94 314.890625 93.765625 C 314.324219 93.527344 313.78125 93.238281 313.273438 92.898438 C 312.761719 92.554688 312.289062 92.167969 311.851562 91.734375 C 311.417969 91.296875 311.027344 90.824219 310.6875 90.3125 C 310.34375 89.800781 310.054688 89.261719 309.820312 88.695312 C 309.582031 88.125 309.40625 87.542969 309.285156 86.9375 C 309.160156 86.335938 309.101562 85.726562 309.097656 85.109375 Z M 234.214844 85.109375 C 234.214844 84.492188 234.273438 83.882812 234.394531 83.277344 C 234.511719 82.675781 234.691406 82.085938 234.925781 81.519531 C 235.160156 80.949219 235.449219 80.410156 235.792969 79.898438 C 236.132812 79.386719 236.523438 78.910156 236.957031 78.476562 C 237.394531 78.039062 237.867188 77.652344 238.378906 77.308594 C 238.890625 76.96875 239.429688 76.679688 240 76.445312 C 240.570312 76.207031 241.15625 76.03125 241.761719 75.910156 C 242.363281 75.792969 242.972656 75.730469 243.589844 75.734375 L 243.980469 75.734375 C 244.59375 75.734375 245.207031 75.792969 245.808594 75.914062 C 246.414062 76.03125 247 76.210938 247.566406 76.445312 C 248.136719 76.683594 248.675781 76.96875 249.1875 77.3125 C 249.703125 77.65625 250.175781 78.042969 250.609375 78.480469 C 251.046875 78.914062 251.433594 79.386719 251.777344 79.898438 C 252.117188 80.410156 252.40625 80.953125 252.644531 81.519531 C 252.878906 82.089844 253.054688 82.675781 253.175781 83.28125 C 253.296875 83.882812 253.355469 84.492188 253.355469 85.109375 C 253.355469 85.726562 253.296875 86.335938 253.175781 86.9375 C 253.054688 87.542969 252.878906 88.128906 252.644531 88.699219 C 252.40625 89.265625 252.117188 89.808594 251.777344 90.320312 C 251.433594 90.832031 251.046875 91.304688 250.609375 91.738281 C 250.175781 92.175781 249.703125 92.5625 249.1875 92.90625 C 248.675781 93.246094 248.136719 93.535156 247.566406 93.773438 C 247 94.007812 246.414062 94.1875 245.808594 94.304688 C 245.207031 94.425781 244.59375 94.484375 243.980469 94.484375 L 243.589844 94.484375 C 242.972656 94.484375 242.367188 94.421875 241.761719 94.300781 C 241.160156 94.179688 240.574219 94 240.007812 93.765625 C 239.4375 93.527344 238.898438 93.238281 238.386719 92.898438 C 237.875 92.554688 237.402344 92.167969 236.96875 91.730469 C 236.535156 91.296875 236.144531 90.824219 235.804688 90.3125 C 235.460938 89.800781 235.171875 89.261719 234.933594 88.695312 C 234.699219 88.125 234.519531 87.542969 234.398438 86.9375 C 234.277344 86.335938 234.214844 85.726562 234.214844 85.109375 Z M 271.664062 85.109375 C 271.664062 84.492188 271.722656 83.882812 271.84375 83.277344 C 271.960938 82.671875 272.140625 82.085938 272.375 81.519531 C 272.609375 80.949219 272.898438 80.40625 273.242188 79.894531 C 273.582031 79.382812 273.972656 78.910156 274.40625 78.472656 C 274.84375 78.039062 275.316406 77.648438 275.828125 77.308594 C 276.339844 76.964844 276.878906 76.675781 277.449219 76.441406 C 278.019531 76.207031 278.605469 76.03125 279.210938 75.910156 C 279.8125 75.789062 280.425781 75.730469 281.039062 75.734375 L 281.429688 75.734375 C 282.046875 75.734375 282.65625 75.792969 283.261719 75.914062 C 283.863281 76.03125 284.449219 76.210938 285.019531 76.445312 C 285.589844 76.683594 286.128906 76.96875 286.640625 77.3125 C 287.152344 77.65625 287.625 78.042969 288.0625 78.480469 C 288.496094 78.914062 288.886719 79.386719 289.226562 79.898438 C 289.570312 80.410156 289.859375 80.953125 290.09375 81.519531 C 290.328125 82.089844 290.507812 82.675781 290.628906 83.28125 C 290.746094 83.882812 290.808594 84.492188 290.808594 85.109375 C 290.808594 85.726562 290.746094 86.335938 290.628906 86.9375 C 290.507812 87.542969 290.328125 88.128906 290.09375 88.699219 C 289.859375 89.265625 289.570312 89.808594 289.226562 90.320312 C 288.886719 90.832031 288.496094 91.304688 288.0625 91.738281 C 287.625 92.175781 287.152344 92.5625 286.640625 92.90625 C 286.128906 93.246094 285.589844 93.535156 285.019531 93.773438 C 284.449219 94.007812 283.863281 94.1875 283.261719 94.304688 C 282.65625 94.425781 282.046875 94.484375 281.429688 94.484375 L 281.03125 94.484375 C 280.414062 94.484375 279.804688 94.421875 279.203125 94.300781 C 278.601562 94.179688 278.015625 94 277.445312 93.765625 C 276.878906 93.527344 276.339844 93.238281 275.828125 92.894531 C 275.316406 92.554688 274.84375 92.164062 274.410156 91.730469 C 273.976562 91.296875 273.585938 90.820312 273.246094 90.308594 C 272.902344 89.800781 272.617188 89.257812 272.378906 88.691406 C 272.144531 88.125 271.964844 87.539062 271.84375 86.933594 C 271.722656 86.332031 271.664062 85.722656 271.660156 85.109375 Z M 271.664062 85.109375 " clip-rule="evenodd"/></clipPath><linearGradient x1="255.99899" gradientTransform="matrix(0.732422, 0, 0, 0.732422, 0.0000045, 0)" y1="499.283675" x2="256" gradientUnits="userSpaceOnUse" y2="12.788113" id="0737e665bb"><stop stop-opacity="1" stop-color="rgb(0%, 47.799683%, 71.398926%)" offset="0"/><stop stop-opacity="1" stop-color="rgb(0%, 47.903442%, 71.55304%)" offset="0.00000218526"/><stop stop-opacity="1" stop-color="rgb(0%, 48.007202%, 71.708679%)" offset="0.015625"/><stop stop-opacity="1" stop-color="rgb(0%, 48.110962%, 71.864319%)" offset="0.03125"/><stop stop-opacity="1" stop-color="rgb(0%, 48.320007%, 72.177124%)" offset="0.046875"/><stop stop-opacity="1" stop-color="rgb(0%, 48.529053%, 72.489929%)" offset="0.0625"/><stop stop-opacity="1" stop-color="rgb(0%, 48.739624%, 72.802734%)" offset="0.078125"/><stop stop-opacity="1" stop-color="rgb(0%, 48.948669%, 73.114014%)" offset="0.09375"/><stop stop-opacity="1" stop-color="rgb(0%, 49.157715%, 73.426819%)" offset="0.109375"/><stop stop-opacity="1" stop-color="rgb(0%, 49.36676%, 73.739624%)" offset="0.125"/><stop stop-opacity="1" stop-color="rgb(0%, 49.577332%, 74.052429%)" offset="0.140625"/><stop stop-opacity="1" stop-color="rgb(0%, 49.786377%, 74.365234%)" offset="0.15625"/><stop stop-opacity="1" stop-color="rgb(0%, 49.995422%, 74.67804%)" offset="0.171875"/><stop stop-opacity="1" stop-color="rgb(0%, 50.204468%, 74.989319%)" offset="0.1875"/><stop stop-opacity="1" stop-color="rgb(0%, 50.413513%, 75.302124%)" offset="0.203125"/><stop stop-opacity="1" stop-color="rgb(0%, 50.624084%, 75.614929%)" offset="0.21875"/><stop stop-opacity="1" stop-color="rgb(0%, 50.83313%, 75.927734%)" offset="0.234375"/><stop stop-opacity="1" stop-color="rgb(0%, 51.042175%, 76.24054%)" offset="0.25"/><stop stop-opacity="1" stop-color="rgb(0%, 51.251221%, 76.553345%)" offset="0.265625"/><stop stop-opacity="1" stop-color="rgb(0%, 51.461792%, 76.864624%)" offset="0.28125"/><stop stop-opacity="1" stop-color="rgb(0%, 51.670837%, 77.177429%)" offset="0.296875"/><stop stop-opacity="1" stop-color="rgb(0%, 51.879883%, 77.490234%)" offset="0.3125"/><stop stop-opacity="1" stop-color="rgb(0%, 52.088928%, 77.80304%)" offset="0.328125"/><stop stop-opacity="1" stop-color="rgb(0%, 52.2995%, 78.115845%)" offset="0.34375"/><stop stop-opacity="1" stop-color="rgb(0%, 52.508545%, 78.42865%)" offset="0.359375"/><stop stop-opacity="1" stop-color="rgb(0%, 52.71759%, 78.739929%)" offset="0.375"/><stop stop-opacity="1" stop-color="rgb(0%, 52.926636%, 79.052734%)" offset="0.390625"/><stop stop-opacity="1" stop-color="rgb(0%, 53.137207%, 79.36554%)" offset="0.40625"/><stop stop-opacity="1" stop-color="rgb(0%, 53.346252%, 79.678345%)" offset="0.421875"/><stop stop-opacity="1" stop-color="rgb(0%, 53.555298%, 79.99115%)" offset="0.4375"/><stop stop-opacity="1" stop-color="rgb(0%, 53.764343%, 80.303955%)" offset="0.453125"/><stop stop-opacity="1" stop-color="rgb(0%, 53.973389%, 80.615234%)" offset="0.46875"/><stop stop-opacity="1" stop-color="rgb(0%, 54.18396%, 80.92804%)" offset="0.484375"/><stop stop-opacity="1" stop-color="rgb(0%, 54.393005%, 81.240845%)" offset="0.5"/><stop stop-opacity="1" stop-color="rgb(0%, 54.602051%, 81.55365%)" offset="0.515625"/><stop stop-opacity="1" stop-color="rgb(0%, 54.811096%, 81.866455%)" offset="0.53125"/><stop stop-opacity="1" stop-color="rgb(0%, 55.021667%, 82.17926%)" offset="0.546875"/><stop stop-opacity="1" stop-color="rgb(0%, 55.230713%, 82.49054%)" offset="0.5625"/><stop stop-opacity="1" stop-color="rgb(0%, 55.439758%, 82.803345%)" offset="0.578125"/><stop stop-opacity="1" stop-color="rgb(0%, 55.648804%, 83.11615%)" offset="0.59375"/><stop stop-opacity="1" stop-color="rgb(0%, 55.859375%, 83.428955%)" offset="0.609375"/><stop stop-opacity="1" stop-color="rgb(0%, 56.06842%, 83.74176%)" offset="0.625"/><stop stop-opacity="1" stop-color="rgb(0%, 56.277466%, 84.05304%)" offset="0.640625"/><stop stop-opacity="1" stop-color="rgb(0%, 56.486511%, 84.365845%)" offset="0.65625"/><stop stop-opacity="1" stop-color="rgb(0%, 56.697083%, 84.67865%)" offset="0.671875"/><stop stop-opacity="1" stop-color="rgb(0%, 56.906128%, 84.991455%)" offset="0.6875"/><stop stop-opacity="1" stop-color="rgb(0%, 57.115173%, 85.30426%)" offset="0.703125"/><stop stop-opacity="1" stop-color="rgb(0%, 57.324219%, 85.617065%)" offset="0.71875"/><stop stop-opacity="1" stop-color="rgb(0%, 57.53479%, 85.928345%)" offset="0.734375"/><stop stop-opacity="1" stop-color="rgb(0%, 57.743835%, 86.24115%)" offset="0.75"/><stop stop-opacity="1" stop-color="rgb(0%, 57.952881%, 86.553955%)" offset="0.765625"/><stop stop-opacity="1" stop-color="rgb(0%, 58.161926%, 86.86676%)" offset="0.78125"/><stop stop-opacity="1" stop-color="rgb(0%, 58.370972%, 87.179565%)" offset="0.796875"/><stop stop-opacity="1" stop-color="rgb(0%, 58.581543%, 87.492371%)" offset="0.8125"/><stop stop-opacity="1" stop-color="rgb(0%, 58.790588%, 87.80365%)" offset="0.828125"/><stop stop-opacity="1" stop-color="rgb(0%, 58.999634%, 88.116455%)" offset="0.84375"/><stop stop-opacity="1" stop-color="rgb(0%, 59.208679%, 88.42926%)" offset="0.859375"/><stop stop-opacity="1" stop-color="rgb(0%, 59.41925%, 88.742065%)" offset="0.875"/><stop stop-opacity="1" stop-color="rgb(0%, 59.628296%, 89.054871%)" offset="0.890625"/><stop stop-opacity="1" stop-color="rgb(0%, 59.837341%, 89.367676%)" offset="0.90625"/><stop stop-opacity="1" stop-color="rgb(0%, 60.046387%, 89.678955%)" offset="0.921875"/><stop stop-opacity="1" stop-color="rgb(0%, 60.256958%, 89.99176%)" offset="0.9375"/><stop stop-opacity="1" stop-color="rgb(0%, 60.466003%, 90.304565%)" offset="0.953125"/><stop stop-opacity="1" stop-color="rgb(0%, 60.675049%, 90.617371%)" offset="0.96875"/><stop stop-opacity="1" stop-color="rgb(0%, 60.884094%, 90.930176%)" offset="0.984375"/><stop stop-opacity="1" stop-color="rgb(0%, 61.094666%, 91.242981%)" offset="0.999998"/><stop stop-opacity="1" stop-color="rgb(0%, 61.199951%, 91.398621%)" offset="1"/></linearGradient></defs><g clip-path="url(#5cd40e0970)"><g clip-path="url(#feec5f185b)"><path fill="url(#0737e665bb)" d="M 0 9.367188 L 0 365.6875 L 375 365.6875 L 375 9.367188 Z M 0 9.367188 " fill-rule="nonzero"/></g></g></svg>