<svg xmlns="http://www.w3.org/2000/svg" xmlns:xlink="http://www.w3.org/1999/xlink" width="500" zoomAndPan="magnify" viewBox="0 0 375 374.999991" height="500" preserveAspectRatio="xMidYMid meet" version="1.0"><defs><clipPath id="0cb400f55d"><path d="M 187.5 0 C 84.113281 0 0 84.117188 0 187.5 C 0 290.882812 84.113281 375 187.5 375 C 290.886719 375 375 290.886719 375 187.5 C 375 84.113281 290.882812 0 187.5 0 Z M 196.433594 91.964844 L 196.433594 187.5 C 196.429688 188.585938 196.238281 189.636719 195.855469 190.652344 C 195.472656 191.671875 194.921875 192.585938 194.203125 193.402344 L 145.09375 249.203125 C 144.707031 249.640625 144.277344 250.039062 143.8125 250.394531 C 143.347656 250.753906 142.851562 251.058594 142.324219 251.316406 C 141.800781 251.578125 141.253906 251.78125 140.6875 251.933594 C 140.121094 252.082031 139.542969 252.175781 138.957031 252.214844 C 138.375 252.25 137.789062 252.230469 137.207031 252.152344 C 136.628906 252.078125 136.058594 251.941406 135.503906 251.753906 C 134.949219 251.566406 134.417969 251.324219 133.910156 251.027344 C 133.402344 250.734375 132.929688 250.394531 132.488281 250.007812 C 132.050781 249.621094 131.652344 249.191406 131.296875 248.726562 C 130.9375 248.261719 130.632812 247.765625 130.375 247.238281 C 130.113281 246.714844 129.910156 246.167969 129.757812 245.601562 C 129.609375 245.035156 129.515625 244.457031 129.476562 243.871094 C 129.441406 243.289062 129.460938 242.703125 129.539062 242.121094 C 129.613281 241.542969 129.746094 240.972656 129.9375 240.417969 C 130.125 239.863281 130.367188 239.332031 130.664062 238.824219 C 130.957031 238.316406 131.296875 237.84375 131.683594 237.402344 L 178.570312 184.132812 L 178.570312 91.964844 C 178.570312 91.378906 178.628906 90.796875 178.746094 90.222656 C 178.859375 89.648438 179.03125 89.09375 179.253906 88.550781 C 179.480469 88.011719 179.753906 87.496094 180.082031 87.007812 C 180.40625 86.523438 180.777344 86.074219 181.191406 85.660156 C 181.605469 85.246094 182.054688 84.875 182.542969 84.550781 C 183.03125 84.226562 183.542969 83.949219 184.085938 83.726562 C 184.628906 83.503906 185.183594 83.332031 185.757812 83.21875 C 186.335938 83.105469 186.914062 83.046875 187.5 83.046875 C 188.085938 83.046875 188.664062 83.105469 189.242188 83.21875 C 189.816406 83.332031 190.371094 83.503906 190.914062 83.726562 C 191.457031 83.949219 191.96875 84.226562 192.457031 84.550781 C 192.945312 84.875 193.394531 85.246094 193.808594 85.660156 C 194.222656 86.074219 194.59375 86.523438 194.917969 87.007812 C 195.246094 87.496094 195.519531 88.011719 195.746094 88.550781 C 195.96875 89.09375 196.140625 89.648438 196.253906 90.222656 C 196.371094 90.796875 196.429688 91.378906 196.429688 91.964844 Z M 291.667969 279.046875 C 292.082031 279.460938 292.449219 279.914062 292.777344 280.402344 C 293.101562 280.886719 293.375 281.402344 293.601562 281.945312 C 293.824219 282.484375 293.996094 283.042969 294.109375 283.621094 C 294.222656 284.195312 294.28125 284.773438 294.28125 285.359375 C 294.28125 285.945312 294.222656 286.527344 294.109375 287.101562 C 293.992188 287.675781 293.824219 288.234375 293.597656 288.777344 C 293.375 289.316406 293.101562 289.832031 292.773438 290.320312 C 292.449219 290.808594 292.078125 291.257812 291.664062 291.671875 C 291.25 292.085938 290.796875 292.457031 290.3125 292.78125 C 289.824219 293.105469 289.308594 293.382812 288.769531 293.605469 C 288.226562 293.832031 287.667969 294 287.09375 294.113281 C 286.519531 294.226562 285.9375 294.285156 285.351562 294.285156 C 284.765625 294.285156 284.183594 294.226562 283.609375 294.113281 C 283.035156 294 282.476562 293.828125 281.9375 293.605469 C 281.394531 293.378906 280.878906 293.105469 280.394531 292.78125 C 279.90625 292.453125 279.453125 292.082031 279.039062 291.667969 L 272.097656 284.726562 C 271.683594 284.3125 271.3125 283.859375 270.988281 283.375 C 270.664062 282.886719 270.386719 282.371094 270.164062 281.832031 C 269.9375 281.289062 269.769531 280.730469 269.65625 280.15625 C 269.542969 279.582031 269.484375 279 269.484375 278.414062 C 269.484375 277.828125 269.542969 277.246094 269.65625 276.671875 C 269.769531 276.097656 269.941406 275.539062 270.164062 275 C 270.390625 274.457031 270.664062 273.941406 270.988281 273.457031 C 271.316406 272.96875 271.6875 272.515625 272.101562 272.101562 C 272.515625 271.6875 272.964844 271.320312 273.453125 270.992188 C 273.941406 270.667969 274.453125 270.394531 274.996094 270.167969 C 275.539062 269.945312 276.097656 269.773438 276.671875 269.660156 C 277.246094 269.546875 277.828125 269.488281 278.414062 269.488281 C 279 269.488281 279.578125 269.546875 280.152344 269.660156 C 280.730469 269.777344 281.285156 269.945312 281.828125 270.171875 C 282.371094 270.394531 282.882812 270.667969 283.371094 270.996094 C 283.859375 271.320312 284.308594 271.691406 284.722656 272.105469 Z M 102.894531 90.273438 C 103.292969 90.691406 103.644531 91.144531 103.953125 91.628906 C 104.261719 92.117188 104.519531 92.628906 104.726562 93.164062 C 104.9375 93.703125 105.09375 94.253906 105.195312 94.820312 C 105.296875 95.386719 105.34375 95.960938 105.335938 96.535156 C 105.328125 97.113281 105.265625 97.679688 105.148438 98.246094 C 105.027344 98.808594 104.859375 99.355469 104.632812 99.886719 C 104.410156 100.417969 104.136719 100.921875 103.816406 101.398438 C 103.492188 101.878906 103.128906 102.320312 102.722656 102.726562 C 102.316406 103.136719 101.871094 103.5 101.394531 103.820312 C 100.917969 104.144531 100.414062 104.417969 99.882812 104.640625 C 99.351562 104.867188 98.804688 105.035156 98.242188 105.15625 C 97.675781 105.273438 97.105469 105.335938 96.53125 105.34375 C 95.953125 105.355469 95.382812 105.308594 94.816406 105.203125 C 94.25 105.101562 93.699219 104.945312 93.160156 104.738281 C 92.625 104.527344 92.113281 104.269531 91.625 103.960938 C 91.136719 103.652344 90.683594 103.300781 90.265625 102.90625 L 83.324219 95.953125 C 82.90625 95.539062 82.53125 95.089844 82.199219 94.601562 C 81.867188 94.113281 81.589844 93.597656 81.359375 93.054688 C 81.132812 92.511719 80.957031 91.953125 80.839844 91.375 C 80.722656 90.796875 80.664062 90.214844 80.660156 89.625 C 80.65625 89.035156 80.714844 88.453125 80.828125 87.875 C 80.941406 87.296875 81.109375 86.734375 81.332031 86.1875 C 81.558594 85.644531 81.832031 85.125 82.160156 84.636719 C 82.488281 84.144531 82.859375 83.691406 83.277344 83.277344 C 83.691406 82.859375 84.144531 82.488281 84.636719 82.160156 C 85.125 81.832031 85.644531 81.558594 86.1875 81.332031 C 86.734375 81.109375 87.296875 80.941406 87.875 80.828125 C 88.453125 80.714844 89.035156 80.65625 89.625 80.660156 C 90.214844 80.664062 90.796875 80.722656 91.375 80.839844 C 91.953125 80.957031 92.511719 81.132812 93.054688 81.359375 C 93.597656 81.589844 94.113281 81.867188 94.601562 82.199219 C 95.089844 82.53125 95.539062 82.90625 95.953125 83.324219 Z M 67.859375 187.5 C 67.859375 188.085938 67.800781 188.667969 67.6875 189.242188 C 67.574219 189.816406 67.402344 190.375 67.179688 190.917969 C 66.953125 191.457031 66.679688 191.972656 66.355469 192.460938 C 66.027344 192.949219 65.65625 193.398438 65.242188 193.8125 C 64.828125 194.230469 64.378906 194.597656 63.890625 194.925781 C 63.402344 195.25 62.886719 195.527344 62.347656 195.75 C 61.804688 195.976562 61.246094 196.144531 60.671875 196.257812 C 60.097656 196.375 59.515625 196.429688 58.929688 196.429688 L 49.105469 196.429688 C 48.519531 196.429688 47.9375 196.375 47.363281 196.257812 C 46.789062 196.144531 46.230469 195.976562 45.6875 195.75 C 45.148438 195.527344 44.632812 195.253906 44.144531 194.925781 C 43.65625 194.601562 43.207031 194.230469 42.792969 193.816406 C 42.378906 193.402344 42.007812 192.949219 41.683594 192.464844 C 41.355469 191.976562 41.082031 191.460938 40.855469 190.917969 C 40.632812 190.378906 40.464844 189.820312 40.347656 189.246094 C 40.234375 188.667969 40.175781 188.089844 40.175781 187.503906 C 40.175781 186.917969 40.234375 186.335938 40.347656 185.761719 C 40.464844 185.1875 40.632812 184.628906 40.855469 184.085938 C 41.082031 183.542969 41.355469 183.03125 41.683594 182.542969 C 42.007812 182.054688 42.378906 181.605469 42.792969 181.191406 C 43.207031 180.773438 43.65625 180.40625 44.144531 180.078125 C 44.632812 179.753906 45.148438 179.480469 45.6875 179.253906 C 46.230469 179.03125 46.789062 178.859375 47.363281 178.746094 C 47.9375 178.632812 48.519531 178.574219 49.105469 178.574219 L 58.929688 178.574219 C 59.515625 178.574219 60.097656 178.632812 60.671875 178.746094 C 61.246094 178.859375 61.804688 179.027344 62.347656 179.253906 C 62.886719 179.476562 63.402344 179.753906 63.890625 180.078125 C 64.378906 180.402344 64.828125 180.773438 65.242188 181.1875 C 65.65625 181.601562 66.027344 182.054688 66.355469 182.539062 C 66.679688 183.027344 66.953125 183.542969 67.179688 184.082031 C 67.402344 184.625 67.574219 185.183594 67.6875 185.757812 C 67.800781 186.332031 67.859375 186.914062 67.859375 187.5 Z M 307.140625 187.5 C 307.144531 186.914062 307.199219 186.332031 307.3125 185.757812 C 307.429688 185.183594 307.597656 184.625 307.824219 184.082031 C 308.046875 183.542969 308.324219 183.027344 308.648438 182.539062 C 308.972656 182.050781 309.34375 181.601562 309.757812 181.1875 C 310.171875 180.773438 310.625 180.402344 311.113281 180.078125 C 311.601562 179.75 312.113281 179.476562 312.65625 179.253906 C 313.199219 179.027344 313.757812 178.859375 314.332031 178.746094 C 314.90625 178.632812 315.488281 178.574219 316.074219 178.574219 L 325.894531 178.574219 C 326.480469 178.574219 327.058594 178.632812 327.632812 178.746094 C 328.210938 178.859375 328.769531 179.03125 329.308594 179.253906 C 329.851562 179.480469 330.367188 179.753906 330.851562 180.078125 C 331.339844 180.40625 331.792969 180.773438 332.207031 181.191406 C 332.621094 181.605469 332.992188 182.054688 333.316406 182.542969 C 333.640625 183.03125 333.917969 183.542969 334.140625 184.085938 C 334.367188 184.628906 334.535156 185.1875 334.648438 185.761719 C 334.761719 186.335938 334.820312 186.917969 334.820312 187.503906 C 334.820312 188.089844 334.761719 188.667969 334.648438 189.246094 C 334.535156 189.820312 334.367188 190.378906 334.140625 190.917969 C 333.917969 191.460938 333.640625 191.976562 333.316406 192.464844 C 332.992188 192.949219 332.621094 193.402344 332.207031 193.816406 C 331.792969 194.230469 331.339844 194.601562 330.851562 194.925781 C 330.367188 195.253906 329.851562 195.527344 329.308594 195.75 C 328.769531 195.976562 328.210938 196.144531 327.632812 196.257812 C 327.058594 196.375 326.480469 196.429688 325.894531 196.429688 L 316.070312 196.429688 C 315.484375 196.429688 314.902344 196.375 314.328125 196.257812 C 313.753906 196.144531 313.195312 195.976562 312.652344 195.75 C 312.109375 195.527344 311.597656 195.253906 311.109375 194.925781 C 310.621094 194.601562 310.171875 194.230469 309.753906 193.816406 C 309.339844 193.402344 308.96875 192.949219 308.644531 192.460938 C 308.320312 191.972656 308.042969 191.460938 307.820312 190.917969 C 307.59375 190.375 307.425781 189.816406 307.3125 189.242188 C 307.195312 188.667969 307.140625 188.085938 307.140625 187.5 Z M 102.898438 272.09375 C 103.3125 272.507812 103.683594 272.960938 104.007812 273.449219 C 104.332031 273.9375 104.609375 274.449219 104.832031 274.992188 C 105.054688 275.535156 105.226562 276.09375 105.339844 276.667969 C 105.453125 277.242188 105.511719 277.824219 105.511719 278.410156 C 105.511719 278.996094 105.453125 279.578125 105.339844 280.152344 C 105.226562 280.726562 105.054688 281.285156 104.832031 281.828125 C 104.609375 282.371094 104.332031 282.882812 104.007812 283.371094 C 103.683594 283.859375 103.3125 284.3125 102.898438 284.726562 L 95.957031 291.667969 C 95.539062 292.082031 95.089844 292.453125 94.601562 292.78125 C 94.117188 293.105469 93.601562 293.378906 93.058594 293.605469 C 92.519531 293.828125 91.960938 294 91.386719 294.113281 C 90.808594 294.230469 90.230469 294.285156 89.644531 294.285156 C 89.058594 294.285156 88.476562 294.230469 87.902344 294.117188 C 87.328125 294 86.769531 293.832031 86.226562 293.609375 C 85.683594 293.382812 85.167969 293.109375 84.683594 292.785156 C 84.195312 292.457031 83.742188 292.089844 83.328125 291.675781 C 82.914062 291.261719 82.542969 290.808594 82.21875 290.320312 C 81.890625 289.835938 81.617188 289.320312 81.390625 288.777344 C 81.167969 288.238281 80.996094 287.679688 80.882812 287.105469 C 80.769531 286.527344 80.710938 285.949219 80.710938 285.363281 C 80.710938 284.777344 80.769531 284.195312 80.882812 283.621094 C 80.996094 283.046875 81.164062 282.488281 81.390625 281.945312 C 81.613281 281.402344 81.886719 280.886719 82.214844 280.402344 C 82.539062 279.914062 82.910156 279.460938 83.324219 279.046875 L 90.265625 272.105469 C 90.679688 271.691406 91.132812 271.320312 91.617188 270.992188 C 92.105469 270.667969 92.621094 270.390625 93.164062 270.167969 C 93.703125 269.941406 94.261719 269.773438 94.835938 269.65625 C 95.414062 269.542969 95.992188 269.484375 96.578125 269.484375 C 97.167969 269.484375 97.746094 269.542969 98.324219 269.65625 C 98.898438 269.769531 99.457031 269.9375 100 270.160156 C 100.539062 270.386719 101.054688 270.660156 101.542969 270.984375 C 102.03125 271.3125 102.484375 271.679688 102.898438 272.09375 Z M 291.667969 83.328125 C 292.082031 83.742188 292.453125 84.191406 292.777344 84.679688 C 293.105469 85.167969 293.378906 85.683594 293.605469 86.222656 C 293.828125 86.765625 293.996094 87.324219 294.113281 87.898438 C 294.226562 88.472656 294.285156 89.054688 294.285156 89.640625 C 294.285156 90.226562 294.226562 90.808594 294.113281 91.382812 C 293.996094 91.957031 293.828125 92.515625 293.605469 93.058594 C 293.378906 93.597656 293.105469 94.113281 292.777344 94.601562 C 292.453125 95.089844 292.082031 95.539062 291.667969 95.953125 L 284.726562 102.90625 C 284.308594 103.316406 283.859375 103.679688 283.371094 104 C 282.882812 104.324219 282.367188 104.59375 281.828125 104.8125 C 281.289062 105.03125 280.730469 105.199219 280.160156 105.308594 C 279.585938 105.417969 279.007812 105.472656 278.425781 105.472656 C 277.839844 105.46875 277.261719 105.410156 276.691406 105.292969 C 276.117188 105.179688 275.5625 105.007812 275.023438 104.785156 C 274.488281 104.558594 273.976562 104.285156 273.488281 103.960938 C 273.003906 103.636719 272.558594 103.265625 272.144531 102.851562 C 271.730469 102.441406 271.363281 101.992188 271.039062 101.507812 C 270.714844 101.023438 270.441406 100.511719 270.214844 99.972656 C 269.992188 99.433594 269.824219 98.878906 269.707031 98.304688 C 269.59375 97.734375 269.535156 97.15625 269.53125 96.570312 C 269.53125 95.988281 269.585938 95.410156 269.695312 94.835938 C 269.808594 94.265625 269.972656 93.707031 270.191406 93.167969 C 270.414062 92.628906 270.683594 92.113281 271.003906 91.625 C 271.328125 91.140625 271.691406 90.6875 272.101562 90.273438 L 279.042969 83.324219 C 279.457031 82.910156 279.910156 82.539062 280.398438 82.214844 C 280.886719 81.890625 281.398438 81.617188 281.941406 81.390625 C 282.484375 81.167969 283.039062 80.996094 283.617188 80.882812 C 284.191406 80.769531 284.769531 80.710938 285.355469 80.710938 C 285.945312 80.710938 286.523438 80.769531 287.097656 80.882812 C 287.675781 80.996094 288.230469 81.167969 288.773438 81.390625 C 289.316406 81.617188 289.828125 81.890625 290.316406 82.214844 C 290.804688 82.539062 291.257812 82.910156 291.671875 83.324219 Z M 196.429688 49.109375 L 196.429688 58.933594 C 196.429688 59.519531 196.371094 60.097656 196.257812 60.675781 C 196.144531 61.25 195.972656 61.808594 195.75 62.347656 C 195.523438 62.890625 195.25 63.40625 194.925781 63.894531 C 194.597656 64.378906 194.226562 64.832031 193.8125 65.246094 C 193.398438 65.660156 192.949219 66.03125 192.460938 66.355469 C 191.972656 66.683594 191.457031 66.957031 190.917969 67.179688 C 190.375 67.40625 189.816406 67.574219 189.242188 67.691406 C 188.667969 67.804688 188.085938 67.859375 187.5 67.859375 C 186.914062 67.859375 186.332031 67.804688 185.757812 67.691406 C 185.183594 67.574219 184.625 67.40625 184.082031 67.179688 C 183.542969 66.957031 183.027344 66.683594 182.539062 66.355469 C 182.050781 66.03125 181.601562 65.660156 181.1875 65.246094 C 180.773438 64.832031 180.402344 64.378906 180.074219 63.894531 C 179.75 63.40625 179.476562 62.890625 179.25 62.347656 C 179.027344 61.808594 178.855469 61.25 178.742188 60.675781 C 178.628906 60.097656 178.570312 59.519531 178.570312 58.933594 L 178.570312 49.109375 C 178.570312 48.523438 178.628906 47.941406 178.742188 47.367188 C 178.855469 46.792969 179.027344 46.234375 179.25 45.691406 C 179.476562 45.148438 179.75 44.636719 180.074219 44.148438 C 180.402344 43.660156 180.773438 43.210938 181.1875 42.792969 C 181.601562 42.378906 182.050781 42.007812 182.539062 41.683594 C 183.027344 41.359375 183.542969 41.082031 184.082031 40.859375 C 184.625 40.632812 185.183594 40.464844 185.757812 40.351562 C 186.332031 40.238281 186.914062 40.179688 187.5 40.179688 C 188.085938 40.179688 188.667969 40.238281 189.242188 40.351562 C 189.816406 40.464844 190.375 40.632812 190.917969 40.859375 C 191.457031 41.082031 191.972656 41.359375 192.460938 41.683594 C 192.949219 42.007812 193.398438 42.378906 193.8125 42.792969 C 194.226562 43.210938 194.597656 43.660156 194.925781 44.148438 C 195.25 44.636719 195.523438 45.148438 195.75 45.691406 C 195.972656 46.234375 196.144531 46.792969 196.257812 47.367188 C 196.371094 47.941406 196.429688 48.523438 196.429688 49.109375 Z M 196.429688 316.074219 L 196.429688 325.894531 C 196.429688 326.480469 196.371094 327.0625 196.257812 327.636719 C 196.144531 328.210938 195.972656 328.769531 195.75 329.3125 C 195.523438 329.851562 195.25 330.367188 194.925781 330.855469 C 194.597656 331.34375 194.226562 331.792969 193.8125 332.207031 C 193.398438 332.621094 192.949219 332.992188 192.460938 333.316406 C 191.972656 333.644531 191.457031 333.917969 190.917969 334.144531 C 190.375 334.367188 189.816406 334.535156 189.242188 334.652344 C 188.667969 334.765625 188.085938 334.824219 187.5 334.824219 C 186.914062 334.824219 186.332031 334.765625 185.757812 334.652344 C 185.183594 334.535156 184.625 334.367188 184.082031 334.144531 C 183.542969 333.917969 183.027344 333.644531 182.539062 333.316406 C 182.050781 332.992188 181.601562 332.621094 181.1875 332.207031 C 180.773438 331.792969 180.402344 331.34375 180.074219 330.855469 C 179.75 330.367188 179.476562 329.851562 179.25 329.3125 C 179.027344 328.769531 178.855469 328.210938 178.742188 327.636719 C 178.628906 327.0625 178.570312 326.480469 178.570312 325.894531 L 178.570312 316.074219 C 178.570312 315.488281 178.628906 314.90625 178.742188 314.332031 C 178.855469 313.757812 179.027344 313.199219 179.25 312.65625 C 179.476562 312.113281 179.75 311.601562 180.074219 311.113281 C 180.402344 310.625 180.773438 310.175781 181.1875 309.761719 C 181.601562 309.34375 182.050781 308.976562 182.539062 308.648438 C 183.027344 308.324219 183.542969 308.046875 184.082031 307.824219 C 184.625 307.601562 185.183594 307.429688 185.757812 307.316406 C 186.332031 307.203125 186.914062 307.144531 187.5 307.144531 C 188.085938 307.144531 188.667969 307.203125 189.242188 307.316406 C 189.816406 307.429688 190.375 307.601562 190.917969 307.824219 C 191.457031 308.046875 191.972656 308.324219 192.460938 308.648438 C 192.949219 308.976562 193.398438 309.34375 193.8125 309.761719 C 194.226562 310.175781 194.597656 310.625 194.925781 311.113281 C 195.25 311.601562 195.523438 312.113281 195.75 312.65625 C 195.972656 313.199219 196.144531 313.757812 196.257812 314.332031 C 196.371094 314.90625 196.429688 315.488281 196.429688 316.074219 Z M 196.429688 316.074219 " clip-rule="evenodd"/></clipPath><linearGradient x1="256" gradientTransform="matrix(0.732422, 0, 0, 0.732422, 0.0000045, 0)" y1="511.999973" x2="256" gradientUnits="userSpaceOnUse" y2="0" id="ee3ec8bc04"><stop stop-opacity="1" stop-color="rgb(0%, 47.799683%, 71.398926%)" offset="0"/><stop stop-opacity="1" stop-color="rgb(0%, 47.903442%, 71.554565%)" offset="0.015625"/><stop stop-opacity="1" stop-color="rgb(0%, 48.112488%, 71.867371%)" offset="0.03125"/><stop stop-opacity="1" stop-color="rgb(0%, 48.321533%, 72.180176%)" offset="0.046875"/><stop stop-opacity="1" stop-color="rgb(0%, 48.532104%, 72.492981%)" offset="0.0625"/><stop stop-opacity="1" stop-color="rgb(0%, 48.74115%, 72.80426%)" offset="0.078125"/><stop stop-opacity="1" stop-color="rgb(0%, 48.950195%, 73.117065%)" offset="0.09375"/><stop stop-opacity="1" stop-color="rgb(0%, 49.159241%, 73.429871%)" offset="0.109375"/><stop stop-opacity="1" stop-color="rgb(0%, 49.368286%, 73.742676%)" offset="0.125"/><stop stop-opacity="1" stop-color="rgb(0%, 49.578857%, 74.055481%)" offset="0.140625"/><stop stop-opacity="1" stop-color="rgb(0%, 49.787903%, 74.36676%)" offset="0.15625"/><stop stop-opacity="1" stop-color="rgb(0%, 49.996948%, 74.679565%)" offset="0.171875"/><stop stop-opacity="1" stop-color="rgb(0%, 50.205994%, 74.992371%)" offset="0.1875"/><stop stop-opacity="1" stop-color="rgb(0%, 50.416565%, 75.305176%)" offset="0.203125"/><stop stop-opacity="1" stop-color="rgb(0%, 50.62561%, 75.617981%)" offset="0.21875"/><stop stop-opacity="1" stop-color="rgb(0%, 50.834656%, 75.92926%)" offset="0.234375"/><stop stop-opacity="1" stop-color="rgb(0%, 51.043701%, 76.242065%)" offset="0.25"/><stop stop-opacity="1" stop-color="rgb(0%, 51.252747%, 76.554871%)" offset="0.265625"/><stop stop-opacity="1" stop-color="rgb(0%, 51.463318%, 76.867676%)" offset="0.28125"/><stop stop-opacity="1" stop-color="rgb(0%, 51.672363%, 77.180481%)" offset="0.296875"/><stop stop-opacity="1" stop-color="rgb(0%, 51.881409%, 77.49176%)" offset="0.3125"/><stop stop-opacity="1" stop-color="rgb(0%, 52.090454%, 77.804565%)" offset="0.328125"/><stop stop-opacity="1" stop-color="rgb(0%, 52.2995%, 78.117371%)" offset="0.34375"/><stop stop-opacity="1" stop-color="rgb(0%, 52.510071%, 78.430176%)" offset="0.359375"/><stop stop-opacity="1" stop-color="rgb(0%, 52.719116%, 78.742981%)" offset="0.375"/><stop stop-opacity="1" stop-color="rgb(0%, 52.928162%, 79.05426%)" offset="0.390625"/><stop stop-opacity="1" stop-color="rgb(0%, 53.137207%, 79.367065%)" offset="0.40625"/><stop stop-opacity="1" stop-color="rgb(0%, 53.347778%, 79.679871%)" offset="0.421875"/><stop stop-opacity="1" stop-color="rgb(0%, 53.556824%, 79.992676%)" offset="0.4375"/><stop stop-opacity="1" stop-color="rgb(0%, 53.765869%, 80.305481%)" offset="0.453125"/><stop stop-opacity="1" stop-color="rgb(0%, 53.974915%, 80.61676%)" offset="0.46875"/><stop stop-opacity="1" stop-color="rgb(0%, 54.18396%, 80.929565%)" offset="0.484375"/><stop stop-opacity="1" stop-color="rgb(0%, 54.394531%, 81.242371%)" offset="0.5"/><stop stop-opacity="1" stop-color="rgb(0%, 54.603577%, 81.555176%)" offset="0.515625"/><stop stop-opacity="1" stop-color="rgb(0%, 54.812622%, 81.867981%)" offset="0.53125"/><stop stop-opacity="1" stop-color="rgb(0%, 55.021667%, 82.17926%)" offset="0.546875"/><stop stop-opacity="1" stop-color="rgb(0%, 55.230713%, 82.492065%)" offset="0.5625"/><stop stop-opacity="1" stop-color="rgb(0%, 55.441284%, 82.804871%)" offset="0.578125"/><stop stop-opacity="1" stop-color="rgb(0%, 55.65033%, 83.117676%)" offset="0.59375"/><stop stop-opacity="1" stop-color="rgb(0%, 55.859375%, 83.430481%)" offset="0.609375"/><stop stop-opacity="1" stop-color="rgb(0%, 56.06842%, 83.74176%)" offset="0.625"/><stop stop-opacity="1" stop-color="rgb(0%, 56.278992%, 84.054565%)" offset="0.640625"/><stop stop-opacity="1" stop-color="rgb(0%, 56.488037%, 84.367371%)" offset="0.65625"/><stop stop-opacity="1" stop-color="rgb(0%, 56.697083%, 84.680176%)" offset="0.671875"/><stop stop-opacity="1" stop-color="rgb(0%, 56.906128%, 84.992981%)" offset="0.6875"/><stop stop-opacity="1" stop-color="rgb(0%, 57.115173%, 85.30426%)" offset="0.703125"/><stop stop-opacity="1" stop-color="rgb(0%, 57.325745%, 85.617065%)" offset="0.71875"/><stop stop-opacity="1" stop-color="rgb(0%, 57.53479%, 85.929871%)" offset="0.734375"/><stop stop-opacity="1" stop-color="rgb(0%, 57.743835%, 86.242676%)" offset="0.75"/><stop stop-opacity="1" stop-color="rgb(0%, 57.952881%, 86.555481%)" offset="0.765625"/><stop stop-opacity="1" stop-color="rgb(0%, 58.163452%, 86.86676%)" offset="0.78125"/><stop stop-opacity="1" stop-color="rgb(0%, 58.372498%, 87.179565%)" offset="0.796875"/><stop stop-opacity="1" stop-color="rgb(0%, 58.581543%, 87.492371%)" offset="0.8125"/><stop stop-opacity="1" stop-color="rgb(0%, 58.790588%, 87.805176%)" offset="0.828125"/><stop stop-opacity="1" stop-color="rgb(0%, 58.999634%, 88.117981%)" offset="0.84375"/><stop stop-opacity="1" stop-color="rgb(0%, 59.210205%, 88.42926%)" offset="0.859375"/><stop stop-opacity="1" stop-color="rgb(0%, 59.41925%, 88.742065%)" offset="0.875"/><stop stop-opacity="1" stop-color="rgb(0%, 59.628296%, 89.054871%)" offset="0.890625"/><stop stop-opacity="1" stop-color="rgb(0%, 59.837341%, 89.367676%)" offset="0.90625"/><stop stop-opacity="1" stop-color="rgb(0%, 60.046387%, 89.680481%)" offset="0.921875"/><stop stop-opacity="1" stop-color="rgb(0%, 60.256958%, 89.99176%)" offset="0.9375"/><stop stop-opacity="1" stop-color="rgb(0%, 60.466003%, 90.304565%)" offset="0.953125"/><stop stop-opacity="1" stop-color="rgb(0%, 60.675049%, 90.617371%)" offset="0.96875"/><stop stop-opacity="1" stop-color="rgb(0%, 60.884094%, 90.930176%)" offset="0.984375"/><stop stop-opacity="1" stop-color="rgb(0%, 61.094666%, 91.242981%)" offset="1"/></linearGradient></defs><g clip-path="url(#0cb400f55d)"><rect x="-37.5" fill="url(#ee3ec8bc04)" width="450" y="-37.499999" height="449.999989"/></g></svg>