<svg xmlns="http://www.w3.org/2000/svg" xmlns:xlink="http://www.w3.org/1999/xlink" width="500" zoomAndPan="magnify" viewBox="0 0 375 374.999991" height="500" preserveAspectRatio="xMidYMid meet" version="1.0"><defs><clipPath id="42028a9163"><path d="M 371.144531 137.738281 L 343.980469 117 L 343.980469 80.953125 C 343.976562 79.59375 343.910156 78.234375 343.773438 76.882812 C 343.636719 75.527344 343.4375 74.183594 343.171875 72.847656 C 342.902344 71.511719 342.570312 70.195312 342.175781 68.890625 C 341.78125 67.589844 341.320312 66.308594 340.800781 65.054688 C 340.277344 63.796875 339.695312 62.566406 339.054688 61.367188 C 338.410156 60.167969 337.710938 59 336.953125 57.871094 C 336.199219 56.738281 335.386719 55.648438 334.523438 54.59375 C 333.660156 53.542969 332.746094 52.535156 331.785156 51.574219 C 330.824219 50.609375 329.816406 49.699219 328.761719 48.832031 C 327.710938 47.96875 326.621094 47.160156 325.488281 46.402344 C 324.355469 45.648438 323.191406 44.949219 321.992188 44.304688 C 320.789062 43.664062 319.5625 43.082031 318.304688 42.558594 C 317.046875 42.039062 315.769531 41.578125 314.464844 41.183594 C 313.164062 40.785156 311.84375 40.453125 310.511719 40.1875 C 309.175781 39.921875 307.832031 39.71875 306.476562 39.585938 C 305.121094 39.449219 303.765625 39.382812 302.402344 39.378906 L 242.367188 39.378906 L 193.890625 2.355469 C 193.464844 2.027344 193.015625 1.742188 192.546875 1.488281 C 192.074219 1.238281 191.585938 1.027344 191.078125 0.855469 C 190.570312 0.683594 190.054688 0.554688 189.527344 0.464844 C 189 0.378906 188.46875 0.335938 187.933594 0.335938 C 187.398438 0.332031 186.867188 0.375 186.339844 0.460938 C 185.8125 0.546875 185.296875 0.675781 184.789062 0.847656 C 184.28125 1.019531 183.792969 1.226562 183.320312 1.480469 C 182.847656 1.730469 182.398438 2.015625 181.972656 2.339844 L 133.257812 39.378906 L 72.605469 39.378906 C 71.246094 39.382812 69.886719 39.449219 68.535156 39.585938 C 67.179688 39.71875 65.835938 39.917969 64.5 40.1875 C 63.164062 40.453125 61.847656 40.785156 60.542969 41.179688 C 59.242188 41.578125 57.960938 42.035156 56.703125 42.558594 C 55.449219 43.078125 54.21875 43.660156 53.019531 44.304688 C 51.820312 44.945312 50.652344 45.644531 49.519531 46.402344 C 48.390625 47.15625 47.296875 47.96875 46.246094 48.832031 C 45.195312 49.695312 44.1875 50.609375 43.222656 51.570312 C 42.261719 52.535156 41.347656 53.539062 40.484375 54.59375 C 39.621094 55.644531 38.808594 56.738281 38.054688 57.867188 C 37.296875 59 36.597656 60.164062 35.957031 61.367188 C 35.3125 62.566406 34.730469 63.792969 34.210938 65.050781 C 33.6875 66.308594 33.230469 67.589844 32.832031 68.890625 C 32.4375 70.195312 32.105469 71.511719 31.839844 72.847656 C 31.574219 74.183594 31.371094 75.527344 31.238281 76.882812 C 31.101562 78.234375 31.035156 79.59375 31.03125 80.953125 L 31.03125 117.101562 L 3.882812 137.738281 C 2.660156 138.667969 1.707031 139.824219 1.023438 141.199219 C 0.339844 142.578125 0 144.035156 0 145.570312 L 0.0742188 333.085938 C 0.0742188 334.445312 0.144531 335.804688 0.277344 337.160156 C 0.414062 338.511719 0.613281 339.859375 0.882812 341.191406 C 1.148438 342.527344 1.480469 343.847656 1.875 345.148438 C 2.273438 346.449219 2.730469 347.730469 3.253906 348.988281 C 3.773438 350.246094 4.355469 351.472656 5 352.671875 C 5.640625 353.875 6.339844 355.039062 7.097656 356.171875 C 7.851562 357.300781 8.664062 358.394531 9.527344 359.445312 C 10.390625 360.496094 11.304688 361.503906 12.265625 362.46875 C 13.226562 363.429688 14.234375 364.34375 15.285156 365.207031 C 16.339844 366.070312 17.429688 366.882812 18.5625 367.636719 C 19.695312 368.394531 20.859375 369.09375 22.058594 369.738281 C 23.257812 370.378906 24.488281 370.960938 25.746094 371.484375 C 27 372.003906 28.28125 372.464844 29.582031 372.859375 C 30.886719 373.257812 32.203125 373.589844 33.539062 373.855469 C 34.875 374.125 36.21875 374.324219 37.570312 374.460938 C 38.925781 374.59375 40.285156 374.664062 41.644531 374.664062 L 333.425781 374.664062 C 334.785156 374.664062 336.144531 374.597656 337.496094 374.460938 C 338.851562 374.328125 340.195312 374.125 341.53125 373.859375 C 342.867188 373.59375 344.183594 373.261719 345.488281 372.863281 C 346.789062 372.46875 348.070312 372.007812 349.328125 371.488281 C 350.585938 370.964844 351.8125 370.382812 353.015625 369.742188 C 354.214844 369.101562 355.378906 368.398438 356.511719 367.644531 C 357.644531 366.886719 358.734375 366.078125 359.789062 365.214844 C 360.839844 364.347656 361.847656 363.4375 362.808594 362.472656 C 363.773438 361.511719 364.683594 360.503906 365.546875 359.453125 C 366.414062 358.398438 367.222656 357.308594 367.980469 356.175781 C 368.734375 355.042969 369.433594 353.878906 370.078125 352.679688 C 370.71875 351.476562 371.300781 350.25 371.824219 348.992188 C 372.34375 347.734375 372.804688 346.453125 373.199219 345.152344 C 373.59375 343.847656 373.925781 342.53125 374.195312 341.195312 C 374.460938 339.859375 374.660156 338.515625 374.796875 337.160156 C 374.929688 335.808594 375 334.449219 375 333.085938 L 375 145.546875 C 375 144.015625 374.660156 142.5625 373.984375 141.191406 C 373.308594 139.820312 372.359375 138.667969 371.144531 137.738281 Z M 72.605469 59.035156 L 302.402344 59.035156 C 303.121094 59.035156 303.835938 59.070312 304.550781 59.140625 C 305.265625 59.210938 305.972656 59.316406 306.679688 59.457031 C 307.382812 59.597656 308.078125 59.773438 308.765625 59.984375 C 309.449219 60.191406 310.125 60.433594 310.789062 60.707031 C 311.449219 60.984375 312.097656 61.289062 312.730469 61.628906 C 313.363281 61.96875 313.980469 62.335938 314.574219 62.734375 C 315.171875 63.132812 315.746094 63.5625 316.300781 64.015625 C 316.855469 64.472656 317.386719 64.953125 317.894531 65.460938 C 318.402344 65.96875 318.882812 66.5 319.339844 67.054688 C 319.796875 67.609375 320.222656 68.183594 320.621094 68.78125 C 321.019531 69.378906 321.390625 69.992188 321.726562 70.625 C 322.066406 71.257812 322.371094 71.90625 322.648438 72.566406 C 322.921875 73.230469 323.164062 73.90625 323.375 74.59375 C 323.582031 75.277344 323.757812 75.972656 323.898438 76.679688 C 324.039062 77.382812 324.144531 78.089844 324.214844 78.804688 C 324.285156 79.519531 324.320312 80.234375 324.324219 80.953125 L 324.324219 164.382812 L 187.847656 268.59375 L 50.683594 164.28125 L 50.683594 80.953125 C 50.683594 80.238281 50.71875 79.519531 50.789062 78.804688 C 50.863281 78.09375 50.96875 77.382812 51.109375 76.679688 C 51.25 75.976562 51.421875 75.28125 51.632812 74.59375 C 51.839844 73.90625 52.082031 73.230469 52.359375 72.566406 C 52.632812 71.90625 52.941406 71.257812 53.277344 70.625 C 53.617188 69.992188 53.984375 69.375 54.382812 68.78125 C 54.785156 68.183594 55.210938 67.605469 55.667969 67.050781 C 56.121094 66.496094 56.601562 65.964844 57.109375 65.460938 C 57.617188 64.953125 58.148438 64.46875 58.703125 64.015625 C 59.257812 63.558594 59.835938 63.132812 60.433594 62.734375 C 61.027344 62.335938 61.644531 61.964844 62.277344 61.628906 C 62.910156 61.289062 63.558594 60.980469 64.222656 60.707031 C 64.882812 60.433594 65.558594 60.191406 66.246094 59.980469 C 66.933594 59.773438 67.628906 59.597656 68.332031 59.457031 C 69.035156 59.316406 69.746094 59.210938 70.457031 59.140625 C 71.171875 59.070312 71.890625 59.035156 72.605469 59.03125 Z M 187.910156 22.515625 L 209.964844 39.378906 L 165.71875 39.378906 Z M 127.253906 307.300781 C 127.253906 307.945312 127.1875 308.582031 127.0625 309.214844 C 126.9375 309.847656 126.75 310.464844 126.503906 311.058594 C 126.257812 311.65625 125.953125 312.222656 125.59375 312.757812 C 125.234375 313.292969 124.828125 313.789062 124.371094 314.246094 C 123.917969 314.703125 123.421875 315.109375 122.882812 315.46875 C 122.347656 315.828125 121.78125 316.128906 121.1875 316.375 C 120.589844 316.621094 119.976562 316.808594 119.34375 316.9375 C 118.710938 317.0625 118.070312 317.125 117.425781 317.125 L 65.644531 317.125 C 64.996094 317.132812 64.351562 317.074219 63.714844 316.949219 C 63.078125 316.828125 62.460938 316.644531 61.859375 316.402344 C 61.257812 316.15625 60.6875 315.855469 60.144531 315.5 C 59.601562 315.140625 59.101562 314.734375 58.640625 314.277344 C 58.179688 313.820312 57.769531 313.320312 57.40625 312.785156 C 57.042969 312.246094 56.738281 311.675781 56.488281 311.078125 C 56.238281 310.480469 56.050781 309.863281 55.921875 309.226562 C 55.796875 308.589844 55.734375 307.945312 55.734375 307.296875 C 55.734375 306.648438 55.796875 306.007812 55.921875 305.371094 C 56.050781 304.734375 56.238281 304.117188 56.488281 303.515625 C 56.738281 302.917969 57.042969 302.347656 57.40625 301.8125 C 57.769531 301.273438 58.179688 300.773438 58.640625 300.316406 C 59.101562 299.863281 59.601562 299.453125 60.144531 299.097656 C 60.6875 298.738281 61.257812 298.4375 61.859375 298.195312 C 62.460938 297.949219 63.078125 297.765625 63.714844 297.644531 C 64.351562 297.523438 64.996094 297.464844 65.644531 297.46875 L 117.425781 297.46875 C 118.074219 297.46875 118.710938 297.53125 119.34375 297.660156 C 119.976562 297.785156 120.589844 297.972656 121.1875 298.21875 C 121.785156 298.464844 122.351562 298.769531 122.886719 299.128906 C 123.421875 299.484375 123.917969 299.894531 124.375 300.351562 C 124.832031 300.804688 125.238281 301.304688 125.597656 301.839844 C 125.957031 302.375 126.257812 302.941406 126.503906 303.539062 C 126.753906 304.136719 126.9375 304.75 127.0625 305.382812 C 127.191406 306.015625 127.253906 306.65625 127.253906 307.300781 Z M 127.253906 307.300781 " clip-rule="evenodd"/></clipPath><linearGradient x1="256" gradientTransform="matrix(0.732422, 0, 0, 0.732422, 0.0000045, 0)" y1="511.544459" x2="256.00101" gradientUnits="userSpaceOnUse" y2="0.455105" id="397ba15825"><stop stop-opacity="1" stop-color="rgb(0%, 47.799683%, 71.398926%)" offset="0"/><stop stop-opacity="1" stop-color="rgb(0%, 47.903442%, 71.554565%)" offset="0.0000019797"/><stop stop-opacity="1" stop-color="rgb(0%, 48.008728%, 71.711731%)" offset="0.015625"/><stop stop-opacity="1" stop-color="rgb(0%, 48.112488%, 71.867371%)" offset="0.03125"/><stop stop-opacity="1" stop-color="rgb(0%, 48.321533%, 72.180176%)" offset="0.046875"/><stop stop-opacity="1" stop-color="rgb(0%, 48.532104%, 72.492981%)" offset="0.0625"/><stop stop-opacity="1" stop-color="rgb(0%, 48.74115%, 72.80426%)" offset="0.078125"/><stop stop-opacity="1" stop-color="rgb(0%, 48.950195%, 73.117065%)" offset="0.09375"/><stop stop-opacity="1" stop-color="rgb(0%, 49.159241%, 73.429871%)" offset="0.109375"/><stop stop-opacity="1" stop-color="rgb(0%, 49.368286%, 73.742676%)" offset="0.125"/><stop stop-opacity="1" stop-color="rgb(0%, 49.578857%, 74.055481%)" offset="0.140625"/><stop stop-opacity="1" stop-color="rgb(0%, 49.787903%, 74.36676%)" offset="0.15625"/><stop stop-opacity="1" stop-color="rgb(0%, 49.996948%, 74.679565%)" offset="0.171875"/><stop stop-opacity="1" stop-color="rgb(0%, 50.205994%, 74.992371%)" offset="0.1875"/><stop stop-opacity="1" stop-color="rgb(0%, 50.416565%, 75.305176%)" offset="0.203125"/><stop stop-opacity="1" stop-color="rgb(0%, 50.62561%, 75.617981%)" offset="0.21875"/><stop stop-opacity="1" stop-color="rgb(0%, 50.834656%, 75.92926%)" offset="0.234375"/><stop stop-opacity="1" stop-color="rgb(0%, 51.043701%, 76.242065%)" offset="0.25"/><stop stop-opacity="1" stop-color="rgb(0%, 51.252747%, 76.554871%)" offset="0.265625"/><stop stop-opacity="1" stop-color="rgb(0%, 51.463318%, 76.867676%)" offset="0.28125"/><stop stop-opacity="1" stop-color="rgb(0%, 51.672363%, 77.180481%)" offset="0.296875"/><stop stop-opacity="1" stop-color="rgb(0%, 51.881409%, 77.49176%)" offset="0.3125"/><stop stop-opacity="1" stop-color="rgb(0%, 52.090454%, 77.804565%)" offset="0.328125"/><stop stop-opacity="1" stop-color="rgb(0%, 52.2995%, 78.117371%)" offset="0.34375"/><stop stop-opacity="1" stop-color="rgb(0%, 52.510071%, 78.430176%)" offset="0.359375"/><stop stop-opacity="1" stop-color="rgb(0%, 52.719116%, 78.742981%)" offset="0.375"/><stop stop-opacity="1" stop-color="rgb(0%, 52.928162%, 79.05426%)" offset="0.390625"/><stop stop-opacity="1" stop-color="rgb(0%, 53.137207%, 79.367065%)" offset="0.40625"/><stop stop-opacity="1" stop-color="rgb(0%, 53.347778%, 79.679871%)" offset="0.421875"/><stop stop-opacity="1" stop-color="rgb(0%, 53.556824%, 79.992676%)" offset="0.4375"/><stop stop-opacity="1" stop-color="rgb(0%, 53.765869%, 80.305481%)" offset="0.453125"/><stop stop-opacity="1" stop-color="rgb(0%, 53.974915%, 80.61676%)" offset="0.46875"/><stop stop-opacity="1" stop-color="rgb(0%, 54.18396%, 80.929565%)" offset="0.484375"/><stop stop-opacity="1" stop-color="rgb(0%, 54.394531%, 81.242371%)" offset="0.5"/><stop stop-opacity="1" stop-color="rgb(0%, 54.603577%, 81.555176%)" offset="0.515625"/><stop stop-opacity="1" stop-color="rgb(0%, 54.812622%, 81.867981%)" offset="0.53125"/><stop stop-opacity="1" stop-color="rgb(0%, 55.021667%, 82.17926%)" offset="0.546875"/><stop stop-opacity="1" stop-color="rgb(0%, 55.230713%, 82.492065%)" offset="0.5625"/><stop stop-opacity="1" stop-color="rgb(0%, 55.441284%, 82.804871%)" offset="0.578125"/><stop stop-opacity="1" stop-color="rgb(0%, 55.65033%, 83.117676%)" offset="0.59375"/><stop stop-opacity="1" stop-color="rgb(0%, 55.859375%, 83.430481%)" offset="0.609375"/><stop stop-opacity="1" stop-color="rgb(0%, 56.06842%, 83.74176%)" offset="0.625"/><stop stop-opacity="1" stop-color="rgb(0%, 56.278992%, 84.054565%)" offset="0.640625"/><stop stop-opacity="1" stop-color="rgb(0%, 56.488037%, 84.367371%)" offset="0.65625"/><stop stop-opacity="1" stop-color="rgb(0%, 56.697083%, 84.680176%)" offset="0.671875"/><stop stop-opacity="1" stop-color="rgb(0%, 56.906128%, 84.992981%)" offset="0.6875"/><stop stop-opacity="1" stop-color="rgb(0%, 57.115173%, 85.30426%)" offset="0.703125"/><stop stop-opacity="1" stop-color="rgb(0%, 57.325745%, 85.617065%)" offset="0.71875"/><stop stop-opacity="1" stop-color="rgb(0%, 57.53479%, 85.929871%)" offset="0.734375"/><stop stop-opacity="1" stop-color="rgb(0%, 57.743835%, 86.242676%)" offset="0.75"/><stop stop-opacity="1" stop-color="rgb(0%, 57.952881%, 86.555481%)" offset="0.765625"/><stop stop-opacity="1" stop-color="rgb(0%, 58.163452%, 86.86676%)" offset="0.78125"/><stop stop-opacity="1" stop-color="rgb(0%, 58.372498%, 87.179565%)" offset="0.796875"/><stop stop-opacity="1" stop-color="rgb(0%, 58.581543%, 87.492371%)" offset="0.8125"/><stop stop-opacity="1" stop-color="rgb(0%, 58.790588%, 87.805176%)" offset="0.828125"/><stop stop-opacity="1" stop-color="rgb(0%, 58.999634%, 88.117981%)" offset="0.84375"/><stop stop-opacity="1" stop-color="rgb(0%, 59.210205%, 88.42926%)" offset="0.859375"/><stop stop-opacity="1" stop-color="rgb(0%, 59.41925%, 88.742065%)" offset="0.875"/><stop stop-opacity="1" stop-color="rgb(0%, 59.628296%, 89.054871%)" offset="0.890625"/><stop stop-opacity="1" stop-color="rgb(0%, 59.837341%, 89.367676%)" offset="0.90625"/><stop stop-opacity="1" stop-color="rgb(0%, 60.046387%, 89.680481%)" offset="0.921875"/><stop stop-opacity="1" stop-color="rgb(0%, 60.256958%, 89.99176%)" offset="0.9375"/><stop stop-opacity="1" stop-color="rgb(0%, 60.466003%, 90.304565%)" offset="0.953125"/><stop stop-opacity="1" stop-color="rgb(0%, 60.675049%, 90.617371%)" offset="0.96875"/><stop stop-opacity="1" stop-color="rgb(0%, 60.884094%, 90.930176%)" offset="0.984375"/><stop stop-opacity="1" stop-color="rgb(0%, 61.094666%, 91.242981%)" offset="0.999998"/><stop stop-opacity="1" stop-color="rgb(0%, 61.199951%, 91.398621%)" offset="1"/></linearGradient></defs><g clip-path="url(#42028a9163)"><path fill="url(#397ba15825)" d="M 0 0.332031 L 0 374.664062 L 375 374.664062 L 375 0.332031 Z M 0 0.332031 " fill-rule="nonzero"/></g></svg>