<svg xmlns="http://www.w3.org/2000/svg" xmlns:xlink="http://www.w3.org/1999/xlink" width="500" zoomAndPan="magnify" viewBox="0 0 375 374.999991" height="500" preserveAspectRatio="xMidYMid meet" version="1.0"><defs><clipPath id="a78c8c801f"><path d="M 47 0 L 329 0 L 329 375 L 47 375 Z M 47 0 " clip-rule="nonzero"/></clipPath><clipPath id="7d089121ff"><path d="M 297.601562 299.808594 C 297.601562 300.21875 297.5625 300.621094 297.480469 301.023438 C 297.402344 301.425781 297.28125 301.816406 297.125 302.195312 C 296.96875 302.570312 296.777344 302.929688 296.546875 303.269531 C 296.320312 303.613281 296.058594 303.925781 295.769531 304.214844 C 295.480469 304.503906 295.164062 304.761719 294.824219 304.988281 C 294.484375 305.214844 294.121094 305.40625 293.742188 305.5625 C 293.367188 305.71875 292.976562 305.835938 292.574219 305.914062 C 292.171875 305.996094 291.765625 306.035156 291.355469 306.03125 L 183.488281 306.03125 C 183.078125 306.03125 182.667969 305.992188 182.265625 305.914062 C 181.863281 305.832031 181.472656 305.714844 181.09375 305.558594 C 180.714844 305.398438 180.355469 305.207031 180.011719 304.980469 C 179.671875 304.75 179.355469 304.492188 179.066406 304.203125 C 178.777344 303.910156 178.515625 303.59375 178.289062 303.253906 C 178.058594 302.914062 177.867188 302.550781 177.710938 302.171875 C 177.554688 301.792969 177.433594 301.402344 177.355469 301 C 177.273438 300.597656 177.234375 300.191406 177.234375 299.78125 C 177.234375 299.371094 177.273438 298.964844 177.355469 298.558594 C 177.433594 298.15625 177.554688 297.765625 177.710938 297.386719 C 177.867188 297.007812 178.058594 296.648438 178.289062 296.304688 C 178.515625 295.964844 178.777344 295.648438 179.066406 295.359375 C 179.355469 295.070312 179.671875 294.808594 180.011719 294.582031 C 180.355469 294.351562 180.714844 294.160156 181.09375 294.003906 C 181.472656 293.847656 181.863281 293.726562 182.265625 293.648438 C 182.667969 293.566406 183.078125 293.527344 183.488281 293.527344 L 291.355469 293.527344 C 291.769531 293.53125 292.175781 293.570312 292.578125 293.652344 C 292.980469 293.734375 293.371094 293.855469 293.75 294.015625 C 294.128906 294.171875 294.488281 294.367188 294.832031 294.597656 C 295.171875 294.824219 295.488281 295.085938 295.777344 295.375 C 296.066406 295.667969 296.324219 295.984375 296.554688 296.328125 C 296.78125 296.667969 296.972656 297.03125 297.128906 297.410156 C 297.289062 297.789062 297.40625 298.179688 297.484375 298.585938 C 297.566406 298.988281 297.605469 299.394531 297.605469 299.804688 Z M 297.601562 331.464844 C 297.601562 331.871094 297.5625 332.277344 297.480469 332.679688 C 297.402344 333.082031 297.28125 333.472656 297.125 333.851562 C 296.96875 334.226562 296.777344 334.585938 296.546875 334.925781 C 296.320312 335.269531 296.058594 335.582031 295.769531 335.871094 C 295.480469 336.160156 295.164062 336.417969 294.824219 336.644531 C 294.484375 336.871094 294.121094 337.0625 293.742188 337.21875 C 293.367188 337.375 292.976562 337.492188 292.574219 337.570312 C 292.171875 337.652344 291.765625 337.691406 291.355469 337.6875 L 183.488281 337.6875 C 183.078125 337.6875 182.667969 337.648438 182.265625 337.570312 C 181.863281 337.488281 181.472656 337.371094 181.09375 337.214844 C 180.714844 337.054688 180.355469 336.863281 180.011719 336.636719 C 179.671875 336.40625 179.355469 336.148438 179.066406 335.859375 C 178.777344 335.566406 178.515625 335.25 178.289062 334.910156 C 178.058594 334.570312 177.867188 334.207031 177.710938 333.828125 C 177.554688 333.449219 177.433594 333.058594 177.355469 332.65625 C 177.273438 332.253906 177.234375 331.847656 177.234375 331.4375 C 177.234375 331.027344 177.273438 330.617188 177.355469 330.214844 C 177.433594 329.8125 177.554688 329.421875 177.710938 329.042969 C 177.867188 328.664062 178.058594 328.304688 178.289062 327.960938 C 178.515625 327.621094 178.777344 327.304688 179.066406 327.015625 C 179.355469 326.726562 179.671875 326.464844 180.011719 326.238281 C 180.355469 326.007812 180.714844 325.816406 181.09375 325.660156 C 181.472656 325.503906 181.863281 325.382812 182.265625 325.304688 C 182.667969 325.222656 183.078125 325.183594 183.488281 325.183594 L 291.355469 325.183594 C 291.769531 325.183594 292.175781 325.226562 292.578125 325.308594 C 292.980469 325.390625 293.371094 325.511719 293.75 325.671875 C 294.128906 325.828125 294.488281 326.023438 294.832031 326.253906 C 295.171875 326.480469 295.488281 326.742188 295.777344 327.03125 C 296.066406 327.324219 296.328125 327.640625 296.554688 327.984375 C 296.78125 328.324219 296.972656 328.6875 297.128906 329.066406 C 297.289062 329.445312 297.40625 329.839844 297.484375 330.242188 C 297.566406 330.644531 297.605469 331.050781 297.605469 331.460938 Z M 297.601562 220.066406 C 297.605469 220.480469 297.566406 220.886719 297.488281 221.289062 C 297.410156 221.695312 297.292969 222.085938 297.136719 222.46875 C 296.980469 222.847656 296.789062 223.210938 296.5625 223.554688 C 296.335938 223.898438 296.078125 224.214844 295.785156 224.507812 C 295.496094 224.796875 295.179688 225.058594 294.835938 225.289062 C 294.496094 225.515625 294.132812 225.710938 293.753906 225.867188 C 293.375 226.027344 292.984375 226.144531 292.578125 226.226562 C 292.175781 226.304688 291.765625 226.347656 291.355469 226.347656 L 183.488281 226.347656 C 183.078125 226.347656 182.667969 226.304688 182.265625 226.226562 C 181.863281 226.144531 181.472656 226.027344 181.09375 225.871094 C 180.714844 225.714844 180.355469 225.519531 180.011719 225.292969 C 179.671875 225.0625 179.355469 224.804688 179.066406 224.515625 C 178.777344 224.222656 178.515625 223.910156 178.289062 223.566406 C 178.058594 223.226562 177.867188 222.867188 177.710938 222.484375 C 177.554688 222.105469 177.433594 221.714844 177.355469 221.3125 C 177.273438 220.910156 177.234375 220.503906 177.234375 220.09375 C 177.234375 219.683594 177.273438 219.277344 177.355469 218.875 C 177.433594 218.472656 177.554688 218.078125 177.710938 217.699219 C 177.867188 217.320312 178.058594 216.960938 178.289062 216.621094 C 178.515625 216.277344 178.777344 215.960938 179.066406 215.671875 C 179.355469 215.382812 179.671875 215.121094 180.011719 214.894531 C 180.355469 214.667969 180.714844 214.472656 181.09375 214.316406 C 181.472656 214.160156 181.863281 214.042969 182.265625 213.960938 C 182.667969 213.882812 183.078125 213.839844 183.488281 213.839844 L 291.355469 213.839844 C 291.765625 213.839844 292.171875 213.878906 292.574219 213.957031 C 292.976562 214.035156 293.367188 214.152344 293.746094 214.308594 C 294.125 214.464844 294.484375 214.65625 294.824219 214.882812 C 295.167969 215.109375 295.480469 215.371094 295.773438 215.660156 C 296.0625 215.949219 296.320312 216.261719 296.550781 216.601562 C 296.777344 216.941406 296.96875 217.300781 297.128906 217.679688 C 297.285156 218.058594 297.402344 218.449219 297.484375 218.851562 C 297.5625 219.25 297.605469 219.65625 297.605469 220.066406 Z M 297.601562 188.464844 C 297.601562 188.875 297.5625 189.28125 297.480469 189.679688 C 297.402344 190.082031 297.28125 190.472656 297.125 190.851562 C 296.96875 191.230469 296.777344 191.589844 296.546875 191.929688 C 296.320312 192.269531 296.058594 192.582031 295.769531 192.871094 C 295.480469 193.160156 295.164062 193.417969 294.824219 193.644531 C 294.484375 193.875 294.121094 194.066406 293.742188 194.21875 C 293.367188 194.375 292.976562 194.492188 292.574219 194.574219 C 292.171875 194.652344 291.765625 194.691406 291.355469 194.691406 L 183.488281 194.691406 C 183.078125 194.691406 182.667969 194.648438 182.265625 194.570312 C 181.863281 194.488281 181.472656 194.371094 181.09375 194.214844 C 180.714844 194.058594 180.355469 193.863281 180.011719 193.636719 C 179.671875 193.410156 179.355469 193.148438 179.066406 192.859375 C 178.777344 192.570312 178.515625 192.253906 178.289062 191.910156 C 178.058594 191.570312 177.867188 191.210938 177.710938 190.832031 C 177.554688 190.449219 177.433594 190.058594 177.355469 189.65625 C 177.273438 189.253906 177.234375 188.847656 177.234375 188.4375 C 177.234375 188.027344 177.273438 187.621094 177.355469 187.21875 C 177.433594 186.816406 177.554688 186.425781 177.710938 186.042969 C 177.867188 185.664062 178.058594 185.304688 178.289062 184.964844 C 178.515625 184.621094 178.777344 184.304688 179.066406 184.015625 C 179.355469 183.726562 179.671875 183.464844 180.011719 183.238281 C 180.355469 183.011719 180.714844 182.816406 181.09375 182.660156 C 181.472656 182.503906 181.863281 182.386719 182.265625 182.304688 C 182.667969 182.226562 183.078125 182.183594 183.488281 182.183594 L 291.355469 182.183594 C 291.769531 182.1875 292.175781 182.230469 292.578125 182.3125 C 292.980469 182.390625 293.371094 182.511719 293.75 182.671875 C 294.128906 182.828125 294.488281 183.023438 294.832031 183.253906 C 295.171875 183.484375 295.488281 183.742188 295.777344 184.035156 C 296.066406 184.324219 296.324219 184.644531 296.554688 184.984375 C 296.78125 185.328125 296.972656 185.6875 297.128906 186.066406 C 297.289062 186.449219 297.40625 186.839844 297.484375 187.242188 C 297.566406 187.644531 297.605469 188.054688 297.605469 188.464844 Z M 297.601562 77.070312 C 297.605469 77.480469 297.566406 77.886719 297.488281 78.292969 C 297.410156 78.695312 297.292969 79.089844 297.136719 79.46875 C 296.980469 79.851562 296.789062 80.214844 296.5625 80.554688 C 296.335938 80.898438 296.078125 81.214844 295.785156 81.507812 C 295.496094 81.800781 295.179688 82.058594 294.835938 82.289062 C 294.496094 82.519531 294.132812 82.710938 293.753906 82.871094 C 293.375 83.027344 292.984375 83.148438 292.578125 83.226562 C 292.175781 83.308594 291.765625 83.347656 291.355469 83.347656 L 183.488281 83.347656 C 183.078125 83.347656 182.667969 83.308594 182.265625 83.226562 C 181.863281 83.148438 181.472656 83.03125 181.09375 82.875 C 180.710938 82.714844 180.351562 82.523438 180.011719 82.296875 C 179.667969 82.066406 179.351562 81.808594 179.0625 81.519531 C 178.769531 81.226562 178.511719 80.910156 178.285156 80.570312 C 178.054688 80.230469 177.863281 79.867188 177.703125 79.488281 C 177.546875 79.109375 177.429688 78.71875 177.347656 78.316406 C 177.269531 77.914062 177.226562 77.503906 177.226562 77.09375 C 177.226562 76.683594 177.269531 76.277344 177.347656 75.875 C 177.429688 75.472656 177.546875 75.078125 177.703125 74.699219 C 177.863281 74.320312 178.054688 73.960938 178.285156 73.617188 C 178.511719 73.277344 178.769531 72.960938 179.0625 72.671875 C 179.351562 72.382812 179.667969 72.121094 180.011719 71.894531 C 180.351562 71.664062 180.710938 71.472656 181.09375 71.316406 C 181.472656 71.160156 181.863281 71.039062 182.265625 70.960938 C 182.667969 70.882812 183.078125 70.839844 183.488281 70.84375 L 291.355469 70.84375 C 291.765625 70.839844 292.171875 70.878906 292.574219 70.960938 C 292.976562 71.039062 293.367188 71.15625 293.746094 71.3125 C 294.125 71.46875 294.484375 71.660156 294.824219 71.886719 C 295.164062 72.113281 295.480469 72.371094 295.773438 72.660156 C 296.0625 72.949219 296.320312 73.261719 296.550781 73.605469 C 296.777344 73.945312 296.96875 74.304688 297.128906 74.679688 C 297.285156 75.058594 297.402344 75.449219 297.484375 75.851562 C 297.5625 76.253906 297.605469 76.65625 297.605469 77.066406 Z M 297.601562 108.722656 C 297.605469 109.136719 297.566406 109.542969 297.488281 109.949219 C 297.410156 110.351562 297.292969 110.746094 297.136719 111.125 C 296.980469 111.507812 296.789062 111.867188 296.5625 112.210938 C 296.335938 112.554688 296.074219 112.871094 295.785156 113.164062 C 295.496094 113.453125 295.179688 113.714844 294.835938 113.945312 C 294.496094 114.175781 294.132812 114.367188 293.753906 114.523438 C 293.375 114.683594 292.984375 114.800781 292.578125 114.882812 C 292.175781 114.964844 291.765625 115.003906 291.355469 115.003906 L 183.488281 115.003906 C 183.074219 115.007812 182.664062 114.972656 182.257812 114.894531 C 181.851562 114.816406 181.457031 114.703125 181.074219 114.546875 C 180.691406 114.390625 180.324219 114.199219 179.980469 113.972656 C 179.636719 113.746094 179.316406 113.488281 179.023438 113.195312 C 178.726562 112.90625 178.464844 112.589844 178.234375 112.246094 C 178.003906 111.902344 177.808594 111.539062 177.648438 111.160156 C 177.488281 110.777344 177.371094 110.382812 177.289062 109.980469 C 177.207031 109.574219 177.167969 109.164062 177.167969 108.75 C 177.167969 108.335938 177.207031 107.925781 177.289062 107.523438 C 177.371094 107.117188 177.488281 106.722656 177.648438 106.34375 C 177.808594 105.960938 178.003906 105.597656 178.234375 105.253906 C 178.464844 104.914062 178.726562 104.597656 179.023438 104.304688 C 179.316406 104.015625 179.636719 103.753906 179.980469 103.527344 C 180.324219 103.300781 180.691406 103.109375 181.074219 102.953125 C 181.457031 102.800781 181.851562 102.683594 182.257812 102.605469 C 182.664062 102.53125 183.074219 102.492188 183.488281 102.5 L 291.355469 102.5 C 291.765625 102.496094 292.171875 102.535156 292.574219 102.613281 C 292.976562 102.695312 293.367188 102.8125 293.746094 102.96875 C 294.125 103.125 294.484375 103.316406 294.824219 103.542969 C 295.167969 103.769531 295.480469 104.027344 295.773438 104.316406 C 296.0625 104.605469 296.320312 104.917969 296.550781 105.257812 C 296.777344 105.601562 296.96875 105.957031 297.128906 106.335938 C 297.285156 106.714844 297.402344 107.105469 297.484375 107.507812 C 297.5625 107.910156 297.605469 108.3125 297.605469 108.722656 Z M 144.246094 291.75 L 90.265625 291.75 L 90.265625 339.46875 L 144.246094 339.46875 C 144.65625 339.46875 145.0625 339.507812 145.464844 339.589844 C 145.867188 339.667969 146.257812 339.785156 146.636719 339.945312 C 147.015625 340.101562 147.378906 340.292969 147.71875 340.523438 C 148.058594 340.75 148.375 341.007812 148.664062 341.300781 C 148.957031 341.589844 149.214844 341.90625 149.445312 342.246094 C 149.671875 342.589844 149.863281 342.949219 150.019531 343.328125 C 150.179688 343.707031 150.296875 344.097656 150.378906 344.5 C 150.457031 344.902344 150.496094 345.308594 150.496094 345.722656 C 150.496094 346.132812 150.457031 346.539062 150.378906 346.941406 C 150.296875 347.34375 150.179688 347.734375 150.019531 348.113281 C 149.863281 348.492188 149.671875 348.851562 149.445312 349.195312 C 149.214844 349.535156 148.957031 349.851562 148.664062 350.140625 C 148.375 350.433594 148.058594 350.691406 147.71875 350.917969 C 147.378906 351.148438 147.015625 351.339844 146.636719 351.496094 C 146.257812 351.65625 145.867188 351.773438 145.464844 351.851562 C 145.0625 351.933594 144.65625 351.972656 144.246094 351.972656 L 84.015625 351.972656 C 83.605469 351.976562 83.199219 351.9375 82.796875 351.859375 C 82.394531 351.777344 82.003906 351.660156 81.625 351.507812 C 81.246094 351.351562 80.886719 351.160156 80.546875 350.933594 C 80.203125 350.707031 79.886719 350.445312 79.597656 350.15625 C 79.308594 349.867188 79.046875 349.554688 78.820312 349.214844 C 78.589844 348.875 78.398438 348.515625 78.242188 348.136719 C 78.082031 347.757812 77.964844 347.367188 77.882812 346.964844 C 77.804688 346.5625 77.765625 346.15625 77.761719 345.746094 L 77.761719 285.523438 C 77.761719 285.113281 77.804688 284.707031 77.882812 284.300781 C 77.960938 283.898438 78.082031 283.507812 78.238281 283.125 C 78.394531 282.746094 78.585938 282.386719 78.816406 282.042969 C 79.042969 281.699219 79.300781 281.382812 79.589844 281.09375 C 79.882812 280.800781 80.199219 280.539062 80.539062 280.3125 C 80.878906 280.082031 81.242188 279.886719 81.621094 279.730469 C 82 279.570312 82.390625 279.449219 82.792969 279.371094 C 83.195312 279.289062 83.605469 279.246094 84.015625 279.246094 L 144.246094 279.246094 C 144.65625 279.246094 145.0625 279.285156 145.464844 279.363281 C 145.867188 279.445312 146.257812 279.5625 146.636719 279.71875 C 147.015625 279.878906 147.378906 280.070312 147.71875 280.296875 C 148.058594 280.527344 148.375 280.785156 148.664062 281.074219 C 148.957031 281.367188 149.214844 281.683594 149.445312 282.023438 C 149.671875 282.363281 149.863281 282.726562 150.019531 283.105469 C 150.179688 283.484375 150.296875 283.875 150.378906 284.277344 C 150.457031 284.679688 150.496094 285.085938 150.496094 285.496094 C 150.496094 285.90625 150.457031 286.316406 150.378906 286.71875 C 150.296875 287.121094 150.179688 287.511719 150.019531 287.890625 C 149.863281 288.269531 149.671875 288.628906 149.445312 288.972656 C 149.214844 289.3125 148.957031 289.628906 148.664062 289.917969 C 148.375 290.207031 148.058594 290.46875 147.71875 290.695312 C 147.378906 290.925781 147.015625 291.117188 146.636719 291.273438 C 146.257812 291.429688 145.867188 291.550781 145.464844 291.628906 C 145.0625 291.710938 144.65625 291.75 144.246094 291.75 Z M 145.3125 299.753906 C 145.023438 299.464844 144.710938 299.203125 144.367188 298.972656 C 144.027344 298.742188 143.667969 298.546875 143.289062 298.390625 C 142.910156 298.230469 142.519531 298.113281 142.117188 298.03125 C 141.714844 297.953125 141.308594 297.910156 140.894531 297.910156 C 140.484375 297.910156 140.078125 297.953125 139.675781 298.03125 C 139.273438 298.113281 138.882812 298.230469 138.503906 298.390625 C 138.125 298.546875 137.765625 298.742188 137.425781 298.972656 C 137.082031 299.203125 136.769531 299.464844 136.480469 299.753906 L 117.964844 318.226562 L 107.894531 308.179688 C 107.605469 307.894531 107.292969 307.636719 106.953125 307.414062 C 106.613281 307.191406 106.253906 307 105.878906 306.847656 C 105.503906 306.691406 105.113281 306.574219 104.714844 306.496094 C 104.316406 306.417969 103.914062 306.382812 103.507812 306.382812 C 103.097656 306.382812 102.695312 306.421875 102.296875 306.503906 C 101.898438 306.582031 101.511719 306.699219 101.136719 306.855469 C 100.757812 307.011719 100.402344 307.199219 100.0625 307.425781 C 99.726562 307.652344 99.410156 307.910156 99.121094 308.195312 C 98.835938 308.480469 98.578125 308.792969 98.347656 309.132812 C 98.121094 309.46875 97.929688 309.824219 97.773438 310.199219 C 97.613281 310.574219 97.496094 310.960938 97.414062 311.359375 C 97.332031 311.757812 97.289062 312.160156 97.285156 312.566406 C 97.28125 312.976562 97.320312 313.378906 97.394531 313.777344 C 97.472656 314.175781 97.585938 314.566406 97.738281 314.945312 C 97.890625 315.320312 98.078125 315.679688 98.296875 316.019531 C 98.519531 316.359375 98.773438 316.675781 99.058594 316.96875 L 113.542969 331.515625 C 113.832031 331.804688 114.148438 332.0625 114.488281 332.292969 C 114.832031 332.519531 115.191406 332.710938 115.570312 332.867188 C 115.949219 333.027344 116.339844 333.144531 116.742188 333.226562 C 117.144531 333.304688 117.550781 333.34375 117.960938 333.34375 C 118.375 333.34375 118.78125 333.304688 119.183594 333.226562 C 119.585938 333.144531 119.976562 333.027344 120.355469 332.867188 C 120.734375 332.710938 121.09375 332.519531 121.4375 332.292969 C 121.777344 332.0625 122.09375 331.804688 122.382812 331.515625 L 145.3125 308.546875 C 145.601562 308.257812 145.863281 307.945312 146.089844 307.605469 C 146.320312 307.265625 146.511719 306.910156 146.667969 306.53125 C 146.824219 306.152344 146.945312 305.765625 147.023438 305.363281 C 147.105469 304.964844 147.144531 304.558594 147.144531 304.152344 C 147.144531 303.742188 147.105469 303.335938 147.023438 302.9375 C 146.945312 302.535156 146.824219 302.148438 146.667969 301.769531 C 146.511719 301.394531 146.320312 301.035156 146.089844 300.695312 C 145.863281 300.355469 145.601562 300.042969 145.3125 299.757812 Z M 144.246094 180.40625 L 90.265625 180.40625 L 90.265625 228.125 L 144.246094 228.125 C 144.652344 228.128906 145.054688 228.171875 145.453125 228.257812 C 145.855469 228.339844 146.242188 228.460938 146.617188 228.621094 C 146.992188 228.777344 147.347656 228.972656 147.6875 229.203125 C 148.023438 229.429688 148.335938 229.691406 148.621094 229.980469 C 148.910156 230.269531 149.164062 230.585938 149.390625 230.925781 C 149.617188 231.265625 149.804688 231.625 149.960938 232 C 150.117188 232.378906 150.234375 232.765625 150.3125 233.164062 C 150.390625 233.566406 150.429688 233.96875 150.429688 234.378906 C 150.429688 234.785156 150.390625 235.1875 150.3125 235.589844 C 150.234375 235.988281 150.117188 236.378906 149.960938 236.753906 C 149.804688 237.132812 149.617188 237.492188 149.390625 237.832031 C 149.164062 238.171875 148.910156 238.484375 148.621094 238.773438 C 148.335938 239.066406 148.023438 239.324219 147.6875 239.554688 C 147.347656 239.78125 146.992188 239.976562 146.617188 240.136719 C 146.242188 240.292969 145.855469 240.414062 145.453125 240.5 C 145.054688 240.582031 144.652344 240.625 144.246094 240.628906 L 84.015625 240.628906 C 83.605469 240.632812 83.199219 240.59375 82.796875 240.515625 C 82.394531 240.433594 82.003906 240.316406 81.625 240.164062 C 81.246094 240.007812 80.886719 239.816406 80.542969 239.589844 C 80.203125 239.363281 79.886719 239.105469 79.597656 238.816406 C 79.308594 238.527344 79.046875 238.210938 78.820312 237.871094 C 78.589844 237.53125 78.398438 237.171875 78.242188 236.792969 C 78.082031 236.414062 77.964844 236.023438 77.882812 235.621094 C 77.804688 235.21875 77.761719 234.8125 77.761719 234.402344 L 77.761719 174.179688 C 77.761719 173.769531 77.800781 173.359375 77.878906 172.957031 C 77.957031 172.550781 78.074219 172.160156 78.230469 171.777344 C 78.386719 171.398438 78.578125 171.035156 78.804688 170.691406 C 79.03125 170.347656 79.292969 170.03125 79.582031 169.738281 C 79.871094 169.445312 80.1875 169.1875 80.53125 168.957031 C 80.875 168.726562 81.234375 168.535156 81.613281 168.375 C 81.996094 168.21875 82.386719 168.101562 82.792969 168.019531 C 83.195312 167.941406 83.605469 167.902344 84.015625 167.902344 L 144.246094 167.902344 C 144.65625 167.902344 145.0625 167.941406 145.464844 168.019531 C 145.867188 168.101562 146.257812 168.21875 146.636719 168.378906 C 147.015625 168.535156 147.378906 168.726562 147.71875 168.953125 C 148.058594 169.183594 148.375 169.441406 148.664062 169.734375 C 148.957031 170.023438 149.214844 170.339844 149.445312 170.679688 C 149.671875 171.019531 149.863281 171.382812 150.019531 171.761719 C 150.179688 172.140625 150.296875 172.53125 150.378906 172.933594 C 150.457031 173.335938 150.496094 173.742188 150.496094 174.152344 C 150.496094 174.5625 150.457031 174.972656 150.378906 175.375 C 150.296875 175.777344 150.179688 176.167969 150.019531 176.546875 C 149.863281 176.925781 149.671875 177.285156 149.445312 177.628906 C 149.214844 177.96875 148.957031 178.285156 148.664062 178.574219 C 148.375 178.867188 148.058594 179.125 147.71875 179.351562 C 147.378906 179.582031 147.015625 179.773438 146.636719 179.929688 C 146.257812 180.085938 145.867188 180.207031 145.464844 180.285156 C 145.0625 180.367188 144.65625 180.40625 144.246094 180.40625 Z M 145.3125 188.410156 C 145.023438 188.121094 144.710938 187.859375 144.367188 187.628906 C 144.027344 187.398438 143.667969 187.207031 143.289062 187.046875 C 142.910156 186.890625 142.519531 186.769531 142.117188 186.6875 C 141.714844 186.609375 141.308594 186.566406 140.894531 186.566406 C 140.484375 186.566406 140.078125 186.609375 139.675781 186.6875 C 139.273438 186.769531 138.882812 186.890625 138.503906 187.046875 C 138.125 187.207031 137.765625 187.398438 137.425781 187.628906 C 137.082031 187.859375 136.769531 188.121094 136.480469 188.410156 L 117.964844 206.882812 L 107.894531 196.835938 C 107.605469 196.550781 107.292969 196.296875 106.953125 196.070312 C 106.613281 195.847656 106.253906 195.65625 105.878906 195.503906 C 105.503906 195.347656 105.113281 195.234375 104.714844 195.15625 C 104.316406 195.078125 103.914062 195.039062 103.507812 195.039062 C 103.097656 195.039062 102.695312 195.078125 102.296875 195.160156 C 101.898438 195.238281 101.511719 195.355469 101.136719 195.511719 C 100.757812 195.667969 100.402344 195.859375 100.0625 196.082031 C 99.726562 196.308594 99.410156 196.566406 99.121094 196.851562 C 98.835938 197.140625 98.578125 197.453125 98.347656 197.789062 C 98.121094 198.125 97.929688 198.480469 97.773438 198.855469 C 97.613281 199.230469 97.496094 199.617188 97.414062 200.019531 C 97.332031 200.417969 97.289062 200.820312 97.285156 201.226562 C 97.28125 201.632812 97.320312 202.035156 97.394531 202.433594 C 97.472656 202.835938 97.585938 203.222656 97.738281 203.601562 C 97.890625 203.976562 98.078125 204.335938 98.296875 204.675781 C 98.519531 205.019531 98.773438 205.335938 99.058594 205.625 L 113.542969 220.171875 C 113.832031 220.460938 114.148438 220.722656 114.488281 220.949219 C 114.832031 221.175781 115.191406 221.371094 115.570312 221.527344 C 115.949219 221.683594 116.339844 221.804688 116.742188 221.882812 C 117.144531 221.964844 117.550781 222.003906 117.960938 222.003906 C 118.375 222.003906 118.78125 221.964844 119.183594 221.882812 C 119.585938 221.804688 119.976562 221.683594 120.355469 221.527344 C 120.734375 221.371094 121.09375 221.175781 121.4375 220.949219 C 121.777344 220.722656 122.09375 220.460938 122.382812 220.171875 L 145.3125 197.203125 C 145.601562 196.914062 145.863281 196.601562 146.089844 196.261719 C 146.316406 195.921875 146.511719 195.566406 146.667969 195.1875 C 146.824219 194.8125 146.945312 194.421875 147.023438 194.023438 C 147.105469 193.621094 147.144531 193.214844 147.144531 192.808594 C 147.144531 192.398438 147.105469 191.996094 147.023438 191.59375 C 146.945312 191.191406 146.824219 190.804688 146.667969 190.425781 C 146.511719 190.050781 146.316406 189.691406 146.089844 189.351562 C 145.863281 189.015625 145.601562 188.699219 145.3125 188.414062 Z M 144.246094 69.0625 L 90.265625 69.0625 L 90.265625 116.78125 L 144.246094 116.78125 C 144.65625 116.78125 145.0625 116.820312 145.464844 116.902344 C 145.867188 116.980469 146.257812 117.101562 146.636719 117.257812 C 147.015625 117.414062 147.378906 117.605469 147.71875 117.835938 C 148.058594 118.0625 148.375 118.324219 148.664062 118.613281 C 148.957031 118.902344 149.214844 119.21875 149.445312 119.5625 C 149.671875 119.902344 149.863281 120.261719 150.019531 120.640625 C 150.179688 121.019531 150.296875 121.410156 150.378906 121.816406 C 150.457031 122.21875 150.496094 122.625 150.496094 123.035156 C 150.496094 123.445312 150.457031 123.851562 150.378906 124.253906 C 150.296875 124.65625 150.179688 125.046875 150.019531 125.425781 C 149.863281 125.804688 149.671875 126.167969 149.445312 126.507812 C 149.214844 126.847656 148.957031 127.164062 148.664062 127.457031 C 148.375 127.746094 148.058594 128.003906 147.71875 128.234375 C 147.378906 128.460938 147.015625 128.652344 146.636719 128.8125 C 146.257812 128.96875 145.867188 129.085938 145.464844 129.167969 C 145.0625 129.246094 144.65625 129.289062 144.246094 129.289062 L 84.015625 129.289062 C 83.605469 129.289062 83.195312 129.25 82.792969 129.167969 C 82.386719 129.089844 81.996094 128.96875 81.613281 128.8125 C 81.234375 128.652344 80.875 128.460938 80.53125 128.230469 C 80.1875 128 79.871094 127.742188 79.582031 127.449219 C 79.292969 127.15625 79.03125 126.839844 78.804688 126.496094 C 78.578125 126.152344 78.386719 125.792969 78.230469 125.410156 C 78.074219 125.03125 77.957031 124.636719 77.878906 124.230469 C 77.800781 123.828125 77.761719 123.417969 77.761719 123.007812 L 77.761719 62.785156 C 77.765625 62.375 77.804688 61.96875 77.882812 61.566406 C 77.964844 61.164062 78.082031 60.773438 78.242188 60.398438 C 78.398438 60.019531 78.589844 59.660156 78.820312 59.320312 C 79.046875 58.976562 79.308594 58.664062 79.597656 58.375 C 79.886719 58.085938 80.203125 57.828125 80.546875 57.601562 C 80.886719 57.375 81.246094 57.183594 81.625 57.027344 C 82.003906 56.871094 82.394531 56.753906 82.796875 56.675781 C 83.199219 56.597656 83.605469 56.558594 84.015625 56.558594 L 144.246094 56.558594 C 144.652344 56.5625 145.054688 56.605469 145.453125 56.691406 C 145.855469 56.773438 146.242188 56.894531 146.617188 57.054688 C 146.992188 57.214844 147.347656 57.40625 147.6875 57.636719 C 148.023438 57.863281 148.335938 58.125 148.621094 58.414062 C 148.910156 58.703125 149.164062 59.019531 149.390625 59.359375 C 149.613281 59.699219 149.804688 60.058594 149.960938 60.433594 C 150.113281 60.8125 150.230469 61.199219 150.3125 61.601562 C 150.390625 62 150.429688 62.402344 150.429688 62.8125 C 150.429688 63.21875 150.390625 63.621094 150.3125 64.023438 C 150.230469 64.421875 150.113281 64.8125 149.960938 65.1875 C 149.804688 65.566406 149.613281 65.925781 149.390625 66.265625 C 149.164062 66.605469 148.910156 66.917969 148.621094 67.207031 C 148.335938 67.5 148.023438 67.757812 147.6875 67.988281 C 147.347656 68.214844 146.992188 68.410156 146.617188 68.570312 C 146.242188 68.726562 145.855469 68.847656 145.453125 68.933594 C 145.054688 69.015625 144.652344 69.058594 144.246094 69.0625 Z M 145.3125 77.070312 C 145.027344 76.769531 144.714844 76.503906 144.375 76.269531 C 144.035156 76.035156 143.675781 75.835938 143.296875 75.675781 C 142.917969 75.515625 142.527344 75.390625 142.121094 75.308594 C 141.71875 75.226562 141.308594 75.183594 140.894531 75.183594 C 140.484375 75.183594 140.074219 75.226562 139.671875 75.308594 C 139.265625 75.390625 138.875 75.515625 138.496094 75.675781 C 138.117188 75.835938 137.757812 76.035156 137.417969 76.269531 C 137.078125 76.503906 136.765625 76.769531 136.480469 77.070312 L 117.964844 95.589844 L 107.894531 85.441406 C 107.601562 85.152344 107.285156 84.894531 106.941406 84.671875 C 106.601562 84.445312 106.238281 84.253906 105.859375 84.097656 C 105.476562 83.945312 105.085938 83.828125 104.683594 83.75 C 104.28125 83.671875 103.871094 83.636719 103.460938 83.636719 C 103.050781 83.640625 102.644531 83.683594 102.242188 83.765625 C 101.839844 83.847656 101.449219 83.964844 101.070312 84.125 C 100.691406 84.285156 100.332031 84.476562 99.992188 84.707031 C 99.652344 84.9375 99.339844 85.195312 99.046875 85.488281 C 98.757812 85.78125 98.5 86.097656 98.273438 86.4375 C 98.046875 86.78125 97.855469 87.140625 97.699219 87.519531 C 97.542969 87.898438 97.425781 88.292969 97.34375 88.695312 C 97.265625 89.097656 97.226562 89.503906 97.226562 89.914062 C 97.226562 90.324219 97.269531 90.730469 97.347656 91.132812 C 97.429688 91.535156 97.546875 91.925781 97.703125 92.308594 C 97.859375 92.6875 98.054688 93.046875 98.28125 93.386719 C 98.507812 93.730469 98.769531 94.046875 99.058594 94.335938 L 113.542969 108.777344 C 113.828125 109.074219 114.140625 109.339844 114.480469 109.574219 C 114.820312 109.808594 115.179688 110.007812 115.558594 110.171875 C 115.941406 110.332031 116.332031 110.453125 116.738281 110.535156 C 117.140625 110.621094 117.550781 110.660156 117.960938 110.660156 C 118.375 110.660156 118.785156 110.621094 119.1875 110.535156 C 119.59375 110.453125 119.984375 110.332031 120.367188 110.171875 C 120.746094 110.007812 121.105469 109.808594 121.445312 109.574219 C 121.785156 109.339844 122.097656 109.074219 122.382812 108.777344 L 145.3125 85.859375 C 145.601562 85.570312 145.863281 85.257812 146.089844 84.917969 C 146.320312 84.582031 146.511719 84.222656 146.667969 83.84375 C 146.824219 83.46875 146.945312 83.078125 147.023438 82.679688 C 147.105469 82.277344 147.144531 81.875 147.144531 81.464844 C 147.144531 81.054688 147.105469 80.652344 147.023438 80.25 C 146.945312 79.851562 146.824219 79.460938 146.667969 79.085938 C 146.511719 78.707031 146.320312 78.347656 146.089844 78.011719 C 145.863281 77.671875 145.601562 77.359375 145.3125 77.070312 Z M 328.070312 355.007812 L 328.070312 20.351562 C 328.070312 19.691406 328.035156 19.03125 327.972656 18.375 C 327.90625 17.714844 327.808594 17.0625 327.675781 16.414062 C 327.546875 15.765625 327.386719 15.128906 327.195312 14.496094 C 327 13.863281 326.777344 13.242188 326.523438 12.632812 C 326.269531 12.023438 325.988281 11.425781 325.675781 10.84375 C 325.363281 10.261719 325.023438 9.695312 324.65625 9.148438 C 324.289062 8.597656 323.894531 8.070312 323.472656 7.558594 C 323.054688 7.050781 322.609375 6.5625 322.140625 6.09375 C 321.675781 5.628906 321.183594 5.183594 320.671875 4.765625 C 320.160156 4.347656 319.632812 3.957031 319.082031 3.589844 C 318.53125 3.222656 317.964844 2.886719 317.382812 2.574219 C 316.800781 2.265625 316.203125 1.984375 315.589844 1.730469 C 314.980469 1.480469 314.359375 1.257812 313.726562 1.066406 C 313.09375 0.875 312.453125 0.714844 311.804688 0.589844 C 311.15625 0.460938 310.503906 0.363281 309.847656 0.300781 C 309.1875 0.238281 308.53125 0.207031 307.867188 0.207031 L 273.558594 0.207031 C 273.03125 0.726562 272.425781 1.125 271.742188 1.410156 C 268.824219 2.824219 266.261719 7.164062 266.261719 10.722656 C 266.257812 11.367188 266.226562 12.011719 266.160156 12.652344 C 266.097656 13.296875 266 13.933594 265.875 14.566406 C 265.746094 15.199219 265.589844 15.824219 265.402344 16.441406 C 265.214844 17.058594 264.996094 17.664062 264.75 18.261719 C 264.5 18.855469 264.226562 19.4375 263.921875 20.007812 C 263.617188 20.574219 263.285156 21.128906 262.925781 21.664062 C 262.570312 22.199219 262.183594 22.71875 261.777344 23.21875 C 261.367188 23.714844 260.933594 24.195312 260.476562 24.652344 C 260.023438 25.105469 259.546875 25.539062 259.046875 25.949219 C 258.546875 26.359375 258.03125 26.742188 257.496094 27.101562 C 256.960938 27.460938 256.40625 27.792969 255.839844 28.097656 C 255.269531 28.40625 254.6875 28.679688 254.09375 28.929688 C 253.496094 29.175781 252.890625 29.394531 252.273438 29.585938 C 251.65625 29.773438 251.03125 29.929688 250.398438 30.058594 C 249.769531 30.1875 249.128906 30.28125 248.488281 30.347656 C 247.847656 30.414062 247.203125 30.445312 246.558594 30.449219 L 131.183594 30.449219 C 130.539062 30.445312 129.894531 30.414062 129.253906 30.347656 C 128.613281 30.285156 127.976562 30.1875 127.34375 30.058594 C 126.710938 29.933594 126.085938 29.773438 125.46875 29.585938 C 124.851562 29.398438 124.246094 29.179688 123.648438 28.929688 C 123.054688 28.683594 122.472656 28.40625 121.902344 28.101562 C 121.332031 27.796875 120.78125 27.464844 120.246094 27.105469 C 119.710938 26.746094 119.191406 26.363281 118.695312 25.953125 C 118.195312 25.542969 117.71875 25.109375 117.261719 24.652344 C 116.804688 24.195312 116.375 23.71875 115.964844 23.21875 C 115.554688 22.722656 115.171875 22.203125 114.8125 21.667969 C 114.453125 21.128906 114.125 20.578125 113.820312 20.007812 C 113.515625 19.441406 113.238281 18.855469 112.992188 18.261719 C 112.746094 17.664062 112.527344 17.058594 112.339844 16.441406 C 112.152344 15.824219 111.992188 15.199219 111.867188 14.566406 C 111.742188 13.933594 111.644531 13.296875 111.582031 12.652344 C 111.515625 12.011719 111.484375 11.367188 111.484375 10.722656 C 111.484375 6.851562 108.035156 2.089844 104.644531 1.203125 C 103.875 0.988281 103.160156 0.65625 102.5 0.207031 L 67.496094 0.207031 C 66.835938 0.207031 66.175781 0.238281 65.519531 0.300781 C 64.863281 0.363281 64.207031 0.460938 63.5625 0.585938 C 62.914062 0.714844 62.273438 0.875 61.640625 1.066406 C 61.007812 1.257812 60.386719 1.476562 59.773438 1.730469 C 59.164062 1.980469 58.566406 2.261719 57.984375 2.574219 C 57.398438 2.882812 56.832031 3.222656 56.28125 3.589844 C 55.734375 3.953125 55.203125 4.347656 54.691406 4.765625 C 54.179688 5.183594 53.691406 5.625 53.222656 6.09375 C 52.753906 6.558594 52.308594 7.046875 51.890625 7.558594 C 51.46875 8.066406 51.074219 8.597656 50.707031 9.144531 C 50.339844 9.695312 50 10.257812 49.6875 10.839844 C 49.375 11.425781 49.09375 12.019531 48.839844 12.628906 C 48.585938 13.238281 48.359375 13.859375 48.167969 14.492188 C 47.976562 15.125 47.8125 15.765625 47.683594 16.414062 C 47.554688 17.0625 47.457031 17.714844 47.390625 18.371094 C 47.324219 19.027344 47.292969 19.6875 47.289062 20.347656 L 47.289062 355.007812 C 47.292969 355.667969 47.324219 356.328125 47.390625 356.984375 C 47.457031 357.640625 47.558594 358.292969 47.6875 358.941406 C 47.816406 359.589844 47.980469 360.230469 48.171875 360.863281 C 48.367188 361.496094 48.589844 362.117188 48.84375 362.726562 C 49.097656 363.335938 49.378906 363.933594 49.691406 364.515625 C 50.003906 365.097656 50.34375 365.664062 50.710938 366.210938 C 51.082031 366.761719 51.472656 367.292969 51.894531 367.800781 C 52.3125 368.3125 52.757812 368.800781 53.226562 369.269531 C 53.691406 369.734375 54.183594 370.179688 54.695312 370.597656 C 55.207031 371.015625 55.734375 371.410156 56.285156 371.777344 C 56.835938 372.144531 57.402344 372.484375 57.984375 372.792969 C 58.566406 373.105469 59.164062 373.386719 59.773438 373.640625 C 60.386719 373.894531 61.007812 374.117188 61.640625 374.308594 C 62.273438 374.5 62.910156 374.660156 63.558594 374.789062 C 64.207031 374.921875 64.859375 375.015625 65.519531 375.082031 C 66.175781 375.148438 66.835938 375.179688 67.496094 375.183594 L 307.867188 375.183594 C 308.53125 375.179688 309.1875 375.148438 309.847656 375.082031 C 310.503906 375.015625 311.15625 374.917969 311.804688 374.789062 C 312.453125 374.660156 313.09375 374.5 313.726562 374.308594 C 314.359375 374.117188 314.980469 373.894531 315.589844 373.640625 C 316.199219 373.386719 316.796875 373.105469 317.378906 372.792969 C 317.964844 372.480469 318.527344 372.140625 319.078125 371.777344 C 319.628906 371.410156 320.160156 371.015625 320.667969 370.597656 C 321.179688 370.175781 321.671875 369.734375 322.136719 369.265625 C 322.605469 368.800781 323.050781 368.3125 323.46875 367.800781 C 323.886719 367.289062 324.28125 366.761719 324.648438 366.210938 C 325.019531 365.664062 325.359375 365.097656 325.671875 364.515625 C 325.980469 363.933594 326.265625 363.335938 326.519531 362.726562 C 326.773438 362.117188 326.996094 361.496094 327.191406 360.863281 C 327.382812 360.230469 327.542969 359.589844 327.675781 358.941406 C 327.804688 358.292969 327.902344 357.640625 327.96875 356.984375 C 328.035156 356.328125 328.070312 355.667969 328.070312 355.007812 Z M 256.421875 0.207031 C 254.675781 3.496094 253.789062 7 253.75 10.722656 C 253.75 11.195312 253.707031 11.664062 253.613281 12.128906 C 253.519531 12.59375 253.382812 13.042969 253.203125 13.480469 C 253.023438 13.917969 252.800781 14.332031 252.539062 14.726562 C 252.277344 15.121094 251.976562 15.484375 251.644531 15.820312 C 251.308594 16.15625 250.945312 16.453125 250.554688 16.71875 C 250.160156 16.980469 249.746094 17.203125 249.308594 17.386719 C 248.871094 17.570312 248.421875 17.707031 247.957031 17.800781 C 247.492188 17.894531 247.027344 17.941406 246.550781 17.945312 L 131.183594 17.945312 C 130.710938 17.941406 130.242188 17.894531 129.777344 17.800781 C 129.316406 17.707031 128.863281 17.570312 128.425781 17.386719 C 127.988281 17.207031 127.574219 16.984375 127.183594 16.71875 C 126.789062 16.457031 126.425781 16.15625 126.089844 15.820312 C 125.757812 15.488281 125.457031 15.121094 125.195312 14.730469 C 124.933594 14.335938 124.710938 13.917969 124.527344 13.480469 C 124.347656 13.042969 124.210938 12.59375 124.117188 12.128906 C 124.027344 11.664062 123.980469 11.195312 123.980469 10.722656 C 123.933594 6.972656 122.984375 3.464844 121.128906 0.207031 Z M 256.421875 0.207031 " clip-rule="evenodd"/></clipPath><linearGradient x1="256.246" gradientTransform="matrix(0.732422, 0, 0, 0.732422, 0.0000045, 0)" y1="512.000353" x2="256.24701" gradientUnits="userSpaceOnUse" y2="0.280117" id="8c555654da"><stop stop-opacity="1" stop-color="rgb(0%, 47.805786%, 71.409607%)" offset="0"/><stop stop-opacity="1" stop-color="rgb(0%, 47.909546%, 71.565247%)" offset="0.00000147791"/><stop stop-opacity="1" stop-color="rgb(0%, 48.014832%, 71.720886%)" offset="0.015625"/><stop stop-opacity="1" stop-color="rgb(0%, 48.118591%, 71.876526%)" offset="0.03125"/><stop stop-opacity="1" stop-color="rgb(0%, 48.327637%, 72.189331%)" offset="0.046875"/><stop stop-opacity="1" stop-color="rgb(0%, 48.538208%, 72.502136%)" offset="0.0625"/><stop stop-opacity="1" stop-color="rgb(0%, 48.747253%, 72.813416%)" offset="0.078125"/><stop stop-opacity="1" stop-color="rgb(0%, 48.956299%, 73.126221%)" offset="0.09375"/><stop stop-opacity="1" stop-color="rgb(0%, 49.165344%, 73.439026%)" offset="0.109375"/><stop stop-opacity="1" stop-color="rgb(0%, 49.37439%, 73.751831%)" offset="0.125"/><stop stop-opacity="1" stop-color="rgb(0%, 49.583435%, 74.06311%)" offset="0.140625"/><stop stop-opacity="1" stop-color="rgb(0%, 49.794006%, 74.375916%)" offset="0.15625"/><stop stop-opacity="1" stop-color="rgb(0%, 50.003052%, 74.688721%)" offset="0.171875"/><stop stop-opacity="1" stop-color="rgb(0%, 50.212097%, 75%)" offset="0.1875"/><stop stop-opacity="1" stop-color="rgb(0%, 50.421143%, 75.312805%)" offset="0.203125"/><stop stop-opacity="1" stop-color="rgb(0%, 50.630188%, 75.62561%)" offset="0.21875"/><stop stop-opacity="1" stop-color="rgb(0%, 50.839233%, 75.93689%)" offset="0.234375"/><stop stop-opacity="1" stop-color="rgb(0%, 51.048279%, 76.249695%)" offset="0.25"/><stop stop-opacity="1" stop-color="rgb(0%, 51.25885%, 76.5625%)" offset="0.265625"/><stop stop-opacity="1" stop-color="rgb(0%, 51.467896%, 76.875305%)" offset="0.28125"/><stop stop-opacity="1" stop-color="rgb(0%, 51.676941%, 77.186584%)" offset="0.296875"/><stop stop-opacity="1" stop-color="rgb(0%, 51.885986%, 77.49939%)" offset="0.3125"/><stop stop-opacity="1" stop-color="rgb(0%, 52.095032%, 77.812195%)" offset="0.328125"/><stop stop-opacity="1" stop-color="rgb(0%, 52.304077%, 78.123474%)" offset="0.34375"/><stop stop-opacity="1" stop-color="rgb(0%, 52.513123%, 78.436279%)" offset="0.359375"/><stop stop-opacity="1" stop-color="rgb(0%, 52.723694%, 78.749084%)" offset="0.375"/><stop stop-opacity="1" stop-color="rgb(0%, 52.932739%, 79.060364%)" offset="0.390625"/><stop stop-opacity="1" stop-color="rgb(0%, 53.141785%, 79.373169%)" offset="0.40625"/><stop stop-opacity="1" stop-color="rgb(0%, 53.35083%, 79.685974%)" offset="0.421875"/><stop stop-opacity="1" stop-color="rgb(0%, 53.559875%, 79.998779%)" offset="0.4375"/><stop stop-opacity="1" stop-color="rgb(0%, 53.768921%, 80.310059%)" offset="0.453125"/><stop stop-opacity="1" stop-color="rgb(0%, 53.977966%, 80.622864%)" offset="0.46875"/><stop stop-opacity="1" stop-color="rgb(0%, 54.188538%, 80.935669%)" offset="0.484375"/><stop stop-opacity="1" stop-color="rgb(0%, 54.397583%, 81.246948%)" offset="0.5"/><stop stop-opacity="1" stop-color="rgb(0%, 54.606628%, 81.559753%)" offset="0.515625"/><stop stop-opacity="1" stop-color="rgb(0%, 54.815674%, 81.872559%)" offset="0.53125"/><stop stop-opacity="1" stop-color="rgb(0%, 55.024719%, 82.183838%)" offset="0.546875"/><stop stop-opacity="1" stop-color="rgb(0%, 55.233765%, 82.496643%)" offset="0.5625"/><stop stop-opacity="1" stop-color="rgb(0%, 55.444336%, 82.809448%)" offset="0.578125"/><stop stop-opacity="1" stop-color="rgb(0%, 55.653381%, 83.122253%)" offset="0.59375"/><stop stop-opacity="1" stop-color="rgb(0%, 55.862427%, 83.433533%)" offset="0.609375"/><stop stop-opacity="1" stop-color="rgb(0%, 56.071472%, 83.746338%)" offset="0.625"/><stop stop-opacity="1" stop-color="rgb(0%, 56.280518%, 84.059143%)" offset="0.640625"/><stop stop-opacity="1" stop-color="rgb(0%, 56.489563%, 84.370422%)" offset="0.65625"/><stop stop-opacity="1" stop-color="rgb(0%, 56.698608%, 84.683228%)" offset="0.671875"/><stop stop-opacity="1" stop-color="rgb(0%, 56.90918%, 84.996033%)" offset="0.6875"/><stop stop-opacity="1" stop-color="rgb(0%, 57.118225%, 85.307312%)" offset="0.703125"/><stop stop-opacity="1" stop-color="rgb(0%, 57.327271%, 85.620117%)" offset="0.71875"/><stop stop-opacity="1" stop-color="rgb(0%, 57.536316%, 85.932922%)" offset="0.734375"/><stop stop-opacity="1" stop-color="rgb(0%, 57.745361%, 86.245728%)" offset="0.75"/><stop stop-opacity="1" stop-color="rgb(0%, 57.954407%, 86.557007%)" offset="0.765625"/><stop stop-opacity="1" stop-color="rgb(0%, 58.163452%, 86.869812%)" offset="0.78125"/><stop stop-opacity="1" stop-color="rgb(0%, 58.374023%, 87.182617%)" offset="0.796875"/><stop stop-opacity="1" stop-color="rgb(0%, 58.583069%, 87.493896%)" offset="0.8125"/><stop stop-opacity="1" stop-color="rgb(0%, 58.792114%, 87.806702%)" offset="0.828125"/><stop stop-opacity="1" stop-color="rgb(0%, 59.00116%, 88.119507%)" offset="0.84375"/><stop stop-opacity="1" stop-color="rgb(0%, 59.210205%, 88.430786%)" offset="0.859375"/><stop stop-opacity="1" stop-color="rgb(0%, 59.41925%, 88.743591%)" offset="0.875"/><stop stop-opacity="1" stop-color="rgb(0%, 59.629822%, 89.056396%)" offset="0.890625"/><stop stop-opacity="1" stop-color="rgb(0%, 59.838867%, 89.369202%)" offset="0.90625"/><stop stop-opacity="1" stop-color="rgb(0%, 60.047913%, 89.680481%)" offset="0.921875"/><stop stop-opacity="1" stop-color="rgb(0%, 60.256958%, 89.993286%)" offset="0.9375"/><stop stop-opacity="1" stop-color="rgb(0%, 60.466003%, 90.306091%)" offset="0.953125"/><stop stop-opacity="1" stop-color="rgb(0%, 60.675049%, 90.617371%)" offset="0.96875"/><stop stop-opacity="1" stop-color="rgb(0%, 60.884094%, 90.930176%)" offset="0.984375"/><stop stop-opacity="1" stop-color="rgb(0%, 61.094666%, 91.242981%)" offset="0.999999"/><stop stop-opacity="1" stop-color="rgb(0%, 61.199951%, 91.398621%)" offset="1"/></linearGradient></defs><g clip-path="url(#a78c8c801f)"><g clip-path="url(#7d089121ff)"><path fill="url(#8c555654da)" d="M 47.289062 0.207031 L 47.289062 375 L 328.070312 375 L 328.070312 0.207031 Z M 47.289062 0.207031 " fill-rule="nonzero"/></g></g></svg>