<svg xmlns="http://www.w3.org/2000/svg" xmlns:xlink="http://www.w3.org/1999/xlink" width="500" zoomAndPan="magnify" viewBox="0 0 375 374.999991" height="500" preserveAspectRatio="xMidYMid meet" version="1.0"><defs><clipPath id="bc35f6e67b"><path d="M 0 65 L 375 65 L 375 310 L 0 310 Z M 0 65 " clip-rule="nonzero"/></clipPath><clipPath id="903f2c5b00"><path d="M 323.839844 186.273438 L 271.175781 95.066406 L 322.339844 65.523438 L 375 156.738281 L 323.835938 186.273438 Z M 293.25 188.710938 L 305.789062 180.320312 L 262.449219 105.257812 L 178.167969 104.363281 C 176.410156 104.3125 174.675781 104.460938 172.953125 104.808594 C 171.234375 105.15625 169.574219 105.699219 167.980469 106.429688 C 166.382812 107.160156 164.890625 108.066406 163.503906 109.144531 C 162.117188 110.21875 160.875 111.441406 159.769531 112.804688 L 125.742188 153.203125 C 126.101562 154.0625 126.464844 154.878906 126.828125 155.640625 C 127.0625 156.136719 127.328125 156.617188 127.625 157.082031 C 127.917969 157.546875 128.242188 157.992188 128.589844 158.414062 C 128.941406 158.839844 129.316406 159.242188 129.714844 159.621094 C 130.113281 160 130.535156 160.351562 130.976562 160.679688 C 131.417969 161.003906 131.878906 161.304688 132.355469 161.574219 C 132.835938 161.84375 133.328125 162.085938 133.839844 162.292969 C 134.347656 162.503906 134.867188 162.683594 135.394531 162.828125 C 135.925781 162.976562 136.464844 163.085938 137.007812 163.167969 C 137.550781 163.25 138.097656 163.292969 138.648438 163.308594 C 139.199219 163.320312 139.746094 163.300781 140.292969 163.246094 C 140.84375 163.191406 141.382812 163.105469 141.921875 162.984375 C 142.457031 162.863281 142.984375 162.710938 143.503906 162.523438 C 144.019531 162.339844 144.523438 162.121094 145.015625 161.875 C 145.507812 161.628906 145.980469 161.351562 146.4375 161.046875 C 146.894531 160.742188 147.332031 160.410156 147.75 160.050781 C 148.164062 159.691406 148.558594 159.308594 148.929688 158.898438 L 165.855469 140.230469 C 166.449219 139.5625 167.070312 138.925781 167.71875 138.3125 C 168.367188 137.703125 169.039062 137.121094 169.738281 136.566406 C 170.4375 136.015625 171.160156 135.492188 171.90625 135.003906 C 172.652344 134.515625 173.417969 134.058594 174.203125 133.636719 C 174.988281 133.214844 175.789062 132.828125 176.609375 132.476562 C 177.425781 132.125 178.261719 131.808594 179.105469 131.53125 C 179.953125 131.253906 180.8125 131.011719 181.679688 130.808594 C 182.546875 130.605469 183.421875 130.4375 184.304688 130.3125 C 185.1875 130.183594 186.074219 130.097656 186.960938 130.046875 C 187.851562 130 188.742188 129.988281 189.632812 130.019531 C 190.523438 130.046875 191.414062 130.113281 192.296875 130.222656 C 193.183594 130.328125 194.0625 130.472656 194.933594 130.65625 C 195.804688 130.839844 196.667969 131.0625 197.519531 131.320312 C 198.375 131.582031 199.214844 131.878906 200.039062 132.210938 C 200.867188 132.542969 201.679688 132.914062 202.472656 133.316406 C 203.265625 133.71875 204.042969 134.160156 204.796875 134.628906 Z M 297.71875 220.398438 C 298.128906 219.722656 298.46875 219.015625 298.742188 218.273438 C 299.011719 217.53125 299.207031 216.769531 299.328125 215.988281 C 299.449219 215.207031 299.492188 214.421875 299.460938 213.632812 C 299.429688 212.84375 299.320312 212.0625 299.132812 211.296875 C 298.949219 210.527344 298.691406 209.785156 298.359375 209.066406 C 298.027344 208.351562 297.632812 207.671875 297.167969 207.03125 C 296.703125 206.390625 296.183594 205.804688 295.605469 205.265625 C 295.023438 204.730469 294.398438 204.253906 293.726562 203.835938 L 198.199219 145.425781 C 197.304688 144.867188 196.371094 144.394531 195.390625 144 C 194.414062 143.605469 193.410156 143.300781 192.378906 143.082031 C 191.351562 142.863281 190.308594 142.738281 189.253906 142.703125 C 188.203125 142.667969 187.15625 142.726562 186.113281 142.875 C 185.070312 143.027344 184.046875 143.265625 183.046875 143.59375 C 182.046875 143.925781 181.082031 144.335938 180.15625 144.835938 C 179.226562 145.335938 178.347656 145.910156 177.523438 146.5625 C 176.695312 147.214844 175.933594 147.9375 175.230469 148.722656 L 158.304688 167.398438 C 157.945312 167.792969 157.574219 168.179688 157.195312 168.550781 C 156.8125 168.921875 156.417969 169.285156 156.015625 169.632812 C 155.609375 169.980469 155.195312 170.316406 154.773438 170.640625 C 154.347656 170.960938 153.914062 171.273438 153.46875 171.570312 C 153.027344 171.863281 152.574219 172.148438 152.113281 172.414062 C 151.652344 172.683594 151.183594 172.9375 150.707031 173.179688 C 150.230469 173.417969 149.75 173.644531 149.257812 173.855469 C 148.769531 174.066406 148.273438 174.257812 147.769531 174.441406 C 147.269531 174.621094 146.761719 174.785156 146.25 174.933594 C 145.734375 175.082031 145.21875 175.214844 144.699219 175.332031 C 144.179688 175.449219 143.65625 175.550781 143.128906 175.636719 C 142.601562 175.71875 142.074219 175.789062 141.542969 175.839844 C 141.011719 175.894531 140.480469 175.929688 139.949219 175.949219 C 139.414062 175.96875 138.882812 175.972656 138.347656 175.960938 C 137.816406 175.949219 137.28125 175.917969 136.75 175.875 C 136.21875 175.828125 135.691406 175.769531 135.164062 175.691406 C 134.632812 175.613281 134.109375 175.519531 133.585938 175.410156 C 133.066406 175.296875 132.546875 175.171875 132.035156 175.03125 C 131.519531 174.890625 131.011719 174.730469 130.503906 174.558594 C 130 174.386719 129.5 174.199219 129.007812 173.992188 C 128.515625 173.789062 128.03125 173.570312 127.550781 173.339844 C 127.070312 173.105469 126.597656 172.859375 126.132812 172.59375 C 125.667969 172.332031 125.214844 172.058594 124.765625 171.765625 C 124.316406 171.476562 123.878906 171.171875 123.453125 170.855469 C 123.023438 170.539062 122.605469 170.207031 122.195312 169.867188 C 121.785156 169.523438 121.386719 169.167969 121 168.800781 C 120.613281 168.433594 120.238281 168.054688 119.875 167.664062 C 119.511719 167.273438 119.160156 166.875 118.820312 166.460938 C 118.484375 166.050781 118.15625 165.628906 117.84375 165.195312 C 117.53125 164.765625 117.230469 164.324219 116.945312 163.875 C 116.65625 163.421875 116.386719 162.964844 116.128906 162.5 C 115.871094 162.03125 115.625 161.558594 115.398438 161.074219 C 114.730469 159.671875 114.070312 158.148438 113.441406 156.542969 C 113.09375 155.679688 112.867188 154.789062 112.765625 153.867188 C 112.660156 152.945312 112.683594 152.023438 112.835938 151.109375 C 112.984375 150.191406 113.257812 149.3125 113.648438 148.472656 C 114.039062 147.628906 114.539062 146.855469 115.140625 146.152344 L 132.253906 125.828125 L 107.671875 113.585938 L 65.933594 185.875 L 76.226562 191.421875 L 78.390625 189.257812 C 79.175781 188.46875 80.007812 187.738281 80.894531 187.066406 C 81.777344 186.390625 82.703125 185.78125 83.671875 185.230469 C 84.636719 184.683594 85.636719 184.203125 86.667969 183.789062 C 87.699219 183.375 88.753906 183.03125 89.832031 182.761719 C 90.910156 182.488281 92.003906 182.292969 93.105469 182.167969 C 94.210938 182.042969 95.320312 181.996094 96.429688 182.019531 C 97.542969 182.046875 98.648438 182.144531 99.746094 182.320312 C 100.84375 182.496094 101.925781 182.742188 102.988281 183.066406 C 104.054688 183.386719 105.089844 183.777344 106.101562 184.238281 C 107.113281 184.699219 108.089844 185.226562 109.03125 185.820312 C 109.972656 186.414062 110.867188 187.066406 111.71875 187.78125 C 112.570312 188.496094 113.371094 189.261719 114.121094 190.085938 C 114.867188 190.90625 115.558594 191.777344 116.1875 192.691406 C 116.820312 193.605469 117.386719 194.558594 117.886719 195.550781 C 118.390625 196.542969 118.824219 197.566406 119.1875 198.613281 C 119.550781 199.664062 119.84375 200.734375 120.0625 201.824219 C 121.199219 201.3125 122.371094 200.890625 123.570312 200.554688 C 124.769531 200.21875 125.992188 199.976562 127.226562 199.828125 C 128.464844 199.675781 129.707031 199.617188 130.953125 199.65625 C 132.199219 199.691406 133.4375 199.824219 134.664062 200.046875 C 135.890625 200.269531 137.09375 200.585938 138.273438 200.992188 C 139.449219 201.398438 140.59375 201.890625 141.695312 202.46875 C 142.800781 203.046875 143.855469 203.703125 144.863281 204.441406 C 145.867188 205.179688 146.8125 205.988281 147.695312 206.867188 C 148.84375 208.011719 149.867188 209.261719 150.769531 210.609375 C 151.671875 211.957031 152.429688 213.382812 153.050781 214.882812 C 153.667969 216.382812 154.136719 217.925781 154.449219 219.519531 C 154.761719 221.109375 154.914062 222.71875 154.90625 224.339844 C 154.90625 225.722656 154.789062 227.09375 154.5625 228.457031 C 155.429688 228.496094 156.296875 228.582031 157.160156 228.714844 C 158.019531 228.84375 158.875 229.019531 159.714844 229.242188 C 160.558594 229.464844 161.390625 229.730469 162.203125 230.039062 C 163.019531 230.347656 163.816406 230.699219 164.59375 231.09375 C 165.371094 231.484375 166.125 231.917969 166.855469 232.394531 C 167.589844 232.867188 168.292969 233.378906 168.96875 233.925781 C 169.648438 234.476562 170.292969 235.058594 170.910156 235.675781 C 171.527344 236.292969 172.105469 236.9375 172.65625 237.617188 C 173.203125 238.296875 173.710938 239 174.183594 239.734375 C 174.65625 240.46875 175.085938 241.222656 175.480469 242 C 175.871094 242.78125 176.222656 243.578125 176.53125 244.390625 C 176.835938 245.207031 177.101562 246.035156 177.320312 246.878906 C 177.539062 247.722656 177.714844 248.578125 177.84375 249.4375 C 177.972656 250.300781 178.058594 251.167969 178.09375 252.039062 C 178.132812 252.910156 178.121094 253.777344 178.066406 254.648438 C 178.011719 255.519531 177.914062 256.382812 177.765625 257.242188 C 178.363281 257.269531 178.957031 257.320312 179.554688 257.394531 C 179.582031 257.121094 179.632812 256.851562 179.695312 256.585938 C 179.761719 256.320312 179.84375 256.0625 179.941406 255.804688 C 180.039062 255.550781 180.15625 255.304688 180.285156 255.0625 C 180.417969 254.824219 180.5625 254.59375 180.722656 254.371094 C 180.882812 254.148438 181.058594 253.941406 181.246094 253.742188 C 181.433594 253.542969 181.632812 253.355469 181.847656 253.183594 C 182.058594 253.011719 182.28125 252.851562 182.511719 252.710938 C 182.746094 252.566406 182.988281 252.4375 183.234375 252.324219 C 183.484375 252.210938 183.742188 252.117188 184.003906 252.035156 C 184.265625 251.957031 184.53125 251.894531 184.800781 251.851562 C 185.070312 251.804688 185.339844 251.777344 185.613281 251.769531 C 185.886719 251.757812 186.160156 251.765625 186.433594 251.792969 C 186.703125 251.816406 186.972656 251.859375 187.242188 251.921875 C 187.507812 251.980469 187.769531 252.058594 188.027344 252.152344 C 188.28125 252.25 188.53125 252.359375 188.773438 252.484375 C 189.015625 252.613281 189.25 252.753906 189.472656 252.910156 L 212.324219 268.914062 L 218.933594 272.933594 C 219.792969 273.472656 220.710938 273.886719 221.683594 274.171875 C 222.65625 274.457031 223.648438 274.605469 224.664062 274.617188 C 225.675781 274.628906 226.671875 274.503906 227.652344 274.242188 C 228.632812 273.976562 229.554688 273.585938 230.429688 273.070312 C 234.800781 270.6875 237.933594 266 238.039062 261.664062 C 238.132812 257.929688 236.046875 254.730469 231.839844 252.167969 C 231.839844 252.167969 231.835938 252.167969 231.832031 252.152344 L 198.054688 231.496094 C 197.699219 231.28125 197.367188 231.03125 197.0625 230.75 C 196.757812 230.46875 196.480469 230.160156 196.238281 229.824219 C 195.992188 229.488281 195.78125 229.132812 195.609375 228.753906 C 195.433594 228.378906 195.296875 227.988281 195.199219 227.582031 C 195.101562 227.179688 195.042969 226.769531 195.027344 226.355469 C 195.011719 225.941406 195.035156 225.527344 195.101562 225.117188 C 195.164062 224.707031 195.269531 224.304688 195.410156 223.914062 C 195.554688 223.527344 195.734375 223.152344 195.953125 222.796875 C 196.167969 222.445312 196.417969 222.113281 196.699219 221.808594 C 196.984375 221.503906 197.292969 221.230469 197.628906 220.984375 C 197.964844 220.738281 198.320312 220.53125 198.699219 220.355469 C 199.074219 220.183594 199.464844 220.046875 199.871094 219.949219 C 200.273438 219.851562 200.683594 219.796875 201.101562 219.78125 C 201.515625 219.765625 201.929688 219.789062 202.339844 219.855469 C 202.75 219.917969 203.148438 220.023438 203.539062 220.167969 C 203.929688 220.3125 204.300781 220.492188 204.65625 220.710938 L 250.488281 248.738281 C 251.164062 249.144531 251.871094 249.480469 252.613281 249.75 C 253.355469 250.019531 254.113281 250.210938 254.894531 250.332031 C 255.671875 250.449219 256.457031 250.492188 257.242188 250.457031 C 258.03125 250.421875 258.808594 250.308594 259.574219 250.125 C 260.339844 249.9375 261.078125 249.675781 261.792969 249.34375 C 262.507812 249.011719 263.183594 248.613281 263.820312 248.148438 C 264.457031 247.683594 265.042969 247.160156 265.578125 246.582031 C 266.109375 246 266.582031 245.375 266.996094 244.703125 C 267.40625 244.03125 267.746094 243.324219 268.019531 242.585938 C 268.292969 241.84375 268.492188 241.085938 268.617188 240.308594 C 268.738281 239.527344 268.785156 238.746094 268.757812 237.957031 C 268.726562 237.171875 268.621094 236.394531 268.4375 235.625 C 268.257812 234.859375 268 234.117188 267.671875 233.402344 C 267.34375 232.683594 266.953125 232.007812 266.492188 231.367188 C 266.03125 230.726562 265.511719 230.136719 264.933594 229.601562 C 264.359375 229.0625 263.734375 228.585938 263.066406 228.171875 L 212.417969 197.203125 C 212.066406 196.984375 211.738281 196.734375 211.4375 196.453125 C 211.136719 196.171875 210.867188 195.859375 210.625 195.527344 C 210.382812 195.191406 210.179688 194.835938 210.007812 194.457031 C 209.835938 194.082031 209.703125 193.695312 209.605469 193.292969 C 209.511719 192.890625 209.457031 192.480469 209.441406 192.070312 C 209.425781 191.65625 209.453125 191.246094 209.515625 190.839844 C 209.582031 190.429688 209.6875 190.03125 209.828125 189.644531 C 209.972656 189.257812 210.152344 188.886719 210.367188 188.535156 C 210.582031 188.183594 210.828125 187.855469 211.109375 187.550781 C 211.390625 187.246094 211.695312 186.972656 212.027344 186.730469 C 212.363281 186.484375 212.714844 186.277344 213.089844 186.101562 C 213.464844 185.925781 213.851562 185.789062 214.253906 185.691406 C 214.65625 185.59375 215.0625 185.535156 215.472656 185.515625 C 215.886719 185.496094 216.296875 185.519531 216.707031 185.578125 C 217.113281 185.640625 217.511719 185.742188 217.902344 185.882812 C 218.289062 186.019531 218.660156 186.195312 219.015625 186.410156 L 269.652344 217.363281 L 269.664062 217.371094 C 269.667969 217.371094 269.671875 217.382812 269.679688 217.382812 L 281.152344 224.398438 C 281.828125 224.804688 282.539062 225.144531 283.28125 225.417969 C 284.023438 225.6875 284.785156 225.882812 285.566406 226.003906 C 286.347656 226.125 287.132812 226.167969 287.921875 226.136719 C 288.710938 226.105469 289.488281 225.996094 290.257812 225.808594 C 291.027344 225.625 291.769531 225.367188 292.488281 225.035156 C 293.207031 224.703125 293.882812 224.304688 294.523438 223.84375 C 295.164062 223.378906 295.753906 222.855469 296.289062 222.277344 C 296.828125 221.699219 297.304688 221.070312 297.71875 220.398438 Z M 206.644531 293.953125 C 206.324219 294.476562 205.964844 294.972656 205.570312 295.441406 C 205.171875 295.914062 204.742188 296.347656 204.28125 296.753906 C 203.816406 297.15625 203.324219 297.519531 202.808594 297.847656 C 202.289062 298.179688 201.746094 298.464844 201.183594 298.710938 C 200.621094 298.957031 200.042969 299.15625 199.449219 299.3125 C 198.855469 299.472656 198.253906 299.582031 197.644531 299.648438 C 197.03125 299.710938 196.421875 299.730469 195.808594 299.703125 C 195.195312 299.671875 194.585938 299.597656 193.984375 299.476562 L 194.085938 299.375 C 195.234375 298.226562 196.261719 296.980469 197.164062 295.632812 C 198.0625 294.285156 198.824219 292.859375 199.445312 291.359375 C 200.0625 289.859375 200.527344 288.3125 200.839844 286.722656 C 201.152344 285.128906 201.304688 283.523438 201.300781 281.898438 C 201.300781 279.96875 201.082031 278.058594 200.640625 276.179688 L 204.8125 279.101562 C 205.285156 279.578125 205.71875 280.09375 206.109375 280.640625 C 206.496094 281.1875 206.839844 281.765625 207.132812 282.371094 C 207.429688 282.976562 207.671875 283.601562 207.863281 284.246094 C 208.054688 284.890625 208.1875 285.546875 208.273438 286.214844 C 208.355469 286.882812 208.382812 287.550781 208.351562 288.222656 C 208.324219 288.894531 208.242188 289.5625 208.101562 290.21875 C 207.964844 290.878906 207.773438 291.519531 207.527344 292.148438 C 207.28125 292.773438 206.988281 293.375 206.644531 293.953125 Z M 160.957031 309.59375 C 159.765625 309.597656 158.597656 309.429688 157.457031 309.085938 C 156.316406 308.746094 155.25 308.242188 154.253906 307.582031 C 153.261719 306.921875 152.386719 306.132812 151.632812 305.210938 C 150.875 304.292969 150.265625 303.28125 149.808594 302.179688 C 149.351562 301.078125 149.066406 299.9375 148.949219 298.75 C 148.832031 297.5625 148.890625 296.386719 149.125 295.21875 C 149.359375 294.046875 149.757812 292.9375 150.320312 291.886719 C 150.886719 290.839844 151.589844 289.894531 152.433594 289.050781 C 152.433594 289.050781 152.441406 289.035156 152.445312 289.035156 L 168.097656 273.394531 C 168.65625 272.839844 169.265625 272.34375 169.925781 271.910156 C 170.582031 271.476562 171.273438 271.109375 172.003906 270.8125 C 172.734375 270.511719 173.484375 270.289062 174.257812 270.136719 C 175.03125 269.984375 175.8125 269.910156 176.601562 269.914062 C 177.390625 269.914062 178.167969 269.992188 178.941406 270.148438 C 179.714844 270.304688 180.464844 270.535156 181.191406 270.835938 C 181.917969 271.136719 182.609375 271.507812 183.265625 271.945312 C 183.921875 272.386719 184.527344 272.882812 185.085938 273.441406 C 185.640625 273.996094 186.140625 274.601562 186.578125 275.257812 C 187.015625 275.914062 187.386719 276.605469 187.691406 277.332031 C 187.992188 278.058594 188.222656 278.808594 188.378906 279.582031 C 188.535156 280.355469 188.613281 281.132812 188.617188 281.921875 C 188.617188 282.710938 188.542969 283.492188 188.394531 284.265625 C 188.242188 285.039062 188.019531 285.789062 187.71875 286.519531 C 187.421875 287.25 187.054688 287.941406 186.621094 288.601562 C 186.1875 289.257812 185.691406 289.867188 185.140625 290.425781 L 169.484375 306.09375 C 168.351562 307.222656 167.046875 308.089844 165.570312 308.699219 C 164.09375 309.304688 162.554688 309.605469 160.957031 309.59375 Z M 123.65625 282.890625 C 123.097656 282.328125 122.597656 281.722656 122.160156 281.0625 C 121.71875 280.40625 121.347656 279.710938 121.046875 278.980469 C 120.742188 278.25 120.515625 277.496094 120.363281 276.71875 C 120.207031 275.941406 120.128906 275.160156 120.128906 274.367188 C 120.128906 273.578125 120.207031 272.792969 120.359375 272.019531 C 120.515625 271.242188 120.742188 270.488281 121.042969 269.757812 C 121.347656 269.027344 121.71875 268.332031 122.15625 267.675781 C 122.59375 267.015625 123.09375 266.40625 123.652344 265.847656 L 144.890625 244.605469 L 144.898438 244.605469 C 145.457031 244.046875 146.0625 243.546875 146.722656 243.109375 C 147.378906 242.667969 148.074219 242.296875 148.804688 241.992188 C 149.535156 241.691406 150.289062 241.460938 151.0625 241.308594 C 151.839844 241.152344 152.625 241.074219 153.414062 241.074219 C 154.207031 241.074219 154.988281 241.152344 155.765625 241.304688 C 156.539062 241.460938 157.292969 241.6875 158.023438 241.992188 C 158.757812 242.292969 159.449219 242.664062 160.109375 243.105469 C 160.765625 243.542969 161.375 244.042969 161.933594 244.601562 C 162.492188 245.160156 162.992188 245.769531 163.433594 246.425781 C 163.871094 247.085938 164.242188 247.777344 164.546875 248.507812 C 164.847656 249.242188 165.078125 249.992188 165.234375 250.769531 C 165.386719 251.546875 165.464844 252.328125 165.464844 253.121094 C 165.464844 253.910156 165.386719 254.695312 165.234375 255.46875 C 165.078125 256.246094 164.851562 257 164.550781 257.730469 C 164.246094 258.460938 163.875 259.15625 163.4375 259.8125 C 162.996094 260.472656 162.496094 261.078125 161.9375 261.640625 L 159.148438 264.433594 L 140.699219 282.886719 C 140.136719 283.445312 139.53125 283.945312 138.871094 284.382812 C 138.214844 284.824219 137.519531 285.195312 136.789062 285.496094 C 136.058594 285.796875 135.304688 286.027344 134.527344 286.179688 C 133.75 286.335938 132.96875 286.410156 132.175781 286.410156 C 131.386719 286.410156 130.601562 286.335938 129.828125 286.179688 C 129.050781 286.027344 128.296875 285.796875 127.566406 285.496094 C 126.835938 285.195312 126.140625 284.824219 125.484375 284.382812 C 124.824219 283.945312 124.214844 283.445312 123.65625 282.886719 Z M 94.871094 259.691406 C 94.3125 259.128906 93.8125 258.523438 93.375 257.863281 C 92.9375 257.207031 92.566406 256.511719 92.261719 255.78125 C 91.960938 255.050781 91.734375 254.296875 91.578125 253.523438 C 91.425781 252.746094 91.347656 251.960938 91.347656 251.171875 C 91.347656 250.382812 91.425781 249.597656 91.578125 248.824219 C 91.734375 248.046875 91.960938 247.292969 92.261719 246.5625 C 92.566406 245.832031 92.9375 245.136719 93.375 244.480469 C 93.8125 243.820312 94.3125 243.214844 94.871094 242.652344 L 103.160156 234.351562 C 103.191406 234.332031 103.222656 234.300781 103.25 234.28125 C 103.265625 234.265625 103.273438 234.242188 103.289062 234.226562 L 113.277344 224.238281 C 113.292969 224.222656 113.3125 224.214844 113.324219 224.203125 C 113.355469 224.171875 113.382812 224.136719 113.414062 224.105469 L 121.699219 215.8125 C 122.261719 215.253906 122.871094 214.757812 123.527344 214.316406 C 124.183594 213.878906 124.878906 213.507812 125.609375 213.207031 C 126.339844 212.90625 127.09375 212.675781 127.871094 212.523438 C 128.644531 212.371094 129.429688 212.292969 130.21875 212.292969 C 131.011719 212.292969 131.792969 212.371094 132.570312 212.527344 C 133.34375 212.679688 134.097656 212.910156 134.828125 213.210938 C 135.558594 213.515625 136.25 213.886719 136.910156 214.324219 C 137.566406 214.765625 138.175781 215.265625 138.734375 215.824219 C 139.292969 216.382812 139.792969 216.992188 140.230469 217.648438 C 140.671875 218.304688 141.042969 219 141.34375 219.730469 C 141.648438 220.460938 141.875 221.214844 142.03125 221.988281 C 142.183594 222.765625 142.261719 223.546875 142.261719 224.339844 C 142.261719 225.128906 142.1875 225.914062 142.03125 226.6875 C 141.878906 227.464844 141.652344 228.214844 141.347656 228.949219 C 141.046875 229.679688 140.675781 230.371094 140.238281 231.03125 C 139.800781 231.6875 139.300781 232.296875 138.742188 232.855469 L 111.914062 259.6875 C 111.355469 260.246094 110.746094 260.746094 110.085938 261.183594 C 109.429688 261.625 108.734375 261.996094 108.003906 262.296875 C 107.273438 262.597656 106.519531 262.828125 105.742188 262.980469 C 104.96875 263.136719 104.183594 263.214844 103.394531 263.214844 C 102.601562 263.214844 101.816406 263.136719 101.042969 262.980469 C 100.265625 262.828125 99.511719 262.597656 98.78125 262.296875 C 98.050781 261.996094 97.355469 261.625 96.699219 261.183594 C 96.039062 260.746094 95.429688 260.246094 94.871094 259.6875 Z M 77.257812 208.285156 L 87.335938 198.210938 C 87.894531 197.648438 88.5 197.148438 89.15625 196.707031 C 89.8125 196.265625 90.507812 195.894531 91.238281 195.589844 C 91.96875 195.285156 92.71875 195.054688 93.496094 194.894531 C 94.269531 194.738281 95.054688 194.660156 95.84375 194.660156 C 96.636719 194.65625 97.417969 194.730469 98.195312 194.882812 C 98.972656 195.035156 99.726562 195.261719 100.457031 195.5625 C 101.191406 195.863281 101.886719 196.234375 102.542969 196.671875 C 103.203125 197.109375 103.8125 197.605469 104.375 198.164062 C 104.933594 198.722656 105.433594 199.328125 105.875 199.984375 C 106.316406 200.644531 106.691406 201.335938 106.996094 202.066406 C 107.300781 202.796875 107.53125 203.546875 107.6875 204.324219 C 107.84375 205.101562 107.921875 205.882812 107.925781 206.675781 C 107.925781 207.464844 107.851562 208.25 107.699219 209.023438 C 107.546875 209.800781 107.320312 210.554688 107.019531 211.285156 C 106.71875 212.019531 106.351562 212.714844 105.914062 213.371094 C 105.476562 214.03125 104.976562 214.640625 104.417969 215.203125 L 94.25 225.375 C 93.6875 225.933594 93.078125 226.429688 92.417969 226.867188 C 91.761719 227.308594 91.066406 227.675781 90.332031 227.976562 C 89.601562 228.277344 88.847656 228.503906 88.070312 228.65625 C 87.292969 228.808594 86.511719 228.882812 85.71875 228.878906 C 84.925781 228.878906 84.144531 228.796875 83.367188 228.640625 C 82.59375 228.484375 81.839844 228.253906 81.109375 227.949219 C 80.378906 227.644531 79.6875 227.269531 79.03125 226.828125 C 78.375 226.386719 77.765625 225.886719 77.207031 225.324219 C 76.652344 224.765625 76.152344 224.15625 75.714844 223.496094 C 75.277344 222.835938 74.90625 222.140625 74.609375 221.410156 C 74.308594 220.675781 74.082031 219.921875 73.929688 219.144531 C 73.777344 218.371094 73.703125 217.585938 73.703125 216.792969 C 73.707031 216.003906 73.785156 215.21875 73.941406 214.445312 C 74.097656 213.667969 74.328125 212.914062 74.632812 212.1875 C 74.9375 211.457031 75.3125 210.761719 75.753906 210.105469 C 76.195312 209.449219 76.695312 208.839844 77.257812 208.285156 Z M 0 156.609375 L 52.660156 65.40625 L 103.824219 94.941406 L 51.164062 186.152344 Z M 0 156.609375 " clip-rule="evenodd"/></clipPath><linearGradient x1="256" gradientTransform="matrix(0.732422, 0, 0, 0.732422, 0.0000045, 0)" y1="422.713583" x2="256.00101" gradientUnits="userSpaceOnUse" y2="89.299231" id="90925e38a9"><stop stop-opacity="1" stop-color="rgb(0%, 47.799683%, 71.398926%)" offset="0"/><stop stop-opacity="1" stop-color="rgb(0%, 47.903442%, 71.554565%)" offset="0.00000465206"/><stop stop-opacity="1" stop-color="rgb(0%, 48.007202%, 71.710205%)" offset="0.015625"/><stop stop-opacity="1" stop-color="rgb(0%, 48.112488%, 71.865845%)" offset="0.03125"/><stop stop-opacity="1" stop-color="rgb(0%, 48.321533%, 72.17865%)" offset="0.046875"/><stop stop-opacity="1" stop-color="rgb(0%, 48.530579%, 72.491455%)" offset="0.0625"/><stop stop-opacity="1" stop-color="rgb(0%, 48.739624%, 72.80426%)" offset="0.078125"/><stop stop-opacity="1" stop-color="rgb(0%, 48.950195%, 73.117065%)" offset="0.09375"/><stop stop-opacity="1" stop-color="rgb(0%, 49.159241%, 73.428345%)" offset="0.109375"/><stop stop-opacity="1" stop-color="rgb(0%, 49.368286%, 73.74115%)" offset="0.125"/><stop stop-opacity="1" stop-color="rgb(0%, 49.577332%, 74.053955%)" offset="0.140625"/><stop stop-opacity="1" stop-color="rgb(0%, 49.786377%, 74.36676%)" offset="0.15625"/><stop stop-opacity="1" stop-color="rgb(0%, 49.996948%, 74.679565%)" offset="0.171875"/><stop stop-opacity="1" stop-color="rgb(0%, 50.205994%, 74.990845%)" offset="0.1875"/><stop stop-opacity="1" stop-color="rgb(0%, 50.415039%, 75.30365%)" offset="0.203125"/><stop stop-opacity="1" stop-color="rgb(0%, 50.624084%, 75.616455%)" offset="0.21875"/><stop stop-opacity="1" stop-color="rgb(0%, 50.834656%, 75.92926%)" offset="0.234375"/><stop stop-opacity="1" stop-color="rgb(0%, 51.043701%, 76.242065%)" offset="0.25"/><stop stop-opacity="1" stop-color="rgb(0%, 51.252747%, 76.553345%)" offset="0.265625"/><stop stop-opacity="1" stop-color="rgb(0%, 51.461792%, 76.86615%)" offset="0.28125"/><stop stop-opacity="1" stop-color="rgb(0%, 51.670837%, 77.178955%)" offset="0.296875"/><stop stop-opacity="1" stop-color="rgb(0%, 51.881409%, 77.49176%)" offset="0.3125"/><stop stop-opacity="1" stop-color="rgb(0%, 52.090454%, 77.804565%)" offset="0.328125"/><stop stop-opacity="1" stop-color="rgb(0%, 52.2995%, 78.117371%)" offset="0.34375"/><stop stop-opacity="1" stop-color="rgb(0%, 52.508545%, 78.42865%)" offset="0.359375"/><stop stop-opacity="1" stop-color="rgb(0%, 52.719116%, 78.741455%)" offset="0.375"/><stop stop-opacity="1" stop-color="rgb(0%, 52.928162%, 79.05426%)" offset="0.390625"/><stop stop-opacity="1" stop-color="rgb(0%, 53.137207%, 79.367065%)" offset="0.40625"/><stop stop-opacity="1" stop-color="rgb(0%, 53.346252%, 79.679871%)" offset="0.421875"/><stop stop-opacity="1" stop-color="rgb(0%, 53.555298%, 79.99115%)" offset="0.4375"/><stop stop-opacity="1" stop-color="rgb(0%, 53.765869%, 80.303955%)" offset="0.453125"/><stop stop-opacity="1" stop-color="rgb(0%, 53.974915%, 80.61676%)" offset="0.46875"/><stop stop-opacity="1" stop-color="rgb(0%, 54.18396%, 80.929565%)" offset="0.484375"/><stop stop-opacity="1" stop-color="rgb(0%, 54.393005%, 81.242371%)" offset="0.5"/><stop stop-opacity="1" stop-color="rgb(0%, 54.603577%, 81.55365%)" offset="0.515625"/><stop stop-opacity="1" stop-color="rgb(0%, 54.812622%, 81.866455%)" offset="0.53125"/><stop stop-opacity="1" stop-color="rgb(0%, 55.021667%, 82.17926%)" offset="0.546875"/><stop stop-opacity="1" stop-color="rgb(0%, 55.230713%, 82.492065%)" offset="0.5625"/><stop stop-opacity="1" stop-color="rgb(0%, 55.441284%, 82.804871%)" offset="0.578125"/><stop stop-opacity="1" stop-color="rgb(0%, 55.65033%, 83.117676%)" offset="0.59375"/><stop stop-opacity="1" stop-color="rgb(0%, 55.859375%, 83.428955%)" offset="0.609375"/><stop stop-opacity="1" stop-color="rgb(0%, 56.06842%, 83.74176%)" offset="0.625"/><stop stop-opacity="1" stop-color="rgb(0%, 56.277466%, 84.054565%)" offset="0.640625"/><stop stop-opacity="1" stop-color="rgb(0%, 56.488037%, 84.367371%)" offset="0.65625"/><stop stop-opacity="1" stop-color="rgb(0%, 56.697083%, 84.680176%)" offset="0.671875"/><stop stop-opacity="1" stop-color="rgb(0%, 56.906128%, 84.991455%)" offset="0.6875"/><stop stop-opacity="1" stop-color="rgb(0%, 57.115173%, 85.30426%)" offset="0.703125"/><stop stop-opacity="1" stop-color="rgb(0%, 57.325745%, 85.617065%)" offset="0.71875"/><stop stop-opacity="1" stop-color="rgb(0%, 57.53479%, 85.929871%)" offset="0.734375"/><stop stop-opacity="1" stop-color="rgb(0%, 57.743835%, 86.242676%)" offset="0.75"/><stop stop-opacity="1" stop-color="rgb(0%, 57.952881%, 86.553955%)" offset="0.765625"/><stop stop-opacity="1" stop-color="rgb(0%, 58.161926%, 86.86676%)" offset="0.78125"/><stop stop-opacity="1" stop-color="rgb(0%, 58.372498%, 87.179565%)" offset="0.796875"/><stop stop-opacity="1" stop-color="rgb(0%, 58.581543%, 87.492371%)" offset="0.8125"/><stop stop-opacity="1" stop-color="rgb(0%, 58.790588%, 87.805176%)" offset="0.828125"/><stop stop-opacity="1" stop-color="rgb(0%, 58.999634%, 88.116455%)" offset="0.84375"/><stop stop-opacity="1" stop-color="rgb(0%, 59.210205%, 88.42926%)" offset="0.859375"/><stop stop-opacity="1" stop-color="rgb(0%, 59.41925%, 88.742065%)" offset="0.875"/><stop stop-opacity="1" stop-color="rgb(0%, 59.628296%, 89.054871%)" offset="0.890625"/><stop stop-opacity="1" stop-color="rgb(0%, 59.837341%, 89.367676%)" offset="0.90625"/><stop stop-opacity="1" stop-color="rgb(0%, 60.046387%, 89.680481%)" offset="0.921875"/><stop stop-opacity="1" stop-color="rgb(0%, 60.256958%, 89.99176%)" offset="0.9375"/><stop stop-opacity="1" stop-color="rgb(0%, 60.466003%, 90.304565%)" offset="0.953125"/><stop stop-opacity="1" stop-color="rgb(0%, 60.675049%, 90.617371%)" offset="0.96875"/><stop stop-opacity="1" stop-color="rgb(0%, 60.884094%, 90.930176%)" offset="0.984375"/><stop stop-opacity="1" stop-color="rgb(0%, 61.094666%, 91.242981%)" offset="0.999995"/><stop stop-opacity="1" stop-color="rgb(0%, 61.199951%, 91.398621%)" offset="1"/></linearGradient></defs><g clip-path="url(#bc35f6e67b)"><g clip-path="url(#903f2c5b00)"><path fill="url(#90925e38a9)" d="M 0 65.40625 L 0 309.605469 L 375 309.605469 L 375 65.40625 Z M 0 65.40625 " fill-rule="nonzero"/></g></g></svg>