<svg xmlns="http://www.w3.org/2000/svg" xmlns:xlink="http://www.w3.org/1999/xlink" width="500" zoomAndPan="magnify" viewBox="0 0 375 374.999991" height="500" preserveAspectRatio="xMidYMid meet" version="1.0"><defs><clipPath id="ebffab401f"><path d="M 10 0 L 365 0 L 365 375 L 10 375 Z M 10 0 " clip-rule="nonzero"/></clipPath><clipPath id="e63ab45bd5"><path d="M 85.375 124.945312 C 85.375 124.175781 85.453125 123.414062 85.601562 122.660156 C 85.753906 121.90625 85.976562 121.171875 86.269531 120.460938 C 86.566406 119.75 86.925781 119.074219 87.351562 118.4375 C 87.78125 117.796875 88.265625 117.203125 88.8125 116.660156 C 89.355469 116.117188 89.945312 115.632812 90.585938 115.203125 C 91.226562 114.777344 91.902344 114.414062 92.609375 114.121094 C 93.320312 113.824219 94.054688 113.601562 94.808594 113.453125 C 95.5625 113.300781 96.324219 113.226562 97.09375 113.226562 L 184.792969 113.226562 C 185.5625 113.226562 186.324219 113.300781 187.082031 113.449219 C 187.835938 113.601562 188.566406 113.824219 189.277344 114.117188 C 189.988281 114.414062 190.664062 114.773438 191.304688 115.199219 C 191.945312 115.628906 192.535156 116.113281 193.082031 116.65625 C 193.625 117.203125 194.109375 117.792969 194.539062 118.433594 C 194.964844 119.074219 195.328125 119.75 195.621094 120.460938 C 195.914062 121.171875 196.136719 121.902344 196.289062 122.660156 C 196.4375 123.414062 196.511719 124.175781 196.511719 124.945312 C 196.511719 125.714844 196.4375 126.476562 196.289062 127.230469 C 196.136719 127.984375 195.914062 128.71875 195.621094 129.429688 C 195.328125 130.140625 194.964844 130.816406 194.539062 131.457031 C 194.109375 132.09375 193.625 132.6875 193.082031 133.230469 C 192.535156 133.773438 191.945312 134.261719 191.304688 134.6875 C 190.664062 135.117188 189.988281 135.476562 189.277344 135.769531 C 188.566406 136.066406 187.835938 136.289062 187.082031 136.4375 C 186.324219 136.589844 185.5625 136.664062 184.792969 136.664062 L 97.097656 136.664062 C 96.328125 136.664062 95.566406 136.589844 94.808594 136.4375 C 94.054688 136.289062 93.324219 136.066406 92.613281 135.769531 C 91.902344 135.476562 91.226562 135.117188 90.585938 134.6875 C 89.945312 134.261719 89.355469 133.773438 88.808594 133.230469 C 88.265625 132.6875 87.78125 132.09375 87.351562 131.457031 C 86.925781 130.816406 86.5625 130.140625 86.269531 129.429688 C 85.976562 128.71875 85.753906 127.984375 85.601562 127.230469 C 85.453125 126.476562 85.378906 125.714844 85.378906 124.945312 Z M 85.375 207.113281 C 85.375 206.34375 85.453125 205.582031 85.601562 204.828125 C 85.753906 204.074219 85.972656 203.339844 86.269531 202.628906 C 86.5625 201.917969 86.925781 201.242188 87.351562 200.605469 C 87.78125 199.964844 88.265625 199.371094 88.808594 198.828125 C 89.355469 198.285156 89.945312 197.796875 90.585938 197.371094 C 91.226562 196.941406 91.898438 196.582031 92.609375 196.289062 C 93.320312 195.992188 94.054688 195.769531 94.808594 195.621094 C 95.5625 195.46875 96.324219 195.394531 97.09375 195.394531 L 253.34375 195.394531 C 254.113281 195.394531 254.875 195.46875 255.632812 195.621094 C 256.386719 195.769531 257.117188 195.992188 257.828125 196.285156 C 258.539062 196.582031 259.214844 196.941406 259.855469 197.367188 C 260.496094 197.796875 261.085938 198.28125 261.632812 198.828125 C 262.175781 199.371094 262.660156 199.960938 263.089844 200.601562 C 263.515625 201.242188 263.878906 201.917969 264.171875 202.628906 C 264.464844 203.339844 264.6875 204.070312 264.839844 204.828125 C 264.988281 205.582031 265.0625 206.34375 265.0625 207.113281 C 265.0625 207.882812 264.988281 208.644531 264.839844 209.398438 C 264.6875 210.152344 264.464844 210.886719 264.171875 211.597656 C 263.878906 212.308594 263.515625 212.984375 263.089844 213.625 C 262.660156 214.261719 262.175781 214.855469 261.632812 215.398438 C 261.085938 215.941406 260.496094 216.429688 259.855469 216.855469 C 259.214844 217.285156 258.539062 217.644531 257.828125 217.941406 C 257.117188 218.234375 256.386719 218.457031 255.632812 218.605469 C 254.875 218.757812 254.113281 218.832031 253.34375 218.832031 L 97.097656 218.832031 C 96.328125 218.832031 95.566406 218.753906 94.8125 218.605469 C 94.054688 218.453125 93.324219 218.234375 92.613281 217.9375 C 91.902344 217.644531 91.226562 217.28125 90.585938 216.855469 C 89.949219 216.425781 89.355469 215.941406 88.8125 215.398438 C 88.269531 214.851562 87.78125 214.261719 87.355469 213.621094 C 86.925781 212.980469 86.566406 212.308594 86.269531 211.597656 C 85.976562 210.886719 85.753906 210.152344 85.605469 209.398438 C 85.453125 208.644531 85.378906 207.882812 85.378906 207.113281 Z M 85.375 166.027344 C 85.375 165.257812 85.449219 164.496094 85.601562 163.742188 C 85.75 162.988281 85.972656 162.253906 86.269531 161.546875 C 86.5625 160.835938 86.925781 160.160156 87.351562 159.519531 C 87.78125 158.878906 88.265625 158.289062 88.808594 157.746094 C 89.351562 157.199219 89.945312 156.714844 90.585938 156.289062 C 91.226562 155.859375 91.898438 155.5 92.609375 155.207031 C 93.320312 154.910156 94.054688 154.6875 94.808594 154.539062 C 95.5625 154.390625 96.324219 154.3125 97.09375 154.3125 L 228.175781 154.3125 C 228.945312 154.3125 229.707031 154.390625 230.460938 154.539062 C 231.214844 154.6875 231.949219 154.910156 232.660156 155.207031 C 233.371094 155.5 234.046875 155.863281 234.6875 156.289062 C 235.324219 156.714844 235.917969 157.203125 236.460938 157.746094 C 237.007812 158.289062 237.492188 158.882812 237.917969 159.523438 C 238.347656 160.160156 238.707031 160.835938 239.003906 161.546875 C 239.296875 162.257812 239.519531 162.992188 239.667969 163.746094 C 239.820312 164.5 239.894531 165.261719 239.894531 166.03125 C 239.894531 166.800781 239.820312 167.5625 239.667969 168.320312 C 239.519531 169.074219 239.296875 169.804688 239.003906 170.515625 C 238.707031 171.226562 238.347656 171.902344 237.917969 172.542969 C 237.492188 173.183594 237.007812 173.773438 236.460938 174.320312 C 235.917969 174.863281 235.324219 175.347656 234.6875 175.777344 C 234.046875 176.203125 233.371094 176.566406 232.660156 176.859375 C 231.949219 177.152344 231.214844 177.375 230.460938 177.527344 C 229.707031 177.675781 228.945312 177.75 228.175781 177.75 L 97.097656 177.75 C 96.328125 177.75 95.566406 177.675781 94.8125 177.523438 C 94.054688 177.375 93.324219 177.152344 92.613281 176.859375 C 91.902344 176.5625 91.226562 176.203125 90.585938 175.773438 C 89.949219 175.347656 89.355469 174.863281 88.8125 174.316406 C 88.269531 173.773438 87.78125 173.179688 87.355469 172.542969 C 86.925781 171.902344 86.566406 171.226562 86.269531 170.515625 C 85.976562 169.804688 85.753906 169.074219 85.605469 168.320312 C 85.453125 167.5625 85.378906 166.800781 85.378906 166.03125 Z M 51.648438 233.488281 C 52.390625 234.820312 52.851562 236.242188 53.039062 237.753906 C 53.226562 239.265625 53.121094 240.753906 52.726562 242.226562 L 36.238281 303.765625 L 97.785156 287.277344 C 98.78125 287.011719 99.789062 286.878906 100.816406 286.875 C 102.84375 286.875 104.742188 287.367188 106.515625 288.359375 C 109.847656 290.199219 113.25 291.90625 116.71875 293.472656 C 120.1875 295.039062 123.714844 296.464844 127.300781 297.746094 C 130.886719 299.03125 134.515625 300.167969 138.191406 301.160156 C 141.871094 302.148438 145.578125 302.992188 149.324219 303.683594 C 153.066406 304.375 156.835938 304.914062 160.621094 305.304688 C 164.410156 305.691406 168.207031 305.929688 172.011719 306.011719 C 175.820312 306.09375 179.625 306.023438 183.425781 305.800781 C 187.226562 305.578125 191.011719 305.199219 194.78125 304.671875 C 198.554688 304.144531 202.296875 303.464844 206.011719 302.636719 C 209.730469 301.804688 213.40625 300.828125 217.042969 299.703125 C 220.679688 298.578125 224.265625 297.304688 227.800781 295.890625 C 231.335938 294.476562 234.808594 292.921875 238.21875 291.226562 C 241.628906 289.535156 244.964844 287.707031 248.226562 285.742188 C 251.492188 283.78125 254.667969 281.6875 257.765625 279.46875 C 260.859375 277.25 263.859375 274.910156 266.765625 272.449219 C 269.671875 269.992188 272.472656 267.417969 275.171875 264.730469 C 330.277344 209.625 330.277344 119.949219 275.171875 64.832031 C 220.054688 9.722656 130.382812 9.722656 75.269531 64.832031 C 30.824219 109.285156 21.109375 178.636719 51.648438 233.488281 Z M 364.101562 197.753906 C 363.515625 189.847656 362.363281 182.027344 360.644531 174.292969 C 358.925781 166.554688 356.65625 158.980469 353.835938 151.574219 C 351.015625 144.167969 347.679688 137 343.820312 130.078125 C 339.960938 123.15625 335.621094 116.546875 330.800781 110.253906 C 329.652344 106.984375 328.402344 103.75 327.050781 100.558594 C 325.699219 97.367188 324.246094 94.21875 322.695312 91.117188 C 321.144531 88.015625 319.5 84.96875 317.753906 81.96875 C 316.011719 78.972656 314.175781 76.03125 312.246094 73.152344 C 310.316406 70.269531 308.300781 67.453125 306.195312 64.699219 C 304.085938 61.945312 301.894531 59.257812 299.621094 56.644531 C 297.34375 54.027344 294.988281 51.484375 292.550781 49.019531 C 290.113281 46.550781 287.601562 44.164062 285.015625 41.855469 C 282.429688 39.546875 279.773438 37.320312 277.042969 35.179688 C 274.316406 33.039062 271.523438 30.984375 268.667969 29.019531 C 265.8125 27.054688 262.894531 25.183594 259.921875 23.402344 C 256.945312 21.621094 253.917969 19.9375 250.835938 18.347656 C 247.753906 16.757812 244.625 15.265625 241.449219 13.875 C 238.273438 12.480469 235.058594 11.191406 231.800781 10 C 228.542969 8.8125 225.253906 7.726562 221.925781 6.746094 C 218.601562 5.761719 215.25 4.886719 211.867188 4.117188 C 208.488281 3.347656 205.085938 2.683594 201.664062 2.128906 C 198.238281 1.574219 194.804688 1.125 191.351562 0.785156 C 187.902344 0.449219 184.445312 0.21875 180.976562 0.0976562 C 177.511719 -0.0234375 174.046875 -0.0351562 170.582031 0.0625 C 167.117188 0.164062 163.65625 0.371094 160.203125 0.6875 C 156.75 1.003906 153.3125 1.429688 149.882812 1.960938 C 146.457031 2.496094 143.050781 3.136719 139.667969 3.882812 C 136.28125 4.632812 132.921875 5.488281 129.589844 6.449219 C 126.257812 7.40625 122.960938 8.472656 119.695312 9.640625 C 116.433594 10.808594 113.207031 12.078125 110.023438 13.449219 C 106.839844 14.824219 103.699219 16.292969 100.609375 17.863281 C 97.515625 19.433594 94.476562 21.097656 91.492188 22.859375 C 88.503906 24.621094 85.578125 26.476562 82.707031 28.421875 C 79.839844 30.371094 77.03125 32.40625 74.292969 34.527344 C 71.550781 36.652344 68.878906 38.859375 66.277344 41.152344 C 63.675781 43.445312 61.148438 45.816406 58.695312 48.265625 C 55.511719 51.429688 52.464844 54.71875 49.550781 58.132812 C 46.640625 61.546875 43.871094 65.078125 41.25 68.71875 C 38.628906 72.363281 36.164062 76.109375 33.847656 79.953125 C 31.535156 83.800781 29.386719 87.734375 27.398438 91.757812 C 25.410156 95.78125 23.589844 99.882812 21.941406 104.054688 C 20.289062 108.230469 18.816406 112.464844 17.511719 116.757812 C 16.210938 121.054688 15.089844 125.394531 14.148438 129.785156 C 13.203125 134.171875 12.445312 138.589844 11.863281 143.042969 C 10.773438 151.371094 10.316406 159.734375 10.496094 168.132812 C 10.675781 176.53125 11.484375 184.867188 12.929688 193.140625 C 14.371094 201.414062 16.429688 209.535156 19.105469 217.496094 C 21.78125 225.457031 25.042969 233.171875 28.886719 240.640625 L 11.132812 306.898438 C 11.03125 307.277344 10.941406 307.65625 10.867188 308.042969 C 10.789062 308.425781 10.726562 308.8125 10.675781 309.199219 C 10.625 309.585938 10.585938 309.976562 10.5625 310.367188 C 10.535156 310.757812 10.523438 311.148438 10.523438 311.539062 C 10.523438 311.933594 10.535156 312.324219 10.5625 312.714844 C 10.585938 313.105469 10.625 313.492188 10.675781 313.882812 C 10.726562 314.269531 10.792969 314.65625 10.867188 315.039062 C 10.945312 315.425781 11.035156 315.804688 11.136719 316.183594 C 11.238281 316.5625 11.351562 316.9375 11.476562 317.308594 C 11.601562 317.675781 11.738281 318.042969 11.890625 318.40625 C 12.039062 318.765625 12.203125 319.125 12.375 319.472656 C 12.546875 319.824219 12.730469 320.171875 12.929688 320.507812 C 13.125 320.847656 13.332031 321.179688 13.546875 321.507812 C 13.765625 321.832031 13.992188 322.148438 14.230469 322.460938 C 14.46875 322.769531 14.71875 323.074219 14.976562 323.367188 C 15.234375 323.664062 15.503906 323.949219 15.777344 324.222656 C 16.054688 324.5 16.339844 324.769531 16.636719 325.027344 C 16.929688 325.285156 17.230469 325.535156 17.542969 325.773438 C 17.851562 326.011719 18.171875 326.238281 18.496094 326.457031 C 18.824219 326.671875 19.15625 326.878906 19.492188 327.074219 C 19.832031 327.269531 20.179688 327.457031 20.527344 327.628906 C 20.878906 327.800781 21.238281 327.964844 21.597656 328.113281 C 21.960938 328.261719 22.324219 328.402344 22.695312 328.527344 C 23.066406 328.652344 23.441406 328.765625 23.820312 328.867188 C 24.199219 328.96875 24.578125 329.058594 24.964844 329.136719 C 25.347656 329.210938 25.734375 329.273438 26.121094 329.328125 C 26.507812 329.378906 26.898438 329.414062 27.289062 329.441406 C 27.679688 329.46875 28.070312 329.480469 28.460938 329.480469 C 28.855469 329.480469 29.246094 329.46875 29.636719 329.441406 C 30.027344 329.417969 30.414062 329.378906 30.804688 329.328125 C 31.191406 329.277344 31.578125 329.214844 31.960938 329.136719 C 32.347656 329.058594 32.726562 328.972656 33.105469 328.871094 L 74.875 317.671875 C 77.5625 320.785156 80.351562 323.824219 83.261719 326.730469 C 87.066406 330.542969 91.050781 334.164062 95.210938 337.585938 C 99.371094 341.007812 103.691406 344.214844 108.167969 347.214844 C 112.644531 350.210938 117.257812 352.980469 122.007812 355.523438 C 126.757812 358.066406 131.621094 360.371094 136.59375 362.433594 C 141.570312 364.5 146.636719 366.316406 151.792969 367.878906 C 156.945312 369.445312 162.164062 370.757812 167.449219 371.808594 C 172.734375 372.859375 178.054688 373.652344 183.417969 374.179688 C 188.777344 374.707031 194.152344 374.972656 199.539062 374.972656 C 206.136719 374.972656 212.707031 374.585938 219.253906 373.804688 C 225.804688 373.023438 232.28125 371.859375 238.691406 370.304688 C 245.101562 368.753906 251.394531 366.824219 257.574219 364.523438 C 263.753906 362.21875 269.777344 359.558594 275.640625 356.539062 L 341.894531 374.292969 C 343.414062 374.703125 344.964844 374.910156 346.539062 374.910156 C 348.113281 374.910156 349.664062 374.707031 351.183594 374.300781 C 352.707031 373.894531 354.148438 373.296875 355.511719 372.507812 C 356.875 371.722656 358.117188 370.769531 359.230469 369.65625 C 360.34375 368.542969 361.292969 367.304688 362.082031 365.941406 C 362.867188 364.574219 363.464844 363.132812 363.871094 361.609375 C 364.28125 360.089844 364.484375 358.542969 364.480469 356.964844 C 364.480469 355.390625 364.277344 353.84375 363.867188 352.320312 L 346.113281 286.070312 C 349.625 279.304688 352.648438 272.332031 355.1875 265.148438 C 357.726562 257.960938 359.757812 250.636719 361.277344 243.167969 C 362.796875 235.703125 363.792969 228.164062 364.265625 220.558594 C 364.742188 212.953125 364.683594 205.351562 364.101562 197.753906 Z M 364.101562 197.753906 " clip-rule="evenodd"/></clipPath><linearGradient x1="256.01801" gradientTransform="matrix(0.732422, 0, 0, 0.732422, 0.0000045, 0)" y1="511.965716" x2="256.01901" gradientUnits="userSpaceOnUse" y2="-0.000472632" id="11b7d6e763"><stop stop-opacity="1" stop-color="rgb(0%, 47.799683%, 71.398926%)" offset="0"/><stop stop-opacity="1" stop-color="rgb(0%, 47.903442%, 71.554565%)" offset="0.00000184618"/><stop stop-opacity="1" stop-color="rgb(0%, 48.008728%, 71.711731%)" offset="0.015625"/><stop stop-opacity="1" stop-color="rgb(0%, 48.112488%, 71.867371%)" offset="0.03125"/><stop stop-opacity="1" stop-color="rgb(0%, 48.321533%, 72.180176%)" offset="0.046875"/><stop stop-opacity="1" stop-color="rgb(0%, 48.532104%, 72.492981%)" offset="0.0625"/><stop stop-opacity="1" stop-color="rgb(0%, 48.74115%, 72.80426%)" offset="0.078125"/><stop stop-opacity="1" stop-color="rgb(0%, 48.950195%, 73.117065%)" offset="0.09375"/><stop stop-opacity="1" stop-color="rgb(0%, 49.159241%, 73.429871%)" offset="0.109375"/><stop stop-opacity="1" stop-color="rgb(0%, 49.368286%, 73.742676%)" offset="0.125"/><stop stop-opacity="1" stop-color="rgb(0%, 49.578857%, 74.055481%)" offset="0.140625"/><stop stop-opacity="1" stop-color="rgb(0%, 49.787903%, 74.36676%)" offset="0.15625"/><stop stop-opacity="1" stop-color="rgb(0%, 49.996948%, 74.679565%)" offset="0.171875"/><stop stop-opacity="1" stop-color="rgb(0%, 50.205994%, 74.992371%)" offset="0.1875"/><stop stop-opacity="1" stop-color="rgb(0%, 50.416565%, 75.305176%)" offset="0.203125"/><stop stop-opacity="1" stop-color="rgb(0%, 50.62561%, 75.617981%)" offset="0.21875"/><stop stop-opacity="1" stop-color="rgb(0%, 50.834656%, 75.92926%)" offset="0.234375"/><stop stop-opacity="1" stop-color="rgb(0%, 51.043701%, 76.242065%)" offset="0.25"/><stop stop-opacity="1" stop-color="rgb(0%, 51.252747%, 76.554871%)" offset="0.265625"/><stop stop-opacity="1" stop-color="rgb(0%, 51.463318%, 76.867676%)" offset="0.28125"/><stop stop-opacity="1" stop-color="rgb(0%, 51.672363%, 77.180481%)" offset="0.296875"/><stop stop-opacity="1" stop-color="rgb(0%, 51.881409%, 77.49176%)" offset="0.3125"/><stop stop-opacity="1" stop-color="rgb(0%, 52.090454%, 77.804565%)" offset="0.328125"/><stop stop-opacity="1" stop-color="rgb(0%, 52.2995%, 78.117371%)" offset="0.34375"/><stop stop-opacity="1" stop-color="rgb(0%, 52.510071%, 78.430176%)" offset="0.359375"/><stop stop-opacity="1" stop-color="rgb(0%, 52.719116%, 78.742981%)" offset="0.375"/><stop stop-opacity="1" stop-color="rgb(0%, 52.928162%, 79.05426%)" offset="0.390625"/><stop stop-opacity="1" stop-color="rgb(0%, 53.137207%, 79.367065%)" offset="0.40625"/><stop stop-opacity="1" stop-color="rgb(0%, 53.347778%, 79.679871%)" offset="0.421875"/><stop stop-opacity="1" stop-color="rgb(0%, 53.556824%, 79.992676%)" offset="0.4375"/><stop stop-opacity="1" stop-color="rgb(0%, 53.765869%, 80.305481%)" offset="0.453125"/><stop stop-opacity="1" stop-color="rgb(0%, 53.974915%, 80.61676%)" offset="0.46875"/><stop stop-opacity="1" stop-color="rgb(0%, 54.18396%, 80.929565%)" offset="0.484375"/><stop stop-opacity="1" stop-color="rgb(0%, 54.394531%, 81.242371%)" offset="0.5"/><stop stop-opacity="1" stop-color="rgb(0%, 54.603577%, 81.555176%)" offset="0.515625"/><stop stop-opacity="1" stop-color="rgb(0%, 54.812622%, 81.867981%)" offset="0.53125"/><stop stop-opacity="1" stop-color="rgb(0%, 55.021667%, 82.17926%)" offset="0.546875"/><stop stop-opacity="1" stop-color="rgb(0%, 55.230713%, 82.492065%)" offset="0.5625"/><stop stop-opacity="1" stop-color="rgb(0%, 55.441284%, 82.804871%)" offset="0.578125"/><stop stop-opacity="1" stop-color="rgb(0%, 55.65033%, 83.117676%)" offset="0.59375"/><stop stop-opacity="1" stop-color="rgb(0%, 55.859375%, 83.430481%)" offset="0.609375"/><stop stop-opacity="1" stop-color="rgb(0%, 56.06842%, 83.74176%)" offset="0.625"/><stop stop-opacity="1" stop-color="rgb(0%, 56.278992%, 84.054565%)" offset="0.640625"/><stop stop-opacity="1" stop-color="rgb(0%, 56.488037%, 84.367371%)" offset="0.65625"/><stop stop-opacity="1" stop-color="rgb(0%, 56.697083%, 84.680176%)" offset="0.671875"/><stop stop-opacity="1" stop-color="rgb(0%, 56.906128%, 84.992981%)" offset="0.6875"/><stop stop-opacity="1" stop-color="rgb(0%, 57.115173%, 85.30426%)" offset="0.703125"/><stop stop-opacity="1" stop-color="rgb(0%, 57.325745%, 85.617065%)" offset="0.71875"/><stop stop-opacity="1" stop-color="rgb(0%, 57.53479%, 85.929871%)" offset="0.734375"/><stop stop-opacity="1" stop-color="rgb(0%, 57.743835%, 86.242676%)" offset="0.75"/><stop stop-opacity="1" stop-color="rgb(0%, 57.952881%, 86.555481%)" offset="0.765625"/><stop stop-opacity="1" stop-color="rgb(0%, 58.161926%, 86.86676%)" offset="0.78125"/><stop stop-opacity="1" stop-color="rgb(0%, 58.372498%, 87.179565%)" offset="0.796875"/><stop stop-opacity="1" stop-color="rgb(0%, 58.581543%, 87.492371%)" offset="0.8125"/><stop stop-opacity="1" stop-color="rgb(0%, 58.790588%, 87.805176%)" offset="0.828125"/><stop stop-opacity="1" stop-color="rgb(0%, 58.999634%, 88.117981%)" offset="0.84375"/><stop stop-opacity="1" stop-color="rgb(0%, 59.210205%, 88.42926%)" offset="0.859375"/><stop stop-opacity="1" stop-color="rgb(0%, 59.41925%, 88.742065%)" offset="0.875"/><stop stop-opacity="1" stop-color="rgb(0%, 59.628296%, 89.054871%)" offset="0.890625"/><stop stop-opacity="1" stop-color="rgb(0%, 59.837341%, 89.367676%)" offset="0.90625"/><stop stop-opacity="1" stop-color="rgb(0%, 60.046387%, 89.680481%)" offset="0.921875"/><stop stop-opacity="1" stop-color="rgb(0%, 60.256958%, 89.99176%)" offset="0.9375"/><stop stop-opacity="1" stop-color="rgb(0%, 60.466003%, 90.304565%)" offset="0.953125"/><stop stop-opacity="1" stop-color="rgb(0%, 60.675049%, 90.617371%)" offset="0.96875"/><stop stop-opacity="1" stop-color="rgb(0%, 60.884094%, 90.930176%)" offset="0.984375"/><stop stop-opacity="1" stop-color="rgb(0%, 61.09314%, 91.242981%)" offset="0.999998"/><stop stop-opacity="1" stop-color="rgb(0%, 61.198425%, 91.398621%)" offset="1"/></linearGradient></defs><g clip-path="url(#ebffab401f)"><g clip-path="url(#e63ab45bd5)"><path fill="url(#11b7d6e763)" d="M 10.316406 0 L 10.316406 374.972656 L 364.742188 374.972656 L 364.742188 0 Z M 10.316406 0 " fill-rule="nonzero"/></g></g></svg>