<svg xmlns="http://www.w3.org/2000/svg" xmlns:xlink="http://www.w3.org/1999/xlink" width="500" zoomAndPan="magnify" viewBox="0 0 375 374.999991" height="500" preserveAspectRatio="xMidYMid meet" version="1.0"><defs><clipPath id="a7e2191823"><path d="M 5 0 L 370 0 L 370 375 L 5 375 Z M 5 0 " clip-rule="nonzero"/></clipPath><clipPath id="c9de9489a3"><path d="M 248.363281 43.769531 L 209.210938 39.265625 L 192.832031 3.421875 C 192.597656 2.910156 192.296875 2.441406 191.929688 2.019531 C 191.558594 1.59375 191.140625 1.230469 190.667969 0.929688 C 190.195312 0.625 189.6875 0.394531 189.148438 0.238281 C 188.613281 0.078125 188.0625 0 187.5 0 C 186.9375 0 186.386719 0.078125 185.851562 0.238281 C 185.3125 0.394531 184.804688 0.625 184.332031 0.929688 C 183.859375 1.230469 183.441406 1.59375 183.070312 2.019531 C 182.703125 2.441406 182.402344 2.910156 182.167969 3.421875 L 165.789062 39.265625 L 126.636719 43.769531 C 126.078125 43.835938 125.542969 43.976562 125.023438 44.195312 C 124.507812 44.414062 124.03125 44.703125 123.597656 45.058594 C 123.164062 45.414062 122.789062 45.824219 122.472656 46.285156 C 122.15625 46.75 121.910156 47.25 121.738281 47.78125 C 121.5625 48.316406 121.46875 48.863281 121.453125 49.421875 C 121.4375 49.984375 121.5 50.535156 121.640625 51.078125 C 121.785156 51.621094 122 52.132812 122.289062 52.613281 C 122.578125 53.097656 122.925781 53.527344 123.339844 53.90625 L 152.375 80.566406 L 144.558594 119.195312 C 144.445312 119.746094 144.414062 120.300781 144.460938 120.859375 C 144.507812 121.421875 144.632812 121.960938 144.835938 122.488281 C 145.039062 123.011719 145.3125 123.496094 145.65625 123.941406 C 146 124.386719 146.398438 124.773438 146.851562 125.101562 C 147.308594 125.433594 147.796875 125.691406 148.328125 125.882812 C 148.855469 126.070312 149.402344 126.179688 149.960938 126.210938 C 150.523438 126.242188 151.078125 126.195312 151.625 126.066406 C 152.171875 125.941406 152.691406 125.738281 153.179688 125.460938 L 187.5 106.09375 L 221.820312 125.457031 C 222.714844 125.964844 223.671875 126.21875 224.699219 126.21875 C 225.132812 126.21875 225.5625 126.171875 225.984375 126.078125 C 226.410156 125.980469 226.820312 125.84375 227.210938 125.65625 C 227.605469 125.46875 227.972656 125.242188 228.3125 124.976562 C 228.65625 124.707031 228.964844 124.40625 229.238281 124.070312 C 229.515625 123.734375 229.75 123.371094 229.941406 122.984375 C 230.136719 122.59375 230.285156 122.191406 230.390625 121.769531 C 230.492188 121.347656 230.550781 120.917969 230.558594 120.484375 C 230.566406 120.050781 230.527344 119.621094 230.441406 119.195312 L 222.625 80.566406 L 251.660156 53.90625 C 252.074219 53.527344 252.421875 53.09375 252.710938 52.613281 C 253 52.132812 253.214844 51.621094 253.359375 51.078125 C 253.5 50.535156 253.5625 49.984375 253.546875 49.421875 C 253.53125 48.863281 253.4375 48.316406 253.261719 47.78125 C 253.089844 47.246094 252.84375 46.75 252.527344 46.285156 C 252.210938 45.824219 251.835938 45.414062 251.402344 45.058594 C 250.96875 44.703125 250.492188 44.414062 249.976562 44.195312 C 249.457031 43.976562 248.921875 43.835938 248.363281 43.769531 Z M 88.148438 292.96875 L 88.148438 353.320312 C 88.148438 354.03125 88.183594 354.738281 88.253906 355.445312 C 88.324219 356.152344 88.429688 356.851562 88.566406 357.546875 C 88.707031 358.242188 88.878906 358.933594 89.085938 359.609375 C 89.292969 360.289062 89.53125 360.957031 89.804688 361.613281 C 90.074219 362.269531 90.378906 362.910156 90.714844 363.535156 C 91.050781 364.160156 91.414062 364.769531 91.808594 365.359375 C 92.203125 365.949219 92.625 366.519531 93.074219 367.066406 C 93.527344 367.617188 94.003906 368.140625 94.503906 368.644531 C 95.007812 369.144531 95.53125 369.621094 96.078125 370.070312 C 96.628906 370.523438 97.199219 370.945312 97.789062 371.339844 C 98.378906 371.734375 98.984375 372.097656 99.613281 372.433594 C 100.238281 372.765625 100.878906 373.070312 101.535156 373.34375 C 102.191406 373.613281 102.855469 373.855469 103.535156 374.0625 C 104.214844 374.265625 104.902344 374.441406 105.597656 374.578125 C 106.296875 374.71875 106.996094 374.824219 107.703125 374.894531 C 108.410156 374.964844 109.117188 375 109.828125 375 L 130.125 375 L 130.125 310.855469 C 130.113281 310.464844 130.144531 310.078125 130.210938 309.691406 C 130.277344 309.308594 130.382812 308.933594 130.527344 308.570312 C 130.671875 308.207031 130.847656 307.859375 131.058594 307.53125 C 131.273438 307.203125 131.515625 306.898438 131.789062 306.617188 C 132.058594 306.339844 132.359375 306.089844 132.679688 305.867188 C 133.003906 305.648438 133.34375 305.460938 133.707031 305.308594 C 134.066406 305.160156 134.4375 305.042969 134.820312 304.964844 C 135.203125 304.890625 135.589844 304.851562 135.980469 304.851562 C 136.371094 304.851562 136.757812 304.890625 137.144531 304.964844 C 137.527344 305.042969 137.898438 305.160156 138.257812 305.308594 C 138.617188 305.460938 138.960938 305.648438 139.28125 305.867188 C 139.605469 306.089844 139.902344 306.339844 140.175781 306.617188 C 140.449219 306.898438 140.691406 307.203125 140.902344 307.53125 C 141.117188 307.859375 141.292969 308.207031 141.4375 308.570312 C 141.578125 308.933594 141.683594 309.308594 141.753906 309.691406 C 141.820312 310.078125 141.847656 310.464844 141.839844 310.855469 L 141.839844 375 L 233.160156 375 L 233.160156 310.855469 C 233.160156 310.472656 233.199219 310.089844 233.273438 309.710938 C 233.347656 309.335938 233.457031 308.96875 233.605469 308.613281 C 233.753906 308.257812 233.933594 307.921875 234.148438 307.601562 C 234.359375 307.28125 234.605469 306.984375 234.875 306.710938 C 235.148438 306.441406 235.445312 306.199219 235.765625 305.984375 C 236.082031 305.769531 236.421875 305.589844 236.777344 305.441406 C 237.132812 305.296875 237.5 305.183594 237.875 305.109375 C 238.253906 305.035156 238.632812 304.996094 239.019531 304.996094 C 239.402344 304.996094 239.785156 305.035156 240.164062 305.109375 C 240.539062 305.183594 240.90625 305.296875 241.261719 305.441406 C 241.617188 305.589844 241.953125 305.769531 242.273438 305.984375 C 242.59375 306.199219 242.890625 306.441406 243.164062 306.710938 C 243.433594 306.984375 243.675781 307.28125 243.890625 307.601562 C 244.105469 307.921875 244.285156 308.257812 244.433594 308.613281 C 244.578125 308.96875 244.691406 309.335938 244.765625 309.710938 C 244.839844 310.089844 244.878906 310.472656 244.878906 310.855469 L 244.878906 375 L 265.171875 375 C 265.882812 375 266.589844 374.964844 267.296875 374.894531 C 268.003906 374.824219 268.703125 374.71875 269.402344 374.578125 C 270.097656 374.441406 270.785156 374.265625 271.464844 374.0625 C 272.144531 373.855469 272.808594 373.613281 273.464844 373.34375 C 274.121094 373.070312 274.761719 372.765625 275.386719 372.433594 C 276.015625 372.097656 276.621094 371.734375 277.210938 371.339844 C 277.800781 370.945312 278.371094 370.523438 278.921875 370.070312 C 279.46875 369.621094 279.992188 369.144531 280.496094 368.644531 C 280.996094 368.140625 281.472656 367.617188 281.925781 367.066406 C 282.375 366.519531 282.796875 365.949219 283.191406 365.359375 C 283.585938 364.769531 283.949219 364.160156 284.285156 363.535156 C 284.621094 362.910156 284.925781 362.269531 285.195312 361.613281 C 285.46875 360.957031 285.707031 360.289062 285.914062 359.609375 C 286.121094 358.933594 286.292969 358.242188 286.433594 357.546875 C 286.570312 356.851562 286.675781 356.152344 286.746094 355.445312 C 286.816406 354.738281 286.851562 354.03125 286.851562 353.320312 L 286.851562 292.96875 C 286.851562 291.261719 286.765625 289.5625 286.597656 287.863281 C 286.429688 286.167969 286.175781 284.480469 285.84375 282.808594 C 285.507812 281.136719 285.09375 279.484375 284.597656 277.851562 C 284.101562 276.21875 283.523438 274.617188 282.871094 273.039062 C 282.21875 271.464844 281.488281 269.925781 280.683594 268.421875 C 279.878906 266.917969 279.003906 265.457031 278.054688 264.039062 C 277.105469 262.621094 276.09375 261.253906 275.007812 259.933594 C 273.925781 258.617188 272.785156 257.351562 271.578125 256.148438 C 270.371094 254.941406 269.109375 253.796875 267.789062 252.714844 C 266.472656 251.632812 265.105469 250.617188 263.6875 249.667969 C 262.269531 248.71875 260.808594 247.84375 259.304688 247.039062 C 257.800781 246.234375 256.257812 245.503906 254.683594 244.851562 C 253.109375 244.199219 251.503906 243.621094 249.871094 243.125 C 248.242188 242.628906 246.589844 242.214844 244.917969 241.878906 C 243.242188 241.546875 241.558594 241.292969 239.859375 241.125 C 238.164062 240.957031 236.460938 240.871094 234.757812 240.867188 L 140.242188 240.867188 C 138.539062 240.871094 136.835938 240.957031 135.140625 241.125 C 133.441406 241.292969 131.757812 241.546875 130.082031 241.878906 C 128.410156 242.214844 126.757812 242.628906 125.128906 243.125 C 123.496094 243.621094 121.890625 244.199219 120.316406 244.851562 C 118.742188 245.503906 117.199219 246.234375 115.695312 247.039062 C 114.191406 247.84375 112.730469 248.71875 111.3125 249.667969 C 109.894531 250.617188 108.527344 251.632812 107.210938 252.714844 C 105.890625 253.796875 104.628906 254.941406 103.421875 256.148438 C 102.214844 257.351562 101.074219 258.617188 99.992188 259.933594 C 98.90625 261.253906 97.894531 262.621094 96.945312 264.039062 C 95.996094 265.457031 95.121094 266.917969 94.316406 268.421875 C 93.511719 269.925781 92.78125 271.464844 92.128906 273.039062 C 91.476562 274.617188 90.898438 276.21875 90.402344 277.851562 C 89.90625 279.484375 89.492188 281.136719 89.15625 282.808594 C 88.824219 284.480469 88.570312 286.167969 88.402344 287.863281 C 88.234375 289.5625 88.148438 291.261719 88.148438 292.96875 Z M 187.5 232.910156 C 189.136719 232.910156 190.769531 232.828125 192.398438 232.667969 C 194.027344 232.507812 195.644531 232.269531 197.25 231.949219 C 198.855469 231.628906 200.441406 231.230469 202.007812 230.757812 C 203.574219 230.28125 205.113281 229.730469 206.625 229.105469 C 208.140625 228.476562 209.617188 227.777344 211.0625 227.007812 C 212.503906 226.234375 213.90625 225.394531 215.269531 224.484375 C 216.628906 223.574219 217.941406 222.601562 219.207031 221.5625 C 220.472656 220.523438 221.683594 219.425781 222.839844 218.269531 C 224 217.109375 225.097656 215.898438 226.136719 214.632812 C 227.171875 213.367188 228.148438 212.054688 229.058594 210.691406 C 229.964844 209.332031 230.808594 207.929688 231.578125 206.484375 C 232.351562 205.042969 233.050781 203.5625 233.675781 202.050781 C 234.300781 200.539062 234.851562 199 235.328125 197.433594 C 235.800781 195.867188 236.199219 194.28125 236.519531 192.675781 C 236.839844 191.070312 237.078125 189.453125 237.238281 187.824219 C 237.398438 186.195312 237.480469 184.5625 237.480469 182.925781 C 237.480469 181.289062 237.398438 179.65625 237.238281 178.023438 C 237.078125 176.394531 236.835938 174.777344 236.519531 173.171875 C 236.199219 171.566406 235.800781 169.980469 235.328125 168.414062 C 234.851562 166.847656 234.300781 165.308594 233.675781 163.796875 C 233.046875 162.285156 232.347656 160.808594 231.578125 159.363281 C 230.804688 157.917969 229.964844 156.515625 229.054688 155.15625 C 228.144531 153.792969 227.171875 152.480469 226.132812 151.214844 C 225.09375 149.949219 223.996094 148.738281 222.839844 147.582031 C 221.679688 146.425781 220.46875 145.328125 219.203125 144.289062 C 217.9375 143.25 216.625 142.277344 215.265625 141.367188 C 213.902344 140.457031 212.5 139.617188 211.058594 138.84375 C 209.613281 138.074219 208.136719 137.375 206.625 136.746094 C 205.113281 136.121094 203.570312 135.570312 202.003906 135.09375 C 200.4375 134.621094 198.851562 134.222656 197.246094 133.902344 C 195.640625 133.582031 194.023438 133.34375 192.394531 133.183594 C 190.765625 133.023438 189.132812 132.941406 187.496094 132.941406 C 185.859375 132.941406 184.226562 133.023438 182.597656 133.183594 C 180.96875 133.34375 179.351562 133.582031 177.746094 133.902344 C 176.140625 134.222656 174.554688 134.617188 172.988281 135.09375 C 171.421875 135.570312 169.882812 136.121094 168.371094 136.746094 C 166.855469 137.371094 165.378906 138.070312 163.933594 138.84375 C 162.492188 139.613281 161.089844 140.453125 159.726562 141.363281 C 158.367188 142.273438 157.054688 143.246094 155.789062 144.285156 C 154.523438 145.324219 153.3125 146.421875 152.152344 147.578125 C 150.996094 148.738281 149.898438 149.949219 148.859375 151.214844 C 147.820312 152.480469 146.847656 153.792969 145.9375 155.152344 C 145.027344 156.515625 144.1875 157.917969 143.414062 159.359375 C 142.644531 160.804688 141.945312 162.28125 141.316406 163.792969 C 140.691406 165.304688 140.140625 166.84375 139.664062 168.410156 C 139.1875 169.980469 138.792969 171.566406 138.472656 173.171875 C 138.152344 174.777344 137.914062 176.394531 137.75 178.023438 C 137.589844 179.652344 137.511719 181.285156 137.511719 182.921875 C 137.511719 184.558594 137.59375 186.191406 137.757812 187.820312 C 137.917969 189.449219 138.160156 191.0625 138.480469 192.667969 C 138.800781 194.273438 139.199219 195.859375 139.675781 197.425781 C 140.152344 198.992188 140.703125 200.53125 141.332031 202.042969 C 141.960938 203.554688 142.660156 205.03125 143.429688 206.472656 C 144.203125 207.917969 145.042969 209.320312 145.953125 210.679688 C 146.863281 212.039062 147.835938 213.351562 148.875 214.617188 C 149.914062 215.882812 151.011719 217.09375 152.167969 218.25 C 153.328125 219.410156 154.539062 220.507812 155.804688 221.542969 C 157.066406 222.582031 158.382812 223.558594 159.742188 224.46875 C 161.101562 225.375 162.503906 226.21875 163.945312 226.988281 C 165.390625 227.761719 166.867188 228.460938 168.378906 229.089844 C 169.890625 229.714844 171.429688 230.269531 172.996094 230.746094 C 174.5625 231.21875 176.148438 231.617188 177.75 231.941406 C 179.355469 232.261719 180.972656 232.5 182.601562 232.664062 C 184.230469 232.824219 185.863281 232.90625 187.5 232.910156 Z M 76.691406 41.800781 L 93.078125 77.644531 L 132.230469 82.148438 C 132.789062 82.210938 133.328125 82.355469 133.84375 82.574219 C 134.359375 82.792969 134.835938 83.078125 135.269531 83.433594 C 135.703125 83.789062 136.082031 84.199219 136.398438 84.664062 C 136.714844 85.128906 136.957031 85.625 137.132812 86.160156 C 137.304688 86.695312 137.398438 87.242188 137.414062 87.804688 C 137.429688 88.363281 137.367188 88.917969 137.226562 89.460938 C 137.082031 90.003906 136.867188 90.515625 136.574219 90.996094 C 136.285156 91.476562 135.933594 91.90625 135.519531 92.285156 L 106.492188 118.945312 L 114.3125 157.570312 C 114.425781 158.121094 114.457031 158.675781 114.40625 159.234375 C 114.359375 159.796875 114.234375 160.335938 114.03125 160.859375 C 113.824219 161.382812 113.550781 161.867188 113.210938 162.3125 C 112.867188 162.757812 112.46875 163.144531 112.011719 163.472656 C 111.558594 163.804688 111.066406 164.0625 110.539062 164.253906 C 110.007812 164.441406 109.464844 164.550781 108.902344 164.582031 C 108.34375 164.617188 107.789062 164.566406 107.242188 164.441406 C 106.695312 164.3125 106.175781 164.113281 105.6875 163.835938 L 71.359375 144.472656 L 37.039062 163.835938 C 36.550781 164.109375 36.03125 164.3125 35.484375 164.4375 C 34.9375 164.566406 34.386719 164.613281 33.824219 164.582031 C 33.265625 164.546875 32.71875 164.4375 32.191406 164.25 C 31.664062 164.058594 31.171875 163.800781 30.71875 163.472656 C 30.261719 163.140625 29.863281 162.753906 29.523438 162.308594 C 29.179688 161.867188 28.90625 161.382812 28.703125 160.859375 C 28.5 160.335938 28.371094 159.792969 28.324219 159.234375 C 28.277344 158.675781 28.308594 158.121094 28.417969 157.570312 L 36.234375 118.945312 L 7.207031 92.285156 C 6.796875 91.90625 6.441406 91.476562 6.152344 90.996094 C 5.863281 90.515625 5.648438 90.003906 5.503906 89.460938 C 5.363281 88.917969 5.296875 88.363281 5.3125 87.804688 C 5.328125 87.242188 5.425781 86.695312 5.597656 86.160156 C 5.769531 85.625 6.015625 85.128906 6.332031 84.664062 C 6.648438 84.199219 7.023438 83.792969 7.460938 83.433594 C 7.894531 83.078125 8.367188 82.792969 8.886719 82.574219 C 9.402344 82.355469 9.941406 82.214844 10.496094 82.148438 L 49.652344 77.644531 L 66.035156 41.800781 C 66.269531 41.289062 66.570312 40.824219 66.9375 40.398438 C 67.304688 39.976562 67.726562 39.613281 68.195312 39.308594 C 68.667969 39.007812 69.175781 38.773438 69.714844 38.617188 C 70.25 38.460938 70.800781 38.378906 71.363281 38.378906 C 71.925781 38.378906 72.472656 38.460938 73.011719 38.617188 C 73.550781 38.773438 74.054688 39.007812 74.527344 39.308594 C 75 39.613281 75.421875 39.976562 75.789062 40.398438 C 76.15625 40.824219 76.457031 41.289062 76.691406 41.800781 Z M 369.40625 86.160156 C 369.578125 86.695312 369.671875 87.242188 369.691406 87.804688 C 369.707031 88.367188 369.640625 88.917969 369.5 89.460938 C 369.355469 90.003906 369.140625 90.515625 368.851562 90.996094 C 368.558594 91.476562 368.207031 91.90625 367.792969 92.285156 L 338.769531 118.945312 L 346.582031 157.570312 C 346.695312 158.121094 346.726562 158.675781 346.675781 159.234375 C 346.628906 159.792969 346.503906 160.335938 346.300781 160.855469 C 346.09375 161.378906 345.820312 161.863281 345.480469 162.308594 C 345.136719 162.753906 344.738281 163.140625 344.285156 163.46875 C 343.832031 163.800781 343.339844 164.058594 342.808594 164.246094 C 342.28125 164.4375 341.738281 164.546875 341.175781 164.578125 C 340.617188 164.609375 340.0625 164.5625 339.515625 164.4375 C 338.96875 164.308594 338.453125 164.109375 337.964844 163.832031 L 303.640625 144.46875 L 269.3125 163.835938 C 268.824219 164.109375 268.304688 164.3125 267.757812 164.4375 C 267.210938 164.566406 266.65625 164.613281 266.097656 164.582031 C 265.539062 164.546875 264.992188 164.4375 264.464844 164.25 C 263.9375 164.058594 263.445312 163.800781 262.992188 163.46875 C 262.535156 163.140625 262.136719 162.753906 261.796875 162.308594 C 261.453125 161.863281 261.179688 161.382812 260.976562 160.859375 C 260.773438 160.335938 260.644531 159.792969 260.597656 159.234375 C 260.550781 158.675781 260.582031 158.121094 260.691406 157.570312 L 268.503906 118.945312 L 239.480469 92.285156 C 239.066406 91.90625 238.714844 91.476562 238.425781 90.996094 C 238.132812 90.515625 237.917969 90.003906 237.773438 89.460938 C 237.632812 88.917969 237.570312 88.363281 237.585938 87.804688 C 237.601562 87.242188 237.695312 86.695312 237.867188 86.160156 C 238.042969 85.625 238.285156 85.128906 238.601562 84.664062 C 238.917969 84.199219 239.296875 83.792969 239.730469 83.4375 C 240.164062 83.078125 240.640625 82.792969 241.15625 82.574219 C 241.671875 82.355469 242.210938 82.214844 242.769531 82.148438 L 281.921875 77.644531 L 298.308594 41.800781 C 298.542969 41.292969 298.84375 40.824219 299.210938 40.402344 C 299.578125 39.976562 300 39.613281 300.472656 39.308594 C 300.945312 39.007812 301.449219 38.777344 301.988281 38.617188 C 302.527344 38.460938 303.074219 38.382812 303.636719 38.382812 C 304.199219 38.382812 304.746094 38.460938 305.285156 38.617188 C 305.824219 38.777344 306.328125 39.007812 306.800781 39.308594 C 307.273438 39.613281 307.695312 39.976562 308.0625 40.402344 C 308.429688 40.824219 308.730469 41.292969 308.964844 41.800781 L 325.351562 77.644531 L 364.503906 82.148438 C 365.0625 82.214844 365.601562 82.355469 366.117188 82.574219 C 366.632812 82.792969 367.109375 83.082031 367.542969 83.4375 C 367.976562 83.792969 368.351562 84.203125 368.667969 84.667969 C 368.988281 85.128906 369.230469 85.628906 369.40625 86.160156 Z M 369.40625 86.160156 " clip-rule="evenodd"/></clipPath><linearGradient x1="255.99899" gradientTransform="matrix(0.732422, 0, 0, 0.732422, 0.0000045, 0)" y1="512.000464" x2="256" gradientUnits="userSpaceOnUse" y2="-0.000177025" id="344b586212"><stop stop-opacity="1" stop-color="rgb(0%, 47.799683%, 71.398926%)" offset="0"/><stop stop-opacity="1" stop-color="rgb(0%, 47.903442%, 71.554565%)" offset="0.00000191693"/><stop stop-opacity="1" stop-color="rgb(0%, 48.008728%, 71.711731%)" offset="0.015625"/><stop stop-opacity="1" stop-color="rgb(0%, 48.112488%, 71.867371%)" offset="0.03125"/><stop stop-opacity="1" stop-color="rgb(0%, 48.321533%, 72.180176%)" offset="0.046875"/><stop stop-opacity="1" stop-color="rgb(0%, 48.532104%, 72.492981%)" offset="0.0625"/><stop stop-opacity="1" stop-color="rgb(0%, 48.74115%, 72.80426%)" offset="0.078125"/><stop stop-opacity="1" stop-color="rgb(0%, 48.950195%, 73.117065%)" offset="0.09375"/><stop stop-opacity="1" stop-color="rgb(0%, 49.159241%, 73.429871%)" offset="0.109375"/><stop stop-opacity="1" stop-color="rgb(0%, 49.368286%, 73.742676%)" offset="0.125"/><stop stop-opacity="1" stop-color="rgb(0%, 49.578857%, 74.055481%)" offset="0.140625"/><stop stop-opacity="1" stop-color="rgb(0%, 49.787903%, 74.36676%)" offset="0.15625"/><stop stop-opacity="1" stop-color="rgb(0%, 49.996948%, 74.679565%)" offset="0.171875"/><stop stop-opacity="1" stop-color="rgb(0%, 50.205994%, 74.992371%)" offset="0.1875"/><stop stop-opacity="1" stop-color="rgb(0%, 50.416565%, 75.305176%)" offset="0.203125"/><stop stop-opacity="1" stop-color="rgb(0%, 50.62561%, 75.617981%)" offset="0.21875"/><stop stop-opacity="1" stop-color="rgb(0%, 50.834656%, 75.92926%)" offset="0.234375"/><stop stop-opacity="1" stop-color="rgb(0%, 51.043701%, 76.242065%)" offset="0.25"/><stop stop-opacity="1" stop-color="rgb(0%, 51.252747%, 76.554871%)" offset="0.265625"/><stop stop-opacity="1" stop-color="rgb(0%, 51.463318%, 76.867676%)" offset="0.28125"/><stop stop-opacity="1" stop-color="rgb(0%, 51.672363%, 77.180481%)" offset="0.296875"/><stop stop-opacity="1" stop-color="rgb(0%, 51.881409%, 77.49176%)" offset="0.3125"/><stop stop-opacity="1" stop-color="rgb(0%, 52.090454%, 77.804565%)" offset="0.328125"/><stop stop-opacity="1" stop-color="rgb(0%, 52.2995%, 78.117371%)" offset="0.34375"/><stop stop-opacity="1" stop-color="rgb(0%, 52.510071%, 78.430176%)" offset="0.359375"/><stop stop-opacity="1" stop-color="rgb(0%, 52.719116%, 78.742981%)" offset="0.375"/><stop stop-opacity="1" stop-color="rgb(0%, 52.928162%, 79.05426%)" offset="0.390625"/><stop stop-opacity="1" stop-color="rgb(0%, 53.137207%, 79.367065%)" offset="0.40625"/><stop stop-opacity="1" stop-color="rgb(0%, 53.347778%, 79.679871%)" offset="0.421875"/><stop stop-opacity="1" stop-color="rgb(0%, 53.556824%, 79.992676%)" offset="0.4375"/><stop stop-opacity="1" stop-color="rgb(0%, 53.765869%, 80.305481%)" offset="0.453125"/><stop stop-opacity="1" stop-color="rgb(0%, 53.974915%, 80.61676%)" offset="0.46875"/><stop stop-opacity="1" stop-color="rgb(0%, 54.18396%, 80.929565%)" offset="0.484375"/><stop stop-opacity="1" stop-color="rgb(0%, 54.394531%, 81.242371%)" offset="0.5"/><stop stop-opacity="1" stop-color="rgb(0%, 54.603577%, 81.555176%)" offset="0.515625"/><stop stop-opacity="1" stop-color="rgb(0%, 54.812622%, 81.867981%)" offset="0.53125"/><stop stop-opacity="1" stop-color="rgb(0%, 55.021667%, 82.17926%)" offset="0.546875"/><stop stop-opacity="1" stop-color="rgb(0%, 55.230713%, 82.492065%)" offset="0.5625"/><stop stop-opacity="1" stop-color="rgb(0%, 55.441284%, 82.804871%)" offset="0.578125"/><stop stop-opacity="1" stop-color="rgb(0%, 55.65033%, 83.117676%)" offset="0.59375"/><stop stop-opacity="1" stop-color="rgb(0%, 55.859375%, 83.430481%)" offset="0.609375"/><stop stop-opacity="1" stop-color="rgb(0%, 56.06842%, 83.74176%)" offset="0.625"/><stop stop-opacity="1" stop-color="rgb(0%, 56.278992%, 84.054565%)" offset="0.640625"/><stop stop-opacity="1" stop-color="rgb(0%, 56.488037%, 84.367371%)" offset="0.65625"/><stop stop-opacity="1" stop-color="rgb(0%, 56.697083%, 84.680176%)" offset="0.671875"/><stop stop-opacity="1" stop-color="rgb(0%, 56.906128%, 84.992981%)" offset="0.6875"/><stop stop-opacity="1" stop-color="rgb(0%, 57.115173%, 85.30426%)" offset="0.703125"/><stop stop-opacity="1" stop-color="rgb(0%, 57.325745%, 85.617065%)" offset="0.71875"/><stop stop-opacity="1" stop-color="rgb(0%, 57.53479%, 85.929871%)" offset="0.734375"/><stop stop-opacity="1" stop-color="rgb(0%, 57.743835%, 86.242676%)" offset="0.75"/><stop stop-opacity="1" stop-color="rgb(0%, 57.952881%, 86.555481%)" offset="0.765625"/><stop stop-opacity="1" stop-color="rgb(0%, 58.163452%, 86.86676%)" offset="0.78125"/><stop stop-opacity="1" stop-color="rgb(0%, 58.372498%, 87.179565%)" offset="0.796875"/><stop stop-opacity="1" stop-color="rgb(0%, 58.581543%, 87.492371%)" offset="0.8125"/><stop stop-opacity="1" stop-color="rgb(0%, 58.790588%, 87.805176%)" offset="0.828125"/><stop stop-opacity="1" stop-color="rgb(0%, 58.999634%, 88.117981%)" offset="0.84375"/><stop stop-opacity="1" stop-color="rgb(0%, 59.210205%, 88.42926%)" offset="0.859375"/><stop stop-opacity="1" stop-color="rgb(0%, 59.41925%, 88.742065%)" offset="0.875"/><stop stop-opacity="1" stop-color="rgb(0%, 59.628296%, 89.054871%)" offset="0.890625"/><stop stop-opacity="1" stop-color="rgb(0%, 59.837341%, 89.367676%)" offset="0.90625"/><stop stop-opacity="1" stop-color="rgb(0%, 60.046387%, 89.680481%)" offset="0.921875"/><stop stop-opacity="1" stop-color="rgb(0%, 60.256958%, 89.99176%)" offset="0.9375"/><stop stop-opacity="1" stop-color="rgb(0%, 60.466003%, 90.304565%)" offset="0.953125"/><stop stop-opacity="1" stop-color="rgb(0%, 60.675049%, 90.617371%)" offset="0.96875"/><stop stop-opacity="1" stop-color="rgb(0%, 60.884094%, 90.930176%)" offset="0.984375"/><stop stop-opacity="1" stop-color="rgb(0%, 61.094666%, 91.242981%)" offset="0.999998"/><stop stop-opacity="1" stop-color="rgb(0%, 61.199951%, 91.398621%)" offset="1"/></linearGradient></defs><g clip-path="url(#a7e2191823)"><g clip-path="url(#c9de9489a3)"><path fill="url(#344b586212)" d="M 5.296875 0 L 5.296875 375 L 369.707031 375 L 369.707031 0 Z M 5.296875 0 " fill-rule="nonzero"/></g></g></svg>