<svg xmlns="http://www.w3.org/2000/svg" xmlns:xlink="http://www.w3.org/1999/xlink" width="500" zoomAndPan="magnify" viewBox="0 0 375 374.999991" height="500" preserveAspectRatio="xMidYMid meet" version="1.0"><defs><clipPath id="83c06b101e"><path d="M 39 0 L 336 0 L 336 375 L 39 375 Z M 39 0 " clip-rule="nonzero"/></clipPath><clipPath id="0ad54ef5ab"><path d="M 293.261719 311.886719 C 319.738281 283.921875 335.546875 252.175781 335.546875 226.957031 L 335.546875 65.21875 C 335.546875 64.832031 335.507812 64.453125 335.433594 64.074219 C 335.359375 63.699219 335.246094 63.332031 335.101562 62.976562 C 334.953125 62.621094 334.773438 62.28125 334.558594 61.964844 C 334.34375 61.644531 334.101562 61.347656 333.832031 61.074219 C 333.558594 60.804688 333.261719 60.558594 332.941406 60.347656 C 332.621094 60.132812 332.285156 59.953125 331.929688 59.804688 C 331.574219 59.65625 331.207031 59.546875 330.832031 59.472656 C 330.453125 59.398438 330.070312 59.359375 329.6875 59.359375 C 280.847656 59.359375 226.65625 36.734375 191.644531 1.71875 C 191.375 1.445312 191.078125 1.203125 190.757812 0.988281 C 190.4375 0.773438 190.101562 0.59375 189.746094 0.445312 C 189.390625 0.296875 189.023438 0.1875 188.644531 0.113281 C 188.265625 0.0351562 187.886719 0 187.5 0 C 187.117188 0 186.734375 0.0351562 186.355469 0.113281 C 185.980469 0.1875 185.613281 0.296875 185.257812 0.445312 C 184.902344 0.59375 184.5625 0.773438 184.242188 0.988281 C 183.921875 1.203125 183.625 1.445312 183.355469 1.71875 C 148.339844 36.734375 94.15625 59.359375 45.316406 59.359375 C 44.933594 59.359375 44.550781 59.398438 44.175781 59.472656 C 43.796875 59.546875 43.429688 59.65625 43.074219 59.804688 C 42.71875 59.953125 42.382812 60.132812 42.0625 60.347656 C 41.742188 60.558594 41.445312 60.804688 41.175781 61.074219 C 40.902344 61.347656 40.660156 61.644531 40.445312 61.964844 C 40.230469 62.28125 40.050781 62.621094 39.902344 62.976562 C 39.757812 63.332031 39.644531 63.699219 39.570312 64.074219 C 39.496094 64.453125 39.457031 64.832031 39.457031 65.21875 L 39.457031 226.957031 C 39.457031 252.175781 55.265625 283.921875 81.738281 311.886719 C 110.34375 342.113281 147.363281 364.453125 185.984375 374.804688 C 186.996094 375.070312 188.007812 375.070312 189.019531 374.804688 C 227.636719 364.453125 264.660156 342.113281 293.261719 311.886719 Z M 237.15625 167.082031 C 237.738281 167.082031 238.316406 167.113281 238.894531 167.171875 C 239.472656 167.226562 240.046875 167.3125 240.613281 167.425781 C 241.183594 167.542969 241.746094 167.683594 242.300781 167.851562 C 242.855469 168.019531 243.402344 168.214844 243.9375 168.4375 C 244.472656 168.660156 244.996094 168.910156 245.507812 169.183594 C 246.019531 169.457031 246.515625 169.753906 247 170.078125 C 247.480469 170.398438 247.949219 170.746094 248.394531 171.113281 C 248.84375 171.480469 249.273438 171.871094 249.683594 172.28125 C 250.09375 172.691406 250.484375 173.121094 250.851562 173.570312 C 251.21875 174.019531 251.566406 174.484375 251.886719 174.964844 C 252.210938 175.449219 252.507812 175.945312 252.78125 176.457031 C 253.054688 176.96875 253.304688 177.492188 253.527344 178.027344 C 253.75 178.5625 253.945312 179.109375 254.113281 179.664062 C 254.28125 180.21875 254.425781 180.78125 254.539062 181.351562 C 254.652344 181.921875 254.738281 182.492188 254.796875 183.070312 C 254.851562 183.648438 254.882812 184.226562 254.882812 184.808594 L 254.882812 259.070312 C 254.882812 259.648438 254.851562 260.230469 254.796875 260.808594 C 254.738281 261.382812 254.652344 261.957031 254.539062 262.527344 C 254.425781 263.09375 254.285156 263.65625 254.113281 264.214844 C 253.945312 264.769531 253.75 265.3125 253.527344 265.851562 C 253.304688 266.386719 253.058594 266.910156 252.785156 267.421875 C 252.511719 267.933594 252.210938 268.429688 251.890625 268.914062 C 251.566406 269.394531 251.222656 269.859375 250.851562 270.308594 C 250.484375 270.757812 250.097656 271.1875 249.6875 271.597656 C 249.273438 272.007812 248.847656 272.398438 248.398438 272.765625 C 247.949219 273.132812 247.484375 273.480469 247 273.800781 C 246.519531 274.125 246.019531 274.421875 245.507812 274.695312 C 244.996094 274.96875 244.472656 275.21875 243.9375 275.441406 C 243.402344 275.664062 242.855469 275.859375 242.300781 276.027344 C 241.746094 276.195312 241.183594 276.335938 240.613281 276.449219 C 240.046875 276.566406 239.472656 276.648438 238.894531 276.707031 C 238.316406 276.765625 237.738281 276.792969 237.15625 276.792969 L 137.839844 276.792969 C 137.261719 276.792969 136.683594 276.765625 136.105469 276.707031 C 135.527344 276.648438 134.953125 276.566406 134.386719 276.449219 C 133.816406 276.335938 133.253906 276.195312 132.699219 276.027344 C 132.144531 275.859375 131.597656 275.664062 131.0625 275.441406 C 130.527344 275.21875 130 274.96875 129.488281 274.695312 C 128.980469 274.421875 128.480469 274.125 128 273.800781 C 127.515625 273.480469 127.050781 273.132812 126.601562 272.765625 C 126.152344 272.398438 125.722656 272.007812 125.3125 271.597656 C 124.902344 271.1875 124.515625 270.757812 124.144531 270.308594 C 123.777344 269.859375 123.433594 269.394531 123.109375 268.914062 C 122.789062 268.429688 122.488281 267.933594 122.214844 267.421875 C 121.941406 266.910156 121.695312 266.386719 121.472656 265.851562 C 121.25 265.3125 121.054688 264.769531 120.882812 264.214844 C 120.714844 263.65625 120.574219 263.097656 120.460938 262.527344 C 120.347656 261.957031 120.261719 261.382812 120.203125 260.808594 C 120.148438 260.230469 120.117188 259.652344 120.117188 259.070312 L 120.117188 184.808594 C 120.117188 184.230469 120.148438 183.652344 120.203125 183.074219 C 120.261719 182.496094 120.347656 181.921875 120.460938 181.355469 C 120.574219 180.785156 120.714844 180.222656 120.886719 179.667969 C 121.054688 179.113281 121.25 178.566406 121.472656 178.03125 C 121.695312 177.496094 121.941406 176.972656 122.21875 176.460938 C 122.492188 175.949219 122.789062 175.453125 123.113281 174.96875 C 123.433594 174.488281 123.78125 174.019531 124.148438 173.574219 C 124.515625 173.125 124.90625 172.695312 125.316406 172.285156 C 125.726562 171.875 126.15625 171.484375 126.605469 171.117188 C 127.050781 170.75 127.519531 170.402344 128 170.082031 C 128.484375 169.757812 128.980469 169.460938 129.492188 169.1875 C 130.003906 168.910156 130.527344 168.664062 131.0625 168.441406 C 131.597656 168.21875 132.144531 168.023438 132.699219 167.855469 C 133.253906 167.683594 133.816406 167.542969 134.386719 167.429688 C 134.953125 167.316406 135.527344 167.230469 136.105469 167.171875 C 136.683594 167.117188 137.261719 167.085938 137.839844 167.085938 L 140.03125 167.085938 L 140.03125 145.664062 C 140.03125 144.109375 140.109375 142.558594 140.261719 141.011719 C 140.414062 139.460938 140.640625 137.925781 140.945312 136.402344 C 141.246094 134.878906 141.625 133.371094 142.078125 131.882812 C 142.527344 130.394531 143.050781 128.933594 143.644531 127.496094 C 144.242188 126.0625 144.90625 124.65625 145.636719 123.285156 C 146.371094 121.914062 147.167969 120.582031 148.03125 119.289062 C 148.894531 117.996094 149.820312 116.75 150.808594 115.546875 C 151.792969 114.347656 152.835938 113.195312 153.9375 112.097656 C 155.035156 110.996094 156.1875 109.953125 157.386719 108.96875 C 158.589844 107.980469 159.835938 107.058594 161.128906 106.195312 C 162.421875 105.328125 163.753906 104.53125 165.125 103.796875 C 166.496094 103.066406 167.898438 102.402344 169.335938 101.808594 C 170.773438 101.210938 172.234375 100.6875 173.722656 100.238281 C 175.210938 99.785156 176.714844 99.410156 178.242188 99.105469 C 179.765625 98.800781 181.300781 98.574219 182.847656 98.421875 C 184.394531 98.269531 185.945312 98.195312 187.5 98.195312 C 189.054688 98.195312 190.605469 98.269531 192.152344 98.421875 C 193.703125 98.574219 195.238281 98.800781 196.761719 99.105469 C 198.285156 99.410156 199.792969 99.785156 201.28125 100.238281 C 202.769531 100.6875 204.230469 101.210938 205.667969 101.808594 C 207.101562 102.402344 208.507812 103.066406 209.878906 103.796875 C 211.25 104.53125 212.582031 105.328125 213.875 106.195312 C 215.167969 107.058594 216.414062 107.980469 217.617188 108.96875 C 218.816406 109.953125 219.96875 110.996094 221.066406 112.097656 C 222.167969 113.195312 223.210938 114.347656 224.195312 115.546875 C 225.183594 116.75 226.105469 117.996094 226.96875 119.289062 C 227.835938 120.582031 228.632812 121.914062 229.367188 123.285156 C 230.097656 124.65625 230.761719 126.0625 231.355469 127.496094 C 231.953125 128.933594 232.476562 130.394531 232.925781 131.882812 C 233.378906 133.371094 233.753906 134.878906 234.058594 136.402344 C 234.363281 137.925781 234.589844 139.460938 234.742188 141.011719 C 234.894531 142.558594 234.96875 144.109375 234.96875 145.664062 L 234.96875 167.082031 Z M 151.75 145.664062 C 151.75 144.492188 151.808594 143.324219 151.921875 142.160156 C 152.039062 140.992188 152.207031 139.835938 152.4375 138.6875 C 152.664062 137.539062 152.949219 136.40625 153.289062 135.285156 C 153.628906 134.164062 154.023438 133.0625 154.472656 131.980469 C 154.917969 130.898438 155.417969 129.84375 155.972656 128.808594 C 156.523438 127.777344 157.125 126.773438 157.773438 125.800781 C 158.425781 124.828125 159.121094 123.886719 159.863281 122.984375 C 160.609375 122.078125 161.394531 121.210938 162.222656 120.382812 C 163.050781 119.554688 163.914062 118.769531 164.820312 118.027344 C 165.726562 117.285156 166.664062 116.589844 167.636719 115.9375 C 168.613281 115.289062 169.613281 114.6875 170.648438 114.132812 C 171.679688 113.582031 172.738281 113.082031 173.820312 112.632812 C 174.902344 112.1875 176.003906 111.792969 177.121094 111.453125 C 178.242188 111.113281 179.378906 110.828125 180.527344 110.601562 C 181.675781 110.371094 182.832031 110.199219 183.996094 110.085938 C 185.160156 109.96875 186.328125 109.914062 187.5 109.914062 C 188.671875 109.914062 189.839844 109.96875 191.003906 110.085938 C 192.167969 110.199219 193.324219 110.371094 194.472656 110.601562 C 195.621094 110.828125 196.757812 111.113281 197.878906 111.453125 C 198.996094 111.792969 200.097656 112.1875 201.179688 112.632812 C 202.261719 113.082031 203.320312 113.582031 204.351562 114.132812 C 205.382812 114.6875 206.386719 115.289062 207.359375 115.9375 C 208.335938 116.589844 209.273438 117.285156 210.179688 118.027344 C 211.085938 118.769531 211.949219 119.554688 212.777344 120.382812 C 213.605469 121.210938 214.390625 122.078125 215.132812 122.984375 C 215.878906 123.886719 216.574219 124.828125 217.222656 125.800781 C 217.875 126.773438 218.476562 127.777344 219.027344 128.808594 C 219.582031 129.84375 220.082031 130.898438 220.527344 131.980469 C 220.976562 133.0625 221.371094 134.164062 221.710938 135.285156 C 222.050781 136.40625 222.335938 137.539062 222.5625 138.6875 C 222.789062 139.835938 222.960938 140.992188 223.078125 142.160156 C 223.191406 143.324219 223.25 144.492188 223.25 145.664062 L 223.25 167.082031 L 151.75 167.082031 Z M 243.164062 259.070312 C 243.164062 259.464844 243.125 259.855469 243.046875 260.242188 C 242.972656 260.628906 242.855469 261.003906 242.707031 261.367188 C 242.554688 261.730469 242.371094 262.078125 242.152344 262.40625 C 241.929688 262.734375 241.683594 263.035156 241.402344 263.316406 C 241.125 263.59375 240.820312 263.84375 240.492188 264.0625 C 240.164062 264.28125 239.820312 264.464844 239.457031 264.617188 C 239.089844 264.769531 238.714844 264.882812 238.328125 264.960938 C 237.941406 265.035156 237.550781 265.074219 237.15625 265.074219 L 137.839844 265.074219 C 137.449219 265.074219 137.058594 265.039062 136.671875 264.960938 C 136.285156 264.882812 135.90625 264.769531 135.542969 264.617188 C 135.179688 264.46875 134.832031 264.28125 134.503906 264.0625 C 134.175781 263.84375 133.875 263.59375 133.59375 263.316406 C 133.316406 263.039062 133.066406 262.734375 132.847656 262.40625 C 132.628906 262.078125 132.445312 261.734375 132.292969 261.367188 C 132.140625 261.003906 132.027344 260.628906 131.953125 260.242188 C 131.875 259.855469 131.835938 259.464844 131.835938 259.070312 L 131.835938 184.808594 C 131.835938 184.417969 131.875 184.027344 131.953125 183.640625 C 132.03125 183.253906 132.144531 182.878906 132.296875 182.511719 C 132.445312 182.148438 132.632812 181.804688 132.851562 181.476562 C 133.070312 181.148438 133.320312 180.84375 133.597656 180.566406 C 133.875 180.289062 134.179688 180.039062 134.507812 179.820312 C 134.835938 179.601562 135.179688 179.414062 135.542969 179.265625 C 135.910156 179.113281 136.285156 179 136.671875 178.921875 C 137.058594 178.84375 137.449219 178.804688 137.839844 178.804688 L 237.15625 178.804688 C 237.550781 178.804688 237.941406 178.84375 238.328125 178.921875 C 238.714844 179 239.089844 179.113281 239.457031 179.265625 C 239.820312 179.414062 240.164062 179.601562 240.492188 179.820312 C 240.820312 180.039062 241.125 180.289062 241.402344 180.566406 C 241.679688 180.84375 241.929688 181.148438 242.148438 181.476562 C 242.367188 181.804688 242.554688 182.148438 242.703125 182.511719 C 242.855469 182.878906 242.96875 183.253906 243.046875 183.640625 C 243.125 184.027344 243.164062 184.417969 243.164062 184.808594 Z M 187.5 200.152344 C 188.292969 200.152344 189.078125 200.21875 189.855469 200.351562 C 190.636719 200.484375 191.402344 200.683594 192.148438 200.945312 C 192.894531 201.207031 193.613281 201.53125 194.304688 201.917969 C 194.996094 202.300781 195.648438 202.742188 196.265625 203.238281 C 196.882812 203.734375 197.453125 204.277344 197.980469 204.871094 C 198.503906 205.460938 198.972656 206.09375 199.390625 206.765625 C 199.808594 207.441406 200.164062 208.144531 200.464844 208.875 C 200.761719 209.609375 200.996094 210.363281 201.164062 211.136719 C 201.332031 211.910156 201.4375 212.691406 201.472656 213.480469 C 201.511719 214.269531 201.480469 215.058594 201.382812 215.84375 C 201.289062 216.628906 201.125 217.402344 200.898438 218.160156 C 200.667969 218.917969 200.378906 219.652344 200.027344 220.359375 C 199.675781 221.066406 199.265625 221.742188 198.796875 222.378906 C 198.332031 223.019531 197.816406 223.613281 197.246094 224.167969 C 196.679688 224.71875 196.070312 225.214844 195.417969 225.664062 C 194.765625 226.113281 194.078125 226.5 193.359375 226.832031 L 193.359375 237.878906 C 193.359375 238.261719 193.320312 238.644531 193.246094 239.019531 C 193.171875 239.398438 193.0625 239.765625 192.914062 240.121094 C 192.765625 240.476562 192.585938 240.8125 192.371094 241.132812 C 192.15625 241.453125 191.914062 241.75 191.644531 242.019531 C 191.371094 242.292969 191.074219 242.535156 190.753906 242.75 C 190.433594 242.964844 190.097656 243.144531 189.742188 243.289062 C 189.386719 243.4375 189.019531 243.550781 188.644531 243.625 C 188.265625 243.699219 187.882812 243.738281 187.5 243.738281 C 187.117188 243.738281 186.734375 243.699219 186.355469 243.625 C 185.980469 243.550781 185.613281 243.4375 185.257812 243.289062 C 184.902344 243.144531 184.566406 242.964844 184.246094 242.75 C 183.925781 242.535156 183.628906 242.292969 183.355469 242.019531 C 183.085938 241.75 182.84375 241.453125 182.628906 241.132812 C 182.414062 240.8125 182.234375 240.476562 182.085938 240.121094 C 181.9375 239.765625 181.828125 239.398438 181.753906 239.019531 C 181.679688 238.644531 181.640625 238.261719 181.640625 237.878906 L 181.640625 226.820312 C 180.921875 226.492188 180.238281 226.101562 179.582031 225.65625 C 178.929688 225.207031 178.320312 224.707031 177.753906 224.15625 C 177.1875 223.605469 176.667969 223.011719 176.203125 222.371094 C 175.734375 221.734375 175.324219 221.058594 174.972656 220.351562 C 174.621094 219.644531 174.332031 218.910156 174.101562 218.152344 C 173.875 217.394531 173.714844 216.621094 173.617188 215.835938 C 173.519531 215.050781 173.488281 214.265625 173.527344 213.472656 C 173.5625 212.683594 173.667969 211.902344 173.835938 211.128906 C 174.007812 210.355469 174.242188 209.605469 174.539062 208.871094 C 174.835938 208.136719 175.195312 207.433594 175.609375 206.761719 C 176.027344 206.089844 176.5 205.457031 177.023438 204.867188 C 177.546875 204.273438 178.117188 203.730469 178.734375 203.234375 C 179.351562 202.738281 180.003906 202.296875 180.695312 201.914062 C 181.386719 201.53125 182.105469 201.207031 182.855469 200.945312 C 183.601562 200.679688 184.363281 200.484375 185.144531 200.351562 C 185.921875 200.21875 186.707031 200.152344 187.5 200.152344 Z M 187.5 211.871094 C 187.800781 211.871094 188.089844 211.929688 188.367188 212.042969 C 188.644531 212.160156 188.890625 212.324219 189.105469 212.535156 C 189.316406 212.75 189.480469 212.996094 189.597656 213.273438 C 189.710938 213.550781 189.769531 213.839844 189.769531 214.140625 C 189.769531 214.441406 189.714844 214.730469 189.597656 215.007812 C 189.484375 215.285156 189.320312 215.53125 189.109375 215.746094 C 188.894531 215.957031 188.648438 216.125 188.371094 216.238281 C 188.09375 216.355469 187.804688 216.414062 187.503906 216.414062 C 187.203125 216.414062 186.914062 216.355469 186.636719 216.242188 C 186.359375 216.128906 186.113281 215.964844 185.898438 215.75 C 185.683594 215.539062 185.519531 215.292969 185.40625 215.015625 C 185.289062 214.738281 185.230469 214.449219 185.230469 214.148438 C 185.230469 213.847656 185.285156 213.558594 185.402344 213.277344 C 185.515625 213 185.679688 212.753906 185.890625 212.539062 C 186.105469 212.324219 186.351562 212.160156 186.628906 212.042969 C 186.90625 211.929688 187.199219 211.871094 187.5 211.867188 Z M 187.5 211.871094 " clip-rule="evenodd"/></clipPath><linearGradient x1="255.99899" gradientTransform="matrix(0.732422, 0, 0, 0.732422, 0.0000045, 0)" y1="512.000374" x2="256" gradientUnits="userSpaceOnUse" y2="-0.000398739" id="dae1d9ae03"><stop stop-opacity="1" stop-color="rgb(0%, 47.799683%, 71.398926%)" offset="0"/><stop stop-opacity="1" stop-color="rgb(0%, 47.903442%, 71.554565%)" offset="0.00000155755"/><stop stop-opacity="1" stop-color="rgb(0%, 48.008728%, 71.711731%)" offset="0.015625"/><stop stop-opacity="1" stop-color="rgb(0%, 48.112488%, 71.867371%)" offset="0.03125"/><stop stop-opacity="1" stop-color="rgb(0%, 48.321533%, 72.180176%)" offset="0.046875"/><stop stop-opacity="1" stop-color="rgb(0%, 48.532104%, 72.492981%)" offset="0.0625"/><stop stop-opacity="1" stop-color="rgb(0%, 48.74115%, 72.80426%)" offset="0.078125"/><stop stop-opacity="1" stop-color="rgb(0%, 48.950195%, 73.117065%)" offset="0.09375"/><stop stop-opacity="1" stop-color="rgb(0%, 49.159241%, 73.429871%)" offset="0.109375"/><stop stop-opacity="1" stop-color="rgb(0%, 49.368286%, 73.742676%)" offset="0.125"/><stop stop-opacity="1" stop-color="rgb(0%, 49.578857%, 74.055481%)" offset="0.140625"/><stop stop-opacity="1" stop-color="rgb(0%, 49.787903%, 74.36676%)" offset="0.15625"/><stop stop-opacity="1" stop-color="rgb(0%, 49.996948%, 74.679565%)" offset="0.171875"/><stop stop-opacity="1" stop-color="rgb(0%, 50.205994%, 74.992371%)" offset="0.1875"/><stop stop-opacity="1" stop-color="rgb(0%, 50.416565%, 75.305176%)" offset="0.203125"/><stop stop-opacity="1" stop-color="rgb(0%, 50.62561%, 75.617981%)" offset="0.21875"/><stop stop-opacity="1" stop-color="rgb(0%, 50.834656%, 75.92926%)" offset="0.234375"/><stop stop-opacity="1" stop-color="rgb(0%, 51.043701%, 76.242065%)" offset="0.25"/><stop stop-opacity="1" stop-color="rgb(0%, 51.252747%, 76.554871%)" offset="0.265625"/><stop stop-opacity="1" stop-color="rgb(0%, 51.463318%, 76.867676%)" offset="0.28125"/><stop stop-opacity="1" stop-color="rgb(0%, 51.672363%, 77.180481%)" offset="0.296875"/><stop stop-opacity="1" stop-color="rgb(0%, 51.881409%, 77.49176%)" offset="0.3125"/><stop stop-opacity="1" stop-color="rgb(0%, 52.090454%, 77.804565%)" offset="0.328125"/><stop stop-opacity="1" stop-color="rgb(0%, 52.2995%, 78.117371%)" offset="0.34375"/><stop stop-opacity="1" stop-color="rgb(0%, 52.510071%, 78.430176%)" offset="0.359375"/><stop stop-opacity="1" stop-color="rgb(0%, 52.719116%, 78.742981%)" offset="0.375"/><stop stop-opacity="1" stop-color="rgb(0%, 52.928162%, 79.05426%)" offset="0.390625"/><stop stop-opacity="1" stop-color="rgb(0%, 53.137207%, 79.367065%)" offset="0.40625"/><stop stop-opacity="1" stop-color="rgb(0%, 53.347778%, 79.679871%)" offset="0.421875"/><stop stop-opacity="1" stop-color="rgb(0%, 53.556824%, 79.992676%)" offset="0.4375"/><stop stop-opacity="1" stop-color="rgb(0%, 53.765869%, 80.305481%)" offset="0.453125"/><stop stop-opacity="1" stop-color="rgb(0%, 53.974915%, 80.61676%)" offset="0.46875"/><stop stop-opacity="1" stop-color="rgb(0%, 54.18396%, 80.929565%)" offset="0.484375"/><stop stop-opacity="1" stop-color="rgb(0%, 54.394531%, 81.242371%)" offset="0.5"/><stop stop-opacity="1" stop-color="rgb(0%, 54.603577%, 81.555176%)" offset="0.515625"/><stop stop-opacity="1" stop-color="rgb(0%, 54.812622%, 81.867981%)" offset="0.53125"/><stop stop-opacity="1" stop-color="rgb(0%, 55.021667%, 82.17926%)" offset="0.546875"/><stop stop-opacity="1" stop-color="rgb(0%, 55.230713%, 82.492065%)" offset="0.5625"/><stop stop-opacity="1" stop-color="rgb(0%, 55.441284%, 82.804871%)" offset="0.578125"/><stop stop-opacity="1" stop-color="rgb(0%, 55.65033%, 83.117676%)" offset="0.59375"/><stop stop-opacity="1" stop-color="rgb(0%, 55.859375%, 83.430481%)" offset="0.609375"/><stop stop-opacity="1" stop-color="rgb(0%, 56.06842%, 83.74176%)" offset="0.625"/><stop stop-opacity="1" stop-color="rgb(0%, 56.278992%, 84.054565%)" offset="0.640625"/><stop stop-opacity="1" stop-color="rgb(0%, 56.488037%, 84.367371%)" offset="0.65625"/><stop stop-opacity="1" stop-color="rgb(0%, 56.697083%, 84.680176%)" offset="0.671875"/><stop stop-opacity="1" stop-color="rgb(0%, 56.906128%, 84.992981%)" offset="0.6875"/><stop stop-opacity="1" stop-color="rgb(0%, 57.115173%, 85.30426%)" offset="0.703125"/><stop stop-opacity="1" stop-color="rgb(0%, 57.325745%, 85.617065%)" offset="0.71875"/><stop stop-opacity="1" stop-color="rgb(0%, 57.53479%, 85.929871%)" offset="0.734375"/><stop stop-opacity="1" stop-color="rgb(0%, 57.743835%, 86.242676%)" offset="0.75"/><stop stop-opacity="1" stop-color="rgb(0%, 57.952881%, 86.555481%)" offset="0.765625"/><stop stop-opacity="1" stop-color="rgb(0%, 58.163452%, 86.86676%)" offset="0.78125"/><stop stop-opacity="1" stop-color="rgb(0%, 58.372498%, 87.179565%)" offset="0.796875"/><stop stop-opacity="1" stop-color="rgb(0%, 58.581543%, 87.492371%)" offset="0.8125"/><stop stop-opacity="1" stop-color="rgb(0%, 58.790588%, 87.805176%)" offset="0.828125"/><stop stop-opacity="1" stop-color="rgb(0%, 58.999634%, 88.117981%)" offset="0.84375"/><stop stop-opacity="1" stop-color="rgb(0%, 59.210205%, 88.42926%)" offset="0.859375"/><stop stop-opacity="1" stop-color="rgb(0%, 59.41925%, 88.742065%)" offset="0.875"/><stop stop-opacity="1" stop-color="rgb(0%, 59.628296%, 89.054871%)" offset="0.890625"/><stop stop-opacity="1" stop-color="rgb(0%, 59.837341%, 89.367676%)" offset="0.90625"/><stop stop-opacity="1" stop-color="rgb(0%, 60.046387%, 89.680481%)" offset="0.921875"/><stop stop-opacity="1" stop-color="rgb(0%, 60.256958%, 89.99176%)" offset="0.9375"/><stop stop-opacity="1" stop-color="rgb(0%, 60.466003%, 90.304565%)" offset="0.953125"/><stop stop-opacity="1" stop-color="rgb(0%, 60.675049%, 90.617371%)" offset="0.96875"/><stop stop-opacity="1" stop-color="rgb(0%, 60.884094%, 90.930176%)" offset="0.984375"/><stop stop-opacity="1" stop-color="rgb(0%, 61.094666%, 91.242981%)" offset="0.999998"/><stop stop-opacity="1" stop-color="rgb(0%, 61.199951%, 91.398621%)" offset="1"/></linearGradient></defs><g clip-path="url(#83c06b101e)"><g clip-path="url(#0ad54ef5ab)"><path fill="url(#dae1d9ae03)" d="M 39.457031 0 L 39.457031 375 L 335.546875 375 L 335.546875 0 Z M 39.457031 0 " fill-rule="nonzero"/></g></g></svg>