<svg xmlns="http://www.w3.org/2000/svg" xmlns:xlink="http://www.w3.org/1999/xlink" width="1920" zoomAndPan="magnify" viewBox="0 0 1440 443.249995" height="591" preserveAspectRatio="xMidYMid meet" version="1.0"><defs><clipPath id="3a75eeaa1a"><path d="M 187 15.703125 L 270 15.703125 L 270 79 L 187 79 Z M 187 15.703125 " clip-rule="nonzero"/></clipPath><clipPath id="21e28f2f3c"><path d="M 225 364 L 308 364 L 308 426.757812 L 225 426.757812 Z M 225 364 " clip-rule="nonzero"/></clipPath><clipPath id="496186daa5"><path d="M 612.015625 113.265625 L 827.652344 113.265625 L 827.652344 328.902344 L 612.015625 328.902344 Z M 612.015625 113.265625 " clip-rule="nonzero"/></clipPath><clipPath id="fc4c043217"><path d="M 825.757812 192.589844 L 810.113281 180.644531 L 810.113281 159.886719 C 810.113281 159.105469 810.074219 158.320312 809.996094 157.542969 C 809.917969 156.761719 809.800781 155.988281 809.648438 155.21875 C 809.492188 154.449219 809.304688 153.691406 809.074219 152.941406 C 808.847656 152.191406 808.582031 151.453125 808.28125 150.730469 C 807.980469 150.007812 807.644531 149.296875 807.277344 148.609375 C 806.90625 147.917969 806.503906 147.246094 806.066406 146.59375 C 805.632812 145.941406 805.164062 145.3125 804.667969 144.707031 C 804.171875 144.101562 803.644531 143.519531 803.089844 142.96875 C 802.535156 142.414062 801.957031 141.886719 801.351562 141.390625 C 800.746094 140.890625 800.117188 140.425781 799.464844 139.988281 C 798.8125 139.554688 798.140625 139.152344 797.449219 138.78125 C 796.757812 138.410156 796.050781 138.078125 795.328125 137.777344 C 794.601562 137.476562 793.867188 137.210938 793.117188 136.984375 C 792.367188 136.753906 791.605469 136.5625 790.839844 136.410156 C 790.070312 136.257812 789.296875 136.140625 788.515625 136.0625 C 787.734375 135.984375 786.953125 135.945312 786.167969 135.945312 L 751.59375 135.945312 L 723.675781 114.621094 C 723.183594 114.246094 722.644531 113.957031 722.058594 113.757812 C 721.46875 113.558594 720.867188 113.460938 720.246094 113.457031 C 719.628906 113.457031 719.023438 113.554688 718.4375 113.753906 C 717.847656 113.953125 717.308594 114.238281 716.8125 114.613281 L 688.757812 135.945312 L 653.828125 135.945312 C 653.046875 135.945312 652.265625 135.984375 651.484375 136.0625 C 650.703125 136.140625 649.929688 136.253906 649.160156 136.410156 C 648.390625 136.5625 647.632812 136.753906 646.882812 136.980469 C 646.132812 137.210938 645.394531 137.472656 644.671875 137.773438 C 643.949219 138.074219 643.238281 138.410156 642.550781 138.78125 C 641.859375 139.148438 641.1875 139.554688 640.535156 139.988281 C 639.882812 140.425781 639.253906 140.890625 638.648438 141.386719 C 638.042969 141.886719 637.460938 142.410156 636.90625 142.964844 C 636.355469 143.519531 635.828125 144.101562 635.332031 144.707031 C 634.832031 145.3125 634.367188 145.941406 633.929688 146.59375 C 633.496094 147.246094 633.09375 147.914062 632.722656 148.605469 C 632.351562 149.296875 632.015625 150.003906 631.71875 150.730469 C 631.417969 151.453125 631.152344 152.191406 630.925781 152.941406 C 630.695312 153.691406 630.503906 154.449219 630.351562 155.21875 C 630.199219 155.988281 630.082031 156.761719 630.003906 157.542969 C 629.925781 158.320312 629.886719 159.105469 629.886719 159.886719 L 629.886719 180.707031 L 614.25 192.589844 C 613.546875 193.125 612.996094 193.789062 612.605469 194.582031 C 612.210938 195.375 612.015625 196.214844 612.015625 197.101562 L 612.058594 305.089844 C 612.058594 305.875 612.097656 306.65625 612.175781 307.4375 C 612.253906 308.214844 612.371094 308.992188 612.523438 309.757812 C 612.675781 310.527344 612.867188 311.285156 613.097656 312.035156 C 613.324219 312.785156 613.589844 313.523438 613.890625 314.246094 C 614.1875 314.972656 614.523438 315.679688 614.894531 316.371094 C 615.265625 317.0625 615.667969 317.734375 616.101562 318.386719 C 616.539062 319.035156 617.003906 319.664062 617.5 320.269531 C 618 320.878906 618.523438 321.457031 619.078125 322.011719 C 619.632812 322.566406 620.214844 323.089844 620.820312 323.589844 C 621.425781 324.085938 622.054688 324.554688 622.707031 324.988281 C 623.355469 325.425781 624.027344 325.828125 624.71875 326.199219 C 625.410156 326.566406 626.117188 326.902344 626.84375 327.203125 C 627.566406 327.503906 628.300781 327.769531 629.050781 327.996094 C 629.800781 328.226562 630.5625 328.417969 631.332031 328.570312 C 632.097656 328.722656 632.875 328.839844 633.652344 328.917969 C 634.433594 328.996094 635.214844 329.035156 636 329.035156 L 804.035156 329.035156 C 804.820312 329.035156 805.601562 328.996094 806.378906 328.917969 C 807.160156 328.839844 807.933594 328.726562 808.703125 328.570312 C 809.472656 328.417969 810.230469 328.226562 810.980469 328 C 811.730469 327.769531 812.46875 327.507812 813.191406 327.207031 C 813.917969 326.90625 814.625 326.570312 815.316406 326.199219 C 816.007812 325.832031 816.679688 325.429688 817.332031 324.992188 C 817.980469 324.554688 818.609375 324.089844 819.21875 323.59375 C 819.824219 323.09375 820.402344 322.570312 820.957031 322.015625 C 821.511719 321.460938 822.039062 320.878906 822.535156 320.273438 C 823.03125 319.667969 823.5 319.039062 823.933594 318.386719 C 824.371094 317.734375 824.773438 317.066406 825.144531 316.375 C 825.511719 315.683594 825.847656 314.972656 826.148438 314.25 C 826.449219 313.527344 826.714844 312.789062 826.941406 312.039062 C 827.167969 311.289062 827.359375 310.53125 827.511719 309.761719 C 827.667969 308.992188 827.78125 308.21875 827.859375 307.4375 C 827.9375 306.65625 827.976562 305.875 827.976562 305.089844 L 827.976562 197.085938 C 827.976562 196.203125 827.785156 195.367188 827.394531 194.578125 C 827.003906 193.789062 826.457031 193.125 825.757812 192.589844 Z M 653.828125 147.261719 L 786.167969 147.261719 C 787 147.265625 787.820312 147.347656 788.632812 147.507812 C 789.445312 147.671875 790.234375 147.910156 791 148.226562 C 791.765625 148.546875 792.492188 148.933594 793.179688 149.394531 C 793.867188 149.855469 794.503906 150.378906 795.089844 150.964844 C 795.675781 151.550781 796.199219 152.1875 796.660156 152.875 C 797.121094 153.566406 797.511719 154.292969 797.828125 155.058594 C 798.144531 155.824219 798.386719 156.613281 798.546875 157.425781 C 798.710938 158.238281 798.792969 159.058594 798.792969 159.886719 L 798.792969 207.933594 L 720.195312 267.949219 L 641.203125 207.875 L 641.203125 159.886719 C 641.203125 159.058594 641.285156 158.238281 641.449219 157.425781 C 641.609375 156.613281 641.851562 155.824219 642.167969 155.058594 C 642.484375 154.292969 642.875 153.566406 643.335938 152.875 C 643.796875 152.1875 644.320312 151.550781 644.90625 150.964844 C 645.492188 150.378906 646.128906 149.855469 646.816406 149.394531 C 647.507812 148.933594 648.234375 148.542969 649 148.226562 C 649.765625 147.910156 650.554688 147.667969 651.367188 147.507812 C 652.179688 147.34375 653 147.265625 653.828125 147.261719 Z M 720.234375 126.234375 L 732.933594 135.945312 L 707.453125 135.945312 Z M 685.300781 290.242188 C 685.300781 290.613281 685.261719 290.980469 685.191406 291.34375 C 685.117188 291.707031 685.011719 292.0625 684.867188 292.40625 C 684.726562 292.75 684.550781 293.074219 684.34375 293.382812 C 684.140625 293.691406 683.90625 293.976562 683.640625 294.242188 C 683.378906 294.503906 683.09375 294.738281 682.785156 294.945312 C 682.476562 295.152344 682.148438 295.324219 681.804688 295.46875 C 681.464844 295.609375 681.109375 295.71875 680.746094 295.789062 C 680.382812 295.863281 680.011719 295.898438 679.640625 295.898438 L 649.820312 295.898438 C 649.445312 295.902344 649.078125 295.867188 648.710938 295.796875 C 648.34375 295.726562 647.984375 295.621094 647.640625 295.480469 C 647.292969 295.339844 646.964844 295.167969 646.652344 294.960938 C 646.339844 294.753906 646.050781 294.519531 645.785156 294.257812 C 645.519531 293.996094 645.285156 293.707031 645.074219 293.398438 C 644.867188 293.089844 644.691406 292.761719 644.546875 292.414062 C 644.402344 292.070312 644.296875 291.714844 644.222656 291.347656 C 644.148438 290.984375 644.113281 290.613281 644.113281 290.238281 C 644.113281 289.863281 644.148438 289.496094 644.222656 289.128906 C 644.296875 288.761719 644.402344 288.40625 644.546875 288.0625 C 644.691406 287.714844 644.867188 287.390625 645.074219 287.078125 C 645.285156 286.769531 645.519531 286.484375 645.785156 286.21875 C 646.050781 285.957031 646.339844 285.722656 646.652344 285.515625 C 646.964844 285.308594 647.292969 285.136719 647.640625 284.996094 C 647.984375 284.855469 648.34375 284.75 648.710938 284.679688 C 649.078125 284.609375 649.445312 284.574219 649.820312 284.578125 L 679.640625 284.578125 C 680.011719 284.578125 680.382812 284.617188 680.746094 284.6875 C 681.109375 284.761719 681.464844 284.867188 681.808594 285.011719 C 682.152344 285.152344 682.476562 285.328125 682.785156 285.535156 C 683.09375 285.738281 683.378906 285.976562 683.644531 286.238281 C 683.90625 286.5 684.140625 286.785156 684.347656 287.09375 C 684.554688 287.40625 684.726562 287.730469 684.871094 288.074219 C 685.011719 288.417969 685.121094 288.773438 685.191406 289.136719 C 685.265625 289.5 685.300781 289.867188 685.300781 290.242188 Z M 685.300781 290.242188 " clip-rule="evenodd"/></clipPath><linearGradient x1="256.000001" gradientTransform="matrix(0.421802, 0, 0, 0.421802, 612.015416, 113.266027)" y1="511.223913" x2="256.00101" gradientUnits="userSpaceOnUse" y2="0.45427" id="3681ba6af4"><stop stop-opacity="1" stop-color="rgb(0%, 47.807312%, 71.411133%)" offset="0"/><stop stop-opacity="1" stop-color="rgb(0%, 47.911072%, 71.566772%)" offset="0.00000197793"/><stop stop-opacity="1" stop-color="rgb(0%, 48.016357%, 71.723938%)" offset="0.015625"/><stop stop-opacity="1" stop-color="rgb(0%, 48.120117%, 71.879578%)" offset="0.03125"/><stop stop-opacity="1" stop-color="rgb(0%, 48.330688%, 72.192383%)" offset="0.046875"/><stop stop-opacity="1" stop-color="rgb(0%, 48.539734%, 72.503662%)" offset="0.0625"/><stop stop-opacity="1" stop-color="rgb(0%, 48.748779%, 72.816467%)" offset="0.078125"/><stop stop-opacity="1" stop-color="rgb(0%, 48.957825%, 73.129272%)" offset="0.09375"/><stop stop-opacity="1" stop-color="rgb(0%, 49.16687%, 73.440552%)" offset="0.109375"/><stop stop-opacity="1" stop-color="rgb(0%, 49.375916%, 73.753357%)" offset="0.125"/><stop stop-opacity="1" stop-color="rgb(0%, 49.584961%, 74.066162%)" offset="0.140625"/><stop stop-opacity="1" stop-color="rgb(0%, 49.795532%, 74.377441%)" offset="0.15625"/><stop stop-opacity="1" stop-color="rgb(0%, 50.004578%, 74.690247%)" offset="0.171875"/><stop stop-opacity="1" stop-color="rgb(0%, 50.213623%, 75.003052%)" offset="0.1875"/><stop stop-opacity="1" stop-color="rgb(0%, 50.422668%, 75.314331%)" offset="0.203125"/><stop stop-opacity="1" stop-color="rgb(0%, 50.631714%, 75.627136%)" offset="0.21875"/><stop stop-opacity="1" stop-color="rgb(0%, 50.840759%, 75.939941%)" offset="0.234375"/><stop stop-opacity="1" stop-color="rgb(0%, 51.049805%, 76.251221%)" offset="0.25"/><stop stop-opacity="1" stop-color="rgb(0%, 51.25885%, 76.564026%)" offset="0.265625"/><stop stop-opacity="1" stop-color="rgb(0%, 51.469421%, 76.876831%)" offset="0.28125"/><stop stop-opacity="1" stop-color="rgb(0%, 51.678467%, 77.189636%)" offset="0.296875"/><stop stop-opacity="1" stop-color="rgb(0%, 51.887512%, 77.500916%)" offset="0.3125"/><stop stop-opacity="1" stop-color="rgb(0%, 52.096558%, 77.813721%)" offset="0.328125"/><stop stop-opacity="1" stop-color="rgb(0%, 52.305603%, 78.126526%)" offset="0.34375"/><stop stop-opacity="1" stop-color="rgb(0%, 52.514648%, 78.437805%)" offset="0.359375"/><stop stop-opacity="1" stop-color="rgb(0%, 52.723694%, 78.75061%)" offset="0.375"/><stop stop-opacity="1" stop-color="rgb(0%, 52.932739%, 79.063416%)" offset="0.390625"/><stop stop-opacity="1" stop-color="rgb(0%, 53.143311%, 79.374695%)" offset="0.40625"/><stop stop-opacity="1" stop-color="rgb(0%, 53.352356%, 79.6875%)" offset="0.421875"/><stop stop-opacity="1" stop-color="rgb(0%, 53.561401%, 80.000305%)" offset="0.4375"/><stop stop-opacity="1" stop-color="rgb(0%, 53.770447%, 80.311584%)" offset="0.453125"/><stop stop-opacity="1" stop-color="rgb(0%, 53.979492%, 80.62439%)" offset="0.46875"/><stop stop-opacity="1" stop-color="rgb(0%, 54.188538%, 80.937195%)" offset="0.484375"/><stop stop-opacity="1" stop-color="rgb(0%, 54.397583%, 81.248474%)" offset="0.5"/><stop stop-opacity="1" stop-color="rgb(0%, 54.608154%, 81.561279%)" offset="0.515625"/><stop stop-opacity="1" stop-color="rgb(0%, 54.8172%, 81.874084%)" offset="0.53125"/><stop stop-opacity="1" stop-color="rgb(0%, 55.026245%, 82.185364%)" offset="0.546875"/><stop stop-opacity="1" stop-color="rgb(0%, 55.235291%, 82.498169%)" offset="0.5625"/><stop stop-opacity="1" stop-color="rgb(0%, 55.444336%, 82.810974%)" offset="0.578125"/><stop stop-opacity="1" stop-color="rgb(0%, 55.653381%, 83.122253%)" offset="0.59375"/><stop stop-opacity="1" stop-color="rgb(0%, 55.862427%, 83.435059%)" offset="0.609375"/><stop stop-opacity="1" stop-color="rgb(0%, 56.071472%, 83.747864%)" offset="0.625"/><stop stop-opacity="1" stop-color="rgb(0%, 56.282043%, 84.059143%)" offset="0.640625"/><stop stop-opacity="1" stop-color="rgb(0%, 56.491089%, 84.371948%)" offset="0.65625"/><stop stop-opacity="1" stop-color="rgb(0%, 56.700134%, 84.684753%)" offset="0.671875"/><stop stop-opacity="1" stop-color="rgb(0%, 56.90918%, 84.996033%)" offset="0.6875"/><stop stop-opacity="1" stop-color="rgb(0%, 57.118225%, 85.308838%)" offset="0.703125"/><stop stop-opacity="1" stop-color="rgb(0%, 57.327271%, 85.621643%)" offset="0.71875"/><stop stop-opacity="1" stop-color="rgb(0%, 57.536316%, 85.932922%)" offset="0.734375"/><stop stop-opacity="1" stop-color="rgb(0%, 57.745361%, 86.245728%)" offset="0.75"/><stop stop-opacity="1" stop-color="rgb(0%, 57.955933%, 86.558533%)" offset="0.765625"/><stop stop-opacity="1" stop-color="rgb(0%, 58.164978%, 86.869812%)" offset="0.78125"/><stop stop-opacity="1" stop-color="rgb(0%, 58.374023%, 87.182617%)" offset="0.796875"/><stop stop-opacity="1" stop-color="rgb(0%, 58.583069%, 87.495422%)" offset="0.8125"/><stop stop-opacity="1" stop-color="rgb(0%, 58.792114%, 87.806702%)" offset="0.828125"/><stop stop-opacity="1" stop-color="rgb(0%, 59.00116%, 88.119507%)" offset="0.84375"/><stop stop-opacity="1" stop-color="rgb(0%, 59.210205%, 88.432312%)" offset="0.859375"/><stop stop-opacity="1" stop-color="rgb(0%, 59.420776%, 88.743591%)" offset="0.875"/><stop stop-opacity="1" stop-color="rgb(0%, 59.629822%, 89.056396%)" offset="0.890625"/><stop stop-opacity="1" stop-color="rgb(0%, 59.838867%, 89.369202%)" offset="0.90625"/><stop stop-opacity="1" stop-color="rgb(0%, 60.047913%, 89.680481%)" offset="0.921875"/><stop stop-opacity="1" stop-color="rgb(0%, 60.256958%, 89.993286%)" offset="0.9375"/><stop stop-opacity="1" stop-color="rgb(0%, 60.466003%, 90.306091%)" offset="0.953125"/><stop stop-opacity="1" stop-color="rgb(0%, 60.675049%, 90.617371%)" offset="0.96875"/><stop stop-opacity="1" stop-color="rgb(0%, 60.884094%, 90.930176%)" offset="0.984375"/><stop stop-opacity="1" stop-color="rgb(0%, 61.094666%, 91.242981%)" offset="0.999998"/><stop stop-opacity="1" stop-color="rgb(0%, 61.199951%, 91.398621%)" offset="1"/></linearGradient><clipPath id="f1b9d53e3e"><path d="M 1166 15.703125 L 1249 15.703125 L 1249 79 L 1166 79 Z M 1166 15.703125 " clip-rule="nonzero"/></clipPath><clipPath id="c5cd91149b"><path d="M 1128 364 L 1212 364 L 1212 426.757812 L 1128 426.757812 Z M 1128 364 " clip-rule="nonzero"/></clipPath></defs><path fill="#000000" d="M 484.421875 49.75 L 416.324219 72.695312 C 413.804688 73.453125 412.542969 75.976562 413.300781 78.496094 L 427.675781 120.863281 C 428.433594 123.386719 430.953125 124.644531 433.476562 123.636719 L 501.824219 100.6875 C 504.34375 99.933594 505.605469 97.410156 504.847656 94.886719 L 490.472656 52.523438 C 489.464844 50.253906 486.941406 48.992188 484.421875 49.75 Z M 416.832031 78.496094 L 444.066406 91.105469 L 430.449219 118.59375 Z M 465.253906 89.089844 C 463.234375 92.617188 458.695312 94.382812 454.914062 92.617188 L 418.34375 75.722656 L 484.167969 53.53125 Z M 447.09375 92.367188 L 453.652344 95.394531 C 459.199219 97.914062 465.503906 95.644531 468.28125 90.347656 L 471.558594 84.042969 L 499.300781 97.664062 L 433.476562 119.855469 Z M 473.324219 81.269531 L 487.445312 54.792969 L 501.066406 94.886719 Z M 473.324219 81.269531 " fill-opacity="0.15" fill-rule="nonzero"/><g clip-path="url(#3a75eeaa1a)"><path fill="#000000" d="M 266.265625 29.320312 L 200.945312 15.703125 C 198.675781 15.199219 196.40625 16.710938 195.902344 18.980469 L 187.578125 59.582031 C 187.074219 61.851562 188.585938 64.121094 190.855469 64.625 L 256.175781 78.246094 C 258.449219 78.75 260.71875 77.234375 261.222656 74.964844 L 269.796875 34.363281 C 270.046875 32.09375 268.789062 29.824219 266.265625 29.320312 Z M 198.929688 20.746094 L 214.816406 43.445312 L 191.109375 58.828125 Z M 232.722656 51.765625 C 229.445312 53.78125 225.15625 52.773438 222.886719 49.75 L 201.449219 18.980469 L 264.5 32.09375 Z M 216.582031 45.964844 L 220.363281 51.511719 C 223.390625 56.050781 229.695312 57.3125 234.488281 54.539062 L 240.035156 51.007812 L 255.925781 74.714844 L 192.875 61.601562 Z M 242.8125 49.242188 L 266.519531 34.617188 L 258.699219 72.949219 Z M 242.8125 49.242188 " fill-opacity="0.15" fill-rule="nonzero"/></g><g clip-path="url(#21e28f2f3c)"><path fill="#000000" d="M 304.097656 377.835938 L 238.777344 364.21875 C 236.507812 363.714844 234.234375 365.226562 233.730469 367.496094 L 225.410156 408.097656 C 224.90625 410.367188 226.417969 412.636719 228.6875 413.140625 L 294.007812 426.757812 C 296.277344 427.261719 298.546875 425.75 299.050781 423.480469 L 307.375 382.878906 C 307.878906 380.609375 306.367188 378.339844 304.097656 377.835938 Z M 236.507812 369.261719 L 252.394531 391.957031 L 228.6875 407.339844 Z M 270.554688 400.277344 C 267.273438 402.296875 262.988281 401.289062 260.71875 398.261719 L 239.28125 367.496094 L 302.332031 380.609375 Z M 254.160156 394.480469 L 257.941406 400.027344 C 260.96875 404.566406 267.273438 405.828125 272.066406 403.054688 L 277.613281 399.523438 L 293.503906 423.226562 L 230.453125 410.113281 Z M 280.390625 397.757812 L 304.097656 383.132812 L 296.277344 421.460938 Z M 280.390625 397.757812 " fill-opacity="0.15" fill-rule="nonzero"/></g><path fill="#000000" d="M 195.902344 148.601562 L 149.242188 154.152344 C 147.480469 154.402344 146.46875 155.917969 146.722656 157.429688 L 150.253906 186.429688 C 150.503906 188.195312 152.019531 189.203125 153.53125 188.953125 L 200.441406 183.402344 C 202.207031 183.152344 203.214844 181.636719 202.964844 180.125 L 199.433594 151.125 C 199.179688 149.613281 197.667969 148.351562 195.902344 148.601562 Z M 148.738281 157.933594 L 164.375 169.535156 L 152.019531 185.167969 Z M 178.5 171.300781 C 176.734375 173.316406 173.707031 173.820312 171.4375 172.054688 L 150.253906 156.421875 L 195.398438 150.871094 Z M 166.394531 171.046875 L 170.175781 173.820312 C 173.203125 176.089844 177.742188 175.585938 180.265625 172.558594 L 183.292969 169.03125 L 199.179688 181.386719 L 153.785156 186.683594 Z M 184.550781 167.265625 L 197.164062 152.132812 L 200.441406 179.621094 Z M 184.550781 167.265625 " fill-opacity="0.15" fill-rule="nonzero"/><path fill="#000000" d="M 124.023438 375.3125 L 77.367188 380.859375 C 75.601562 381.113281 74.59375 382.625 74.84375 384.140625 L 78.375 413.140625 C 78.628906 414.90625 80.140625 415.914062 81.652344 415.664062 L 128.5625 410.113281 C 130.328125 409.863281 131.335938 408.347656 131.085938 406.835938 L 127.554688 377.835938 C 127.050781 376.070312 125.535156 375.0625 124.023438 375.3125 Z M 76.863281 384.644531 L 92.5 396.246094 L 80.140625 411.878906 Z M 106.621094 397.757812 C 104.855469 399.773438 101.828125 400.277344 99.558594 398.515625 L 78.375 382.878906 L 123.519531 377.332031 Z M 94.515625 397.503906 L 98.300781 400.277344 C 101.324219 402.546875 105.863281 402.042969 108.386719 399.019531 L 111.414062 395.488281 L 127.300781 407.84375 L 82.15625 413.390625 Z M 112.675781 393.976562 L 125.285156 378.84375 L 128.5625 406.332031 Z M 112.675781 393.976562 " fill-opacity="0.15" fill-rule="nonzero"/><path fill="#097bb7" d="M 119.988281 97.15625 L 92.246094 59.332031 C 91.238281 58.070312 89.472656 57.566406 87.957031 58.574219 L 64.503906 75.722656 C 63.242188 76.730469 62.992188 78.75 64 80.007812 L 91.992188 118.089844 C 93.003906 119.351562 94.769531 119.855469 96.28125 118.84375 L 119.734375 101.699219 C 120.746094 100.4375 120.996094 98.417969 119.988281 97.15625 Z M 88.714844 60.84375 L 86.195312 80.261719 L 66.523438 77.234375 Z M 91.742188 93.125 C 89.21875 92.617188 87.203125 90.097656 87.453125 87.324219 L 90.984375 61.097656 L 117.972656 97.664062 Z M 86.195312 82.28125 L 85.6875 86.820312 C 85.183594 90.601562 87.957031 94.382812 91.742188 95.140625 L 96.28125 95.898438 L 93.253906 116.070312 L 66.269531 79.253906 Z M 98.300781 96.402344 L 117.71875 99.933594 L 95.523438 116.324219 Z M 98.300781 96.402344 " fill-opacity="0.15" fill-rule="nonzero"/><path fill="#097bb7" d="M 522.503906 383.636719 L 494.761719 345.808594 C 493.753906 344.546875 491.988281 344.042969 490.472656 345.050781 L 467.019531 362.199219 C 465.757812 363.207031 465.503906 364.972656 466.515625 366.488281 L 494.507812 404.566406 C 495.519531 405.828125 497.28125 406.332031 498.796875 405.324219 L 522.25 388.175781 C 523.261719 386.914062 523.511719 385.148438 522.503906 383.636719 Z M 491.230469 347.320312 L 488.707031 366.738281 L 469.035156 363.714844 Z M 494.257812 379.601562 C 491.734375 379.097656 489.71875 376.574219 489.96875 373.800781 L 493.246094 347.574219 L 520.234375 384.140625 Z M 488.457031 369.007812 L 487.953125 373.546875 C 487.445312 377.332031 490.222656 381.113281 494.003906 381.871094 L 498.542969 382.625 L 495.519531 402.550781 L 468.53125 365.984375 Z M 500.8125 383.132812 L 520.234375 386.660156 L 498.039062 403.054688 Z M 500.8125 383.132812 " fill-opacity="0.15" fill-rule="nonzero"/><path fill="#097bb7" d="M 405.230469 161.96875 L 325.28125 116.070312 C 322.507812 114.304688 318.976562 115.316406 317.210938 118.089844 L 288.460938 167.515625 C 286.945312 170.289062 287.703125 173.820312 290.730469 175.585938 L 370.929688 221.734375 C 373.703125 223.5 377.234375 222.492188 379 219.71875 L 407.5 170.039062 C 409.011719 167.011719 408.003906 163.480469 405.230469 161.96875 Z M 319.984375 121.367188 L 331.082031 158.1875 L 293 168.273438 Z M 351.257812 176.847656 C 346.214844 178.109375 340.664062 175.082031 339.152344 170.039062 L 324.273438 120.359375 L 401.699219 164.742188 Z M 332.34375 162.21875 L 334.863281 171.046875 C 337.132812 178.359375 344.699219 182.898438 352.265625 180.882812 L 361.09375 178.613281 L 371.6875 216.691406 L 294.261719 172.308594 Z M 365.382812 177.855469 L 402.707031 168.777344 L 375.722656 215.683594 Z M 365.382812 177.855469 " fill-opacity="0.15" fill-rule="nonzero"/><path fill="#000000" d="M 260.96875 230.8125 L 200.1875 245.441406 C 197.917969 245.945312 196.65625 247.960938 197.164062 250.230469 L 206.242188 287.804688 C 206.746094 290.078125 208.765625 291.335938 211.035156 290.832031 L 271.8125 276.207031 C 274.085938 275.703125 275.34375 273.683594 274.839844 271.414062 L 265.761719 233.839844 C 265.257812 231.570312 262.988281 230.308594 260.96875 230.8125 Z M 200.1875 250.484375 L 222.636719 263.597656 L 208.511719 286.292969 Z M 241.296875 263.34375 C 239.28125 266.371094 235.246094 267.378906 232.21875 265.613281 L 201.703125 248.214844 L 260.464844 234.09375 Z M 225.410156 264.859375 L 230.707031 267.882812 C 235.246094 270.40625 241.046875 269.144531 243.820312 264.859375 L 247.097656 259.5625 L 270.046875 273.433594 L 211.285156 287.554688 Z M 248.863281 257.292969 L 262.988281 235.351562 L 271.5625 270.910156 Z M 248.863281 257.292969 " fill-opacity="0.15" fill-rule="nonzero"/><path fill="#000000" d="M 393.375 269.902344 L 341.925781 305.207031 C 340.160156 306.46875 339.65625 308.988281 340.917969 310.753906 L 362.859375 342.78125 C 364.121094 344.546875 366.640625 345.050781 368.40625 343.789062 L 420.109375 308.234375 C 421.875 306.972656 422.378906 304.449219 421.117188 302.683594 L 399.175781 270.660156 C 397.664062 268.894531 395.140625 268.390625 393.375 269.902344 Z M 343.691406 309.746094 L 369.417969 313.78125 L 364.371094 340.007812 Z M 386.820312 306.972656 C 386.0625 310.503906 382.53125 312.773438 379 312.269531 L 344.449219 306.972656 L 394.132812 272.675781 Z M 372.441406 314.285156 L 378.496094 315.292969 C 383.539062 316.050781 388.582031 312.773438 389.59375 307.730469 L 390.855469 301.675781 L 417.082031 306.46875 L 367.398438 340.765625 Z M 391.609375 298.648438 L 397.160156 273.179688 L 417.839844 303.441406 Z M 391.609375 298.648438 " fill-opacity="0.15" fill-rule="nonzero"/><path fill="#000000" d="M 501.316406 201.308594 L 449.113281 201.308594 C 447.347656 201.308594 445.832031 202.820312 445.832031 204.585938 L 445.832031 236.867188 C 445.832031 238.632812 447.347656 240.144531 449.113281 240.144531 L 501.316406 240.144531 C 503.082031 240.144531 504.597656 238.632812 504.597656 236.867188 L 504.597656 204.585938 C 504.847656 202.820312 503.335938 201.308594 501.316406 201.308594 Z M 448.355469 205.34375 L 464.246094 220.222656 L 448.355469 235.855469 Z M 479.375 223.753906 C 477.105469 225.769531 473.574219 225.769531 471.558594 223.753906 L 450.375 203.578125 L 500.8125 203.578125 Z M 466.011719 221.988281 L 469.792969 225.519531 C 472.820312 228.542969 477.863281 228.542969 481.140625 225.519531 L 484.925781 221.988281 L 500.8125 237.621094 L 450.375 237.621094 Z M 486.4375 220.222656 L 502.328125 205.34375 L 502.328125 235.855469 Z M 486.4375 220.222656 " fill-opacity="0.15" fill-rule="nonzero"/><path fill="#097bb7" d="M 141.171875 281.753906 L 73.835938 240.144531 C 71.3125 238.632812 68.285156 239.386719 66.773438 241.65625 L 41.050781 283.519531 C 39.535156 285.789062 40.292969 289.066406 42.816406 290.328125 L 110.40625 332.191406 C 112.925781 333.703125 115.953125 332.945312 117.464844 330.675781 L 143.441406 288.816406 C 144.453125 286.292969 143.695312 283.265625 141.171875 281.753906 Z M 69.546875 244.683594 L 77.871094 276.710938 L 45.085938 284.277344 Z M 94.515625 293.101562 C 89.976562 294.109375 85.4375 291.085938 84.429688 286.796875 L 73.078125 243.925781 L 138.148438 284.277344 Z M 78.878906 279.988281 L 80.898438 287.554688 C 82.664062 293.859375 88.96875 297.894531 95.523438 296.632812 L 103.089844 294.867188 L 111.160156 327.902344 L 46.09375 287.554688 Z M 106.875 294.363281 L 139.15625 287.554688 L 114.691406 327.148438 Z M 106.875 294.363281 " fill-opacity="0.15" fill-rule="nonzero"/><g clip-path="url(#496186daa5)"><g clip-path="url(#fc4c043217)"><path fill="url(#3681ba6af4)" d="M 612.015625 113.457031 L 612.015625 328.902344 L 827.652344 328.902344 L 827.652344 113.457031 Z M 612.015625 113.457031 " fill-rule="nonzero"/></g></g><path fill="#000000" d="M 945.84375 52.523438 L 931.46875 94.886719 C 930.710938 97.410156 931.972656 99.933594 934.496094 100.6875 L 1002.839844 123.636719 C 1005.363281 124.644531 1007.886719 123.386719 1008.640625 120.863281 L 1023.015625 78.496094 C 1023.773438 75.976562 1022.511719 73.453125 1019.992188 72.695312 L 951.898438 49.75 C 949.375 48.992188 946.851562 50.253906 945.84375 52.523438 Z M 1005.867188 118.59375 L 992.25 91.105469 L 1019.488281 78.496094 Z M 952.148438 53.53125 L 1017.972656 75.722656 L 981.402344 92.617188 C 977.621094 94.382812 973.082031 92.617188 971.0625 89.089844 Z M 1002.839844 119.855469 L 937.015625 97.664062 L 964.757812 84.042969 L 968.039062 90.347656 C 970.8125 95.644531 977.117188 97.914062 982.664062 95.394531 L 989.222656 92.367188 Z M 935.25 94.886719 L 948.871094 54.792969 L 962.992188 81.269531 Z M 935.25 94.886719 " fill-opacity="0.15" fill-rule="nonzero"/><g clip-path="url(#f1b9d53e3e)"><path fill="#000000" d="M 1166.519531 34.363281 L 1175.09375 74.964844 C 1175.601562 77.234375 1177.871094 78.75 1180.140625 78.246094 L 1245.460938 64.625 C 1247.730469 64.121094 1249.242188 61.851562 1248.738281 59.582031 L 1215.195312 18.980469 C 1214.691406 16.710938 1212.421875 15.199219 1210.152344 15.703125 L 1170.050781 29.320312 C 1167.53125 29.824219 1166.269531 32.09375 1166.519531 34.363281 Z M 1245.207031 58.828125 L 1221.5 43.445312 L 1212.167969 20.746094 Z M 1171.816406 32.09375 L 1209.648438 18.980469 L 1213.429688 49.75 C 1211.160156 52.773438 1206.871094 53.78125 1203.59375 51.765625 Z M 1243.441406 61.601562 L 1180.390625 74.714844 L 1196.28125 51.007812 L 1201.828125 54.539062 C 1206.621094 57.3125 1212.925781 56.050781 1215.953125 51.511719 L 1219.734375 45.964844 Z M 1177.617188 72.949219 L 1169.800781 34.617188 L 1193.507812 49.242188 Z M 1177.617188 72.949219 " fill-opacity="0.15" fill-rule="nonzero"/></g><g clip-path="url(#c5cd91149b)"><path fill="#000000" d="M 1128.941406 382.878906 L 1137.265625 423.480469 C 1137.769531 425.75 1140.039062 427.261719 1142.308594 426.757812 L 1207.628906 413.140625 C 1209.898438 412.636719 1211.414062 410.367188 1210.90625 408.097656 L 1202.585938 367.496094 C 1202.082031 365.226562 1199.8125 363.714844 1197.542969 364.21875 L 1132.222656 377.835938 C 1129.953125 378.339844 1128.4375 380.609375 1128.941406 382.878906 Z M 1207.628906 407.339844 L 1183.921875 391.957031 L 1199.8125 369.261719 Z M 1133.988281 380.609375 L 1197.035156 367.496094 L 1175.601562 398.261719 C 1173.328125 401.289062 1169.042969 402.296875 1165.765625 400.277344 Z M 1205.863281 410.113281 L 1142.8125 423.226562 L 1158.703125 399.523438 L 1164.25 403.054688 C 1169.042969 405.828125 1175.347656 404.566406 1178.375 400.027344 L 1182.15625 394.480469 Z M 1140.039062 421.460938 L 1132.222656 383.132812 L 1155.929688 397.757812 Z M 1140.039062 421.460938 " fill-opacity="0.15" fill-rule="nonzero"/></g><path fill="#000000" d="M 1236.886719 151.125 L 1233.355469 180.125 C 1233.101562 181.636719 1234.109375 183.152344 1235.875 183.402344 L 1282.785156 188.953125 C 1284.300781 189.203125 1285.8125 188.195312 1286.0625 186.429688 L 1289.59375 157.429688 C 1289.847656 155.917969 1288.839844 154.402344 1287.074219 154.152344 L 1240.414062 148.601562 C 1238.652344 148.351562 1237.136719 149.613281 1236.886719 151.125 Z M 1284.300781 185.167969 L 1271.941406 169.535156 L 1287.578125 157.933594 Z M 1240.921875 150.871094 L 1286.0625 156.421875 L 1264.878906 172.054688 C 1262.609375 173.820312 1259.582031 173.316406 1257.816406 171.300781 Z M 1282.535156 186.683594 L 1237.136719 181.386719 L 1253.027344 169.03125 L 1256.050781 172.558594 C 1258.574219 175.585938 1263.113281 176.089844 1266.140625 173.820312 L 1269.921875 171.046875 Z M 1235.875 179.621094 L 1239.15625 152.132812 L 1251.765625 167.265625 Z M 1235.875 179.621094 " fill-opacity="0.15" fill-rule="nonzero"/><path fill="#000000" d="M 1308.761719 377.835938 L 1305.230469 406.835938 C 1304.980469 408.347656 1305.988281 409.863281 1307.753906 410.113281 L 1354.664062 415.664062 C 1356.175781 415.914062 1357.691406 414.90625 1357.941406 413.140625 L 1361.472656 384.140625 C 1361.726562 382.625 1360.714844 381.113281 1358.949219 380.859375 L 1312.292969 375.3125 C 1310.78125 375.0625 1309.265625 376.070312 1308.761719 377.835938 Z M 1356.175781 411.878906 L 1343.820312 396.246094 L 1359.457031 384.644531 Z M 1312.796875 377.332031 L 1357.941406 382.878906 L 1336.757812 398.515625 C 1334.488281 400.277344 1331.460938 399.773438 1329.695312 397.757812 Z M 1354.160156 413.390625 L 1309.015625 407.84375 L 1324.902344 395.488281 L 1327.929688 399.019531 C 1330.453125 402.042969 1334.992188 402.546875 1338.019531 400.277344 L 1341.800781 397.503906 Z M 1307.753906 406.332031 L 1311.03125 378.84375 L 1323.640625 393.976562 Z M 1307.753906 406.332031 " fill-opacity="0.15" fill-rule="nonzero"/><path fill="#097bb7" d="M 1316.582031 101.699219 L 1340.035156 118.84375 C 1341.546875 119.855469 1343.3125 119.351562 1344.324219 118.089844 L 1372.316406 80.007812 C 1373.328125 78.75 1373.074219 76.730469 1371.8125 75.722656 L 1348.359375 58.574219 C 1346.84375 57.566406 1345.078125 58.070312 1344.070312 59.332031 L 1316.328125 97.15625 C 1315.320312 98.417969 1315.570312 100.4375 1316.582031 101.699219 Z M 1369.796875 77.234375 L 1350.125 80.261719 L 1347.601562 60.84375 Z M 1318.347656 97.664062 L 1345.332031 61.097656 L 1348.863281 87.324219 C 1349.113281 90.097656 1347.097656 92.617188 1344.574219 93.125 Z M 1370.046875 79.253906 L 1343.0625 116.070312 L 1340.035156 95.898438 L 1344.574219 95.140625 C 1348.359375 94.382812 1351.132812 90.601562 1350.628906 86.820312 L 1350.125 82.28125 Z M 1340.792969 116.324219 L 1318.597656 99.933594 L 1338.019531 96.402344 Z M 1340.792969 116.324219 " fill-opacity="0.15" fill-rule="nonzero"/><path fill="#097bb7" d="M 914.066406 388.175781 L 937.519531 405.324219 C 939.035156 406.332031 940.800781 405.828125 941.808594 404.566406 L 969.804688 366.488281 C 970.8125 364.972656 970.558594 363.207031 969.296875 362.199219 L 945.84375 345.050781 C 944.332031 344.042969 942.566406 344.546875 941.554688 345.808594 L 913.8125 383.636719 C 912.804688 385.148438 913.058594 386.914062 914.066406 388.175781 Z M 967.28125 363.714844 L 947.609375 366.738281 L 945.085938 347.320312 Z M 916.082031 384.140625 L 943.070312 347.574219 L 946.347656 373.800781 C 946.601562 376.574219 944.582031 379.097656 942.0625 379.601562 Z M 967.785156 365.984375 L 940.800781 402.546875 L 937.773438 382.625 L 942.3125 381.871094 C 946.097656 381.113281 948.871094 377.332031 948.367188 373.546875 L 947.859375 369.007812 Z M 938.277344 403.054688 L 916.082031 386.660156 L 935.503906 383.132812 Z M 938.277344 403.054688 " fill-opacity="0.15" fill-rule="nonzero"/><path fill="#097bb7" d="M 1028.816406 170.039062 L 1057.316406 219.71875 C 1059.082031 222.492188 1062.613281 223.5 1065.386719 221.734375 L 1145.585938 175.585938 C 1148.613281 173.820312 1149.371094 170.289062 1147.859375 167.515625 L 1119.105469 118.089844 C 1117.339844 115.316406 1113.808594 114.304688 1111.035156 116.070312 L 1031.089844 161.96875 C 1028.3125 163.480469 1027.304688 167.011719 1028.816406 170.039062 Z M 1143.316406 168.273438 L 1105.234375 158.1875 L 1116.332031 121.367188 Z M 1034.617188 164.742188 L 1112.042969 120.359375 L 1097.164062 170.039062 C 1095.652344 175.082031 1090.101562 178.109375 1085.058594 176.847656 Z M 1142.058594 172.308594 L 1064.628906 216.691406 L 1075.222656 178.613281 L 1084.050781 180.882812 C 1091.617188 182.898438 1099.183594 178.359375 1101.453125 171.046875 L 1103.972656 162.21875 Z M 1060.59375 215.683594 L 1033.609375 168.777344 L 1070.9375 177.855469 Z M 1060.59375 215.683594 " fill-opacity="0.15" fill-rule="nonzero"/><path fill="#000000" d="M 1170.554688 233.839844 L 1161.476562 271.414062 C 1160.972656 273.683594 1162.234375 275.703125 1164.503906 276.207031 L 1225.285156 290.832031 C 1227.554688 291.335938 1229.570312 290.078125 1230.074219 287.804688 L 1239.15625 250.230469 C 1239.660156 247.960938 1238.398438 245.945312 1236.128906 245.441406 L 1175.347656 230.8125 C 1173.328125 230.308594 1171.058594 231.570312 1170.554688 233.839844 Z M 1227.804688 286.292969 L 1213.683594 263.597656 L 1236.128906 250.484375 Z M 1175.851562 234.09375 L 1234.613281 248.214844 L 1204.097656 265.613281 C 1201.070312 267.378906 1197.035156 266.371094 1195.019531 263.34375 Z M 1225.03125 287.554688 L 1166.269531 273.433594 L 1189.21875 259.5625 L 1192.496094 264.859375 C 1195.273438 269.144531 1201.070312 270.40625 1205.613281 267.882812 L 1210.90625 264.859375 Z M 1164.753906 270.910156 L 1173.328125 235.351562 L 1187.453125 257.292969 Z M 1164.753906 270.910156 " fill-opacity="0.15" fill-rule="nonzero"/><path fill="#000000" d="M 1037.140625 270.660156 L 1015.199219 302.683594 C 1013.9375 304.449219 1014.441406 306.972656 1016.207031 308.234375 L 1067.910156 343.789062 C 1069.675781 345.050781 1072.195312 344.546875 1073.457031 342.78125 L 1095.398438 310.753906 C 1096.660156 308.988281 1096.15625 306.46875 1094.390625 305.207031 L 1042.941406 269.902344 C 1041.175781 268.390625 1038.652344 268.894531 1037.140625 270.660156 Z M 1071.945312 340.007812 L 1066.902344 313.78125 L 1092.625 309.746094 Z M 1042.183594 272.675781 L 1091.867188 306.972656 L 1057.316406 312.269531 C 1053.785156 312.773438 1050.253906 310.503906 1049.5 306.972656 Z M 1068.917969 340.765625 L 1019.234375 306.46875 L 1045.464844 301.675781 L 1046.722656 307.730469 C 1047.734375 312.773438 1052.777344 316.050781 1057.820312 315.292969 L 1063.875 314.285156 Z M 1018.476562 303.441406 L 1039.160156 273.179688 L 1044.707031 298.648438 Z M 1018.476562 303.441406 " fill-opacity="0.15" fill-rule="nonzero"/><path fill="#000000" d="M 931.71875 204.585938 L 931.71875 236.867188 C 931.71875 238.632812 933.234375 240.144531 935 240.144531 L 987.203125 240.144531 C 988.96875 240.144531 990.484375 238.632812 990.484375 236.867188 L 990.484375 204.585938 C 990.484375 202.820312 988.96875 201.308594 987.203125 201.308594 L 935 201.308594 C 932.980469 201.308594 931.46875 202.820312 931.71875 204.585938 Z M 987.960938 235.855469 L 972.074219 220.222656 L 987.960938 205.34375 Z M 935.503906 203.578125 L 985.945312 203.578125 L 964.757812 223.753906 C 962.742188 225.769531 959.210938 225.769531 956.941406 223.753906 Z M 985.945312 237.621094 L 935.503906 237.621094 L 951.390625 221.988281 L 955.175781 225.519531 C 958.453125 228.542969 963.496094 228.542969 966.523438 225.519531 L 970.308594 221.988281 Z M 933.988281 235.855469 L 933.988281 205.34375 L 949.878906 220.222656 Z M 933.988281 235.855469 " fill-opacity="0.15" fill-rule="nonzero"/><path fill="#097bb7" d="M 1292.875 288.816406 L 1318.851562 330.675781 C 1320.363281 332.945312 1323.390625 333.703125 1325.914062 332.191406 L 1393.503906 290.328125 C 1396.023438 289.066406 1396.78125 285.789062 1395.269531 283.519531 L 1369.542969 241.65625 C 1368.03125 239.386719 1365.003906 238.632812 1362.480469 240.144531 L 1295.144531 281.753906 C 1292.621094 283.265625 1291.863281 286.292969 1292.875 288.816406 Z M 1391.234375 284.277344 L 1358.445312 276.710938 L 1366.769531 244.683594 Z M 1298.171875 284.277344 L 1363.238281 243.925781 L 1351.890625 286.796875 C 1350.878906 291.085938 1346.339844 294.109375 1341.800781 293.101562 Z M 1390.222656 287.554688 L 1325.15625 327.902344 L 1333.226562 294.867188 L 1340.792969 296.632812 C 1347.347656 297.894531 1353.65625 293.859375 1355.421875 287.554688 L 1357.4375 279.988281 Z M 1321.625 327.148438 L 1297.160156 287.554688 L 1329.441406 294.363281 Z M 1321.625 327.148438 " fill-opacity="0.15" fill-rule="nonzero"/></svg>