<svg xmlns="http://www.w3.org/2000/svg" xmlns:xlink="http://www.w3.org/1999/xlink" width="500" zoomAndPan="magnify" viewBox="0 0 375 374.999991" height="500" preserveAspectRatio="xMidYMid meet" version="1.0"><defs><clipPath id="f23785a8c8"><path d="M 0 4 L 375 4 L 375 371 L 0 371 Z M 0 4 " clip-rule="nonzero"/></clipPath><clipPath id="82f7cbe0af"><path d="M 358.460938 176.109375 L 358.460938 175.246094 C 358.460938 129.761719 340.625 86.886719 308.246094 54.507812 C 275.867188 22.125 232.984375 4.292969 187.5 4.292969 C 142.015625 4.292969 99.132812 22.121094 66.753906 54.507812 C 34.371094 86.894531 16.535156 129.761719 16.535156 175.246094 L 16.535156 176.109375 C 15.382812 176.324219 14.261719 176.632812 13.164062 177.039062 C 12.066406 177.449219 11.011719 177.945312 10 178.539062 C 8.992188 179.128906 8.039062 179.804688 7.144531 180.558594 C 6.253906 181.316406 5.429688 182.144531 4.683594 183.042969 C 3.933594 183.941406 3.265625 184.898438 2.683594 185.914062 C 2.101562 186.929688 1.609375 187.988281 1.210938 189.085938 C 0.8125 190.1875 0.511719 191.3125 0.308594 192.464844 C 0.105469 193.621094 0 194.78125 0 195.953125 L 0 262.609375 C 0 263.269531 0.0351562 263.929688 0.0976562 264.585938 C 0.164062 265.242188 0.261719 265.894531 0.390625 266.542969 C 0.519531 267.191406 0.679688 267.832031 0.871094 268.464844 C 1.066406 269.09375 1.289062 269.714844 1.539062 270.324219 C 1.792969 270.9375 2.074219 271.53125 2.386719 272.113281 C 2.699219 272.695312 3.039062 273.261719 3.40625 273.8125 C 3.773438 274.359375 4.164062 274.890625 4.585938 275.402344 C 5.003906 275.910156 5.445312 276.398438 5.914062 276.867188 C 6.378906 277.335938 6.867188 277.777344 7.378906 278.195312 C 7.890625 278.617188 8.417969 279.007812 8.96875 279.375 C 9.515625 279.742188 10.082031 280.082031 10.664062 280.394531 C 11.246094 280.703125 11.84375 280.988281 12.453125 281.238281 C 13.0625 281.492188 13.683594 281.714844 14.316406 281.90625 C 14.949219 282.101562 15.589844 282.261719 16.238281 282.390625 C 16.882812 282.519531 17.535156 282.617188 18.195312 282.683594 C 18.851562 282.746094 19.507812 282.78125 20.171875 282.78125 L 32.636719 282.78125 L 32.636719 285.660156 C 32.636719 286.59375 32.683594 287.527344 32.773438 288.460938 C 32.867188 289.390625 33.003906 290.316406 33.1875 291.234375 C 33.371094 292.152344 33.597656 293.058594 33.871094 293.957031 C 34.144531 294.851562 34.460938 295.730469 34.816406 296.597656 C 35.175781 297.460938 35.574219 298.304688 36.015625 299.132812 C 36.457031 299.957031 36.941406 300.757812 37.460938 301.535156 C 37.980469 302.316406 38.535156 303.066406 39.132812 303.789062 C 39.726562 304.511719 40.351562 305.207031 41.015625 305.867188 C 41.675781 306.53125 42.367188 307.15625 43.09375 307.753906 C 43.816406 308.347656 44.566406 308.902344 45.34375 309.421875 C 46.121094 309.945312 46.925781 310.425781 47.75 310.867188 C 48.574219 311.308594 49.421875 311.707031 50.285156 312.066406 C 51.148438 312.425781 52.03125 312.742188 52.925781 313.015625 C 53.820312 313.285156 54.726562 313.515625 55.644531 313.699219 C 56.5625 313.882812 57.488281 314.019531 58.417969 314.113281 C 59.351562 314.203125 60.285156 314.25 61.222656 314.253906 L 72.289062 314.253906 C 72.863281 314.253906 73.4375 314.222656 74.007812 314.167969 C 74.578125 314.109375 75.144531 314.027344 75.707031 313.914062 C 76.269531 313.800781 76.824219 313.660156 77.375 313.496094 C 77.921875 313.328125 78.460938 313.132812 78.992188 312.914062 C 79.523438 312.695312 80.039062 312.449219 80.546875 312.179688 C 81.050781 311.910156 81.542969 311.613281 82.019531 311.292969 C 82.496094 310.976562 82.957031 310.632812 83.398438 310.269531 C 83.84375 309.90625 84.269531 309.523438 84.671875 309.117188 C 85.078125 308.710938 85.464844 308.285156 85.828125 307.84375 C 86.191406 307.398438 86.535156 306.9375 86.851562 306.460938 C 87.171875 305.984375 87.464844 305.492188 87.738281 304.988281 C 88.007812 304.480469 88.253906 303.964844 88.472656 303.433594 C 88.691406 302.90625 88.886719 302.367188 89.050781 301.816406 C 89.21875 301.269531 89.359375 300.710938 89.472656 300.148438 C 89.582031 299.585938 89.667969 299.019531 89.722656 298.449219 C 89.78125 297.878906 89.808594 297.304688 89.808594 296.734375 L 89.808594 161.828125 C 89.808594 161.253906 89.78125 160.683594 89.722656 160.113281 C 89.667969 159.539062 89.582031 158.972656 89.472656 158.410156 C 89.359375 157.847656 89.21875 157.292969 89.050781 156.746094 C 88.886719 156.195312 88.691406 155.65625 88.472656 155.125 C 88.253906 154.597656 88.007812 154.078125 87.738281 153.574219 C 87.464844 153.066406 87.171875 152.574219 86.851562 152.097656 C 86.535156 151.621094 86.191406 151.160156 85.828125 150.71875 C 85.464844 150.273438 85.078125 149.851562 84.671875 149.445312 C 84.269531 149.039062 83.84375 148.65625 83.398438 148.289062 C 82.957031 147.925781 82.496094 147.585938 82.019531 147.265625 C 81.542969 146.949219 81.050781 146.652344 80.546875 146.382812 C 80.039062 146.113281 79.523438 145.867188 78.992188 145.648438 C 78.460938 145.425781 77.921875 145.234375 77.375 145.066406 C 76.824219 144.898438 76.269531 144.761719 75.707031 144.648438 C 75.144531 144.535156 74.578125 144.449219 74.007812 144.394531 C 73.4375 144.335938 72.863281 144.308594 72.289062 144.308594 L 61.222656 144.308594 C 60.285156 144.308594 59.351562 144.355469 58.421875 144.449219 C 57.488281 144.542969 56.5625 144.679688 55.644531 144.863281 C 54.726562 145.046875 53.820312 145.273438 52.925781 145.546875 C 52.03125 145.820312 51.152344 146.132812 50.285156 146.492188 C 49.421875 146.851562 48.578125 147.25 47.75 147.691406 C 46.925781 148.132812 46.125 148.617188 45.347656 149.136719 C 44.566406 149.65625 43.816406 150.214844 43.09375 150.808594 C 42.371094 151.402344 41.679688 152.027344 41.015625 152.691406 C 40.355469 153.351562 39.726562 154.042969 39.132812 154.769531 C 38.539062 155.492188 37.980469 156.242188 37.460938 157.019531 C 36.941406 157.796875 36.460938 158.601562 36.019531 159.425781 C 35.578125 160.25 35.175781 161.097656 34.820312 161.960938 C 34.460938 162.824219 34.144531 163.707031 33.871094 164.601562 C 33.601562 165.496094 33.371094 166.402344 33.1875 167.320312 C 33.007812 168.238281 32.867188 169.164062 32.777344 170.09375 C 32.683594 171.027344 32.636719 171.960938 32.636719 172.894531 L 32.636719 175.78125 L 28.253906 175.78125 L 28.253906 175.246094 C 28.253906 87.445312 99.695312 16.011719 187.5 16.011719 C 275.300781 16.011719 346.742188 87.445312 346.742188 175.246094 L 346.742188 175.78125 L 342.359375 175.78125 L 342.359375 172.894531 C 342.359375 171.960938 342.3125 171.027344 342.222656 170.09375 C 342.128906 169.164062 341.992188 168.238281 341.808594 167.320312 C 341.625 166.402344 341.394531 165.496094 341.125 164.601562 C 340.851562 163.703125 340.535156 162.824219 340.175781 161.960938 C 339.820312 161.097656 339.417969 160.25 338.976562 159.425781 C 338.535156 158.601562 338.054688 157.796875 337.535156 157.019531 C 337.015625 156.242188 336.457031 155.492188 335.863281 154.769531 C 335.269531 154.042969 334.640625 153.351562 333.980469 152.691406 C 333.320312 152.027344 332.625 151.402344 331.902344 150.804688 C 331.179688 150.210938 330.429688 149.65625 329.648438 149.136719 C 328.871094 148.613281 328.070312 148.132812 327.246094 147.691406 C 326.417969 147.25 325.574219 146.851562 324.710938 146.492188 C 323.847656 146.132812 322.964844 145.816406 322.070312 145.546875 C 321.175781 145.273438 320.269531 145.046875 319.351562 144.863281 C 318.433594 144.679688 317.507812 144.542969 316.578125 144.449219 C 315.644531 144.355469 314.710938 144.308594 313.777344 144.308594 L 302.710938 144.308594 C 302.136719 144.308594 301.5625 144.335938 300.992188 144.394531 C 300.421875 144.449219 299.855469 144.535156 299.292969 144.648438 C 298.730469 144.761719 298.175781 144.898438 297.625 145.066406 C 297.078125 145.234375 296.539062 145.425781 296.007812 145.648438 C 295.476562 145.867188 294.960938 146.113281 294.453125 146.382812 C 293.949219 146.652344 293.457031 146.949219 292.980469 147.265625 C 292.503906 147.585938 292.042969 147.925781 291.601562 148.289062 C 291.15625 148.65625 290.734375 149.039062 290.328125 149.445312 C 289.921875 149.851562 289.535156 150.277344 289.171875 150.71875 C 288.808594 151.164062 288.46875 151.621094 288.148438 152.097656 C 287.828125 152.574219 287.535156 153.066406 287.265625 153.574219 C 286.992188 154.078125 286.75 154.597656 286.527344 155.125 C 286.308594 155.65625 286.117188 156.195312 285.949219 156.746094 C 285.78125 157.292969 285.640625 157.847656 285.53125 158.410156 C 285.417969 158.972656 285.332031 159.542969 285.277344 160.113281 C 285.21875 160.683594 285.191406 161.253906 285.191406 161.828125 L 285.191406 296.734375 C 285.191406 297.304688 285.21875 297.878906 285.277344 298.449219 C 285.332031 299.019531 285.417969 299.585938 285.53125 300.148438 C 285.640625 300.710938 285.78125 301.265625 285.949219 301.816406 C 286.117188 302.363281 286.308594 302.90625 286.527344 303.433594 C 286.75 303.964844 286.992188 304.480469 287.265625 304.988281 C 287.535156 305.492188 287.828125 305.984375 288.148438 306.460938 C 288.46875 306.9375 288.808594 307.398438 289.171875 307.84375 C 289.535156 308.285156 289.921875 308.710938 290.328125 309.117188 C 290.734375 309.523438 291.15625 309.90625 291.601562 310.269531 C 292.042969 310.632812 292.503906 310.976562 292.980469 311.292969 C 293.457031 311.613281 293.949219 311.90625 294.453125 312.179688 C 294.960938 312.449219 295.476562 312.695312 296.007812 312.914062 C 296.539062 313.132812 297.078125 313.328125 297.625 313.496094 C 298.175781 313.660156 298.730469 313.800781 299.292969 313.914062 C 299.855469 314.027344 300.421875 314.109375 300.992188 314.167969 C 301.5625 314.222656 302.136719 314.253906 302.710938 314.253906 L 307.917969 314.253906 L 307.917969 328.679688 C 307.914062 329.5 307.835938 330.308594 307.675781 331.109375 C 307.515625 331.910156 307.277344 332.691406 306.964844 333.445312 C 306.652344 334.199219 306.269531 334.917969 305.816406 335.597656 C 305.359375 336.277344 304.84375 336.902344 304.265625 337.480469 C 303.6875 338.058594 303.058594 338.578125 302.378906 339.03125 C 301.699219 339.484375 300.984375 339.867188 300.226562 340.179688 C 299.472656 340.496094 298.695312 340.730469 297.894531 340.890625 C 297.09375 341.050781 296.28125 341.132812 295.464844 341.132812 L 254.898438 341.132812 C 254.570312 339.863281 254.144531 338.632812 253.617188 337.4375 C 253.085938 336.238281 252.464844 335.09375 251.746094 334 C 251.027344 332.90625 250.226562 331.878906 249.335938 330.914062 C 248.449219 329.953125 247.488281 329.074219 246.457031 328.269531 C 245.421875 327.464844 244.328125 326.753906 243.179688 326.132812 C 242.027344 325.507812 240.832031 324.984375 239.597656 324.558594 C 238.359375 324.136719 237.09375 323.8125 235.804688 323.597656 C 234.511719 323.382812 233.214844 323.273438 231.90625 323.269531 L 192.128906 323.269531 C 191.347656 323.265625 190.570312 323.300781 189.792969 323.371094 C 189.019531 323.445312 188.246094 323.554688 187.480469 323.703125 C 186.71875 323.851562 185.960938 324.039062 185.214844 324.261719 C 184.464844 324.484375 183.734375 324.742188 183.011719 325.039062 C 182.289062 325.332031 181.585938 325.664062 180.894531 326.027344 C 180.207031 326.394531 179.539062 326.792969 178.886719 327.222656 C 178.238281 327.652344 177.609375 328.113281 177.007812 328.609375 C 176.402344 329.101562 175.824219 329.621094 175.269531 330.171875 C 174.71875 330.722656 174.195312 331.296875 173.699219 331.898438 C 173.203125 332.5 172.738281 333.125 172.300781 333.769531 C 171.867188 334.417969 171.464844 335.085938 171.097656 335.773438 C 170.730469 336.460938 170.394531 337.164062 170.097656 337.882812 C 169.796875 338.601562 169.535156 339.335938 169.304688 340.082031 C 169.078125 340.828125 168.890625 341.582031 168.738281 342.347656 C 168.585938 343.109375 168.46875 343.878906 168.394531 344.65625 C 168.316406 345.433594 168.277344 346.210938 168.277344 346.988281 C 168.277344 347.769531 168.316406 348.546875 168.394531 349.324219 C 168.46875 350.097656 168.585938 350.867188 168.738281 351.632812 C 168.890625 352.398438 169.078125 353.152344 169.304688 353.898438 C 169.535156 354.644531 169.796875 355.378906 170.097656 356.097656 C 170.394531 356.816406 170.730469 357.519531 171.097656 358.207031 C 171.464844 358.894531 171.867188 359.5625 172.300781 360.207031 C 172.738281 360.855469 173.203125 361.480469 173.699219 362.082031 C 174.195312 362.683594 174.71875 363.257812 175.269531 363.808594 C 175.824219 364.359375 176.402344 364.878906 177.007812 365.371094 C 177.609375 365.863281 178.238281 366.324219 178.886719 366.757812 C 179.539062 367.1875 180.207031 367.585938 180.894531 367.949219 C 181.585938 368.316406 182.289062 368.644531 183.011719 368.941406 C 183.734375 369.234375 184.464844 369.496094 185.214844 369.71875 C 185.960938 369.941406 186.71875 370.128906 187.480469 370.277344 C 188.246094 370.421875 189.019531 370.535156 189.792969 370.605469 C 190.570312 370.679688 191.347656 370.714844 192.128906 370.707031 L 231.90625 370.707031 C 233.214844 370.707031 234.511719 370.597656 235.804688 370.382812 C 237.09375 370.167969 238.359375 369.847656 239.59375 369.421875 C 240.832031 368.996094 242.027344 368.472656 243.179688 367.851562 C 244.328125 367.226562 245.421875 366.515625 246.453125 365.714844 C 247.488281 364.910156 248.449219 364.027344 249.335938 363.066406 C 250.222656 362.105469 251.027344 361.078125 251.746094 359.984375 C 252.464844 358.890625 253.085938 357.746094 253.617188 356.550781 C 254.144531 355.351562 254.570312 354.121094 254.898438 352.851562 L 295.464844 352.851562 C 296.253906 352.851562 297.042969 352.8125 297.832031 352.734375 C 298.621094 352.65625 299.402344 352.539062 300.175781 352.382812 C 300.953125 352.230469 301.71875 352.035156 302.476562 351.804688 C 303.234375 351.574219 303.976562 351.308594 304.710938 351.003906 C 305.441406 350.703125 306.15625 350.363281 306.851562 349.992188 C 307.550781 349.617188 308.226562 349.210938 308.886719 348.769531 C 309.542969 348.332031 310.179688 347.859375 310.789062 347.359375 C 311.402344 346.855469 311.988281 346.324219 312.546875 345.765625 C 313.105469 345.207031 313.636719 344.621094 314.140625 344.007812 C 314.640625 343.398438 315.113281 342.761719 315.550781 342.105469 C 315.992188 341.445312 316.398438 340.769531 316.773438 340.070312 C 317.144531 339.375 317.484375 338.660156 317.785156 337.929688 C 318.089844 337.195312 318.355469 336.453125 318.585938 335.695312 C 318.816406 334.9375 319.011719 334.171875 319.164062 333.394531 C 319.320312 332.621094 319.4375 331.839844 319.515625 331.050781 C 319.59375 330.265625 319.632812 329.472656 319.632812 328.683594 L 319.632812 313.644531 C 321.226562 313.308594 322.78125 312.839844 324.296875 312.238281 C 325.808594 311.636719 327.261719 310.914062 328.652344 310.0625 C 330.039062 309.214844 331.347656 308.253906 332.574219 307.183594 C 333.800781 306.109375 334.925781 304.941406 335.953125 303.675781 C 336.980469 302.414062 337.894531 301.070312 338.691406 299.652344 C 339.488281 298.230469 340.160156 296.753906 340.707031 295.21875 C 341.25 293.683594 341.664062 292.113281 341.941406 290.507812 C 342.21875 288.90625 342.359375 287.289062 342.359375 285.660156 L 342.359375 282.78125 L 354.828125 282.78125 C 355.488281 282.78125 356.144531 282.746094 356.804688 282.683594 C 357.460938 282.617188 358.113281 282.519531 358.761719 282.390625 C 359.40625 282.261719 360.046875 282.101562 360.679688 281.90625 C 361.3125 281.714844 361.933594 281.492188 362.542969 281.242188 C 363.152344 280.988281 363.75 280.707031 364.332031 280.394531 C 364.914062 280.082031 365.480469 279.742188 366.027344 279.375 C 366.578125 279.007812 367.109375 278.617188 367.617188 278.195312 C 368.128906 277.777344 368.617188 277.335938 369.085938 276.867188 C 369.550781 276.402344 369.996094 275.910156 370.414062 275.402344 C 370.832031 274.890625 371.226562 274.359375 371.59375 273.8125 C 371.960938 273.261719 372.300781 272.699219 372.613281 272.113281 C 372.921875 271.53125 373.207031 270.9375 373.457031 270.328125 C 373.710938 269.714844 373.933594 269.09375 374.125 268.464844 C 374.320312 267.832031 374.480469 267.191406 374.609375 266.542969 C 374.738281 265.894531 374.835938 265.242188 374.902344 264.585938 C 374.964844 263.929688 375 263.269531 375 262.609375 L 375 195.953125 C 375 194.78125 374.894531 193.621094 374.691406 192.464844 C 374.488281 191.3125 374.1875 190.1875 373.789062 189.085938 C 373.386719 187.988281 372.898438 186.929688 372.3125 185.914062 C 371.730469 184.898438 371.066406 183.941406 370.316406 183.042969 C 369.566406 182.144531 368.746094 181.316406 367.851562 180.558594 C 366.957031 179.804688 366.003906 179.128906 364.996094 178.539062 C 363.984375 177.949219 362.929688 177.449219 361.832031 177.039062 C 360.738281 176.632812 359.613281 176.324219 358.460938 176.109375 Z M 358.460938 176.109375 " clip-rule="evenodd"/></clipPath><linearGradient x1="256" gradientTransform="matrix(0.732422, 0, 0, 0.732422, 0.0000045, 0)" y1="506.14731" x2="256.00101" gradientUnits="userSpaceOnUse" y2="5.859491" id="c56e103e12"><stop stop-opacity="1" stop-color="rgb(0%, 47.799683%, 71.398926%)" offset="0"/><stop stop-opacity="1" stop-color="rgb(0%, 47.903442%, 71.554565%)" offset="0.00000206613"/><stop stop-opacity="1" stop-color="rgb(0%, 48.008728%, 71.711731%)" offset="0.015625"/><stop stop-opacity="1" stop-color="rgb(0%, 48.112488%, 71.867371%)" offset="0.03125"/><stop stop-opacity="1" stop-color="rgb(0%, 48.321533%, 72.180176%)" offset="0.046875"/><stop stop-opacity="1" stop-color="rgb(0%, 48.530579%, 72.491455%)" offset="0.0625"/><stop stop-opacity="1" stop-color="rgb(0%, 48.74115%, 72.80426%)" offset="0.078125"/><stop stop-opacity="1" stop-color="rgb(0%, 48.950195%, 73.117065%)" offset="0.09375"/><stop stop-opacity="1" stop-color="rgb(0%, 49.159241%, 73.429871%)" offset="0.109375"/><stop stop-opacity="1" stop-color="rgb(0%, 49.368286%, 73.742676%)" offset="0.125"/><stop stop-opacity="1" stop-color="rgb(0%, 49.578857%, 74.053955%)" offset="0.140625"/><stop stop-opacity="1" stop-color="rgb(0%, 49.787903%, 74.36676%)" offset="0.15625"/><stop stop-opacity="1" stop-color="rgb(0%, 49.996948%, 74.679565%)" offset="0.171875"/><stop stop-opacity="1" stop-color="rgb(0%, 50.205994%, 74.992371%)" offset="0.1875"/><stop stop-opacity="1" stop-color="rgb(0%, 50.415039%, 75.305176%)" offset="0.203125"/><stop stop-opacity="1" stop-color="rgb(0%, 50.62561%, 75.616455%)" offset="0.21875"/><stop stop-opacity="1" stop-color="rgb(0%, 50.834656%, 75.92926%)" offset="0.234375"/><stop stop-opacity="1" stop-color="rgb(0%, 51.043701%, 76.242065%)" offset="0.25"/><stop stop-opacity="1" stop-color="rgb(0%, 51.252747%, 76.554871%)" offset="0.265625"/><stop stop-opacity="1" stop-color="rgb(0%, 51.463318%, 76.867676%)" offset="0.28125"/><stop stop-opacity="1" stop-color="rgb(0%, 51.672363%, 77.178955%)" offset="0.296875"/><stop stop-opacity="1" stop-color="rgb(0%, 51.881409%, 77.49176%)" offset="0.3125"/><stop stop-opacity="1" stop-color="rgb(0%, 52.090454%, 77.804565%)" offset="0.328125"/><stop stop-opacity="1" stop-color="rgb(0%, 52.2995%, 78.117371%)" offset="0.34375"/><stop stop-opacity="1" stop-color="rgb(0%, 52.510071%, 78.430176%)" offset="0.359375"/><stop stop-opacity="1" stop-color="rgb(0%, 52.719116%, 78.741455%)" offset="0.375"/><stop stop-opacity="1" stop-color="rgb(0%, 52.928162%, 79.05426%)" offset="0.390625"/><stop stop-opacity="1" stop-color="rgb(0%, 53.137207%, 79.367065%)" offset="0.40625"/><stop stop-opacity="1" stop-color="rgb(0%, 53.346252%, 79.679871%)" offset="0.421875"/><stop stop-opacity="1" stop-color="rgb(0%, 53.556824%, 79.992676%)" offset="0.4375"/><stop stop-opacity="1" stop-color="rgb(0%, 53.765869%, 80.305481%)" offset="0.453125"/><stop stop-opacity="1" stop-color="rgb(0%, 53.974915%, 80.61676%)" offset="0.46875"/><stop stop-opacity="1" stop-color="rgb(0%, 54.18396%, 80.929565%)" offset="0.484375"/><stop stop-opacity="1" stop-color="rgb(0%, 54.394531%, 81.242371%)" offset="0.5"/><stop stop-opacity="1" stop-color="rgb(0%, 54.603577%, 81.555176%)" offset="0.515625"/><stop stop-opacity="1" stop-color="rgb(0%, 54.812622%, 81.867981%)" offset="0.53125"/><stop stop-opacity="1" stop-color="rgb(0%, 55.021667%, 82.17926%)" offset="0.546875"/><stop stop-opacity="1" stop-color="rgb(0%, 55.230713%, 82.492065%)" offset="0.5625"/><stop stop-opacity="1" stop-color="rgb(0%, 55.441284%, 82.804871%)" offset="0.578125"/><stop stop-opacity="1" stop-color="rgb(0%, 55.65033%, 83.117676%)" offset="0.59375"/><stop stop-opacity="1" stop-color="rgb(0%, 55.859375%, 83.430481%)" offset="0.609375"/><stop stop-opacity="1" stop-color="rgb(0%, 56.06842%, 83.74176%)" offset="0.625"/><stop stop-opacity="1" stop-color="rgb(0%, 56.278992%, 84.054565%)" offset="0.640625"/><stop stop-opacity="1" stop-color="rgb(0%, 56.488037%, 84.367371%)" offset="0.65625"/><stop stop-opacity="1" stop-color="rgb(0%, 56.697083%, 84.680176%)" offset="0.671875"/><stop stop-opacity="1" stop-color="rgb(0%, 56.906128%, 84.992981%)" offset="0.6875"/><stop stop-opacity="1" stop-color="rgb(0%, 57.115173%, 85.30426%)" offset="0.703125"/><stop stop-opacity="1" stop-color="rgb(0%, 57.325745%, 85.617065%)" offset="0.71875"/><stop stop-opacity="1" stop-color="rgb(0%, 57.53479%, 85.929871%)" offset="0.734375"/><stop stop-opacity="1" stop-color="rgb(0%, 57.743835%, 86.242676%)" offset="0.75"/><stop stop-opacity="1" stop-color="rgb(0%, 57.952881%, 86.555481%)" offset="0.765625"/><stop stop-opacity="1" stop-color="rgb(0%, 58.161926%, 86.86676%)" offset="0.78125"/><stop stop-opacity="1" stop-color="rgb(0%, 58.372498%, 87.179565%)" offset="0.796875"/><stop stop-opacity="1" stop-color="rgb(0%, 58.581543%, 87.492371%)" offset="0.8125"/><stop stop-opacity="1" stop-color="rgb(0%, 58.790588%, 87.805176%)" offset="0.828125"/><stop stop-opacity="1" stop-color="rgb(0%, 58.999634%, 88.117981%)" offset="0.84375"/><stop stop-opacity="1" stop-color="rgb(0%, 59.210205%, 88.42926%)" offset="0.859375"/><stop stop-opacity="1" stop-color="rgb(0%, 59.41925%, 88.742065%)" offset="0.875"/><stop stop-opacity="1" stop-color="rgb(0%, 59.628296%, 89.054871%)" offset="0.890625"/><stop stop-opacity="1" stop-color="rgb(0%, 59.837341%, 89.367676%)" offset="0.90625"/><stop stop-opacity="1" stop-color="rgb(0%, 60.046387%, 89.680481%)" offset="0.921875"/><stop stop-opacity="1" stop-color="rgb(0%, 60.256958%, 89.99176%)" offset="0.9375"/><stop stop-opacity="1" stop-color="rgb(0%, 60.466003%, 90.304565%)" offset="0.953125"/><stop stop-opacity="1" stop-color="rgb(0%, 60.675049%, 90.617371%)" offset="0.96875"/><stop stop-opacity="1" stop-color="rgb(0%, 60.884094%, 90.930176%)" offset="0.984375"/><stop stop-opacity="1" stop-color="rgb(0%, 61.094666%, 91.242981%)" offset="0.999998"/><stop stop-opacity="1" stop-color="rgb(0%, 61.199951%, 91.398621%)" offset="1"/></linearGradient></defs><g clip-path="url(#f23785a8c8)"><g clip-path="url(#82f7cbe0af)"><path fill="url(#c56e103e12)" d="M 0 4.292969 L 0 370.714844 L 375 370.714844 L 375 4.292969 Z M 0 4.292969 " fill-rule="nonzero"/></g></g></svg>