<svg xmlns="http://www.w3.org/2000/svg" xmlns:xlink="http://www.w3.org/1999/xlink" width="500" zoomAndPan="magnify" viewBox="0 0 375 374.999991" height="500" preserveAspectRatio="xMidYMid meet" version="1.0"><defs><clipPath id="c805c68115"><path d="M 64 0 L 311 0 L 311 375 L 64 375 Z M 64 0 " clip-rule="nonzero"/></clipPath><clipPath id="76fcf306fd"><path d="M 168.171875 284.390625 C 168.171875 284.003906 168.210938 283.625 168.285156 283.246094 C 168.359375 282.871094 168.472656 282.503906 168.617188 282.148438 C 168.765625 281.792969 168.945312 281.457031 169.160156 281.136719 C 169.375 280.820312 169.617188 280.523438 169.890625 280.253906 C 170.160156 279.980469 170.457031 279.738281 170.777344 279.527344 C 171.097656 279.3125 171.4375 279.132812 171.792969 278.988281 C 172.148438 278.839844 172.511719 278.730469 172.890625 278.660156 C 173.269531 278.585938 173.648438 278.546875 174.03125 278.550781 L 208.886719 278.550781 C 209.277344 278.539062 209.667969 278.566406 210.054688 278.632812 C 210.441406 278.699219 210.816406 278.804688 211.179688 278.945312 C 211.546875 279.085938 211.894531 279.265625 212.226562 279.476562 C 212.554688 279.6875 212.859375 279.929688 213.140625 280.203125 C 213.421875 280.476562 213.675781 280.773438 213.894531 281.097656 C 214.117188 281.421875 214.304688 281.765625 214.457031 282.125 C 214.609375 282.484375 214.722656 282.859375 214.800781 283.242188 C 214.878906 283.625 214.917969 284.015625 214.917969 284.40625 C 214.917969 284.800781 214.878906 285.1875 214.800781 285.570312 C 214.722656 285.957031 214.609375 286.328125 214.457031 286.6875 C 214.304688 287.050781 214.117188 287.394531 213.894531 287.714844 C 213.675781 288.039062 213.421875 288.339844 213.140625 288.609375 C 212.859375 288.882812 212.554688 289.125 212.226562 289.339844 C 211.894531 289.550781 211.546875 289.726562 211.179688 289.867188 C 210.816406 290.011719 210.441406 290.113281 210.054688 290.179688 C 209.667969 290.246094 209.277344 290.277344 208.886719 290.265625 L 174.035156 290.265625 C 173.648438 290.261719 173.269531 290.226562 172.890625 290.148438 C 172.511719 290.074219 172.144531 289.964844 171.789062 289.816406 C 171.433594 289.667969 171.097656 289.484375 170.777344 289.273438 C 170.457031 289.058594 170.160156 288.8125 169.886719 288.542969 C 169.617188 288.269531 169.371094 287.972656 169.160156 287.652344 C 168.945312 287.332031 168.765625 286.992188 168.617188 286.636719 C 168.472656 286.28125 168.359375 285.914062 168.285156 285.535156 C 168.210938 285.15625 168.175781 284.773438 168.175781 284.390625 Z M 181.429688 30.003906 C 181.429688 30.386719 181.464844 30.769531 181.542969 31.148438 C 181.617188 31.523438 181.726562 31.890625 181.875 32.25 C 182.019531 32.605469 182.199219 32.941406 182.414062 33.261719 C 182.628906 33.585938 182.871094 33.882812 183.140625 34.152344 C 183.414062 34.425781 183.710938 34.671875 184.03125 34.882812 C 184.351562 35.097656 184.6875 35.28125 185.042969 35.429688 C 185.402344 35.574219 185.765625 35.6875 186.144531 35.761719 C 186.523438 35.839844 186.90625 35.875 187.289062 35.875 L 187.710938 35.875 C 188.101562 35.886719 188.492188 35.859375 188.878906 35.792969 C 189.265625 35.726562 189.640625 35.625 190.007812 35.480469 C 190.371094 35.339844 190.71875 35.164062 191.050781 34.949219 C 191.378906 34.738281 191.683594 34.496094 191.964844 34.222656 C 192.246094 33.949219 192.5 33.652344 192.71875 33.328125 C 192.941406 33.003906 193.128906 32.664062 193.28125 32.300781 C 193.433594 31.941406 193.550781 31.566406 193.628906 31.183594 C 193.707031 30.800781 193.746094 30.410156 193.746094 30.019531 C 193.746094 29.628906 193.707031 29.238281 193.628906 28.855469 C 193.550781 28.472656 193.433594 28.097656 193.28125 27.738281 C 193.128906 27.375 192.941406 27.035156 192.71875 26.710938 C 192.5 26.386719 192.246094 26.089844 191.964844 25.816406 C 191.683594 25.542969 191.378906 25.300781 191.050781 25.089844 C 190.71875 24.875 190.371094 24.699219 190.007812 24.558594 C 189.640625 24.414062 189.265625 24.3125 188.878906 24.246094 C 188.492188 24.179688 188.101562 24.152344 187.710938 24.164062 L 187.289062 24.164062 C 186.90625 24.164062 186.527344 24.199219 186.148438 24.273438 C 185.773438 24.347656 185.40625 24.460938 185.050781 24.605469 C 184.695312 24.753906 184.359375 24.933594 184.039062 25.144531 C 183.722656 25.359375 183.425781 25.601562 183.152344 25.871094 C 182.882812 26.144531 182.640625 26.4375 182.425781 26.757812 C 182.210938 27.074219 182.03125 27.410156 181.882812 27.765625 C 181.734375 28.121094 181.621094 28.484375 181.546875 28.863281 C 181.46875 29.238281 181.433594 29.617188 181.429688 30.003906 Z M 283.597656 311.480469 C 283.597656 311.867188 283.5625 312.246094 283.488281 312.625 C 283.414062 313.003906 283.300781 313.371094 283.15625 313.726562 C 283.007812 314.082031 282.828125 314.421875 282.613281 314.742188 C 282.402344 315.0625 282.15625 315.359375 281.886719 315.632812 C 281.613281 315.90625 281.316406 316.148438 280.996094 316.363281 C 280.675781 316.578125 280.339844 316.757812 279.984375 316.90625 C 279.628906 317.054688 279.261719 317.164062 278.882812 317.242188 C 278.503906 317.316406 278.125 317.355469 277.738281 317.355469 L 174.035156 317.355469 C 173.644531 317.367188 173.253906 317.335938 172.867188 317.269531 C 172.484375 317.203125 172.109375 317.097656 171.742188 316.957031 C 171.378906 316.8125 171.03125 316.636719 170.703125 316.425781 C 170.375 316.210938 170.066406 315.96875 169.789062 315.695312 C 169.507812 315.425781 169.257812 315.125 169.035156 314.800781 C 168.816406 314.480469 168.628906 314.136719 168.476562 313.777344 C 168.324219 313.417969 168.207031 313.042969 168.132812 312.660156 C 168.054688 312.277344 168.015625 311.890625 168.015625 311.496094 C 168.015625 311.105469 168.054688 310.71875 168.132812 310.335938 C 168.207031 309.949219 168.324219 309.578125 168.476562 309.21875 C 168.628906 308.859375 168.816406 308.515625 169.035156 308.191406 C 169.257812 307.867188 169.507812 307.570312 169.789062 307.296875 C 170.066406 307.023438 170.375 306.78125 170.703125 306.570312 C 171.03125 306.359375 171.378906 306.179688 171.742188 306.039062 C 172.109375 305.898438 172.484375 305.792969 172.867188 305.726562 C 173.253906 305.65625 173.644531 305.628906 174.035156 305.640625 L 277.738281 305.640625 C 278.121094 305.640625 278.503906 305.675781 278.878906 305.753906 C 279.253906 305.828125 279.621094 305.9375 279.976562 306.085938 C 280.332031 306.230469 280.667969 306.410156 280.988281 306.625 C 281.304688 306.835938 281.601562 307.078125 281.875 307.347656 C 282.144531 307.621094 282.390625 307.914062 282.601562 308.234375 C 282.816406 308.554688 282.996094 308.890625 283.144531 309.242188 C 283.292969 309.597656 283.40625 309.964844 283.480469 310.339844 C 283.558594 310.714844 283.597656 311.097656 283.597656 311.480469 Z M 152.664062 340.265625 C 152.660156 340.648438 152.621094 341.027344 152.546875 341.40625 C 152.46875 341.78125 152.359375 342.144531 152.210938 342.5 C 152.0625 342.855469 151.882812 343.191406 151.667969 343.511719 C 151.453125 343.828125 151.210938 344.125 150.9375 344.394531 C 150.667969 344.664062 150.371094 344.90625 150.050781 345.121094 C 149.734375 345.332031 149.394531 345.511719 149.039062 345.660156 C 148.6875 345.804688 148.320312 345.917969 147.945312 345.992188 C 147.566406 346.066406 147.1875 346.105469 146.804688 346.105469 L 97.261719 346.105469 C 96.871094 346.113281 96.480469 346.085938 96.097656 346.019531 C 95.710938 345.953125 95.335938 345.847656 94.972656 345.703125 C 94.605469 345.5625 94.257812 345.386719 93.929688 345.171875 C 93.601562 344.960938 93.296875 344.71875 93.015625 344.445312 C 92.734375 344.171875 92.484375 343.875 92.261719 343.550781 C 92.042969 343.226562 91.855469 342.886719 91.703125 342.527344 C 91.550781 342.164062 91.4375 341.792969 91.359375 341.410156 C 91.28125 341.027344 91.242188 340.636719 91.242188 340.246094 C 91.242188 339.855469 91.28125 339.46875 91.359375 339.082031 C 91.4375 338.699219 91.550781 338.328125 91.703125 337.96875 C 91.855469 337.605469 92.042969 337.265625 92.261719 336.941406 C 92.484375 336.617188 92.734375 336.320312 93.015625 336.046875 C 93.296875 335.773438 93.601562 335.53125 93.929688 335.320312 C 94.257812 335.109375 94.605469 334.929688 94.972656 334.789062 C 95.335938 334.644531 95.710938 334.542969 96.097656 334.472656 C 96.480469 334.40625 96.871094 334.378906 97.261719 334.390625 L 146.800781 334.390625 C 147.1875 334.390625 147.570312 334.425781 147.945312 334.503906 C 148.324219 334.578125 148.691406 334.691406 149.046875 334.839844 C 149.402344 334.984375 149.742188 335.167969 150.0625 335.382812 C 150.382812 335.597656 150.675781 335.839844 150.949219 336.113281 C 151.222656 336.386719 151.464844 336.683594 151.679688 337.003906 C 151.890625 337.324219 152.070312 337.660156 152.21875 338.019531 C 152.367188 338.375 152.476562 338.742188 152.550781 339.117188 C 152.625 339.496094 152.664062 339.878906 152.660156 340.265625 Z M 91.402344 318.253906 L 91.402344 277.617188 C 91.402344 277.230469 91.4375 276.851562 91.511719 276.472656 C 91.585938 276.09375 91.699219 275.726562 91.84375 275.371094 C 91.992188 275.015625 92.171875 274.675781 92.386719 274.355469 C 92.597656 274.035156 92.84375 273.738281 93.113281 273.464844 C 93.386719 273.191406 93.683594 272.949219 94.003906 272.734375 C 94.324219 272.519531 94.660156 272.339844 95.015625 272.191406 C 95.371094 272.042969 95.738281 271.933594 96.117188 271.855469 C 96.496094 271.78125 96.875 271.742188 97.261719 271.742188 L 124.226562 271.742188 C 124.617188 271.730469 125.007812 271.757812 125.394531 271.824219 C 125.78125 271.890625 126.15625 271.996094 126.523438 272.136719 C 126.886719 272.28125 127.234375 272.457031 127.566406 272.667969 C 127.894531 272.878906 128.199219 273.121094 128.480469 273.394531 C 128.761719 273.667969 129.015625 273.96875 129.234375 274.289062 C 129.457031 274.613281 129.644531 274.957031 129.796875 275.316406 C 129.949219 275.679688 130.066406 276.050781 130.140625 276.4375 C 130.21875 276.820312 130.257812 277.207031 130.257812 277.601562 C 130.257812 277.992188 130.21875 278.378906 130.140625 278.765625 C 130.066406 279.148438 129.949219 279.519531 129.796875 279.882812 C 129.644531 280.242188 129.457031 280.585938 129.234375 280.910156 C 129.015625 281.234375 128.761719 281.53125 128.480469 281.804688 C 128.199219 282.078125 127.894531 282.320312 127.566406 282.53125 C 127.234375 282.742188 126.886719 282.917969 126.523438 283.0625 C 126.15625 283.203125 125.78125 283.308594 125.394531 283.375 C 125.007812 283.441406 124.617188 283.46875 124.226562 283.457031 L 103.125 283.457031 L 103.125 312.414062 L 132.054688 312.414062 L 132.054688 306.917969 C 132.054688 306.535156 132.09375 306.152344 132.167969 305.777344 C 132.242188 305.398438 132.355469 305.03125 132.5 304.675781 C 132.648438 304.320312 132.828125 303.984375 133.042969 303.664062 C 133.257812 303.34375 133.5 303.046875 133.773438 302.777344 C 134.042969 302.503906 134.339844 302.261719 134.660156 302.046875 C 134.980469 301.835938 135.316406 301.652344 135.671875 301.507812 C 136.027344 301.359375 136.394531 301.25 136.773438 301.171875 C 137.148438 301.097656 137.53125 301.058594 137.914062 301.058594 C 138.300781 301.058594 138.679688 301.097656 139.058594 301.171875 C 139.433594 301.25 139.800781 301.359375 140.15625 301.507812 C 140.511719 301.652344 140.851562 301.835938 141.171875 302.046875 C 141.488281 302.261719 141.785156 302.503906 142.058594 302.777344 C 142.332031 303.046875 142.574219 303.34375 142.785156 303.664062 C 143 303.984375 143.179688 304.320312 143.328125 304.675781 C 143.476562 305.03125 143.585938 305.398438 143.660156 305.777344 C 143.738281 306.152344 143.773438 306.535156 143.773438 306.917969 L 143.773438 318.253906 C 143.773438 318.636719 143.738281 319.019531 143.664062 319.398438 C 143.589844 319.777344 143.476562 320.144531 143.332031 320.5 C 143.183594 320.855469 143.003906 321.195312 142.789062 321.515625 C 142.578125 321.835938 142.335938 322.132812 142.0625 322.40625 C 141.789062 322.675781 141.492188 322.921875 141.175781 323.136719 C 140.855469 323.351562 140.515625 323.53125 140.160156 323.679688 C 139.804688 323.828125 139.4375 323.9375 139.058594 324.015625 C 138.683594 324.089844 138.300781 324.128906 137.914062 324.128906 L 97.265625 324.128906 C 96.878906 324.128906 96.5 324.089844 96.121094 324.015625 C 95.742188 323.9375 95.375 323.828125 95.019531 323.679688 C 94.664062 323.53125 94.328125 323.351562 94.007812 323.136719 C 93.6875 322.921875 93.390625 322.675781 93.117188 322.40625 C 92.847656 322.132812 92.605469 321.835938 92.390625 321.515625 C 92.175781 321.195312 91.996094 320.855469 91.847656 320.5 C 91.703125 320.144531 91.589844 319.777344 91.515625 319.398438 C 91.441406 319.019531 91.40625 318.636719 91.40625 318.253906 Z M 124.316406 294.480469 L 117.03125 287.1875 C 116.757812 286.917969 116.460938 286.671875 116.140625 286.460938 C 115.820312 286.246094 115.484375 286.066406 115.128906 285.917969 C 114.773438 285.773438 114.40625 285.660156 114.027344 285.585938 C 113.652344 285.511719 113.269531 285.472656 112.886719 285.476562 C 112.5 285.476562 112.121094 285.511719 111.742188 285.589844 C 111.363281 285.664062 111 285.773438 110.644531 285.921875 C 110.289062 286.070312 109.949219 286.25 109.628906 286.464844 C 109.308594 286.679688 109.015625 286.921875 108.742188 287.195312 C 108.46875 287.464844 108.226562 287.761719 108.015625 288.082031 C 107.800781 288.402344 107.621094 288.742188 107.472656 289.097656 C 107.328125 289.453125 107.214844 289.816406 107.140625 290.195312 C 107.066406 290.574219 107.027344 290.953125 107.027344 291.339844 C 107.027344 291.722656 107.066406 292.105469 107.140625 292.480469 C 107.21875 292.859375 107.328125 293.226562 107.476562 293.582031 C 107.625 293.9375 107.804688 294.273438 108.019531 294.59375 C 108.230469 294.914062 108.476562 295.210938 108.746094 295.480469 L 120.183594 306.917969 C 120.457031 307.1875 120.753906 307.425781 121.074219 307.636719 C 121.394531 307.847656 121.730469 308.027344 122.085938 308.171875 C 122.441406 308.316406 122.808594 308.425781 123.183594 308.5 C 123.558594 308.574219 123.941406 308.613281 124.324219 308.613281 C 124.707031 308.613281 125.085938 308.574219 125.464844 308.5 C 125.839844 308.425781 126.207031 308.316406 126.558594 308.171875 C 126.914062 308.027344 127.253906 307.847656 127.574219 307.636719 C 127.894531 307.425781 128.191406 307.1875 128.464844 306.917969 L 150.523438 284.839844 C 150.796875 284.566406 151.039062 284.269531 151.253906 283.949219 C 151.46875 283.628906 151.648438 283.292969 151.796875 282.9375 C 151.941406 282.582031 152.054688 282.214844 152.128906 281.835938 C 152.203125 281.460938 152.242188 281.078125 152.242188 280.695312 C 152.242188 280.308594 152.203125 279.929688 152.128906 279.550781 C 152.054688 279.171875 151.945312 278.804688 151.796875 278.449219 C 151.648438 278.09375 151.46875 277.757812 151.253906 277.4375 C 151.042969 277.117188 150.796875 276.820312 150.527344 276.546875 C 150.253906 276.277344 149.957031 276.03125 149.636719 275.820312 C 149.320312 275.605469 148.980469 275.425781 148.625 275.277344 C 148.269531 275.128906 147.902344 275.019531 147.527344 274.941406 C 147.148438 274.867188 146.765625 274.832031 146.382812 274.832031 C 145.996094 274.828125 145.617188 274.867188 145.238281 274.941406 C 144.859375 275.015625 144.496094 275.128906 144.136719 275.277344 C 143.78125 275.421875 143.445312 275.601562 143.125 275.816406 C 142.804688 276.03125 142.507812 276.273438 142.238281 276.546875 L 124.320312 294.480469 Z M 168.171875 195.894531 C 168.171875 195.511719 168.210938 195.128906 168.285156 194.75 C 168.359375 194.371094 168.46875 194.003906 168.617188 193.648438 C 168.761719 193.292969 168.945312 192.953125 169.15625 192.632812 C 169.371094 192.3125 169.613281 192.015625 169.886719 191.746094 C 170.15625 191.472656 170.453125 191.226562 170.773438 191.011719 C 171.09375 190.800781 171.433594 190.617188 171.789062 190.46875 C 172.144531 190.324219 172.511719 190.210938 172.886719 190.136719 C 173.265625 190.058594 173.648438 190.023438 174.03125 190.023438 L 208.886719 190.023438 C 209.269531 190.027344 209.648438 190.066406 210.023438 190.144531 C 210.398438 190.222656 210.761719 190.339844 211.113281 190.488281 C 211.46875 190.636719 211.800781 190.820312 212.117188 191.035156 C 212.4375 191.25 212.730469 191.492188 213 191.765625 C 213.265625 192.039062 213.507812 192.332031 213.71875 192.652344 C 213.929688 192.972656 214.109375 193.308594 214.253906 193.664062 C 214.398438 194.015625 214.511719 194.382812 214.585938 194.757812 C 214.660156 195.132812 214.695312 195.511719 214.695312 195.894531 C 214.695312 196.277344 214.660156 196.660156 214.585938 197.035156 C 214.511719 197.410156 214.398438 197.773438 214.253906 198.128906 C 214.109375 198.484375 213.929688 198.820312 213.71875 199.140625 C 213.507812 199.457031 213.265625 199.753906 213 200.027344 C 212.730469 200.300781 212.4375 200.542969 212.117188 200.757812 C 211.800781 200.972656 211.46875 201.15625 211.113281 201.304688 C 210.761719 201.453125 210.398438 201.566406 210.023438 201.644531 C 209.648438 201.726562 209.269531 201.765625 208.886719 201.769531 L 174.035156 201.769531 C 173.648438 201.769531 173.269531 201.730469 172.890625 201.65625 C 172.511719 201.582031 172.144531 201.46875 171.789062 201.320312 C 171.433594 201.171875 171.09375 200.992188 170.777344 200.777344 C 170.457031 200.5625 170.160156 200.320312 169.886719 200.046875 C 169.613281 199.773438 169.371094 199.476562 169.160156 199.15625 C 168.945312 198.835938 168.765625 198.5 168.617188 198.140625 C 168.472656 197.785156 168.359375 197.417969 168.285156 197.039062 C 168.210938 196.664062 168.175781 196.28125 168.175781 195.894531 Z M 283.597656 222.988281 C 283.597656 223.371094 283.5625 223.753906 283.488281 224.132812 C 283.414062 224.507812 283.300781 224.875 283.15625 225.234375 C 283.007812 225.589844 282.828125 225.925781 282.613281 226.246094 C 282.402344 226.570312 282.15625 226.863281 281.886719 227.136719 C 281.613281 227.410156 281.316406 227.652344 280.996094 227.867188 C 280.675781 228.082031 280.339844 228.265625 279.984375 228.410156 C 279.628906 228.558594 279.261719 228.671875 278.882812 228.746094 C 278.503906 228.824219 278.125 228.859375 277.738281 228.859375 L 174.035156 228.859375 C 173.652344 228.855469 173.273438 228.816406 172.898438 228.738281 C 172.523438 228.660156 172.160156 228.542969 171.804688 228.394531 C 171.453125 228.246094 171.117188 228.0625 170.800781 227.847656 C 170.484375 227.632812 170.191406 227.390625 169.921875 227.117188 C 169.652344 226.84375 169.414062 226.550781 169.199219 226.230469 C 168.988281 225.910156 168.8125 225.574219 168.664062 225.21875 C 168.519531 224.863281 168.410156 224.5 168.335938 224.125 C 168.261719 223.75 168.222656 223.371094 168.222656 222.984375 C 168.222656 222.601562 168.261719 222.222656 168.335938 221.847656 C 168.410156 221.472656 168.519531 221.105469 168.664062 220.753906 C 168.8125 220.398438 168.988281 220.0625 169.199219 219.742188 C 169.414062 219.421875 169.652344 219.128906 169.921875 218.855469 C 170.191406 218.582031 170.484375 218.339844 170.800781 218.125 C 171.117188 217.910156 171.453125 217.726562 171.804688 217.578125 C 172.160156 217.429688 172.523438 217.3125 172.898438 217.234375 C 173.273438 217.15625 173.652344 217.117188 174.035156 217.113281 L 277.738281 217.113281 C 278.125 217.113281 278.503906 217.148438 278.882812 217.226562 C 279.261719 217.300781 279.628906 217.414062 279.984375 217.558594 C 280.339844 217.707031 280.675781 217.890625 280.996094 218.105469 C 281.316406 218.316406 281.613281 218.5625 281.886719 218.835938 C 282.15625 219.109375 282.398438 219.402344 282.613281 219.726562 C 282.828125 220.046875 283.007812 220.382812 283.15625 220.738281 C 283.300781 221.097656 283.414062 221.464844 283.488281 221.839844 C 283.5625 222.21875 283.597656 222.601562 283.597656 222.988281 Z M 152.664062 251.734375 C 152.664062 252.117188 152.625 252.5 152.550781 252.878906 C 152.476562 253.257812 152.367188 253.625 152.21875 253.980469 C 152.074219 254.335938 151.890625 254.675781 151.679688 254.996094 C 151.464844 255.316406 151.222656 255.613281 150.949219 255.882812 C 150.679688 256.15625 150.382812 256.402344 150.0625 256.617188 C 149.742188 256.828125 149.402344 257.011719 149.046875 257.160156 C 148.691406 257.304688 148.324219 257.417969 147.949219 257.492188 C 147.570312 257.570312 147.1875 257.605469 146.804688 257.605469 L 97.261719 257.605469 C 96.871094 257.617188 96.480469 257.589844 96.09375 257.523438 C 95.707031 257.457031 95.332031 257.355469 94.96875 257.210938 C 94.601562 257.070312 94.253906 256.894531 93.925781 256.683594 C 93.59375 256.46875 93.289062 256.226562 93.007812 255.953125 C 92.726562 255.679688 92.476562 255.382812 92.253906 255.058594 C 92.03125 254.734375 91.84375 254.394531 91.691406 254.03125 C 91.539062 253.671875 91.425781 253.300781 91.347656 252.914062 C 91.269531 252.53125 91.230469 252.144531 91.230469 251.75 C 91.230469 251.359375 91.269531 250.96875 91.347656 250.585938 C 91.425781 250.203125 91.539062 249.828125 91.691406 249.46875 C 91.84375 249.105469 92.03125 248.765625 92.253906 248.441406 C 92.476562 248.117188 92.726562 247.820312 93.007812 247.546875 C 93.289062 247.273438 93.59375 247.03125 93.925781 246.820312 C 94.253906 246.609375 94.601562 246.429688 94.96875 246.289062 C 95.332031 246.148438 95.707031 246.042969 96.09375 245.976562 C 96.480469 245.910156 96.871094 245.882812 97.261719 245.894531 L 146.800781 245.894531 C 147.1875 245.894531 147.566406 245.929688 147.941406 246.003906 C 148.320312 246.082031 148.683594 246.191406 149.039062 246.335938 C 149.394531 246.484375 149.730469 246.664062 150.050781 246.878906 C 150.371094 247.089844 150.667969 247.332031 150.9375 247.601562 C 151.210938 247.875 151.453125 248.167969 151.667969 248.488281 C 151.882812 248.804688 152.0625 249.144531 152.210938 249.496094 C 152.359375 249.851562 152.46875 250.214844 152.546875 250.59375 C 152.621094 250.96875 152.660156 251.347656 152.660156 251.734375 Z M 91.402344 229.761719 L 91.402344 189.125 C 91.402344 188.738281 91.4375 188.355469 91.511719 187.980469 C 91.585938 187.601562 91.699219 187.234375 91.84375 186.878906 C 91.992188 186.519531 92.171875 186.183594 92.386719 185.863281 C 92.597656 185.542969 92.84375 185.246094 93.113281 184.972656 C 93.386719 184.699219 93.683594 184.457031 94.003906 184.242188 C 94.324219 184.027344 94.660156 183.847656 95.015625 183.699219 C 95.371094 183.550781 95.738281 183.4375 96.117188 183.363281 C 96.496094 183.289062 96.875 183.25 97.261719 183.25 L 124.226562 183.25 C 124.617188 183.238281 125.007812 183.265625 125.394531 183.332031 C 125.78125 183.398438 126.15625 183.503906 126.523438 183.644531 C 126.886719 183.785156 127.234375 183.964844 127.566406 184.175781 C 127.894531 184.386719 128.199219 184.628906 128.480469 184.902344 C 128.761719 185.175781 129.015625 185.472656 129.234375 185.796875 C 129.457031 186.121094 129.644531 186.464844 129.796875 186.824219 C 129.949219 187.183594 130.066406 187.558594 130.144531 187.941406 C 130.21875 188.328125 130.257812 188.714844 130.257812 189.105469 C 130.257812 189.5 130.21875 189.886719 130.144531 190.269531 C 130.066406 190.65625 129.949219 191.027344 129.796875 191.390625 C 129.644531 191.75 129.457031 192.09375 129.234375 192.414062 C 129.015625 192.738281 128.761719 193.039062 128.480469 193.308594 C 128.199219 193.582031 127.894531 193.824219 127.566406 194.039062 C 127.234375 194.25 126.886719 194.425781 126.523438 194.566406 C 126.15625 194.710938 125.78125 194.816406 125.394531 194.882812 C 125.007812 194.949219 124.617188 194.976562 124.226562 194.964844 L 103.125 194.964844 L 103.125 223.917969 L 132.054688 223.917969 L 132.054688 218.425781 C 132.054688 218.042969 132.09375 217.660156 132.167969 217.285156 C 132.242188 216.90625 132.355469 216.539062 132.5 216.183594 C 132.648438 215.828125 132.828125 215.492188 133.042969 215.171875 C 133.257812 214.851562 133.5 214.554688 133.773438 214.285156 C 134.042969 214.011719 134.339844 213.769531 134.660156 213.554688 C 134.980469 213.339844 135.316406 213.160156 135.671875 213.011719 C 136.027344 212.867188 136.394531 212.753906 136.773438 212.679688 C 137.148438 212.605469 137.53125 212.566406 137.914062 212.566406 C 138.300781 212.566406 138.679688 212.605469 139.058594 212.679688 C 139.433594 212.753906 139.800781 212.867188 140.15625 213.011719 C 140.511719 213.160156 140.851562 213.339844 141.171875 213.554688 C 141.488281 213.769531 141.785156 214.011719 142.058594 214.285156 C 142.332031 214.554688 142.574219 214.851562 142.785156 215.171875 C 143 215.492188 143.179688 215.828125 143.328125 216.183594 C 143.476562 216.539062 143.585938 216.90625 143.660156 217.285156 C 143.738281 217.660156 143.773438 218.042969 143.773438 218.425781 L 143.773438 229.761719 C 143.773438 230.144531 143.738281 230.527344 143.664062 230.90625 C 143.589844 231.285156 143.476562 231.652344 143.332031 232.007812 C 143.183594 232.363281 143.003906 232.703125 142.789062 233.023438 C 142.578125 233.34375 142.335938 233.640625 142.0625 233.910156 C 141.789062 234.183594 141.492188 234.429688 141.175781 234.644531 C 140.855469 234.855469 140.515625 235.039062 140.160156 235.1875 C 139.804688 235.332031 139.4375 235.445312 139.058594 235.519531 C 138.683594 235.597656 138.300781 235.632812 137.914062 235.632812 L 97.265625 235.632812 C 96.878906 235.632812 96.5 235.597656 96.121094 235.519531 C 95.742188 235.445312 95.375 235.332031 95.019531 235.1875 C 94.664062 235.039062 94.328125 234.855469 94.007812 234.644531 C 93.6875 234.429688 93.390625 234.183594 93.117188 233.910156 C 92.847656 233.640625 92.605469 233.34375 92.390625 233.023438 C 92.175781 232.703125 91.996094 232.363281 91.847656 232.007812 C 91.703125 231.652344 91.589844 231.285156 91.515625 230.90625 C 91.441406 230.527344 91.40625 230.144531 91.40625 229.761719 Z M 124.316406 205.988281 L 117.03125 198.695312 C 116.757812 198.425781 116.464844 198.183594 116.144531 197.96875 C 115.824219 197.753906 115.488281 197.574219 115.132812 197.425781 C 114.78125 197.277344 114.414062 197.167969 114.039062 197.089844 C 113.660156 197.015625 113.28125 196.976562 112.898438 196.976562 C 112.511719 196.976562 112.132812 197.015625 111.757812 197.089844 C 111.378906 197.164062 111.015625 197.273438 110.660156 197.417969 C 110.304688 197.566406 109.964844 197.746094 109.648438 197.957031 C 109.328125 198.171875 109.03125 198.414062 108.761719 198.683594 C 108.488281 198.957031 108.246094 199.25 108.03125 199.570312 C 107.816406 199.886719 107.636719 200.226562 107.488281 200.578125 C 107.34375 200.933594 107.230469 201.300781 107.15625 201.675781 C 107.078125 202.050781 107.042969 202.433594 107.042969 202.816406 C 107.039062 203.199219 107.078125 203.582031 107.152344 203.957031 C 107.226562 204.335938 107.335938 204.699219 107.484375 205.054688 C 107.628906 205.410156 107.808594 205.746094 108.023438 206.066406 C 108.234375 206.386719 108.476562 206.683594 108.746094 206.953125 L 120.183594 218.390625 C 120.453125 218.664062 120.746094 218.910156 121.066406 219.125 C 121.386719 219.339844 121.722656 219.523438 122.078125 219.671875 C 122.433594 219.820312 122.800781 219.929688 123.179688 220.007812 C 123.554688 220.082031 123.9375 220.121094 124.324219 220.121094 C 124.707031 220.121094 125.089844 220.082031 125.46875 220.007812 C 125.84375 219.929688 126.210938 219.820312 126.566406 219.671875 C 126.921875 219.523438 127.257812 219.339844 127.578125 219.125 C 127.898438 218.910156 128.195312 218.664062 128.464844 218.390625 L 150.523438 196.347656 C 150.796875 196.074219 151.039062 195.777344 151.253906 195.457031 C 151.46875 195.136719 151.648438 194.800781 151.796875 194.445312 C 151.941406 194.089844 152.054688 193.722656 152.128906 193.34375 C 152.203125 192.96875 152.242188 192.585938 152.242188 192.203125 C 152.242188 191.816406 152.203125 191.433594 152.128906 191.058594 C 152.054688 190.679688 151.945312 190.3125 151.796875 189.957031 C 151.648438 189.601562 151.46875 189.265625 151.253906 188.945312 C 151.042969 188.625 150.796875 188.328125 150.527344 188.054688 C 150.253906 187.785156 149.957031 187.539062 149.636719 187.328125 C 149.320312 187.113281 148.980469 186.933594 148.625 186.785156 C 148.269531 186.636719 147.902344 186.527344 147.527344 186.449219 C 147.148438 186.375 146.765625 186.335938 146.382812 186.335938 C 145.996094 186.335938 145.617188 186.375 145.238281 186.449219 C 144.859375 186.523438 144.496094 186.636719 144.136719 186.78125 C 143.78125 186.929688 143.445312 187.109375 143.125 187.324219 C 142.804688 187.539062 142.507812 187.78125 142.238281 188.054688 L 124.316406 205.984375 Z M 168.171875 107.402344 C 168.171875 107.019531 168.210938 106.636719 168.285156 106.257812 C 168.359375 105.878906 168.46875 105.511719 168.617188 105.15625 C 168.761719 104.800781 168.945312 104.460938 169.15625 104.140625 C 169.371094 103.820312 169.613281 103.523438 169.886719 103.25 C 170.15625 102.980469 170.453125 102.734375 170.773438 102.519531 C 171.09375 102.304688 171.433594 102.125 171.789062 101.976562 C 172.144531 101.828125 172.511719 101.71875 172.886719 101.640625 C 173.265625 101.566406 173.648438 101.527344 174.03125 101.527344 L 208.886719 101.527344 C 209.277344 101.515625 209.667969 101.546875 210.050781 101.613281 C 210.4375 101.679688 210.8125 101.785156 211.179688 101.925781 C 211.542969 102.070312 211.890625 102.246094 212.21875 102.457031 C 212.546875 102.671875 212.851562 102.914062 213.132812 103.1875 C 213.414062 103.457031 213.664062 103.757812 213.886719 104.082031 C 214.105469 104.402344 214.292969 104.746094 214.445312 105.105469 C 214.597656 105.46875 214.710938 105.839844 214.789062 106.222656 C 214.867188 106.605469 214.90625 106.992188 214.90625 107.386719 C 214.90625 107.777344 214.867188 108.164062 214.789062 108.546875 C 214.710938 108.933594 214.597656 109.304688 214.445312 109.664062 C 214.292969 110.027344 214.105469 110.367188 213.886719 110.691406 C 213.664062 111.015625 213.414062 111.3125 213.132812 111.585938 C 212.851562 111.859375 212.546875 112.101562 212.21875 112.3125 C 211.890625 112.523438 211.542969 112.703125 211.179688 112.84375 C 210.8125 112.984375 210.4375 113.089844 210.050781 113.15625 C 209.667969 113.226562 209.277344 113.253906 208.886719 113.242188 L 174.035156 113.242188 C 173.648438 113.246094 173.269531 113.207031 172.890625 113.132812 C 172.515625 113.0625 172.148438 112.949219 171.792969 112.804688 C 171.4375 112.660156 171.101562 112.480469 170.78125 112.265625 C 170.460938 112.054688 170.164062 111.8125 169.890625 111.539062 C 169.617188 111.269531 169.375 110.972656 169.160156 110.65625 C 168.949219 110.335938 168.765625 109.996094 168.621094 109.644531 C 168.472656 109.289062 168.363281 108.921875 168.285156 108.546875 C 168.210938 108.167969 168.175781 107.789062 168.175781 107.402344 Z M 174.03125 128.617188 L 277.738281 128.617188 C 278.128906 128.609375 278.515625 128.636719 278.902344 128.703125 C 279.289062 128.769531 279.667969 128.871094 280.03125 129.015625 C 280.398438 129.15625 280.746094 129.332031 281.074219 129.542969 C 281.40625 129.757812 281.710938 130 281.992188 130.273438 C 282.273438 130.546875 282.523438 130.84375 282.746094 131.167969 C 282.964844 131.492188 283.152344 131.832031 283.304688 132.195312 C 283.460938 132.554688 283.574219 132.925781 283.652344 133.3125 C 283.730469 133.695312 283.769531 134.082031 283.769531 134.476562 C 283.769531 134.867188 283.730469 135.257812 283.652344 135.640625 C 283.574219 136.023438 283.460938 136.398438 283.304688 136.757812 C 283.152344 137.121094 282.964844 137.460938 282.746094 137.785156 C 282.523438 138.109375 282.273438 138.40625 281.992188 138.679688 C 281.710938 138.953125 281.40625 139.195312 281.074219 139.40625 C 280.746094 139.617188 280.398438 139.796875 280.03125 139.9375 C 279.667969 140.078125 279.289062 140.183594 278.902344 140.25 C 278.515625 140.316406 278.128906 140.34375 277.738281 140.332031 L 174.035156 140.332031 C 173.640625 140.34375 173.253906 140.316406 172.867188 140.25 C 172.480469 140.183594 172.105469 140.078125 171.738281 139.9375 C 171.375 139.796875 171.027344 139.617188 170.695312 139.40625 C 170.367188 139.195312 170.0625 138.953125 169.78125 138.679688 C 169.5 138.40625 169.246094 138.109375 169.027344 137.785156 C 168.804688 137.460938 168.617188 137.121094 168.464844 136.757812 C 168.3125 136.398438 168.195312 136.023438 168.117188 135.640625 C 168.039062 135.257812 168 134.867188 168 134.476562 C 168 134.082031 168.039062 133.695312 168.117188 133.3125 C 168.195312 132.925781 168.3125 132.554688 168.464844 132.195312 C 168.617188 131.832031 168.804688 131.492188 169.027344 131.167969 C 169.246094 130.84375 169.5 130.546875 169.78125 130.273438 C 170.0625 130 170.367188 129.757812 170.695312 129.542969 C 171.027344 129.332031 171.375 129.15625 171.738281 129.015625 C 172.105469 128.871094 172.480469 128.769531 172.867188 128.703125 C 173.253906 128.636719 173.640625 128.609375 174.035156 128.617188 Z M 152.660156 163.242188 C 152.660156 163.628906 152.625 164.007812 152.550781 164.386719 C 152.476562 164.765625 152.363281 165.132812 152.21875 165.488281 C 152.070312 165.84375 151.890625 166.183594 151.675781 166.503906 C 151.464844 166.824219 151.21875 167.121094 150.949219 167.394531 C 150.675781 167.667969 150.378906 167.910156 150.058594 168.125 C 149.738281 168.339844 149.402344 168.519531 149.046875 168.667969 C 148.691406 168.816406 148.324219 168.925781 147.945312 169.003906 C 147.566406 169.078125 147.1875 169.117188 146.800781 169.117188 L 97.261719 169.117188 C 96.871094 169.128906 96.480469 169.101562 96.09375 169.035156 C 95.707031 168.96875 95.332031 168.863281 94.96875 168.722656 C 94.601562 168.578125 94.253906 168.402344 93.925781 168.191406 C 93.59375 167.980469 93.289062 167.738281 93.007812 167.464844 C 92.726562 167.191406 92.472656 166.890625 92.253906 166.570312 C 92.03125 166.246094 91.84375 165.902344 91.691406 165.542969 C 91.539062 165.179688 91.425781 164.808594 91.347656 164.421875 C 91.269531 164.039062 91.230469 163.652344 91.230469 163.257812 C 91.230469 162.867188 91.269531 162.480469 91.347656 162.09375 C 91.425781 161.710938 91.539062 161.339844 91.691406 160.976562 C 91.84375 160.617188 92.03125 160.273438 92.253906 159.949219 C 92.472656 159.625 92.726562 159.328125 93.007812 159.054688 C 93.289062 158.78125 93.59375 158.539062 93.925781 158.328125 C 94.253906 158.117188 94.601562 157.941406 94.96875 157.796875 C 95.332031 157.65625 95.707031 157.550781 96.09375 157.484375 C 96.480469 157.417969 96.871094 157.390625 97.261719 157.402344 L 146.800781 157.402344 C 147.1875 157.402344 147.566406 157.441406 147.941406 157.515625 C 148.320312 157.589844 148.683594 157.699219 149.039062 157.847656 C 149.394531 157.992188 149.730469 158.171875 150.050781 158.386719 C 150.371094 158.597656 150.667969 158.839844 150.9375 159.113281 C 151.210938 159.382812 151.453125 159.675781 151.667969 159.996094 C 151.882812 160.316406 152.0625 160.652344 152.210938 161.007812 C 152.359375 161.359375 152.46875 161.726562 152.546875 162.101562 C 152.621094 162.476562 152.660156 162.859375 152.660156 163.242188 Z M 91.402344 141.269531 L 91.402344 100.632812 C 91.398438 100.25 91.4375 99.867188 91.511719 99.488281 C 91.585938 99.113281 91.695312 98.746094 91.84375 98.386719 C 91.988281 98.03125 92.171875 97.695312 92.382812 97.375 C 92.597656 97.050781 92.839844 96.753906 93.113281 96.484375 C 93.382812 96.210938 93.679688 95.964844 94 95.753906 C 94.320312 95.539062 94.660156 95.355469 95.015625 95.207031 C 95.371094 95.0625 95.738281 94.949219 96.113281 94.875 C 96.492188 94.796875 96.875 94.761719 97.261719 94.761719 L 124.226562 94.761719 C 124.617188 94.75 125.003906 94.777344 125.390625 94.84375 C 125.777344 94.910156 126.152344 95.015625 126.515625 95.160156 C 126.882812 95.300781 127.226562 95.476562 127.558594 95.691406 C 127.886719 95.902344 128.191406 96.144531 128.472656 96.417969 C 128.753906 96.691406 129.003906 96.988281 129.222656 97.3125 C 129.445312 97.636719 129.632812 97.976562 129.785156 98.335938 C 129.9375 98.699219 130.050781 99.070312 130.128906 99.453125 C 130.207031 99.839844 130.246094 100.226562 130.246094 100.617188 C 130.246094 101.007812 130.207031 101.394531 130.128906 101.78125 C 130.050781 102.164062 129.9375 102.535156 129.785156 102.894531 C 129.632812 103.257812 129.445312 103.597656 129.222656 103.921875 C 129.003906 104.246094 128.753906 104.542969 128.472656 104.816406 C 128.191406 105.089844 127.886719 105.332031 127.558594 105.542969 C 127.226562 105.757812 126.882812 105.933594 126.515625 106.074219 C 126.152344 106.21875 125.777344 106.324219 125.390625 106.390625 C 125.003906 106.457031 124.617188 106.484375 124.226562 106.472656 L 103.125 106.472656 L 103.125 135.425781 L 132.054688 135.425781 L 132.054688 129.929688 C 132.054688 129.546875 132.09375 129.164062 132.167969 128.789062 C 132.242188 128.410156 132.355469 128.042969 132.5 127.6875 C 132.648438 127.332031 132.828125 126.996094 133.042969 126.675781 C 133.257812 126.355469 133.5 126.058594 133.773438 125.789062 C 134.042969 125.515625 134.339844 125.273438 134.660156 125.058594 C 134.980469 124.847656 135.316406 124.664062 135.671875 124.519531 C 136.027344 124.371094 136.394531 124.261719 136.773438 124.183594 C 137.148438 124.109375 137.53125 124.070312 137.914062 124.070312 C 138.300781 124.070312 138.679688 124.109375 139.058594 124.183594 C 139.433594 124.261719 139.800781 124.371094 140.15625 124.519531 C 140.511719 124.664062 140.851562 124.847656 141.171875 125.058594 C 141.488281 125.273438 141.785156 125.515625 142.058594 125.789062 C 142.332031 126.058594 142.574219 126.355469 142.785156 126.675781 C 143 126.996094 143.179688 127.332031 143.328125 127.6875 C 143.476562 128.042969 143.585938 128.410156 143.660156 128.789062 C 143.738281 129.164062 143.773438 129.546875 143.773438 129.929688 L 143.773438 141.265625 C 143.773438 141.652344 143.738281 142.03125 143.664062 142.410156 C 143.589844 142.789062 143.476562 143.15625 143.332031 143.511719 C 143.183594 143.867188 143.003906 144.207031 142.789062 144.527344 C 142.578125 144.847656 142.335938 145.144531 142.0625 145.417969 C 141.789062 145.691406 141.492188 145.933594 141.175781 146.148438 C 140.855469 146.363281 140.515625 146.542969 140.160156 146.691406 C 139.804688 146.839844 139.4375 146.949219 139.058594 147.027344 C 138.683594 147.101562 138.300781 147.140625 137.914062 147.140625 L 97.265625 147.140625 C 96.878906 147.140625 96.5 147.101562 96.121094 147.027344 C 95.742188 146.949219 95.375 146.839844 95.019531 146.691406 C 94.664062 146.542969 94.328125 146.363281 94.007812 146.148438 C 93.6875 145.933594 93.390625 145.691406 93.117188 145.417969 C 92.847656 145.144531 92.605469 144.847656 92.390625 144.527344 C 92.175781 144.207031 91.996094 143.867188 91.847656 143.511719 C 91.703125 143.15625 91.589844 142.789062 91.515625 142.410156 C 91.441406 142.03125 91.40625 141.652344 91.40625 141.265625 Z M 124.316406 117.460938 L 117.027344 110.207031 C 116.757812 109.929688 116.464844 109.683594 116.144531 109.46875 C 115.824219 109.253906 115.488281 109.070312 115.132812 108.921875 C 114.777344 108.769531 114.410156 108.660156 114.03125 108.582031 C 113.65625 108.507812 113.273438 108.46875 112.886719 108.46875 C 112.503906 108.46875 112.121094 108.507812 111.742188 108.582031 C 111.363281 108.660156 110.996094 108.769531 110.640625 108.921875 C 110.285156 109.070312 109.949219 109.253906 109.628906 109.46875 C 109.3125 109.683594 109.015625 109.929688 108.746094 110.207031 C 108.472656 110.476562 108.230469 110.773438 108.019531 111.09375 C 107.804688 111.414062 107.625 111.753906 107.476562 112.109375 C 107.328125 112.464844 107.21875 112.832031 107.144531 113.207031 C 107.066406 113.585938 107.03125 113.96875 107.03125 114.351562 C 107.03125 114.738281 107.066406 115.117188 107.144531 115.496094 C 107.21875 115.875 107.328125 116.238281 107.476562 116.59375 C 107.625 116.953125 107.804688 117.289062 108.019531 117.609375 C 108.230469 117.929688 108.472656 118.226562 108.746094 118.5 L 120.179688 129.902344 C 120.453125 130.175781 120.746094 130.417969 121.066406 130.632812 C 121.386719 130.851562 121.722656 131.03125 122.078125 131.179688 C 122.433594 131.328125 122.800781 131.441406 123.175781 131.515625 C 123.554688 131.589844 123.9375 131.628906 124.320312 131.628906 C 124.707031 131.628906 125.089844 131.589844 125.464844 131.515625 C 125.84375 131.441406 126.210938 131.328125 126.566406 131.179688 C 126.921875 131.03125 127.257812 130.851562 127.578125 130.632812 C 127.898438 130.417969 128.191406 130.175781 128.464844 129.902344 L 150.523438 107.855469 C 150.792969 107.582031 151.035156 107.289062 151.25 106.96875 C 151.464844 106.648438 151.644531 106.308594 151.792969 105.953125 C 151.9375 105.597656 152.050781 105.234375 152.125 104.855469 C 152.199219 104.476562 152.238281 104.097656 152.238281 103.710938 C 152.238281 103.328125 152.199219 102.945312 152.125 102.570312 C 152.050781 102.191406 151.9375 101.828125 151.792969 101.472656 C 151.644531 101.117188 151.464844 100.777344 151.25 100.457031 C 151.035156 100.136719 150.792969 99.84375 150.523438 99.570312 C 150.25 99.296875 149.953125 99.054688 149.636719 98.839844 C 149.316406 98.625 148.976562 98.445312 148.621094 98.296875 C 148.265625 98.152344 147.902344 98.039062 147.523438 97.964844 C 147.148438 97.886719 146.765625 97.851562 146.382812 97.851562 C 145.996094 97.851562 145.617188 97.886719 145.238281 97.960938 C 144.859375 98.035156 144.496094 98.144531 144.140625 98.292969 C 143.785156 98.441406 143.445312 98.621094 143.125 98.832031 C 142.804688 99.046875 142.507812 99.289062 142.238281 99.558594 L 124.316406 117.457031 Z M 256.0625 64.179688 C 256.066406 64.871094 256 65.554688 255.863281 66.234375 C 255.730469 66.914062 255.53125 67.570312 255.265625 68.210938 C 255.003906 68.851562 254.679688 69.457031 254.292969 70.03125 C 253.910156 70.609375 253.472656 71.140625 252.984375 71.628906 C 252.496094 72.117188 251.964844 72.554688 251.390625 72.941406 C 250.816406 73.324219 250.207031 73.648438 249.570312 73.914062 C 248.929688 74.179688 248.273438 74.378906 247.59375 74.515625 C 246.914062 74.648438 246.230469 74.71875 245.539062 74.71875 L 129.460938 74.71875 C 128.765625 74.71875 128.082031 74.652344 127.402344 74.515625 C 126.726562 74.382812 126.066406 74.179688 125.425781 73.917969 C 124.789062 73.652344 124.179688 73.328125 123.605469 72.941406 C 123.03125 72.558594 122.496094 72.121094 122.007812 71.632812 C 121.519531 71.140625 121.082031 70.609375 120.699219 70.035156 C 120.316406 69.460938 119.992188 68.851562 119.726562 68.210938 C 119.460938 67.574219 119.261719 66.914062 119.128906 66.234375 C 118.992188 65.554688 118.925781 64.871094 118.929688 64.179688 L 118.929688 51.21875 L 93.953125 51.21875 C 93.382812 51.21875 92.816406 51.25 92.25 51.304688 C 91.683594 51.363281 91.125 51.445312 90.566406 51.558594 C 90.007812 51.671875 89.457031 51.808594 88.914062 51.976562 C 88.371094 52.140625 87.835938 52.335938 87.308594 52.550781 C 86.785156 52.769531 86.273438 53.015625 85.769531 53.28125 C 85.269531 53.550781 84.785156 53.84375 84.3125 54.160156 C 83.839844 54.476562 83.382812 54.816406 82.941406 55.175781 C 82.503906 55.539062 82.082031 55.917969 81.683594 56.320312 C 81.28125 56.722656 80.898438 57.144531 80.539062 57.585938 C 80.175781 58.023438 79.839844 58.480469 79.523438 58.953125 C 79.207031 59.425781 78.914062 59.914062 78.648438 60.414062 C 78.378906 60.917969 78.136719 61.429688 77.917969 61.957031 C 77.703125 62.480469 77.511719 63.015625 77.34375 63.558594 C 77.179688 64.105469 77.042969 64.65625 76.929688 65.210938 C 76.820312 65.769531 76.734375 66.332031 76.679688 66.898438 C 76.621094 67.464844 76.59375 68.03125 76.59375 68.597656 L 76.59375 345.929688 C 76.59375 346.5 76.625 347.066406 76.679688 347.632812 C 76.734375 348.195312 76.820312 348.757812 76.929688 349.316406 C 77.042969 349.871094 77.179688 350.421875 77.347656 350.964844 C 77.511719 351.507812 77.703125 352.042969 77.921875 352.566406 C 78.140625 353.09375 78.382812 353.605469 78.652344 354.105469 C 78.917969 354.609375 79.210938 355.09375 79.527344 355.566406 C 79.84375 356.039062 80.179688 356.496094 80.542969 356.933594 C 80.902344 357.371094 81.285156 357.792969 81.683594 358.195312 C 82.085938 358.59375 82.507812 358.976562 82.945312 359.335938 C 83.386719 359.699219 83.84375 360.035156 84.316406 360.351562 C 84.785156 360.667969 85.273438 360.957031 85.773438 361.226562 C 86.277344 361.492188 86.789062 361.738281 87.3125 361.953125 C 87.839844 362.171875 88.371094 362.363281 88.917969 362.527344 C 89.460938 362.691406 90.011719 362.832031 90.566406 362.941406 C 91.125 363.054688 91.6875 363.136719 92.25 363.191406 C 92.816406 363.25 93.382812 363.277344 93.953125 363.277344 L 281.050781 363.277344 C 281.617188 363.277344 282.183594 363.25 282.75 363.191406 C 283.316406 363.136719 283.875 363.054688 284.433594 362.941406 C 284.992188 362.832031 285.542969 362.695312 286.085938 362.527344 C 286.628906 362.363281 287.164062 362.171875 287.6875 361.953125 C 288.214844 361.738281 288.726562 361.496094 289.226562 361.226562 C 289.726562 360.960938 290.214844 360.667969 290.6875 360.351562 C 291.160156 360.035156 291.617188 359.699219 292.054688 359.339844 C 292.496094 358.976562 292.914062 358.597656 293.316406 358.195312 C 293.71875 357.792969 294.101562 357.371094 294.460938 356.933594 C 294.820312 356.496094 295.160156 356.039062 295.476562 355.566406 C 295.792969 355.09375 296.082031 354.609375 296.351562 354.105469 C 296.621094 353.605469 296.863281 353.09375 297.082031 352.570312 C 297.296875 352.042969 297.492188 351.507812 297.65625 350.964844 C 297.820312 350.421875 297.960938 349.871094 298.070312 349.316406 C 298.183594 348.757812 298.265625 348.195312 298.324219 347.632812 C 298.378906 347.066406 298.40625 346.5 298.40625 345.929688 L 298.40625 68.597656 C 298.40625 68.03125 298.378906 67.464844 298.324219 66.898438 C 298.265625 66.332031 298.183594 65.769531 298.070312 65.210938 C 297.960938 64.65625 297.824219 64.105469 297.65625 63.558594 C 297.492188 63.015625 297.300781 62.480469 297.082031 61.957031 C 296.867188 61.429688 296.621094 60.917969 296.355469 60.414062 C 296.085938 59.914062 295.792969 59.425781 295.480469 58.953125 C 295.164062 58.480469 294.824219 58.023438 294.464844 57.585938 C 294.105469 57.144531 293.722656 56.722656 293.320312 56.320312 C 292.917969 55.917969 292.5 55.535156 292.058594 55.175781 C 291.621094 54.816406 291.164062 54.476562 290.691406 54.160156 C 290.21875 53.84375 289.730469 53.550781 289.230469 53.28125 C 288.730469 53.011719 288.214844 52.769531 287.691406 52.550781 C 287.167969 52.332031 286.632812 52.140625 286.089844 51.976562 C 285.542969 51.808594 284.992188 51.671875 284.4375 51.558594 C 283.878906 51.445312 283.316406 51.363281 282.75 51.304688 C 282.183594 51.25 281.617188 51.21875 281.050781 51.21875 L 256.066406 51.21875 L 256.066406 64.175781 Z M 213.792969 16.007812 C 213.171875 14.808594 212.472656 13.65625 211.695312 12.550781 C 210.917969 11.449219 210.066406 10.402344 209.144531 9.414062 C 208.222656 8.429688 207.238281 7.507812 206.191406 6.65625 C 205.144531 5.800781 204.042969 5.023438 202.886719 4.324219 C 201.734375 3.621094 200.539062 3 199.300781 2.460938 C 198.058594 1.925781 196.789062 1.472656 195.488281 1.109375 C 194.1875 0.742188 192.871094 0.46875 191.53125 0.285156 C 190.195312 0.101562 188.847656 0.0078125 187.5 0.0078125 C 186.148438 0.0078125 184.804688 0.101562 183.464844 0.285156 C 182.125 0.46875 180.808594 0.742188 179.507812 1.109375 C 178.207031 1.472656 176.9375 1.925781 175.699219 2.460938 C 174.457031 3 173.261719 3.621094 172.109375 4.324219 C 170.953125 5.023438 169.851562 5.800781 168.804688 6.65625 C 167.757812 7.507812 166.773438 8.429688 165.851562 9.414062 C 164.929688 10.402344 164.082031 11.449219 163.300781 12.550781 C 162.523438 13.65625 161.824219 14.808594 161.203125 16.007812 L 129.460938 16.007812 C 128.769531 16.007812 128.082031 16.078125 127.40625 16.210938 C 126.726562 16.347656 126.070312 16.550781 125.429688 16.8125 C 124.792969 17.078125 124.183594 17.40625 123.609375 17.789062 C 123.035156 18.171875 122.503906 18.609375 122.015625 19.097656 C 121.527344 19.589844 121.089844 20.121094 120.703125 20.695312 C 120.320312 21.269531 119.996094 21.878906 119.730469 22.515625 C 119.464844 23.15625 119.265625 23.8125 119.132812 24.492188 C 118.996094 25.171875 118.929688 25.855469 118.929688 26.546875 L 118.929688 39.503906 L 93.953125 39.503906 C 93 39.507812 92.050781 39.554688 91.101562 39.648438 C 90.15625 39.742188 89.214844 39.882812 88.28125 40.070312 C 87.347656 40.257812 86.425781 40.492188 85.515625 40.769531 C 84.601562 41.046875 83.707031 41.367188 82.828125 41.734375 C 81.949219 42.097656 81.089844 42.503906 80.25 42.953125 C 79.410156 43.40625 78.59375 43.894531 77.804688 44.421875 C 77.011719 44.953125 76.25 45.519531 75.511719 46.125 C 74.777344 46.730469 74.074219 47.367188 73.398438 48.042969 C 72.726562 48.714844 72.085938 49.417969 71.484375 50.15625 C 70.878906 50.890625 70.3125 51.65625 69.785156 52.449219 C 69.253906 53.238281 68.765625 54.054688 68.316406 54.894531 C 67.867188 55.734375 67.460938 56.59375 67.097656 57.472656 C 66.730469 58.355469 66.410156 59.25 66.132812 60.160156 C 65.855469 61.070312 65.625 61.992188 65.4375 62.925781 C 65.253906 63.859375 65.113281 64.800781 65.019531 65.75 C 64.921875 66.695312 64.875 67.648438 64.875 68.597656 L 64.875 345.929688 C 64.875 346.882812 64.925781 347.832031 65.019531 348.777344 C 65.113281 349.726562 65.253906 350.667969 65.441406 351.601562 C 65.625 352.53125 65.859375 353.453125 66.136719 354.367188 C 66.414062 355.277344 66.734375 356.171875 67.097656 357.050781 C 67.464844 357.929688 67.871094 358.789062 68.320312 359.628906 C 68.769531 360.464844 69.257812 361.28125 69.789062 362.074219 C 70.316406 362.863281 70.882812 363.625 71.488281 364.363281 C 72.089844 365.097656 72.730469 365.800781 73.402344 366.476562 C 74.078125 367.148438 74.78125 367.785156 75.515625 368.390625 C 76.253906 368.992188 77.015625 369.558594 77.808594 370.089844 C 78.597656 370.617188 79.414062 371.105469 80.253906 371.554688 C 81.09375 372.003906 81.953125 372.410156 82.832031 372.773438 C 83.710938 373.136719 84.605469 373.457031 85.515625 373.734375 C 86.425781 374.011719 87.347656 374.242188 88.28125 374.429688 C 89.214844 374.613281 90.15625 374.753906 91.105469 374.847656 C 92.050781 374.941406 93 374.988281 93.953125 374.992188 L 281.050781 374.992188 C 282 374.988281 282.949219 374.941406 283.898438 374.847656 C 284.84375 374.753906 285.785156 374.613281 286.71875 374.429688 C 287.652344 374.242188 288.574219 374.011719 289.484375 373.734375 C 290.394531 373.457031 291.289062 373.136719 292.167969 372.773438 C 293.050781 372.410156 293.910156 372.003906 294.746094 371.554688 C 295.585938 371.105469 296.402344 370.617188 297.195312 370.089844 C 297.984375 369.558594 298.75 368.992188 299.484375 368.390625 C 300.21875 367.785156 300.925781 367.148438 301.597656 366.476562 C 302.273438 365.800781 302.910156 365.097656 303.515625 364.363281 C 304.117188 363.625 304.683594 362.863281 305.214844 362.074219 C 305.742188 361.28125 306.234375 360.464844 306.683594 359.628906 C 307.132812 358.789062 307.539062 357.929688 307.902344 357.050781 C 308.269531 356.171875 308.589844 355.277344 308.867188 354.367188 C 309.144531 353.453125 309.375 352.53125 309.5625 351.601562 C 309.75 350.667969 309.890625 349.726562 309.984375 348.777344 C 310.078125 347.832031 310.125 346.882812 310.125 345.929688 L 310.125 68.597656 C 310.125 67.648438 310.078125 66.695312 309.984375 65.75 C 309.890625 64.800781 309.75 63.863281 309.5625 62.925781 C 309.375 61.992188 309.144531 61.070312 308.867188 60.160156 C 308.589844 59.25 308.269531 58.355469 307.90625 57.472656 C 307.539062 56.59375 307.132812 55.734375 306.683594 54.894531 C 306.234375 54.054688 305.746094 53.238281 305.21875 52.449219 C 304.6875 51.65625 304.121094 50.890625 303.519531 50.15625 C 302.914062 49.417969 302.273438 48.714844 301.601562 48.042969 C 300.929688 47.367188 300.222656 46.730469 299.488281 46.125 C 298.753906 45.519531 297.988281 44.953125 297.199219 44.421875 C 296.40625 43.894531 295.589844 43.40625 294.75 42.953125 C 293.910156 42.503906 293.050781 42.097656 292.171875 41.734375 C 291.292969 41.367188 290.398438 41.046875 289.488281 40.769531 C 288.578125 40.492188 287.65625 40.257812 286.722656 40.070312 C 285.785156 39.882812 284.847656 39.742188 283.898438 39.648438 C 282.953125 39.554688 282 39.507812 281.050781 39.503906 L 256.066406 39.503906 L 256.066406 26.546875 C 256.066406 25.855469 256 25.171875 255.863281 24.492188 C 255.726562 23.816406 255.527344 23.15625 255.261719 22.519531 C 255 21.878906 254.675781 21.273438 254.289062 20.699219 C 253.90625 20.121094 253.46875 19.589844 252.980469 19.101562 C 252.492188 18.613281 251.960938 18.175781 251.386719 17.792969 C 250.8125 17.40625 250.207031 17.082031 249.570312 16.816406 C 248.929688 16.550781 248.273438 16.351562 247.59375 16.214844 C 246.917969 16.078125 246.234375 16.007812 245.542969 16.007812 Z M 213.792969 16.007812 " clip-rule="evenodd"/></clipPath><linearGradient x1="256" gradientTransform="matrix(0.732422, 0, 0, 0.732422, 0.0000045, 0)" y1="511.986943" x2="256" gradientUnits="userSpaceOnUse" y2="0.0126554" id="98cce7c6a5"><stop stop-opacity="1" stop-color="rgb(0%, 47.799683%, 71.398926%)" offset="0"/><stop stop-opacity="1" stop-color="rgb(0%, 47.903442%, 71.554565%)" offset="0.015625"/><stop stop-opacity="1" stop-color="rgb(0%, 48.112488%, 71.867371%)" offset="0.03125"/><stop stop-opacity="1" stop-color="rgb(0%, 48.321533%, 72.180176%)" offset="0.046875"/><stop stop-opacity="1" stop-color="rgb(0%, 48.532104%, 72.492981%)" offset="0.0625"/><stop stop-opacity="1" stop-color="rgb(0%, 48.74115%, 72.80426%)" offset="0.078125"/><stop stop-opacity="1" stop-color="rgb(0%, 48.950195%, 73.117065%)" offset="0.09375"/><stop stop-opacity="1" stop-color="rgb(0%, 49.159241%, 73.429871%)" offset="0.109375"/><stop stop-opacity="1" stop-color="rgb(0%, 49.368286%, 73.742676%)" offset="0.125"/><stop stop-opacity="1" stop-color="rgb(0%, 49.578857%, 74.055481%)" offset="0.140625"/><stop stop-opacity="1" stop-color="rgb(0%, 49.787903%, 74.36676%)" offset="0.15625"/><stop stop-opacity="1" stop-color="rgb(0%, 49.996948%, 74.679565%)" offset="0.171875"/><stop stop-opacity="1" stop-color="rgb(0%, 50.205994%, 74.992371%)" offset="0.1875"/><stop stop-opacity="1" stop-color="rgb(0%, 50.416565%, 75.305176%)" offset="0.203125"/><stop stop-opacity="1" stop-color="rgb(0%, 50.62561%, 75.617981%)" offset="0.21875"/><stop stop-opacity="1" stop-color="rgb(0%, 50.834656%, 75.92926%)" offset="0.234375"/><stop stop-opacity="1" stop-color="rgb(0%, 51.043701%, 76.242065%)" offset="0.25"/><stop stop-opacity="1" stop-color="rgb(0%, 51.252747%, 76.554871%)" offset="0.265625"/><stop stop-opacity="1" stop-color="rgb(0%, 51.463318%, 76.867676%)" offset="0.28125"/><stop stop-opacity="1" stop-color="rgb(0%, 51.672363%, 77.180481%)" offset="0.296875"/><stop stop-opacity="1" stop-color="rgb(0%, 51.881409%, 77.49176%)" offset="0.3125"/><stop stop-opacity="1" stop-color="rgb(0%, 52.090454%, 77.804565%)" offset="0.328125"/><stop stop-opacity="1" stop-color="rgb(0%, 52.2995%, 78.117371%)" offset="0.34375"/><stop stop-opacity="1" stop-color="rgb(0%, 52.510071%, 78.430176%)" offset="0.359375"/><stop stop-opacity="1" stop-color="rgb(0%, 52.719116%, 78.742981%)" offset="0.375"/><stop stop-opacity="1" stop-color="rgb(0%, 52.928162%, 79.05426%)" offset="0.390625"/><stop stop-opacity="1" stop-color="rgb(0%, 53.137207%, 79.367065%)" offset="0.40625"/><stop stop-opacity="1" stop-color="rgb(0%, 53.347778%, 79.679871%)" offset="0.421875"/><stop stop-opacity="1" stop-color="rgb(0%, 53.556824%, 79.992676%)" offset="0.4375"/><stop stop-opacity="1" stop-color="rgb(0%, 53.765869%, 80.305481%)" offset="0.453125"/><stop stop-opacity="1" stop-color="rgb(0%, 53.974915%, 80.61676%)" offset="0.46875"/><stop stop-opacity="1" stop-color="rgb(0%, 54.18396%, 80.929565%)" offset="0.484375"/><stop stop-opacity="1" stop-color="rgb(0%, 54.394531%, 81.242371%)" offset="0.5"/><stop stop-opacity="1" stop-color="rgb(0%, 54.603577%, 81.555176%)" offset="0.515625"/><stop stop-opacity="1" stop-color="rgb(0%, 54.812622%, 81.867981%)" offset="0.53125"/><stop stop-opacity="1" stop-color="rgb(0%, 55.021667%, 82.17926%)" offset="0.546875"/><stop stop-opacity="1" stop-color="rgb(0%, 55.230713%, 82.492065%)" offset="0.5625"/><stop stop-opacity="1" stop-color="rgb(0%, 55.441284%, 82.804871%)" offset="0.578125"/><stop stop-opacity="1" stop-color="rgb(0%, 55.65033%, 83.117676%)" offset="0.59375"/><stop stop-opacity="1" stop-color="rgb(0%, 55.859375%, 83.430481%)" offset="0.609375"/><stop stop-opacity="1" stop-color="rgb(0%, 56.06842%, 83.74176%)" offset="0.625"/><stop stop-opacity="1" stop-color="rgb(0%, 56.278992%, 84.054565%)" offset="0.640625"/><stop stop-opacity="1" stop-color="rgb(0%, 56.488037%, 84.367371%)" offset="0.65625"/><stop stop-opacity="1" stop-color="rgb(0%, 56.697083%, 84.680176%)" offset="0.671875"/><stop stop-opacity="1" stop-color="rgb(0%, 56.906128%, 84.992981%)" offset="0.6875"/><stop stop-opacity="1" stop-color="rgb(0%, 57.115173%, 85.30426%)" offset="0.703125"/><stop stop-opacity="1" stop-color="rgb(0%, 57.325745%, 85.617065%)" offset="0.71875"/><stop stop-opacity="1" stop-color="rgb(0%, 57.53479%, 85.929871%)" offset="0.734375"/><stop stop-opacity="1" stop-color="rgb(0%, 57.743835%, 86.242676%)" offset="0.75"/><stop stop-opacity="1" stop-color="rgb(0%, 57.952881%, 86.555481%)" offset="0.765625"/><stop stop-opacity="1" stop-color="rgb(0%, 58.163452%, 86.86676%)" offset="0.78125"/><stop stop-opacity="1" stop-color="rgb(0%, 58.372498%, 87.179565%)" offset="0.796875"/><stop stop-opacity="1" stop-color="rgb(0%, 58.581543%, 87.492371%)" offset="0.8125"/><stop stop-opacity="1" stop-color="rgb(0%, 58.790588%, 87.805176%)" offset="0.828125"/><stop stop-opacity="1" stop-color="rgb(0%, 58.999634%, 88.117981%)" offset="0.84375"/><stop stop-opacity="1" stop-color="rgb(0%, 59.210205%, 88.42926%)" offset="0.859375"/><stop stop-opacity="1" stop-color="rgb(0%, 59.41925%, 88.742065%)" offset="0.875"/><stop stop-opacity="1" stop-color="rgb(0%, 59.628296%, 89.054871%)" offset="0.890625"/><stop stop-opacity="1" stop-color="rgb(0%, 59.837341%, 89.367676%)" offset="0.90625"/><stop stop-opacity="1" stop-color="rgb(0%, 60.046387%, 89.680481%)" offset="0.921875"/><stop stop-opacity="1" stop-color="rgb(0%, 60.256958%, 89.99176%)" offset="0.9375"/><stop stop-opacity="1" stop-color="rgb(0%, 60.466003%, 90.304565%)" offset="0.953125"/><stop stop-opacity="1" stop-color="rgb(0%, 60.675049%, 90.617371%)" offset="0.96875"/><stop stop-opacity="1" stop-color="rgb(0%, 60.884094%, 90.930176%)" offset="0.984375"/><stop stop-opacity="1" stop-color="rgb(0%, 61.094666%, 91.242981%)" offset="1"/></linearGradient></defs><g clip-path="url(#c805c68115)"><g clip-path="url(#76fcf306fd)"><path fill="url(#98cce7c6a5)" d="M 64.875 0.0078125 L 64.875 374.992188 L 310.125 374.992188 L 310.125 0.0078125 Z M 64.875 0.0078125 " fill-rule="nonzero"/></g></g></svg>