<svg xmlns="http://www.w3.org/2000/svg" xmlns:xlink="http://www.w3.org/1999/xlink" width="500" zoomAndPan="magnify" viewBox="0 0 375 374.999991" height="500" preserveAspectRatio="xMidYMid meet" version="1.0"><defs><clipPath id="27607a3190"><path d="M 24 0 L 351 0 L 351 375 L 24 375 Z M 24 0 " clip-rule="nonzero"/></clipPath><clipPath id="8f95842e54"><path d="M 245.105469 153.277344 C 243.984375 153.277344 242.867188 153.328125 241.75 153.4375 C 240.636719 153.546875 239.527344 153.710938 238.429688 153.929688 C 237.328125 154.148438 236.242188 154.421875 235.171875 154.746094 C 234.097656 155.070312 233.042969 155.445312 232.007812 155.875 C 230.972656 156.304688 229.960938 156.78125 228.972656 157.308594 C 227.980469 157.839844 227.023438 158.414062 226.089844 159.035156 C 225.15625 159.65625 224.257812 160.324219 223.390625 161.035156 C 222.523438 161.746094 221.695312 162.496094 220.902344 163.289062 C 220.109375 164.082031 219.355469 164.910156 218.644531 165.777344 C 217.933594 166.644531 217.265625 167.542969 216.644531 168.472656 C 216.019531 169.40625 215.445312 170.367188 214.917969 171.355469 C 214.386719 172.34375 213.910156 173.355469 213.480469 174.390625 C 213.050781 175.425781 212.671875 176.480469 212.347656 177.550781 C 212.019531 178.625 211.75 179.710938 211.53125 180.808594 C 211.3125 181.910156 211.144531 183.015625 211.035156 184.132812 C 210.925781 185.246094 210.871094 186.363281 210.871094 187.484375 C 210.871094 188.605469 210.925781 189.722656 211.035156 190.839844 C 211.144531 191.957031 211.308594 193.0625 211.527344 194.160156 C 211.742188 195.261719 212.015625 196.347656 212.339844 197.421875 C 212.664062 198.492188 213.042969 199.546875 213.472656 200.582031 C 213.898438 201.617188 214.378906 202.628906 214.90625 203.617188 C 215.433594 204.609375 216.011719 205.566406 216.632812 206.5 C 217.253906 207.433594 217.921875 208.332031 218.632812 209.199219 C 219.34375 210.066406 220.09375 210.894531 220.886719 211.6875 C 221.679688 212.480469 222.507812 213.230469 223.375 213.941406 C 224.242188 214.652344 225.140625 215.320312 226.074219 215.945312 C 227.003906 216.566406 227.964844 217.144531 228.953125 217.671875 C 229.941406 218.199219 230.953125 218.679688 231.988281 219.109375 C 233.023438 219.535156 234.078125 219.914062 235.152344 220.238281 C 236.222656 220.566406 237.308594 220.835938 238.40625 221.054688 C 239.507812 221.273438 240.613281 221.441406 241.730469 221.550781 C 242.84375 221.660156 243.964844 221.714844 245.085938 221.714844 C 246.207031 221.714844 247.324219 221.660156 248.4375 221.550781 C 249.554688 221.441406 250.660156 221.277344 251.761719 221.058594 C 252.859375 220.839844 253.945312 220.566406 255.019531 220.242188 C 256.089844 219.917969 257.144531 219.539062 258.179688 219.113281 C 259.21875 218.683594 260.230469 218.203125 261.21875 217.675781 C 262.207031 217.148438 263.167969 216.574219 264.097656 215.949219 C 265.03125 215.328125 265.929688 214.660156 266.796875 213.949219 C 267.664062 213.238281 268.492188 212.488281 269.285156 211.695312 C 270.078125 210.902344 270.828125 210.074219 271.539062 209.207031 C 272.25 208.339844 272.917969 207.441406 273.539062 206.507812 C 274.164062 205.578125 274.738281 204.617188 275.269531 203.628906 C 275.796875 202.640625 276.273438 201.628906 276.703125 200.59375 C 277.132812 199.554688 277.511719 198.503906 277.835938 197.429688 C 278.160156 196.355469 278.433594 195.269531 278.652344 194.171875 C 278.871094 193.074219 279.035156 191.964844 279.144531 190.851562 C 279.253906 189.734375 279.308594 188.617188 279.308594 187.496094 C 279.308594 186.375 279.253906 185.257812 279.144531 184.144531 C 279.03125 183.027344 278.867188 181.921875 278.648438 180.824219 C 278.429688 179.722656 278.160156 178.636719 277.832031 177.566406 C 277.507812 176.496094 277.128906 175.441406 276.703125 174.40625 C 276.273438 173.371094 275.792969 172.359375 275.265625 171.371094 C 274.738281 170.382812 274.164062 169.425781 273.539062 168.492188 C 272.917969 167.5625 272.253906 166.664062 271.542969 165.796875 C 270.832031 164.929688 270.078125 164.101562 269.289062 163.308594 C 268.496094 162.515625 267.667969 161.765625 266.800781 161.054688 C 265.933594 160.34375 265.035156 159.675781 264.105469 159.054688 C 263.175781 158.429688 262.214844 157.855469 261.226562 157.324219 C 260.238281 156.796875 259.226562 156.320312 258.191406 155.890625 C 257.160156 155.460938 256.105469 155.082031 255.035156 154.757812 C 253.960938 154.429688 252.875 154.15625 251.777344 153.9375 C 250.679688 153.71875 249.574219 153.554688 248.457031 153.445312 C 247.34375 153.332031 246.226562 153.277344 245.105469 153.277344 Z M 245.105469 234.21875 C 243.574219 234.21875 242.046875 234.144531 240.523438 233.996094 C 239 233.847656 237.488281 233.625 235.988281 233.324219 C 234.488281 233.027344 233.003906 232.65625 231.539062 232.214844 C 230.074219 231.769531 228.636719 231.253906 227.222656 230.671875 C 225.804688 230.085938 224.425781 229.433594 223.074219 228.710938 C 221.722656 227.992188 220.414062 227.207031 219.140625 226.355469 C 217.867188 225.503906 216.640625 224.59375 215.457031 223.625 C 214.273438 222.65625 213.140625 221.628906 212.058594 220.546875 C 210.972656 219.464844 209.945312 218.332031 208.976562 217.148438 C 208.003906 215.96875 207.09375 214.738281 206.242188 213.46875 C 205.390625 212.195312 204.605469 210.882812 203.882812 209.535156 C 203.160156 208.1875 202.507812 206.804688 201.921875 205.390625 C 201.335938 203.976562 200.820312 202.539062 200.375 201.074219 C 199.929688 199.609375 199.558594 198.125 199.257812 196.625 C 198.960938 195.125 198.734375 193.613281 198.585938 192.089844 C 198.433594 190.566406 198.359375 189.039062 198.359375 187.507812 C 198.359375 185.976562 198.433594 184.453125 198.582031 182.929688 C 198.730469 181.40625 198.957031 179.894531 199.253906 178.390625 C 199.550781 176.890625 199.921875 175.40625 200.367188 173.941406 C 200.8125 172.480469 201.324219 171.039062 201.910156 169.625 C 202.496094 168.210938 203.148438 166.828125 203.871094 165.480469 C 204.589844 164.128906 205.378906 162.816406 206.226562 161.546875 C 207.078125 160.273438 207.988281 159.042969 208.957031 157.859375 C 209.929688 156.679688 210.953125 155.546875 212.035156 154.460938 C 213.117188 153.378906 214.25 152.351562 215.433594 151.382812 C 216.617188 150.410156 217.84375 149.5 219.117188 148.648438 C 220.390625 147.800781 221.699219 147.011719 223.050781 146.292969 C 224.398438 145.570312 225.78125 144.914062 227.195312 144.328125 C 228.609375 143.742188 230.046875 143.230469 231.511719 142.785156 C 232.976562 142.339844 234.460938 141.96875 235.960938 141.667969 C 237.460938 141.371094 238.972656 141.144531 240.496094 140.996094 C 242.019531 140.84375 243.546875 140.769531 245.078125 140.769531 C 246.609375 140.769531 248.132812 140.84375 249.65625 140.996094 C 251.179688 141.144531 252.691406 141.367188 254.195312 141.667969 C 255.695312 141.964844 257.175781 142.335938 258.640625 142.78125 C 260.105469 143.222656 261.546875 143.738281 262.960938 144.324219 C 264.375 144.910156 265.753906 145.5625 267.105469 146.285156 C 268.457031 147.007812 269.765625 147.792969 271.039062 148.640625 C 272.3125 149.492188 273.539062 150.402344 274.722656 151.375 C 275.90625 152.34375 277.039062 153.371094 278.121094 154.453125 C 279.203125 155.535156 280.230469 156.667969 281.199219 157.851562 C 282.171875 159.035156 283.082031 160.261719 283.933594 161.535156 C 284.78125 162.804688 285.570312 164.117188 286.289062 165.46875 C 287.011719 166.816406 287.664062 168.199219 288.25 169.613281 C 288.835938 171.027344 289.351562 172.464844 289.796875 173.929688 C 290.242188 175.394531 290.613281 176.878906 290.910156 178.378906 C 291.210938 179.878906 291.433594 181.390625 291.582031 182.914062 C 291.734375 184.4375 291.808594 185.964844 291.808594 187.496094 C 291.808594 189.023438 291.730469 190.550781 291.578125 192.074219 C 291.425781 193.59375 291.203125 195.105469 290.902344 196.605469 C 290.601562 198.105469 290.230469 199.585938 289.785156 201.050781 C 289.339844 202.511719 288.824219 203.949219 288.238281 205.363281 C 287.652344 206.773438 287 208.15625 286.277344 209.503906 C 285.558594 210.851562 284.769531 212.164062 283.921875 213.433594 C 283.070312 214.707031 282.160156 215.933594 281.191406 217.113281 C 280.222656 218.296875 279.195312 219.429688 278.113281 220.511719 C 277.035156 221.59375 275.902344 222.617188 274.71875 223.589844 C 273.539062 224.558594 272.3125 225.46875 271.039062 226.320312 C 269.769531 227.171875 268.460938 227.957031 267.113281 228.679688 C 265.761719 229.402344 264.382812 230.054688 262.96875 230.640625 C 261.558594 231.230469 260.121094 231.746094 258.65625 232.191406 C 257.195312 232.636719 255.714844 233.007812 254.214844 233.308594 C 252.714844 233.609375 251.203125 233.835938 249.679688 233.988281 C 248.160156 234.140625 246.632812 234.21875 245.105469 234.21875 Z M 161.644531 176.613281 L 175.605469 174.101562 C 176.1875 173.988281 176.742188 173.800781 177.269531 173.53125 C 177.796875 173.265625 178.28125 172.929688 178.714844 172.527344 C 179.148438 172.125 179.519531 171.671875 179.828125 171.164062 C 180.136719 170.65625 180.367188 170.121094 180.523438 169.546875 C 181.992188 164.269531 184.078125 159.246094 186.78125 154.480469 C 187.070312 153.96875 187.28125 153.425781 187.417969 152.851562 C 187.554688 152.28125 187.609375 151.699219 187.582031 151.113281 C 187.554688 150.523438 187.445312 149.953125 187.257812 149.394531 C 187.070312 148.839844 186.808594 148.316406 186.472656 147.835938 L 178.375 136.167969 L 193.796875 120.730469 L 205.457031 128.894531 C 205.945312 129.214844 206.46875 129.464844 207.03125 129.644531 C 207.589844 129.824219 208.160156 129.925781 208.746094 129.945312 C 209.332031 129.96875 209.910156 129.914062 210.484375 129.78125 C 211.054688 129.644531 211.597656 129.4375 212.109375 129.15625 C 216.882812 126.453125 221.910156 124.378906 227.199219 122.929688 C 227.765625 122.769531 228.296875 122.53125 228.796875 122.222656 C 229.292969 121.914062 229.742188 121.542969 230.136719 121.109375 C 230.535156 120.671875 230.863281 120.191406 231.125 119.667969 C 231.386719 119.140625 231.570312 118.589844 231.675781 118.011719 L 234.199219 104.042969 L 256.019531 104.042969 L 258.539062 118.011719 C 258.644531 118.589844 258.828125 119.140625 259.089844 119.667969 C 259.351562 120.195312 259.679688 120.675781 260.078125 121.109375 C 260.472656 121.546875 260.921875 121.917969 261.421875 122.226562 C 261.921875 122.535156 262.453125 122.769531 263.019531 122.929688 C 268.304688 124.378906 273.332031 126.453125 278.097656 129.15625 C 278.613281 129.4375 279.152344 129.644531 279.722656 129.78125 C 280.292969 129.914062 280.871094 129.972656 281.457031 129.949219 C 282.042969 129.925781 282.613281 129.824219 283.171875 129.644531 C 283.730469 129.464844 284.253906 129.214844 284.742188 128.894531 L 296.410156 120.730469 L 311.847656 136.167969 L 303.734375 147.835938 C 303.398438 148.316406 303.136719 148.835938 302.945312 149.394531 C 302.757812 149.953125 302.648438 150.523438 302.625 151.113281 C 302.597656 151.699219 302.652344 152.28125 302.789062 152.855469 C 302.925781 153.425781 303.140625 153.96875 303.433594 154.480469 C 306.128906 159.25 308.210938 164.269531 309.683594 169.546875 C 309.839844 170.121094 310.070312 170.660156 310.378906 171.164062 C 310.683594 171.671875 311.054688 172.125 311.488281 172.527344 C 311.925781 172.929688 312.40625 173.265625 312.933594 173.53125 C 313.460938 173.800781 314.015625 173.988281 314.597656 174.101562 L 328.5625 176.613281 L 328.5625 198.429688 L 314.597656 200.941406 C 314.015625 201.035156 313.460938 201.207031 312.929688 201.460938 C 312.398438 201.714844 311.914062 202.039062 311.480469 202.433594 C 311.042969 202.828125 310.671875 203.277344 310.367188 203.78125 C 310.058594 204.285156 309.832031 204.820312 309.683594 205.390625 C 308.222656 210.671875 306.140625 215.695312 303.433594 220.457031 C 303.144531 220.96875 302.929688 221.511719 302.789062 222.085938 C 302.652344 222.65625 302.597656 223.238281 302.625 223.824219 C 302.648438 224.414062 302.757812 224.988281 302.949219 225.542969 C 303.136719 226.101562 303.402344 226.621094 303.738281 227.105469 L 311.84375 238.769531 L 296.410156 254.257812 L 284.742188 246.148438 C 284.265625 245.808594 283.746094 245.539062 283.191406 245.34375 C 282.632812 245.152344 282.0625 245.039062 281.472656 245.003906 C 280.886719 244.972656 280.304688 245.023438 279.730469 245.15625 C 279.15625 245.285156 278.613281 245.496094 278.097656 245.78125 C 273.332031 248.503906 268.304688 250.59375 263.019531 252.0625 C 262.453125 252.222656 261.921875 252.457031 261.421875 252.765625 C 260.921875 253.074219 260.472656 253.445312 260.078125 253.882812 C 259.679688 254.316406 259.351562 254.796875 259.089844 255.324219 C 258.828125 255.851562 258.644531 256.402344 258.539062 256.980469 L 256.019531 270.949219 L 234.199219 270.949219 L 231.675781 256.980469 C 231.570312 256.402344 231.386719 255.851562 231.125 255.324219 C 230.863281 254.796875 230.535156 254.320312 230.136719 253.882812 C 229.742188 253.449219 229.292969 253.078125 228.796875 252.769531 C 228.296875 252.457031 227.765625 252.222656 227.199219 252.0625 C 221.90625 250.597656 216.878906 248.503906 212.109375 245.78125 C 211.59375 245.496094 211.050781 245.289062 210.476562 245.15625 C 209.902344 245.023438 209.320312 244.972656 208.730469 245.003906 C 208.140625 245.039062 207.570312 245.152344 207.011719 245.347656 C 206.457031 245.539062 205.9375 245.808594 205.457031 246.148438 L 193.796875 254.257812 L 178.371094 238.769531 L 186.472656 227.101562 C 186.808594 226.617188 187.070312 226.097656 187.257812 225.542969 C 187.449219 224.984375 187.554688 224.410156 187.582031 223.824219 C 187.609375 223.234375 187.554688 222.65625 187.421875 222.082031 C 187.285156 221.511719 187.070312 220.96875 186.78125 220.457031 C 184.066406 215.695312 181.980469 210.671875 180.523438 205.386719 C 180.371094 204.820312 180.144531 204.28125 179.839844 203.78125 C 179.53125 203.277344 179.160156 202.828125 178.726562 202.433594 C 178.289062 202.039062 177.804688 201.714844 177.273438 201.460938 C 176.742188 201.207031 176.1875 201.03125 175.605469 200.941406 L 161.644531 198.429688 Z M 158.75 210.570312 C 158.082031 210.453125 157.429688 210.273438 156.796875 210.042969 C 156.160156 209.808594 155.546875 209.519531 154.960938 209.179688 C 154.375 208.839844 153.820312 208.453125 153.300781 208.015625 C 152.78125 207.582031 152.304688 207.101562 151.871094 206.582031 C 151.433594 206.0625 151.046875 205.511719 150.707031 204.921875 C 150.367188 204.335938 150.082031 203.722656 149.847656 203.085938 C 149.617188 202.449219 149.441406 201.796875 149.320312 201.132812 C 149.203125 200.464844 149.140625 199.789062 149.140625 199.113281 L 149.140625 175.878906 C 149.140625 175.199219 149.199219 174.523438 149.316406 173.855469 C 149.433594 173.183594 149.605469 172.53125 149.839844 171.890625 C 150.070312 171.25 150.355469 170.636719 150.695312 170.046875 C 151.03125 169.457031 151.417969 168.902344 151.855469 168.378906 C 152.292969 167.859375 152.769531 167.378906 153.289062 166.9375 C 153.808594 166.5 154.363281 166.109375 154.949219 165.769531 C 155.539062 165.425781 156.152344 165.136719 156.789062 164.902344 C 157.429688 164.667969 158.082031 164.488281 158.75 164.367188 L 169.632812 162.433594 C 170.839844 158.785156 172.300781 155.246094 174.019531 151.8125 L 167.714844 142.761719 C 167.324219 142.203125 166.988281 141.613281 166.703125 140.996094 C 166.414062 140.375 166.183594 139.738281 166.011719 139.078125 C 165.835938 138.421875 165.71875 137.753906 165.660156 137.074219 C 165.601562 136.394531 165.601562 135.71875 165.664062 135.039062 C 165.722656 134.359375 165.839844 133.691406 166.019531 133.035156 C 166.195312 132.375 166.425781 131.738281 166.714844 131.121094 C 167 130.503906 167.339844 129.914062 167.730469 129.359375 C 168.121094 128.800781 168.558594 128.277344 169.039062 127.796875 L 185.445312 111.417969 C 185.925781 110.941406 186.445312 110.507812 187 110.117188 C 187.558594 109.730469 188.144531 109.390625 188.757812 109.105469 C 189.375 108.816406 190.011719 108.585938 190.664062 108.410156 C 191.320312 108.230469 191.988281 108.113281 192.664062 108.050781 C 193.339844 107.988281 194.015625 107.988281 194.691406 108.042969 C 195.367188 108.097656 196.035156 108.210938 196.691406 108.382812 C 197.347656 108.554688 197.988281 108.78125 198.605469 109.0625 C 199.222656 109.34375 199.8125 109.675781 200.371094 110.058594 L 209.460938 116.441406 C 212.882812 114.71875 216.414062 113.253906 220.050781 112.046875 L 222.007812 101.164062 C 222.125 100.496094 222.300781 99.839844 222.535156 99.199219 C 222.765625 98.5625 223.054688 97.949219 223.394531 97.359375 C 223.734375 96.769531 224.125 96.214844 224.5625 95.695312 C 225 95.175781 225.476562 94.695312 226 94.257812 C 226.519531 93.820312 227.078125 93.433594 227.664062 93.09375 C 228.253906 92.753906 228.871094 92.46875 229.507812 92.238281 C 230.148438 92.003906 230.800781 91.828125 231.472656 91.710938 C 232.140625 91.59375 232.816406 91.535156 233.496094 91.539062 L 256.714844 91.539062 C 257.394531 91.535156 258.070312 91.59375 258.738281 91.710938 C 259.410156 91.828125 260.0625 92.003906 260.703125 92.238281 C 261.339844 92.46875 261.957031 92.753906 262.542969 93.09375 C 263.132812 93.433594 263.6875 93.820312 264.210938 94.257812 C 264.730469 94.695312 265.210938 95.175781 265.648438 95.695312 C 266.085938 96.214844 266.472656 96.769531 266.8125 97.359375 C 267.152344 97.949219 267.441406 98.5625 267.671875 99.203125 C 267.90625 99.839844 268.082031 100.496094 268.199219 101.164062 L 270.160156 112.046875 C 273.800781 113.253906 277.335938 114.71875 280.761719 116.441406 L 289.84375 110.058594 C 290.402344 109.675781 290.992188 109.34375 291.609375 109.0625 C 292.226562 108.78125 292.863281 108.554688 293.519531 108.382812 C 294.179688 108.210938 294.84375 108.097656 295.519531 108.042969 C 296.199219 107.988281 296.875 107.988281 297.550781 108.050781 C 298.226562 108.113281 298.890625 108.234375 299.546875 108.410156 C 300.203125 108.585938 300.835938 108.820312 301.453125 109.105469 C 302.066406 109.390625 302.652344 109.730469 303.207031 110.117188 C 303.765625 110.507812 304.285156 110.941406 304.765625 111.417969 L 321.171875 127.796875 C 321.652344 128.28125 322.085938 128.800781 322.476562 129.359375 C 322.867188 129.917969 323.203125 130.503906 323.492188 131.121094 C 323.777344 131.738281 324.011719 132.378906 324.1875 133.035156 C 324.363281 133.691406 324.480469 134.359375 324.542969 135.039062 C 324.601562 135.71875 324.601562 136.394531 324.542969 137.074219 C 324.488281 137.753906 324.371094 138.421875 324.195312 139.078125 C 324.023438 139.738281 323.792969 140.375 323.507812 140.992188 C 323.222656 141.613281 322.882812 142.199219 322.496094 142.761719 L 316.1875 151.8125 C 317.90625 155.246094 319.371094 158.785156 320.582031 162.429688 L 331.464844 164.367188 C 332.132812 164.488281 332.785156 164.667969 333.425781 164.902344 C 334.0625 165.136719 334.675781 165.425781 335.261719 165.769531 C 335.851562 166.109375 336.402344 166.5 336.921875 166.9375 C 337.441406 167.378906 337.921875 167.859375 338.355469 168.378906 C 338.792969 168.902344 339.179688 169.457031 339.515625 170.046875 C 339.855469 170.636719 340.140625 171.25 340.371094 171.890625 C 340.605469 172.53125 340.777344 173.183594 340.894531 173.855469 C 341.011719 174.523438 341.070312 175.199219 341.070312 175.878906 L 341.070312 199.109375 C 341.070312 199.789062 341.007812 200.460938 340.890625 201.128906 C 340.769531 201.796875 340.59375 202.449219 340.363281 203.085938 C 340.128906 203.722656 339.84375 204.332031 339.503906 204.921875 C 339.164062 205.507812 338.777344 206.0625 338.34375 206.582031 C 337.90625 207.101562 337.429688 207.578125 336.910156 208.015625 C 336.394531 208.449219 335.839844 208.839844 335.253906 209.179688 C 334.667969 209.519531 334.054688 209.808594 333.417969 210.039062 C 332.78125 210.273438 332.132812 210.449219 331.464844 210.570312 L 320.582031 212.558594 C 319.359375 216.183594 317.894531 219.707031 316.1875 223.128906 L 322.496094 232.175781 C 322.882812 232.738281 323.222656 233.324219 323.507812 233.945312 C 323.792969 234.5625 324.023438 235.199219 324.195312 235.859375 C 324.371094 236.515625 324.488281 237.1875 324.546875 237.863281 C 324.605469 238.542969 324.601562 239.222656 324.542969 239.898438 C 324.484375 240.578125 324.363281 241.246094 324.1875 241.902344 C 324.011719 242.5625 323.78125 243.199219 323.492188 243.816406 C 323.207031 244.433594 322.867188 245.023438 322.476562 245.582031 C 322.085938 246.136719 321.652344 246.660156 321.171875 247.140625 L 304.765625 263.570312 C 304.28125 264.046875 303.761719 264.480469 303.207031 264.867188 C 302.648438 265.253906 302.0625 265.589844 301.445312 265.875 C 300.828125 266.160156 300.191406 266.386719 299.539062 266.5625 C 298.882812 266.738281 298.214844 266.855469 297.539062 266.914062 C 296.863281 266.972656 296.1875 266.972656 295.511719 266.914062 C 294.835938 266.859375 294.171875 266.742188 293.515625 266.570312 C 292.859375 266.394531 292.222656 266.167969 291.605469 265.882812 C 290.988281 265.601562 290.402344 265.265625 289.84375 264.878906 L 280.761719 258.601562 C 277.332031 260.304688 273.800781 261.753906 270.160156 262.945312 L 268.199219 273.828125 C 268.082031 274.496094 267.90625 275.152344 267.671875 275.789062 C 267.441406 276.429688 267.152344 277.042969 266.8125 277.632812 C 266.472656 278.222656 266.085938 278.777344 265.648438 279.296875 C 265.210938 279.816406 264.730469 280.296875 264.210938 280.734375 C 263.6875 281.171875 263.132812 281.558594 262.542969 281.898438 C 261.957031 282.238281 261.339844 282.523438 260.703125 282.757812 C 260.0625 282.988281 259.410156 283.164062 258.738281 283.28125 C 258.070312 283.398438 257.394531 283.457031 256.714844 283.457031 L 233.503906 283.457031 C 232.824219 283.457031 232.148438 283.398438 231.476562 283.28125 C 230.808594 283.164062 230.152344 282.988281 229.515625 282.757812 C 228.875 282.523438 228.261719 282.238281 227.671875 281.898438 C 227.082031 281.558594 226.527344 281.171875 226.003906 280.734375 C 225.484375 280.296875 225.003906 279.820312 224.566406 279.296875 C 224.128906 278.777344 223.742188 278.222656 223.398438 277.632812 C 223.058594 277.042969 222.773438 276.429688 222.539062 275.792969 C 222.308594 275.152344 222.132812 274.5 222.011719 273.828125 L 220.058594 262.945312 C 216.417969 261.757812 212.890625 260.3125 209.464844 258.601562 L 200.378906 264.882812 C 199.820312 265.265625 199.230469 265.601562 198.613281 265.886719 C 197.996094 266.167969 197.363281 266.398438 196.707031 266.570312 C 196.050781 266.742188 195.382812 266.859375 194.707031 266.917969 C 194.03125 266.976562 193.355469 266.976562 192.679688 266.914062 C 192 266.855469 191.335938 266.738281 190.679688 266.566406 C 190.023438 266.390625 189.386719 266.160156 188.773438 265.875 C 188.15625 265.589844 187.570312 265.253906 187.011719 264.867188 C 186.453125 264.480469 185.933594 264.050781 185.449219 263.574219 L 169.042969 247.144531 C 168.5625 246.660156 168.125 246.140625 167.734375 245.582031 C 167.34375 245.023438 167.003906 244.4375 166.71875 243.820312 C 166.429688 243.203125 166.195312 242.566406 166.019531 241.90625 C 165.84375 241.25 165.722656 240.582031 165.664062 239.902344 C 165.601562 239.222656 165.601562 238.542969 165.660156 237.867188 C 165.71875 237.1875 165.835938 236.519531 166.007812 235.859375 C 166.183594 235.199219 166.414062 234.5625 166.703125 233.945312 C 166.988281 233.324219 167.324219 232.738281 167.714844 232.175781 L 174.019531 223.125 C 172.3125 219.707031 170.847656 216.183594 169.632812 212.558594 L 158.75 210.566406 Z M 24.003906 306.84375 C 24.003906 305.9375 24.09375 305.039062 24.269531 304.148438 C 24.445312 303.257812 24.707031 302.394531 25.054688 301.558594 C 25.402344 300.71875 25.828125 299.925781 26.332031 299.171875 C 26.835938 298.417969 27.410156 297.71875 28.050781 297.078125 C 28.691406 296.4375 29.390625 295.863281 30.144531 295.359375 C 30.898438 294.855469 31.695312 294.429688 32.53125 294.082031 C 33.371094 293.734375 34.234375 293.472656 35.121094 293.296875 C 36.011719 293.121094 36.910156 293.03125 37.816406 293.03125 L 68.765625 293.03125 C 69.664062 293.050781 70.546875 293.15625 71.421875 293.347656 C 72.300781 293.539062 73.148438 293.8125 73.96875 294.167969 C 74.792969 294.527344 75.574219 294.957031 76.3125 295.464844 C 77.050781 295.976562 77.730469 296.550781 78.359375 297.191406 C 78.984375 297.832031 79.542969 298.523438 80.035156 299.273438 C 80.527344 300.023438 80.945312 300.8125 81.28125 301.644531 C 81.621094 302.472656 81.875 303.328125 82.046875 304.207031 C 82.21875 305.085938 82.308594 305.972656 82.308594 306.871094 C 82.308594 307.765625 82.21875 308.65625 82.046875 309.535156 C 81.875 310.414062 81.621094 311.269531 81.28125 312.097656 C 80.945312 312.929688 80.527344 313.71875 80.035156 314.464844 C 79.542969 315.214844 78.984375 315.910156 78.359375 316.550781 C 77.730469 317.191406 77.050781 317.765625 76.3125 318.273438 C 75.574219 318.78125 74.792969 319.214844 73.96875 319.570312 C 73.148438 319.925781 72.300781 320.203125 71.421875 320.394531 C 70.546875 320.585938 69.664062 320.691406 68.765625 320.710938 L 37.816406 320.710938 C 36.90625 320.707031 36.007812 320.617188 35.117188 320.441406 C 34.226562 320.261719 33.359375 320 32.519531 319.648438 C 31.683594 319.300781 30.886719 318.871094 30.128906 318.367188 C 29.375 317.859375 28.675781 317.285156 28.035156 316.640625 C 27.394531 315.996094 26.820312 315.296875 26.316406 314.539062 C 25.816406 313.78125 25.390625 312.984375 25.042969 312.144531 C 24.699219 311.304688 24.4375 310.4375 24.261719 309.546875 C 24.085938 308.652344 24 307.753906 24.003906 306.84375 Z M 59.542969 213.8125 L 59.542969 280.578125 L 68.769531 280.578125 C 69.628906 280.582031 70.484375 280.628906 71.339844 280.71875 C 72.195312 280.804688 73.042969 280.933594 73.886719 281.105469 C 74.726562 281.277344 75.558594 281.492188 76.378906 281.742188 C 77.199219 281.996094 78.007812 282.289062 78.800781 282.621094 C 79.589844 282.953125 80.367188 283.320312 81.121094 283.730469 C 81.878906 284.136719 82.613281 284.582031 83.324219 285.0625 C 84.039062 285.539062 84.726562 286.054688 85.386719 286.601562 C 86.050781 287.148438 86.683594 287.726562 87.289062 288.335938 C 87.898438 288.945312 88.472656 289.582031 89.015625 290.246094 C 89.558594 290.910156 90.066406 291.601562 90.542969 292.316406 C 91.019531 293.03125 91.460938 293.769531 91.863281 294.527344 C 92.265625 295.285156 92.632812 296.0625 92.960938 296.855469 C 93.289062 297.648438 93.574219 298.457031 93.824219 299.28125 C 94.074219 300.101562 94.28125 300.9375 94.449219 301.777344 C 94.613281 302.621094 94.742188 303.46875 94.824219 304.324219 C 94.910156 305.179688 94.949219 306.035156 94.949219 306.894531 C 94.949219 307.753906 94.910156 308.613281 94.824219 309.46875 C 94.742188 310.320312 94.613281 311.171875 94.449219 312.011719 C 94.28125 312.855469 94.074219 313.6875 93.824219 314.511719 C 93.574219 315.332031 93.289062 316.140625 92.960938 316.9375 C 92.632812 317.730469 92.265625 318.507812 91.863281 319.265625 C 91.460938 320.023438 91.019531 320.757812 90.542969 321.476562 C 90.066406 322.191406 89.558594 322.878906 89.015625 323.546875 C 88.472656 324.210938 87.898438 324.847656 87.289062 325.457031 C 86.683594 326.066406 86.050781 326.644531 85.386719 327.191406 C 84.726562 327.738281 84.039062 328.25 83.324219 328.730469 C 82.613281 329.210938 81.878906 329.65625 81.121094 330.0625 C 80.367188 330.46875 79.589844 330.839844 78.800781 331.171875 C 78.007812 331.503906 77.199219 331.796875 76.378906 332.046875 C 75.558594 332.300781 74.726562 332.515625 73.886719 332.683594 C 73.042969 332.855469 72.195312 332.988281 71.339844 333.074219 C 70.484375 333.164062 69.628906 333.210938 68.769531 333.214844 L 59.542969 333.214844 L 59.542969 353.832031 C 59.542969 354.527344 59.574219 355.21875 59.644531 355.90625 C 59.710938 356.597656 59.8125 357.28125 59.949219 357.960938 C 60.085938 358.640625 60.253906 359.3125 60.453125 359.976562 C 60.65625 360.640625 60.886719 361.289062 61.152344 361.929688 C 61.417969 362.570312 61.714844 363.195312 62.042969 363.808594 C 62.367188 364.417969 62.722656 365.011719 63.109375 365.589844 C 63.492188 366.164062 63.90625 366.722656 64.34375 367.257812 C 64.785156 367.792969 65.25 368.304688 65.738281 368.796875 C 66.230469 369.285156 66.742188 369.75 67.277344 370.191406 C 67.8125 370.632812 68.371094 371.042969 68.945312 371.429688 C 69.523438 371.8125 70.117188 372.171875 70.726562 372.496094 C 71.339844 372.824219 71.964844 373.121094 72.605469 373.386719 C 73.242188 373.652344 73.894531 373.882812 74.558594 374.085938 C 75.222656 374.289062 75.894531 374.457031 76.574219 374.589844 C 77.253906 374.726562 77.9375 374.828125 78.628906 374.898438 C 79.316406 374.964844 80.007812 375 80.699219 375 L 126.75 375 L 126.75 0.0234375 L 80.699219 0.0234375 C 80.007812 0.0234375 79.316406 0.0546875 78.628906 0.125 C 77.941406 0.191406 77.253906 0.292969 76.578125 0.429688 C 75.898438 0.5625 75.226562 0.734375 74.5625 0.933594 C 73.902344 1.132812 73.25 1.367188 72.609375 1.632812 C 71.96875 1.898438 71.34375 2.191406 70.734375 2.519531 C 70.125 2.847656 69.53125 3.203125 68.953125 3.585938 C 68.378906 3.96875 67.820312 4.382812 67.285156 4.820312 C 66.75 5.261719 66.238281 5.726562 65.75 6.214844 C 65.257812 6.703125 64.792969 7.214844 64.355469 7.75 C 63.914062 8.285156 63.503906 8.839844 63.117188 9.417969 C 62.730469 9.992188 62.375 10.585938 62.050781 11.195312 C 61.722656 11.804688 61.425781 12.429688 61.160156 13.070312 C 60.894531 13.710938 60.660156 14.359375 60.460938 15.023438 C 60.257812 15.6875 60.089844 16.355469 59.953125 17.035156 C 59.816406 17.714844 59.714844 18.398438 59.644531 19.089844 C 59.578125 19.777344 59.542969 20.46875 59.542969 21.160156 L 59.542969 41.828125 L 68.769531 41.828125 C 69.632812 41.828125 70.492188 41.871094 71.347656 41.953125 C 72.207031 42.039062 73.054688 42.164062 73.902344 42.332031 C 74.746094 42.5 75.582031 42.707031 76.40625 42.957031 C 77.230469 43.207031 78.039062 43.496094 78.835938 43.828125 C 79.632812 44.15625 80.410156 44.523438 81.167969 44.929688 C 81.929688 45.335938 82.667969 45.777344 83.382812 46.257812 C 84.097656 46.734375 84.789062 47.246094 85.457031 47.792969 C 86.121094 48.339844 86.757812 48.917969 87.367188 49.527344 C 87.976562 50.136719 88.554688 50.773438 89.101562 51.4375 C 89.648438 52.105469 90.160156 52.792969 90.640625 53.511719 C 91.117188 54.226562 91.5625 54.964844 91.96875 55.722656 C 92.375 56.484375 92.742188 57.261719 93.070312 58.058594 C 93.398438 58.851562 93.691406 59.664062 93.941406 60.488281 C 94.191406 61.3125 94.398438 62.144531 94.566406 62.992188 C 94.734375 63.835938 94.863281 64.6875 94.945312 65.542969 C 95.03125 66.402344 95.074219 67.261719 95.074219 68.121094 C 95.074219 68.984375 95.03125 69.84375 94.945312 70.699219 C 94.863281 71.558594 94.734375 72.40625 94.566406 73.253906 C 94.398438 74.097656 94.191406 74.933594 93.941406 75.757812 C 93.691406 76.582031 93.398438 77.390625 93.070312 78.1875 C 92.742188 78.980469 92.375 79.757812 91.96875 80.519531 C 91.5625 81.277344 91.117188 82.015625 90.640625 82.734375 C 90.160156 83.449219 89.648438 84.140625 89.101562 84.804688 C 88.554688 85.472656 87.976562 86.109375 87.367188 86.71875 C 86.757812 87.328125 86.121094 87.902344 85.457031 88.449219 C 84.789062 88.996094 84.097656 89.507812 83.382812 89.988281 C 82.667969 90.464844 81.929688 90.90625 81.167969 91.3125 C 80.410156 91.71875 79.632812 92.085938 78.835938 92.417969 C 78.039062 92.746094 77.230469 93.035156 76.40625 93.285156 C 75.582031 93.535156 74.746094 93.746094 73.902344 93.910156 C 73.054688 94.078125 72.207031 94.207031 71.347656 94.289062 C 70.492188 94.375 69.632812 94.417969 68.769531 94.414062 L 59.542969 94.414062 L 59.542969 161.128906 L 68.769531 161.128906 C 69.632812 161.128906 70.492188 161.171875 71.351562 161.253906 C 72.210938 161.339844 73.0625 161.464844 73.910156 161.632812 C 74.753906 161.800781 75.589844 162.011719 76.417969 162.261719 C 77.242188 162.511719 78.054688 162.804688 78.851562 163.132812 C 79.648438 163.464844 80.429688 163.832031 81.1875 164.238281 C 81.949219 164.644531 82.6875 165.089844 83.40625 165.566406 C 84.125 166.046875 84.816406 166.558594 85.484375 167.109375 C 86.148438 167.65625 86.789062 168.234375 87.398438 168.84375 C 88.007812 169.453125 88.585938 170.09375 89.132812 170.757812 C 89.683594 171.425781 90.195312 172.117188 90.675781 172.835938 C 91.152344 173.554688 91.597656 174.292969 92.003906 175.054688 C 92.410156 175.8125 92.777344 176.59375 93.109375 177.390625 C 93.4375 178.1875 93.730469 179 93.980469 179.824219 C 94.230469 180.652344 94.441406 181.488281 94.609375 182.332031 C 94.777344 183.179688 94.902344 184.03125 94.988281 184.890625 C 95.070312 185.75 95.113281 186.609375 95.113281 187.472656 C 95.113281 188.335938 95.070312 189.195312 94.988281 190.054688 C 94.902344 190.914062 94.777344 191.765625 94.609375 192.613281 C 94.441406 193.457031 94.230469 194.292969 93.980469 195.121094 C 93.730469 195.945312 93.4375 196.757812 93.109375 197.554688 C 92.777344 198.351562 92.410156 199.128906 92.003906 199.890625 C 91.597656 200.652344 91.152344 201.390625 90.675781 202.109375 C 90.195312 202.824219 89.683594 203.519531 89.132812 204.183594 C 88.585938 204.851562 88.007812 205.492188 87.398438 206.101562 C 86.789062 206.710938 86.148438 207.289062 85.484375 207.835938 C 84.816406 208.382812 84.125 208.898438 83.40625 209.375 C 82.6875 209.855469 81.949219 210.300781 81.1875 210.707031 C 80.429688 211.113281 79.648438 211.480469 78.851562 211.8125 C 78.054688 212.140625 77.242188 212.433594 76.417969 212.683594 C 75.589844 212.933594 74.753906 213.140625 73.910156 213.308594 C 73.0625 213.480469 72.210938 213.605469 71.351562 213.691406 C 70.492188 213.773438 69.632812 213.816406 68.769531 213.816406 Z M 24.003906 187.496094 C 24.003906 186.589844 24.09375 185.6875 24.273438 184.800781 C 24.453125 183.910156 24.714844 183.042969 25.0625 182.207031 C 25.410156 181.367188 25.835938 180.570312 26.339844 179.816406 C 26.84375 179.058594 27.414062 178.359375 28.054688 177.71875 C 28.695312 177.074219 29.394531 176.5 30.144531 175.992188 C 30.898438 175.488281 31.695312 175.058594 32.53125 174.707031 C 33.367188 174.359375 34.230469 174.089844 35.121094 173.910156 C 36.011719 173.730469 36.910156 173.636719 37.816406 173.628906 L 68.765625 173.628906 C 69.664062 173.648438 70.546875 173.753906 71.421875 173.945312 C 72.300781 174.136719 73.148438 174.414062 73.96875 174.769531 C 74.792969 175.125 75.574219 175.558594 76.3125 176.066406 C 77.050781 176.574219 77.730469 177.148438 78.359375 177.789062 C 78.984375 178.429688 79.546875 179.125 80.035156 179.875 C 80.527344 180.621094 80.945312 181.414062 81.28125 182.242188 C 81.621094 183.070312 81.875 183.925781 82.046875 184.804688 C 82.222656 185.683594 82.308594 186.574219 82.308594 187.46875 C 82.308594 188.367188 82.222656 189.253906 82.046875 190.132812 C 81.875 191.011719 81.621094 191.867188 81.28125 192.695312 C 80.945312 193.527344 80.527344 194.316406 80.035156 195.066406 C 79.546875 195.816406 78.984375 196.511719 78.359375 197.152344 C 77.730469 197.792969 77.050781 198.367188 76.3125 198.875 C 75.574219 199.382812 74.792969 199.8125 73.96875 200.171875 C 73.148438 200.527344 72.300781 200.800781 71.421875 200.992188 C 70.546875 201.183594 69.664062 201.289062 68.765625 201.308594 L 37.816406 201.308594 C 36.910156 201.308594 36.011719 201.21875 35.121094 201.042969 C 34.234375 200.867188 33.371094 200.605469 32.53125 200.257812 C 31.695312 199.910156 30.898438 199.484375 30.144531 198.980469 C 29.390625 198.476562 28.691406 197.902344 28.050781 197.261719 C 27.410156 196.621094 26.835938 195.921875 26.332031 195.167969 C 25.828125 194.414062 25.402344 193.617188 25.054688 192.78125 C 24.707031 191.945312 24.445312 191.078125 24.269531 190.191406 C 24.09375 189.300781 24.003906 188.402344 24.003906 187.496094 Z M 24.003906 68.09375 C 24.007812 67.191406 24.097656 66.292969 24.277344 65.40625 C 24.457031 64.519531 24.71875 63.660156 25.066406 62.824219 C 25.417969 61.988281 25.84375 61.195312 26.347656 60.445312 C 26.851562 59.691406 27.425781 58.996094 28.066406 58.359375 C 28.707031 57.71875 29.402344 57.148438 30.15625 56.648438 C 30.910156 56.148438 31.707031 55.722656 32.542969 55.378906 C 33.378906 55.03125 34.242188 54.773438 35.128906 54.597656 C 36.015625 54.421875 36.914062 54.332031 37.816406 54.332031 L 68.765625 54.332031 C 69.671875 54.332031 70.570312 54.421875 71.460938 54.597656 C 72.351562 54.777344 73.214844 55.039062 74.050781 55.382812 C 74.890625 55.730469 75.6875 56.15625 76.441406 56.660156 C 77.195312 57.164062 77.894531 57.738281 78.535156 58.378906 C 79.175781 59.019531 79.746094 59.71875 80.25 60.472656 C 80.753906 61.226562 81.179688 62.023438 81.527344 62.859375 C 81.875 63.699219 82.136719 64.5625 82.3125 65.453125 C 82.492188 66.339844 82.578125 67.238281 82.578125 68.148438 C 82.578125 69.054688 82.492188 69.953125 82.3125 70.839844 C 82.136719 71.730469 81.875 72.59375 81.527344 73.433594 C 81.179688 74.269531 80.753906 75.066406 80.25 75.820312 C 79.746094 76.574219 79.175781 77.273438 78.535156 77.914062 C 77.894531 78.554688 77.195312 79.128906 76.441406 79.632812 C 75.6875 80.136719 74.890625 80.5625 74.050781 80.910156 C 73.214844 81.253906 72.351562 81.519531 71.460938 81.695312 C 70.570312 81.871094 69.671875 81.960938 68.765625 81.960938 L 37.816406 81.960938 C 36.910156 81.957031 36.007812 81.867188 35.121094 81.683594 C 34.230469 81.503906 33.363281 81.242188 32.527344 80.890625 C 31.6875 80.539062 30.890625 80.113281 30.136719 79.605469 C 29.382812 79.101562 28.6875 78.523438 28.046875 77.882812 C 27.40625 77.238281 26.832031 76.539062 26.328125 75.78125 C 25.824219 75.027344 25.398438 74.230469 25.054688 73.390625 C 24.707031 72.550781 24.445312 71.683594 24.269531 70.792969 C 24.089844 69.902344 24.003906 69.003906 24.003906 68.09375 Z M 350.964844 21.160156 L 350.964844 353.832031 C 350.964844 354.527344 350.929688 355.21875 350.863281 355.90625 C 350.792969 356.597656 350.691406 357.28125 350.554688 357.960938 C 350.421875 358.640625 350.253906 359.3125 350.050781 359.976562 C 349.847656 360.640625 349.617188 361.292969 349.351562 361.929688 C 349.085938 362.570312 348.789062 363.199219 348.460938 363.808594 C 348.136719 364.421875 347.777344 365.015625 347.394531 365.589844 C 347.007812 366.167969 346.597656 366.722656 346.15625 367.257812 C 345.714844 367.792969 345.25 368.308594 344.761719 368.796875 C 344.273438 369.285156 343.757812 369.75 343.222656 370.191406 C 342.6875 370.632812 342.132812 371.042969 341.554688 371.429688 C 340.980469 371.8125 340.386719 372.171875 339.773438 372.496094 C 339.164062 372.824219 338.535156 373.121094 337.894531 373.386719 C 337.257812 373.652344 336.605469 373.882812 335.941406 374.085938 C 335.277344 374.289062 334.605469 374.457031 333.925781 374.589844 C 333.246094 374.726562 332.5625 374.828125 331.871094 374.898438 C 331.183594 374.964844 330.492188 375 329.796875 375 L 139.25 375 L 139.25 0.0234375 L 329.800781 0.0234375 C 330.492188 0.0234375 331.183594 0.0546875 331.871094 0.125 C 332.5625 0.191406 333.246094 0.292969 333.925781 0.429688 C 334.605469 0.566406 335.277344 0.734375 335.9375 0.933594 C 336.601562 1.136719 337.253906 1.367188 337.890625 1.632812 C 338.53125 1.898438 339.15625 2.195312 339.769531 2.519531 C 340.378906 2.847656 340.972656 3.203125 341.546875 3.585938 C 342.125 3.96875 342.679688 4.382812 343.214844 4.820312 C 343.75 5.261719 344.265625 5.726562 344.753906 6.214844 C 345.246094 6.703125 345.710938 7.214844 346.148438 7.75 C 346.589844 8.285156 347 8.839844 347.386719 9.417969 C 347.773438 9.992188 348.128906 10.585938 348.457031 11.195312 C 348.78125 11.804688 349.078125 12.429688 349.34375 13.070312 C 349.609375 13.710938 349.84375 14.359375 350.046875 15.023438 C 350.25 15.6875 350.417969 16.355469 350.554688 17.035156 C 350.691406 17.714844 350.792969 18.398438 350.863281 19.085938 C 350.929688 19.777344 350.964844 20.46875 350.96875 21.160156 Z M 350.964844 21.160156 " clip-rule="evenodd"/></clipPath><linearGradient x1="255.978" gradientTransform="matrix(0.732422, 0, 0, 0.732422, 0.0000045, 0)" y1="512.000409" x2="255.979" gradientUnits="userSpaceOnUse" y2="0.0295628" id="4a883b6b7f"><stop stop-opacity="1" stop-color="rgb(0%, 47.799683%, 71.398926%)" offset="0"/><stop stop-opacity="1" stop-color="rgb(0%, 47.903442%, 71.554565%)" offset="0.00000170314"/><stop stop-opacity="1" stop-color="rgb(0%, 48.008728%, 71.711731%)" offset="0.015625"/><stop stop-opacity="1" stop-color="rgb(0%, 48.112488%, 71.867371%)" offset="0.03125"/><stop stop-opacity="1" stop-color="rgb(0%, 48.321533%, 72.180176%)" offset="0.046875"/><stop stop-opacity="1" stop-color="rgb(0%, 48.532104%, 72.492981%)" offset="0.0625"/><stop stop-opacity="1" stop-color="rgb(0%, 48.74115%, 72.80426%)" offset="0.078125"/><stop stop-opacity="1" stop-color="rgb(0%, 48.950195%, 73.117065%)" offset="0.09375"/><stop stop-opacity="1" stop-color="rgb(0%, 49.159241%, 73.429871%)" offset="0.109375"/><stop stop-opacity="1" stop-color="rgb(0%, 49.368286%, 73.742676%)" offset="0.125"/><stop stop-opacity="1" stop-color="rgb(0%, 49.578857%, 74.055481%)" offset="0.140625"/><stop stop-opacity="1" stop-color="rgb(0%, 49.787903%, 74.36676%)" offset="0.15625"/><stop stop-opacity="1" stop-color="rgb(0%, 49.996948%, 74.679565%)" offset="0.171875"/><stop stop-opacity="1" stop-color="rgb(0%, 50.205994%, 74.992371%)" offset="0.1875"/><stop stop-opacity="1" stop-color="rgb(0%, 50.416565%, 75.305176%)" offset="0.203125"/><stop stop-opacity="1" stop-color="rgb(0%, 50.62561%, 75.617981%)" offset="0.21875"/><stop stop-opacity="1" stop-color="rgb(0%, 50.834656%, 75.92926%)" offset="0.234375"/><stop stop-opacity="1" stop-color="rgb(0%, 51.043701%, 76.242065%)" offset="0.25"/><stop stop-opacity="1" stop-color="rgb(0%, 51.252747%, 76.554871%)" offset="0.265625"/><stop stop-opacity="1" stop-color="rgb(0%, 51.463318%, 76.867676%)" offset="0.28125"/><stop stop-opacity="1" stop-color="rgb(0%, 51.672363%, 77.180481%)" offset="0.296875"/><stop stop-opacity="1" stop-color="rgb(0%, 51.881409%, 77.49176%)" offset="0.3125"/><stop stop-opacity="1" stop-color="rgb(0%, 52.090454%, 77.804565%)" offset="0.328125"/><stop stop-opacity="1" stop-color="rgb(0%, 52.2995%, 78.117371%)" offset="0.34375"/><stop stop-opacity="1" stop-color="rgb(0%, 52.510071%, 78.430176%)" offset="0.359375"/><stop stop-opacity="1" stop-color="rgb(0%, 52.719116%, 78.742981%)" offset="0.375"/><stop stop-opacity="1" stop-color="rgb(0%, 52.928162%, 79.05426%)" offset="0.390625"/><stop stop-opacity="1" stop-color="rgb(0%, 53.137207%, 79.367065%)" offset="0.40625"/><stop stop-opacity="1" stop-color="rgb(0%, 53.347778%, 79.679871%)" offset="0.421875"/><stop stop-opacity="1" stop-color="rgb(0%, 53.556824%, 79.992676%)" offset="0.4375"/><stop stop-opacity="1" stop-color="rgb(0%, 53.765869%, 80.305481%)" offset="0.453125"/><stop stop-opacity="1" stop-color="rgb(0%, 53.974915%, 80.61676%)" offset="0.46875"/><stop stop-opacity="1" stop-color="rgb(0%, 54.18396%, 80.929565%)" offset="0.484375"/><stop stop-opacity="1" stop-color="rgb(0%, 54.394531%, 81.242371%)" offset="0.5"/><stop stop-opacity="1" stop-color="rgb(0%, 54.603577%, 81.555176%)" offset="0.515625"/><stop stop-opacity="1" stop-color="rgb(0%, 54.812622%, 81.867981%)" offset="0.53125"/><stop stop-opacity="1" stop-color="rgb(0%, 55.021667%, 82.17926%)" offset="0.546875"/><stop stop-opacity="1" stop-color="rgb(0%, 55.230713%, 82.492065%)" offset="0.5625"/><stop stop-opacity="1" stop-color="rgb(0%, 55.441284%, 82.804871%)" offset="0.578125"/><stop stop-opacity="1" stop-color="rgb(0%, 55.65033%, 83.117676%)" offset="0.59375"/><stop stop-opacity="1" stop-color="rgb(0%, 55.859375%, 83.430481%)" offset="0.609375"/><stop stop-opacity="1" stop-color="rgb(0%, 56.06842%, 83.74176%)" offset="0.625"/><stop stop-opacity="1" stop-color="rgb(0%, 56.278992%, 84.054565%)" offset="0.640625"/><stop stop-opacity="1" stop-color="rgb(0%, 56.488037%, 84.367371%)" offset="0.65625"/><stop stop-opacity="1" stop-color="rgb(0%, 56.697083%, 84.680176%)" offset="0.671875"/><stop stop-opacity="1" stop-color="rgb(0%, 56.906128%, 84.992981%)" offset="0.6875"/><stop stop-opacity="1" stop-color="rgb(0%, 57.115173%, 85.30426%)" offset="0.703125"/><stop stop-opacity="1" stop-color="rgb(0%, 57.325745%, 85.617065%)" offset="0.71875"/><stop stop-opacity="1" stop-color="rgb(0%, 57.53479%, 85.929871%)" offset="0.734375"/><stop stop-opacity="1" stop-color="rgb(0%, 57.743835%, 86.242676%)" offset="0.75"/><stop stop-opacity="1" stop-color="rgb(0%, 57.952881%, 86.555481%)" offset="0.765625"/><stop stop-opacity="1" stop-color="rgb(0%, 58.163452%, 86.86676%)" offset="0.78125"/><stop stop-opacity="1" stop-color="rgb(0%, 58.372498%, 87.179565%)" offset="0.796875"/><stop stop-opacity="1" stop-color="rgb(0%, 58.581543%, 87.492371%)" offset="0.8125"/><stop stop-opacity="1" stop-color="rgb(0%, 58.790588%, 87.805176%)" offset="0.828125"/><stop stop-opacity="1" stop-color="rgb(0%, 58.999634%, 88.117981%)" offset="0.84375"/><stop stop-opacity="1" stop-color="rgb(0%, 59.210205%, 88.42926%)" offset="0.859375"/><stop stop-opacity="1" stop-color="rgb(0%, 59.41925%, 88.742065%)" offset="0.875"/><stop stop-opacity="1" stop-color="rgb(0%, 59.628296%, 89.054871%)" offset="0.890625"/><stop stop-opacity="1" stop-color="rgb(0%, 59.837341%, 89.367676%)" offset="0.90625"/><stop stop-opacity="1" stop-color="rgb(0%, 60.046387%, 89.680481%)" offset="0.921875"/><stop stop-opacity="1" stop-color="rgb(0%, 60.256958%, 89.99176%)" offset="0.9375"/><stop stop-opacity="1" stop-color="rgb(0%, 60.466003%, 90.304565%)" offset="0.953125"/><stop stop-opacity="1" stop-color="rgb(0%, 60.675049%, 90.617371%)" offset="0.96875"/><stop stop-opacity="1" stop-color="rgb(0%, 60.884094%, 90.930176%)" offset="0.984375"/><stop stop-opacity="1" stop-color="rgb(0%, 61.094666%, 91.242981%)" offset="0.999998"/><stop stop-opacity="1" stop-color="rgb(0%, 61.199951%, 91.398621%)" offset="1"/></linearGradient></defs><g clip-path="url(#27607a3190)"><g clip-path="url(#8f95842e54)"><path fill="url(#4a883b6b7f)" d="M 24 0.0234375 L 24 375 L 350.96875 375 L 350.96875 0.0234375 Z M 24 0.0234375 " fill-rule="nonzero"/></g></g></svg>