<svg xmlns="http://www.w3.org/2000/svg" xmlns:xlink="http://www.w3.org/1999/xlink" width="500" zoomAndPan="magnify" viewBox="0 0 375 374.999991" height="500" preserveAspectRatio="xMidYMid meet" version="1.0"><defs><clipPath id="39c8546998"><path d="M 0 9 L 375 9 L 375 366 L 0 366 Z M 0 9 " clip-rule="nonzero"/></clipPath><clipPath id="16b4e99070"><path d="M 187.484375 146.878906 C 186.292969 146.878906 185.105469 146.820312 183.917969 146.707031 C 182.734375 146.589844 181.558594 146.414062 180.386719 146.183594 C 179.21875 145.949219 178.066406 145.664062 176.925781 145.316406 C 175.785156 144.972656 174.667969 144.570312 173.566406 144.117188 C 172.464844 143.660156 171.390625 143.152344 170.339844 142.589844 C 169.289062 142.027344 168.269531 141.417969 167.277344 140.757812 C 166.289062 140.09375 165.332031 139.386719 164.414062 138.632812 C 163.492188 137.875 162.609375 137.078125 161.765625 136.234375 C 160.925781 135.394531 160.125 134.511719 159.371094 133.589844 C 158.613281 132.671875 157.90625 131.714844 157.246094 130.726562 C 156.582031 129.734375 155.96875 128.714844 155.410156 127.664062 C 154.847656 126.613281 154.339844 125.539062 153.882812 124.4375 C 153.425781 123.339844 153.027344 122.21875 152.679688 121.078125 C 152.335938 119.941406 152.046875 118.785156 151.8125 117.617188 C 151.582031 116.449219 151.40625 115.273438 151.289062 114.085938 C 151.171875 112.902344 151.113281 111.714844 151.113281 110.523438 C 151.113281 109.332031 151.171875 108.144531 151.289062 106.960938 C 151.40625 105.773438 151.578125 104.597656 151.8125 103.429688 C 152.042969 102.261719 152.332031 101.105469 152.679688 99.96875 C 153.023438 98.828125 153.425781 97.707031 153.878906 96.605469 C 154.335938 95.507812 154.84375 94.433594 155.40625 93.382812 C 155.96875 92.332031 156.578125 91.3125 157.242188 90.320312 C 157.902344 89.332031 158.609375 88.375 159.367188 87.453125 C 160.121094 86.535156 160.921875 85.652344 161.761719 84.808594 C 162.605469 83.96875 163.488281 83.167969 164.40625 82.414062 C 165.328125 81.65625 166.285156 80.949219 167.273438 80.289062 C 168.265625 79.625 169.285156 79.015625 170.335938 78.453125 C 171.386719 77.890625 172.460938 77.382812 173.5625 76.925781 C 174.660156 76.472656 175.78125 76.070312 176.921875 75.726562 C 178.058594 75.378906 179.214844 75.089844 180.382812 74.859375 C 181.550781 74.625 182.726562 74.453125 183.914062 74.335938 C 185.097656 74.21875 186.285156 74.160156 187.476562 74.160156 C 188.667969 74.160156 189.855469 74.21875 191.042969 74.335938 C 192.226562 74.453125 193.402344 74.628906 194.570312 74.859375 C 195.738281 75.09375 196.894531 75.382812 198.03125 75.726562 C 199.171875 76.074219 200.292969 76.472656 201.390625 76.929688 C 202.492188 77.386719 203.566406 77.894531 204.617188 78.457031 C 205.667969 79.019531 206.6875 79.628906 207.679688 80.292969 C 208.667969 80.953125 209.625 81.664062 210.542969 82.417969 C 211.464844 83.175781 212.347656 83.972656 213.1875 84.816406 C 214.03125 85.65625 214.828125 86.539062 215.585938 87.460938 C 216.339844 88.382812 217.046875 89.335938 217.710938 90.328125 C 218.371094 91.316406 218.980469 92.335938 219.542969 93.386719 C 220.105469 94.4375 220.613281 95.515625 221.066406 96.613281 C 221.523438 97.714844 221.925781 98.835938 222.269531 99.976562 C 222.613281 101.113281 222.902344 102.269531 223.136719 103.4375 C 223.367188 104.605469 223.542969 105.78125 223.660156 106.96875 C 223.773438 108.152344 223.832031 109.339844 223.832031 110.53125 C 223.832031 111.722656 223.773438 112.910156 223.652344 114.09375 C 223.535156 115.277344 223.359375 116.453125 223.128906 117.621094 C 222.894531 118.785156 222.605469 119.941406 222.257812 121.078125 C 221.914062 122.21875 221.511719 123.335938 221.054688 124.433594 C 220.597656 125.535156 220.089844 126.609375 219.527344 127.660156 C 218.96875 128.707031 218.355469 129.726562 217.695312 130.714844 C 217.035156 131.707031 216.324219 132.660156 215.570312 133.582031 C 214.816406 134.5 214.015625 135.382812 213.175781 136.222656 C 212.332031 137.0625 211.453125 137.863281 210.53125 138.617188 C 209.613281 139.371094 208.65625 140.082031 207.667969 140.742188 C 206.679688 141.402344 205.660156 142.015625 204.609375 142.578125 C 203.5625 143.136719 202.488281 143.648438 201.386719 144.101562 C 200.289062 144.558594 199.167969 144.960938 198.03125 145.304688 C 196.890625 145.652344 195.738281 145.941406 194.570312 146.175781 C 193.40625 146.410156 192.230469 146.582031 191.042969 146.703125 C 189.859375 146.820312 188.671875 146.878906 187.484375 146.878906 Z M 187.484375 61.660156 C 185.882812 61.660156 184.285156 61.738281 182.695312 61.894531 C 181.101562 62.054688 179.519531 62.289062 177.953125 62.597656 C 176.382812 62.910156 174.832031 63.300781 173.300781 63.765625 C 171.769531 64.226562 170.265625 64.765625 168.785156 65.378906 C 167.308594 65.992188 165.863281 66.671875 164.449219 67.429688 C 163.039062 68.183594 161.667969 69.003906 160.335938 69.890625 C 159.007812 70.78125 157.722656 71.734375 156.484375 72.746094 C 155.25 73.761719 154.066406 74.835938 152.933594 75.96875 C 151.800781 77.097656 150.726562 78.28125 149.710938 79.519531 C 148.699219 80.757812 147.746094 82.039062 146.855469 83.371094 C 145.964844 84.699219 145.144531 86.070312 144.390625 87.480469 C 143.636719 88.894531 142.953125 90.339844 142.339844 91.816406 C 141.726562 93.292969 141.1875 94.800781 140.722656 96.332031 C 140.257812 97.863281 139.871094 99.414062 139.558594 100.980469 C 139.246094 102.550781 139.011719 104.132812 138.851562 105.722656 C 138.695312 107.316406 138.617188 108.914062 138.617188 110.511719 C 138.617188 112.113281 138.695312 113.710938 138.851562 115.300781 C 139.007812 116.894531 139.242188 118.476562 139.554688 120.046875 C 139.867188 121.613281 140.253906 123.164062 140.71875 124.695312 C 141.183594 126.226562 141.722656 127.734375 142.332031 129.210938 C 142.945312 130.691406 143.628906 132.132812 144.382812 133.546875 C 145.136719 134.957031 145.957031 136.328125 146.847656 137.660156 C 147.734375 138.988281 148.6875 140.273438 149.703125 141.511719 C 150.71875 142.746094 151.789062 143.933594 152.921875 145.0625 C 154.054688 146.195312 155.238281 147.269531 156.472656 148.285156 C 157.710938 149.300781 158.996094 150.25 160.324219 151.140625 C 161.65625 152.03125 163.027344 152.851562 164.4375 153.605469 C 165.847656 154.363281 167.292969 155.046875 168.769531 155.65625 C 170.25 156.269531 171.753906 156.808594 173.285156 157.273438 C 174.816406 157.738281 176.367188 158.128906 177.9375 158.441406 C 179.503906 158.753906 181.085938 158.988281 182.679688 159.144531 C 184.269531 159.300781 185.867188 159.378906 187.46875 159.378906 C 189.066406 159.378906 190.664062 159.300781 192.257812 159.144531 C 193.847656 158.988281 195.429688 158.753906 197 158.441406 C 198.570312 158.132812 200.121094 157.742188 201.652344 157.277344 C 203.183594 156.816406 204.6875 156.277344 206.164062 155.664062 C 207.644531 155.050781 209.089844 154.371094 210.5 153.617188 C 211.910156 152.859375 213.28125 152.039062 214.613281 151.152344 C 215.945312 150.261719 217.226562 149.3125 218.464844 148.296875 C 219.703125 147.28125 220.886719 146.207031 222.019531 145.078125 C 223.148438 143.945312 224.222656 142.761719 225.238281 141.523438 C 226.253906 140.289062 227.207031 139.003906 228.097656 137.671875 C 228.984375 136.34375 229.808594 134.972656 230.5625 133.5625 C 231.316406 132.152344 232 130.707031 232.613281 129.226562 C 233.226562 127.75 233.765625 126.246094 234.230469 124.714844 C 234.695312 123.183594 235.082031 121.632812 235.394531 120.0625 C 235.707031 118.492188 235.941406 116.914062 236.097656 115.320312 C 236.257812 113.726562 236.335938 112.132812 236.335938 110.53125 C 236.335938 108.929688 236.253906 107.335938 236.097656 105.742188 C 235.9375 104.152344 235.703125 102.570312 235.390625 101.003906 C 235.074219 99.433594 234.6875 97.882812 234.222656 96.355469 C 233.757812 94.824219 233.21875 93.320312 232.605469 91.839844 C 231.992188 90.363281 231.308594 88.917969 230.554688 87.507812 C 229.796875 86.097656 228.976562 84.726562 228.089844 83.398438 C 227.199219 82.066406 226.246094 80.785156 225.230469 79.546875 C 224.21875 78.3125 223.144531 77.128906 222.011719 75.996094 C 220.882812 74.863281 219.699219 73.792969 218.460938 72.777344 C 217.226562 71.761719 215.945312 70.808594 214.613281 69.917969 C 213.285156 69.03125 211.914062 68.207031 210.503906 67.453125 C 209.09375 66.699219 207.648438 66.011719 206.171875 65.398438 C 204.695312 64.785156 203.191406 64.246094 201.660156 63.78125 C 200.128906 63.316406 198.578125 62.925781 197.011719 62.613281 C 195.441406 62.296875 193.863281 62.0625 192.269531 61.902344 C 190.679688 61.746094 189.082031 61.664062 187.484375 61.660156 Z M 278.367188 134.519531 C 279.054688 134.398438 279.722656 134.21875 280.378906 133.976562 C 281.03125 133.738281 281.660156 133.441406 282.261719 133.09375 C 282.863281 132.746094 283.433594 132.34375 283.964844 131.898438 C 284.5 131.449219 284.988281 130.957031 285.433594 130.421875 C 285.882812 129.886719 286.277344 129.320312 286.625 128.714844 C 286.972656 128.113281 287.265625 127.484375 287.503906 126.828125 C 287.742188 126.171875 287.921875 125.503906 288.039062 124.816406 C 288.160156 124.132812 288.222656 123.441406 288.222656 122.742188 L 288.222656 98.304688 C 288.222656 97.605469 288.160156 96.914062 288.039062 96.230469 C 287.917969 95.542969 287.738281 94.875 287.5 94.21875 C 287.265625 93.5625 286.972656 92.933594 286.625 92.332031 C 286.277344 91.726562 285.878906 91.160156 285.433594 90.625 C 284.984375 90.089844 284.496094 89.597656 283.964844 89.148438 C 283.429688 88.699219 282.863281 88.300781 282.261719 87.953125 C 281.660156 87.601562 281.03125 87.304688 280.378906 87.066406 C 279.722656 86.824219 279.054688 86.644531 278.367188 86.519531 L 266.710938 84.433594 C 265.414062 80.484375 263.832031 76.660156 261.953125 72.953125 L 268.714844 63.222656 C 269.113281 62.648438 269.457031 62.050781 269.75 61.417969 C 270.046875 60.785156 270.28125 60.132812 270.460938 59.460938 C 270.640625 58.789062 270.757812 58.105469 270.820312 57.414062 C 270.878906 56.71875 270.875 56.023438 270.816406 55.332031 C 270.753906 54.636719 270.632812 53.957031 270.449219 53.285156 C 270.269531 52.609375 270.03125 51.960938 269.738281 51.328125 C 269.441406 50.699219 269.09375 50.097656 268.695312 49.527344 C 268.292969 48.960938 267.847656 48.429688 267.355469 47.9375 L 250.070312 30.652344 C 249.578125 30.160156 249.046875 29.714844 248.476562 29.3125 C 247.90625 28.914062 247.308594 28.566406 246.675781 28.273438 C 246.046875 27.976562 245.394531 27.738281 244.722656 27.558594 C 244.050781 27.378906 243.367188 27.257812 242.675781 27.195312 C 241.980469 27.132812 241.289062 27.132812 240.59375 27.191406 C 239.902344 27.25 239.21875 27.371094 238.546875 27.550781 C 237.875 27.726562 237.222656 27.964844 236.589844 28.257812 C 235.957031 28.550781 235.355469 28.894531 234.785156 29.292969 L 225.042969 36.058594 C 221.34375 34.179688 217.519531 32.59375 213.574219 31.296875 L 211.476562 19.636719 C 211.355469 18.953125 211.171875 18.285156 210.933594 17.628906 C 210.695312 16.976562 210.398438 16.347656 210.050781 15.746094 C 209.699219 15.144531 209.300781 14.578125 208.851562 14.046875 C 208.402344 13.511719 207.910156 13.023438 207.378906 12.578125 C 206.84375 12.128906 206.273438 11.734375 205.671875 11.386719 C 205.066406 11.039062 204.4375 10.746094 203.78125 10.511719 C 203.128906 10.273438 202.457031 10.09375 201.773438 9.976562 C 201.085938 9.855469 200.394531 9.796875 199.699219 9.796875 L 175.269531 9.796875 C 174.574219 9.796875 173.882812 9.855469 173.195312 9.976562 C 172.511719 10.09375 171.839844 10.273438 171.183594 10.511719 C 170.53125 10.746094 169.902344 11.039062 169.296875 11.386719 C 168.695312 11.734375 168.125 12.128906 167.589844 12.578125 C 167.058594 13.023438 166.566406 13.511719 166.117188 14.046875 C 165.667969 14.578125 165.269531 15.144531 164.917969 15.746094 C 164.570312 16.347656 164.273438 16.976562 164.035156 17.628906 C 163.796875 18.285156 163.613281 18.953125 163.492188 19.636719 L 161.386719 31.296875 C 157.441406 32.59375 153.617188 34.183594 149.914062 36.058594 L 140.1875 29.289062 C 139.613281 28.890625 139.011719 28.546875 138.382812 28.253906 C 137.75 27.960938 137.097656 27.726562 136.425781 27.546875 C 135.75 27.367188 135.066406 27.25 134.375 27.191406 C 133.679688 27.128906 132.988281 27.132812 132.292969 27.195312 C 131.601562 27.253906 130.917969 27.375 130.246094 27.558594 C 129.574219 27.738281 128.921875 27.976562 128.292969 28.269531 C 127.660156 28.566406 127.058594 28.914062 126.492188 29.3125 C 125.921875 29.710938 125.390625 30.15625 124.898438 30.648438 L 107.621094 47.933594 C 107.128906 48.425781 106.679688 48.957031 106.28125 49.527344 C 105.882812 50.097656 105.535156 50.695312 105.238281 51.328125 C 104.945312 51.957031 104.707031 52.609375 104.523438 53.28125 C 104.34375 53.953125 104.222656 54.636719 104.160156 55.328125 C 104.097656 56.019531 104.097656 56.714844 104.15625 57.40625 C 104.214844 58.101562 104.332031 58.785156 104.511719 59.457031 C 104.6875 60.128906 104.921875 60.78125 105.214844 61.414062 C 105.507812 62.046875 105.851562 62.648438 106.25 63.21875 L 113.011719 72.953125 C 111.144531 76.664062 109.554688 80.488281 108.253906 84.433594 L 96.59375 86.519531 C 95.910156 86.644531 95.238281 86.824219 94.585938 87.066406 C 93.933594 87.308594 93.304688 87.601562 92.703125 87.953125 C 92.101562 88.300781 91.535156 88.703125 91 89.148438 C 90.46875 89.597656 89.980469 90.089844 89.53125 90.625 C 89.085938 91.160156 88.691406 91.730469 88.34375 92.332031 C 87.996094 92.9375 87.703125 93.566406 87.464844 94.21875 C 87.226562 94.875 87.046875 95.542969 86.929688 96.230469 C 86.808594 96.914062 86.746094 97.605469 86.746094 98.304688 L 86.746094 122.742188 C 86.746094 123.441406 86.804688 124.132812 86.925781 124.816406 C 87.046875 125.503906 87.226562 126.171875 87.464844 126.828125 C 87.699219 127.484375 87.992188 128.113281 88.339844 128.714844 C 88.6875 129.320312 89.085938 129.886719 89.53125 130.421875 C 89.976562 130.957031 90.46875 131.449219 91 131.894531 C 91.53125 132.34375 92.097656 132.742188 92.703125 133.09375 C 93.304688 133.441406 93.933594 133.738281 94.585938 133.976562 C 95.238281 134.21875 95.910156 134.398438 96.59375 134.519531 L 108.253906 136.621094 C 109.550781 140.5625 111.136719 144.382812 113.011719 148.089844 L 106.246094 157.820312 C 105.851562 158.390625 105.507812 158.992188 105.214844 159.625 C 104.921875 160.257812 104.6875 160.910156 104.507812 161.582031 C 104.332031 162.253906 104.210938 162.9375 104.152344 163.632812 C 104.09375 164.324219 104.097656 165.019531 104.160156 165.710938 C 104.21875 166.40625 104.34375 167.085938 104.523438 167.757812 C 104.703125 168.429688 104.941406 169.082031 105.238281 169.710938 C 105.53125 170.34375 105.878906 170.941406 106.28125 171.511719 C 106.679688 172.082031 107.125 172.613281 107.617188 173.105469 L 124.894531 190.398438 C 125.386719 190.890625 125.917969 191.335938 126.488281 191.734375 C 127.058594 192.136719 127.660156 192.484375 128.289062 192.777344 C 128.921875 193.074219 129.570312 193.3125 130.242188 193.492188 C 130.917969 193.671875 131.597656 193.792969 132.292969 193.855469 C 132.984375 193.917969 133.679688 193.921875 134.375 193.859375 C 135.066406 193.800781 135.75 193.683594 136.421875 193.503906 C 137.097656 193.324219 137.75 193.089844 138.378906 192.796875 C 139.011719 192.503906 139.613281 192.160156 140.1875 191.761719 L 149.914062 185.003906 C 153.621094 186.863281 157.445312 188.449219 161.386719 189.753906 L 163.488281 201.417969 C 163.609375 202.101562 163.792969 202.769531 164.03125 203.425781 C 164.273438 204.078125 164.566406 204.703125 164.917969 205.308594 C 165.265625 205.910156 165.664062 206.476562 166.113281 207.007812 C 166.5625 207.539062 167.054688 208.03125 167.589844 208.476562 C 168.121094 208.921875 168.691406 209.320312 169.296875 209.664062 C 169.898438 210.011719 170.527344 210.304688 171.183594 210.539062 C 171.835938 210.777344 172.507812 210.957031 173.191406 211.074219 C 173.878906 211.195312 174.570312 211.253906 175.265625 211.253906 L 199.699219 211.253906 C 200.398438 211.253906 201.085938 211.195312 201.773438 211.074219 C 202.460938 210.957031 203.128906 210.777344 203.785156 210.539062 C 204.4375 210.304688 205.066406 210.011719 205.671875 209.664062 C 206.273438 209.320312 206.84375 208.921875 207.378906 208.476562 C 207.914062 208.03125 208.402344 207.539062 208.851562 207.007812 C 209.300781 206.476562 209.699219 205.910156 210.050781 205.308594 C 210.398438 204.707031 210.695312 204.078125 210.933594 203.425781 C 211.175781 202.769531 211.355469 202.101562 211.480469 201.417969 L 213.578125 189.753906 C 217.515625 188.453125 221.339844 186.867188 225.046875 185.003906 L 234.789062 191.753906 C 235.359375 192.152344 235.960938 192.496094 236.589844 192.789062 C 237.222656 193.082031 237.875 193.320312 238.546875 193.5 C 239.21875 193.679688 239.902344 193.796875 240.59375 193.859375 C 241.289062 193.917969 241.980469 193.917969 242.675781 193.855469 C 243.367188 193.792969 244.050781 193.671875 244.722656 193.492188 C 245.394531 193.3125 246.046875 193.074219 246.679688 192.777344 C 247.308594 192.484375 247.910156 192.136719 248.476562 191.734375 C 249.046875 191.335938 249.578125 190.890625 250.070312 190.398438 L 267.355469 173.105469 C 267.847656 172.613281 268.296875 172.082031 268.695312 171.511719 C 269.09375 170.941406 269.441406 170.34375 269.738281 169.710938 C 270.03125 169.082031 270.269531 168.429688 270.453125 167.757812 C 270.632812 167.085938 270.753906 166.402344 270.816406 165.710938 C 270.878906 165.015625 270.878906 164.324219 270.820312 163.628906 C 270.761719 162.9375 270.640625 162.253906 270.460938 161.582031 C 270.28125 160.90625 270.046875 160.253906 269.753906 159.625 C 269.460938 158.992188 269.113281 158.390625 268.714844 157.820312 L 261.957031 148.089844 C 263.828125 144.382812 265.414062 140.5625 266.710938 136.621094 L 278.371094 134.519531 Z M 2.085938 182.753906 L 51.152344 74.820312 C 51.53125 73.914062 52.101562 73.148438 52.863281 72.527344 C 53.628906 71.90625 54.492188 71.503906 55.457031 71.316406 C 56.410156 71.070312 57.363281 71.0625 58.320312 71.289062 C 59.273438 71.515625 60.121094 71.953125 60.863281 72.601562 C 67.964844 78.53125 73.570312 90.480469 70.25 99.46875 L 48.863281 157.367188 C 47.234375 157.753906 45.660156 158.292969 44.136719 158.992188 C 43.390625 159.339844 42.660156 159.722656 41.949219 160.140625 C 41.238281 160.554688 40.546875 161.007812 39.882812 161.492188 C 39.214844 161.980469 38.574219 162.496094 37.957031 163.042969 C 37.339844 163.59375 36.753906 164.167969 36.195312 164.773438 C 35.632812 165.378906 35.105469 166.011719 34.609375 166.667969 C 34.109375 167.328125 33.644531 168.007812 33.214844 168.710938 C 32.785156 169.414062 32.390625 170.136719 32.027344 170.878906 C 31.667969 171.621094 31.347656 172.378906 31.058594 173.152344 C 30.773438 173.925781 30.527344 174.710938 30.316406 175.507812 C 30.109375 176.304688 29.941406 177.113281 29.808594 177.925781 C 29.679688 178.742188 29.589844 179.558594 29.539062 180.382812 C 29.492188 181.207031 29.480469 182.03125 29.511719 182.855469 C 29.542969 183.675781 29.617188 184.5 29.726562 185.316406 C 29.839844 186.132812 29.988281 186.941406 30.179688 187.746094 C 30.371094 188.546875 30.601562 189.335938 30.871094 190.117188 C 31.136719 190.898438 31.445312 191.660156 31.789062 192.410156 L 53.515625 239.617188 C 53.691406 239.984375 53.902344 240.332031 54.144531 240.65625 C 54.386719 240.984375 54.660156 241.28125 54.960938 241.554688 C 55.261719 241.828125 55.585938 242.070312 55.9375 242.277344 C 56.285156 242.488281 56.648438 242.660156 57.03125 242.800781 C 57.414062 242.9375 57.808594 243.039062 58.207031 243.097656 C 58.609375 243.160156 59.015625 243.183594 59.421875 243.164062 C 59.828125 243.148438 60.226562 243.09375 60.621094 242.996094 C 61.019531 242.902344 61.398438 242.769531 61.769531 242.597656 C 62.140625 242.429688 62.488281 242.222656 62.816406 241.984375 C 63.148438 241.746094 63.449219 241.480469 63.726562 241.183594 C 64.003906 240.886719 64.25 240.5625 64.464844 240.21875 C 64.679688 239.871094 64.859375 239.511719 65.003906 239.128906 C 65.144531 238.75 65.25 238.359375 65.320312 237.957031 C 65.386719 237.558594 65.414062 237.152344 65.402344 236.746094 C 65.390625 236.339844 65.339844 235.9375 65.25 235.542969 C 65.160156 235.144531 65.035156 234.761719 64.871094 234.390625 L 43.132812 187.183594 C 42.78125 186.425781 42.507812 185.640625 42.308594 184.828125 C 42.113281 184.015625 41.996094 183.195312 41.960938 182.359375 C 41.925781 181.523438 41.972656 180.691406 42.101562 179.867188 C 42.230469 179.042969 42.441406 178.234375 42.726562 177.453125 C 43.015625 176.667969 43.378906 175.917969 43.816406 175.203125 C 44.25 174.492188 44.753906 173.828125 45.320312 173.214844 C 45.886719 172.601562 46.507812 172.046875 47.1875 171.558594 C 47.863281 171.066406 48.582031 170.644531 49.339844 170.296875 C 50.097656 169.949219 50.886719 169.675781 51.699219 169.480469 C 52.511719 169.289062 53.335938 169.175781 54.171875 169.144531 C 55.007812 169.113281 55.835938 169.164062 56.660156 169.296875 C 57.488281 169.429688 58.289062 169.644531 59.074219 169.933594 C 59.859375 170.226562 60.605469 170.59375 61.316406 171.03125 C 62.027344 171.472656 62.6875 171.976562 63.300781 172.546875 C 63.910156 173.117188 64.460938 173.742188 64.949219 174.417969 C 65.4375 175.097656 65.851562 175.816406 66.199219 176.578125 L 91.359375 231.230469 C 91.707031 231.980469 92.179688 232.640625 92.789062 233.199219 C 93.394531 233.761719 94.085938 234.1875 94.859375 234.472656 C 120.582031 243.980469 131.109375 279.355469 125.199219 306.695312 L 40.382812 305.785156 L 41.707031 301.878906 C 42.175781 300.550781 42.507812 299.191406 42.710938 297.800781 C 42.910156 296.410156 42.976562 295.011719 42.902344 293.609375 C 42.828125 292.203125 42.621094 290.820312 42.277344 289.457031 C 41.929688 288.09375 41.457031 286.777344 40.855469 285.507812 L 2.125 201.363281 C 1.421875 199.914062 0.894531 198.402344 0.53125 196.832031 C 0.171875 195.261719 -0.0117188 193.671875 -0.0117188 192.0625 C -0.015625 190.453125 0.160156 188.859375 0.515625 187.289062 C 0.867188 185.71875 1.394531 184.207031 2.085938 182.753906 Z M 136.132812 365.203125 L 27.6875 364.042969 L 28.1875 318.152344 L 136.621094 319.320312 Z M 372.84375 201.363281 L 334.101562 285.503906 C 333.5 286.773438 333.027344 288.09375 332.683594 289.457031 C 332.339844 290.820312 332.128906 292.203125 332.058594 293.605469 C 331.984375 295.011719 332.046875 296.410156 332.25 297.800781 C 332.449219 299.191406 332.785156 300.550781 333.253906 301.875 L 334.570312 305.785156 L 249.765625 306.695312 C 243.851562 279.355469 254.378906 243.980469 280.101562 234.472656 C 280.878906 234.1875 281.570312 233.761719 282.175781 233.199219 C 282.78125 232.636719 283.257812 231.980469 283.601562 231.230469 L 308.769531 176.578125 C 309.117188 175.820312 309.535156 175.105469 310.027344 174.433594 C 310.515625 173.757812 311.066406 173.136719 311.675781 172.570312 C 312.289062 172.003906 312.949219 171.503906 313.660156 171.070312 C 314.367188 170.632812 315.113281 170.269531 315.894531 169.980469 C 316.675781 169.691406 317.480469 169.484375 318.300781 169.351562 C 319.125 169.21875 319.953125 169.171875 320.785156 169.203125 C 321.617188 169.234375 322.4375 169.347656 323.25 169.542969 C 324.058594 169.734375 324.84375 170.007812 325.597656 170.355469 C 326.355469 170.703125 327.070312 171.121094 327.746094 171.609375 C 328.421875 172.101562 329.039062 172.652344 329.605469 173.261719 C 330.171875 173.875 330.671875 174.535156 331.109375 175.242188 C 331.546875 175.953125 331.90625 176.699219 332.195312 177.480469 C 332.484375 178.261719 332.695312 179.0625 332.828125 179.886719 C 332.957031 180.710938 333.007812 181.539062 332.976562 182.371094 C 332.941406 183.203125 332.828125 184.023438 332.636719 184.832031 C 332.441406 185.644531 332.171875 186.425781 331.824219 187.183594 L 310.097656 234.390625 C 309.933594 234.761719 309.808594 235.144531 309.71875 235.542969 C 309.628906 235.9375 309.578125 236.339844 309.566406 236.746094 C 309.554688 237.152344 309.582031 237.558594 309.648438 237.957031 C 309.71875 238.359375 309.824219 238.75 309.964844 239.128906 C 310.109375 239.511719 310.289062 239.875 310.503906 240.21875 C 310.71875 240.5625 310.964844 240.886719 311.242188 241.183594 C 311.519531 241.480469 311.820312 241.746094 312.152344 241.984375 C 312.480469 242.222656 312.828125 242.429688 313.199219 242.597656 C 313.566406 242.769531 313.949219 242.902344 314.34375 242.996094 C 314.742188 243.09375 315.140625 243.148438 315.546875 243.164062 C 315.953125 243.183594 316.359375 243.160156 316.757812 243.097656 C 317.160156 243.039062 317.554688 242.9375 317.9375 242.800781 C 318.320312 242.660156 318.683594 242.488281 319.03125 242.277344 C 319.378906 242.070312 319.707031 241.828125 320.007812 241.554688 C 320.308594 241.28125 320.582031 240.984375 320.824219 240.65625 C 321.066406 240.332031 321.277344 239.984375 321.449219 239.617188 L 343.175781 192.410156 C 343.566406 191.566406 343.90625 190.703125 344.203125 189.824219 C 344.496094 188.941406 344.742188 188.046875 344.9375 187.136719 C 345.132812 186.226562 345.273438 185.308594 345.367188 184.382812 C 345.460938 183.460938 345.503906 182.53125 345.492188 181.601562 C 345.484375 180.671875 345.421875 179.746094 345.3125 178.824219 C 345.199219 177.898438 345.035156 176.984375 344.824219 176.082031 C 344.609375 175.175781 344.34375 174.285156 344.035156 173.410156 C 343.722656 172.535156 343.359375 171.679688 342.953125 170.84375 C 342.546875 170.007812 342.09375 169.195312 341.597656 168.410156 C 341.101562 167.625 340.558594 166.867188 339.980469 166.140625 C 339.398438 165.417969 338.777344 164.726562 338.121094 164.066406 C 337.464844 163.410156 336.769531 162.792969 336.046875 162.210938 C 335.320312 161.628906 334.5625 161.09375 333.777344 160.59375 C 332.988281 160.097656 332.179688 159.648438 331.34375 159.242188 C 330.507812 158.835938 329.652344 158.476562 328.773438 158.164062 C 327.898438 157.851562 327.007812 157.589844 326.101562 157.375 L 304.714844 99.46875 C 301.390625 90.480469 307 78.53125 314.105469 72.601562 C 314.476562 72.292969 314.875 72.03125 315.304688 71.816406 C 315.738281 71.601562 316.1875 71.4375 316.652344 71.328125 C 317.121094 71.214844 317.597656 71.160156 318.078125 71.15625 C 318.558594 71.152344 319.035156 71.207031 319.503906 71.3125 C 319.972656 71.421875 320.421875 71.582031 320.855469 71.792969 C 321.289062 72.003906 321.691406 72.261719 322.066406 72.566406 C 322.4375 72.867188 322.769531 73.210938 323.066406 73.59375 C 323.359375 73.972656 323.605469 74.382812 323.804688 74.820312 L 372.890625 182.753906 C 373.582031 184.207031 374.105469 185.71875 374.460938 187.289062 C 374.8125 188.863281 374.988281 190.453125 374.984375 192.0625 C 374.980469 193.675781 374.796875 195.265625 374.433594 196.835938 C 374.074219 198.402344 373.542969 199.914062 372.84375 201.363281 Z M 238.832031 365.203125 L 238.34375 319.320312 L 346.78125 318.152344 L 347.277344 364.042969 Z M 238.832031 365.203125 " clip-rule="evenodd"/></clipPath><linearGradient x1="255.979" gradientTransform="matrix(0.732422, 0, 0, 0.732422, 0.0000045, 0)" y1="498.623491" x2="255.98" gradientUnits="userSpaceOnUse" y2="13.374234" id="dccef57378"><stop stop-opacity="1" stop-color="rgb(0%, 47.799683%, 71.398926%)" offset="0"/><stop stop-opacity="1" stop-color="rgb(0%, 47.903442%, 71.554565%)" offset="0.00000217432"/><stop stop-opacity="1" stop-color="rgb(0%, 48.008728%, 71.711731%)" offset="0.015625"/><stop stop-opacity="1" stop-color="rgb(0%, 48.112488%, 71.867371%)" offset="0.03125"/><stop stop-opacity="1" stop-color="rgb(0%, 48.321533%, 72.180176%)" offset="0.046875"/><stop stop-opacity="1" stop-color="rgb(0%, 48.532104%, 72.492981%)" offset="0.0625"/><stop stop-opacity="1" stop-color="rgb(0%, 48.74115%, 72.80426%)" offset="0.078125"/><stop stop-opacity="1" stop-color="rgb(0%, 48.950195%, 73.117065%)" offset="0.09375"/><stop stop-opacity="1" stop-color="rgb(0%, 49.159241%, 73.429871%)" offset="0.109375"/><stop stop-opacity="1" stop-color="rgb(0%, 49.368286%, 73.742676%)" offset="0.125"/><stop stop-opacity="1" stop-color="rgb(0%, 49.578857%, 74.055481%)" offset="0.140625"/><stop stop-opacity="1" stop-color="rgb(0%, 49.787903%, 74.36676%)" offset="0.15625"/><stop stop-opacity="1" stop-color="rgb(0%, 49.996948%, 74.679565%)" offset="0.171875"/><stop stop-opacity="1" stop-color="rgb(0%, 50.205994%, 74.992371%)" offset="0.1875"/><stop stop-opacity="1" stop-color="rgb(0%, 50.416565%, 75.305176%)" offset="0.203125"/><stop stop-opacity="1" stop-color="rgb(0%, 50.62561%, 75.617981%)" offset="0.21875"/><stop stop-opacity="1" stop-color="rgb(0%, 50.834656%, 75.92926%)" offset="0.234375"/><stop stop-opacity="1" stop-color="rgb(0%, 51.043701%, 76.242065%)" offset="0.25"/><stop stop-opacity="1" stop-color="rgb(0%, 51.252747%, 76.554871%)" offset="0.265625"/><stop stop-opacity="1" stop-color="rgb(0%, 51.463318%, 76.867676%)" offset="0.28125"/><stop stop-opacity="1" stop-color="rgb(0%, 51.672363%, 77.180481%)" offset="0.296875"/><stop stop-opacity="1" stop-color="rgb(0%, 51.881409%, 77.49176%)" offset="0.3125"/><stop stop-opacity="1" stop-color="rgb(0%, 52.090454%, 77.804565%)" offset="0.328125"/><stop stop-opacity="1" stop-color="rgb(0%, 52.2995%, 78.117371%)" offset="0.34375"/><stop stop-opacity="1" stop-color="rgb(0%, 52.510071%, 78.430176%)" offset="0.359375"/><stop stop-opacity="1" stop-color="rgb(0%, 52.719116%, 78.742981%)" offset="0.375"/><stop stop-opacity="1" stop-color="rgb(0%, 52.928162%, 79.05426%)" offset="0.390625"/><stop stop-opacity="1" stop-color="rgb(0%, 53.137207%, 79.367065%)" offset="0.40625"/><stop stop-opacity="1" stop-color="rgb(0%, 53.347778%, 79.679871%)" offset="0.421875"/><stop stop-opacity="1" stop-color="rgb(0%, 53.556824%, 79.992676%)" offset="0.4375"/><stop stop-opacity="1" stop-color="rgb(0%, 53.765869%, 80.305481%)" offset="0.453125"/><stop stop-opacity="1" stop-color="rgb(0%, 53.974915%, 80.61676%)" offset="0.46875"/><stop stop-opacity="1" stop-color="rgb(0%, 54.18396%, 80.929565%)" offset="0.484375"/><stop stop-opacity="1" stop-color="rgb(0%, 54.394531%, 81.242371%)" offset="0.5"/><stop stop-opacity="1" stop-color="rgb(0%, 54.603577%, 81.555176%)" offset="0.515625"/><stop stop-opacity="1" stop-color="rgb(0%, 54.812622%, 81.867981%)" offset="0.53125"/><stop stop-opacity="1" stop-color="rgb(0%, 55.021667%, 82.17926%)" offset="0.546875"/><stop stop-opacity="1" stop-color="rgb(0%, 55.230713%, 82.492065%)" offset="0.5625"/><stop stop-opacity="1" stop-color="rgb(0%, 55.441284%, 82.804871%)" offset="0.578125"/><stop stop-opacity="1" stop-color="rgb(0%, 55.65033%, 83.117676%)" offset="0.59375"/><stop stop-opacity="1" stop-color="rgb(0%, 55.859375%, 83.430481%)" offset="0.609375"/><stop stop-opacity="1" stop-color="rgb(0%, 56.06842%, 83.74176%)" offset="0.625"/><stop stop-opacity="1" stop-color="rgb(0%, 56.278992%, 84.054565%)" offset="0.640625"/><stop stop-opacity="1" stop-color="rgb(0%, 56.488037%, 84.367371%)" offset="0.65625"/><stop stop-opacity="1" stop-color="rgb(0%, 56.697083%, 84.680176%)" offset="0.671875"/><stop stop-opacity="1" stop-color="rgb(0%, 56.906128%, 84.992981%)" offset="0.6875"/><stop stop-opacity="1" stop-color="rgb(0%, 57.115173%, 85.30426%)" offset="0.703125"/><stop stop-opacity="1" stop-color="rgb(0%, 57.325745%, 85.617065%)" offset="0.71875"/><stop stop-opacity="1" stop-color="rgb(0%, 57.53479%, 85.929871%)" offset="0.734375"/><stop stop-opacity="1" stop-color="rgb(0%, 57.743835%, 86.242676%)" offset="0.75"/><stop stop-opacity="1" stop-color="rgb(0%, 57.952881%, 86.555481%)" offset="0.765625"/><stop stop-opacity="1" stop-color="rgb(0%, 58.161926%, 86.86676%)" offset="0.78125"/><stop stop-opacity="1" stop-color="rgb(0%, 58.372498%, 87.179565%)" offset="0.796875"/><stop stop-opacity="1" stop-color="rgb(0%, 58.581543%, 87.492371%)" offset="0.8125"/><stop stop-opacity="1" stop-color="rgb(0%, 58.790588%, 87.805176%)" offset="0.828125"/><stop stop-opacity="1" stop-color="rgb(0%, 58.999634%, 88.117981%)" offset="0.84375"/><stop stop-opacity="1" stop-color="rgb(0%, 59.210205%, 88.42926%)" offset="0.859375"/><stop stop-opacity="1" stop-color="rgb(0%, 59.41925%, 88.742065%)" offset="0.875"/><stop stop-opacity="1" stop-color="rgb(0%, 59.628296%, 89.054871%)" offset="0.890625"/><stop stop-opacity="1" stop-color="rgb(0%, 59.837341%, 89.367676%)" offset="0.90625"/><stop stop-opacity="1" stop-color="rgb(0%, 60.046387%, 89.680481%)" offset="0.921875"/><stop stop-opacity="1" stop-color="rgb(0%, 60.256958%, 89.99176%)" offset="0.9375"/><stop stop-opacity="1" stop-color="rgb(0%, 60.466003%, 90.304565%)" offset="0.953125"/><stop stop-opacity="1" stop-color="rgb(0%, 60.675049%, 90.617371%)" offset="0.96875"/><stop stop-opacity="1" stop-color="rgb(0%, 60.884094%, 90.930176%)" offset="0.984375"/><stop stop-opacity="1" stop-color="rgb(0%, 61.09314%, 91.242981%)" offset="0.999998"/><stop stop-opacity="1" stop-color="rgb(0%, 61.198425%, 91.398621%)" offset="1"/></linearGradient></defs><g clip-path="url(#39c8546998)"><g clip-path="url(#16b4e99070)"><path fill="url(#dccef57378)" d="M 0 9.796875 L 0 365.203125 L 374.988281 365.203125 L 374.988281 9.796875 Z M 0 9.796875 " fill-rule="nonzero"/></g></g></svg>