<svg xmlns="http://www.w3.org/2000/svg" xmlns:xlink="http://www.w3.org/1999/xlink" width="500" zoomAndPan="magnify" viewBox="0 0 375 374.999991" height="500" preserveAspectRatio="xMidYMid meet" version="1.0"><defs><clipPath id="ef8e45e66d"><path d="M 236.179688 187.5 C 236.179688 189.09375 236.101562 190.683594 235.945312 192.269531 C 235.789062 193.855469 235.554688 195.433594 235.242188 196.996094 C 234.929688 198.558594 234.542969 200.105469 234.082031 201.628906 C 233.617188 203.15625 233.082031 204.652344 232.472656 206.125 C 231.863281 207.597656 231.179688 209.039062 230.429688 210.445312 C 229.675781 211.851562 228.859375 213.214844 227.972656 214.542969 C 227.085938 215.867188 226.140625 217.144531 225.128906 218.378906 C 224.117188 219.609375 223.046875 220.789062 221.917969 221.917969 C 220.792969 223.042969 219.613281 224.113281 218.378906 225.125 C 217.148438 226.136719 215.867188 227.085938 214.542969 227.96875 C 213.21875 228.855469 211.851562 229.675781 210.445312 230.425781 C 209.039062 231.175781 207.601562 231.859375 206.128906 232.46875 C 204.65625 233.078125 203.15625 233.613281 201.628906 234.078125 C 200.105469 234.539062 198.558594 234.925781 196.996094 235.238281 C 195.433594 235.546875 193.859375 235.78125 192.269531 235.9375 C 190.683594 236.09375 189.09375 236.171875 187.5 236.171875 C 185.90625 236.171875 184.316406 236.09375 182.730469 235.9375 C 181.144531 235.78125 179.566406 235.546875 178.003906 235.238281 C 176.441406 234.925781 174.894531 234.539062 173.371094 234.074219 C 171.84375 233.613281 170.347656 233.078125 168.875 232.464844 C 167.402344 231.855469 165.960938 231.175781 164.554688 230.425781 C 163.148438 229.671875 161.785156 228.855469 160.457031 227.96875 C 159.132812 227.082031 157.855469 226.132812 156.621094 225.121094 C 155.390625 224.113281 154.210938 223.042969 153.082031 221.914062 C 151.957031 220.789062 150.886719 219.609375 149.875 218.375 C 148.863281 217.144531 147.914062 215.863281 147.027344 214.539062 C 146.144531 213.214844 145.324219 211.847656 144.574219 210.441406 C 143.820312 209.035156 143.140625 207.597656 142.53125 206.125 C 141.921875 204.652344 141.386719 203.152344 140.921875 201.625 C 140.460938 200.101562 140.074219 198.554688 139.761719 196.992188 C 139.449219 195.429688 139.214844 193.855469 139.058594 192.265625 C 138.902344 190.679688 138.824219 189.089844 138.824219 187.496094 C 138.824219 185.902344 138.902344 184.3125 139.058594 182.726562 C 139.214844 181.140625 139.449219 179.5625 139.761719 178 C 140.074219 176.4375 140.460938 174.890625 140.921875 173.367188 C 141.382812 171.839844 141.921875 170.34375 142.53125 168.871094 C 143.140625 167.398438 143.820312 165.957031 144.574219 164.550781 C 145.324219 163.144531 146.144531 161.78125 147.027344 160.453125 C 147.914062 159.128906 148.863281 157.851562 149.875 156.617188 C 150.886719 155.386719 151.953125 154.207031 153.082031 153.078125 C 154.210938 151.949219 155.390625 150.882812 156.621094 149.871094 C 157.855469 148.859375 159.132812 147.910156 160.457031 147.023438 C 161.785156 146.140625 163.148438 145.320312 164.554688 144.570312 C 165.960938 143.816406 167.398438 143.136719 168.875 142.527344 C 170.347656 141.917969 171.84375 141.378906 173.371094 140.917969 C 174.894531 140.453125 176.441406 140.066406 178.003906 139.757812 C 179.566406 139.445312 181.140625 139.210938 182.730469 139.054688 C 184.316406 138.898438 185.90625 138.820312 187.5 138.820312 C 189.09375 138.820312 190.683594 138.902344 192.269531 139.058594 C 193.855469 139.21875 195.429688 139.453125 196.992188 139.765625 C 198.554688 140.078125 200.097656 140.464844 201.625 140.929688 C 203.148438 141.394531 204.648438 141.929688 206.121094 142.542969 C 207.589844 143.152344 209.03125 143.832031 210.4375 144.585938 C 211.839844 145.335938 213.207031 146.15625 214.53125 147.042969 C 215.855469 147.929688 217.132812 148.875 218.367188 149.886719 C 219.597656 150.898438 220.777344 151.96875 221.90625 153.09375 C 223.03125 154.222656 224.101562 155.402344 225.113281 156.632812 C 226.121094 157.867188 227.070312 159.144531 227.957031 160.46875 C 228.84375 161.792969 229.660156 163.160156 230.414062 164.5625 C 231.164062 165.96875 231.847656 167.40625 232.457031 168.878906 C 233.070312 170.351562 233.605469 171.851562 234.070312 173.375 C 234.535156 174.902344 234.921875 176.445312 235.234375 178.007812 C 235.546875 179.570312 235.78125 181.144531 235.9375 182.730469 C 236.097656 184.316406 236.175781 185.90625 236.179688 187.5 Z M 259.050781 187.5 C 259.050781 186.328125 259.019531 185.160156 258.960938 183.988281 C 258.90625 182.820312 258.820312 181.652344 258.703125 180.488281 C 258.589844 179.320312 258.445312 178.160156 258.273438 177 C 258.101562 175.84375 257.902344 174.691406 257.675781 173.542969 C 257.445312 172.394531 257.1875 171.25 256.90625 170.113281 C 256.621094 168.980469 256.308594 167.851562 255.96875 166.730469 C 255.628906 165.609375 255.261719 164.496094 254.867188 163.394531 C 254.472656 162.292969 254.050781 161.199219 253.601562 160.117188 C 253.15625 159.035156 252.679688 157.964844 252.179688 156.90625 C 251.679688 155.847656 251.152344 154.804688 250.601562 153.769531 C 250.046875 152.738281 249.472656 151.71875 248.871094 150.714844 C 248.269531 149.710938 247.640625 148.722656 246.992188 147.75 C 246.339844 146.773438 245.667969 145.816406 244.96875 144.878906 C 244.269531 143.9375 243.550781 143.015625 242.808594 142.109375 C 242.066406 141.203125 241.300781 140.316406 240.515625 139.449219 C 239.726562 138.582031 238.921875 137.734375 238.09375 136.90625 C 237.265625 136.078125 236.417969 135.269531 235.550781 134.484375 C 234.679688 133.699219 233.796875 132.933594 232.890625 132.191406 C 231.984375 131.449219 231.0625 130.726562 230.121094 130.03125 C 229.179688 129.332031 228.222656 128.65625 227.25 128.007812 C 226.277344 127.355469 225.289062 126.730469 224.285156 126.128906 C 223.277344 125.527344 222.261719 124.949219 221.226562 124.398438 C 220.195312 123.84375 219.148438 123.320312 218.089844 122.820312 C 217.03125 122.316406 215.960938 121.84375 214.878906 121.394531 C 213.796875 120.949219 212.707031 120.527344 211.605469 120.132812 C 210.5 119.738281 209.390625 119.371094 208.269531 119.03125 C 207.148438 118.691406 206.019531 118.378906 204.882812 118.09375 C 203.75 117.808594 202.605469 117.550781 201.457031 117.324219 C 200.308594 117.09375 199.15625 116.894531 197.996094 116.722656 C 196.839844 116.550781 195.675781 116.410156 194.511719 116.292969 C 193.347656 116.179688 192.179688 116.09375 191.011719 116.035156 C 189.839844 115.976562 188.671875 115.949219 187.5 115.949219 C 186.328125 115.949219 185.15625 115.976562 183.988281 116.035156 C 182.820312 116.09375 181.652344 116.179688 180.484375 116.292969 C 179.320312 116.410156 178.160156 116.550781 177 116.722656 C 175.84375 116.894531 174.6875 117.09375 173.539062 117.324219 C 172.390625 117.550781 171.25 117.808594 170.113281 118.09375 C 168.976562 118.378906 167.851562 118.691406 166.730469 119.03125 C 165.609375 119.371094 164.496094 119.738281 163.394531 120.132812 C 162.292969 120.527344 161.199219 120.945312 160.117188 121.394531 C 159.035156 121.84375 157.964844 122.316406 156.90625 122.816406 C 155.847656 123.320312 154.804688 123.84375 153.769531 124.398438 C 152.738281 124.949219 151.71875 125.527344 150.714844 126.128906 C 149.710938 126.730469 148.722656 127.355469 147.75 128.007812 C 146.773438 128.65625 145.816406 129.332031 144.878906 130.027344 C 143.9375 130.726562 143.015625 131.445312 142.109375 132.191406 C 141.203125 132.933594 140.316406 133.695312 139.449219 134.484375 C 138.582031 135.269531 137.734375 136.078125 136.90625 136.90625 C 136.078125 137.734375 135.269531 138.582031 134.484375 139.449219 C 133.699219 140.316406 132.933594 141.203125 132.191406 142.109375 C 131.449219 143.011719 130.726562 143.9375 130.03125 144.875 C 129.332031 145.816406 128.660156 146.773438 128.007812 147.746094 C 127.359375 148.722656 126.730469 149.710938 126.128906 150.714844 C 125.527344 151.71875 124.949219 152.738281 124.398438 153.769531 C 123.847656 154.804688 123.320312 155.847656 122.820312 156.90625 C 122.320312 157.964844 121.84375 159.035156 121.394531 160.117188 C 120.949219 161.199219 120.527344 162.292969 120.132812 163.394531 C 119.738281 164.496094 119.371094 165.609375 119.03125 166.730469 C 118.691406 167.847656 118.378906 168.976562 118.09375 170.113281 C 117.808594 171.25 117.554688 172.390625 117.324219 173.539062 C 117.097656 174.6875 116.894531 175.839844 116.722656 177 C 116.550781 178.160156 116.410156 179.320312 116.292969 180.484375 C 116.179688 181.652344 116.09375 182.816406 116.035156 183.988281 C 115.976562 185.15625 115.949219 186.328125 115.949219 187.5 C 115.949219 188.667969 115.976562 189.839844 116.035156 191.007812 C 116.09375 192.179688 116.179688 193.347656 116.292969 194.511719 C 116.410156 195.675781 116.550781 196.839844 116.722656 197.996094 C 116.894531 199.15625 117.097656 200.308594 117.324219 201.457031 C 117.554688 202.605469 117.808594 203.746094 118.09375 204.882812 C 118.378906 206.019531 118.691406 207.148438 119.03125 208.269531 C 119.371094 209.390625 119.738281 210.5 120.132812 211.601562 C 120.527344 212.707031 120.949219 213.796875 121.394531 214.878906 C 121.84375 215.960938 122.320312 217.03125 122.820312 218.089844 C 123.320312 219.148438 123.847656 220.195312 124.398438 221.226562 C 124.949219 222.257812 125.527344 223.277344 126.128906 224.28125 C 126.730469 225.285156 127.355469 226.277344 128.007812 227.25 C 128.660156 228.222656 129.332031 229.179688 130.03125 230.121094 C 130.726562 231.0625 131.449219 231.984375 132.191406 232.890625 C 132.933594 233.792969 133.699219 234.679688 134.484375 235.546875 C 135.269531 236.414062 136.078125 237.265625 136.90625 238.089844 C 137.734375 238.917969 138.582031 239.726562 139.449219 240.511719 C 140.316406 241.300781 141.203125 242.0625 142.109375 242.808594 C 143.015625 243.550781 143.9375 244.269531 144.878906 244.96875 C 145.816406 245.664062 146.773438 246.339844 147.75 246.988281 C 148.722656 247.640625 149.710938 248.265625 150.714844 248.867188 C 151.71875 249.46875 152.738281 250.046875 153.769531 250.597656 C 154.804688 251.152344 155.847656 251.679688 156.90625 252.179688 C 157.964844 252.679688 159.035156 253.152344 160.117188 253.601562 C 161.199219 254.050781 162.292969 254.472656 163.394531 254.867188 C 164.496094 255.261719 165.609375 255.628906 166.730469 255.96875 C 167.851562 256.308594 168.980469 256.621094 170.113281 256.902344 C 171.25 257.1875 172.394531 257.445312 173.542969 257.671875 C 174.691406 257.902344 175.84375 258.101562 177 258.273438 C 178.160156 258.445312 179.320312 258.589844 180.488281 258.703125 C 181.652344 258.816406 182.820312 258.90625 183.988281 258.960938 C 185.160156 259.019531 186.328125 259.046875 187.5 259.046875 C 188.671875 259.046875 189.839844 259.015625 191.007812 258.957031 C 192.179688 258.898438 193.34375 258.8125 194.511719 258.695312 C 195.675781 258.582031 196.835938 258.4375 197.996094 258.261719 C 199.152344 258.089844 200.304688 257.890625 201.453125 257.660156 C 202.601562 257.429688 203.742188 257.171875 204.878906 256.886719 C 206.011719 256.601562 207.140625 256.289062 208.261719 255.949219 C 209.378906 255.609375 210.492188 255.242188 211.59375 254.84375 C 212.695312 254.449219 213.785156 254.027344 214.867188 253.578125 C 215.949219 253.132812 217.019531 252.65625 218.078125 252.15625 C 219.132812 251.65625 220.179688 251.128906 221.210938 250.574219 C 222.242188 250.023438 223.261719 249.445312 224.265625 248.84375 C 225.269531 248.242188 226.257812 247.617188 227.230469 246.964844 C 228.203125 246.3125 229.160156 245.640625 230.101562 244.941406 C 231.039062 244.246094 231.964844 243.523438 232.867188 242.78125 C 233.773438 242.039062 234.660156 241.273438 235.527344 240.488281 C 236.394531 239.703125 237.242188 238.894531 238.070312 238.066406 C 238.894531 237.242188 239.703125 236.394531 240.488281 235.527344 C 241.277344 234.660156 242.039062 233.773438 242.78125 232.867188 C 243.523438 231.960938 244.246094 231.039062 244.941406 230.101562 C 245.640625 229.160156 246.316406 228.203125 246.964844 227.230469 C 247.617188 226.257812 248.242188 225.269531 248.84375 224.265625 C 249.445312 223.261719 250.023438 222.242188 250.574219 221.210938 C 251.128906 220.179688 251.65625 219.132812 252.15625 218.078125 C 252.65625 217.019531 253.132812 215.949219 253.582031 214.867188 C 254.027344 213.785156 254.449219 212.695312 254.847656 211.59375 C 255.242188 210.492188 255.609375 209.378906 255.949219 208.261719 C 256.289062 207.140625 256.601562 206.011719 256.886719 204.878906 C 257.171875 203.742188 257.429688 202.601562 257.660156 201.453125 C 257.890625 200.304688 258.089844 199.152344 258.261719 197.996094 C 258.4375 196.835938 258.582031 195.675781 258.695312 194.511719 C 258.8125 193.34375 258.898438 192.179688 258.957031 191.007812 C 259.015625 189.839844 259.046875 188.671875 259.046875 187.5 Z M 77.417969 109.722656 C 44.140625 127.242188 17.882812 152.171875 1.464844 181.824219 C 0.984375 182.691406 0.617188 183.605469 0.371094 184.566406 C 0.121094 185.53125 -0.00390625 186.507812 -0.00390625 187.5 C -0.00390625 188.492188 0.121094 189.46875 0.371094 190.429688 C 0.617188 191.390625 0.984375 192.304688 1.464844 193.171875 C 17.882812 222.824219 44.140625 247.757812 77.417969 265.273438 C 110.34375 282.609375 148.410156 291.769531 187.503906 291.769531 C 226.601562 291.769531 264.660156 282.609375 297.585938 265.273438 C 330.859375 247.757812 357.125 222.824219 373.539062 193.171875 C 374.019531 192.304688 374.382812 191.390625 374.632812 190.429688 C 374.878906 189.46875 375.003906 188.492188 375.003906 187.5 C 375.003906 186.507812 374.878906 185.53125 374.632812 184.570312 C 374.382812 183.609375 374.019531 182.691406 373.539062 181.824219 C 357.125 152.171875 330.859375 127.242188 297.585938 109.722656 C 264.660156 92.382812 226.601562 83.222656 187.503906 83.222656 C 148.40625 83.222656 110.339844 92.382812 77.417969 109.722656 Z M 375 32.980469 L 375 104.230469 C 375 105 374.925781 105.761719 374.773438 106.515625 C 374.625 107.269531 374.402344 108.003906 374.109375 108.714844 C 373.8125 109.425781 373.453125 110.101562 373.023438 110.738281 C 372.597656 111.378906 372.113281 111.972656 371.566406 112.515625 C 371.023438 113.058594 370.429688 113.546875 369.792969 113.972656 C 369.152344 114.402344 368.476562 114.761719 367.765625 115.054688 C 367.054688 115.351562 366.320312 115.574219 365.566406 115.722656 C 364.8125 115.875 364.050781 115.949219 363.28125 115.949219 C 362.511719 115.949219 361.75 115.875 360.996094 115.722656 C 360.242188 115.574219 359.507812 115.351562 358.796875 115.054688 C 358.085938 114.761719 357.410156 114.402344 356.769531 113.972656 C 356.128906 113.546875 355.539062 113.058594 354.996094 112.515625 C 354.449219 111.972656 353.964844 111.378906 353.539062 110.738281 C 353.109375 110.101562 352.75 109.425781 352.453125 108.714844 C 352.160156 108.003906 351.9375 107.269531 351.789062 106.515625 C 351.636719 105.761719 351.5625 105 351.5625 104.230469 L 351.5625 32.980469 C 351.5625 32.355469 351.5 31.734375 351.378906 31.121094 C 351.253906 30.503906 351.074219 29.910156 350.832031 29.332031 C 350.59375 28.75 350.296875 28.203125 349.949219 27.679688 C 349.601562 27.160156 349.207031 26.679688 348.761719 26.234375 C 348.320312 25.792969 347.839844 25.398438 347.316406 25.050781 C 346.796875 24.699219 346.246094 24.40625 345.667969 24.167969 C 345.089844 23.925781 344.492188 23.746094 343.878906 23.621094 C 343.265625 23.5 342.644531 23.4375 342.015625 23.4375 L 270.769531 23.4375 C 270 23.4375 269.238281 23.363281 268.484375 23.210938 C 267.726562 23.0625 266.996094 22.839844 266.285156 22.546875 C 265.574219 22.25 264.898438 21.890625 264.257812 21.460938 C 263.617188 21.035156 263.027344 20.550781 262.484375 20.003906 C 261.9375 19.460938 261.453125 18.867188 261.023438 18.230469 C 260.597656 17.589844 260.238281 16.914062 259.941406 16.203125 C 259.648438 15.492188 259.425781 14.757812 259.277344 14.003906 C 259.125 13.25 259.050781 12.488281 259.050781 11.71875 C 259.050781 10.949219 259.125 10.1875 259.277344 9.433594 C 259.425781 8.679688 259.648438 7.945312 259.941406 7.234375 C 260.238281 6.523438 260.597656 5.847656 261.023438 5.207031 C 261.453125 4.570312 261.9375 3.976562 262.484375 3.433594 C 263.027344 2.886719 263.617188 2.402344 264.257812 1.976562 C 264.898438 1.546875 265.574219 1.1875 266.285156 0.890625 C 266.996094 0.597656 267.726562 0.375 268.484375 0.226562 C 269.238281 0.0742188 270 0 270.769531 0 L 342.015625 0 C 343.097656 0 344.175781 0.0546875 345.25 0.164062 C 346.324219 0.269531 347.390625 0.429688 348.449219 0.640625 C 349.507812 0.851562 350.554688 1.113281 351.585938 1.429688 C 352.621094 1.742188 353.636719 2.105469 354.632812 2.519531 C 355.628906 2.933594 356.605469 3.394531 357.558594 3.90625 C 358.507812 4.414062 359.433594 4.96875 360.332031 5.570312 C 361.230469 6.171875 362.097656 6.8125 362.929688 7.5 C 363.765625 8.183594 364.5625 8.90625 365.328125 9.671875 C 366.089844 10.433594 366.816406 11.234375 367.5 12.070312 C 368.1875 12.902344 368.828125 13.769531 369.429688 14.667969 C 370.027344 15.5625 370.585938 16.488281 371.09375 17.441406 C 371.601562 18.394531 372.066406 19.367188 372.480469 20.367188 C 372.890625 21.363281 373.257812 22.378906 373.570312 23.410156 C 373.886719 24.445312 374.148438 25.492188 374.359375 26.550781 C 374.570312 27.609375 374.730469 28.675781 374.835938 29.75 C 374.945312 30.824219 375 31.902344 375 32.980469 Z M 375 270.769531 L 375 342.015625 C 375 343.097656 374.945312 344.171875 374.835938 345.246094 C 374.730469 346.324219 374.570312 347.390625 374.359375 348.449219 C 374.148438 349.507812 373.886719 350.554688 373.570312 351.585938 C 373.257812 352.621094 372.894531 353.632812 372.480469 354.632812 C 372.066406 355.628906 371.605469 356.605469 371.09375 357.554688 C 370.585938 358.507812 370.03125 359.433594 369.429688 360.332031 C 368.828125 361.230469 368.1875 362.09375 367.5 362.929688 C 366.816406 363.765625 366.09375 364.5625 365.328125 365.328125 C 364.566406 366.089844 363.765625 366.816406 362.929688 367.5 C 362.097656 368.1875 361.230469 368.828125 360.332031 369.429688 C 359.433594 370.027344 358.511719 370.585938 357.558594 371.09375 C 356.605469 371.601562 355.632812 372.066406 354.632812 372.480469 C 353.636719 372.890625 352.621094 373.257812 351.585938 373.570312 C 350.554688 373.886719 349.507812 374.148438 348.449219 374.359375 C 347.390625 374.570312 346.324219 374.730469 345.25 374.835938 C 344.175781 374.945312 343.097656 375 342.015625 375 L 270.769531 375 C 270 375 269.238281 374.925781 268.484375 374.773438 C 267.726562 374.625 266.996094 374.402344 266.285156 374.109375 C 265.574219 373.8125 264.898438 373.453125 264.257812 373.023438 C 263.617188 372.597656 263.027344 372.113281 262.484375 371.566406 C 261.9375 371.023438 261.453125 370.429688 261.023438 369.792969 C 260.597656 369.152344 260.238281 368.476562 259.941406 367.765625 C 259.648438 367.054688 259.425781 366.320312 259.277344 365.566406 C 259.125 364.8125 259.050781 364.050781 259.050781 363.28125 C 259.050781 362.511719 259.125 361.75 259.277344 360.996094 C 259.425781 360.242188 259.648438 359.507812 259.941406 358.796875 C 260.238281 358.085938 260.597656 357.410156 261.023438 356.769531 C 261.453125 356.128906 261.9375 355.539062 262.484375 354.996094 C 263.027344 354.449219 263.617188 353.964844 264.257812 353.539062 C 264.898438 353.109375 265.574219 352.75 266.285156 352.453125 C 266.996094 352.160156 267.726562 351.9375 268.484375 351.789062 C 269.238281 351.636719 270 351.5625 270.769531 351.5625 L 342.015625 351.5625 C 342.644531 351.5625 343.265625 351.5 343.878906 351.375 C 344.492188 351.253906 345.089844 351.070312 345.667969 350.832031 C 346.246094 350.589844 346.796875 350.296875 347.316406 349.949219 C 347.839844 349.601562 348.320312 349.207031 348.761719 348.761719 C 349.207031 348.320312 349.601562 347.835938 349.949219 347.316406 C 350.296875 346.796875 350.59375 346.246094 350.832031 345.667969 C 351.074219 345.089844 351.253906 344.492188 351.375 343.878906 C 351.5 343.261719 351.5625 342.644531 351.5625 342.015625 L 351.5625 270.769531 C 351.5625 270 351.636719 269.234375 351.785156 268.480469 C 351.933594 267.722656 352.15625 266.992188 352.449219 266.277344 C 352.742188 265.566406 353.105469 264.890625 353.53125 264.25 C 353.960938 263.609375 354.445312 263.015625 354.988281 262.472656 C 355.535156 261.925781 356.125 261.441406 356.765625 261.011719 C 357.40625 260.582031 358.082031 260.222656 358.792969 259.925781 C 359.503906 259.632812 360.238281 259.410156 360.992188 259.257812 C 361.75 259.109375 362.511719 259.035156 363.28125 259.035156 C 364.050781 259.035156 364.8125 259.109375 365.570312 259.257812 C 366.324219 259.410156 367.058594 259.632812 367.769531 259.925781 C 368.480469 260.222656 369.15625 260.582031 369.796875 261.011719 C 370.4375 261.441406 371.027344 261.925781 371.574219 262.472656 C 372.117188 263.015625 372.601562 263.609375 373.03125 264.25 C 373.457031 264.890625 373.820312 265.566406 374.113281 266.277344 C 374.40625 266.992188 374.628906 267.722656 374.777344 268.480469 C 374.925781 269.234375 375 270 375 270.769531 Z M 32.984375 375 C 31.902344 375 30.824219 374.945312 29.75 374.835938 C 28.675781 374.730469 27.609375 374.570312 26.550781 374.359375 C 25.492188 374.148438 24.445312 373.886719 23.414062 373.570312 C 22.378906 373.257812 21.363281 372.894531 20.367188 372.480469 C 19.367188 372.066406 18.394531 371.605469 17.441406 371.09375 C 16.488281 370.585938 15.566406 370.03125 14.667969 369.429688 C 13.769531 368.828125 12.902344 368.1875 12.066406 367.5 C 11.234375 366.816406 10.433594 366.089844 9.671875 365.328125 C 8.90625 364.5625 8.183594 363.765625 7.496094 362.929688 C 6.8125 362.097656 6.167969 361.230469 5.570312 360.332031 C 4.96875 359.433594 4.414062 358.507812 3.90625 357.558594 C 3.394531 356.605469 2.933594 355.628906 2.519531 354.632812 C 2.105469 353.636719 1.742188 352.621094 1.429688 351.585938 C 1.113281 350.554688 0.851562 349.507812 0.640625 348.449219 C 0.429688 347.390625 0.269531 346.324219 0.164062 345.246094 C 0.0546875 344.171875 0 343.097656 0 342.015625 L 0 270.769531 C 0 270 0.0742188 269.238281 0.226562 268.480469 C 0.375 267.726562 0.597656 266.996094 0.890625 266.285156 C 1.1875 265.574219 1.546875 264.898438 1.976562 264.257812 C 2.402344 263.617188 2.886719 263.027344 3.433594 262.480469 C 3.976562 261.9375 4.570312 261.453125 5.207031 261.023438 C 5.847656 260.597656 6.523438 260.234375 7.234375 259.941406 C 7.945312 259.648438 8.679688 259.425781 9.433594 259.273438 C 10.1875 259.125 10.949219 259.050781 11.71875 259.050781 C 12.488281 259.050781 13.25 259.125 14.003906 259.273438 C 14.757812 259.425781 15.492188 259.648438 16.203125 259.941406 C 16.914062 260.234375 17.589844 260.597656 18.230469 261.023438 C 18.867188 261.453125 19.460938 261.9375 20.003906 262.480469 C 20.550781 263.027344 21.035156 263.617188 21.460938 264.257812 C 21.890625 264.898438 22.25 265.574219 22.546875 266.285156 C 22.839844 266.996094 23.0625 267.726562 23.210938 268.480469 C 23.363281 269.238281 23.4375 270 23.4375 270.769531 L 23.4375 342.015625 C 23.4375 342.644531 23.5 343.261719 23.621094 343.878906 C 23.746094 344.492188 23.925781 345.089844 24.167969 345.667969 C 24.40625 346.246094 24.699219 346.796875 25.050781 347.316406 C 25.398438 347.835938 25.792969 348.320312 26.234375 348.761719 C 26.679688 349.207031 27.160156 349.601562 27.683594 349.949219 C 28.203125 350.296875 28.753906 350.59375 29.332031 350.832031 C 29.910156 351.074219 30.507812 351.253906 31.121094 351.378906 C 31.734375 351.5 32.355469 351.5625 32.984375 351.5625 L 104.234375 351.5625 C 105.003906 351.5625 105.765625 351.636719 106.523438 351.789062 C 107.277344 351.9375 108.007812 352.160156 108.71875 352.453125 C 109.429688 352.75 110.105469 353.109375 110.746094 353.539062 C 111.386719 353.964844 111.976562 354.449219 112.523438 354.996094 C 113.066406 355.539062 113.550781 356.128906 113.980469 356.769531 C 114.40625 357.410156 114.765625 358.085938 115.0625 358.796875 C 115.355469 359.507812 115.578125 360.242188 115.730469 360.996094 C 115.878906 361.75 115.953125 362.511719 115.953125 363.28125 C 115.953125 364.050781 115.878906 364.8125 115.730469 365.566406 C 115.578125 366.320312 115.355469 367.054688 115.0625 367.765625 C 114.765625 368.476562 114.40625 369.152344 113.980469 369.792969 C 113.550781 370.429688 113.066406 371.023438 112.523438 371.566406 C 111.976562 372.113281 111.386719 372.597656 110.746094 373.023438 C 110.105469 373.453125 109.429688 373.8125 108.71875 374.109375 C 108.007812 374.402344 107.277344 374.625 106.523438 374.773438 C 105.765625 374.925781 105.003906 375 104.234375 375 Z M 0 104.230469 L 0 32.980469 C 0 31.902344 0.0546875 30.824219 0.164062 29.75 C 0.269531 28.675781 0.429688 27.609375 0.640625 26.550781 C 0.851562 25.492188 1.113281 24.445312 1.429688 23.410156 C 1.742188 22.378906 2.105469 21.363281 2.519531 20.367188 C 2.933594 19.367188 3.398438 18.394531 3.90625 17.441406 C 4.414062 16.488281 4.96875 15.5625 5.570312 14.667969 C 6.171875 13.769531 6.8125 12.902344 7.5 12.066406 C 8.183594 11.234375 8.90625 10.433594 9.671875 9.671875 C 10.433594 8.90625 11.234375 8.183594 12.070312 7.496094 C 12.902344 6.8125 13.769531 6.167969 14.667969 5.570312 C 15.566406 4.96875 16.492188 4.414062 17.441406 3.90625 C 18.394531 3.394531 19.371094 2.933594 20.367188 2.519531 C 21.363281 2.105469 22.378906 1.742188 23.414062 1.429688 C 24.445312 1.113281 25.492188 0.851562 26.550781 0.640625 C 27.609375 0.429688 28.675781 0.269531 29.75 0.164062 C 30.824219 0.0546875 31.902344 0 32.984375 0 L 104.234375 0 C 105.003906 0 105.765625 0.0742188 106.523438 0.226562 C 107.277344 0.375 108.007812 0.597656 108.71875 0.890625 C 109.429688 1.1875 110.105469 1.546875 110.746094 1.976562 C 111.386719 2.402344 111.976562 2.886719 112.523438 3.433594 C 113.066406 3.976562 113.550781 4.570312 113.980469 5.207031 C 114.40625 5.847656 114.765625 6.523438 115.0625 7.234375 C 115.355469 7.945312 115.578125 8.679688 115.730469 9.433594 C 115.878906 10.1875 115.953125 10.949219 115.953125 11.71875 C 115.953125 12.488281 115.878906 13.25 115.730469 14.003906 C 115.578125 14.757812 115.355469 15.492188 115.0625 16.203125 C 114.765625 16.914062 114.40625 17.589844 113.980469 18.230469 C 113.550781 18.867188 113.066406 19.460938 112.523438 20.003906 C 111.976562 20.550781 111.386719 21.035156 110.746094 21.460938 C 110.105469 21.890625 109.429688 22.25 108.71875 22.546875 C 108.007812 22.839844 107.277344 23.0625 106.523438 23.210938 C 105.765625 23.363281 105.003906 23.4375 104.234375 23.4375 L 32.984375 23.4375 C 32.355469 23.4375 31.734375 23.5 31.121094 23.621094 C 30.507812 23.746094 29.910156 23.925781 29.332031 24.167969 C 28.753906 24.40625 28.203125 24.699219 27.683594 25.046875 C 27.160156 25.394531 26.679688 25.792969 26.234375 26.234375 C 25.792969 26.679688 25.398438 27.160156 25.050781 27.679688 C 24.699219 28.203125 24.40625 28.75 24.167969 29.328125 C 23.925781 29.910156 23.746094 30.503906 23.621094 31.121094 C 23.5 31.734375 23.4375 32.355469 23.4375 32.980469 L 23.4375 104.230469 C 23.4375 105 23.363281 105.761719 23.210938 106.515625 C 23.0625 107.269531 22.839844 108.003906 22.546875 108.714844 C 22.25 109.425781 21.890625 110.101562 21.460938 110.738281 C 21.035156 111.378906 20.550781 111.972656 20.003906 112.515625 C 19.460938 113.058594 18.867188 113.546875 18.230469 113.972656 C 17.589844 114.402344 16.914062 114.761719 16.203125 115.054688 C 15.492188 115.351562 14.757812 115.574219 14.003906 115.722656 C 13.25 115.875 12.488281 115.949219 11.71875 115.949219 C 10.949219 115.949219 10.1875 115.875 9.433594 115.722656 C 8.679688 115.574219 7.945312 115.351562 7.234375 115.054688 C 6.523438 114.761719 5.847656 114.402344 5.207031 113.972656 C 4.570312 113.546875 3.976562 113.058594 3.433594 112.515625 C 2.886719 111.972656 2.402344 111.378906 1.976562 110.738281 C 1.546875 110.101562 1.1875 109.425781 0.890625 108.714844 C 0.597656 108.003906 0.375 107.269531 0.226562 106.515625 C 0.0742188 105.761719 0 105 0 104.230469 Z M 187.5 175.308594 C 186.730469 175.308594 185.96875 175.386719 185.214844 175.535156 C 184.460938 175.6875 183.726562 175.90625 183.015625 176.203125 C 182.304688 176.496094 181.628906 176.859375 180.988281 177.285156 C 180.351562 177.710938 179.757812 178.199219 179.214844 178.742188 C 178.667969 179.285156 178.183594 179.878906 177.757812 180.519531 C 177.328125 181.160156 176.96875 181.832031 176.671875 182.542969 C 176.378906 183.253906 176.15625 183.988281 176.007812 184.742188 C 175.855469 185.496094 175.78125 186.257812 175.78125 187.027344 L 175.78125 187.964844 C 175.78125 188.734375 175.855469 189.496094 176.007812 190.253906 C 176.15625 191.007812 176.378906 191.738281 176.671875 192.449219 C 176.96875 193.160156 177.328125 193.835938 177.757812 194.476562 C 178.183594 195.117188 178.667969 195.707031 179.214844 196.253906 C 179.757812 196.796875 180.351562 197.28125 180.988281 197.710938 C 181.628906 198.136719 182.304688 198.496094 183.015625 198.792969 C 183.726562 199.085938 184.460938 199.308594 185.214844 199.460938 C 185.96875 199.609375 186.730469 199.683594 187.5 199.683594 C 188.269531 199.683594 189.03125 199.609375 189.785156 199.460938 C 190.539062 199.308594 191.273438 199.085938 191.984375 198.792969 C 192.695312 198.496094 193.371094 198.136719 194.011719 197.710938 C 194.648438 197.28125 195.242188 196.796875 195.785156 196.253906 C 196.332031 195.707031 196.816406 195.117188 197.242188 194.476562 C 197.671875 193.835938 198.03125 193.160156 198.328125 192.449219 C 198.621094 191.738281 198.84375 191.007812 198.992188 190.253906 C 199.144531 189.496094 199.21875 188.734375 199.21875 187.964844 L 199.21875 187.027344 C 199.21875 186.257812 199.144531 185.496094 198.992188 184.742188 C 198.84375 183.988281 198.621094 183.253906 198.328125 182.542969 C 198.03125 181.832031 197.671875 181.160156 197.242188 180.519531 C 196.816406 179.878906 196.332031 179.285156 195.785156 178.742188 C 195.242188 178.199219 194.648438 177.710938 194.011719 177.285156 C 193.371094 176.859375 192.695312 176.496094 191.984375 176.203125 C 191.273438 175.90625 190.539062 175.6875 189.785156 175.535156 C 189.03125 175.386719 188.269531 175.308594 187.5 175.308594 Z M 187.5 175.308594 " clip-rule="evenodd"/></clipPath><linearGradient x1="256" gradientTransform="matrix(0.732422, 0, 0, 0.732422, 0.0000045, 0)" y1="512.000478" x2="256.00101" gradientUnits="userSpaceOnUse" y2="-0.000504992" id="fbfcadf5b5"><stop stop-opacity="1" stop-color="rgb(0%, 47.799683%, 71.398926%)" offset="0"/><stop stop-opacity="1" stop-color="rgb(0%, 47.903442%, 71.554565%)" offset="0.00000197263"/><stop stop-opacity="1" stop-color="rgb(0%, 48.008728%, 71.711731%)" offset="0.015625"/><stop stop-opacity="1" stop-color="rgb(0%, 48.112488%, 71.867371%)" offset="0.03125"/><stop stop-opacity="1" stop-color="rgb(0%, 48.321533%, 72.180176%)" offset="0.046875"/><stop stop-opacity="1" stop-color="rgb(0%, 48.532104%, 72.492981%)" offset="0.0625"/><stop stop-opacity="1" stop-color="rgb(0%, 48.74115%, 72.80426%)" offset="0.078125"/><stop stop-opacity="1" stop-color="rgb(0%, 48.950195%, 73.117065%)" offset="0.09375"/><stop stop-opacity="1" stop-color="rgb(0%, 49.159241%, 73.429871%)" offset="0.109375"/><stop stop-opacity="1" stop-color="rgb(0%, 49.368286%, 73.742676%)" offset="0.125"/><stop stop-opacity="1" stop-color="rgb(0%, 49.578857%, 74.055481%)" offset="0.140625"/><stop stop-opacity="1" stop-color="rgb(0%, 49.787903%, 74.36676%)" offset="0.15625"/><stop stop-opacity="1" stop-color="rgb(0%, 49.996948%, 74.679565%)" offset="0.171875"/><stop stop-opacity="1" stop-color="rgb(0%, 50.205994%, 74.992371%)" offset="0.1875"/><stop stop-opacity="1" stop-color="rgb(0%, 50.416565%, 75.305176%)" offset="0.203125"/><stop stop-opacity="1" stop-color="rgb(0%, 50.62561%, 75.617981%)" offset="0.21875"/><stop stop-opacity="1" stop-color="rgb(0%, 50.834656%, 75.92926%)" offset="0.234375"/><stop stop-opacity="1" stop-color="rgb(0%, 51.043701%, 76.242065%)" offset="0.25"/><stop stop-opacity="1" stop-color="rgb(0%, 51.252747%, 76.554871%)" offset="0.265625"/><stop stop-opacity="1" stop-color="rgb(0%, 51.463318%, 76.867676%)" offset="0.28125"/><stop stop-opacity="1" stop-color="rgb(0%, 51.672363%, 77.180481%)" offset="0.296875"/><stop stop-opacity="1" stop-color="rgb(0%, 51.881409%, 77.49176%)" offset="0.3125"/><stop stop-opacity="1" stop-color="rgb(0%, 52.090454%, 77.804565%)" offset="0.328125"/><stop stop-opacity="1" stop-color="rgb(0%, 52.2995%, 78.117371%)" offset="0.34375"/><stop stop-opacity="1" stop-color="rgb(0%, 52.510071%, 78.430176%)" offset="0.359375"/><stop stop-opacity="1" stop-color="rgb(0%, 52.719116%, 78.742981%)" offset="0.375"/><stop stop-opacity="1" stop-color="rgb(0%, 52.928162%, 79.05426%)" offset="0.390625"/><stop stop-opacity="1" stop-color="rgb(0%, 53.137207%, 79.367065%)" offset="0.40625"/><stop stop-opacity="1" stop-color="rgb(0%, 53.347778%, 79.679871%)" offset="0.421875"/><stop stop-opacity="1" stop-color="rgb(0%, 53.556824%, 79.992676%)" offset="0.4375"/><stop stop-opacity="1" stop-color="rgb(0%, 53.765869%, 80.305481%)" offset="0.453125"/><stop stop-opacity="1" stop-color="rgb(0%, 53.974915%, 80.61676%)" offset="0.46875"/><stop stop-opacity="1" stop-color="rgb(0%, 54.18396%, 80.929565%)" offset="0.484375"/><stop stop-opacity="1" stop-color="rgb(0%, 54.394531%, 81.242371%)" offset="0.5"/><stop stop-opacity="1" stop-color="rgb(0%, 54.603577%, 81.555176%)" offset="0.515625"/><stop stop-opacity="1" stop-color="rgb(0%, 54.812622%, 81.867981%)" offset="0.53125"/><stop stop-opacity="1" stop-color="rgb(0%, 55.021667%, 82.17926%)" offset="0.546875"/><stop stop-opacity="1" stop-color="rgb(0%, 55.230713%, 82.492065%)" offset="0.5625"/><stop stop-opacity="1" stop-color="rgb(0%, 55.441284%, 82.804871%)" offset="0.578125"/><stop stop-opacity="1" stop-color="rgb(0%, 55.65033%, 83.117676%)" offset="0.59375"/><stop stop-opacity="1" stop-color="rgb(0%, 55.859375%, 83.430481%)" offset="0.609375"/><stop stop-opacity="1" stop-color="rgb(0%, 56.06842%, 83.74176%)" offset="0.625"/><stop stop-opacity="1" stop-color="rgb(0%, 56.278992%, 84.054565%)" offset="0.640625"/><stop stop-opacity="1" stop-color="rgb(0%, 56.488037%, 84.367371%)" offset="0.65625"/><stop stop-opacity="1" stop-color="rgb(0%, 56.697083%, 84.680176%)" offset="0.671875"/><stop stop-opacity="1" stop-color="rgb(0%, 56.906128%, 84.992981%)" offset="0.6875"/><stop stop-opacity="1" stop-color="rgb(0%, 57.115173%, 85.30426%)" offset="0.703125"/><stop stop-opacity="1" stop-color="rgb(0%, 57.325745%, 85.617065%)" offset="0.71875"/><stop stop-opacity="1" stop-color="rgb(0%, 57.53479%, 85.929871%)" offset="0.734375"/><stop stop-opacity="1" stop-color="rgb(0%, 57.743835%, 86.242676%)" offset="0.75"/><stop stop-opacity="1" stop-color="rgb(0%, 57.952881%, 86.555481%)" offset="0.765625"/><stop stop-opacity="1" stop-color="rgb(0%, 58.161926%, 86.86676%)" offset="0.78125"/><stop stop-opacity="1" stop-color="rgb(0%, 58.372498%, 87.179565%)" offset="0.796875"/><stop stop-opacity="1" stop-color="rgb(0%, 58.581543%, 87.492371%)" offset="0.8125"/><stop stop-opacity="1" stop-color="rgb(0%, 58.790588%, 87.805176%)" offset="0.828125"/><stop stop-opacity="1" stop-color="rgb(0%, 58.999634%, 88.117981%)" offset="0.84375"/><stop stop-opacity="1" stop-color="rgb(0%, 59.210205%, 88.42926%)" offset="0.859375"/><stop stop-opacity="1" stop-color="rgb(0%, 59.41925%, 88.742065%)" offset="0.875"/><stop stop-opacity="1" stop-color="rgb(0%, 59.628296%, 89.054871%)" offset="0.890625"/><stop stop-opacity="1" stop-color="rgb(0%, 59.837341%, 89.367676%)" offset="0.90625"/><stop stop-opacity="1" stop-color="rgb(0%, 60.046387%, 89.680481%)" offset="0.921875"/><stop stop-opacity="1" stop-color="rgb(0%, 60.256958%, 89.99176%)" offset="0.9375"/><stop stop-opacity="1" stop-color="rgb(0%, 60.466003%, 90.304565%)" offset="0.953125"/><stop stop-opacity="1" stop-color="rgb(0%, 60.675049%, 90.617371%)" offset="0.96875"/><stop stop-opacity="1" stop-color="rgb(0%, 60.884094%, 90.930176%)" offset="0.984375"/><stop stop-opacity="1" stop-color="rgb(0%, 61.09314%, 91.241455%)" offset="0.999998"/><stop stop-opacity="1" stop-color="rgb(0%, 61.198425%, 91.398621%)" offset="1"/></linearGradient></defs><g clip-path="url(#ef8e45e66d)"><rect x="-37.5" fill="url(#fbfcadf5b5)" width="450" y="-37.499999" height="449.999989"/></g></svg>