<svg xmlns="http://www.w3.org/2000/svg" xmlns:xlink="http://www.w3.org/1999/xlink" width="500" zoomAndPan="magnify" viewBox="0 0 375 374.999991" height="500" preserveAspectRatio="xMidYMid meet" version="1.0"><defs><clipPath id="b64a31cf9c"><path d="M 176.492188 198.511719 C 176.785156 198.804688 177.046875 199.121094 177.273438 199.464844 C 177.503906 199.804688 177.695312 200.167969 177.851562 200.546875 C 178.011719 200.929688 178.128906 201.320312 178.210938 201.726562 C 178.289062 202.128906 178.332031 202.539062 178.332031 202.949219 C 178.332031 203.363281 178.289062 203.769531 178.210938 204.171875 C 178.128906 204.578125 178.011719 204.96875 177.851562 205.351562 C 177.695312 205.730469 177.503906 206.09375 177.273438 206.4375 C 177.046875 206.777344 176.785156 207.09375 176.492188 207.386719 L 176.058594 207.824219 C 175.765625 208.113281 175.449219 208.371094 175.105469 208.59375 C 174.765625 208.820312 174.402344 209.007812 174.023438 209.164062 C 173.644531 209.316406 173.253906 209.433594 172.851562 209.511719 C 172.449219 209.589844 172.042969 209.625 171.632812 209.625 C 171.222656 209.621094 170.816406 209.582031 170.414062 209.5 C 170.011719 209.417969 169.621094 209.300781 169.242188 209.140625 C 168.867188 208.984375 168.507812 208.792969 168.164062 208.5625 C 167.824219 208.335938 167.507812 208.078125 167.21875 207.785156 C 166.929688 207.496094 166.671875 207.183594 166.441406 206.84375 C 166.214844 206.5 166.019531 206.140625 165.863281 205.765625 C 165.703125 205.386719 165.585938 204.996094 165.503906 204.59375 C 165.421875 204.191406 165.378906 203.785156 165.375 203.378906 C 165.375 202.96875 165.410156 202.5625 165.488281 202.160156 C 165.566406 201.757812 165.683594 201.363281 165.835938 200.984375 C 165.988281 200.605469 166.179688 200.242188 166.402344 199.902344 C 166.628906 199.558594 166.882812 199.238281 167.167969 198.945312 L 167.609375 198.511719 C 167.898438 198.21875 168.21875 197.960938 168.558594 197.730469 C 168.902344 197.5 169.265625 197.304688 169.644531 197.148438 C 170.027344 196.988281 170.421875 196.871094 170.824219 196.789062 C 171.230469 196.710938 171.640625 196.667969 172.050781 196.667969 C 172.464844 196.667969 172.871094 196.710938 173.277344 196.789062 C 173.683594 196.871094 174.074219 196.988281 174.457031 197.148438 C 174.835938 197.304688 175.199219 197.5 175.542969 197.730469 C 175.886719 197.960938 176.203125 198.21875 176.492188 198.511719 Z M 224.425781 150.5625 C 224.71875 150.855469 224.980469 151.171875 225.210938 151.515625 C 225.441406 151.855469 225.636719 152.21875 225.792969 152.601562 C 225.953125 152.980469 226.074219 153.375 226.152344 153.78125 C 226.234375 154.183594 226.273438 154.59375 226.273438 155.007812 C 226.273438 155.417969 226.234375 155.828125 226.152344 156.234375 C 226.074219 156.636719 225.953125 157.03125 225.792969 157.410156 C 225.636719 157.792969 225.441406 158.15625 225.210938 158.496094 C 224.980469 158.839844 224.71875 159.15625 224.425781 159.449219 L 194.71875 189.164062 C 194.425781 189.449219 194.109375 189.707031 193.765625 189.929688 C 193.421875 190.15625 193.0625 190.34375 192.683594 190.5 C 192.300781 190.652344 191.910156 190.769531 191.507812 190.847656 C 191.105469 190.921875 190.699219 190.960938 190.289062 190.960938 C 189.882812 190.957031 189.476562 190.914062 189.074219 190.835938 C 188.671875 190.753906 188.28125 190.632812 187.902344 190.476562 C 187.527344 190.316406 187.167969 190.125 186.828125 189.898438 C 186.484375 189.667969 186.171875 189.410156 185.882812 189.121094 C 185.589844 188.832031 185.332031 188.515625 185.105469 188.175781 C 184.875 187.835938 184.683594 187.476562 184.527344 187.097656 C 184.367188 186.71875 184.25 186.328125 184.167969 185.929688 C 184.085938 185.527344 184.042969 185.121094 184.042969 184.710938 C 184.039062 184.300781 184.078125 183.894531 184.15625 183.492188 C 184.234375 183.089844 184.347656 182.699219 184.503906 182.320312 C 184.65625 181.941406 184.847656 181.578125 185.070312 181.234375 C 185.296875 180.894531 185.550781 180.574219 185.839844 180.285156 L 215.558594 150.5625 C 215.847656 150.273438 216.167969 150.011719 216.507812 149.785156 C 216.851562 149.554688 217.210938 149.363281 217.59375 149.203125 C 217.972656 149.046875 218.367188 148.929688 218.769531 148.847656 C 219.171875 148.769531 219.582031 148.726562 219.992188 148.726562 C 220.402344 148.726562 220.8125 148.769531 221.214844 148.847656 C 221.621094 148.929688 222.011719 149.046875 222.390625 149.203125 C 222.773438 149.363281 223.132812 149.554688 223.476562 149.785156 C 223.820312 150.011719 224.136719 150.273438 224.425781 150.5625 Z M 282.808594 125.394531 C 283.351562 124.851562 283.867188 124.285156 284.355469 123.6875 C 284.84375 123.09375 285.300781 122.476562 285.730469 121.839844 C 286.15625 121.199219 286.550781 120.539062 286.914062 119.863281 C 287.277344 119.183594 287.605469 118.488281 287.902344 117.777344 C 288.195312 117.066406 288.453125 116.34375 288.675781 115.609375 C 288.902344 114.871094 289.085938 114.128906 289.238281 113.371094 C 289.386719 112.617188 289.5 111.859375 289.574219 111.09375 C 289.652344 110.328125 289.6875 109.5625 289.6875 108.792969 C 289.6875 108.023438 289.652344 107.253906 289.578125 106.488281 C 289.5 105.722656 289.386719 104.964844 289.238281 104.210938 C 289.089844 103.457031 288.902344 102.710938 288.679688 101.972656 C 288.457031 101.238281 288.195312 100.515625 287.902344 99.804688 C 287.609375 99.09375 287.28125 98.398438 286.917969 97.71875 C 286.554688 97.042969 286.160156 96.382812 285.734375 95.742188 C 285.304688 95.105469 284.847656 94.488281 284.359375 93.890625 C 283.871094 93.296875 283.355469 92.730469 282.8125 92.183594 C 282.269531 91.640625 281.699219 91.125 281.105469 90.636719 C 280.511719 90.148438 279.894531 89.691406 279.253906 89.265625 C 278.613281 88.835938 277.957031 88.441406 277.277344 88.078125 C 276.597656 87.714844 275.902344 87.386719 275.195312 87.09375 C 274.484375 86.800781 273.757812 86.539062 273.023438 86.316406 C 272.289062 86.09375 271.542969 85.90625 270.789062 85.757812 C 270.035156 85.605469 269.273438 85.496094 268.507812 85.417969 C 267.742188 85.34375 266.976562 85.304688 266.207031 85.304688 C 265.4375 85.304688 264.671875 85.34375 263.90625 85.417969 C 263.140625 85.496094 262.378906 85.605469 261.625 85.757812 C 260.871094 85.90625 260.125 86.09375 259.390625 86.316406 C 258.652344 86.539062 257.929688 86.800781 257.21875 87.09375 C 256.507812 87.386719 255.8125 87.714844 255.136719 88.078125 C 254.457031 88.441406 253.796875 88.835938 253.160156 89.265625 C 252.519531 89.691406 251.902344 90.148438 251.308594 90.636719 C 250.714844 91.125 250.144531 91.640625 249.601562 92.183594 C 249.058594 92.730469 248.539062 93.296875 248.054688 93.890625 C 247.566406 94.488281 247.109375 95.105469 246.679688 95.742188 C 246.253906 96.382812 245.859375 97.042969 245.496094 97.71875 C 245.132812 98.398438 244.804688 99.09375 244.511719 99.804688 C 244.214844 100.515625 243.957031 101.238281 243.734375 101.972656 C 243.511719 102.710938 243.324219 103.457031 243.175781 104.210938 C 243.023438 104.964844 242.910156 105.722656 242.835938 106.488281 C 242.761719 107.253906 242.722656 108.023438 242.722656 108.792969 C 242.722656 109.5625 242.761719 110.328125 242.835938 111.09375 C 242.914062 111.859375 243.023438 112.617188 243.175781 113.371094 C 243.324219 114.128906 243.511719 114.871094 243.734375 115.609375 C 243.957031 116.34375 244.21875 117.066406 244.511719 117.777344 C 244.808594 118.488281 245.136719 119.183594 245.496094 119.863281 C 245.859375 120.539062 246.253906 121.199219 246.683594 121.839844 C 247.109375 122.476562 247.566406 123.09375 248.054688 123.6875 C 248.542969 124.285156 249.058594 124.851562 249.605469 125.394531 C 250.144531 125.945312 250.710938 126.464844 251.304688 126.957031 C 251.898438 127.453125 252.511719 127.914062 253.148438 128.34375 C 253.789062 128.777344 254.445312 129.175781 255.125 129.542969 C 255.800781 129.910156 256.496094 130.238281 257.207031 130.539062 C 257.917969 130.835938 258.640625 131.097656 259.378906 131.324219 C 260.117188 131.546875 260.863281 131.738281 261.617188 131.886719 C 262.371094 132.039062 263.132812 132.152344 263.902344 132.230469 C 264.667969 132.308594 265.4375 132.34375 266.207031 132.34375 C 266.976562 132.34375 267.746094 132.308594 268.511719 132.230469 C 269.277344 132.152344 270.039062 132.039062 270.796875 131.886719 C 271.550781 131.738281 272.296875 131.546875 273.035156 131.324219 C 273.769531 131.097656 274.496094 130.835938 275.207031 130.539062 C 275.914062 130.238281 276.609375 129.910156 277.289062 129.542969 C 277.964844 129.175781 278.625 128.777344 279.261719 128.34375 C 279.902344 127.914062 280.515625 127.453125 281.109375 126.957031 C 281.699219 126.464844 282.269531 125.945312 282.808594 125.394531 Z M 240.71875 83.308594 C 241.207031 82.820312 241.707031 82.347656 242.21875 81.890625 C 242.734375 81.433594 243.261719 80.992188 243.800781 80.5625 C 244.339844 80.136719 244.890625 79.722656 245.453125 79.328125 C 246.015625 78.929688 246.589844 78.550781 247.171875 78.1875 C 247.757812 77.824219 248.351562 77.480469 248.957031 77.148438 C 249.558594 76.820312 250.171875 76.507812 250.796875 76.214844 C 251.417969 75.921875 252.046875 75.644531 252.683594 75.386719 C 253.324219 75.128906 253.96875 74.890625 254.617188 74.667969 C 255.269531 74.445312 255.929688 74.246094 256.589844 74.0625 C 257.253906 73.878906 257.921875 73.714844 258.59375 73.570312 C 259.269531 73.421875 259.945312 73.296875 260.625 73.191406 C 261.304688 73.085938 261.984375 72.996094 262.671875 72.929688 C 263.355469 72.863281 264.042969 72.816406 264.730469 72.789062 C 265.417969 72.757812 266.105469 72.75 266.792969 72.761719 C 267.480469 72.773438 268.167969 72.804688 268.855469 72.855469 C 269.539062 72.90625 270.222656 72.976562 270.90625 73.066406 C 271.589844 73.15625 272.265625 73.265625 272.945312 73.394531 C 273.621094 73.523438 274.292969 73.671875 274.957031 73.839844 C 275.625 74.007812 276.289062 74.191406 276.945312 74.398438 C 277.601562 74.601562 278.25 74.828125 278.894531 75.070312 C 279.539062 75.3125 280.175781 75.574219 280.804688 75.851562 C 281.433594 76.128906 282.054688 76.425781 282.667969 76.742188 C 283.277344 77.054688 283.882812 77.386719 284.472656 77.738281 C 285.066406 78.085938 285.648438 78.453125 286.222656 78.835938 C 286.792969 79.214844 287.355469 79.613281 287.902344 80.03125 C 288.453125 80.445312 288.988281 80.875 289.515625 81.320312 C 290.039062 81.765625 290.550781 82.222656 291.050781 82.699219 C 291.546875 83.171875 292.03125 83.660156 292.5 84.164062 C 292.972656 84.667969 293.425781 85.183594 293.867188 85.710938 C 294.308594 86.238281 294.734375 86.777344 295.144531 87.332031 C 295.554688 87.882812 295.949219 88.449219 296.324219 89.023438 C 296.703125 89.597656 297.0625 90.183594 297.40625 90.78125 C 297.75 91.375 298.078125 91.980469 298.386719 92.597656 C 298.695312 93.210938 298.988281 93.835938 299.261719 94.464844 C 299.535156 95.097656 299.789062 95.734375 300.027344 96.382812 C 300.265625 97.027344 300.480469 97.679688 300.683594 98.339844 C 300.882812 98.996094 301.0625 99.660156 301.222656 100.328125 C 301.386719 101 301.527344 101.671875 301.652344 102.347656 C 301.773438 103.027344 301.878906 103.707031 301.960938 104.386719 C 302.046875 105.070312 302.109375 105.757812 302.15625 106.441406 C 302.199219 107.128906 302.226562 107.816406 302.230469 108.503906 C 302.234375 109.191406 302.222656 109.878906 302.1875 110.566406 C 302.152344 111.253906 302.101562 111.941406 302.027344 112.625 C 301.953125 113.308594 301.863281 113.992188 301.75 114.667969 C 301.636719 115.347656 301.503906 116.023438 301.355469 116.695312 C 301.203125 117.367188 301.035156 118.03125 300.84375 118.695312 C 300.65625 119.355469 300.449219 120.011719 300.222656 120.660156 C 299.996094 121.3125 299.75 121.953125 299.484375 122.589844 C 299.222656 123.226562 298.941406 123.851562 298.640625 124.472656 C 298.34375 125.089844 298.027344 125.703125 297.691406 126.304688 C 297.355469 126.90625 297.003906 127.496094 296.636719 128.078125 C 296.269531 128.660156 295.882812 129.230469 295.484375 129.789062 C 295.082031 130.347656 294.664062 130.894531 294.234375 131.429688 C 293.800781 131.964844 293.355469 132.488281 292.890625 132.996094 C 292.429688 133.507812 291.953125 134.003906 291.460938 134.484375 C 290.972656 134.96875 290.46875 135.4375 289.949219 135.890625 C 289.433594 136.34375 288.902344 136.78125 288.359375 137.207031 C 287.816406 137.628906 287.265625 138.035156 286.699219 138.425781 C 286.132812 138.820312 285.554688 139.195312 284.96875 139.550781 C 284.382812 139.910156 283.785156 140.253906 283.175781 140.578125 C 282.570312 140.902344 281.953125 141.207031 281.328125 141.496094 C 280.707031 141.785156 280.074219 142.054688 279.433594 142.308594 C 278.792969 142.5625 278.144531 142.796875 277.492188 143.011719 C 276.839844 143.226562 276.179688 143.425781 275.515625 143.601562 C 274.851562 143.78125 274.183594 143.9375 273.507812 144.078125 C 272.835938 144.21875 272.15625 144.339844 271.476562 144.4375 C 270.796875 144.539062 270.113281 144.621094 269.425781 144.683594 C 268.742188 144.746094 268.054688 144.785156 267.367188 144.808594 C 266.679688 144.832031 265.992188 144.832031 265.304688 144.816406 C 264.617188 144.800781 263.929688 144.761719 263.242188 144.707031 C 262.558594 144.648438 261.875 144.574219 261.191406 144.480469 C 260.511719 144.382812 259.832031 144.269531 259.160156 144.132812 C 258.484375 144 257.8125 143.847656 257.148438 143.671875 C 256.480469 143.5 255.820312 143.308594 255.164062 143.097656 C 254.511719 142.886719 253.863281 142.660156 253.21875 142.410156 C 252.578125 142.164062 251.945312 141.898438 251.316406 141.613281 C 250.691406 141.328125 250.074219 141.027344 249.464844 140.707031 C 248.855469 140.386719 248.253906 140.050781 247.664062 139.695312 C 247.074219 139.34375 246.496094 138.972656 245.925781 138.585938 C 245.355469 138.199219 244.800781 137.796875 244.253906 137.375 C 243.707031 136.957031 243.175781 136.523438 242.652344 136.074219 C 242.132812 135.625 241.625 135.160156 241.128906 134.679688 C 240.636719 134.203125 240.15625 133.710938 239.691406 133.203125 C 239.222656 132.699219 238.773438 132.179688 238.335938 131.648438 C 237.898438 131.113281 237.480469 130.570312 237.074219 130.015625 C 236.667969 129.457031 236.277344 128.890625 235.90625 128.3125 C 235.535156 127.734375 235.179688 127.144531 234.839844 126.546875 C 234.5 125.949219 234.179688 125.339844 233.875 124.722656 C 233.570312 124.105469 233.285156 123.480469 233.015625 122.847656 C 232.746094 122.214844 232.496094 121.574219 232.265625 120.925781 C 232.035156 120.277344 231.820312 119.621094 231.625 118.960938 C 231.433594 118.304688 231.257812 117.636719 231.101562 116.96875 C 230.945312 116.296875 230.808594 115.625 230.691406 114.945312 C 230.574219 114.265625 230.476562 113.585938 230.398438 112.902344 C 230.316406 112.21875 230.257812 111.535156 230.21875 110.847656 C 230.179688 110.160156 230.160156 109.472656 230.160156 108.785156 C 230.164062 106.417969 230.394531 104.074219 230.855469 101.753906 C 231.320312 99.433594 232.003906 97.183594 232.910156 94.996094 C 233.816406 92.8125 234.925781 90.734375 236.238281 88.769531 C 237.554688 86.800781 239.046875 84.980469 240.71875 83.308594 Z M 198.15625 272.210938 C 274.9375 228.996094 326.769531 178.871094 353.648438 121.828125 C 351.34375 116.199219 348.761719 110.695312 345.910156 105.320312 C 343.058594 99.945312 339.949219 94.726562 336.578125 89.660156 C 333.207031 84.59375 329.59375 79.707031 325.738281 75 C 321.882812 70.292969 317.804688 65.789062 313.503906 61.484375 C 309.199219 57.183594 304.695312 53.105469 299.988281 49.25 C 295.28125 45.394531 290.394531 41.78125 285.328125 38.410156 C 280.261719 35.039062 275.042969 31.929688 269.667969 29.078125 C 264.292969 26.226562 258.789062 23.644531 253.160156 21.339844 C 196.25 48.125 146.128906 99.957031 102.792969 176.839844 L 198.152344 272.210938 Z M 282.828125 291.324219 L 218.140625 355.078125 L 204.140625 283.269531 C 230.316406 268.578125 253.730469 253.078125 274.375 236.777344 L 282.828125 291.328125 Z M 131.625 305.199219 C 151.152344 296.640625 169.511719 287.742188 186.695312 278.511719 L 96.492188 188.304688 C 87.261719 205.492188 78.367188 223.851562 69.800781 243.375 C 69.570312 243.875 69.417969 244.398438 69.351562 244.945312 C 69.28125 245.492188 69.296875 246.039062 69.398438 246.578125 C 69.503906 247.121094 69.683594 247.636719 69.945312 248.121094 C 70.210938 248.605469 70.539062 249.039062 70.9375 249.417969 L 125.582031 304.058594 C 125.964844 304.457031 126.398438 304.789062 126.882812 305.050781 C 127.367188 305.3125 127.878906 305.496094 128.421875 305.597656 C 128.964844 305.699219 129.507812 305.71875 130.054688 305.648438 C 130.601562 305.582031 131.125 305.429688 131.625 305.199219 Z M 0.00390625 375 C 12.257812 317.78125 37.472656 282.933594 75.035156 271.269531 L 103.730469 299.960938 C 92.070312 337.53125 57.21875 362.746094 0.00390625 375 Z M 19.917969 156.847656 L 83.667969 92.175781 L 138.234375 100.628906 C 121.945312 121.246094 106.445312 144.65625 91.734375 170.863281 Z M 349.304688 0 C 357.371094 0 365.527344 0.402344 373.78125 1.210938 C 377.410156 38.234375 372.9375 73.179688 360.367188 106.054688 C 357.976562 101.109375 355.382812 96.273438 352.589844 91.542969 C 349.792969 86.816406 346.804688 82.214844 343.621094 77.738281 C 340.441406 73.257812 337.078125 68.921875 333.53125 64.726562 C 329.988281 60.535156 326.273438 56.492188 322.390625 52.609375 C 318.503906 48.726562 314.464844 45.011719 310.269531 41.46875 C 306.074219 37.921875 301.738281 34.558594 297.261719 31.378906 C 292.785156 28.195312 288.183594 25.207031 283.453125 22.414062 C 278.726562 19.617188 273.890625 17.023438 268.945312 14.632812 C 281.773438 9.746094 294.945312 6.074219 308.453125 3.613281 C 321.957031 1.152344 335.578125 -0.0507812 349.304688 0 Z M 349.304688 0 " clip-rule="evenodd"/></clipPath><linearGradient x1="255.99899" gradientTransform="matrix(0.732422, 0, 0, 0.732422, 0.0000045, 0)" y1="512.000478" x2="256" gradientUnits="userSpaceOnUse" y2="-0.000505001" id="ada25a3372"><stop stop-opacity="1" stop-color="rgb(0%, 47.799683%, 71.398926%)" offset="0"/><stop stop-opacity="1" stop-color="rgb(0%, 47.903442%, 71.554565%)" offset="0.00000197264"/><stop stop-opacity="1" stop-color="rgb(0%, 48.008728%, 71.711731%)" offset="0.015625"/><stop stop-opacity="1" stop-color="rgb(0%, 48.112488%, 71.867371%)" offset="0.03125"/><stop stop-opacity="1" stop-color="rgb(0%, 48.321533%, 72.180176%)" offset="0.046875"/><stop stop-opacity="1" stop-color="rgb(0%, 48.532104%, 72.492981%)" offset="0.0625"/><stop stop-opacity="1" stop-color="rgb(0%, 48.74115%, 72.80426%)" offset="0.078125"/><stop stop-opacity="1" stop-color="rgb(0%, 48.950195%, 73.117065%)" offset="0.09375"/><stop stop-opacity="1" stop-color="rgb(0%, 49.159241%, 73.429871%)" offset="0.109375"/><stop stop-opacity="1" stop-color="rgb(0%, 49.368286%, 73.742676%)" offset="0.125"/><stop stop-opacity="1" stop-color="rgb(0%, 49.578857%, 74.055481%)" offset="0.140625"/><stop stop-opacity="1" stop-color="rgb(0%, 49.787903%, 74.36676%)" offset="0.15625"/><stop stop-opacity="1" stop-color="rgb(0%, 49.996948%, 74.679565%)" offset="0.171875"/><stop stop-opacity="1" stop-color="rgb(0%, 50.205994%, 74.992371%)" offset="0.1875"/><stop stop-opacity="1" stop-color="rgb(0%, 50.415039%, 75.305176%)" offset="0.203125"/><stop stop-opacity="1" stop-color="rgb(0%, 50.62561%, 75.617981%)" offset="0.21875"/><stop stop-opacity="1" stop-color="rgb(0%, 50.834656%, 75.92926%)" offset="0.234375"/><stop stop-opacity="1" stop-color="rgb(0%, 51.043701%, 76.242065%)" offset="0.25"/><stop stop-opacity="1" stop-color="rgb(0%, 51.252747%, 76.554871%)" offset="0.265625"/><stop stop-opacity="1" stop-color="rgb(0%, 51.463318%, 76.867676%)" offset="0.28125"/><stop stop-opacity="1" stop-color="rgb(0%, 51.672363%, 77.180481%)" offset="0.296875"/><stop stop-opacity="1" stop-color="rgb(0%, 51.881409%, 77.49176%)" offset="0.3125"/><stop stop-opacity="1" stop-color="rgb(0%, 52.090454%, 77.804565%)" offset="0.328125"/><stop stop-opacity="1" stop-color="rgb(0%, 52.2995%, 78.117371%)" offset="0.34375"/><stop stop-opacity="1" stop-color="rgb(0%, 52.510071%, 78.430176%)" offset="0.359375"/><stop stop-opacity="1" stop-color="rgb(0%, 52.719116%, 78.742981%)" offset="0.375"/><stop stop-opacity="1" stop-color="rgb(0%, 52.928162%, 79.05426%)" offset="0.390625"/><stop stop-opacity="1" stop-color="rgb(0%, 53.137207%, 79.367065%)" offset="0.40625"/><stop stop-opacity="1" stop-color="rgb(0%, 53.347778%, 79.679871%)" offset="0.421875"/><stop stop-opacity="1" stop-color="rgb(0%, 53.556824%, 79.992676%)" offset="0.4375"/><stop stop-opacity="1" stop-color="rgb(0%, 53.765869%, 80.305481%)" offset="0.453125"/><stop stop-opacity="1" stop-color="rgb(0%, 53.974915%, 80.61676%)" offset="0.46875"/><stop stop-opacity="1" stop-color="rgb(0%, 54.18396%, 80.929565%)" offset="0.484375"/><stop stop-opacity="1" stop-color="rgb(0%, 54.394531%, 81.242371%)" offset="0.5"/><stop stop-opacity="1" stop-color="rgb(0%, 54.603577%, 81.555176%)" offset="0.515625"/><stop stop-opacity="1" stop-color="rgb(0%, 54.812622%, 81.867981%)" offset="0.53125"/><stop stop-opacity="1" stop-color="rgb(0%, 55.021667%, 82.17926%)" offset="0.546875"/><stop stop-opacity="1" stop-color="rgb(0%, 55.230713%, 82.492065%)" offset="0.5625"/><stop stop-opacity="1" stop-color="rgb(0%, 55.441284%, 82.804871%)" offset="0.578125"/><stop stop-opacity="1" stop-color="rgb(0%, 55.65033%, 83.117676%)" offset="0.59375"/><stop stop-opacity="1" stop-color="rgb(0%, 55.859375%, 83.430481%)" offset="0.609375"/><stop stop-opacity="1" stop-color="rgb(0%, 56.06842%, 83.74176%)" offset="0.625"/><stop stop-opacity="1" stop-color="rgb(0%, 56.278992%, 84.054565%)" offset="0.640625"/><stop stop-opacity="1" stop-color="rgb(0%, 56.488037%, 84.367371%)" offset="0.65625"/><stop stop-opacity="1" stop-color="rgb(0%, 56.697083%, 84.680176%)" offset="0.671875"/><stop stop-opacity="1" stop-color="rgb(0%, 56.906128%, 84.992981%)" offset="0.6875"/><stop stop-opacity="1" stop-color="rgb(0%, 57.115173%, 85.30426%)" offset="0.703125"/><stop stop-opacity="1" stop-color="rgb(0%, 57.325745%, 85.617065%)" offset="0.71875"/><stop stop-opacity="1" stop-color="rgb(0%, 57.53479%, 85.929871%)" offset="0.734375"/><stop stop-opacity="1" stop-color="rgb(0%, 57.743835%, 86.242676%)" offset="0.75"/><stop stop-opacity="1" stop-color="rgb(0%, 57.952881%, 86.555481%)" offset="0.765625"/><stop stop-opacity="1" stop-color="rgb(0%, 58.161926%, 86.86676%)" offset="0.78125"/><stop stop-opacity="1" stop-color="rgb(0%, 58.372498%, 87.179565%)" offset="0.796875"/><stop stop-opacity="1" stop-color="rgb(0%, 58.581543%, 87.492371%)" offset="0.8125"/><stop stop-opacity="1" stop-color="rgb(0%, 58.790588%, 87.805176%)" offset="0.828125"/><stop stop-opacity="1" stop-color="rgb(0%, 58.999634%, 88.117981%)" offset="0.84375"/><stop stop-opacity="1" stop-color="rgb(0%, 59.210205%, 88.42926%)" offset="0.859375"/><stop stop-opacity="1" stop-color="rgb(0%, 59.41925%, 88.742065%)" offset="0.875"/><stop stop-opacity="1" stop-color="rgb(0%, 59.628296%, 89.054871%)" offset="0.890625"/><stop stop-opacity="1" stop-color="rgb(0%, 59.837341%, 89.367676%)" offset="0.90625"/><stop stop-opacity="1" stop-color="rgb(0%, 60.046387%, 89.680481%)" offset="0.921875"/><stop stop-opacity="1" stop-color="rgb(0%, 60.256958%, 89.99176%)" offset="0.9375"/><stop stop-opacity="1" stop-color="rgb(0%, 60.466003%, 90.304565%)" offset="0.953125"/><stop stop-opacity="1" stop-color="rgb(0%, 60.675049%, 90.617371%)" offset="0.96875"/><stop stop-opacity="1" stop-color="rgb(0%, 60.884094%, 90.930176%)" offset="0.984375"/><stop stop-opacity="1" stop-color="rgb(0%, 61.094666%, 91.242981%)" offset="0.999998"/><stop stop-opacity="1" stop-color="rgb(0%, 61.199951%, 91.398621%)" offset="1"/></linearGradient></defs><g clip-path="url(#b64a31cf9c)"><path fill="url(#ada25a3372)" d="M 0.00390625 0 L 0.00390625 375 L 375 375 L 375 0 Z M 0.00390625 0 " fill-rule="nonzero"/></g></svg>