<svg xmlns="http://www.w3.org/2000/svg" xmlns:xlink="http://www.w3.org/1999/xlink" width="500" zoomAndPan="magnify" viewBox="0 0 375 374.999991" height="500" preserveAspectRatio="xMidYMid meet" version="1.0"><defs><clipPath id="c773181789"><path d="M 0 4 L 375 4 L 375 371 L 0 371 Z M 0 4 " clip-rule="nonzero"/></clipPath><clipPath id="dc0d1fb159"><path d="M 358.460938 176.113281 L 358.460938 175.246094 C 358.460938 129.761719 340.628906 86.882812 308.246094 54.503906 C 275.863281 22.125 232.984375 4.289062 187.5 4.289062 C 142.015625 4.289062 99.132812 22.117188 66.753906 54.503906 C 34.375 86.886719 16.539062 129.765625 16.539062 175.246094 L 16.539062 176.113281 C 15.386719 176.324219 14.261719 176.632812 13.164062 177.042969 C 12.066406 177.449219 11.015625 177.949219 10.003906 178.539062 C 8.992188 179.132812 8.042969 179.804688 7.148438 180.5625 C 6.253906 181.316406 5.433594 182.144531 4.683594 183.042969 C 3.933594 183.941406 3.269531 184.898438 2.6875 185.914062 C 2.101562 186.929688 1.613281 187.988281 1.210938 189.085938 C 0.8125 190.1875 0.511719 191.3125 0.308594 192.464844 C 0.105469 193.617188 0 194.78125 0 195.949219 L 0 262.609375 C 0 263.269531 0.0351562 263.929688 0.0976562 264.585938 C 0.164062 265.242188 0.261719 265.894531 0.390625 266.542969 C 0.519531 267.191406 0.683594 267.832031 0.875 268.460938 C 1.066406 269.09375 1.289062 269.714844 1.542969 270.324219 C 1.796875 270.933594 2.078125 271.53125 2.390625 272.113281 C 2.699219 272.695312 3.039062 273.261719 3.40625 273.8125 C 3.773438 274.359375 4.167969 274.890625 4.585938 275.398438 C 5.003906 275.910156 5.449219 276.398438 5.914062 276.867188 C 6.382812 277.332031 6.871094 277.777344 7.382812 278.195312 C 7.894531 278.613281 8.421875 279.007812 8.972656 279.375 C 9.519531 279.742188 10.085938 280.082031 10.667969 280.390625 C 11.25 280.703125 11.847656 280.984375 12.457031 281.238281 C 13.066406 281.492188 13.6875 281.714844 14.320312 281.90625 C 14.953125 282.097656 15.589844 282.257812 16.238281 282.386719 C 16.886719 282.519531 17.539062 282.613281 18.195312 282.679688 C 18.855469 282.746094 19.511719 282.777344 20.171875 282.777344 L 32.636719 282.777344 L 32.636719 285.660156 C 32.636719 286.597656 32.683594 287.53125 32.777344 288.460938 C 32.871094 289.394531 33.007812 290.316406 33.191406 291.234375 C 33.375 292.152344 33.601562 293.0625 33.875 293.957031 C 34.144531 294.851562 34.460938 295.730469 34.820312 296.597656 C 35.179688 297.460938 35.578125 298.304688 36.019531 299.132812 C 36.460938 299.957031 36.941406 300.757812 37.460938 301.535156 C 37.980469 302.316406 38.539062 303.066406 39.132812 303.789062 C 39.726562 304.511719 40.355469 305.207031 41.015625 305.867188 C 41.679688 306.53125 42.371094 307.15625 43.09375 307.75 C 43.816406 308.34375 44.570312 308.902344 45.347656 309.421875 C 46.125 309.941406 46.925781 310.425781 47.753906 310.867188 C 48.578125 311.308594 49.421875 311.707031 50.285156 312.066406 C 51.152344 312.425781 52.03125 312.742188 52.925781 313.011719 C 53.824219 313.285156 54.730469 313.511719 55.648438 313.695312 C 56.566406 313.878906 57.488281 314.019531 58.421875 314.109375 C 59.351562 314.203125 60.285156 314.25 61.222656 314.25 L 72.289062 314.25 C 72.863281 314.25 73.4375 314.222656 74.007812 314.164062 C 74.578125 314.109375 75.144531 314.023438 75.707031 313.910156 C 76.269531 313.800781 76.824219 313.660156 77.375 313.492188 C 77.921875 313.324219 78.460938 313.132812 78.992188 312.914062 C 79.519531 312.691406 80.039062 312.449219 80.542969 312.175781 C 81.050781 311.90625 81.542969 311.613281 82.019531 311.292969 C 82.496094 310.976562 82.957031 310.632812 83.398438 310.269531 C 83.84375 309.90625 84.265625 309.519531 84.671875 309.117188 C 85.078125 308.710938 85.460938 308.285156 85.828125 307.84375 C 86.191406 307.398438 86.53125 306.9375 86.851562 306.460938 C 87.167969 305.984375 87.464844 305.492188 87.734375 304.988281 C 88.003906 304.484375 88.25 303.964844 88.472656 303.433594 C 88.691406 302.90625 88.882812 302.367188 89.050781 301.816406 C 89.21875 301.269531 89.359375 300.710938 89.46875 300.152344 C 89.582031 299.589844 89.667969 299.019531 89.722656 298.449219 C 89.78125 297.878906 89.808594 297.308594 89.808594 296.734375 L 89.808594 161.828125 C 89.808594 161.253906 89.78125 160.679688 89.722656 160.109375 C 89.667969 159.539062 89.582031 158.972656 89.46875 158.410156 C 89.359375 157.847656 89.21875 157.292969 89.050781 156.742188 C 88.882812 156.195312 88.691406 155.65625 88.472656 155.125 C 88.25 154.59375 88.007812 154.078125 87.734375 153.570312 C 87.464844 153.066406 87.171875 152.574219 86.851562 152.097656 C 86.53125 151.621094 86.191406 151.160156 85.828125 150.71875 C 85.464844 150.273438 85.078125 149.851562 84.671875 149.445312 C 84.265625 149.039062 83.84375 148.652344 83.398438 148.289062 C 82.957031 147.925781 82.496094 147.585938 82.019531 147.265625 C 81.542969 146.949219 81.050781 146.652344 80.546875 146.382812 C 80.039062 146.113281 79.519531 145.867188 78.992188 145.648438 C 78.460938 145.425781 77.921875 145.234375 77.375 145.066406 C 76.824219 144.902344 76.269531 144.761719 75.707031 144.648438 C 75.144531 144.535156 74.578125 144.453125 74.007812 144.394531 C 73.4375 144.339844 72.863281 144.308594 72.289062 144.308594 L 61.222656 144.308594 C 60.285156 144.3125 59.351562 144.359375 58.421875 144.449219 C 57.488281 144.542969 56.566406 144.679688 55.648438 144.863281 C 54.730469 145.046875 53.824219 145.273438 52.925781 145.546875 C 52.03125 145.820312 51.152344 146.136719 50.289062 146.492188 C 49.421875 146.851562 48.578125 147.253906 47.753906 147.695312 C 46.925781 148.136719 46.125 148.617188 45.347656 149.136719 C 44.570312 149.65625 43.820312 150.214844 43.09375 150.808594 C 42.371094 151.402344 41.679688 152.03125 41.019531 152.691406 C 40.355469 153.351562 39.726562 154.046875 39.132812 154.769531 C 38.539062 155.492188 37.984375 156.242188 37.464844 157.023438 C 36.941406 157.800781 36.460938 158.601562 36.019531 159.425781 C 35.578125 160.25 35.179688 161.097656 34.820312 161.960938 C 34.460938 162.824219 34.144531 163.707031 33.875 164.601562 C 33.601562 165.496094 33.375 166.402344 33.191406 167.320312 C 33.007812 168.238281 32.871094 169.164062 32.777344 170.09375 C 32.683594 171.027344 32.636719 171.960938 32.636719 172.894531 L 32.636719 175.78125 L 28.257812 175.78125 L 28.257812 175.246094 C 28.257812 87.441406 99.695312 16.003906 187.5 16.003906 C 275.304688 16.003906 346.742188 87.441406 346.742188 175.246094 L 346.742188 175.78125 L 342.363281 175.78125 L 342.363281 172.894531 C 342.363281 171.960938 342.316406 171.027344 342.222656 170.09375 C 342.128906 169.164062 341.992188 168.238281 341.808594 167.320312 C 341.625 166.402344 341.398438 165.496094 341.125 164.601562 C 340.851562 163.707031 340.539062 162.824219 340.179688 161.960938 C 339.820312 161.097656 339.421875 160.25 338.980469 159.425781 C 338.539062 158.601562 338.058594 157.800781 337.535156 157.019531 C 337.015625 156.242188 336.460938 155.492188 335.867188 154.769531 C 335.273438 154.046875 334.644531 153.351562 333.980469 152.691406 C 333.320312 152.027344 332.628906 151.402344 331.902344 150.808594 C 331.179688 150.214844 330.429688 149.65625 329.652344 149.136719 C 328.875 148.617188 328.070312 148.136719 327.246094 147.695312 C 326.421875 147.253906 325.578125 146.851562 324.710938 146.492188 C 323.847656 146.136719 322.96875 145.820312 322.070312 145.546875 C 321.175781 145.273438 320.269531 145.046875 319.351562 144.863281 C 318.433594 144.679688 317.507812 144.542969 316.578125 144.449219 C 315.644531 144.359375 314.710938 144.3125 313.777344 144.308594 L 302.710938 144.308594 C 302.136719 144.308594 301.5625 144.339844 300.992188 144.394531 C 300.421875 144.453125 299.855469 144.535156 299.292969 144.648438 C 298.730469 144.761719 298.175781 144.902344 297.625 145.066406 C 297.078125 145.234375 296.539062 145.425781 296.007812 145.648438 C 295.480469 145.867188 294.960938 146.113281 294.457031 146.382812 C 293.949219 146.652344 293.457031 146.949219 292.980469 147.265625 C 292.503906 147.585938 292.042969 147.925781 291.601562 148.289062 C 291.15625 148.65625 290.734375 149.039062 290.328125 149.445312 C 289.921875 149.851562 289.535156 150.273438 289.171875 150.71875 C 288.808594 151.160156 288.46875 151.621094 288.148438 152.097656 C 287.832031 152.574219 287.535156 153.066406 287.265625 153.570312 C 286.992188 154.078125 286.75 154.59375 286.527344 155.125 C 286.308594 155.65625 286.117188 156.195312 285.949219 156.742188 C 285.78125 157.292969 285.640625 157.847656 285.53125 158.410156 C 285.417969 158.972656 285.332031 159.539062 285.277344 160.109375 C 285.21875 160.679688 285.191406 161.253906 285.191406 161.828125 L 285.191406 296.734375 C 285.191406 297.308594 285.21875 297.878906 285.277344 298.449219 C 285.332031 299.019531 285.417969 299.585938 285.53125 300.148438 C 285.644531 300.710938 285.78125 301.269531 285.949219 301.816406 C 286.117188 302.367188 286.308594 302.90625 286.53125 303.433594 C 286.75 303.964844 286.996094 304.480469 287.265625 304.988281 C 287.535156 305.492188 287.832031 305.984375 288.148438 306.460938 C 288.46875 306.9375 288.808594 307.398438 289.171875 307.84375 C 289.539062 308.285156 289.921875 308.710938 290.328125 309.113281 C 290.734375 309.519531 291.160156 309.90625 291.601562 310.269531 C 292.042969 310.632812 292.503906 310.972656 292.980469 311.292969 C 293.457031 311.613281 293.949219 311.90625 294.457031 312.175781 C 294.960938 312.449219 295.480469 312.691406 296.007812 312.914062 C 296.539062 313.132812 297.078125 313.324219 297.625 313.492188 C 298.175781 313.660156 298.730469 313.800781 299.292969 313.910156 C 299.855469 314.023438 300.421875 314.109375 300.992188 314.164062 C 301.5625 314.222656 302.136719 314.25 302.710938 314.25 L 307.917969 314.25 L 307.917969 328.679688 C 307.917969 329.496094 307.835938 330.304688 307.675781 331.109375 C 307.515625 331.910156 307.28125 332.6875 306.96875 333.441406 C 306.652344 334.199219 306.269531 334.914062 305.816406 335.59375 C 305.363281 336.273438 304.84375 336.902344 304.265625 337.480469 C 303.691406 338.058594 303.0625 338.574219 302.382812 339.03125 C 301.703125 339.484375 300.984375 339.867188 300.230469 340.179688 C 299.472656 340.492188 298.695312 340.730469 297.894531 340.890625 C 297.09375 341.050781 296.28125 341.128906 295.464844 341.128906 L 254.898438 341.128906 C 254.574219 339.863281 254.144531 338.628906 253.617188 337.433594 C 253.089844 336.238281 252.464844 335.089844 251.746094 333.996094 C 251.03125 332.902344 250.226562 331.875 249.339844 330.914062 C 248.453125 329.953125 247.492188 329.070312 246.457031 328.265625 C 245.421875 327.464844 244.332031 326.75 243.179688 326.128906 C 242.027344 325.507812 240.835938 324.984375 239.597656 324.558594 C 238.359375 324.132812 237.09375 323.8125 235.804688 323.59375 C 234.515625 323.378906 233.214844 323.269531 231.90625 323.269531 L 192.128906 323.269531 C 191.351562 323.269531 190.578125 323.304688 189.804688 323.382812 C 189.03125 323.457031 188.265625 323.574219 187.5 323.722656 C 186.738281 323.875 185.988281 324.0625 185.242188 324.289062 C 184.5 324.515625 183.769531 324.777344 183.050781 325.074219 C 182.332031 325.371094 181.632812 325.703125 180.949219 326.070312 C 180.261719 326.4375 179.597656 326.835938 178.949219 327.265625 C 178.304688 327.699219 177.679688 328.160156 177.082031 328.652344 C 176.480469 329.144531 175.90625 329.667969 175.355469 330.214844 C 174.804688 330.765625 174.285156 331.339844 173.792969 331.941406 C 173.300781 332.542969 172.835938 333.164062 172.40625 333.8125 C 171.972656 334.457031 171.574219 335.121094 171.207031 335.808594 C 170.84375 336.492188 170.511719 337.195312 170.214844 337.910156 C 169.917969 338.628906 169.65625 339.359375 169.429688 340.105469 C 169.203125 340.847656 169.015625 341.601562 168.863281 342.363281 C 168.710938 343.125 168.597656 343.890625 168.523438 344.664062 C 168.445312 345.4375 168.40625 346.214844 168.40625 346.988281 C 168.40625 347.765625 168.445312 348.542969 168.523438 349.316406 C 168.597656 350.089844 168.710938 350.855469 168.863281 351.617188 C 169.015625 352.378906 169.203125 353.132812 169.429688 353.875 C 169.65625 354.621094 169.917969 355.351562 170.214844 356.066406 C 170.511719 356.785156 170.84375 357.488281 171.207031 358.171875 C 171.574219 358.859375 171.972656 359.523438 172.40625 360.167969 C 172.835938 360.816406 173.300781 361.4375 173.792969 362.039062 C 174.285156 362.640625 174.804688 363.214844 175.355469 363.765625 C 175.90625 364.3125 176.480469 364.835938 177.082031 365.328125 C 177.679688 365.820312 178.304688 366.28125 178.949219 366.714844 C 179.597656 367.144531 180.261719 367.542969 180.949219 367.910156 C 181.632812 368.277344 182.332031 368.609375 183.050781 368.90625 C 183.769531 369.203125 184.5 369.464844 185.242188 369.691406 C 185.988281 369.914062 186.738281 370.105469 187.5 370.253906 C 188.265625 370.40625 189.03125 370.519531 189.804688 370.597656 C 190.578125 370.671875 191.351562 370.710938 192.128906 370.710938 L 231.90625 370.710938 C 233.214844 370.710938 234.515625 370.601562 235.804688 370.382812 C 237.09375 370.167969 238.359375 369.847656 239.597656 369.421875 C 240.835938 368.996094 242.027344 368.472656 243.179688 367.851562 C 244.332031 367.226562 245.421875 366.515625 246.457031 365.710938 C 247.492188 364.910156 248.449219 364.027344 249.339844 363.066406 C 250.226562 362.105469 251.027344 361.078125 251.746094 359.984375 C 252.464844 358.890625 253.089844 357.742188 253.617188 356.546875 C 254.144531 355.347656 254.574219 354.117188 254.898438 352.847656 L 295.464844 352.847656 C 296.257812 352.847656 297.046875 352.808594 297.835938 352.730469 C 298.621094 352.652344 299.402344 352.535156 300.179688 352.378906 C 300.957031 352.226562 301.722656 352.035156 302.480469 351.804688 C 303.238281 351.574219 303.980469 351.304688 304.710938 351.003906 C 305.441406 350.699219 306.15625 350.363281 306.855469 349.988281 C 307.554688 349.613281 308.230469 349.207031 308.886719 348.769531 C 309.546875 348.328125 310.179688 347.859375 310.792969 347.355469 C 311.40625 346.851562 311.988281 346.324219 312.550781 345.761719 C 313.109375 345.203125 313.640625 344.617188 314.140625 344.007812 C 314.644531 343.394531 315.117188 342.757812 315.554688 342.101562 C 315.996094 341.445312 316.402344 340.765625 316.773438 340.066406 C 317.148438 339.371094 317.488281 338.65625 317.789062 337.925781 C 318.09375 337.195312 318.359375 336.449219 318.589844 335.691406 C 318.820312 334.9375 319.011719 334.167969 319.167969 333.394531 C 319.324219 332.617188 319.4375 331.835938 319.515625 331.046875 C 319.597656 330.261719 319.636719 329.472656 319.636719 328.679688 L 319.636719 313.640625 C 321.230469 313.304688 322.785156 312.835938 324.296875 312.238281 C 325.808594 311.636719 327.261719 310.910156 328.652344 310.0625 C 330.042969 309.214844 331.351562 308.253906 332.574219 307.183594 C 333.800781 306.109375 334.929688 304.941406 335.957031 303.679688 C 336.980469 302.414062 337.894531 301.074219 338.691406 299.652344 C 339.488281 298.234375 340.160156 296.757812 340.707031 295.222656 C 341.253906 293.6875 341.664062 292.117188 341.941406 290.511719 C 342.222656 288.910156 342.359375 287.292969 342.363281 285.664062 L 342.363281 282.78125 L 354.828125 282.78125 C 355.488281 282.78125 356.148438 282.75 356.804688 282.683594 C 357.460938 282.617188 358.113281 282.519531 358.761719 282.390625 C 359.410156 282.261719 360.050781 282.101562 360.679688 281.910156 C 361.3125 281.714844 361.933594 281.492188 362.542969 281.242188 C 363.15625 280.988281 363.75 280.707031 364.332031 280.394531 C 364.914062 280.082031 365.480469 279.742188 366.03125 279.375 C 366.578125 279.007812 367.109375 278.617188 367.621094 278.195312 C 368.128906 277.777344 368.617188 277.335938 369.085938 276.867188 C 369.550781 276.398438 369.996094 275.910156 370.414062 275.402344 C 370.832031 274.890625 371.226562 274.359375 371.59375 273.8125 C 371.960938 273.261719 372.300781 272.695312 372.613281 272.113281 C 372.921875 271.53125 373.207031 270.9375 373.457031 270.324219 C 373.710938 269.714844 373.933594 269.09375 374.125 268.464844 C 374.320312 267.832031 374.480469 267.191406 374.609375 266.542969 C 374.738281 265.894531 374.835938 265.242188 374.902344 264.585938 C 374.964844 263.929688 375 263.269531 375 262.609375 L 375 195.949219 C 375 194.78125 374.894531 193.617188 374.691406 192.464844 C 374.488281 191.3125 374.1875 190.1875 373.789062 189.085938 C 373.390625 187.984375 372.898438 186.929688 372.3125 185.914062 C 371.730469 184.898438 371.066406 183.941406 370.316406 183.042969 C 369.566406 182.144531 368.746094 181.316406 367.851562 180.558594 C 366.957031 179.804688 366.003906 179.128906 364.996094 178.539062 C 363.984375 177.949219 362.929688 177.449219 361.832031 177.042969 C 360.738281 176.632812 359.613281 176.324219 358.460938 176.113281 Z M 273.242188 125.808594 C 225.988281 78.773438 149.054688 78.726562 101.75 125.707031 C 101.472656 125.96875 101.175781 126.203125 100.855469 126.40625 C 100.535156 126.609375 100.199219 126.78125 99.84375 126.921875 C 99.492188 127.058594 99.128906 127.164062 98.753906 127.230469 C 98.378906 127.300781 98.003906 127.332031 97.625 127.328125 C 97.242188 127.320312 96.867188 127.28125 96.496094 127.203125 C 96.125 127.125 95.761719 127.011719 95.414062 126.863281 C 95.0625 126.714844 94.730469 126.53125 94.417969 126.320312 C 94.101562 126.105469 93.8125 125.863281 93.542969 125.59375 C 93.277344 125.324219 93.035156 125.03125 92.828125 124.714844 C 92.617188 124.398438 92.4375 124.066406 92.292969 123.714844 C 92.144531 123.363281 92.035156 123.003906 91.960938 122.628906 C 91.882812 122.257812 91.84375 121.882812 91.84375 121.503906 C 91.839844 121.121094 91.875 120.746094 91.945312 120.371094 C 92.015625 120 92.125 119.636719 92.265625 119.285156 C 92.40625 118.929688 92.582031 118.59375 92.789062 118.277344 C 92.996094 117.957031 93.230469 117.664062 93.496094 117.390625 C 96.574219 114.316406 99.792969 111.402344 103.160156 108.648438 C 106.523438 105.894531 110.015625 103.3125 113.632812 100.898438 C 117.253906 98.488281 120.980469 96.261719 124.820312 94.21875 C 128.660156 92.171875 132.589844 90.324219 136.609375 88.664062 C 140.628906 87.007812 144.722656 85.554688 148.886719 84.296875 C 153.050781 83.042969 157.265625 82 161.53125 81.160156 C 165.796875 80.320312 170.097656 79.691406 174.425781 79.277344 C 178.753906 78.859375 183.09375 78.660156 187.441406 78.671875 L 187.519531 78.671875 C 191.875 78.660156 196.214844 78.867188 200.546875 79.285156 C 204.878906 79.703125 209.179688 80.335938 213.453125 81.179688 C 217.722656 82.019531 221.941406 83.070312 226.105469 84.332031 C 230.273438 85.589844 234.367188 87.050781 238.390625 88.710938 C 242.414062 90.371094 246.34375 92.230469 250.183594 94.277344 C 254.023438 96.328125 257.753906 98.558594 261.375 100.976562 C 264.996094 103.394531 268.488281 105.984375 271.851562 108.746094 C 275.21875 111.503906 278.4375 114.425781 281.515625 117.503906 C 281.789062 117.773438 282.03125 118.070312 282.246094 118.390625 C 282.460938 118.710938 282.640625 119.046875 282.789062 119.402344 C 282.9375 119.757812 283.046875 120.125 283.125 120.5 C 283.199219 120.878906 283.238281 121.257812 283.238281 121.644531 C 283.238281 122.027344 283.203125 122.410156 283.128906 122.785156 C 283.054688 123.164062 282.941406 123.53125 282.796875 123.886719 C 282.648438 124.242188 282.46875 124.578125 282.257812 124.898438 C 282.042969 125.21875 281.800781 125.515625 281.53125 125.789062 C 281.257812 126.0625 280.964844 126.304688 280.644531 126.519531 C 280.324219 126.734375 279.988281 126.914062 279.632812 127.0625 C 279.277344 127.210938 278.910156 127.324219 278.535156 127.398438 C 278.15625 127.476562 277.777344 127.515625 277.390625 127.515625 C 277.007812 127.515625 276.625 127.480469 276.246094 127.40625 C 275.871094 127.332031 275.503906 127.21875 275.148438 127.074219 C 274.792969 126.929688 274.453125 126.75 274.132812 126.535156 C 273.8125 126.324219 273.515625 126.082031 273.242188 125.808594 Z M 247.242188 151.816406 C 214.324219 119.117188 160.722656 119.066406 127.746094 151.714844 C 127.472656 151.984375 127.175781 152.226562 126.855469 152.4375 C 126.535156 152.652344 126.195312 152.828125 125.839844 152.976562 C 125.484375 153.121094 125.117188 153.230469 124.738281 153.304688 C 124.363281 153.378906 123.980469 153.414062 123.59375 153.410156 C 123.210938 153.410156 122.828125 153.371094 122.453125 153.292969 C 122.074219 153.214844 121.710938 153.105469 121.355469 152.953125 C 121 152.804688 120.664062 152.625 120.34375 152.410156 C 120.023438 152.195312 119.730469 151.949219 119.460938 151.675781 C 119.1875 151.402344 118.945312 151.105469 118.734375 150.785156 C 118.523438 150.464844 118.34375 150.125 118.199219 149.769531 C 118.050781 149.414062 117.941406 149.046875 117.871094 148.667969 C 117.796875 148.289062 117.761719 147.910156 117.761719 147.523438 C 117.765625 147.140625 117.804688 146.757812 117.878906 146.382812 C 117.957031 146.003906 118.070312 145.636719 118.21875 145.28125 C 118.367188 144.929688 118.550781 144.589844 118.765625 144.273438 C 118.980469 143.953125 119.222656 143.660156 119.496094 143.386719 C 121.726562 141.171875 124.058594 139.066406 126.492188 137.078125 C 128.925781 135.089844 131.453125 133.226562 134.074219 131.488281 C 136.691406 129.746094 139.386719 128.140625 142.164062 126.664062 C 144.941406 125.191406 147.78125 123.855469 150.6875 122.660156 C 153.597656 121.464844 156.554688 120.414062 159.566406 119.507812 C 162.574219 118.605469 165.625 117.847656 168.707031 117.242188 C 171.792969 116.636719 174.898438 116.183594 178.03125 115.886719 C 181.160156 115.585938 184.292969 115.4375 187.4375 115.445312 L 187.515625 115.445312 C 190.664062 115.441406 193.804688 115.589844 196.9375 115.894531 C 200.070312 116.195312 203.179688 116.652344 206.269531 117.261719 C 209.355469 117.871094 212.40625 118.628906 215.421875 119.539062 C 218.433594 120.449219 221.394531 121.503906 224.304688 122.703125 C 227.214844 123.90625 230.058594 125.246094 232.835938 126.726562 C 235.613281 128.207031 238.3125 129.820312 240.929688 131.566406 C 243.550781 133.3125 246.074219 135.183594 248.511719 137.175781 C 250.945312 139.171875 253.277344 141.28125 255.503906 143.503906 C 255.777344 143.777344 256.019531 144.070312 256.234375 144.390625 C 256.453125 144.710938 256.632812 145.046875 256.78125 145.402344 C 256.929688 145.757812 257.042969 146.125 257.117188 146.5 C 257.195312 146.878906 257.234375 147.257812 257.234375 147.644531 C 257.238281 148.027344 257.199219 148.410156 257.128906 148.789062 C 257.054688 149.164062 256.941406 149.53125 256.796875 149.886719 C 256.652344 150.246094 256.472656 150.582031 256.257812 150.902344 C 256.046875 151.222656 255.804688 151.519531 255.53125 151.792969 C 255.261719 152.066406 254.964844 152.3125 254.644531 152.527344 C 254.328125 152.742188 253.988281 152.921875 253.632812 153.070312 C 253.277344 153.21875 252.914062 153.332031 252.535156 153.40625 C 252.160156 153.484375 251.777344 153.523438 251.390625 153.523438 C 251.007812 153.523438 250.625 153.488281 250.25 153.414062 C 249.871094 153.339844 249.503906 153.230469 249.148438 153.082031 C 248.792969 152.9375 248.453125 152.757812 248.132812 152.542969 C 247.8125 152.332031 247.515625 152.089844 247.242188 151.816406 Z M 221.25 177.832031 C 220.136719 176.742188 218.976562 175.707031 217.761719 174.726562 C 216.550781 173.746094 215.292969 172.828125 213.988281 171.972656 C 212.6875 171.113281 211.347656 170.324219 209.96875 169.59375 C 208.589844 168.867188 207.179688 168.210938 205.738281 167.617188 C 204.292969 167.027344 202.828125 166.507812 201.335938 166.058594 C 199.839844 165.613281 198.332031 165.234375 196.800781 164.933594 C 195.273438 164.632812 193.730469 164.40625 192.179688 164.25 C 190.628906 164.097656 189.074219 164.023438 187.515625 164.019531 C 185.957031 164.015625 184.402344 164.089844 182.851562 164.238281 C 181.296875 164.386719 179.757812 164.609375 178.226562 164.910156 C 176.695312 165.207031 175.183594 165.578125 173.691406 166.019531 C 172.195312 166.464844 170.726562 166.980469 169.285156 167.566406 C 167.839844 168.15625 166.425781 168.808594 165.046875 169.53125 C 163.664062 170.257812 162.324219 171.042969 161.019531 171.898438 C 159.714844 172.75 158.453125 173.667969 157.238281 174.640625 C 156.023438 175.617188 154.859375 176.648438 153.742188 177.738281 C 153.46875 178.007812 153.167969 178.25 152.847656 178.460938 C 152.527344 178.671875 152.1875 178.847656 151.832031 178.992188 C 151.472656 179.136719 151.105469 179.246094 150.726562 179.316406 C 150.351562 179.386719 149.96875 179.421875 149.585938 179.417969 C 149.199219 179.414062 148.820312 179.375 148.441406 179.296875 C 148.066406 179.21875 147.699219 179.105469 147.347656 178.953125 C 146.992188 178.804688 146.65625 178.621094 146.335938 178.402344 C 146.019531 178.1875 145.726562 177.941406 145.457031 177.667969 C 145.1875 177.394531 144.945312 177.09375 144.734375 176.773438 C 144.523438 176.453125 144.347656 176.113281 144.203125 175.753906 C 144.058594 175.398438 143.949219 175.03125 143.878906 174.652344 C 143.804688 174.277344 143.773438 173.894531 143.773438 173.511719 C 143.777344 173.125 143.820312 172.746094 143.898438 172.367188 C 143.976562 171.992188 144.089844 171.625 144.238281 171.269531 C 144.390625 170.917969 144.574219 170.582031 144.789062 170.261719 C 145.007812 169.945312 145.253906 169.652344 145.527344 169.382812 C 148.289062 166.652344 151.292969 164.214844 154.53125 162.074219 C 157.773438 159.929688 161.191406 158.125 164.785156 156.652344 C 168.378906 155.183594 172.085938 154.074219 175.894531 153.328125 C 179.707031 152.582031 183.558594 152.214844 187.441406 152.222656 C 187.46875 152.222656 187.492188 152.222656 187.519531 152.222656 C 191.414062 152.21875 195.269531 152.59375 199.089844 153.34375 C 202.910156 154.097656 206.617188 155.214844 210.21875 156.699219 C 213.816406 158.179688 217.238281 159.996094 220.480469 162.152344 C 223.726562 164.304688 226.726562 166.753906 229.488281 169.5 C 229.769531 169.765625 230.019531 170.0625 230.238281 170.378906 C 230.460938 170.699219 230.648438 171.035156 230.800781 171.394531 C 230.957031 171.75 231.074219 172.117188 231.15625 172.496094 C 231.234375 172.875 231.277344 173.257812 231.285156 173.648438 C 231.289062 174.035156 231.253906 174.417969 231.183594 174.800781 C 231.113281 175.183594 231.003906 175.554688 230.859375 175.914062 C 230.714844 176.273438 230.535156 176.613281 230.320312 176.9375 C 230.109375 177.261719 229.863281 177.5625 229.59375 177.839844 C 229.320312 178.117188 229.023438 178.363281 228.699219 178.578125 C 228.378906 178.796875 228.039062 178.980469 227.679688 179.128906 C 227.324219 179.277344 226.953125 179.390625 226.574219 179.464844 C 226.191406 179.542969 225.808594 179.578125 225.421875 179.578125 C 225.03125 179.578125 224.648438 179.539062 224.265625 179.464844 C 223.886719 179.386719 223.519531 179.273438 223.160156 179.125 C 222.800781 178.972656 222.460938 178.789062 222.140625 178.574219 C 221.820312 178.355469 221.523438 178.109375 221.25 177.832031 Z M 171.167969 195.742188 C 171.699219 195.210938 172.257812 194.703125 172.839844 194.226562 C 173.425781 193.746094 174.027344 193.300781 174.65625 192.878906 C 175.28125 192.460938 175.929688 192.074219 176.59375 191.71875 C 177.257812 191.363281 177.941406 191.039062 178.636719 190.753906 C 179.332031 190.464844 180.042969 190.210938 180.765625 189.992188 C 181.484375 189.773438 182.214844 189.589844 182.957031 189.441406 C 183.695312 189.292969 184.441406 189.183594 185.191406 189.109375 C 185.941406 189.035156 186.691406 189 187.445312 189 C 188.203125 189 188.953125 189.035156 189.703125 189.109375 C 190.453125 189.183594 191.199219 189.292969 191.9375 189.441406 C 192.679688 189.589844 193.410156 189.773438 194.128906 189.992188 C 194.851562 190.210938 195.5625 190.464844 196.257812 190.75 C 196.953125 191.039062 197.636719 191.363281 198.300781 191.71875 C 198.964844 192.074219 199.613281 192.460938 200.238281 192.878906 C 200.867188 193.296875 201.472656 193.746094 202.054688 194.226562 C 202.636719 194.703125 203.195312 195.210938 203.726562 195.742188 C 204.261719 196.277344 204.765625 196.832031 205.246094 197.417969 C 205.722656 198 206.171875 198.605469 206.589844 199.230469 C 207.011719 199.859375 207.398438 200.503906 207.753906 201.167969 C 208.109375 201.835938 208.429688 202.515625 208.71875 203.210938 C 209.007812 203.910156 209.261719 204.617188 209.480469 205.339844 C 209.699219 206.0625 209.882812 206.792969 210.027344 207.53125 C 210.175781 208.269531 210.285156 209.015625 210.359375 209.765625 C 210.433594 210.515625 210.472656 211.269531 210.472656 212.023438 C 210.472656 212.777344 210.433594 213.527344 210.359375 214.28125 C 210.285156 215.03125 210.175781 215.773438 210.027344 216.515625 C 209.882812 217.253906 209.699219 217.984375 209.480469 218.707031 C 209.261719 219.429688 209.007812 220.136719 208.71875 220.832031 C 208.429688 221.53125 208.109375 222.210938 207.753906 222.875 C 207.398438 223.542969 207.011719 224.1875 206.589844 224.8125 C 206.171875 225.441406 205.722656 226.046875 205.246094 226.628906 C 204.765625 227.210938 204.261719 227.769531 203.726562 228.304688 C 203.195312 228.835938 202.636719 229.34375 202.054688 229.820312 C 201.472656 230.300781 200.867188 230.746094 200.238281 231.167969 C 199.613281 231.585938 198.964844 231.972656 198.300781 232.328125 C 197.636719 232.683594 196.953125 233.003906 196.257812 233.292969 C 195.5625 233.582031 194.851562 233.835938 194.128906 234.054688 C 193.410156 234.273438 192.679688 234.457031 191.9375 234.605469 C 191.199219 234.75 190.453125 234.863281 189.703125 234.9375 C 188.953125 235.007812 188.203125 235.046875 187.445312 235.046875 C 186.691406 235.046875 185.941406 235.007812 185.191406 234.9375 C 184.441406 234.863281 183.695312 234.75 182.957031 234.605469 C 182.214844 234.457031 181.484375 234.273438 180.765625 234.054688 C 180.042969 233.835938 179.332031 233.582031 178.636719 233.292969 C 177.941406 233.003906 177.257812 232.683594 176.59375 232.328125 C 175.929688 231.972656 175.28125 231.585938 174.65625 231.164062 C 174.027344 230.746094 173.425781 230.296875 172.839844 229.820312 C 172.257812 229.339844 171.699219 228.835938 171.167969 228.300781 C 170.628906 227.773438 170.117188 227.214844 169.636719 226.636719 C 169.152344 226.054688 168.699219 225.449219 168.277344 224.824219 C 167.855469 224.199219 167.464844 223.554688 167.105469 222.890625 C 166.746094 222.222656 166.417969 221.542969 166.128906 220.847656 C 165.835938 220.148438 165.582031 219.441406 165.359375 218.71875 C 165.136719 217.996094 164.953125 217.261719 164.804688 216.523438 C 164.65625 215.78125 164.542969 215.035156 164.46875 214.285156 C 164.394531 213.53125 164.355469 212.777344 164.355469 212.023438 C 164.355469 211.265625 164.394531 210.515625 164.46875 209.761719 C 164.542969 209.011719 164.65625 208.265625 164.804688 207.523438 C 164.953125 206.78125 165.136719 206.050781 165.359375 205.328125 C 165.582031 204.605469 165.835938 203.898438 166.128906 203.199219 C 166.417969 202.503906 166.746094 201.820312 167.105469 201.15625 C 167.464844 200.492188 167.855469 199.847656 168.277344 199.222656 C 168.699219 198.59375 169.152344 197.992188 169.636719 197.410156 C 170.117188 196.828125 170.628906 196.273438 171.167969 195.742188 Z M 171.167969 195.742188 " clip-rule="evenodd"/></clipPath><linearGradient x1="256" gradientTransform="matrix(0.732422, 0, 0, 0.732422, 0.0000045, 0)" y1="506.14551" x2="256.00101" gradientUnits="userSpaceOnUse" y2="5.855478" id="afd24b53f2"><stop stop-opacity="1" stop-color="rgb(0%, 47.799683%, 71.398926%)" offset="0"/><stop stop-opacity="1" stop-color="rgb(0%, 47.903442%, 71.554565%)" offset="0.00000206609"/><stop stop-opacity="1" stop-color="rgb(0%, 48.008728%, 71.711731%)" offset="0.015625"/><stop stop-opacity="1" stop-color="rgb(0%, 48.112488%, 71.867371%)" offset="0.03125"/><stop stop-opacity="1" stop-color="rgb(0%, 48.321533%, 72.180176%)" offset="0.046875"/><stop stop-opacity="1" stop-color="rgb(0%, 48.532104%, 72.492981%)" offset="0.0625"/><stop stop-opacity="1" stop-color="rgb(0%, 48.74115%, 72.80426%)" offset="0.078125"/><stop stop-opacity="1" stop-color="rgb(0%, 48.950195%, 73.117065%)" offset="0.09375"/><stop stop-opacity="1" stop-color="rgb(0%, 49.159241%, 73.429871%)" offset="0.109375"/><stop stop-opacity="1" stop-color="rgb(0%, 49.368286%, 73.742676%)" offset="0.125"/><stop stop-opacity="1" stop-color="rgb(0%, 49.578857%, 74.055481%)" offset="0.140625"/><stop stop-opacity="1" stop-color="rgb(0%, 49.787903%, 74.36676%)" offset="0.15625"/><stop stop-opacity="1" stop-color="rgb(0%, 49.996948%, 74.679565%)" offset="0.171875"/><stop stop-opacity="1" stop-color="rgb(0%, 50.205994%, 74.992371%)" offset="0.1875"/><stop stop-opacity="1" stop-color="rgb(0%, 50.415039%, 75.305176%)" offset="0.203125"/><stop stop-opacity="1" stop-color="rgb(0%, 50.62561%, 75.617981%)" offset="0.21875"/><stop stop-opacity="1" stop-color="rgb(0%, 50.834656%, 75.92926%)" offset="0.234375"/><stop stop-opacity="1" stop-color="rgb(0%, 51.043701%, 76.242065%)" offset="0.25"/><stop stop-opacity="1" stop-color="rgb(0%, 51.252747%, 76.554871%)" offset="0.265625"/><stop stop-opacity="1" stop-color="rgb(0%, 51.463318%, 76.867676%)" offset="0.28125"/><stop stop-opacity="1" stop-color="rgb(0%, 51.672363%, 77.180481%)" offset="0.296875"/><stop stop-opacity="1" stop-color="rgb(0%, 51.881409%, 77.49176%)" offset="0.3125"/><stop stop-opacity="1" stop-color="rgb(0%, 52.090454%, 77.804565%)" offset="0.328125"/><stop stop-opacity="1" stop-color="rgb(0%, 52.2995%, 78.117371%)" offset="0.34375"/><stop stop-opacity="1" stop-color="rgb(0%, 52.510071%, 78.430176%)" offset="0.359375"/><stop stop-opacity="1" stop-color="rgb(0%, 52.719116%, 78.742981%)" offset="0.375"/><stop stop-opacity="1" stop-color="rgb(0%, 52.928162%, 79.05426%)" offset="0.390625"/><stop stop-opacity="1" stop-color="rgb(0%, 53.137207%, 79.367065%)" offset="0.40625"/><stop stop-opacity="1" stop-color="rgb(0%, 53.347778%, 79.679871%)" offset="0.421875"/><stop stop-opacity="1" stop-color="rgb(0%, 53.556824%, 79.992676%)" offset="0.4375"/><stop stop-opacity="1" stop-color="rgb(0%, 53.765869%, 80.305481%)" offset="0.453125"/><stop stop-opacity="1" stop-color="rgb(0%, 53.974915%, 80.61676%)" offset="0.46875"/><stop stop-opacity="1" stop-color="rgb(0%, 54.18396%, 80.929565%)" offset="0.484375"/><stop stop-opacity="1" stop-color="rgb(0%, 54.394531%, 81.242371%)" offset="0.5"/><stop stop-opacity="1" stop-color="rgb(0%, 54.603577%, 81.555176%)" offset="0.515625"/><stop stop-opacity="1" stop-color="rgb(0%, 54.812622%, 81.867981%)" offset="0.53125"/><stop stop-opacity="1" stop-color="rgb(0%, 55.021667%, 82.17926%)" offset="0.546875"/><stop stop-opacity="1" stop-color="rgb(0%, 55.230713%, 82.492065%)" offset="0.5625"/><stop stop-opacity="1" stop-color="rgb(0%, 55.441284%, 82.804871%)" offset="0.578125"/><stop stop-opacity="1" stop-color="rgb(0%, 55.65033%, 83.117676%)" offset="0.59375"/><stop stop-opacity="1" stop-color="rgb(0%, 55.859375%, 83.430481%)" offset="0.609375"/><stop stop-opacity="1" stop-color="rgb(0%, 56.06842%, 83.74176%)" offset="0.625"/><stop stop-opacity="1" stop-color="rgb(0%, 56.278992%, 84.054565%)" offset="0.640625"/><stop stop-opacity="1" stop-color="rgb(0%, 56.488037%, 84.367371%)" offset="0.65625"/><stop stop-opacity="1" stop-color="rgb(0%, 56.697083%, 84.680176%)" offset="0.671875"/><stop stop-opacity="1" stop-color="rgb(0%, 56.906128%, 84.992981%)" offset="0.6875"/><stop stop-opacity="1" stop-color="rgb(0%, 57.115173%, 85.30426%)" offset="0.703125"/><stop stop-opacity="1" stop-color="rgb(0%, 57.325745%, 85.617065%)" offset="0.71875"/><stop stop-opacity="1" stop-color="rgb(0%, 57.53479%, 85.929871%)" offset="0.734375"/><stop stop-opacity="1" stop-color="rgb(0%, 57.743835%, 86.242676%)" offset="0.75"/><stop stop-opacity="1" stop-color="rgb(0%, 57.952881%, 86.555481%)" offset="0.765625"/><stop stop-opacity="1" stop-color="rgb(0%, 58.163452%, 86.86676%)" offset="0.78125"/><stop stop-opacity="1" stop-color="rgb(0%, 58.372498%, 87.179565%)" offset="0.796875"/><stop stop-opacity="1" stop-color="rgb(0%, 58.581543%, 87.492371%)" offset="0.8125"/><stop stop-opacity="1" stop-color="rgb(0%, 58.790588%, 87.805176%)" offset="0.828125"/><stop stop-opacity="1" stop-color="rgb(0%, 58.999634%, 88.117981%)" offset="0.84375"/><stop stop-opacity="1" stop-color="rgb(0%, 59.210205%, 88.42926%)" offset="0.859375"/><stop stop-opacity="1" stop-color="rgb(0%, 59.41925%, 88.742065%)" offset="0.875"/><stop stop-opacity="1" stop-color="rgb(0%, 59.628296%, 89.054871%)" offset="0.890625"/><stop stop-opacity="1" stop-color="rgb(0%, 59.837341%, 89.367676%)" offset="0.90625"/><stop stop-opacity="1" stop-color="rgb(0%, 60.046387%, 89.680481%)" offset="0.921875"/><stop stop-opacity="1" stop-color="rgb(0%, 60.256958%, 89.99176%)" offset="0.9375"/><stop stop-opacity="1" stop-color="rgb(0%, 60.466003%, 90.304565%)" offset="0.953125"/><stop stop-opacity="1" stop-color="rgb(0%, 60.675049%, 90.617371%)" offset="0.96875"/><stop stop-opacity="1" stop-color="rgb(0%, 60.884094%, 90.930176%)" offset="0.984375"/><stop stop-opacity="1" stop-color="rgb(0%, 61.094666%, 91.242981%)" offset="0.999998"/><stop stop-opacity="1" stop-color="rgb(0%, 61.199951%, 91.398621%)" offset="1"/></linearGradient></defs><g clip-path="url(#c773181789)"><g clip-path="url(#dc0d1fb159)"><path fill="url(#afd24b53f2)" d="M 0 4.289062 L 0 370.710938 L 375 370.710938 L 375 4.289062 Z M 0 4.289062 " fill-rule="nonzero"/></g></g></svg>