<svg xmlns="http://www.w3.org/2000/svg" xmlns:xlink="http://www.w3.org/1999/xlink" width="500" zoomAndPan="magnify" viewBox="0 0 375 374.999991" height="500" preserveAspectRatio="xMidYMid meet" version="1.0"><defs><clipPath id="a853196ae3"><path d="M 1 0 L 374 0 L 374 375 L 1 375 Z M 1 0 " clip-rule="nonzero"/></clipPath><clipPath id="92522e8756"><path d="M 90.527344 81.484375 C 90.796875 81.757812 91.039062 82.050781 91.25 82.371094 C 91.460938 82.691406 91.640625 83.027344 91.785156 83.382812 C 91.929688 83.738281 92.039062 84.101562 92.113281 84.480469 C 92.1875 84.855469 92.222656 85.234375 92.222656 85.617188 C 92.222656 86 92.183594 86.382812 92.109375 86.757812 C 92.03125 87.132812 91.921875 87.496094 91.773438 87.851562 C 91.625 88.207031 91.445312 88.542969 91.234375 88.859375 C 91.019531 89.179688 90.777344 89.472656 90.507812 89.746094 C 90.234375 90.015625 89.941406 90.257812 89.621094 90.472656 C 89.304688 90.683594 88.96875 90.863281 88.613281 91.011719 C 88.261719 91.160156 87.894531 91.269531 87.519531 91.34375 C 87.144531 91.421875 86.765625 91.457031 86.382812 91.460938 C 85.996094 91.460938 85.617188 91.425781 85.242188 91.351562 C 84.867188 91.277344 84.5 91.167969 84.144531 91.023438 C 83.792969 90.878906 83.453125 90.699219 83.132812 90.488281 C 82.816406 90.277344 82.519531 90.035156 82.246094 89.765625 L 55.511719 63.03125 C 55.257812 62.757812 55.027344 62.460938 54.828125 62.140625 C 54.628906 61.820312 54.460938 61.488281 54.328125 61.136719 C 54.191406 60.785156 54.089844 60.425781 54.027344 60.054688 C 53.960938 59.683594 53.929688 59.308594 53.9375 58.933594 C 53.945312 58.558594 53.988281 58.183594 54.066406 57.816406 C 54.144531 57.449219 54.253906 57.089844 54.402344 56.746094 C 54.550781 56.398438 54.726562 56.070312 54.9375 55.757812 C 55.148438 55.445312 55.386719 55.15625 55.652344 54.890625 C 55.917969 54.625 56.207031 54.386719 56.519531 54.175781 C 56.832031 53.964844 57.160156 53.789062 57.507812 53.640625 C 57.851562 53.492188 58.210938 53.378906 58.578125 53.300781 C 58.945312 53.222656 59.320312 53.183594 59.695312 53.175781 C 60.070312 53.167969 60.445312 53.199219 60.816406 53.261719 C 61.183594 53.328125 61.546875 53.429688 61.898438 53.5625 C 62.25 53.699219 62.582031 53.867188 62.902344 54.066406 C 63.222656 54.265625 63.519531 54.492188 63.792969 54.75 Z M 6.878906 192.523438 C 6.492188 192.523438 6.113281 192.488281 5.734375 192.414062 C 5.355469 192.335938 4.992188 192.226562 4.636719 192.078125 C 4.28125 191.933594 3.941406 191.75 3.621094 191.539062 C 3.300781 191.324219 3.007812 191.082031 2.734375 190.808594 C 2.460938 190.535156 2.21875 190.242188 2.003906 189.921875 C 1.792969 189.601562 1.609375 189.261719 1.464844 188.90625 C 1.316406 188.550781 1.207031 188.1875 1.128906 187.808594 C 1.054688 187.429688 1.019531 187.050781 1.019531 186.664062 C 1.019531 186.28125 1.054688 185.898438 1.128906 185.523438 C 1.207031 185.144531 1.316406 184.777344 1.464844 184.421875 C 1.609375 184.066406 1.792969 183.730469 2.003906 183.410156 C 2.21875 183.089844 2.460938 182.792969 2.734375 182.523438 C 3.007812 182.25 3.300781 182.007812 3.621094 181.792969 C 3.941406 181.582031 4.28125 181.398438 4.636719 181.253906 C 4.992188 181.105469 5.355469 180.992188 5.734375 180.917969 C 6.113281 180.84375 6.492188 180.804688 6.878906 180.804688 L 44.679688 180.804688 C 45.0625 180.804688 45.445312 180.84375 45.820312 180.917969 C 46.199219 180.992188 46.566406 181.105469 46.921875 181.253906 C 47.277344 181.398438 47.613281 181.582031 47.933594 181.792969 C 48.253906 182.007812 48.550781 182.25 48.820312 182.523438 C 49.09375 182.792969 49.335938 183.089844 49.550781 183.410156 C 49.761719 183.730469 49.945312 184.066406 50.089844 184.421875 C 50.238281 184.777344 50.347656 185.144531 50.425781 185.523438 C 50.5 185.898438 50.535156 186.28125 50.539062 186.664062 C 50.535156 187.050781 50.5 187.429688 50.425781 187.808594 C 50.347656 188.1875 50.238281 188.550781 50.089844 188.90625 C 49.945312 189.261719 49.761719 189.601562 49.550781 189.921875 C 49.335938 190.242188 49.09375 190.535156 48.820312 190.808594 C 48.550781 191.082031 48.253906 191.324219 47.933594 191.539062 C 47.613281 191.75 47.277344 191.933594 46.921875 192.078125 C 46.566406 192.226562 46.199219 192.335938 45.820312 192.414062 C 45.445312 192.488281 45.0625 192.523438 44.679688 192.523438 Z M 90.78125 283.453125 C 91.054688 283.726562 91.296875 284.023438 91.511719 284.34375 C 91.726562 284.664062 91.90625 285 92.050781 285.355469 C 92.199219 285.714844 92.3125 286.078125 92.386719 286.457031 C 92.460938 286.835938 92.5 287.214844 92.5 287.601562 C 92.5 287.984375 92.460938 288.367188 92.386719 288.746094 C 92.3125 289.121094 92.199219 289.488281 92.050781 289.84375 C 91.90625 290.199219 91.726562 290.539062 91.511719 290.859375 C 91.296875 291.179688 91.054688 291.476562 90.78125 291.746094 L 64.050781 318.480469 C 63.777344 318.753906 63.480469 318.996094 63.160156 319.207031 C 62.839844 319.421875 62.503906 319.601562 62.148438 319.746094 C 61.792969 319.894531 61.425781 320.003906 61.050781 320.078125 C 60.671875 320.15625 60.292969 320.191406 59.90625 320.191406 C 59.523438 320.191406 59.140625 320.152344 58.765625 320.078125 C 58.386719 320.003906 58.019531 319.890625 57.667969 319.746094 C 57.3125 319.597656 56.972656 319.417969 56.652344 319.203125 C 56.332031 318.992188 56.039062 318.746094 55.765625 318.476562 C 55.496094 318.203125 55.25 317.90625 55.039062 317.589844 C 54.824219 317.269531 54.644531 316.929688 54.496094 316.578125 C 54.347656 316.222656 54.238281 315.855469 54.160156 315.476562 C 54.085938 315.101562 54.046875 314.71875 54.046875 314.335938 C 54.046875 313.953125 54.085938 313.570312 54.160156 313.191406 C 54.234375 312.816406 54.34375 312.449219 54.492188 312.09375 C 54.636719 311.738281 54.816406 311.402344 55.03125 311.082031 C 55.246094 310.761719 55.488281 310.464844 55.757812 310.191406 L 82.492188 283.457031 C 82.765625 283.1875 83.058594 282.945312 83.378906 282.730469 C 83.699219 282.519531 84.039062 282.339844 84.394531 282.191406 C 84.75 282.042969 85.117188 281.933594 85.492188 281.859375 C 85.871094 281.785156 86.253906 281.746094 86.636719 281.746094 C 87.023438 281.746094 87.402344 281.785156 87.78125 281.859375 C 88.15625 281.933594 88.523438 282.042969 88.878906 282.191406 C 89.234375 282.339844 89.574219 282.519531 89.894531 282.730469 C 90.214844 282.945312 90.511719 283.1875 90.78125 283.457031 Z M 292.757812 283.207031 L 319.492188 309.941406 C 319.75 310.214844 319.980469 310.511719 320.183594 310.832031 C 320.386719 311.148438 320.554688 311.484375 320.695312 311.835938 C 320.832031 312.191406 320.933594 312.550781 321 312.921875 C 321.066406 313.296875 321.097656 313.671875 321.09375 314.046875 C 321.089844 314.425781 321.046875 314.800781 320.96875 315.171875 C 320.890625 315.539062 320.78125 315.898438 320.632812 316.246094 C 320.484375 316.597656 320.308594 316.925781 320.097656 317.242188 C 319.882812 317.554688 319.644531 317.84375 319.378906 318.113281 C 319.109375 318.378906 318.820312 318.617188 318.507812 318.828125 C 318.191406 319.039062 317.863281 319.21875 317.515625 319.367188 C 317.164062 319.511719 316.804688 319.625 316.4375 319.703125 C 316.066406 319.78125 315.691406 319.820312 315.3125 319.828125 C 314.9375 319.832031 314.5625 319.800781 314.191406 319.734375 C 313.816406 319.664062 313.457031 319.5625 313.101562 319.425781 C 312.75 319.289062 312.414062 319.117188 312.097656 318.914062 C 311.777344 318.714844 311.480469 318.480469 311.207031 318.222656 L 284.472656 291.488281 C 284.210938 291.214844 283.976562 290.917969 283.773438 290.597656 C 283.566406 290.277344 283.394531 289.941406 283.257812 289.589844 C 283.117188 289.238281 283.011719 288.875 282.945312 288.5 C 282.875 288.128906 282.84375 287.753906 282.847656 287.371094 C 282.851562 286.992188 282.890625 286.617188 282.96875 286.246094 C 283.046875 285.875 283.15625 285.515625 283.304688 285.164062 C 283.453125 284.816406 283.628906 284.484375 283.84375 284.167969 C 284.054688 283.851562 284.292969 283.5625 284.5625 283.292969 C 284.832031 283.027344 285.121094 282.785156 285.4375 282.574219 C 285.75 282.363281 286.082031 282.183594 286.433594 282.035156 C 286.785156 281.890625 287.144531 281.777344 287.515625 281.699219 C 287.886719 281.621094 288.261719 281.582031 288.640625 281.578125 C 289.019531 281.574219 289.398438 281.605469 289.769531 281.675781 C 290.144531 281.742188 290.503906 281.847656 290.859375 281.988281 C 291.210938 282.125 291.546875 282.300781 291.867188 282.503906 C 292.1875 282.707031 292.484375 282.941406 292.757812 283.203125 Z M 330.320312 192.164062 C 329.9375 192.164062 329.554688 192.128906 329.179688 192.054688 C 328.800781 191.976562 328.433594 191.867188 328.078125 191.71875 C 327.722656 191.570312 327.386719 191.390625 327.066406 191.179688 C 326.746094 190.964844 326.449219 190.722656 326.179688 190.449219 C 325.90625 190.175781 325.664062 189.882812 325.449219 189.5625 C 325.238281 189.242188 325.054688 188.902344 324.910156 188.546875 C 324.761719 188.191406 324.652344 187.828125 324.574219 187.449219 C 324.5 187.070312 324.460938 186.691406 324.460938 186.304688 C 324.460938 185.921875 324.5 185.539062 324.574219 185.164062 C 324.652344 184.785156 324.761719 184.417969 324.910156 184.0625 C 325.054688 183.707031 325.238281 183.371094 325.449219 183.050781 C 325.664062 182.730469 325.90625 182.433594 326.179688 182.164062 C 326.449219 181.890625 326.746094 181.648438 327.066406 181.433594 C 327.386719 181.21875 327.722656 181.039062 328.078125 180.894531 C 328.433594 180.746094 328.800781 180.632812 329.179688 180.558594 C 329.554688 180.484375 329.9375 180.445312 330.320312 180.445312 L 368.121094 180.445312 C 368.507812 180.445312 368.886719 180.484375 369.265625 180.558594 C 369.644531 180.632812 370.007812 180.746094 370.363281 180.894531 C 370.71875 181.039062 371.058594 181.21875 371.378906 181.433594 C 371.699219 181.648438 371.992188 181.890625 372.265625 182.164062 C 372.539062 182.433594 372.78125 182.730469 372.996094 183.050781 C 373.207031 183.371094 373.386719 183.707031 373.535156 184.0625 C 373.683594 184.417969 373.792969 184.785156 373.871094 185.164062 C 373.945312 185.539062 373.980469 185.921875 373.980469 186.304688 C 373.980469 186.691406 373.945312 187.070312 373.871094 187.449219 C 373.792969 187.828125 373.683594 188.191406 373.535156 188.546875 C 373.386719 188.902344 373.207031 189.242188 372.996094 189.5625 C 372.78125 189.882812 372.539062 190.175781 372.265625 190.449219 C 371.992188 190.722656 371.699219 190.964844 371.378906 191.179688 C 371.058594 191.390625 370.71875 191.570312 370.363281 191.71875 C 370.007812 191.867188 369.644531 191.976562 369.265625 192.054688 C 368.886719 192.128906 368.507812 192.164062 368.121094 192.164062 Z M 319.238281 54.492188 C 319.511719 54.765625 319.753906 55.0625 319.96875 55.382812 C 320.179688 55.699219 320.363281 56.039062 320.507812 56.394531 C 320.65625 56.75 320.765625 57.117188 320.84375 57.496094 C 320.917969 57.871094 320.953125 58.253906 320.953125 58.636719 C 320.953125 59.023438 320.917969 59.402344 320.84375 59.78125 C 320.765625 60.160156 320.65625 60.527344 320.507812 60.882812 C 320.363281 61.238281 320.179688 61.574219 319.96875 61.894531 C 319.753906 62.214844 319.511719 62.511719 319.238281 62.785156 L 292.503906 89.511719 C 292.234375 89.785156 291.9375 90.027344 291.617188 90.242188 C 291.296875 90.457031 290.960938 90.636719 290.605469 90.785156 C 290.25 90.933594 289.882812 91.042969 289.503906 91.117188 C 289.128906 91.195312 288.746094 91.230469 288.363281 91.234375 C 287.976562 91.234375 287.59375 91.195312 287.21875 91.121094 C 286.839844 91.046875 286.472656 90.933594 286.117188 90.789062 C 285.761719 90.640625 285.421875 90.460938 285.101562 90.246094 C 284.78125 90.03125 284.488281 89.789062 284.214844 89.515625 C 283.941406 89.246094 283.699219 88.949219 283.484375 88.628906 C 283.269531 88.308594 283.089844 87.96875 282.941406 87.613281 C 282.796875 87.257812 282.683594 86.890625 282.609375 86.515625 C 282.535156 86.136719 282.496094 85.753906 282.496094 85.371094 C 282.496094 84.984375 282.535156 84.605469 282.609375 84.226562 C 282.6875 83.847656 282.796875 83.484375 282.945312 83.128906 C 283.09375 82.769531 283.273438 82.433594 283.488281 82.113281 C 283.703125 81.792969 283.945312 81.496094 284.21875 81.226562 L 310.949219 54.492188 C 311.222656 54.21875 311.519531 53.976562 311.839844 53.765625 C 312.160156 53.550781 312.496094 53.371094 312.851562 53.222656 C 313.207031 53.078125 313.574219 52.964844 313.953125 52.890625 C 314.328125 52.816406 314.710938 52.777344 315.09375 52.777344 C 315.480469 52.777344 315.859375 52.816406 316.238281 52.890625 C 316.613281 52.964844 316.980469 53.078125 317.335938 53.222656 C 317.691406 53.371094 318.03125 53.550781 318.351562 53.765625 C 318.671875 53.976562 318.964844 54.21875 319.238281 54.492188 Z M 187.324219 49.527344 C 186.9375 49.527344 186.558594 49.488281 186.179688 49.414062 C 185.804688 49.339844 185.4375 49.226562 185.082031 49.082031 C 184.726562 48.933594 184.386719 48.753906 184.066406 48.539062 C 183.75 48.324219 183.453125 48.082031 183.179688 47.808594 C 182.910156 47.539062 182.664062 47.242188 182.453125 46.921875 C 182.238281 46.601562 182.058594 46.265625 181.910156 45.910156 C 181.761719 45.554688 181.652344 45.1875 181.578125 44.808594 C 181.5 44.433594 181.464844 44.050781 181.464844 43.667969 L 181.464844 5.859375 C 181.464844 5.476562 181.5 5.09375 181.578125 4.714844 C 181.652344 4.339844 181.761719 3.972656 181.910156 3.617188 C 182.058594 3.261719 182.238281 2.925781 182.453125 2.605469 C 182.664062 2.285156 182.910156 1.988281 183.179688 1.714844 C 183.453125 1.445312 183.75 1.203125 184.066406 0.988281 C 184.386719 0.773438 184.726562 0.59375 185.082031 0.445312 C 185.4375 0.296875 185.804688 0.1875 186.179688 0.113281 C 186.558594 0.0390625 186.9375 0 187.324219 0 C 187.707031 0 188.089844 0.0390625 188.464844 0.113281 C 188.84375 0.1875 189.210938 0.296875 189.566406 0.445312 C 189.921875 0.59375 190.257812 0.773438 190.578125 0.988281 C 190.898438 1.203125 191.195312 1.445312 191.464844 1.714844 C 191.738281 1.988281 191.980469 2.285156 192.195312 2.605469 C 192.410156 2.925781 192.589844 3.261719 192.738281 3.617188 C 192.882812 3.972656 192.996094 4.339844 193.070312 4.714844 C 193.144531 5.09375 193.183594 5.476562 193.183594 5.859375 L 193.183594 43.667969 C 193.183594 44.050781 193.144531 44.433594 193.070312 44.808594 C 192.992188 45.1875 192.882812 45.554688 192.734375 45.90625 C 192.585938 46.261719 192.40625 46.601562 192.191406 46.921875 C 191.980469 47.242188 191.738281 47.535156 191.464844 47.808594 C 191.191406 48.078125 190.898438 48.324219 190.578125 48.535156 C 190.257812 48.75 189.917969 48.929688 189.566406 49.078125 C 189.210938 49.226562 188.84375 49.335938 188.464844 49.414062 C 188.089844 49.488281 187.707031 49.527344 187.324219 49.527344 Z M 220.238281 348.171875 L 217.765625 348.171875 C 217.511719 348.171875 217.253906 348.1875 217 348.199219 C 216.800781 348.179688 216.601562 348.171875 216.402344 348.171875 L 158.242188 348.171875 C 158.039062 348.171875 157.839844 348.179688 157.640625 348.199219 C 157.390625 348.1875 157.132812 348.171875 156.878906 348.171875 L 154.402344 348.171875 C 154.058594 348.171875 153.726562 348.105469 153.410156 347.972656 C 153.089844 347.839844 152.808594 347.652344 152.566406 347.410156 C 152.324219 347.164062 152.136719 346.882812 152.003906 346.566406 C 151.875 346.246094 151.808594 345.914062 151.808594 345.570312 L 151.808594 338.710938 L 222.839844 338.710938 L 222.839844 345.570312 C 222.839844 345.914062 222.773438 346.246094 222.640625 346.566406 C 222.511719 346.886719 222.324219 347.167969 222.078125 347.410156 C 221.835938 347.65625 221.554688 347.84375 221.234375 347.972656 C 220.914062 348.105469 220.582031 348.171875 220.238281 348.171875 Z M 172.191406 363.28125 L 171.085938 359.890625 L 203.554688 359.890625 L 202.457031 363.28125 Z M 222.941406 308.050781 L 151.707031 308.050781 C 151.515625 304.847656 151.015625 301.695312 150.214844 298.589844 L 224.429688 298.589844 C 223.628906 301.695312 223.132812 304.847656 222.941406 308.050781 Z M 151.8125 319.769531 L 222.839844 319.769531 L 222.839844 326.996094 L 151.808594 326.996094 L 151.808594 319.769531 Z M 76.722656 190.085938 C 76.726562 194.53125 76.992188 198.960938 77.53125 203.371094 C 78.066406 207.785156 78.863281 212.148438 79.925781 216.464844 C 80.988281 220.78125 82.304688 225.019531 83.875 229.179688 C 85.449219 233.335938 87.265625 237.382812 89.324219 241.324219 C 91.382812 245.261719 93.671875 249.0625 96.1875 252.726562 C 98.707031 256.390625 101.433594 259.890625 104.371094 263.226562 C 107.3125 266.5625 110.4375 269.707031 113.757812 272.667969 C 117.074219 275.625 120.558594 278.375 124.207031 280.914062 C 125.441406 281.746094 126.621094 282.65625 127.742188 283.636719 C 128.867188 284.621094 129.925781 285.667969 130.917969 286.78125 C 131.910156 287.890625 132.832031 289.0625 133.679688 290.289062 C 134.527344 291.515625 135.296875 292.789062 135.988281 294.113281 C 136.679688 295.433594 137.285156 296.792969 137.808594 298.191406 C 138.328125 299.585938 138.765625 301.011719 139.109375 302.460938 C 139.457031 303.914062 139.710938 305.378906 139.875 306.863281 C 140.039062 308.34375 140.113281 309.832031 140.089844 311.324219 L 140.089844 345.570312 C 140.09375 346.511719 140.183594 347.441406 140.367188 348.363281 C 140.550781 349.285156 140.824219 350.179688 141.183594 351.046875 C 141.542969 351.914062 141.984375 352.738281 142.507812 353.519531 C 143.027344 354.300781 143.621094 355.027344 144.285156 355.691406 C 144.949219 356.355469 145.671875 356.949219 146.453125 357.472656 C 147.234375 357.992188 148.058594 358.433594 148.925781 358.796875 C 149.792969 359.15625 150.6875 359.429688 151.609375 359.613281 C 152.53125 359.796875 153.460938 359.890625 154.402344 359.890625 L 156.878906 359.890625 C 157.15625 359.882812 157.425781 359.917969 157.691406 360 C 157.953125 360.082031 158.199219 360.203125 158.421875 360.363281 C 158.644531 360.527344 158.835938 360.722656 158.992188 360.949219 C 159.152344 361.171875 159.269531 361.417969 159.34375 361.683594 L 161.726562 369.003906 C 162.007812 369.875 162.417969 370.683594 162.957031 371.425781 C 163.496094 372.167969 164.132812 372.808594 164.875 373.347656 C 165.617188 373.886719 166.425781 374.296875 167.296875 374.578125 C 168.167969 374.859375 169.0625 375 169.980469 375 L 204.660156 375 C 205.578125 375 206.472656 374.859375 207.34375 374.578125 C 208.214844 374.296875 209.023438 373.886719 209.765625 373.347656 C 210.507812 372.808594 211.148438 372.167969 211.683594 371.425781 C 212.222656 370.683594 212.632812 369.875 212.914062 369.003906 L 215.296875 361.683594 C 215.375 361.417969 215.492188 361.175781 215.652344 360.949219 C 215.8125 360.722656 216 360.527344 216.226562 360.367188 C 216.449219 360.203125 216.691406 360.082031 216.957031 360 C 217.21875 359.917969 217.488281 359.882812 217.765625 359.890625 L 220.238281 359.890625 C 221.179688 359.890625 222.109375 359.796875 223.03125 359.613281 C 223.953125 359.429688 224.847656 359.15625 225.71875 358.796875 C 226.585938 358.4375 227.410156 357.996094 228.191406 357.472656 C 228.972656 356.949219 229.695312 356.355469 230.359375 355.691406 C 231.027344 355.027344 231.621094 354.304688 232.140625 353.523438 C 232.664062 352.742188 233.105469 351.917969 233.464844 351.046875 C 233.824219 350.179688 234.097656 349.285156 234.28125 348.363281 C 234.464844 347.441406 234.558594 346.511719 234.558594 345.570312 L 234.558594 311.324219 C 234.539062 309.832031 234.613281 308.34375 234.777344 306.863281 C 234.9375 305.378906 235.195312 303.914062 235.539062 302.460938 C 235.886719 301.011719 236.320312 299.585938 236.839844 298.1875 C 237.363281 296.792969 237.96875 295.433594 238.660156 294.109375 C 239.351562 292.789062 240.121094 291.515625 240.96875 290.285156 C 241.816406 289.058594 242.738281 287.890625 243.730469 286.777344 C 244.726562 285.664062 245.785156 284.617188 246.90625 283.636719 C 248.03125 282.65625 249.210938 281.746094 250.445312 280.914062 C 254.09375 278.371094 257.578125 275.625 260.894531 272.664062 C 264.210938 269.707031 267.339844 266.558594 270.277344 263.222656 C 273.214844 259.890625 275.941406 256.390625 278.457031 252.726562 C 280.976562 249.0625 283.261719 245.261719 285.320312 241.320312 C 287.378906 237.382812 289.195312 233.332031 290.765625 229.175781 C 292.339844 225.019531 293.65625 220.78125 294.714844 216.464844 C 295.777344 212.148438 296.578125 207.785156 297.113281 203.371094 C 297.648438 198.960938 297.917969 194.53125 297.917969 190.085938 C 297.917969 129.101562 248.308594 79.492188 187.324219 79.492188 C 126.339844 79.492188 76.722656 129.101562 76.722656 190.085938 Z M 187.324219 121.640625 C 186.9375 121.640625 186.558594 121.601562 186.179688 121.527344 C 185.804688 121.453125 185.4375 121.34375 185.082031 121.195312 C 184.726562 121.046875 184.386719 120.867188 184.066406 120.652344 C 183.75 120.4375 183.453125 120.195312 183.179688 119.925781 C 182.90625 119.652344 182.664062 119.355469 182.453125 119.035156 C 182.238281 118.714844 182.058594 118.378906 181.910156 118.023438 C 181.761719 117.667969 181.652344 117.300781 181.578125 116.925781 C 181.5 116.546875 181.464844 116.164062 181.464844 115.78125 C 181.464844 115.398438 181.5 115.015625 181.578125 114.636719 C 181.652344 114.261719 181.761719 113.894531 181.910156 113.539062 C 182.058594 113.183594 182.238281 112.847656 182.453125 112.527344 C 182.664062 112.207031 182.90625 111.910156 183.179688 111.636719 C 183.453125 111.367188 183.75 111.125 184.066406 110.910156 C 184.386719 110.695312 184.726562 110.515625 185.082031 110.367188 C 185.4375 110.21875 185.804688 110.109375 186.179688 110.035156 C 186.558594 109.960938 186.9375 109.921875 187.324219 109.921875 C 217.414062 109.921875 245.296875 126.636719 258.367188 152.496094 C 258.542969 152.839844 258.679688 153.199219 258.785156 153.566406 C 258.886719 153.9375 258.953125 154.316406 258.980469 154.699219 C 259.011719 155.082031 259.003906 155.464844 258.957031 155.847656 C 258.910156 156.230469 258.828125 156.605469 258.707031 156.96875 C 258.585938 157.335938 258.433594 157.6875 258.242188 158.023438 C 258.054688 158.355469 257.832031 158.671875 257.582031 158.960938 C 257.332031 159.253906 257.054688 159.519531 256.75 159.757812 C 256.449219 159.992188 256.125 160.199219 255.78125 160.371094 C 255.4375 160.546875 255.082031 160.683594 254.710938 160.789062 C 254.339844 160.890625 253.960938 160.957031 253.578125 160.988281 C 253.195312 161.015625 252.8125 161.007812 252.429688 160.960938 C 252.046875 160.914062 251.675781 160.832031 251.308594 160.710938 C 250.941406 160.589844 250.59375 160.4375 250.257812 160.246094 C 249.921875 160.058594 249.609375 159.835938 249.316406 159.585938 C 249.023438 159.335938 248.761719 159.058594 248.523438 158.757812 C 248.285156 158.453125 248.082031 158.128906 247.90625 157.785156 C 236.816406 135.828125 213.03125 121.640625 187.324219 121.640625 Z M 187.324219 121.640625 " clip-rule="evenodd"/></clipPath><linearGradient x1="256" gradientTransform="matrix(0.732422, 0, 0, 0.732422, 0.0000045, 0)" y1="511.999975" x2="256" gradientUnits="userSpaceOnUse" y2="0.0000190735" id="ea16d42c4d"><stop stop-opacity="1" stop-color="rgb(0%, 47.799683%, 71.398926%)" offset="0"/><stop stop-opacity="1" stop-color="rgb(0%, 47.903442%, 71.554565%)" offset="0.015625"/><stop stop-opacity="1" stop-color="rgb(0%, 48.112488%, 71.867371%)" offset="0.03125"/><stop stop-opacity="1" stop-color="rgb(0%, 48.321533%, 72.180176%)" offset="0.046875"/><stop stop-opacity="1" stop-color="rgb(0%, 48.532104%, 72.492981%)" offset="0.0625"/><stop stop-opacity="1" stop-color="rgb(0%, 48.74115%, 72.80426%)" offset="0.078125"/><stop stop-opacity="1" stop-color="rgb(0%, 48.950195%, 73.117065%)" offset="0.09375"/><stop stop-opacity="1" stop-color="rgb(0%, 49.159241%, 73.429871%)" offset="0.109375"/><stop stop-opacity="1" stop-color="rgb(0%, 49.368286%, 73.742676%)" offset="0.125"/><stop stop-opacity="1" stop-color="rgb(0%, 49.578857%, 74.055481%)" offset="0.140625"/><stop stop-opacity="1" stop-color="rgb(0%, 49.787903%, 74.36676%)" offset="0.15625"/><stop stop-opacity="1" stop-color="rgb(0%, 49.996948%, 74.679565%)" offset="0.171875"/><stop stop-opacity="1" stop-color="rgb(0%, 50.205994%, 74.992371%)" offset="0.1875"/><stop stop-opacity="1" stop-color="rgb(0%, 50.416565%, 75.305176%)" offset="0.203125"/><stop stop-opacity="1" stop-color="rgb(0%, 50.62561%, 75.617981%)" offset="0.21875"/><stop stop-opacity="1" stop-color="rgb(0%, 50.834656%, 75.92926%)" offset="0.234375"/><stop stop-opacity="1" stop-color="rgb(0%, 51.043701%, 76.242065%)" offset="0.25"/><stop stop-opacity="1" stop-color="rgb(0%, 51.252747%, 76.554871%)" offset="0.265625"/><stop stop-opacity="1" stop-color="rgb(0%, 51.463318%, 76.867676%)" offset="0.28125"/><stop stop-opacity="1" stop-color="rgb(0%, 51.672363%, 77.180481%)" offset="0.296875"/><stop stop-opacity="1" stop-color="rgb(0%, 51.881409%, 77.49176%)" offset="0.3125"/><stop stop-opacity="1" stop-color="rgb(0%, 52.090454%, 77.804565%)" offset="0.328125"/><stop stop-opacity="1" stop-color="rgb(0%, 52.2995%, 78.117371%)" offset="0.34375"/><stop stop-opacity="1" stop-color="rgb(0%, 52.510071%, 78.430176%)" offset="0.359375"/><stop stop-opacity="1" stop-color="rgb(0%, 52.719116%, 78.742981%)" offset="0.375"/><stop stop-opacity="1" stop-color="rgb(0%, 52.928162%, 79.05426%)" offset="0.390625"/><stop stop-opacity="1" stop-color="rgb(0%, 53.137207%, 79.367065%)" offset="0.40625"/><stop stop-opacity="1" stop-color="rgb(0%, 53.347778%, 79.679871%)" offset="0.421875"/><stop stop-opacity="1" stop-color="rgb(0%, 53.556824%, 79.992676%)" offset="0.4375"/><stop stop-opacity="1" stop-color="rgb(0%, 53.765869%, 80.305481%)" offset="0.453125"/><stop stop-opacity="1" stop-color="rgb(0%, 53.974915%, 80.61676%)" offset="0.46875"/><stop stop-opacity="1" stop-color="rgb(0%, 54.18396%, 80.929565%)" offset="0.484375"/><stop stop-opacity="1" stop-color="rgb(0%, 54.394531%, 81.242371%)" offset="0.5"/><stop stop-opacity="1" stop-color="rgb(0%, 54.603577%, 81.555176%)" offset="0.515625"/><stop stop-opacity="1" stop-color="rgb(0%, 54.812622%, 81.867981%)" offset="0.53125"/><stop stop-opacity="1" stop-color="rgb(0%, 55.021667%, 82.17926%)" offset="0.546875"/><stop stop-opacity="1" stop-color="rgb(0%, 55.230713%, 82.492065%)" offset="0.5625"/><stop stop-opacity="1" stop-color="rgb(0%, 55.441284%, 82.804871%)" offset="0.578125"/><stop stop-opacity="1" stop-color="rgb(0%, 55.65033%, 83.117676%)" offset="0.59375"/><stop stop-opacity="1" stop-color="rgb(0%, 55.859375%, 83.430481%)" offset="0.609375"/><stop stop-opacity="1" stop-color="rgb(0%, 56.06842%, 83.74176%)" offset="0.625"/><stop stop-opacity="1" stop-color="rgb(0%, 56.278992%, 84.054565%)" offset="0.640625"/><stop stop-opacity="1" stop-color="rgb(0%, 56.488037%, 84.367371%)" offset="0.65625"/><stop stop-opacity="1" stop-color="rgb(0%, 56.697083%, 84.680176%)" offset="0.671875"/><stop stop-opacity="1" stop-color="rgb(0%, 56.906128%, 84.992981%)" offset="0.6875"/><stop stop-opacity="1" stop-color="rgb(0%, 57.115173%, 85.30426%)" offset="0.703125"/><stop stop-opacity="1" stop-color="rgb(0%, 57.325745%, 85.617065%)" offset="0.71875"/><stop stop-opacity="1" stop-color="rgb(0%, 57.53479%, 85.929871%)" offset="0.734375"/><stop stop-opacity="1" stop-color="rgb(0%, 57.743835%, 86.242676%)" offset="0.75"/><stop stop-opacity="1" stop-color="rgb(0%, 57.952881%, 86.555481%)" offset="0.765625"/><stop stop-opacity="1" stop-color="rgb(0%, 58.163452%, 86.86676%)" offset="0.78125"/><stop stop-opacity="1" stop-color="rgb(0%, 58.372498%, 87.179565%)" offset="0.796875"/><stop stop-opacity="1" stop-color="rgb(0%, 58.581543%, 87.492371%)" offset="0.8125"/><stop stop-opacity="1" stop-color="rgb(0%, 58.790588%, 87.805176%)" offset="0.828125"/><stop stop-opacity="1" stop-color="rgb(0%, 58.999634%, 88.117981%)" offset="0.84375"/><stop stop-opacity="1" stop-color="rgb(0%, 59.210205%, 88.42926%)" offset="0.859375"/><stop stop-opacity="1" stop-color="rgb(0%, 59.41925%, 88.742065%)" offset="0.875"/><stop stop-opacity="1" stop-color="rgb(0%, 59.628296%, 89.054871%)" offset="0.890625"/><stop stop-opacity="1" stop-color="rgb(0%, 59.837341%, 89.367676%)" offset="0.90625"/><stop stop-opacity="1" stop-color="rgb(0%, 60.046387%, 89.680481%)" offset="0.921875"/><stop stop-opacity="1" stop-color="rgb(0%, 60.256958%, 89.99176%)" offset="0.9375"/><stop stop-opacity="1" stop-color="rgb(0%, 60.466003%, 90.304565%)" offset="0.953125"/><stop stop-opacity="1" stop-color="rgb(0%, 60.675049%, 90.617371%)" offset="0.96875"/><stop stop-opacity="1" stop-color="rgb(0%, 60.884094%, 90.930176%)" offset="0.984375"/><stop stop-opacity="1" stop-color="rgb(0%, 61.094666%, 91.242981%)" offset="1"/></linearGradient></defs><g clip-path="url(#a853196ae3)"><g clip-path="url(#92522e8756)"><path fill="url(#ea16d42c4d)" d="M 1.019531 0 L 1.019531 375 L 373.980469 375 L 373.980469 0 Z M 1.019531 0 " fill-rule="nonzero"/></g></g></svg>