<svg xmlns="http://www.w3.org/2000/svg" xmlns:xlink="http://www.w3.org/1999/xlink" width="500" zoomAndPan="magnify" viewBox="0 0 375 374.999991" height="500" preserveAspectRatio="xMidYMid meet" version="1.0"><defs><clipPath id="1c962ab757"><path d="M 64 0 L 311 0 L 311 375 L 64 375 Z M 64 0 " clip-rule="nonzero"/></clipPath><clipPath id="a106f6e966"><path d="M 195.140625 60.664062 L 210.738281 96.730469 L 249.878906 100.417969 C 250.6875 100.496094 251.46875 100.683594 252.222656 100.988281 C 252.976562 101.292969 253.671875 101.703125 254.304688 102.210938 C 254.941406 102.71875 255.488281 103.304688 255.949219 103.976562 C 256.414062 104.644531 256.769531 105.363281 257.019531 106.136719 C 257.273438 106.910156 257.40625 107.703125 257.425781 108.515625 C 257.445312 109.332031 257.347656 110.128906 257.132812 110.914062 C 256.917969 111.695312 256.59375 112.433594 256.164062 113.125 C 255.734375 113.8125 255.210938 114.425781 254.601562 114.964844 L 254.617188 114.988281 L 225.113281 140.972656 L 233.699219 179.332031 C 233.875 180.125 233.933594 180.925781 233.871094 181.734375 C 233.8125 182.542969 233.640625 183.328125 233.351562 184.085938 C 233.0625 184.84375 232.671875 185.546875 232.179688 186.1875 C 231.6875 186.832031 231.109375 187.394531 230.453125 187.871094 C 229.796875 188.34375 229.085938 188.71875 228.320312 188.984375 C 227.554688 189.253906 226.765625 189.40625 225.957031 189.445312 C 225.144531 189.480469 224.347656 189.402344 223.558594 189.207031 C 222.769531 189.011719 222.027344 188.707031 221.328125 188.292969 L 221.320312 188.3125 L 187.5 168.296875 L 153.679688 188.3125 C 152.957031 188.738281 152.191406 189.046875 151.378906 189.242188 C 150.5625 189.441406 149.738281 189.511719 148.902344 189.457031 C 148.066406 189.40625 147.257812 189.230469 146.476562 188.933594 C 145.691406 188.636719 144.96875 188.234375 144.308594 187.71875 C 143.648438 187.203125 143.078125 186.605469 142.597656 185.917969 C 142.117188 185.234375 141.746094 184.492188 141.492188 183.695312 C 141.234375 182.898438 141.097656 182.082031 141.089844 181.246094 C 141.078125 180.40625 141.1875 179.585938 141.425781 178.785156 L 149.878906 140.976562 L 120.378906 114.988281 C 119.75 114.433594 119.214844 113.796875 118.777344 113.082031 C 118.335938 112.363281 118.015625 111.597656 117.808594 110.78125 C 117.601562 109.96875 117.515625 109.140625 117.558594 108.300781 C 117.601562 107.460938 117.765625 106.644531 118.054688 105.855469 C 118.34375 105.066406 118.738281 104.335938 119.25 103.667969 C 119.757812 102.996094 120.351562 102.417969 121.035156 101.925781 C 121.71875 101.4375 122.457031 101.058594 123.253906 100.789062 C 124.050781 100.523438 124.871094 100.378906 125.710938 100.359375 L 164.257812 96.730469 L 179.859375 60.664062 C 180.179688 59.917969 180.601562 59.234375 181.125 58.613281 C 181.648438 57.988281 182.246094 57.453125 182.925781 57.007812 C 183.605469 56.5625 184.332031 56.222656 185.113281 55.988281 C 185.890625 55.757812 186.683594 55.640625 187.496094 55.640625 C 188.308594 55.640625 189.105469 55.757812 189.882812 55.988281 C 190.660156 56.222656 191.390625 56.5625 192.070312 57.007812 C 192.746094 57.453125 193.347656 57.988281 193.871094 58.613281 C 194.394531 59.234375 194.816406 59.917969 195.136719 60.664062 Z M 197.410156 107.863281 L 187.5 84.9375 L 177.753906 107.496094 C 177.476562 108.226562 177.105469 108.90625 176.636719 109.53125 C 176.171875 110.15625 175.625 110.707031 175.007812 111.183594 C 174.386719 111.65625 173.710938 112.039062 172.984375 112.324219 C 172.257812 112.609375 171.503906 112.789062 170.726562 112.863281 L 145.910156 115.195312 L 164.613281 131.683594 L 164.597656 131.699219 C 165.15625 132.191406 165.640625 132.75 166.050781 133.371094 C 166.460938 133.992188 166.78125 134.660156 167.011719 135.367188 C 167.242188 136.074219 167.375 136.800781 167.414062 137.546875 C 167.449219 138.289062 167.386719 139.023438 167.226562 139.75 L 161.769531 164.125 L 183.136719 151.476562 C 183.785156 151.082031 184.472656 150.777344 185.199219 150.570312 C 185.929688 150.359375 186.675781 150.253906 187.433594 150.246094 C 188.191406 150.242188 188.9375 150.335938 189.671875 150.535156 C 190.402344 150.730469 191.09375 151.023438 191.75 151.410156 L 213.226562 164.125 L 207.925781 140.4375 C 207.6875 139.667969 207.5625 138.878906 207.550781 138.070312 C 207.539062 137.265625 207.640625 136.472656 207.859375 135.695312 C 208.078125 134.917969 208.402344 134.191406 208.832031 133.507812 C 209.261719 132.824219 209.78125 132.214844 210.386719 131.683594 L 229.09375 115.195312 L 204.273438 112.867188 L 204.273438 112.855469 C 203.527344 112.785156 202.808594 112.617188 202.109375 112.355469 C 201.410156 112.089844 200.761719 111.738281 200.15625 111.300781 C 199.550781 110.863281 199.015625 110.351562 198.550781 109.765625 C 198.085938 109.183594 197.703125 108.550781 197.40625 107.863281 Z M 121.734375 245.335938 L 121.734375 375 L 182.023438 324.15625 C 182.394531 323.832031 182.792969 323.542969 183.21875 323.289062 C 183.640625 323.035156 184.085938 322.820312 184.546875 322.644531 C 185.007812 322.46875 185.484375 322.335938 185.96875 322.246094 C 186.457031 322.15625 186.945312 322.109375 187.441406 322.105469 C 187.933594 322.101562 188.425781 322.140625 188.914062 322.222656 C 189.398438 322.308594 189.875 322.433594 190.339844 322.601562 C 190.804688 322.769531 191.253906 322.976562 191.679688 323.222656 C 192.109375 323.472656 192.511719 323.753906 192.890625 324.074219 L 253.265625 375 L 253.265625 245.335938 C 250.746094 246.683594 248.191406 247.949219 245.597656 249.136719 C 243 250.328125 240.371094 251.433594 237.710938 252.460938 C 235.046875 253.488281 232.355469 254.433594 229.632812 255.292969 C 226.910156 256.15625 224.167969 256.933594 221.398438 257.628906 C 218.628906 258.320312 215.84375 258.929688 213.035156 259.453125 C 210.230469 259.972656 207.410156 260.410156 204.578125 260.757812 C 201.746094 261.109375 198.902344 261.371094 196.054688 261.546875 C 193.207031 261.71875 190.355469 261.808594 187.5 261.808594 C 184.644531 261.808594 181.792969 261.71875 178.945312 261.546875 C 176.097656 261.371094 173.253906 261.109375 170.421875 260.757812 C 167.589844 260.410156 164.769531 259.972656 161.964844 259.453125 C 159.160156 258.929688 156.371094 258.320312 153.601562 257.628906 C 150.832031 256.933594 148.089844 256.15625 145.367188 255.292969 C 142.648438 254.433594 139.953125 253.488281 137.292969 252.460938 C 134.628906 251.433594 132 250.328125 129.40625 249.136719 C 126.808594 247.949219 124.253906 246.683594 121.734375 245.335938 Z M 274.152344 35.886719 C 272.496094 34.234375 270.796875 32.628906 269.050781 31.070312 C 267.304688 29.515625 265.511719 28.007812 263.679688 26.554688 C 261.847656 25.101562 259.976562 23.699219 258.0625 22.351562 C 256.148438 21.003906 254.199219 19.714844 252.210938 18.476562 C 250.222656 17.242188 248.203125 16.066406 246.148438 14.945312 C 244.09375 13.824219 242.007812 12.765625 239.894531 11.765625 C 237.777344 10.765625 235.636719 9.828125 233.46875 8.949219 C 231.296875 8.070312 229.105469 7.257812 226.890625 6.503906 C 224.675781 5.753906 222.4375 5.066406 220.183594 4.441406 C 217.929688 3.816406 215.65625 3.257812 213.371094 2.765625 C 211.082031 2.269531 208.785156 1.84375 206.472656 1.480469 C 204.160156 1.117188 201.839844 0.824219 199.511719 0.59375 C 197.183594 0.363281 194.851562 0.203125 192.511719 0.105469 C 190.175781 0.0117188 187.835938 -0.015625 185.496094 0.0195312 C 183.15625 0.0585938 180.820312 0.164062 178.484375 0.335938 C 176.152344 0.507812 173.824219 0.75 171.507812 1.054688 C 169.1875 1.359375 166.878906 1.730469 164.578125 2.167969 C 162.28125 2.605469 159.996094 3.109375 157.726562 3.679688 C 155.457031 4.246094 153.203125 4.878906 150.972656 5.578125 C 148.738281 6.277344 146.527344 7.039062 144.335938 7.863281 C 142.148438 8.6875 139.980469 9.570312 137.84375 10.519531 C 135.703125 11.46875 133.59375 12.476562 131.511719 13.546875 C 129.429688 14.617188 127.382812 15.742188 125.367188 16.929688 C 123.347656 18.117188 121.367188 19.359375 119.421875 20.660156 C 117.476562 21.960938 115.570312 23.316406 113.703125 24.726562 C 111.835938 26.132812 110.007812 27.597656 108.226562 29.109375 C 106.441406 30.625 104.703125 32.1875 103.007812 33.800781 C 101.3125 35.414062 99.664062 37.074219 98.066406 38.78125 C 96.464844 40.492188 94.917969 42.242188 93.417969 44.039062 C 91.917969 45.835938 90.472656 47.675781 89.078125 49.554688 C 87.683594 51.433594 86.347656 53.351562 85.0625 55.308594 C 83.777344 57.261719 82.550781 59.253906 81.382812 61.28125 C 80.210938 63.308594 79.101562 65.367188 78.050781 67.457031 C 76.996094 69.546875 76.007812 71.664062 75.074219 73.8125 C 74.144531 75.957031 73.277344 78.128906 72.46875 80.328125 C 71.664062 82.523438 70.921875 84.742188 70.242188 86.980469 C 69.5625 89.21875 68.949219 91.476562 68.398438 93.75 C 67.847656 96.023438 67.363281 98.3125 66.945312 100.613281 C 66.527344 102.917969 66.175781 105.230469 65.890625 107.550781 C 65.601562 109.875 65.382812 112.203125 65.230469 114.539062 C 65.078125 116.871094 64.992188 119.210938 64.972656 121.550781 C 64.953125 123.890625 65 126.226562 65.117188 128.566406 C 65.230469 130.902344 65.414062 133.234375 65.660156 135.558594 C 65.910156 137.886719 66.222656 140.203125 66.605469 142.511719 C 66.988281 144.820312 67.433594 147.117188 67.945312 149.398438 C 68.460938 151.683594 69.039062 153.949219 69.679688 156.199219 C 70.324219 158.449219 71.027344 160.679688 71.800781 162.886719 C 72.570312 165.097656 73.402344 167.285156 74.296875 169.445312 C 75.195312 171.605469 76.148438 173.742188 77.167969 175.847656 C 78.1875 177.957031 79.261719 180.03125 80.398438 182.078125 C 81.535156 184.121094 82.730469 186.132812 83.984375 188.109375 C 85.234375 190.085938 86.542969 192.027344 87.90625 193.925781 C 89.269531 195.828125 90.683594 197.691406 92.152344 199.511719 C 93.625 201.332031 95.144531 203.109375 96.714844 204.84375 C 98.285156 206.578125 99.90625 208.265625 101.574219 209.90625 C 103.242188 211.546875 104.957031 213.136719 106.714844 214.679688 C 108.476562 216.222656 110.277344 217.714844 112.121094 219.152344 C 113.964844 220.59375 115.851562 221.980469 117.773438 223.308594 C 119.699219 224.640625 121.660156 225.917969 123.65625 227.136719 C 125.652344 228.355469 127.683594 229.515625 129.746094 230.621094 C 131.8125 231.722656 133.90625 232.765625 136.027344 233.75 C 138.152344 234.730469 140.300781 235.652344 142.476562 236.511719 C 144.652344 237.371094 146.851562 238.167969 149.074219 238.902344 C 151.296875 239.636719 153.535156 240.308594 155.796875 240.914062 C 158.058594 241.519531 160.332031 242.058594 162.625 242.535156 C 164.914062 243.007812 167.21875 243.417969 169.53125 243.761719 C 171.847656 244.105469 174.167969 244.382812 176.5 244.589844 C 178.828125 244.800781 181.164062 244.945312 183.503906 245.023438 C 185.839844 245.097656 188.179688 245.109375 190.519531 245.050781 C 192.859375 244.992188 195.195312 244.867188 197.527344 244.675781 C 199.859375 244.484375 202.183594 244.226562 204.5 243.902344 C 206.816406 243.578125 209.125 243.1875 211.417969 242.730469 C 213.714844 242.277344 215.992188 241.753906 218.257812 241.167969 C 220.523438 240.578125 222.769531 239.929688 224.996094 239.210938 C 227.226562 238.496094 229.429688 237.71875 231.613281 236.875 C 233.796875 236.035156 235.953125 235.128906 238.085938 234.164062 C 240.214844 233.199219 242.320312 232.171875 244.390625 231.085938 C 246.464844 230 248.503906 228.855469 250.511719 227.652344 C 252.515625 226.449219 254.488281 225.191406 256.421875 223.875 C 258.359375 222.558594 260.253906 221.1875 262.109375 219.761719 C 263.964844 218.339844 265.78125 216.863281 267.550781 215.335938 C 269.324219 213.804688 271.050781 212.226562 272.730469 210.601562 C 274.414062 208.972656 276.046875 207.300781 277.632812 205.578125 C 279.21875 203.859375 280.75 202.09375 282.234375 200.285156 C 283.71875 198.476562 285.152344 196.625 286.53125 194.734375 C 287.910156 192.84375 289.230469 190.914062 290.5 188.949219 C 291.769531 186.984375 292.976562 184.980469 294.132812 182.945312 C 295.285156 180.910156 296.378906 178.84375 297.414062 176.742188 C 298.449219 174.644531 299.421875 172.519531 300.335938 170.363281 C 301.25 168.210938 302.101562 166.03125 302.886719 163.828125 C 303.675781 161.625 304.402344 159.402344 305.0625 157.15625 C 305.722656 154.914062 306.320312 152.652344 306.851562 150.371094 C 307.382812 148.09375 307.847656 145.800781 308.246094 143.496094 C 308.648438 141.191406 308.980469 138.875 309.25 136.550781 C 309.515625 134.226562 309.714844 131.894531 309.851562 129.558594 C 309.984375 127.222656 310.050781 124.886719 310.050781 122.546875 C 310.054688 118.53125 309.863281 114.527344 309.472656 110.53125 C 309.082031 106.535156 308.496094 102.570312 307.714844 98.632812 C 306.9375 94.691406 305.964844 90.804688 304.796875 86.960938 C 303.632812 83.121094 302.285156 79.34375 300.746094 75.636719 C 299.210938 71.925781 297.496094 68.300781 295.601562 64.761719 C 293.707031 61.222656 291.644531 57.785156 289.414062 54.449219 C 287.179688 51.113281 284.789062 47.894531 282.238281 44.792969 C 279.691406 41.691406 276.996094 38.722656 274.152344 35.886719 Z M 274.152344 35.886719 " clip-rule="evenodd"/></clipPath><linearGradient x1="256" gradientTransform="matrix(0.732422, 0, 0, 0.732422, 0.0000045, 0)" y1="512.000303" x2="256.00101" gradientUnits="userSpaceOnUse" y2="-0.000330082" id="4cb51ff724"><stop stop-opacity="1" stop-color="rgb(0%, 47.799683%, 71.398926%)" offset="0"/><stop stop-opacity="1" stop-color="rgb(0%, 47.903442%, 71.554565%)" offset="0.00000128934"/><stop stop-opacity="1" stop-color="rgb(0%, 48.008728%, 71.711731%)" offset="0.015625"/><stop stop-opacity="1" stop-color="rgb(0%, 48.112488%, 71.867371%)" offset="0.03125"/><stop stop-opacity="1" stop-color="rgb(0%, 48.321533%, 72.180176%)" offset="0.046875"/><stop stop-opacity="1" stop-color="rgb(0%, 48.532104%, 72.492981%)" offset="0.0625"/><stop stop-opacity="1" stop-color="rgb(0%, 48.74115%, 72.80426%)" offset="0.078125"/><stop stop-opacity="1" stop-color="rgb(0%, 48.950195%, 73.117065%)" offset="0.09375"/><stop stop-opacity="1" stop-color="rgb(0%, 49.159241%, 73.429871%)" offset="0.109375"/><stop stop-opacity="1" stop-color="rgb(0%, 49.368286%, 73.742676%)" offset="0.125"/><stop stop-opacity="1" stop-color="rgb(0%, 49.578857%, 74.055481%)" offset="0.140625"/><stop stop-opacity="1" stop-color="rgb(0%, 49.787903%, 74.36676%)" offset="0.15625"/><stop stop-opacity="1" stop-color="rgb(0%, 49.996948%, 74.679565%)" offset="0.171875"/><stop stop-opacity="1" stop-color="rgb(0%, 50.205994%, 74.992371%)" offset="0.1875"/><stop stop-opacity="1" stop-color="rgb(0%, 50.415039%, 75.305176%)" offset="0.203125"/><stop stop-opacity="1" stop-color="rgb(0%, 50.62561%, 75.617981%)" offset="0.21875"/><stop stop-opacity="1" stop-color="rgb(0%, 50.834656%, 75.92926%)" offset="0.234375"/><stop stop-opacity="1" stop-color="rgb(0%, 51.043701%, 76.242065%)" offset="0.25"/><stop stop-opacity="1" stop-color="rgb(0%, 51.252747%, 76.554871%)" offset="0.265625"/><stop stop-opacity="1" stop-color="rgb(0%, 51.463318%, 76.867676%)" offset="0.28125"/><stop stop-opacity="1" stop-color="rgb(0%, 51.672363%, 77.180481%)" offset="0.296875"/><stop stop-opacity="1" stop-color="rgb(0%, 51.881409%, 77.49176%)" offset="0.3125"/><stop stop-opacity="1" stop-color="rgb(0%, 52.090454%, 77.804565%)" offset="0.328125"/><stop stop-opacity="1" stop-color="rgb(0%, 52.2995%, 78.117371%)" offset="0.34375"/><stop stop-opacity="1" stop-color="rgb(0%, 52.510071%, 78.430176%)" offset="0.359375"/><stop stop-opacity="1" stop-color="rgb(0%, 52.719116%, 78.742981%)" offset="0.375"/><stop stop-opacity="1" stop-color="rgb(0%, 52.928162%, 79.05426%)" offset="0.390625"/><stop stop-opacity="1" stop-color="rgb(0%, 53.137207%, 79.367065%)" offset="0.40625"/><stop stop-opacity="1" stop-color="rgb(0%, 53.347778%, 79.679871%)" offset="0.421875"/><stop stop-opacity="1" stop-color="rgb(0%, 53.556824%, 79.992676%)" offset="0.4375"/><stop stop-opacity="1" stop-color="rgb(0%, 53.765869%, 80.305481%)" offset="0.453125"/><stop stop-opacity="1" stop-color="rgb(0%, 53.974915%, 80.61676%)" offset="0.46875"/><stop stop-opacity="1" stop-color="rgb(0%, 54.18396%, 80.929565%)" offset="0.484375"/><stop stop-opacity="1" stop-color="rgb(0%, 54.394531%, 81.242371%)" offset="0.5"/><stop stop-opacity="1" stop-color="rgb(0%, 54.603577%, 81.555176%)" offset="0.515625"/><stop stop-opacity="1" stop-color="rgb(0%, 54.812622%, 81.867981%)" offset="0.53125"/><stop stop-opacity="1" stop-color="rgb(0%, 55.021667%, 82.17926%)" offset="0.546875"/><stop stop-opacity="1" stop-color="rgb(0%, 55.230713%, 82.492065%)" offset="0.5625"/><stop stop-opacity="1" stop-color="rgb(0%, 55.441284%, 82.804871%)" offset="0.578125"/><stop stop-opacity="1" stop-color="rgb(0%, 55.65033%, 83.117676%)" offset="0.59375"/><stop stop-opacity="1" stop-color="rgb(0%, 55.859375%, 83.430481%)" offset="0.609375"/><stop stop-opacity="1" stop-color="rgb(0%, 56.06842%, 83.74176%)" offset="0.625"/><stop stop-opacity="1" stop-color="rgb(0%, 56.278992%, 84.054565%)" offset="0.640625"/><stop stop-opacity="1" stop-color="rgb(0%, 56.488037%, 84.367371%)" offset="0.65625"/><stop stop-opacity="1" stop-color="rgb(0%, 56.697083%, 84.680176%)" offset="0.671875"/><stop stop-opacity="1" stop-color="rgb(0%, 56.906128%, 84.992981%)" offset="0.6875"/><stop stop-opacity="1" stop-color="rgb(0%, 57.115173%, 85.30426%)" offset="0.703125"/><stop stop-opacity="1" stop-color="rgb(0%, 57.325745%, 85.617065%)" offset="0.71875"/><stop stop-opacity="1" stop-color="rgb(0%, 57.53479%, 85.929871%)" offset="0.734375"/><stop stop-opacity="1" stop-color="rgb(0%, 57.743835%, 86.242676%)" offset="0.75"/><stop stop-opacity="1" stop-color="rgb(0%, 57.952881%, 86.555481%)" offset="0.765625"/><stop stop-opacity="1" stop-color="rgb(0%, 58.163452%, 86.86676%)" offset="0.78125"/><stop stop-opacity="1" stop-color="rgb(0%, 58.372498%, 87.179565%)" offset="0.796875"/><stop stop-opacity="1" stop-color="rgb(0%, 58.581543%, 87.492371%)" offset="0.8125"/><stop stop-opacity="1" stop-color="rgb(0%, 58.790588%, 87.805176%)" offset="0.828125"/><stop stop-opacity="1" stop-color="rgb(0%, 58.999634%, 88.117981%)" offset="0.84375"/><stop stop-opacity="1" stop-color="rgb(0%, 59.210205%, 88.42926%)" offset="0.859375"/><stop stop-opacity="1" stop-color="rgb(0%, 59.41925%, 88.742065%)" offset="0.875"/><stop stop-opacity="1" stop-color="rgb(0%, 59.628296%, 89.054871%)" offset="0.890625"/><stop stop-opacity="1" stop-color="rgb(0%, 59.837341%, 89.367676%)" offset="0.90625"/><stop stop-opacity="1" stop-color="rgb(0%, 60.046387%, 89.680481%)" offset="0.921875"/><stop stop-opacity="1" stop-color="rgb(0%, 60.256958%, 89.99176%)" offset="0.9375"/><stop stop-opacity="1" stop-color="rgb(0%, 60.466003%, 90.304565%)" offset="0.953125"/><stop stop-opacity="1" stop-color="rgb(0%, 60.675049%, 90.617371%)" offset="0.96875"/><stop stop-opacity="1" stop-color="rgb(0%, 60.884094%, 90.930176%)" offset="0.984375"/><stop stop-opacity="1" stop-color="rgb(0%, 61.094666%, 91.242981%)" offset="0.999999"/><stop stop-opacity="1" stop-color="rgb(0%, 61.199951%, 91.398621%)" offset="1"/></linearGradient></defs><g clip-path="url(#1c962ab757)"><g clip-path="url(#a106f6e966)"><path fill="url(#4cb51ff724)" d="M 64.953125 0 L 64.953125 375 L 310.054688 375 L 310.054688 0 Z M 64.953125 0 " fill-rule="nonzero"/></g></g></svg>