<svg xmlns="http://www.w3.org/2000/svg" xmlns:xlink="http://www.w3.org/1999/xlink" width="500" zoomAndPan="magnify" viewBox="0 0 375 374.999991" height="500" preserveAspectRatio="xMidYMid meet" version="1.0"><defs><clipPath id="d6984a1c12"><path d="M 0 12 L 375 12 L 375 363 L 0 363 Z M 0 12 " clip-rule="nonzero"/></clipPath><clipPath id="1540276290"><path d="M 261.355469 12.617188 L 240.832031 46.199219 L 220.324219 12.617188 Z M 208.5625 18.671875 L 188.035156 52.238281 L 229.078125 52.238281 Z M 249.433594 65.425781 L 296.796875 65.425781 L 273.113281 195.0625 L 310.605469 65.425781 L 358.132812 65.425781 L 273.113281 195.0625 Z M 252.589844 52.242188 L 293.640625 52.242188 L 273.113281 18.675781 Z M 235.617188 65.425781 L 188.089844 65.425781 L 273.113281 195.0625 L 235.621094 65.425781 Z M 337.660156 18.675781 L 358.199219 52.242188 L 317.148438 52.242188 Z M 305.394531 46.203125 L 284.867188 12.617188 L 325.90625 12.617188 L 305.398438 46.199219 Z M 225.789062 357.738281 C 214.917969 362.628906 204.023438 364.265625 192.804688 359.652344 L 99.683594 321.347656 C 93.445312 318.78125 86.816406 316.6875 80.082031 316.019531 L 77.507812 315.765625 L 67.34375 244.15625 L 70.15625 243.398438 C 73.75 242.460938 77.390625 241.75 81.070312 241.261719 C 86.476562 240.5 91.945312 240.03125 97.394531 239.703125 C 105.03125 239.242188 112.703125 239.058594 120.351562 239.023438 C 130.617188 238.972656 140.890625 239.1875 151.148438 239.550781 L 151.492188 239.5625 L 151.824219 239.644531 C 168.828125 243.851562 184.058594 254.121094 195.40625 267.332031 C 196.347656 268.425781 197.46875 269.273438 198.78125 269.878906 C 200.089844 270.480469 201.46875 270.78125 202.910156 270.78125 L 251.585938 270.78125 C 257.054688 270.78125 260.871094 275.925781 260.871094 281.121094 C 260.871094 286.3125 257.058594 291.464844 251.585938 291.464844 L 154.707031 291.464844 C 154.058594 291.464844 153.414062 291.527344 152.777344 291.652344 C 152.140625 291.78125 151.523438 291.96875 150.921875 292.214844 C 150.324219 292.464844 149.753906 292.769531 149.214844 293.128906 C 148.671875 293.492188 148.175781 293.902344 147.714844 294.359375 C 147.253906 294.820312 146.847656 295.316406 146.484375 295.859375 C 146.125 296.398438 145.820312 296.96875 145.570312 297.566406 C 145.324219 298.167969 145.136719 298.785156 145.007812 299.421875 C 144.882812 300.058594 144.820312 300.703125 144.820312 301.351562 C 144.820312 302 144.882812 302.644531 145.007812 303.28125 C 145.136719 303.917969 145.324219 304.535156 145.570312 305.136719 C 145.820312 305.734375 146.125 306.304688 146.484375 306.84375 C 146.847656 307.382812 147.253906 307.882812 147.714844 308.34375 C 148.175781 308.800781 148.671875 309.210938 149.214844 309.574219 C 149.753906 309.933594 150.324219 310.238281 150.921875 310.484375 C 151.523438 310.734375 152.140625 310.921875 152.777344 311.050781 C 153.414062 311.175781 154.058594 311.238281 154.707031 311.238281 L 251.585938 311.238281 C 253.855469 311.226562 256.085938 310.953125 258.289062 310.410156 C 260.492188 309.871094 262.597656 309.078125 264.613281 308.039062 C 266.625 307 268.492188 305.738281 270.207031 304.257812 C 271.921875 302.773438 273.441406 301.113281 274.761719 299.269531 L 275.457031 298.320312 L 342.238281 281.132812 C 342.554688 281.050781 342.871094 280.953125 343.179688 280.839844 C 350.015625 278.335938 357.773438 279.3125 364.261719 282.378906 C 366.914062 283.597656 369.3125 285.203125 371.453125 287.1875 L 374.996094 290.570312 Z M 14.148438 344.261719 L 0 244.515625 L 46.488281 237.917969 L 60.632812 337.671875 Z M 14.148438 344.261719 " clip-rule="evenodd"/></clipPath><linearGradient x1="255.999995" gradientTransform="matrix(0.732422, 0, 0, 0.732422, 0.0000045, 0)" y1="497.345545" x2="256.00101" gradientUnits="userSpaceOnUse" y2="17.228458" id="5e7e7d162e"><stop stop-opacity="1" stop-color="rgb(0%, 47.799683%, 71.398926%)" offset="0"/><stop stop-opacity="1" stop-color="rgb(0%, 47.868347%, 71.50116%)" offset="0.00000225542"/><stop stop-opacity="1" stop-color="rgb(0%, 47.937012%, 71.604919%)" offset="0.015625"/><stop stop-opacity="1" stop-color="rgb(0%, 48.042297%, 71.762085%)" offset="0.03125"/><stop stop-opacity="1" stop-color="rgb(0%, 48.252869%, 72.076416%)" offset="0.046875"/><stop stop-opacity="1" stop-color="rgb(0%, 48.46344%, 72.390747%)" offset="0.0625"/><stop stop-opacity="1" stop-color="rgb(0%, 48.674011%, 72.705078%)" offset="0.078125"/><stop stop-opacity="1" stop-color="rgb(0%, 48.884583%, 73.019409%)" offset="0.09375"/><stop stop-opacity="1" stop-color="rgb(0%, 49.095154%, 73.33374%)" offset="0.109375"/><stop stop-opacity="1" stop-color="rgb(0%, 49.305725%, 73.648071%)" offset="0.125"/><stop stop-opacity="1" stop-color="rgb(0%, 49.516296%, 73.962402%)" offset="0.140625"/><stop stop-opacity="1" stop-color="rgb(0%, 49.726868%, 74.276733%)" offset="0.15625"/><stop stop-opacity="1" stop-color="rgb(0%, 49.937439%, 74.589539%)" offset="0.171875"/><stop stop-opacity="1" stop-color="rgb(0%, 50.14801%, 74.90387%)" offset="0.1875"/><stop stop-opacity="1" stop-color="rgb(0%, 50.358582%, 75.218201%)" offset="0.203125"/><stop stop-opacity="1" stop-color="rgb(0%, 50.569153%, 75.532532%)" offset="0.21875"/><stop stop-opacity="1" stop-color="rgb(0%, 50.779724%, 75.846863%)" offset="0.234375"/><stop stop-opacity="1" stop-color="rgb(0%, 50.990295%, 76.161194%)" offset="0.25"/><stop stop-opacity="1" stop-color="rgb(0%, 51.200867%, 76.475525%)" offset="0.265625"/><stop stop-opacity="1" stop-color="rgb(0%, 51.411438%, 76.789856%)" offset="0.28125"/><stop stop-opacity="1" stop-color="rgb(0%, 51.622009%, 77.104187%)" offset="0.296875"/><stop stop-opacity="1" stop-color="rgb(0%, 51.831055%, 77.418518%)" offset="0.3125"/><stop stop-opacity="1" stop-color="rgb(0%, 52.041626%, 77.732849%)" offset="0.328125"/><stop stop-opacity="1" stop-color="rgb(0%, 52.252197%, 78.045654%)" offset="0.34375"/><stop stop-opacity="1" stop-color="rgb(0%, 52.462769%, 78.359985%)" offset="0.359375"/><stop stop-opacity="1" stop-color="rgb(0%, 52.67334%, 78.674316%)" offset="0.375"/><stop stop-opacity="1" stop-color="rgb(0%, 52.883911%, 78.988647%)" offset="0.390625"/><stop stop-opacity="1" stop-color="rgb(0%, 53.094482%, 79.302979%)" offset="0.40625"/><stop stop-opacity="1" stop-color="rgb(0%, 53.305054%, 79.61731%)" offset="0.421875"/><stop stop-opacity="1" stop-color="rgb(0%, 53.515625%, 79.931641%)" offset="0.4375"/><stop stop-opacity="1" stop-color="rgb(0%, 53.726196%, 80.245972%)" offset="0.453125"/><stop stop-opacity="1" stop-color="rgb(0%, 53.936768%, 80.560303%)" offset="0.46875"/><stop stop-opacity="1" stop-color="rgb(0%, 54.147339%, 80.874634%)" offset="0.484375"/><stop stop-opacity="1" stop-color="rgb(0%, 54.35791%, 81.187439%)" offset="0.5"/><stop stop-opacity="1" stop-color="rgb(0%, 54.568481%, 81.50177%)" offset="0.515625"/><stop stop-opacity="1" stop-color="rgb(0%, 54.779053%, 81.816101%)" offset="0.53125"/><stop stop-opacity="1" stop-color="rgb(0%, 54.989624%, 82.130432%)" offset="0.546875"/><stop stop-opacity="1" stop-color="rgb(0%, 55.200195%, 82.444763%)" offset="0.5625"/><stop stop-opacity="1" stop-color="rgb(0%, 55.410767%, 82.759094%)" offset="0.578125"/><stop stop-opacity="1" stop-color="rgb(0%, 55.621338%, 83.073425%)" offset="0.59375"/><stop stop-opacity="1" stop-color="rgb(0%, 55.831909%, 83.387756%)" offset="0.609375"/><stop stop-opacity="1" stop-color="rgb(0%, 56.04248%, 83.702087%)" offset="0.625"/><stop stop-opacity="1" stop-color="rgb(0%, 56.253052%, 84.016418%)" offset="0.640625"/><stop stop-opacity="1" stop-color="rgb(0%, 56.462097%, 84.33075%)" offset="0.65625"/><stop stop-opacity="1" stop-color="rgb(0%, 56.672668%, 84.643555%)" offset="0.671875"/><stop stop-opacity="1" stop-color="rgb(0%, 56.88324%, 84.957886%)" offset="0.6875"/><stop stop-opacity="1" stop-color="rgb(0%, 57.093811%, 85.272217%)" offset="0.703125"/><stop stop-opacity="1" stop-color="rgb(0%, 57.304382%, 85.586548%)" offset="0.71875"/><stop stop-opacity="1" stop-color="rgb(0%, 57.514954%, 85.900879%)" offset="0.734375"/><stop stop-opacity="1" stop-color="rgb(0%, 57.725525%, 86.21521%)" offset="0.75"/><stop stop-opacity="1" stop-color="rgb(0%, 57.936096%, 86.529541%)" offset="0.765625"/><stop stop-opacity="1" stop-color="rgb(0%, 58.146667%, 86.843872%)" offset="0.78125"/><stop stop-opacity="1" stop-color="rgb(0%, 58.357239%, 87.158203%)" offset="0.796875"/><stop stop-opacity="1" stop-color="rgb(0%, 58.56781%, 87.472534%)" offset="0.8125"/><stop stop-opacity="1" stop-color="rgb(0%, 58.778381%, 87.785339%)" offset="0.828125"/><stop stop-opacity="1" stop-color="rgb(0%, 58.988953%, 88.09967%)" offset="0.84375"/><stop stop-opacity="1" stop-color="rgb(0%, 59.199524%, 88.414001%)" offset="0.859375"/><stop stop-opacity="1" stop-color="rgb(0%, 59.410095%, 88.728333%)" offset="0.875"/><stop stop-opacity="1" stop-color="rgb(0%, 59.620667%, 89.042664%)" offset="0.890625"/><stop stop-opacity="1" stop-color="rgb(0%, 59.831238%, 89.356995%)" offset="0.90625"/><stop stop-opacity="1" stop-color="rgb(0%, 60.041809%, 89.671326%)" offset="0.921875"/><stop stop-opacity="1" stop-color="rgb(0%, 60.25238%, 89.985657%)" offset="0.9375"/><stop stop-opacity="1" stop-color="rgb(0%, 60.462952%, 90.299988%)" offset="0.953125"/><stop stop-opacity="1" stop-color="rgb(0%, 60.673523%, 90.614319%)" offset="0.96875"/><stop stop-opacity="1" stop-color="rgb(0%, 60.884094%, 90.927124%)" offset="0.984375"/><stop stop-opacity="1" stop-color="rgb(0%, 61.094666%, 91.241455%)" offset="0.999998"/><stop stop-opacity="1" stop-color="rgb(0%, 61.199951%, 91.398621%)" offset="1"/></linearGradient></defs><g clip-path="url(#d6984a1c12)"><g clip-path="url(#1540276290)"><path fill="url(#5e7e7d162e)" d="M 0 12.617188 L 0 364.265625 L 374.996094 364.265625 L 374.996094 12.617188 Z M 0 12.617188 " fill-rule="nonzero"/></g></g></svg>