<svg xmlns="http://www.w3.org/2000/svg" xmlns:xlink="http://www.w3.org/1999/xlink" width="500" zoomAndPan="magnify" viewBox="0 0 375 374.999991" height="500" preserveAspectRatio="xMidYMid meet" version="1.0"><defs><clipPath id="dd6b9df13c"><path d="M 0 33 L 375 33 L 375 342 L 0 342 Z M 0 33 " clip-rule="nonzero"/></clipPath><clipPath id="07ce3910c1"><path d="M 187.5 178.117188 C 188.226562 178.117188 188.949219 178.082031 189.671875 178.011719 C 190.394531 177.941406 191.109375 177.832031 191.820312 177.691406 C 192.53125 177.550781 193.234375 177.375 193.929688 177.164062 C 194.625 176.953125 195.304688 176.707031 195.976562 176.429688 C 196.648438 176.152344 197.300781 175.84375 197.941406 175.5 C 198.582031 175.160156 199.203125 174.785156 199.804688 174.382812 C 200.410156 173.980469 200.992188 173.546875 201.550781 173.089844 C 202.113281 172.628906 202.648438 172.140625 203.164062 171.628906 C 203.675781 171.113281 204.164062 170.578125 204.621094 170.015625 C 205.082031 169.457031 205.515625 168.875 205.917969 168.269531 C 206.320312 167.667969 206.691406 167.046875 207.035156 166.40625 C 207.375 165.765625 207.6875 165.113281 207.964844 164.441406 C 208.242188 163.769531 208.484375 163.089844 208.695312 162.394531 C 208.90625 161.699219 209.082031 160.996094 209.222656 160.285156 C 209.367188 159.574219 209.472656 158.855469 209.542969 158.136719 C 209.613281 157.414062 209.648438 156.691406 209.648438 155.964844 C 209.648438 155.238281 209.613281 154.515625 209.542969 153.792969 C 209.472656 153.070312 209.367188 152.355469 209.222656 151.644531 C 209.082031 150.929688 208.90625 150.226562 208.695312 149.535156 C 208.484375 148.839844 208.242188 148.15625 207.964844 147.488281 C 207.6875 146.816406 207.375 146.160156 207.035156 145.523438 C 206.691406 144.882812 206.320312 144.261719 205.917969 143.65625 C 205.511719 143.054688 205.082031 142.472656 204.621094 141.910156 C 204.160156 141.351562 203.675781 140.8125 203.160156 140.300781 C 202.648438 139.789062 202.113281 139.300781 201.550781 138.839844 C 200.992188 138.378906 200.410156 137.949219 199.804688 137.546875 C 199.203125 137.144531 198.582031 136.769531 197.941406 136.429688 C 197.300781 136.085938 196.644531 135.777344 195.976562 135.5 C 195.304688 135.222656 194.621094 134.976562 193.929688 134.765625 C 193.234375 134.554688 192.53125 134.378906 191.820312 134.238281 C 191.109375 134.097656 190.390625 133.988281 189.667969 133.917969 C 188.949219 133.847656 188.222656 133.8125 187.5 133.8125 C 186.773438 133.8125 186.050781 133.847656 185.328125 133.917969 C 184.605469 133.988281 183.886719 134.097656 183.175781 134.238281 C 182.464844 134.378906 181.761719 134.554688 181.066406 134.765625 C 180.375 134.976562 179.691406 135.21875 179.019531 135.496094 C 178.351562 135.773438 177.695312 136.085938 177.054688 136.425781 C 176.417969 136.769531 175.792969 137.140625 175.191406 137.542969 C 174.589844 137.945312 174.007812 138.378906 173.445312 138.839844 C 172.882812 139.300781 172.347656 139.785156 171.835938 140.296875 C 171.320312 140.8125 170.835938 141.347656 170.375 141.910156 C 169.914062 142.46875 169.480469 143.050781 169.078125 143.65625 C 168.675781 144.257812 168.304688 144.878906 167.960938 145.519531 C 167.621094 146.160156 167.308594 146.8125 167.03125 147.484375 C 166.753906 148.15625 166.511719 148.835938 166.300781 149.53125 C 166.089844 150.226562 165.914062 150.929688 165.769531 151.640625 C 165.628906 152.351562 165.523438 153.066406 165.453125 153.789062 C 165.378906 154.511719 165.34375 155.234375 165.34375 155.960938 C 165.34375 156.6875 165.382812 157.410156 165.453125 158.132812 C 165.523438 158.855469 165.632812 159.570312 165.773438 160.28125 C 165.914062 160.992188 166.09375 161.695312 166.304688 162.390625 C 166.515625 163.085938 166.757812 163.765625 167.035156 164.4375 C 167.3125 165.105469 167.625 165.761719 167.964844 166.402344 C 168.308594 167.042969 168.679688 167.664062 169.085938 168.265625 C 169.488281 168.867188 169.917969 169.449219 170.378906 170.011719 C 170.839844 170.570312 171.328125 171.109375 171.839844 171.621094 C 172.351562 172.136719 172.890625 172.621094 173.449219 173.082031 C 174.011719 173.542969 174.59375 173.972656 175.195312 174.378906 C 175.796875 174.78125 176.421875 175.152344 177.058594 175.496094 C 177.699219 175.835938 178.355469 176.148438 179.023438 176.425781 C 179.695312 176.703125 180.375 176.949219 181.070312 177.160156 C 181.765625 177.371094 182.46875 177.546875 183.179688 177.6875 C 183.890625 177.832031 184.605469 177.9375 185.328125 178.007812 C 186.050781 178.082031 186.773438 178.117188 187.5 178.117188 Z M 187.5 121.308594 C 188.636719 121.308594 189.765625 121.367188 190.898438 121.476562 C 192.027344 121.589844 193.148438 121.753906 194.261719 121.976562 C 195.375 122.199219 196.472656 122.472656 197.558594 122.804688 C 198.644531 123.132812 199.714844 123.515625 200.761719 123.949219 C 201.808594 124.382812 202.835938 124.867188 203.835938 125.402344 C 204.835938 125.9375 205.808594 126.523438 206.753906 127.152344 C 207.695312 127.78125 208.605469 128.457031 209.484375 129.179688 C 210.359375 129.898438 211.203125 130.660156 212.003906 131.460938 C 212.804688 132.265625 213.566406 133.105469 214.289062 133.984375 C 215.007812 134.859375 215.683594 135.769531 216.3125 136.714844 C 216.945312 137.65625 217.527344 138.628906 218.0625 139.632812 C 218.597656 140.632812 219.082031 141.65625 219.515625 142.707031 C 219.949219 143.753906 220.332031 144.820312 220.660156 145.90625 C 220.988281 146.996094 221.265625 148.09375 221.488281 149.207031 C 221.707031 150.320312 221.875 151.441406 221.984375 152.570312 C 222.097656 153.699219 222.152344 154.832031 222.152344 155.96875 C 222.152344 157.101562 222.097656 158.234375 221.984375 159.363281 C 221.875 160.496094 221.707031 161.617188 221.484375 162.730469 C 221.261719 163.84375 220.988281 164.941406 220.660156 166.027344 C 220.328125 167.113281 219.945312 168.179688 219.511719 169.230469 C 219.078125 170.277344 218.59375 171.304688 218.058594 172.304688 C 217.523438 173.304688 216.941406 174.277344 216.308594 175.21875 C 215.679688 176.164062 215.003906 177.074219 214.285156 177.953125 C 213.5625 178.828125 212.800781 179.667969 212 180.472656 C 211.195312 181.273438 210.355469 182.035156 209.480469 182.753906 C 208.601562 183.476562 207.691406 184.152344 206.746094 184.78125 C 205.804688 185.410156 204.832031 185.992188 203.832031 186.527344 C 202.828125 187.0625 201.804688 187.546875 200.753906 187.984375 C 199.707031 188.417969 198.640625 188.796875 197.554688 189.128906 C 196.46875 189.457031 195.367188 189.734375 194.253906 189.953125 C 193.140625 190.175781 192.019531 190.339844 190.890625 190.453125 C 189.761719 190.5625 188.628906 190.621094 187.492188 190.621094 C 186.359375 190.621094 185.226562 190.5625 184.097656 190.453125 C 182.96875 190.339844 181.847656 190.175781 180.734375 189.953125 C 179.621094 189.730469 178.519531 189.457031 177.433594 189.125 C 176.347656 188.796875 175.28125 188.414062 174.230469 187.980469 C 173.183594 187.546875 172.160156 187.0625 171.15625 186.527344 C 170.15625 185.992188 169.183594 185.40625 168.242188 184.777344 C 167.296875 184.144531 166.386719 183.472656 165.507812 182.75 C 164.632812 182.03125 163.792969 181.269531 162.988281 180.464844 C 162.1875 179.664062 161.425781 178.824219 160.707031 177.945312 C 159.988281 177.070312 159.3125 176.160156 158.679688 175.214844 C 158.050781 174.269531 157.46875 173.296875 156.933594 172.296875 C 156.398438 171.296875 155.914062 170.273438 155.480469 169.222656 C 155.042969 168.175781 154.664062 167.105469 154.332031 166.019531 C 154.003906 164.933594 153.730469 163.835938 153.507812 162.722656 C 153.285156 161.609375 153.121094 160.488281 153.007812 159.359375 C 152.898438 158.226562 152.84375 157.097656 152.84375 155.960938 C 152.84375 154.828125 152.902344 153.695312 153.011719 152.566406 C 153.125 151.4375 153.292969 150.316406 153.515625 149.203125 C 153.738281 148.089844 154.015625 146.992188 154.34375 145.90625 C 154.675781 144.820312 155.058594 143.753906 155.492188 142.707031 C 155.925781 141.65625 156.414062 140.632812 156.949219 139.632812 C 157.484375 138.632812 158.066406 137.660156 158.695312 136.71875 C 159.328125 135.773438 160.003906 134.863281 160.722656 133.988281 C 161.441406 133.113281 162.203125 132.273438 163.007812 131.46875 C 163.808594 130.667969 164.648438 129.90625 165.527344 129.1875 C 166.402344 128.464844 167.3125 127.792969 168.257812 127.160156 C 169.199219 126.53125 170.171875 125.949219 171.171875 125.414062 C 172.171875 124.878906 173.195312 124.390625 174.246094 123.957031 C 175.292969 123.523438 176.359375 123.140625 177.445312 122.808594 C 178.53125 122.480469 179.628906 122.203125 180.742188 121.980469 C 181.855469 121.761719 182.976562 121.59375 184.105469 121.480469 C 185.234375 121.367188 186.367188 121.3125 187.5 121.308594 Z M 259.378906 161.914062 L 244.386719 164.164062 C 243.773438 164.253906 243.191406 164.433594 242.632812 164.699219 C 242.074219 164.964844 241.566406 165.304688 241.105469 165.71875 C 240.648438 166.136719 240.261719 166.609375 239.945312 167.140625 C 239.628906 167.671875 239.394531 168.234375 239.246094 168.835938 C 237.96875 174.011719 235.949219 178.882812 233.195312 183.449219 C 232.875 183.980469 232.636719 184.542969 232.484375 185.144531 C 232.335938 185.742188 232.273438 186.351562 232.304688 186.96875 C 232.332031 187.589844 232.453125 188.1875 232.660156 188.773438 C 232.867188 189.355469 233.15625 189.894531 233.527344 190.390625 L 242.535156 202.570312 L 234.113281 210.992188 L 221.933594 201.984375 C 221.433594 201.617188 220.894531 201.332031 220.3125 201.125 C 219.726562 200.917969 219.128906 200.800781 218.507812 200.769531 C 217.890625 200.742188 217.28125 200.804688 216.683594 200.957031 C 216.085938 201.109375 215.519531 201.34375 214.988281 201.664062 C 210.425781 204.417969 205.554688 206.433594 200.378906 207.714844 C 199.777344 207.863281 199.210938 208.09375 198.679688 208.414062 C 198.148438 208.730469 197.671875 209.117188 197.257812 209.574219 C 196.839844 210.03125 196.5 210.539062 196.234375 211.097656 C 195.96875 211.65625 195.789062 212.242188 195.699219 212.855469 L 193.457031 227.839844 L 181.546875 227.839844 L 179.304688 212.855469 C 179.210938 212.242188 179.03125 211.660156 178.765625 211.097656 C 178.503906 210.539062 178.160156 210.03125 177.746094 209.574219 C 177.328125 209.117188 176.855469 208.730469 176.324219 208.414062 C 175.792969 208.09375 175.226562 207.863281 174.625 207.714844 C 169.449219 206.433594 164.578125 204.417969 160.011719 201.664062 C 159.480469 201.34375 158.917969 201.105469 158.316406 200.953125 C 157.71875 200.800781 157.109375 200.738281 156.492188 200.769531 C 155.875 200.796875 155.273438 200.914062 154.691406 201.121094 C 154.105469 201.328125 153.566406 201.617188 153.070312 201.984375 L 140.890625 210.992188 L 132.464844 202.570312 L 141.476562 190.390625 C 141.84375 189.894531 142.132812 189.355469 142.34375 188.773438 C 142.550781 188.1875 142.667969 187.589844 142.699219 186.96875 C 142.726562 186.351562 142.667969 185.742188 142.515625 185.144531 C 142.363281 184.542969 142.128906 183.980469 141.808594 183.449219 C 139.050781 178.882812 137.035156 174.011719 135.757812 168.835938 C 135.605469 168.234375 135.375 167.671875 135.058594 167.140625 C 134.738281 166.609375 134.351562 166.136719 133.894531 165.71875 C 133.4375 165.304688 132.929688 164.964844 132.371094 164.699219 C 131.8125 164.433594 131.226562 164.253906 130.613281 164.164062 L 115.621094 161.914062 L 115.621094 150.015625 L 130.613281 147.773438 C 131.226562 147.679688 131.8125 147.5 132.371094 147.234375 C 132.929688 146.972656 133.4375 146.628906 133.894531 146.214844 C 134.351562 145.800781 134.738281 145.324219 135.054688 144.796875 C 135.375 144.265625 135.605469 143.699219 135.757812 143.101562 C 137.035156 137.921875 139.054688 133.046875 141.808594 128.480469 C 142.128906 127.949219 142.363281 127.386719 142.515625 126.785156 C 142.667969 126.183594 142.726562 125.574219 142.699219 124.957031 C 142.667969 124.339844 142.550781 123.738281 142.34375 123.15625 C 142.132812 122.570312 141.84375 122.03125 141.476562 121.535156 L 132.464844 109.355469 L 140.890625 100.929688 L 153.070312 109.941406 C 153.566406 110.308594 154.105469 110.597656 154.6875 110.804688 C 155.273438 111.011719 155.871094 111.132812 156.488281 111.160156 C 157.109375 111.191406 157.71875 111.128906 158.316406 110.976562 C 158.917969 110.828125 159.480469 110.589844 160.011719 110.273438 C 164.578125 107.515625 169.449219 105.496094 174.625 104.214844 C 175.226562 104.066406 175.792969 103.832031 176.324219 103.515625 C 176.855469 103.199219 177.328125 102.8125 177.746094 102.355469 C 178.160156 101.894531 178.5 101.386719 178.765625 100.828125 C 179.03125 100.269531 179.210938 99.683594 179.304688 99.074219 L 181.546875 84.085938 L 193.453125 84.085938 L 195.695312 99.074219 C 195.789062 99.683594 195.964844 100.269531 196.230469 100.828125 C 196.496094 101.386719 196.839844 101.898438 197.253906 102.355469 C 197.671875 102.8125 198.144531 103.199219 198.675781 103.515625 C 199.207031 103.832031 199.773438 104.066406 200.375 104.214844 C 205.550781 105.496094 210.421875 107.515625 214.988281 110.273438 C 215.515625 110.589844 216.082031 110.828125 216.683594 110.976562 C 217.28125 111.128906 217.890625 111.191406 218.507812 111.160156 C 219.125 111.132812 219.726562 111.011719 220.308594 110.804688 C 220.890625 110.597656 221.433594 110.308594 221.929688 109.941406 L 234.109375 100.929688 L 242.53125 109.355469 L 233.523438 121.535156 C 233.152344 122.03125 232.863281 122.570312 232.65625 123.15625 C 232.449219 123.738281 232.328125 124.339844 232.300781 124.957031 C 232.269531 125.574219 232.332031 126.183594 232.484375 126.785156 C 232.636719 127.386719 232.871094 127.949219 233.191406 128.480469 C 235.949219 133.046875 237.964844 137.921875 239.242188 143.101562 C 239.390625 143.699219 239.625 144.265625 239.941406 144.796875 C 240.261719 145.324219 240.648438 145.800781 241.105469 146.214844 C 241.5625 146.628906 242.070312 146.972656 242.628906 147.234375 C 243.1875 147.5 243.773438 147.679688 244.382812 147.773438 L 259.378906 150.015625 Z M 266.542969 138.441406 C 266.910156 138.496094 267.269531 138.582031 267.625 138.703125 C 267.976562 138.820312 268.316406 138.96875 268.640625 139.148438 C 268.964844 139.328125 269.273438 139.535156 269.5625 139.769531 C 269.851562 140.003906 270.117188 140.261719 270.359375 140.542969 C 270.601562 140.828125 270.816406 141.128906 271.007812 141.449219 C 271.195312 141.769531 271.355469 142.101562 271.484375 142.453125 C 271.613281 142.800781 271.710938 143.15625 271.777344 143.523438 C 271.84375 143.890625 271.875 144.257812 271.875 144.628906 L 271.875 167.304688 C 271.875 167.675781 271.839844 168.046875 271.777344 168.410156 C 271.710938 168.777344 271.613281 169.132812 271.484375 169.484375 C 271.355469 169.832031 271.195312 170.164062 271.003906 170.484375 C 270.816406 170.804688 270.601562 171.105469 270.359375 171.386719 C 270.117188 171.667969 269.847656 171.925781 269.5625 172.160156 C 269.273438 172.394531 268.964844 172.601562 268.640625 172.78125 C 268.3125 172.960938 267.976562 173.109375 267.621094 173.226562 C 267.269531 173.347656 266.910156 173.433594 266.542969 173.488281 L 250.230469 175.925781 C 249.101562 179.472656 247.683594 182.898438 245.96875 186.203125 L 255.789062 199.472656 C 256.011719 199.769531 256.203125 200.085938 256.367188 200.417969 C 256.53125 200.75 256.664062 201.097656 256.765625 201.453125 C 256.867188 201.808594 256.9375 202.171875 256.976562 202.542969 C 257.015625 202.910156 257.019531 203.28125 256.992188 203.652344 C 256.960938 204.019531 256.902344 204.386719 256.808594 204.746094 C 256.714844 205.105469 256.59375 205.453125 256.4375 205.789062 C 256.28125 206.125 256.097656 206.445312 255.886719 206.75 C 255.675781 207.054688 255.4375 207.339844 255.175781 207.601562 L 239.140625 223.640625 C 238.878906 223.902344 238.59375 224.140625 238.289062 224.351562 C 237.984375 224.566406 237.664062 224.75 237.328125 224.902344 C 236.988281 225.058594 236.640625 225.183594 236.28125 225.277344 C 235.921875 225.367188 235.558594 225.429688 235.1875 225.457031 C 234.816406 225.484375 234.449219 225.480469 234.078125 225.441406 C 233.707031 225.402344 233.347656 225.332031 232.988281 225.230469 C 232.632812 225.125 232.289062 224.992188 231.953125 224.828125 C 231.621094 224.664062 231.304688 224.46875 231.007812 224.25 L 217.742188 214.429688 C 214.4375 216.140625 211.011719 217.5625 207.464844 218.691406 L 205.019531 235.011719 C 204.964844 235.378906 204.878906 235.734375 204.757812 236.085938 C 204.640625 236.4375 204.492188 236.777344 204.3125 237.101562 C 204.132812 237.425781 203.925781 237.734375 203.691406 238.023438 C 203.457031 238.3125 203.199219 238.574219 202.921875 238.816406 C 202.640625 239.0625 202.339844 239.277344 202.019531 239.464844 C 201.699219 239.652344 201.367188 239.8125 201.019531 239.941406 C 200.671875 240.070312 200.3125 240.167969 199.949219 240.234375 C 199.582031 240.300781 199.214844 240.335938 198.84375 240.335938 L 176.15625 240.335938 C 175.785156 240.335938 175.414062 240.300781 175.050781 240.234375 C 174.683594 240.167969 174.328125 240.070312 173.980469 239.941406 C 173.632812 239.8125 173.296875 239.652344 172.980469 239.464844 C 172.660156 239.277344 172.359375 239.0625 172.078125 238.820312 C 171.796875 238.574219 171.539062 238.3125 171.304688 238.023438 C 171.070312 237.734375 170.863281 237.429688 170.683594 237.101562 C 170.503906 236.777344 170.355469 236.441406 170.234375 236.089844 C 170.117188 235.738281 170.027344 235.378906 169.972656 235.011719 L 167.539062 218.691406 C 163.992188 217.566406 160.5625 216.144531 157.257812 214.429688 L 143.996094 224.25 C 143.695312 224.472656 143.378906 224.664062 143.046875 224.828125 C 142.710938 224.992188 142.367188 225.125 142.011719 225.230469 C 141.652344 225.332031 141.289062 225.402344 140.921875 225.441406 C 140.550781 225.480469 140.179688 225.484375 139.8125 225.457031 C 139.441406 225.429688 139.074219 225.367188 138.714844 225.277344 C 138.355469 225.183594 138.007812 225.058594 137.667969 224.90625 C 137.332031 224.75 137.011719 224.566406 136.703125 224.355469 C 136.398438 224.140625 136.117188 223.90625 135.851562 223.640625 L 119.824219 207.601562 C 119.5625 207.339844 119.324219 207.054688 119.113281 206.753906 C 118.898438 206.449219 118.714844 206.128906 118.558594 205.789062 C 118.40625 205.453125 118.28125 205.105469 118.1875 204.746094 C 118.09375 204.386719 118.035156 204.023438 118.007812 203.652344 C 117.976562 203.28125 117.984375 202.914062 118.019531 202.542969 C 118.058594 202.175781 118.128906 201.8125 118.230469 201.453125 C 118.332031 201.097656 118.464844 200.753906 118.628906 200.417969 C 118.792969 200.085938 118.984375 199.769531 119.207031 199.472656 L 129.027344 186.203125 C 127.3125 182.902344 125.894531 179.476562 124.773438 175.925781 L 108.457031 173.488281 C 108.089844 173.433594 107.726562 173.347656 107.375 173.226562 C 107.023438 173.109375 106.683594 172.960938 106.359375 172.78125 C 106.035156 172.601562 105.726562 172.394531 105.4375 172.160156 C 105.148438 171.925781 104.882812 171.667969 104.640625 171.386719 C 104.398438 171.105469 104.179688 170.804688 103.992188 170.484375 C 103.804688 170.164062 103.644531 169.832031 103.515625 169.484375 C 103.386719 169.136719 103.289062 168.777344 103.222656 168.410156 C 103.15625 168.046875 103.125 167.675781 103.125 167.304688 L 103.125 144.628906 C 103.125 144.257812 103.15625 143.890625 103.222656 143.523438 C 103.285156 143.15625 103.382812 142.800781 103.511719 142.453125 C 103.640625 142.101562 103.800781 141.769531 103.992188 141.449219 C 104.179688 141.128906 104.394531 140.828125 104.636719 140.542969 C 104.882812 140.261719 105.148438 140.003906 105.4375 139.769531 C 105.726562 139.535156 106.03125 139.328125 106.359375 139.148438 C 106.683594 138.96875 107.023438 138.820312 107.375 138.703125 C 107.726562 138.582031 108.085938 138.496094 108.457031 138.441406 L 124.773438 136.003906 C 125.898438 132.453125 127.316406 129.027344 129.027344 125.71875 L 119.207031 112.453125 C 118.984375 112.15625 118.792969 111.839844 118.628906 111.507812 C 118.464844 111.171875 118.332031 110.828125 118.230469 110.472656 C 118.128906 110.113281 118.058594 109.753906 118.019531 109.382812 C 117.980469 109.015625 117.976562 108.644531 118.003906 108.273438 C 118.035156 107.902344 118.09375 107.539062 118.1875 107.179688 C 118.28125 106.820312 118.40625 106.472656 118.558594 106.136719 C 118.714844 105.796875 118.898438 105.476562 119.109375 105.171875 C 119.324219 104.871094 119.5625 104.585938 119.824219 104.324219 L 135.851562 88.285156 C 136.117188 88.019531 136.398438 87.785156 136.707031 87.574219 C 137.011719 87.359375 137.332031 87.175781 137.671875 87.023438 C 138.007812 86.867188 138.355469 86.746094 138.71875 86.652344 C 139.078125 86.558594 139.441406 86.5 139.8125 86.472656 C 140.183594 86.445312 140.554688 86.453125 140.921875 86.492188 C 141.292969 86.527344 141.65625 86.601562 142.011719 86.703125 C 142.371094 86.808594 142.714844 86.941406 143.046875 87.105469 C 143.378906 87.273438 143.695312 87.464844 143.996094 87.6875 L 157.257812 97.5 C 160.5625 95.785156 163.992188 94.367188 167.539062 93.238281 L 169.972656 76.921875 C 170.027344 76.554688 170.113281 76.195312 170.234375 75.84375 C 170.351562 75.492188 170.503906 75.152344 170.683594 74.828125 C 170.863281 74.503906 171.070312 74.195312 171.300781 73.90625 C 171.535156 73.621094 171.792969 73.355469 172.074219 73.113281 C 172.355469 72.871094 172.65625 72.652344 172.976562 72.464844 C 173.296875 72.277344 173.628906 72.117188 173.980469 71.988281 C 174.328125 71.859375 174.683594 71.761719 175.050781 71.695312 C 175.414062 71.628906 175.78125 71.59375 176.152344 71.59375 L 198.84375 71.59375 C 199.214844 71.59375 199.582031 71.628906 199.945312 71.695312 C 200.3125 71.761719 200.667969 71.859375 201.015625 71.988281 C 201.363281 72.117188 201.699219 72.277344 202.015625 72.464844 C 202.335938 72.652344 202.636719 72.871094 202.917969 73.113281 C 203.199219 73.355469 203.457031 73.621094 203.691406 73.90625 C 203.921875 74.195312 204.128906 74.503906 204.308594 74.828125 C 204.488281 75.152344 204.636719 75.492188 204.757812 75.84375 C 204.875 76.195312 204.960938 76.554688 205.015625 76.921875 L 207.460938 93.238281 C 211.007812 94.367188 214.433594 95.789062 217.738281 97.5 L 231.003906 87.6875 C 231.304688 87.464844 231.617188 87.273438 231.953125 87.105469 C 232.285156 86.941406 232.628906 86.808594 232.984375 86.703125 C 233.339844 86.601562 233.703125 86.53125 234.074219 86.492188 C 234.441406 86.453125 234.8125 86.445312 235.183594 86.472656 C 235.554688 86.5 235.917969 86.558594 236.277344 86.652344 C 236.636719 86.746094 236.988281 86.867188 237.324219 87.023438 C 237.660156 87.175781 237.984375 87.359375 238.289062 87.574219 C 238.59375 87.785156 238.875 88.019531 239.140625 88.285156 L 255.171875 104.328125 C 255.433594 104.589844 255.671875 104.871094 255.886719 105.175781 C 256.097656 105.480469 256.28125 105.800781 256.4375 106.140625 C 256.589844 106.476562 256.714844 106.824219 256.808594 107.183594 C 256.902344 107.542969 256.960938 107.90625 256.992188 108.277344 C 257.019531 108.648438 257.011719 109.019531 256.976562 109.386719 C 256.9375 109.757812 256.867188 110.121094 256.765625 110.476562 C 256.660156 110.832031 256.527344 111.175781 256.363281 111.511719 C 256.199219 111.84375 256.007812 112.160156 255.789062 112.457031 L 245.96875 125.722656 C 247.679688 129.03125 249.097656 132.457031 250.226562 136.007812 L 266.539062 138.445312 Z M 375 316.289062 L 375 293.261719 C 374.996094 292.964844 374.9375 292.675781 374.820312 292.402344 C 374.703125 292.128906 374.542969 291.886719 374.332031 291.675781 C 374.121094 291.464844 373.878906 291.300781 373.601562 291.183594 C 373.328125 291.070312 373.042969 291.007812 372.742188 291.003906 L 280.789062 291.003906 L 264.484375 319.238281 C 264.207031 319.714844 263.878906 320.144531 263.488281 320.535156 C 263.101562 320.921875 262.671875 321.25 262.195312 321.527344 C 261.71875 321.800781 261.21875 322.007812 260.6875 322.148438 C 260.160156 322.289062 259.621094 322.359375 259.070312 322.359375 L 115.925781 322.359375 C 115.378906 322.359375 114.839844 322.289062 114.308594 322.148438 C 113.78125 322.007812 113.277344 321.796875 112.804688 321.523438 C 112.328125 321.25 111.894531 320.921875 111.507812 320.53125 C 111.121094 320.144531 110.789062 319.714844 110.511719 319.238281 L 94.210938 291.003906 L 2.253906 291.003906 C 1.957031 291.011719 1.671875 291.070312 1.394531 291.1875 C 1.121094 291.300781 0.878906 291.464844 0.667969 291.675781 C 0.457031 291.886719 0.296875 292.128906 0.179688 292.402344 C 0.0625 292.679688 0.00390625 292.964844 0 293.261719 L 0 316.289062 C 0 317.117188 0.0429688 317.941406 0.125 318.765625 C 0.207031 319.589844 0.328125 320.410156 0.488281 321.222656 C 0.652344 322.035156 0.851562 322.835938 1.09375 323.628906 C 1.335938 324.421875 1.613281 325.199219 1.929688 325.964844 C 2.246094 326.730469 2.601562 327.476562 2.992188 328.207031 C 3.382812 328.9375 3.808594 329.648438 4.269531 330.335938 C 4.730469 331.023438 5.222656 331.6875 5.746094 332.328125 C 6.273438 332.96875 6.828125 333.582031 7.414062 334.167969 C 8 334.753906 8.613281 335.308594 9.25 335.835938 C 9.890625 336.359375 10.554688 336.851562 11.246094 337.3125 C 11.933594 337.773438 12.640625 338.199219 13.371094 338.589844 C 14.101562 338.980469 14.851562 339.335938 15.613281 339.652344 C 16.378906 339.96875 17.15625 340.25 17.949219 340.488281 C 18.742188 340.730469 19.546875 340.933594 20.355469 341.09375 C 21.167969 341.257812 21.988281 341.378906 22.8125 341.460938 C 23.636719 341.542969 24.460938 341.585938 25.289062 341.585938 L 349.710938 341.585938 C 350.539062 341.585938 351.363281 341.542969 352.1875 341.460938 C 353.011719 341.378906 353.832031 341.257812 354.644531 341.09375 C 355.453125 340.933594 356.257812 340.730469 357.050781 340.488281 C 357.839844 340.25 358.621094 339.96875 359.386719 339.652344 C 360.148438 339.335938 360.898438 338.980469 361.628906 338.589844 C 362.359375 338.199219 363.066406 337.773438 363.753906 337.3125 C 364.445312 336.851562 365.109375 336.359375 365.746094 335.832031 C 366.386719 335.308594 367 334.753906 367.585938 334.167969 C 368.171875 333.582031 368.726562 332.96875 369.253906 332.328125 C 369.777344 331.6875 370.269531 331.023438 370.730469 330.335938 C 371.191406 329.648438 371.617188 328.9375 372.007812 328.207031 C 372.398438 327.476562 372.75 326.730469 373.070312 325.964844 C 373.386719 325.199219 373.664062 324.421875 373.90625 323.628906 C 374.144531 322.835938 374.347656 322.035156 374.511719 321.222656 C 374.671875 320.410156 374.792969 319.589844 374.875 318.765625 C 374.957031 317.941406 375 317.117188 375 316.289062 Z M 266.351562 291.003906 L 255.460938 309.863281 L 119.539062 309.863281 L 108.648438 291.003906 Z M 17.109375 57.75 C 17.109375 56.957031 17.148438 56.160156 17.230469 55.367188 C 17.308594 54.574219 17.425781 53.789062 17.582031 53.007812 C 17.738281 52.226562 17.929688 51.457031 18.160156 50.695312 C 18.394531 49.933594 18.660156 49.183594 18.96875 48.449219 C 19.273438 47.710938 19.613281 46.992188 19.988281 46.292969 C 20.363281 45.589844 20.773438 44.90625 21.214844 44.246094 C 21.65625 43.582031 22.132812 42.945312 22.636719 42.328125 C 23.140625 41.714844 23.675781 41.125 24.238281 40.5625 C 24.800781 39.996094 25.390625 39.464844 26.003906 38.957031 C 26.621094 38.453125 27.257812 37.980469 27.921875 37.535156 C 28.582031 37.09375 29.265625 36.683594 29.96875 36.308594 C 30.667969 35.933594 31.386719 35.59375 32.125 35.285156 C 32.859375 34.980469 33.609375 34.710938 34.371094 34.480469 C 35.132812 34.25 35.902344 34.054688 36.683594 33.898438 C 37.464844 33.742188 38.25 33.625 39.042969 33.546875 C 39.835938 33.464844 40.628906 33.425781 41.425781 33.425781 L 333.574219 33.425781 C 334.371094 33.425781 335.164062 33.464844 335.957031 33.546875 C 336.75 33.625 337.535156 33.742188 338.316406 33.898438 C 339.097656 34.054688 339.867188 34.25 340.628906 34.480469 C 341.390625 34.710938 342.140625 34.980469 342.875 35.285156 C 343.613281 35.59375 344.332031 35.933594 345.03125 36.308594 C 345.734375 36.683594 346.417969 37.09375 347.078125 37.535156 C 347.742188 37.980469 348.378906 38.453125 348.996094 38.957031 C 349.609375 39.464844 350.199219 39.996094 350.761719 40.5625 C 351.324219 41.125 351.859375 41.714844 352.363281 42.328125 C 352.867188 42.945312 353.34375 43.582031 353.785156 44.246094 C 354.226562 44.90625 354.636719 45.589844 355.011719 46.292969 C 355.386719 46.992188 355.726562 47.710938 356.03125 48.449219 C 356.339844 49.183594 356.605469 49.933594 356.839844 50.695312 C 357.070312 51.457031 357.261719 52.226562 357.417969 53.007812 C 357.574219 53.789062 357.691406 54.574219 357.769531 55.367188 C 357.851562 56.160156 357.890625 56.957031 357.890625 57.75 L 357.890625 278.503906 L 17.109375 278.503906 Z M 17.109375 57.75 " clip-rule="evenodd"/></clipPath><linearGradient x1="255.99899" gradientTransform="matrix(0.732422, 0, 0, 0.732422, 0.0000045, 0)" y1="466.37959" x2="256" gradientUnits="userSpaceOnUse" y2="45.636388" id="e06bdb47c2"><stop stop-opacity="1" stop-color="rgb(0%, 47.799683%, 71.398926%)" offset="0"/><stop stop-opacity="1" stop-color="rgb(0%, 47.903442%, 71.554565%)" offset="0.00000292117"/><stop stop-opacity="1" stop-color="rgb(0%, 48.008728%, 71.711731%)" offset="0.015625"/><stop stop-opacity="1" stop-color="rgb(0%, 48.112488%, 71.867371%)" offset="0.03125"/><stop stop-opacity="1" stop-color="rgb(0%, 48.321533%, 72.180176%)" offset="0.046875"/><stop stop-opacity="1" stop-color="rgb(0%, 48.532104%, 72.492981%)" offset="0.0625"/><stop stop-opacity="1" stop-color="rgb(0%, 48.74115%, 72.80426%)" offset="0.078125"/><stop stop-opacity="1" stop-color="rgb(0%, 48.950195%, 73.117065%)" offset="0.09375"/><stop stop-opacity="1" stop-color="rgb(0%, 49.159241%, 73.429871%)" offset="0.109375"/><stop stop-opacity="1" stop-color="rgb(0%, 49.368286%, 73.742676%)" offset="0.125"/><stop stop-opacity="1" stop-color="rgb(0%, 49.578857%, 74.055481%)" offset="0.140625"/><stop stop-opacity="1" stop-color="rgb(0%, 49.787903%, 74.36676%)" offset="0.15625"/><stop stop-opacity="1" stop-color="rgb(0%, 49.996948%, 74.679565%)" offset="0.171875"/><stop stop-opacity="1" stop-color="rgb(0%, 50.205994%, 74.992371%)" offset="0.1875"/><stop stop-opacity="1" stop-color="rgb(0%, 50.416565%, 75.305176%)" offset="0.203125"/><stop stop-opacity="1" stop-color="rgb(0%, 50.62561%, 75.617981%)" offset="0.21875"/><stop stop-opacity="1" stop-color="rgb(0%, 50.834656%, 75.92926%)" offset="0.234375"/><stop stop-opacity="1" stop-color="rgb(0%, 51.043701%, 76.242065%)" offset="0.25"/><stop stop-opacity="1" stop-color="rgb(0%, 51.252747%, 76.554871%)" offset="0.265625"/><stop stop-opacity="1" stop-color="rgb(0%, 51.463318%, 76.867676%)" offset="0.28125"/><stop stop-opacity="1" stop-color="rgb(0%, 51.672363%, 77.180481%)" offset="0.296875"/><stop stop-opacity="1" stop-color="rgb(0%, 51.881409%, 77.49176%)" offset="0.3125"/><stop stop-opacity="1" stop-color="rgb(0%, 52.090454%, 77.804565%)" offset="0.328125"/><stop stop-opacity="1" stop-color="rgb(0%, 52.2995%, 78.117371%)" offset="0.34375"/><stop stop-opacity="1" stop-color="rgb(0%, 52.510071%, 78.430176%)" offset="0.359375"/><stop stop-opacity="1" stop-color="rgb(0%, 52.719116%, 78.742981%)" offset="0.375"/><stop stop-opacity="1" stop-color="rgb(0%, 52.928162%, 79.05426%)" offset="0.390625"/><stop stop-opacity="1" stop-color="rgb(0%, 53.137207%, 79.367065%)" offset="0.40625"/><stop stop-opacity="1" stop-color="rgb(0%, 53.347778%, 79.679871%)" offset="0.421875"/><stop stop-opacity="1" stop-color="rgb(0%, 53.556824%, 79.992676%)" offset="0.4375"/><stop stop-opacity="1" stop-color="rgb(0%, 53.765869%, 80.305481%)" offset="0.453125"/><stop stop-opacity="1" stop-color="rgb(0%, 53.974915%, 80.61676%)" offset="0.46875"/><stop stop-opacity="1" stop-color="rgb(0%, 54.18396%, 80.929565%)" offset="0.484375"/><stop stop-opacity="1" stop-color="rgb(0%, 54.394531%, 81.242371%)" offset="0.5"/><stop stop-opacity="1" stop-color="rgb(0%, 54.603577%, 81.555176%)" offset="0.515625"/><stop stop-opacity="1" stop-color="rgb(0%, 54.812622%, 81.867981%)" offset="0.53125"/><stop stop-opacity="1" stop-color="rgb(0%, 55.021667%, 82.17926%)" offset="0.546875"/><stop stop-opacity="1" stop-color="rgb(0%, 55.230713%, 82.492065%)" offset="0.5625"/><stop stop-opacity="1" stop-color="rgb(0%, 55.441284%, 82.804871%)" offset="0.578125"/><stop stop-opacity="1" stop-color="rgb(0%, 55.65033%, 83.117676%)" offset="0.59375"/><stop stop-opacity="1" stop-color="rgb(0%, 55.859375%, 83.430481%)" offset="0.609375"/><stop stop-opacity="1" stop-color="rgb(0%, 56.06842%, 83.74176%)" offset="0.625"/><stop stop-opacity="1" stop-color="rgb(0%, 56.278992%, 84.054565%)" offset="0.640625"/><stop stop-opacity="1" stop-color="rgb(0%, 56.488037%, 84.367371%)" offset="0.65625"/><stop stop-opacity="1" stop-color="rgb(0%, 56.697083%, 84.680176%)" offset="0.671875"/><stop stop-opacity="1" stop-color="rgb(0%, 56.906128%, 84.992981%)" offset="0.6875"/><stop stop-opacity="1" stop-color="rgb(0%, 57.115173%, 85.30426%)" offset="0.703125"/><stop stop-opacity="1" stop-color="rgb(0%, 57.325745%, 85.617065%)" offset="0.71875"/><stop stop-opacity="1" stop-color="rgb(0%, 57.53479%, 85.929871%)" offset="0.734375"/><stop stop-opacity="1" stop-color="rgb(0%, 57.743835%, 86.242676%)" offset="0.75"/><stop stop-opacity="1" stop-color="rgb(0%, 57.952881%, 86.555481%)" offset="0.765625"/><stop stop-opacity="1" stop-color="rgb(0%, 58.161926%, 86.86676%)" offset="0.78125"/><stop stop-opacity="1" stop-color="rgb(0%, 58.372498%, 87.179565%)" offset="0.796875"/><stop stop-opacity="1" stop-color="rgb(0%, 58.581543%, 87.492371%)" offset="0.8125"/><stop stop-opacity="1" stop-color="rgb(0%, 58.790588%, 87.805176%)" offset="0.828125"/><stop stop-opacity="1" stop-color="rgb(0%, 58.999634%, 88.117981%)" offset="0.84375"/><stop stop-opacity="1" stop-color="rgb(0%, 59.210205%, 88.42926%)" offset="0.859375"/><stop stop-opacity="1" stop-color="rgb(0%, 59.41925%, 88.742065%)" offset="0.875"/><stop stop-opacity="1" stop-color="rgb(0%, 59.628296%, 89.054871%)" offset="0.890625"/><stop stop-opacity="1" stop-color="rgb(0%, 59.837341%, 89.367676%)" offset="0.90625"/><stop stop-opacity="1" stop-color="rgb(0%, 60.046387%, 89.680481%)" offset="0.921875"/><stop stop-opacity="1" stop-color="rgb(0%, 60.256958%, 89.99176%)" offset="0.9375"/><stop stop-opacity="1" stop-color="rgb(0%, 60.466003%, 90.304565%)" offset="0.953125"/><stop stop-opacity="1" stop-color="rgb(0%, 60.675049%, 90.617371%)" offset="0.96875"/><stop stop-opacity="1" stop-color="rgb(0%, 60.884094%, 90.930176%)" offset="0.984375"/><stop stop-opacity="1" stop-color="rgb(0%, 61.094666%, 91.242981%)" offset="0.999997"/><stop stop-opacity="1" stop-color="rgb(0%, 61.199951%, 91.398621%)" offset="1"/></linearGradient></defs><rect x="-37.5" width="450" fill="#ffffff" y="-37.499999" height="449.999989" fill-opacity="1"/><rect x="-37.5" width="450" fill="#ffffff" y="-37.499999" height="449.999989" fill-opacity="1"/><g clip-path="url(#dd6b9df13c)"><g clip-path="url(#07ce3910c1)"><path fill="url(#e06bdb47c2)" d="M 0 33.425781 L 0 341.585938 L 375 341.585938 L 375 33.425781 Z M 0 33.425781 " fill-rule="nonzero"/></g></g></svg>